<svg width="760" height="336" viewBox="0 0 760 336" fill="none" xmlns="http://www.w3.org/2000/svg">
<rect opacity="0.2" width="760" height="336" rx="4" fill="#F5F5F5"/>
<path d="M248.5 30C248.5 28.067 250.067 26.5 252 26.5H508C509.933 26.5 511.5 28.067 511.5 30V306C511.5 307.933 509.933 309.5 508 309.5H252C250.067 309.5 248.5 307.933 248.5 306V30Z" fill="white" stroke="#DFE3E8"/>
<rect x="248.25" y="58.25" width="263.5" height="0.5" fill="white" stroke="#DFE3E8" stroke-width="0.5"/>
<path d="M280.472 47V38.6H279.476L277.028 44.252C276.956 44.432 276.872 44.636 276.812 44.816L276.596 44.252L274.16 38.6H273.176V47H274.22V41.84C274.22 41.552 274.208 41.144 274.184 40.928C274.28 41.204 274.436 41.576 274.544 41.84L276.776 47.144L279.08 41.864C279.2 41.576 279.356 41.192 279.452 40.916C279.44 41.132 279.428 41.552 279.428 41.84V47H280.472ZM284.758 47H285.802V43.676L288.634 38.6H287.494L285.274 42.68L283.078 38.6H281.902L284.758 43.7V47ZM294.309 47H295.353V43.676L298.185 38.6H297.045L294.825 42.68L292.629 38.6H291.453L294.309 43.7V47ZM299.625 47H304.881V46.004H300.669V43.148H303.273V42.164H300.669V39.584H304.617V38.6H299.625V47ZM312.101 47H313.169L310.193 38.6H309.221L306.245 47H307.337L308.045 44.948H311.381L312.101 47ZM311.057 44.024H308.357L309.449 40.916C309.533 40.676 309.653 40.28 309.713 40.064C309.761 40.28 309.893 40.676 309.977 40.916L311.057 44.024ZM314.719 47H315.763V43.4H317.623L319.351 47H320.527L318.727 43.328C320.131 43.04 320.683 41.984 320.683 40.988C320.683 39.8 320.047 38.6 318.031 38.6H314.719V47ZM315.763 42.428V39.572H318.055C319.291 39.572 319.627 40.388 319.627 41.012C319.627 41.708 319.231 42.428 318.055 42.428H315.763ZM330.335 47H331.403L328.427 38.6H327.455L324.479 47H325.571L326.279 44.948H329.615L330.335 47ZM329.291 44.024H326.591L327.683 40.916C327.767 40.676 327.887 40.28 327.947 40.064C327.995 40.28 328.127 40.676 328.211 40.916L329.291 44.024ZM335.792 47.144C337.268 47.144 338.144 46.388 338.576 45.452L337.616 45.092C337.232 45.728 336.716 46.16 335.792 46.16C334.112 46.16 333.392 44.468 333.392 42.8C333.392 41.264 333.992 39.428 335.792 39.428C336.716 39.428 337.172 39.86 337.568 40.448L338.504 39.968C338.132 39.212 337.34 38.456 335.792 38.456C333.296 38.456 332.312 40.688 332.312 42.8C332.312 44.936 333.248 47.144 335.792 47.144ZM343.168 39.596H345.508V38.6H339.784V39.596H342.124V47H343.168V39.596ZM347.345 47H348.389V38.6H347.345V47ZM352.835 47H353.759L356.627 38.6H355.511L353.567 44.672C353.495 44.912 353.399 45.212 353.327 45.524C353.243 45.212 353.147 44.912 353.075 44.672L351.071 38.6H349.955L352.835 47ZM358.196 47H359.24V38.6H358.196V47ZM364.461 39.596H366.801V38.6H361.077V39.596H363.417V47H364.461V39.596ZM370.774 47H371.818V43.676L374.65 38.6H373.51L371.29 42.68L369.094 38.6H367.918L370.774 43.7V47Z" fill="#637381"/>
<rect x="295" y="83" width="201" height="181" rx="4" stroke="#DDE4E9" stroke-dasharray="1 1"/>
<path d="M270.221 92H271.265V83.6H270.509C270.257 84.356 269.645 84.596 268.817 84.596V85.304H270.221V92ZM276.854 92.144C279.194 92.144 279.794 89.648 279.794 87.8C279.794 85.736 279.11 83.456 276.854 83.456C274.49 83.456 273.914 85.952 273.914 87.8C273.914 89.888 274.598 92.144 276.854 92.144ZM276.854 91.16C275.378 91.16 274.994 89.456 274.994 87.8C274.994 86.3 275.318 84.428 276.854 84.428C278.318 84.428 278.69 86.144 278.69 87.8C278.69 89.3 278.378 91.16 276.854 91.16ZM287.022 92H288.234L285.234 86.504L287.55 83.6H286.374L283.098 87.716V83.6H282.054V92H283.098V89.132L284.526 87.38L287.022 92Z" fill="#637381"/>
<path d="M276.717 133.144C278.625 133.144 279.849 131.824 279.849 130.228C279.849 128.74 278.805 127.528 277.161 127.528C276.477 127.528 275.829 127.756 275.397 128.104L275.721 125.572H279.297V124.6H274.809L274.317 128.848L275.349 129.208C275.673 128.848 276.249 128.524 277.041 128.524C278.073 128.524 278.757 129.244 278.757 130.3C278.757 131.356 277.905 132.184 276.705 132.184C275.673 132.184 275.121 131.824 274.653 131.416L274.029 132.22C274.437 132.652 275.361 133.144 276.717 133.144ZM287.022 133H288.234L285.234 127.504L287.55 124.6H286.374L283.098 128.716V124.6H282.054V133H283.098V130.132L284.526 128.38L287.022 133Z" fill="#637381"/>
<path d="M277.821 177H278.865V174.912H280.053V173.976H278.865V168.6H277.881L273.525 174.288V174.912H277.821V177ZM277.821 173.976H274.893L277.821 170.076V173.976ZM287.022 177H288.234L285.234 171.504L287.55 168.6H286.374L283.098 172.716V168.6H282.054V177H283.098V174.132L284.526 172.38L287.022 177Z" fill="#637381"/>
<path d="M274.17 222H279.822V220.98H275.382C275.574 220.008 276.39 219.384 277.422 218.784C278.658 218.052 279.75 217.356 279.75 215.88C279.75 214.44 278.742 213.456 277.062 213.456C275.67 213.456 274.626 214.212 274.302 215.244L275.238 215.664C275.478 214.92 275.994 214.428 277.026 214.428C278.034 214.428 278.67 215.052 278.67 215.856C278.67 216.804 277.842 217.356 276.954 217.896C275.574 218.7 274.17 219.792 274.17 222ZM287.022 222H288.234L285.234 216.504L287.55 213.6H286.374L283.098 217.716V213.6H282.054V222H283.098V219.132L284.526 217.38L287.022 222Z" fill="#637381"/>
<path d="M283.976 264.144C286.316 264.144 286.916 261.648 286.916 259.8C286.916 257.736 286.232 255.456 283.976 255.456C281.612 255.456 281.036 257.952 281.036 259.8C281.036 261.888 281.72 264.144 283.976 264.144ZM283.976 263.16C282.5 263.16 282.116 261.456 282.116 259.8C282.116 258.3 282.44 256.428 283.976 256.428C285.44 256.428 285.812 258.144 285.812 259.8C285.812 261.3 285.5 263.16 283.976 263.16Z" fill="#637381"/>
<path d="M297 289.058V285.554H296.336V288.362H294.432V286.626H293.776V288.362H292.056V285.73H291.4V289.058H297ZM297 278.973H291.4V279.669H295.392C295.52 279.669 295.656 279.661 295.8 279.653C295.648 279.733 295.52 279.805 295.384 279.885L291.4 282.365V283.069H297V282.373H293C292.872 282.373 292.728 282.381 292.608 282.389C292.744 282.317 292.88 282.237 293 282.165L297 279.645V278.973ZM297 276.205V272.701H296.336V275.509H294.432V273.773H293.776V275.509H292.056V272.877H291.4V276.205H297Z" fill="#637381"/>
<path d="M315 288.347V287.651H312.432V285.883H311.776V287.651H310.056V284.979H309.4V288.347H315ZM315 282.655V279.151H314.336V281.959H312.432V280.223H311.776V281.959H310.056V279.327H309.4V282.655H315ZM309.4 276.666H315V274.554C315 273.186 314.152 272.738 313.392 272.738C312.752 272.738 312.248 273.114 312.048 273.762C311.824 273.242 311.392 272.938 310.88 272.938C310.136 272.938 309.4 273.354 309.4 274.682V276.666ZM311.776 274.818V275.97H310.032V274.642C310.032 273.802 310.48 273.626 310.888 273.626C311.424 273.626 311.776 274.026 311.776 274.818ZM314.36 274.474V275.97H312.408V274.73C312.408 273.682 312.904 273.426 313.44 273.426C313.888 273.426 314.36 273.65 314.36 274.474Z" fill="#637381"/>
<path d="M334 285.811H328.4V286.475L332.168 288.107C332.288 288.155 332.424 288.211 332.544 288.251L332.168 288.395L328.4 290.019V290.675H334V289.979H330.56C330.368 289.979 330.096 289.987 329.952 290.003C330.136 289.939 330.384 289.835 330.56 289.763L334.096 288.275L330.576 286.739C330.384 286.659 330.128 286.555 329.944 286.491C330.088 286.499 330.368 286.507 330.56 286.507H334V285.811ZM334 279.682V278.97L328.4 280.954V281.602L334 283.586V282.858L332.632 282.386V280.162L334 279.682ZM332.016 280.378V282.178L329.944 281.45C329.784 281.394 329.52 281.314 329.376 281.274C329.52 281.242 329.784 281.154 329.944 281.098L332.016 280.378ZM334 276.736V276.04H331.6V274.8L334 273.648V272.864L331.552 274.064C331.36 273.128 330.656 272.76 329.992 272.76C329.2 272.76 328.4 273.184 328.4 274.528V276.736H334ZM330.952 276.04H329.048V274.512C329.048 273.688 329.592 273.464 330.008 273.464C330.472 273.464 330.952 273.728 330.952 274.512V276.04Z" fill="#637381"/>
<path d="M388.096 288.307C388.096 287.523 387.704 286.539 386.16 286.539H382.4V287.235H386.184C387.208 287.235 387.44 287.771 387.44 288.299C387.44 288.875 387.224 289.131 386.792 289.347L387.088 289.923C387.736 289.643 388.096 289.115 388.096 288.307ZM388.096 281.828C388.096 280.628 387.504 279.812 385.896 279.812H382.4V280.508H385.896C387.128 280.508 387.44 281.108 387.44 281.828C387.44 282.548 387.128 283.14 385.896 283.14H382.4V283.836H385.896C387.512 283.836 388.096 283.004 388.096 281.828ZM388 272.984H382.4V273.68H386.392C386.52 273.68 386.656 273.672 386.8 273.664C386.648 273.744 386.52 273.816 386.384 273.896L382.4 276.376V277.08H388V276.384H384C383.872 276.384 383.728 276.392 383.608 276.4C383.744 276.328 383.88 276.248 384 276.176L388 273.656V272.984Z" fill="#637381"/>
<path d="M351 286.132V285.42L345.4 287.404V288.052L351 290.036V289.308L349.632 288.836V286.612L351 286.132ZM349.016 286.828V288.628L346.944 287.9C346.784 287.844 346.52 287.764 346.376 287.724C346.52 287.692 346.784 287.604 346.944 287.548L349.016 286.828ZM345.4 283.186H351V281.074C351 279.706 350.152 279.258 349.392 279.258C348.752 279.258 348.248 279.634 348.048 280.282C347.824 279.762 347.392 279.458 346.88 279.458C346.136 279.458 345.4 279.874 345.4 281.202V283.186ZM347.776 281.338V282.49H346.032V281.162C346.032 280.322 346.48 280.146 346.888 280.146C347.424 280.146 347.776 280.546 347.776 281.338ZM350.36 280.994V282.49H348.408V281.25C348.408 280.202 348.904 279.946 349.44 279.946C349.888 279.946 350.36 280.17 350.36 280.994ZM351 276.736V276.04H348.6V274.8L351 273.648V272.864L348.552 274.064C348.36 273.128 347.656 272.76 346.992 272.76C346.2 272.76 345.4 273.184 345.4 274.528V276.736H351ZM347.952 276.04H346.048V274.512C346.048 273.688 346.592 273.464 347.008 273.464C347.472 273.464 347.952 273.728 347.952 274.512V276.04Z" fill="#637381"/>
<path d="M370 285.054H364.4V285.718L368.168 287.35C368.288 287.398 368.424 287.454 368.544 287.494L368.168 287.638L364.4 289.262V289.918H370V289.222H366.56C366.368 289.222 366.096 289.23 365.952 289.246C366.136 289.182 366.384 289.078 366.56 289.006L370.096 287.518L366.576 285.982C366.384 285.902 366.128 285.798 365.944 285.734C366.088 285.742 366.368 285.75 366.56 285.75H370V285.054ZM370 278.924V278.212L364.4 280.196V280.844L370 282.828V282.1L368.632 281.628V279.404L370 278.924ZM368.016 279.62V281.42L365.944 280.692C365.784 280.636 365.52 280.556 365.376 280.516C365.52 280.484 365.784 280.396 365.944 280.34L368.016 279.62ZM370 275.101V274.405H367.784L364.4 272.517V273.277L367.12 274.757L364.4 276.221V277.005L367.8 275.101H370Z" fill="#637381"/>
<path d="M406.096 287.112C406.096 286.328 405.704 285.344 404.16 285.344H400.4V286.04H404.184C405.208 286.04 405.44 286.576 405.44 287.104C405.44 287.68 405.224 287.936 404.792 288.152L405.088 288.728C405.736 288.448 406.096 287.92 406.096 287.112ZM406.096 280.632C406.096 279.432 405.504 278.616 403.896 278.616H400.4V279.312H403.896C405.128 279.312 405.44 279.912 405.44 280.632C405.44 281.352 405.128 281.944 403.896 281.944H400.4V282.64H403.896C405.512 282.64 406.096 281.808 406.096 280.632ZM406 275.885V272.437H405.328V275.189H400.4V275.885H406Z" fill="#637381"/>
<path d="M424 286.726V286.014L418.4 287.998V288.646L424 290.63V289.902L422.632 289.43V287.206L424 286.726ZM422.016 287.422V289.222L419.944 288.494C419.784 288.438 419.52 288.358 419.376 288.318C419.52 288.286 419.784 288.198 419.944 288.142L422.016 287.422ZM424.096 281.832C424.096 280.712 423.344 279.848 421.952 279.848H421.28V281.592H421.92V280.576H422.144C422.904 280.576 423.432 281.072 423.432 281.832C423.432 283 422.352 283.488 421.2 283.488C420.176 283.488 418.96 283.08 418.96 281.832C418.96 281.216 419.28 280.896 419.648 280.64L419.288 280.016C418.784 280.328 418.304 280.792 418.304 281.832C418.304 283.472 419.752 284.208 421.2 284.208C422.664 284.208 424.096 283.528 424.096 281.832ZM424.096 275.124C424.096 273.356 422.584 272.74 421.2 272.74C419.816 272.74 418.304 273.356 418.304 275.124C418.304 276.884 419.816 277.5 421.2 277.5C422.584 277.5 424.096 276.884 424.096 275.124ZM423.44 275.124C423.44 276.348 422.296 276.78 421.2 276.78C420.184 276.78 418.952 276.348 418.952 275.124C418.952 273.892 420.104 273.468 421.2 273.468C422.208 273.468 423.44 273.892 423.44 275.124Z" fill="#637381"/>
<path d="M442.096 286.801C442.096 285.745 441.512 284.961 440.48 284.961C439.376 284.961 438.968 285.873 438.672 286.657C438.44 287.289 438.208 287.865 437.688 287.865C437.232 287.865 436.952 287.505 436.952 286.913C436.952 286.361 437.208 286.001 437.52 285.865L437.304 285.225C436.728 285.393 436.304 285.977 436.304 286.865C436.304 287.953 436.936 288.585 437.688 288.585C438.664 288.585 439.024 287.729 439.312 286.945C439.552 286.289 439.848 285.681 440.496 285.681C441.112 285.681 441.44 286.113 441.44 286.785C441.44 287.401 441.104 287.873 440.608 288.097L440.848 288.753C441.568 288.505 442.096 287.777 442.096 286.801ZM442 282.444V278.94H441.336V281.748H439.432V280.012H438.776V281.748H437.056V279.116H436.4V282.444H442ZM442 276.455V275.759H439.752V274.311C439.752 272.999 438.848 272.503 438.08 272.503C437.248 272.503 436.4 272.951 436.4 274.311V276.455H442ZM439.104 274.263V275.759H437.048V274.263C437.048 273.423 437.64 273.199 438.08 273.199C438.56 273.199 439.104 273.471 439.104 274.263Z" fill="#637381"/>
<path d="M461.096 287.289C461.096 285.521 459.584 284.905 458.2 284.905C456.816 284.905 455.304 285.521 455.304 287.289C455.304 289.049 456.816 289.665 458.2 289.665C459.584 289.665 461.096 289.049 461.096 287.289ZM460.44 287.289C460.44 288.513 459.296 288.945 458.2 288.945C457.184 288.945 455.952 288.513 455.952 287.289C455.952 286.057 457.104 285.633 458.2 285.633C459.208 285.633 460.44 286.057 460.44 287.289ZM461.096 280.302C461.096 279.318 460.592 278.734 459.968 278.446L459.728 279.086C460.152 279.342 460.44 279.686 460.44 280.302C460.44 281.422 459.312 281.902 458.2 281.902C457.176 281.902 455.952 281.502 455.952 280.302C455.952 279.686 456.24 279.382 456.632 279.118L456.312 278.494C455.808 278.742 455.304 279.27 455.304 280.302C455.304 281.966 456.792 282.622 458.2 282.622C459.624 282.622 461.096 281.998 461.096 280.302ZM456.064 274.184V272.624H455.4V276.44H456.064V274.88H461V274.184H456.064Z" fill="#637381"/>
<path d="M479 286.087H473.4V286.783H477.392C477.52 286.783 477.656 286.775 477.8 286.767C477.648 286.847 477.52 286.919 477.384 286.999L473.4 289.479V290.183H479V289.487H475C474.872 289.487 474.728 289.495 474.608 289.503C474.744 289.431 474.88 289.351 475 289.279L479 286.759V286.087ZM479.096 281.183C479.096 279.415 477.584 278.799 476.2 278.799C474.816 278.799 473.304 279.415 473.304 281.183C473.304 282.943 474.816 283.559 476.2 283.559C477.584 283.559 479.096 282.943 479.096 281.183ZM478.44 281.183C478.44 282.407 477.296 282.839 476.2 282.839C475.184 282.839 473.952 282.407 473.952 281.183C473.952 279.951 475.104 279.527 476.2 279.527C477.208 279.527 478.44 279.951 478.44 281.183ZM479 275.115V274.499L473.4 272.587V273.331L477.448 274.627C477.608 274.675 477.808 274.739 478.016 274.787C477.808 274.843 477.608 274.907 477.448 274.955L473.4 276.291V277.035L479 275.115Z" fill="#637381"/>
<path d="M490.4 286.746H496V285.25C496 283.218 494.488 282.618 493.2 282.618C491.816 282.618 490.4 283.298 490.4 285.218V286.746ZM495.352 285.162V286.05H491.04V285.074C491.04 283.842 492.112 283.338 493.2 283.338C494.216 283.338 495.352 283.77 495.352 285.162ZM496 280.077V279.381H490.4V280.077H496ZM496.096 274.516C496.096 273.532 495.592 272.948 494.968 272.66L494.728 273.3C495.152 273.556 495.44 273.9 495.44 274.516C495.44 275.636 494.312 276.116 493.2 276.116C492.176 276.116 490.952 275.716 490.952 274.516C490.952 273.9 491.24 273.596 491.632 273.332L491.312 272.708C490.808 272.956 490.304 273.484 490.304 274.516C490.304 276.18 491.792 276.836 493.2 276.836C494.624 276.836 496.096 276.212 496.096 274.516Z" fill="#637381"/>
<line x1="295" y1="219.5" x2="496" y2="219.5" stroke="#DDE4E9" stroke-dasharray="1 1"/>
<line x1="312.5" y1="264" x2="312.5" y2="83" stroke="#DDE4E9" stroke-dasharray="1 1"/>
<line x1="331.5" y1="264" x2="331.5" y2="83" stroke="#DDE4E9" stroke-dasharray="1 1"/>
<line x1="349.5" y1="264" x2="349.5" y2="83" stroke="#DDE4E9" stroke-dasharray="1 1"/>
<line x1="367.5" y1="264" x2="367.5" y2="83" stroke="#DDE4E9" stroke-dasharray="1 1"/>
<line x1="385.5" y1="264" x2="385.5" y2="83" stroke="#DDE4E9" stroke-dasharray="1 1"/>
<line x1="404.5" y1="264" x2="404.5" y2="83" stroke="#DDE4E9" stroke-dasharray="1 1"/>
<line x1="422.5" y1="264" x2="422.5" y2="83" stroke="#DDE4E9" stroke-dasharray="1 1"/>
<line x1="440.5" y1="264" x2="440.5" y2="83" stroke="#DDE4E9" stroke-dasharray="1 1"/>
<line x1="458.5" y1="264" x2="458.5" y2="83" stroke="#DDE4E9" stroke-dasharray="1 1"/>
<line x1="477.5" y1="264" x2="477.5" y2="83" stroke="#DDE4E9" stroke-dasharray="1 1"/>
<line x1="295" y1="173.5" x2="496" y2="173.5" stroke="#DDE4E9" stroke-dasharray="1 1"/>
<line x1="295" y1="128.5" x2="496" y2="128.5" stroke="#DDE4E9" stroke-dasharray="1 1"/>
<circle cx="294.5" cy="256.5" r="2.5" fill="#E77C6A"/>
<circle cx="294.5" cy="262.5" r="2.5" fill="#5C6AC4"/>
<circle cx="312.5" cy="237.5" r="2.5" fill="#5C6AC4"/>
<circle cx="331.5" cy="248.5" r="2.5" fill="#5C6AC4"/>
<circle cx="349.5" cy="235.5" r="2.5" fill="#5C6AC4"/>
<circle cx="367.5" cy="242.5" r="2.5" fill="#5C6AC4"/>
<circle cx="385.5" cy="248.5" r="2.5" fill="#5C6AC4"/>
<circle cx="404.5" cy="254.5" r="2.5" fill="#5C6AC4"/>
<circle cx="422.5" cy="244.5" r="2.5" fill="#5C6AC4"/>
<circle cx="440.5" cy="247.5" r="2.5" fill="#5C6AC4"/>
<circle cx="458.5" cy="211.5" r="2.5" fill="#5C6AC4"/>
<circle cx="312.5" cy="249.5" r="2.5" fill="#E77C6A"/>
<circle cx="331.5" cy="233.5" r="2.5" fill="#E77C6A"/>
<circle cx="349.5" cy="245.5" r="2.5" fill="#E77C6A"/>
<circle cx="367.5" cy="232.5" r="2.5" fill="#E77C6A"/>
<circle cx="385.5" cy="238.5" r="2.5" fill="#E77C6A"/>
<circle cx="404.5" cy="248.5" r="2.5" fill="#E77C6A"/>
<circle cx="422.5" cy="204.5" r="2.5" fill="#E77C6A"/>
<circle cx="440.5" cy="227.5" r="2.5" fill="#E77C6A"/>
<circle cx="458.5" cy="205.5" r="2.5" fill="#E77C6A"/>
<circle cx="294.5" cy="236.5" r="2.5" fill="#876559"/>
<circle cx="312.5" cy="222.5" r="2.5" fill="#876559"/>
<circle cx="385.5" cy="183.5" r="2.5" fill="#876559"/>
<circle cx="367.5" cy="198.5" r="2.5" fill="#876559"/>
<circle cx="349.5" cy="218.5" r="2.5" fill="#876559"/>
<circle cx="331.5" cy="205.5" r="2.5" fill="#876559"/>
<circle cx="440.5" cy="160.5" r="2.5" fill="#876559"/>
<circle cx="422.5" cy="156.5" r="2.5" fill="#876559"/>
<circle cx="403.5" cy="188.5" r="2.5" fill="#876559"/>
<circle cx="458.5" cy="104.5" r="2.5" fill="#876559"/>
<path d="M296 235.5L312.5 222.5L331.5 204.5L349.5 219L367.5 199L385.5 182L404.5 190L422.5 156L440.5 160.5L458.5 105.5" stroke="#876559" stroke-linecap="round" stroke-linejoin="round" stroke-dasharray="3 3"/>
<path d="M296 256L312.5 250L331.5 233L349.5 246L367.5 232L385.5 238.5L404.5 249L422.5 204L440.5 227.5L458.5 206" stroke="#E77C6A" stroke-linecap="round" stroke-linejoin="round" stroke-dasharray="3 3"/>
<path d="M296 261L312.5 237L331.5 248.5L349.5 235L367.5 242.5L385.5 248.5L404.5 254L422.5 244.5L440.5 246.5L458.5 211" stroke="#5C6AC4" stroke-linecap="round" stroke-linejoin="round" stroke-dasharray="3 3"/>
</svg>
