<svg width="760" height="336" viewBox="0 0 760 336" fill="none" xmlns="http://www.w3.org/2000/svg">
<g filter="url(#filter0_d)">
<rect x="316" y="148" width="128" height="40" rx="4" fill="url(#paint0_linear)"/>
</g>
<path d="M376.311 173H377.543L381.367 161.8H379.879L377.287 169.896C377.191 170.216 377.063 170.616 376.967 171.032C376.855 170.616 376.727 170.216 376.631 169.896L373.959 161.8H372.471L376.311 173ZM385.402 173.192C387.594 173.192 389.017 171.592 389.017 168.904C389.017 166.2 387.594 164.632 385.402 164.632C383.21 164.632 381.786 166.232 381.786 168.92C381.786 171.624 383.21 173.192 385.402 173.192ZM385.402 171.896C384.01 171.896 383.194 170.776 383.194 168.92C383.194 167.016 384.01 165.912 385.402 165.912C386.794 165.912 387.61 167.048 387.61 168.904C387.61 170.776 386.778 171.896 385.402 171.896ZM393.395 173.192C394.035 173.192 394.531 173.048 394.963 172.824L395.123 171.464C394.771 171.688 394.371 171.896 393.907 171.896C393.187 171.896 393.059 171.4 393.059 170.776V166.04H395.075V164.824H393.059V161.448L391.667 162.12V164.824H390.339V166.04H391.667V171.24C391.667 172.392 392.163 173.192 393.395 173.192ZM400.168 173.192C401.272 173.192 402.2 172.744 402.808 172.136L401.96 171.192C401.448 171.704 400.824 171.928 400.2 171.928C398.968 171.928 398.072 170.952 397.96 169.448H403.496C403.528 169.128 403.544 168.776 403.544 168.52C403.544 165.832 402.008 164.632 400.168 164.632C397.992 164.632 396.536 166.2 396.536 168.904C396.536 171.4 397.928 173.192 400.168 173.192ZM397.944 168.264C398.024 166.584 398.984 165.864 400.168 165.864C401.032 165.864 402.12 166.408 402.136 168.264H397.944Z" fill="white"/>
<path fill-rule="evenodd" clip-rule="evenodd" d="M350.023 158.178C350.273 157.941 350.671 157.941 350.921 158.178L351.634 158.853C351.634 158.853 351.634 158.853 351.634 158.853C351.936 159.139 352.128 159.538 352.128 159.984C352.128 160.104 352.112 160.216 352.092 160.312C352.092 160.313 352.091 160.315 352.091 160.317L351.664 162.245H355.513C356.342 162.245 357.056 162.89 357.056 163.727V164.788C357.056 165.047 357 165.279 356.917 165.484C356.913 165.492 356.91 165.5 356.907 165.508L354.876 169.996C354.57 170.69 353.854 171.152 353.046 171.152H346.992C345.912 171.152 345 170.32 345 169.245V163.727C345 163.191 345.233 162.712 345.592 162.372C345.592 162.372 345.592 162.372 345.592 162.372L350.023 158.178ZM346.491 163.283L346.041 162.827L346.491 163.283C346.366 163.402 346.293 163.559 346.293 163.727V169.245C346.293 169.579 346.583 169.885 346.992 169.885H353.046C353.349 169.885 353.593 169.712 353.69 169.491C353.691 169.489 353.692 169.487 353.693 169.485L355.718 165.008C355.749 164.929 355.763 164.858 355.763 164.788V163.727C355.763 163.631 355.67 163.512 355.513 163.512H350.862C350.667 163.512 350.482 163.425 350.359 163.276C350.236 163.127 350.189 162.931 350.23 162.744L350.826 160.052C350.832 160.021 350.834 159.998 350.834 159.984C350.834 159.903 350.801 159.827 350.736 159.764L350.736 159.764L350.472 159.515L346.491 163.283Z" fill="white"/>
<path fill-rule="evenodd" clip-rule="evenodd" d="M357.977 177.822C357.727 178.059 357.329 178.059 357.079 177.822L356.366 177.147C356.366 177.147 356.366 177.147 356.366 177.147C356.064 176.861 355.872 176.462 355.872 176.016C355.872 175.896 355.888 175.784 355.908 175.688C355.908 175.687 355.909 175.685 355.909 175.683L356.336 173.755L352.487 173.755C351.658 173.755 350.944 173.11 350.944 172.273L350.944 171.212C350.944 170.953 351 170.721 351.083 170.516L352.286 170.982C352.252 171.065 352.237 171.139 352.237 171.212L352.237 172.273C352.237 172.369 352.33 172.488 352.487 172.488L357.138 172.488C357.333 172.488 357.518 172.575 357.641 172.724C357.764 172.873 357.811 173.069 357.77 173.256L357.174 175.948C357.168 175.979 357.166 176.002 357.166 176.016C357.166 176.097 357.199 176.173 357.264 176.236L357.264 176.236L357.528 176.485L361.509 172.717L361.959 173.173L361.509 172.717C361.634 172.598 361.707 172.441 361.707 172.273L361.707 166.755C361.707 166.421 361.417 166.115 361.008 166.115L356.519 166.115L356.519 164.848L361.008 164.848C362.088 164.848 363 165.68 363 166.755L363 172.273C363 172.809 362.767 173.288 362.408 173.628C362.408 173.628 362.408 173.628 362.408 173.628L357.977 177.822Z" fill="white"/>
<rect opacity="0.2" width="760" height="336" rx="4" fill="#F5F5F5"/>
<defs>
<filter id="filter0_d" x="313" y="146" width="134" height="46" filterUnits="userSpaceOnUse" color-interpolation-filters="sRGB">
<feFlood flood-opacity="0" result="BackgroundImageFix"/>
<feColorMatrix in="SourceAlpha" type="matrix" values="0 0 0 0 0 0 0 0 0 0 0 0 0 0 0 0 0 0 127 0"/>
<feOffset dy="1"/>
<feGaussianBlur stdDeviation="1.5"/>
<feColorMatrix type="matrix" values="0 0 0 0 0 0 0 0 0 0 0 0 0 0 0 0 0 0 0.25 0"/>
<feBlend mode="normal" in2="BackgroundImageFix" result="effect1_dropShadow"/>
<feBlend mode="normal" in="SourceGraphic" in2="effect1_dropShadow" result="shape"/>
</filter>
<linearGradient id="paint0_linear" x1="444" y1="148" x2="313.598" y2="158.682" gradientUnits="userSpaceOnUse">
<stop stop-color="#3FE8E0"/>
<stop offset="1" stop-color="#08BEE5"/>
</linearGradient>
</defs>
</svg>
