<svg width="760" height="413" viewBox="0 0 760 413" fill="none" xmlns="http://www.w3.org/2000/svg">
<rect opacity="0.2" width="760" height="413" rx="4" fill="#F5F5F5"/>
<g filter="url(#filter0_d)">
<rect x="410" y="187" width="128" height="40" rx="3" fill="white"/>
<rect x="410.5" y="187.5" width="127" height="39" rx="2.5" stroke="#DFE3E8" stroke-opacity="0.75"/>
</g>
<path d="M465.91 212.192C468.022 212.192 469.59 211.024 469.59 208.96C469.59 206.752 467.766 205.936 466.198 205.344C464.934 204.88 463.782 204.416 463.782 203.376C463.782 202.464 464.502 201.904 465.686 201.904C466.79 201.904 467.51 202.416 467.782 203.04L469.062 202.608C468.726 201.456 467.558 200.608 465.782 200.608C463.606 200.608 462.342 201.872 462.342 203.376C462.342 205.328 464.054 206.048 465.622 206.624C466.934 207.104 468.15 207.696 468.15 208.992C468.15 210.224 467.286 210.88 465.942 210.88C464.71 210.88 463.766 210.208 463.318 209.216L462.006 209.696C462.502 211.136 463.958 212.192 465.91 212.192ZM471.984 212H473.376V207.024C473.376 205.44 474.192 204.912 475.264 204.912C476.272 204.912 477.024 205.504 477.024 207.056V212H478.416V207.296C478.416 204.656 477.344 203.632 475.488 203.632C474.608 203.632 473.888 203.968 473.376 204.672V200.448L471.984 201.088V212ZM485.688 212H487V206.576C487 204.064 485.368 203.632 484.088 203.632C482.856 203.632 481.784 204.064 481.128 204.496L481.528 205.664C482.136 205.232 483 204.848 483.912 204.848C484.968 204.848 485.688 205.248 485.688 206.688V207.264C485.016 206.88 484.296 206.736 483.576 206.736C481.992 206.736 480.52 207.552 480.52 209.44C480.52 211.264 481.704 212.192 483.368 212.192C484.344 212.192 485.144 211.76 485.688 211.248V212ZM483.576 210.96C482.456 210.96 481.832 210.352 481.832 209.44C481.832 208.4 482.712 207.936 483.768 207.936C484.44 207.936 485.192 208.176 485.688 208.48V209.888C485.224 210.432 484.488 210.96 483.576 210.96ZM489.422 212H490.814V207.392C490.814 205.536 491.854 205.008 492.638 205.008C493.198 205.008 493.55 205.184 493.806 205.36L494.014 204.048C493.726 203.808 493.278 203.632 492.75 203.632C491.838 203.632 491.182 204.08 490.814 204.896V203.824H489.422V212ZM498.793 212.192C499.897 212.192 500.825 211.744 501.433 211.136L500.585 210.192C500.073 210.704 499.449 210.928 498.825 210.928C497.593 210.928 496.697 209.952 496.585 208.448H502.121C502.153 208.128 502.169 207.776 502.169 207.52C502.169 204.832 500.633 203.632 498.793 203.632C496.617 203.632 495.161 205.2 495.161 207.904C495.161 210.4 496.553 212.192 498.793 212.192ZM496.569 207.264C496.649 205.584 497.609 204.864 498.793 204.864C499.657 204.864 500.745 205.408 500.761 207.264H496.569Z" fill="#636971"/>
<path d="M444.534 203.887C436.75 203.887 435.654 209.962 436.078 213C437.769 208.934 442.42 208.098 444.534 208.188V211.105L451 206.023L444.534 201V203.887Z" stroke="#8FA4B5" stroke-width="1.3" stroke-linejoin="round"/>
<g filter="url(#filter1_d)">
<rect x="231" y="187" width="128" height="40" rx="4" fill="url(#paint0_linear)"/>
</g>
<path d="M291.311 212H292.543L296.367 200.8H294.879L292.287 208.896C292.191 209.216 292.063 209.616 291.967 210.032C291.855 209.616 291.727 209.216 291.631 208.896L288.959 200.8H287.471L291.311 212ZM300.402 212.192C302.594 212.192 304.017 210.592 304.017 207.904C304.017 205.2 302.594 203.632 300.402 203.632C298.21 203.632 296.786 205.232 296.786 207.92C296.786 210.624 298.21 212.192 300.402 212.192ZM300.402 210.896C299.01 210.896 298.194 209.776 298.194 207.92C298.194 206.016 299.01 204.912 300.402 204.912C301.794 204.912 302.61 206.048 302.61 207.904C302.61 209.776 301.778 210.896 300.402 210.896ZM308.395 212.192C309.035 212.192 309.531 212.048 309.963 211.824L310.123 210.464C309.771 210.688 309.371 210.896 308.907 210.896C308.187 210.896 308.059 210.4 308.059 209.776V205.04H310.075V203.824H308.059V200.448L306.667 201.12V203.824H305.339V205.04H306.667V210.24C306.667 211.392 307.163 212.192 308.395 212.192ZM315.168 212.192C316.272 212.192 317.2 211.744 317.808 211.136L316.96 210.192C316.448 210.704 315.824 210.928 315.2 210.928C313.968 210.928 313.072 209.952 312.96 208.448H318.496C318.528 208.128 318.544 207.776 318.544 207.52C318.544 204.832 317.008 203.632 315.168 203.632C312.992 203.632 311.536 205.2 311.536 207.904C311.536 210.4 312.928 212.192 315.168 212.192ZM312.944 207.264C313.024 205.584 313.984 204.864 315.168 204.864C316.032 204.864 317.12 205.408 317.136 207.264H312.944Z" fill="white"/>
<path fill-rule="evenodd" clip-rule="evenodd" d="M265.023 197.178C265.273 196.941 265.671 196.941 265.921 197.178L266.634 197.853C266.634 197.853 266.634 197.853 266.634 197.853C266.936 198.139 267.128 198.538 267.128 198.984C267.128 199.104 267.112 199.216 267.092 199.312C267.092 199.313 267.091 199.315 267.091 199.317L266.664 201.245H270.513C271.342 201.245 272.056 201.89 272.056 202.727V203.788C272.056 204.047 272 204.279 271.917 204.484C271.913 204.492 271.91 204.5 271.907 204.508L269.876 208.996C269.57 209.69 268.854 210.152 268.046 210.152H261.992C260.912 210.152 260 209.32 260 208.245V202.727C260 202.191 260.233 201.712 260.592 201.372C260.592 201.372 260.592 201.372 260.592 201.372L265.023 197.178ZM261.491 202.283L261.041 201.827L261.491 202.283C261.366 202.402 261.293 202.559 261.293 202.727V208.245C261.293 208.579 261.583 208.885 261.992 208.885H268.046C268.349 208.885 268.593 208.712 268.69 208.491C268.691 208.489 268.692 208.487 268.693 208.485L270.718 204.008C270.749 203.929 270.763 203.858 270.763 203.788V202.727C270.763 202.631 270.67 202.512 270.513 202.512H265.862C265.667 202.512 265.482 202.425 265.359 202.276C265.236 202.127 265.189 201.931 265.23 201.744L265.826 199.052C265.832 199.021 265.834 198.998 265.834 198.984C265.834 198.903 265.801 198.827 265.736 198.764L265.736 198.764L265.472 198.515L261.491 202.283Z" fill="white"/>
<path fill-rule="evenodd" clip-rule="evenodd" d="M272.977 216.822C272.727 217.059 272.329 217.059 272.079 216.822L271.366 216.147C271.366 216.147 271.366 216.147 271.366 216.147C271.064 215.861 270.872 215.462 270.872 215.016C270.872 214.896 270.888 214.784 270.908 214.688C270.908 214.687 270.909 214.685 270.909 214.683L271.336 212.755L267.487 212.755C266.658 212.755 265.944 212.11 265.944 211.273L265.944 210.212C265.944 209.953 266 209.721 266.083 209.516L267.286 209.982C267.252 210.065 267.237 210.139 267.237 210.212L267.237 211.273C267.237 211.369 267.33 211.488 267.487 211.488L272.138 211.488C272.333 211.488 272.518 211.575 272.641 211.724C272.764 211.873 272.811 212.069 272.77 212.256L272.174 214.948C272.168 214.979 272.166 215.002 272.166 215.016C272.166 215.097 272.199 215.173 272.264 215.236L272.264 215.236L272.528 215.485L276.509 211.717L276.959 212.173L276.509 211.717C276.634 211.598 276.707 211.441 276.707 211.273L276.707 205.755C276.707 205.421 276.417 205.115 276.008 205.115L271.519 205.115L271.519 203.848L276.008 203.848C277.088 203.848 278 204.68 278 205.755L278 211.273C278 211.809 277.767 212.288 277.408 212.628C277.408 212.628 277.408 212.628 277.408 212.628L272.977 216.822Z" fill="white"/>
<defs>
<filter id="filter0_d" x="407" y="185" width="134" height="46" filterUnits="userSpaceOnUse" color-interpolation-filters="sRGB">
<feFlood flood-opacity="0" result="BackgroundImageFix"/>
<feColorMatrix in="SourceAlpha" type="matrix" values="0 0 0 0 0 0 0 0 0 0 0 0 0 0 0 0 0 0 127 0"/>
<feOffset dy="1"/>
<feGaussianBlur stdDeviation="1.5"/>
<feColorMatrix type="matrix" values="0 0 0 0 0 0 0 0 0 0 0 0 0 0 0 0 0 0 0.1 0"/>
<feBlend mode="normal" in2="BackgroundImageFix" result="effect1_dropShadow"/>
<feBlend mode="normal" in="SourceGraphic" in2="effect1_dropShadow" result="shape"/>
</filter>
<filter id="filter1_d" x="228" y="185" width="134" height="46" filterUnits="userSpaceOnUse" color-interpolation-filters="sRGB">
<feFlood flood-opacity="0" result="BackgroundImageFix"/>
<feColorMatrix in="SourceAlpha" type="matrix" values="0 0 0 0 0 0 0 0 0 0 0 0 0 0 0 0 0 0 127 0"/>
<feOffset dy="1"/>
<feGaussianBlur stdDeviation="1.5"/>
<feColorMatrix type="matrix" values="0 0 0 0 0 0 0 0 0 0 0 0 0 0 0 0 0 0 0.25 0"/>
<feBlend mode="normal" in2="BackgroundImageFix" result="effect1_dropShadow"/>
<feBlend mode="normal" in="SourceGraphic" in2="effect1_dropShadow" result="shape"/>
</filter>
<linearGradient id="paint0_linear" x1="359" y1="187" x2="228.598" y2="197.682" gradientUnits="userSpaceOnUse">
<stop stop-color="#3FE8E0"/>
<stop offset="1" stop-color="#08BEE5"/>
</linearGradient>
</defs>
</svg>
