<svg width="760" height="336" viewBox="0 0 760 336" fill="none" xmlns="http://www.w3.org/2000/svg">
<rect opacity="0.2" width="760" height="336" rx="4" fill="#F5F5F5"/>
<path d="M20.5 50C20.5 48.067 22.067 46.5 24 46.5H733C734.933 46.5 736.5 48.067 736.5 50V284C736.5 285.933 734.933 287.5 733 287.5H24C22.067 287.5 20.5 285.933 20.5 284V50Z" fill="white" stroke="#DDE4E9"/>
<path d="M115.68 106.8V118H118.592C122.624 118 123.728 114.976 123.728 112.4C123.728 109.632 122.448 106.8 118.656 106.8H115.68ZM118.672 116.992H116.8V107.808H118.848C121.504 107.808 122.56 110.08 122.56 112.4C122.56 114.576 121.68 116.992 118.672 116.992ZM132.699 118H133.835L129.915 106.8H129.051L125.163 118H126.331L127.307 115.104H131.675L132.699 118ZM131.339 114.112H127.643L129.179 109.632C129.275 109.36 129.419 108.832 129.483 108.624C129.531 108.832 129.707 109.36 129.803 109.632L131.339 114.112ZM136.164 118H137.284V106.8H136.164V118ZM146.768 118.192C148.16 118.192 149.248 117.472 149.632 116.32L148.624 115.936C148.352 116.704 147.696 117.184 146.816 117.184C145.376 117.184 144.704 115.984 144.704 113.92C144.704 111.904 145.328 110.64 146.848 110.64C147.744 110.64 148.24 111.12 148.496 111.744L149.52 111.344C149.072 110.24 148.112 109.632 146.896 109.632C144.8 109.632 143.536 111.232 143.536 113.92C143.536 116.64 144.8 118.192 146.768 118.192ZM154.743 118.192C156.839 118.192 158.247 116.592 158.247 113.904C158.247 111.184 156.839 109.632 154.743 109.632C152.647 109.632 151.239 111.232 151.239 113.92C151.239 116.64 152.647 118.192 154.743 118.192ZM154.743 117.184C153.223 117.184 152.407 115.952 152.407 113.92C152.407 111.792 153.223 110.64 154.743 110.64C156.263 110.64 157.079 111.872 157.079 113.904C157.079 115.952 156.231 117.184 154.743 117.184ZM160.645 118H161.765V106.448L160.645 106.992V118ZM164.801 118H165.921V106.448L164.801 106.992V118ZM173.582 118H174.622V112.464C174.622 110.144 173.07 109.632 171.902 109.632C170.782 109.632 169.694 110.112 169.038 110.528L169.358 111.488C169.966 111.072 170.974 110.608 171.79 110.608C172.702 110.608 173.582 110.96 173.582 112.608V113.296C172.782 112.864 172.062 112.72 171.374 112.72C169.822 112.72 168.398 113.536 168.398 115.424C168.398 117.264 169.534 118.192 171.182 118.192C172.062 118.192 172.926 117.792 173.582 117.2V118ZM171.294 117.216C170.11 117.216 169.438 116.496 169.438 115.424C169.438 114.24 170.382 113.696 171.486 113.696C172.19 113.696 173.054 114.016 173.582 114.368V115.952C173.086 116.56 172.286 117.216 171.294 117.216ZM179.222 118.192C179.846 118.192 180.294 118.048 180.71 117.824L180.838 116.656C180.534 116.864 180.15 117.136 179.606 117.136C178.822 117.136 178.726 116.544 178.726 115.84V110.832H180.806V109.824H178.726V106.448L177.606 107.008V109.824H176.214V110.832H177.606V116.32C177.606 117.392 178.054 118.192 179.222 118.192ZM185.916 118.192C186.86 118.192 187.772 117.792 188.412 117.264L187.804 116.512C187.18 116.976 186.556 117.152 185.964 117.152C184.572 117.152 183.74 116.032 183.548 114.368H189.116C189.148 114.016 189.148 113.76 189.148 113.584C189.148 110.832 187.66 109.632 185.916 109.632C183.82 109.632 182.364 111.184 182.364 113.904C182.364 116.208 183.708 118.192 185.916 118.192ZM183.516 113.36C183.612 111.504 184.604 110.64 185.916 110.64C186.78 110.64 187.996 111.152 188.012 113.36H183.516ZM191.393 118H192.513V113.376C192.513 111.36 193.681 110.752 194.497 110.752C195.025 110.752 195.345 110.928 195.553 111.056L195.729 109.968C195.505 109.808 195.089 109.632 194.577 109.632C193.569 109.632 192.881 110.192 192.513 110.976V109.824H191.393V118ZM201.878 118H202.918V112.464C202.918 110.144 201.366 109.632 200.198 109.632C199.078 109.632 197.99 110.112 197.334 110.528L197.654 111.488C198.262 111.072 199.27 110.608 200.086 110.608C200.998 110.608 201.878 110.96 201.878 112.608V113.296C201.078 112.864 200.358 112.72 199.67 112.72C198.118 112.72 196.694 113.536 196.694 115.424C196.694 117.264 197.83 118.192 199.478 118.192C200.358 118.192 201.222 117.792 201.878 117.2V118ZM199.59 117.216C198.406 117.216 197.734 116.496 197.734 115.424C197.734 114.24 198.678 113.696 199.782 113.696C200.486 113.696 201.35 114.016 201.878 114.368V115.952C201.382 116.56 200.582 117.216 199.59 117.216ZM205.551 118H206.671V106.448L205.551 106.992V118ZM210.204 108.144C210.636 108.144 210.94 107.824 210.94 107.408C210.94 106.976 210.636 106.64 210.204 106.64C209.788 106.64 209.468 106.976 209.468 107.408C209.468 107.824 209.788 108.144 210.204 108.144ZM209.644 118H210.764V109.824H209.644V118ZM213.339 118H218.987V116.992H214.795L219.003 110.496V109.824H213.659V110.832H217.515L213.339 117.312V118ZM226.347 118H227.387V112.464C227.387 110.144 225.835 109.632 224.667 109.632C223.547 109.632 222.459 110.112 221.803 110.528L222.123 111.488C222.731 111.072 223.739 110.608 224.555 110.608C225.467 110.608 226.347 110.96 226.347 112.608V113.296C225.547 112.864 224.827 112.72 224.139 112.72C222.587 112.72 221.163 113.536 221.163 115.424C221.163 117.264 222.299 118.192 223.947 118.192C224.827 118.192 225.691 117.792 226.347 117.2V118ZM224.059 117.216C222.875 117.216 222.203 116.496 222.203 115.424C222.203 114.24 223.147 113.696 224.251 113.696C224.955 113.696 225.819 114.016 226.347 114.368V115.952C225.851 116.56 225.051 117.216 224.059 117.216ZM231.988 118.192C232.612 118.192 233.06 118.048 233.476 117.824L233.604 116.656C233.3 116.864 232.916 117.136 232.372 117.136C231.588 117.136 231.492 116.544 231.492 115.84V110.832H233.572V109.824H231.492V106.448L230.372 107.008V109.824H228.98V110.832H230.372V116.32C230.372 117.392 230.82 118.192 231.988 118.192ZM236.422 108.144C236.854 108.144 237.158 107.824 237.158 107.408C237.158 106.976 236.854 106.64 236.422 106.64C236.006 106.64 235.686 106.976 235.686 107.408C235.686 107.824 236.006 108.144 236.422 108.144ZM235.862 118H236.982V109.824H235.862V118ZM242.822 118.192C244.918 118.192 246.326 116.592 246.326 113.904C246.326 111.184 244.918 109.632 242.822 109.632C240.726 109.632 239.318 111.232 239.318 113.92C239.318 116.64 240.726 118.192 242.822 118.192ZM242.822 117.184C241.302 117.184 240.486 115.952 240.486 113.92C240.486 111.792 241.302 110.64 242.822 110.64C244.342 110.64 245.158 111.872 245.158 113.904C245.158 115.952 244.31 117.184 242.822 117.184ZM253.683 118H254.803V113.472C254.803 110.768 253.875 109.632 251.875 109.632C251.011 109.632 250.275 109.984 249.763 110.72V109.824H248.643V118H249.763V112.976C249.763 111.2 250.627 110.64 251.779 110.64C252.867 110.64 253.683 111.28 253.683 113.008V118ZM261.284 118H262.404V113.376C262.404 111.36 263.572 110.752 264.388 110.752C264.916 110.752 265.236 110.928 265.444 111.056L265.62 109.968C265.396 109.808 264.98 109.632 264.468 109.632C263.46 109.632 262.772 110.192 262.404 110.976V109.824H261.284V118ZM271.769 118H272.809V112.464C272.809 110.144 271.257 109.632 270.089 109.632C268.969 109.632 267.881 110.112 267.225 110.528L267.545 111.488C268.153 111.072 269.161 110.608 269.977 110.608C270.889 110.608 271.769 110.96 271.769 112.608V113.296C270.969 112.864 270.249 112.72 269.561 112.72C268.009 112.72 266.585 113.536 266.585 115.424C266.585 117.264 267.721 118.192 269.369 118.192C270.249 118.192 271.113 117.792 271.769 117.2V118ZM269.481 117.216C268.297 117.216 267.625 116.496 267.625 115.424C267.625 114.24 268.569 113.696 269.673 113.696C270.377 113.696 271.241 114.016 271.769 114.368V115.952C271.273 116.56 270.473 117.216 269.481 117.216ZM277.41 118.192C278.034 118.192 278.482 118.048 278.898 117.824L279.026 116.656C278.722 116.864 278.338 117.136 277.794 117.136C277.01 117.136 276.914 116.544 276.914 115.84V110.832H278.994V109.824H276.914V106.448L275.794 107.008V109.824H274.402V110.832H275.794V116.32C275.794 117.392 276.242 118.192 277.41 118.192ZM281.844 108.144C282.276 108.144 282.58 107.824 282.58 107.408C282.58 106.976 282.276 106.64 281.844 106.64C281.428 106.64 281.108 106.976 281.108 107.408C281.108 107.824 281.428 108.144 281.844 108.144ZM281.284 118H282.404V109.824H281.284V118ZM288.243 118.192C290.339 118.192 291.747 116.592 291.747 113.904C291.747 111.184 290.339 109.632 288.243 109.632C286.147 109.632 284.739 111.232 284.739 113.92C284.739 116.64 286.147 118.192 288.243 118.192ZM288.243 117.184C286.723 117.184 285.907 115.952 285.907 113.92C285.907 111.792 286.723 110.64 288.243 110.64C289.763 110.64 290.579 111.872 290.579 113.904C290.579 115.952 289.731 117.184 288.243 117.184Z" fill="#637381"/>
<path d="M120 150H121.12V146.976H122.816V146.016H121.12V138.8H120.448L114.56 146.384V146.976H120V150ZM120 146.016H116.016L120 140.736V146.016ZM128.587 150.192C131.675 150.192 132.427 146.768 132.427 144.4C132.427 141.664 131.515 138.608 128.587 138.608C125.467 138.608 124.747 142.064 124.747 144.4C124.747 147.2 125.659 150.192 128.587 150.192ZM128.587 149.184C126.443 149.184 125.915 146.752 125.915 144.4C125.915 142.368 126.347 139.616 128.587 139.616C130.699 139.616 131.227 142.08 131.227 144.4C131.227 146.464 130.827 149.184 128.587 149.184Z" fill="#26324E"/>
<path opacity="0.388788" d="M145.31 144.304C147.198 144.304 147.822 142.688 147.822 141.456C147.822 140.096 147.15 138.608 145.31 138.608C143.454 138.608 142.798 140.256 142.798 141.456C142.798 142.8 143.47 144.304 145.31 144.304ZM145.71 150.192L153.358 138.608H152.206L144.558 150.192H145.71ZM145.31 143.376C144.302 143.376 143.838 142.56 143.838 141.456C143.838 140.416 144.286 139.536 145.31 139.536C146.286 139.536 146.782 140.32 146.782 141.456C146.782 142.48 146.302 143.376 145.31 143.376ZM152.606 150.192C154.494 150.192 155.118 148.576 155.118 147.344C155.118 145.984 154.446 144.496 152.606 144.496C150.75 144.496 150.094 146.144 150.094 147.344C150.094 148.688 150.766 150.192 152.606 150.192ZM152.606 149.264C151.598 149.264 151.134 148.448 151.134 147.344C151.134 146.304 151.582 145.424 152.606 145.424C153.582 145.424 154.078 146.208 154.078 147.344C154.078 148.368 153.598 149.264 152.606 149.264Z" fill="#26324E"/>
<g filter="url(#filter0_d)">
<circle cx="307.5" cy="112.5" r="7.5" fill="#7C80F2"/>
</g>
<path fill-rule="evenodd" clip-rule="evenodd" d="M308.032 116.752H306.968V115.689H308.032V116.752ZM308.218 113.378L308.125 113.458C308.072 113.498 308.032 113.591 308.032 113.671V114.64H306.968V113.671C306.968 113.259 307.154 112.874 307.46 112.621L307.553 112.542C308.484 111.798 308.936 111.413 308.936 110.749C308.938 110.368 308.787 110.002 308.517 109.733C308.248 109.464 307.881 109.313 307.5 109.315C306.676 109.315 306.064 109.925 306.064 110.749H305C305 109.354 306.104 108.252 307.5 108.252C308.163 108.251 308.8 108.514 309.269 108.982C309.738 109.451 310.001 110.086 310 110.749C310 111.957 309.176 112.621 308.218 113.378Z" fill="white"/>
<path d="M323 100C323 97.7909 324.791 96 327 96H639C641.209 96 643 97.7909 643 100V144V236C643 238.209 641.209 240 639 240H327C324.791 240 323 238.209 323 236V100Z" fill="#F5F5FE"/>
<path d="M346.836 125H347.816V121.108L350.994 115.2H349.986L347.312 120.24L344.708 115.2H343.63L346.836 121.15V125ZM354.21 125.168C356.044 125.168 357.276 123.768 357.276 121.416C357.276 119.036 356.044 117.678 354.21 117.678C352.376 117.678 351.144 119.078 351.144 121.43C351.144 123.81 352.376 125.168 354.21 125.168ZM354.21 124.286C352.88 124.286 352.166 123.208 352.166 121.43C352.166 119.568 352.88 118.56 354.21 118.56C355.54 118.56 356.254 119.638 356.254 121.416C356.254 123.208 355.512 124.286 354.21 124.286ZM363.444 125H364.424V117.846H363.444V122.242C363.444 123.796 362.674 124.286 361.666 124.286C360.714 124.286 360.014 123.712 360.014 122.214V117.846H359.034V121.836C359.034 124.188 359.818 125.168 361.666 125.168C362.408 125.168 362.94 124.972 363.444 124.314V125ZM366.5 118.462L366.766 118.532C367.494 118.084 368.04 117.272 368.04 116.208C368.04 115.382 367.522 115.032 367.032 115.032C366.57 115.032 366.178 115.382 366.178 115.956C366.178 116.46 366.612 116.824 367.2 116.824C367.2 117.65 366.752 118.238 366.5 118.462ZM369.696 125H370.676V120.954C370.676 119.19 371.698 118.658 372.412 118.658C372.874 118.658 373.154 118.812 373.336 118.924L373.49 117.972C373.294 117.832 372.93 117.678 372.482 117.678C371.6 117.678 370.998 118.168 370.676 118.854V117.846H369.696V125ZM377.446 125.168C378.272 125.168 379.07 124.818 379.63 124.356L379.098 123.698C378.552 124.104 378.006 124.258 377.488 124.258C376.27 124.258 375.542 123.278 375.374 121.822H380.246C380.274 121.514 380.274 121.29 380.274 121.136C380.274 118.728 378.972 117.678 377.446 117.678C375.612 117.678 374.338 119.036 374.338 121.416C374.338 123.432 375.514 125.168 377.446 125.168ZM375.346 120.94C375.43 119.316 376.298 118.56 377.446 118.56C378.202 118.56 379.266 119.008 379.28 120.94H375.346ZM387.683 125.168C388.509 125.168 389.307 124.818 389.867 124.356L389.335 123.698C388.789 124.104 388.243 124.258 387.725 124.258C386.507 124.258 385.779 123.278 385.611 121.822H390.483C390.511 121.514 390.511 121.29 390.511 121.136C390.511 118.728 389.209 117.678 387.683 117.678C385.849 117.678 384.575 119.036 384.575 121.416C384.575 123.432 385.751 125.168 387.683 125.168ZM385.583 120.94C385.667 119.316 386.535 118.56 387.683 118.56C388.439 118.56 389.503 119.008 389.517 120.94H385.583ZM394.291 125.168C395.775 125.168 396.699 124.398 396.699 123.208C396.699 121.766 395.481 121.276 394.417 120.856C393.577 120.52 392.779 120.212 392.779 119.484C392.779 118.91 393.311 118.546 394.137 118.546C394.921 118.546 395.481 118.952 395.845 119.316L396.489 118.77C395.915 118.084 395.131 117.678 394.165 117.678C392.821 117.678 391.855 118.406 391.855 119.498C391.855 120.702 392.863 121.206 393.997 121.668C394.865 122.018 395.775 122.396 395.775 123.264C395.775 123.936 395.159 124.3 394.375 124.3C393.633 124.3 392.947 123.838 392.513 123.32L391.827 123.922C392.429 124.636 393.325 125.168 394.291 125.168ZM400.572 125.168C402.056 125.168 402.98 124.398 402.98 123.208C402.98 121.766 401.762 121.276 400.698 120.856C399.858 120.52 399.06 120.212 399.06 119.484C399.06 118.91 399.592 118.546 400.418 118.546C401.202 118.546 401.762 118.952 402.126 119.316L402.77 118.77C402.196 118.084 401.412 117.678 400.446 117.678C399.102 117.678 398.136 118.406 398.136 119.498C398.136 120.702 399.144 121.206 400.278 121.668C401.146 122.018 402.056 122.396 402.056 123.264C402.056 123.936 401.44 124.3 400.656 124.3C399.914 124.3 399.228 123.838 398.794 123.32L398.108 123.922C398.71 124.636 399.606 125.168 400.572 125.168ZM407.454 125.168C408.28 125.168 409.078 124.818 409.638 124.356L409.106 123.698C408.56 124.104 408.014 124.258 407.496 124.258C406.278 124.258 405.55 123.278 405.382 121.822H410.254C410.282 121.514 410.282 121.29 410.282 121.136C410.282 118.728 408.98 117.678 407.454 117.678C405.62 117.678 404.346 119.036 404.346 121.416C404.346 123.432 405.522 125.168 407.454 125.168ZM405.354 120.94C405.438 119.316 406.306 118.56 407.454 118.56C408.21 118.56 409.274 119.008 409.288 120.94H405.354ZM416.456 125H417.436V121.038C417.436 118.672 416.624 117.678 414.874 117.678C414.118 117.678 413.474 117.986 413.026 118.63V117.846H412.046V125H413.026V120.604C413.026 119.05 413.782 118.56 414.79 118.56C415.742 118.56 416.456 119.12 416.456 120.632V125ZM421.472 125.168C422.018 125.168 422.41 125.042 422.774 124.846L422.886 123.824C422.62 124.006 422.284 124.244 421.808 124.244C421.122 124.244 421.038 123.726 421.038 123.11V118.728H422.858V117.846H421.038V114.892L420.058 115.382V117.846H418.84V118.728H420.058V123.53C420.058 124.468 420.45 125.168 421.472 125.168ZM425.152 116.376C425.53 116.376 425.796 116.096 425.796 115.732C425.796 115.354 425.53 115.06 425.152 115.06C424.788 115.06 424.508 115.354 424.508 115.732C424.508 116.096 424.788 116.376 425.152 116.376ZM424.662 125H425.642V117.846H424.662V125ZM432.092 125H433.002V120.156C433.002 118.126 431.644 117.678 430.622 117.678C429.642 117.678 428.69 118.098 428.116 118.462L428.396 119.302C428.928 118.938 429.81 118.532 430.524 118.532C431.322 118.532 432.092 118.84 432.092 120.282V120.884C431.392 120.506 430.762 120.38 430.16 120.38C428.802 120.38 427.556 121.094 427.556 122.746C427.556 124.356 428.55 125.168 429.992 125.168C430.762 125.168 431.518 124.818 432.092 124.3V125ZM430.09 124.314C429.054 124.314 428.466 123.684 428.466 122.746C428.466 121.71 429.292 121.234 430.258 121.234C430.874 121.234 431.63 121.514 432.092 121.822V123.208C431.658 123.74 430.958 124.314 430.09 124.314ZM435.105 125H436.085V114.892L435.105 115.368V125ZM438.542 125H439.522V114.892L438.542 115.368V125ZM442.763 127.716H443.729L447.383 117.846H446.333L444.499 122.928L444.247 123.656C444.163 123.404 444.093 123.166 444.009 122.928L442.203 117.846H441.209L443.827 124.776L442.763 127.716ZM455.004 125.168C456.796 125.168 457.874 123.838 457.874 121.416C457.874 119.064 456.712 117.678 454.92 117.678C454.22 117.678 453.478 118.042 453.016 118.546V114.892L452.036 115.382V125H453.016V124.356C453.478 124.748 453.996 125.168 455.004 125.168ZM454.85 124.286C454.136 124.286 453.408 123.838 453.016 123.166V119.652C453.282 119.19 453.968 118.56 454.85 118.56C456.18 118.56 456.852 119.582 456.852 121.416C456.852 123.18 456.194 124.286 454.85 124.286ZM462.274 125.168C464.108 125.168 465.34 123.768 465.34 121.416C465.34 119.036 464.108 117.678 462.274 117.678C460.44 117.678 459.208 119.078 459.208 121.43C459.208 123.81 460.44 125.168 462.274 125.168ZM462.274 124.286C460.944 124.286 460.23 123.208 460.23 121.43C460.23 119.568 460.944 118.56 462.274 118.56C463.604 118.56 464.318 119.638 464.318 121.416C464.318 123.208 463.576 124.286 462.274 124.286ZM471.577 125H472.557V121.038C472.557 118.672 471.745 117.678 469.995 117.678C469.239 117.678 468.595 117.986 468.147 118.63V117.846H467.167V125H468.147V120.604C468.147 119.05 468.903 118.56 469.911 118.56C470.863 118.56 471.577 119.12 471.577 120.632V125ZM477.265 125.168C478.161 125.168 478.735 124.818 479.169 124.384V125H480.149V114.892L479.169 115.382V118.35C478.735 118 478.147 117.678 477.265 117.678C475.445 117.678 474.311 119.064 474.311 121.416C474.311 123.698 475.431 125.168 477.265 125.168ZM477.377 124.286C476.117 124.286 475.333 123.012 475.333 121.416C475.333 119.582 476.061 118.56 477.377 118.56C478.287 118.56 478.875 119.12 479.169 119.596V123.166C478.777 123.88 478.091 124.286 477.377 124.286ZM482.967 116.376C483.345 116.376 483.611 116.096 483.611 115.732C483.611 115.354 483.345 115.06 482.967 115.06C482.603 115.06 482.323 115.354 482.323 115.732C482.323 116.096 482.603 116.376 482.967 116.376ZM482.477 125H483.457V117.846H482.477V125ZM490.2 125H491.18V121.038C491.18 118.672 490.368 117.678 488.618 117.678C487.862 117.678 487.218 117.986 486.77 118.63V117.846H485.79V125H486.77V120.604C486.77 119.05 487.526 118.56 488.534 118.56C489.486 118.56 490.2 119.12 490.2 120.632V125ZM495.44 127.982C497.19 127.912 498.8 127.24 498.8 124.888V117.846H497.82V118.518C497.582 118.238 497.008 117.678 495.916 117.678C494.166 117.678 492.934 119.064 492.934 121.416C492.934 123.908 494.32 125.168 495.86 125.168C496.84 125.168 497.414 124.79 497.82 124.188V125.28C497.82 126.26 497.316 127.086 494.992 127.212L495.44 127.982ZM496.084 124.286C494.866 124.286 493.956 123.25 493.956 121.416C493.956 119.582 494.67 118.56 496.084 118.56C496.602 118.56 497.414 118.938 497.82 119.652V123.096C497.428 123.838 496.672 124.286 496.084 124.286ZM506.491 125.168C507.709 125.168 508.661 124.538 508.997 123.53L508.115 123.194C507.877 123.866 507.303 124.286 506.533 124.286C505.273 124.286 504.685 123.236 504.685 121.43C504.685 119.666 505.231 118.56 506.561 118.56C507.345 118.56 507.779 118.98 508.003 119.526L508.899 119.176C508.507 118.21 507.667 117.678 506.603 117.678C504.769 117.678 503.663 119.078 503.663 121.43C503.663 123.81 504.769 125.168 506.491 125.168ZM513.269 125.168C515.103 125.168 516.335 123.768 516.335 121.416C516.335 119.036 515.103 117.678 513.269 117.678C511.435 117.678 510.203 119.078 510.203 121.43C510.203 123.81 511.435 125.168 513.269 125.168ZM513.269 124.286C511.939 124.286 511.225 123.208 511.225 121.43C511.225 119.568 511.939 118.56 513.269 118.56C514.599 118.56 515.313 119.638 515.313 121.416C515.313 123.208 514.571 124.286 513.269 124.286ZM518.233 125H519.213V114.892L518.233 115.368V125ZM521.67 125H522.65V114.892L521.67 115.368V125ZM529.153 125H530.063V120.156C530.063 118.126 528.705 117.678 527.683 117.678C526.703 117.678 525.751 118.098 525.177 118.462L525.457 119.302C525.989 118.938 526.871 118.532 527.585 118.532C528.383 118.532 529.153 118.84 529.153 120.282V120.884C528.453 120.506 527.823 120.38 527.221 120.38C525.863 120.38 524.617 121.094 524.617 122.746C524.617 124.356 525.611 125.168 527.053 125.168C527.823 125.168 528.579 124.818 529.153 124.3V125ZM527.151 124.314C526.115 124.314 525.527 123.684 525.527 122.746C525.527 121.71 526.353 121.234 527.319 121.234C527.935 121.234 528.691 121.514 529.153 121.822V123.208C528.719 123.74 528.019 124.314 527.151 124.314ZM533.888 125.168C534.434 125.168 534.826 125.042 535.19 124.846L535.302 123.824C535.036 124.006 534.7 124.244 534.224 124.244C533.538 124.244 533.454 123.726 533.454 123.11V118.728H535.274V117.846H533.454V114.892L532.474 115.382V117.846H531.256V118.728H532.474V123.53C532.474 124.468 532.866 125.168 533.888 125.168ZM539.546 125.168C540.372 125.168 541.17 124.818 541.73 124.356L541.198 123.698C540.652 124.104 540.106 124.258 539.588 124.258C538.37 124.258 537.642 123.278 537.474 121.822H542.346C542.374 121.514 542.374 121.29 542.374 121.136C542.374 118.728 541.072 117.678 539.546 117.678C537.712 117.678 536.438 119.036 536.438 121.416C536.438 123.432 537.614 125.168 539.546 125.168ZM537.446 120.94C537.53 119.316 538.398 118.56 539.546 118.56C540.302 118.56 541.366 119.008 541.38 120.94H537.446ZM544.138 125H545.118V120.954C545.118 119.19 546.14 118.658 546.854 118.658C547.316 118.658 547.596 118.812 547.778 118.924L547.932 117.972C547.736 117.832 547.372 117.678 546.924 117.678C546.042 117.678 545.44 118.168 545.118 118.854V117.846H544.138V125ZM553.112 125H554.022V120.156C554.022 118.126 552.664 117.678 551.642 117.678C550.662 117.678 549.71 118.098 549.136 118.462L549.416 119.302C549.948 118.938 550.83 118.532 551.544 118.532C552.342 118.532 553.112 118.84 553.112 120.282V120.884C552.412 120.506 551.782 120.38 551.18 120.38C549.822 120.38 548.576 121.094 548.576 122.746C548.576 124.356 549.57 125.168 551.012 125.168C551.782 125.168 552.538 124.818 553.112 124.3V125ZM551.11 124.314C550.074 124.314 549.486 123.684 549.486 122.746C549.486 121.71 550.312 121.234 551.278 121.234C551.894 121.234 552.65 121.514 553.112 121.822V123.208C552.678 123.74 551.978 124.314 551.11 124.314ZM556.126 125H557.106V114.892L556.126 115.368V125ZM563.583 125H564.479L565.879 120.66C565.949 120.436 566.061 120.086 566.173 119.708C566.285 120.086 566.411 120.45 566.481 120.674L567.909 125H568.791L570.555 117.846H569.575L568.441 122.998C568.385 123.278 568.315 123.558 568.259 123.852C568.175 123.558 568.105 123.278 568.021 122.998L566.523 117.846H565.851L564.353 122.998C564.283 123.264 564.213 123.502 564.143 123.782L563.975 122.998L562.799 117.846H561.819L563.583 125ZM572.177 125H573.157V120.604C573.157 119.05 573.913 118.56 574.921 118.56C575.873 118.56 576.587 119.12 576.587 120.632V125H577.567V121.038C577.567 118.672 576.755 117.678 575.005 117.678C574.249 117.678 573.591 118 573.157 118.644V114.892L572.177 115.354V125ZM582.429 125.168C583.255 125.168 584.053 124.818 584.613 124.356L584.081 123.698C583.535 124.104 582.989 124.258 582.471 124.258C581.253 124.258 580.525 123.278 580.357 121.822H585.229C585.257 121.514 585.257 121.29 585.257 121.136C585.257 118.728 583.955 117.678 582.429 117.678C580.595 117.678 579.321 119.036 579.321 121.416C579.321 123.432 580.497 125.168 582.429 125.168ZM580.329 120.94C580.413 119.316 581.281 118.56 582.429 118.56C583.185 118.56 584.249 119.008 584.263 120.94H580.329ZM591.431 125H592.411V121.038C592.411 118.672 591.599 117.678 589.849 117.678C589.093 117.678 588.449 117.986 588.001 118.63V117.846H587.021V125H588.001V120.604C588.001 119.05 588.757 118.56 589.765 118.56C590.717 118.56 591.431 119.12 591.431 120.632V125ZM347.228 149.168C349.02 149.168 350.098 147.838 350.098 145.416C350.098 143.064 348.936 141.678 347.144 141.678C346.444 141.678 345.702 142.042 345.24 142.546V138.892L344.26 139.382V149H345.24V148.356C345.702 148.748 346.22 149.168 347.228 149.168ZM347.074 148.286C346.36 148.286 345.632 147.838 345.24 147.166V143.652C345.506 143.19 346.192 142.56 347.074 142.56C348.404 142.56 349.076 143.582 349.076 145.416C349.076 147.18 348.418 148.286 347.074 148.286ZM356.261 149H357.241V141.846H356.261V146.242C356.261 147.796 355.491 148.286 354.483 148.286C353.531 148.286 352.831 147.712 352.831 146.214V141.846H351.851V145.836C351.851 148.188 352.635 149.168 354.483 149.168C355.225 149.168 355.757 148.972 356.261 148.314V149ZM360.409 151.716H361.375L365.029 141.846H363.979L362.145 146.928L361.893 147.656C361.809 147.404 361.739 147.166 361.655 146.928L359.849 141.846H358.855L361.473 148.776L360.409 151.716ZM367.16 140.376C367.538 140.376 367.804 140.096 367.804 139.732C367.804 139.354 367.538 139.06 367.16 139.06C366.796 139.06 366.516 139.354 366.516 139.732C366.516 140.096 366.796 140.376 367.16 140.376ZM366.67 149H367.65V141.846H366.67V149ZM374.393 149H375.373V145.038C375.373 142.672 374.561 141.678 372.811 141.678C372.055 141.678 371.411 141.986 370.963 142.63V141.846H369.983V149H370.963V144.604C370.963 143.05 371.719 142.56 372.727 142.56C373.679 142.56 374.393 143.12 374.393 144.632V149ZM379.633 151.982C381.383 151.912 382.993 151.24 382.993 148.888V141.846H382.013V142.518C381.775 142.238 381.201 141.678 380.109 141.678C378.359 141.678 377.127 143.064 377.127 145.416C377.127 147.908 378.513 149.168 380.053 149.168C381.033 149.168 381.607 148.79 382.013 148.188V149.28C382.013 150.26 381.509 151.086 379.185 151.212L379.633 151.982ZM380.277 148.286C379.059 148.286 378.149 147.25 378.149 145.416C378.149 143.582 378.863 142.56 380.277 142.56C380.795 142.56 381.607 142.938 382.013 143.652V147.096C381.621 147.838 380.865 148.286 380.277 148.286ZM390.138 149.168C390.684 149.168 391.076 149.042 391.44 148.846L391.552 147.824C391.286 148.006 390.95 148.244 390.474 148.244C389.788 148.244 389.704 147.726 389.704 147.11V142.728H391.524V141.846H389.704V138.892L388.724 139.382V141.846H387.506V142.728H388.724V147.53C388.724 148.468 389.116 149.168 390.138 149.168ZM395.754 149.168C397.588 149.168 398.82 147.768 398.82 145.416C398.82 143.036 397.588 141.678 395.754 141.678C393.92 141.678 392.688 143.078 392.688 145.43C392.688 147.81 393.92 149.168 395.754 149.168ZM395.754 148.286C394.424 148.286 393.71 147.208 393.71 145.43C393.71 143.568 394.424 142.56 395.754 142.56C397.084 142.56 397.798 143.638 397.798 145.416C397.798 147.208 397.056 148.286 395.754 148.286ZM406.192 149L403.504 143.75L405.296 141.846H404.162L401.628 144.576V138.892L400.648 139.368V149H401.628V145.738L402.818 144.464L405.114 149H406.192ZM409.792 149.168C410.618 149.168 411.416 148.818 411.976 148.356L411.444 147.698C410.898 148.104 410.352 148.258 409.834 148.258C408.616 148.258 407.888 147.278 407.72 145.822H412.592C412.62 145.514 412.62 145.29 412.62 145.136C412.62 142.728 411.318 141.678 409.792 141.678C407.958 141.678 406.684 143.036 406.684 145.416C406.684 147.432 407.86 149.168 409.792 149.168ZM407.692 144.94C407.776 143.316 408.644 142.56 409.792 142.56C410.548 142.56 411.612 143.008 411.626 144.94H407.692ZM418.794 149H419.774V145.038C419.774 142.672 418.962 141.678 417.212 141.678C416.456 141.678 415.812 141.986 415.364 142.63V141.846H414.384V149H415.364V144.604C415.364 143.05 416.12 142.56 417.128 142.56C418.08 142.56 418.794 143.12 418.794 144.632V149ZM424.034 149.168C425.518 149.168 426.442 148.398 426.442 147.208C426.442 145.766 425.224 145.276 424.16 144.856C423.32 144.52 422.522 144.212 422.522 143.484C422.522 142.91 423.054 142.546 423.88 142.546C424.664 142.546 425.224 142.952 425.588 143.316L426.232 142.77C425.658 142.084 424.874 141.678 423.908 141.678C422.564 141.678 421.598 142.406 421.598 143.498C421.598 144.702 422.606 145.206 423.74 145.668C424.608 146.018 425.518 146.396 425.518 147.264C425.518 147.936 424.902 148.3 424.118 148.3C423.376 148.3 422.69 147.838 422.256 147.32L421.57 147.922C422.172 148.636 423.068 149.168 424.034 149.168ZM432.963 150.82H433.901C433.495 150.218 432.221 148.216 432.221 145.024C432.221 141.888 433.565 139.634 434.055 139.032H433.117C432.179 140.152 431.255 142.056 431.255 145.024C431.255 147.992 432.109 149.7 432.963 150.82ZM436.387 140.376C436.765 140.376 437.031 140.096 437.031 139.732C437.031 139.354 436.765 139.06 436.387 139.06C436.023 139.06 435.743 139.354 435.743 139.732C435.743 140.096 436.023 140.376 436.387 140.376ZM435.897 149H436.877V141.846H435.897V149ZM443.62 149H444.6V145.038C444.6 142.672 443.788 141.678 442.038 141.678C441.282 141.678 440.638 141.986 440.19 142.63V141.846H439.21V149H440.19V144.604C440.19 143.05 440.946 142.56 441.954 142.56C442.906 142.56 443.62 143.12 443.62 144.632V149ZM449.182 149.168C450.4 149.168 451.352 148.538 451.688 147.53L450.806 147.194C450.568 147.866 449.994 148.286 449.224 148.286C447.964 148.286 447.376 147.236 447.376 145.43C447.376 143.666 447.922 142.56 449.252 142.56C450.036 142.56 450.47 142.98 450.694 143.526L451.59 143.176C451.198 142.21 450.358 141.678 449.294 141.678C447.46 141.678 446.354 143.078 446.354 145.43C446.354 147.81 447.46 149.168 449.182 149.168ZM453.385 149H454.365V144.954C454.365 143.19 455.387 142.658 456.101 142.658C456.563 142.658 456.843 142.812 457.025 142.924L457.179 141.972C456.983 141.832 456.619 141.678 456.171 141.678C455.289 141.678 454.687 142.168 454.365 142.854V141.846H453.385V149ZM461.135 149.168C461.961 149.168 462.759 148.818 463.319 148.356L462.787 147.698C462.241 148.104 461.695 148.258 461.177 148.258C459.959 148.258 459.231 147.278 459.063 145.822H463.935C463.963 145.514 463.963 145.29 463.963 145.136C463.963 142.728 462.661 141.678 461.135 141.678C459.301 141.678 458.027 143.036 458.027 145.416C458.027 147.432 459.203 149.168 461.135 149.168ZM459.035 144.94C459.119 143.316 459.987 142.56 461.135 142.56C461.891 142.56 462.955 143.008 462.969 144.94H459.035ZM469.843 149H470.753V144.156C470.753 142.126 469.395 141.678 468.373 141.678C467.393 141.678 466.441 142.098 465.867 142.462L466.147 143.302C466.679 142.938 467.561 142.532 468.275 142.532C469.073 142.532 469.843 142.84 469.843 144.282V144.884C469.143 144.506 468.513 144.38 467.911 144.38C466.553 144.38 465.307 145.094 465.307 146.746C465.307 148.356 466.301 149.168 467.743 149.168C468.513 149.168 469.269 148.818 469.843 148.3V149ZM467.841 148.314C466.805 148.314 466.217 147.684 466.217 146.746C466.217 145.71 467.043 145.234 468.009 145.234C468.625 145.234 469.381 145.514 469.843 145.822V147.208C469.409 147.74 468.709 148.314 467.841 148.314ZM474.803 149.168C476.287 149.168 477.211 148.398 477.211 147.208C477.211 145.766 475.993 145.276 474.929 144.856C474.089 144.52 473.291 144.212 473.291 143.484C473.291 142.91 473.823 142.546 474.649 142.546C475.433 142.546 475.993 142.952 476.357 143.316L477.001 142.77C476.427 142.084 475.643 141.678 474.677 141.678C473.333 141.678 472.367 142.406 472.367 143.498C472.367 144.702 473.375 145.206 474.509 145.668C475.377 146.018 476.287 146.396 476.287 147.264C476.287 147.936 475.671 148.3 474.887 148.3C474.145 148.3 473.459 147.838 473.025 147.32L472.339 147.922C472.941 148.636 473.837 149.168 474.803 149.168ZM479.571 140.376C479.949 140.376 480.215 140.096 480.215 139.732C480.215 139.354 479.949 139.06 479.571 139.06C479.207 139.06 478.927 139.354 478.927 139.732C478.927 140.096 479.207 140.376 479.571 140.376ZM479.081 149H480.061V141.846H479.081V149ZM486.804 149H487.784V145.038C487.784 142.672 486.972 141.678 485.222 141.678C484.466 141.678 483.822 141.986 483.374 142.63V141.846H482.394V149H483.374V144.604C483.374 143.05 484.13 142.56 485.138 142.56C486.09 142.56 486.804 143.12 486.804 144.632V149ZM492.044 151.982C493.794 151.912 495.404 151.24 495.404 148.888V141.846H494.424V142.518C494.186 142.238 493.612 141.678 492.52 141.678C490.77 141.678 489.538 143.064 489.538 145.416C489.538 147.908 490.924 149.168 492.464 149.168C493.444 149.168 494.018 148.79 494.424 148.188V149.28C494.424 150.26 493.92 151.086 491.596 151.212L492.044 151.982ZM492.688 148.286C491.47 148.286 490.56 147.25 490.56 145.416C490.56 143.582 491.274 142.56 492.688 142.56C493.206 142.56 494.018 142.938 494.424 143.652V147.096C494.032 147.838 493.276 148.286 492.688 148.286ZM502.549 149.168C503.095 149.168 503.487 149.042 503.851 148.846L503.963 147.824C503.697 148.006 503.361 148.244 502.885 148.244C502.199 148.244 502.115 147.726 502.115 147.11V142.728H503.935V141.846H502.115V138.892L501.135 139.382V141.846H499.917V142.728H501.135V147.53C501.135 148.468 501.527 149.168 502.549 149.168ZM505.725 149H506.705V144.604C506.705 143.05 507.461 142.56 508.469 142.56C509.421 142.56 510.135 143.12 510.135 144.632V149H511.115V145.038C511.115 142.672 510.303 141.678 508.553 141.678C507.797 141.678 507.139 142 506.705 142.644V138.892L505.725 139.354V149ZM515.977 149.168C516.803 149.168 517.601 148.818 518.161 148.356L517.629 147.698C517.083 148.104 516.537 148.258 516.019 148.258C514.801 148.258 514.073 147.278 513.905 145.822H518.777C518.805 145.514 518.805 145.29 518.805 145.136C518.805 142.728 517.503 141.678 515.977 141.678C514.143 141.678 512.869 143.036 512.869 145.416C512.869 147.432 514.045 149.168 515.977 149.168ZM513.877 144.94C513.961 143.316 514.829 142.56 515.977 142.56C516.733 142.56 517.797 143.008 517.811 144.94H513.877ZM525.612 149.168C527.096 149.168 528.02 148.398 528.02 147.208C528.02 145.766 526.802 145.276 525.738 144.856C524.898 144.52 524.1 144.212 524.1 143.484C524.1 142.91 524.632 142.546 525.458 142.546C526.242 142.546 526.802 142.952 527.166 143.316L527.81 142.77C527.236 142.084 526.452 141.678 525.486 141.678C524.142 141.678 523.176 142.406 523.176 143.498C523.176 144.702 524.184 145.206 525.318 145.668C526.186 146.018 527.096 146.396 527.096 147.264C527.096 147.936 526.48 148.3 525.696 148.3C524.954 148.3 524.268 147.838 523.834 147.32L523.148 147.922C523.75 148.636 524.646 149.168 525.612 149.168ZM534.216 149H535.196V141.846H534.216V146.242C534.216 147.796 533.446 148.286 532.438 148.286C531.486 148.286 530.786 147.712 530.786 146.214V141.846H529.806V145.836C529.806 148.188 530.59 149.168 532.438 149.168C533.18 149.168 533.712 148.972 534.216 148.314V149ZM540.45 149.168C542.172 149.168 543.404 147.81 543.404 145.416C543.404 143.162 542.284 141.678 540.45 141.678C539.484 141.678 538.952 142.07 538.49 142.49V141.846H537.51V151.842L538.49 151.352V148.272C538.896 148.748 539.442 149.168 540.45 149.168ZM540.338 148.286C539.568 148.286 538.98 147.81 538.49 147.18V143.666C538.882 142.966 539.568 142.56 540.338 142.56C541.612 142.56 542.382 143.68 542.382 145.416C542.382 147.264 541.64 148.286 540.338 148.286ZM548.18 149.168C549.902 149.168 551.134 147.81 551.134 145.416C551.134 143.162 550.014 141.678 548.18 141.678C547.214 141.678 546.682 142.07 546.22 142.49V141.846H545.24V151.842L546.22 151.352V148.272C546.626 148.748 547.172 149.168 548.18 149.168ZM548.068 148.286C547.298 148.286 546.71 147.81 546.22 147.18V143.666C546.612 142.966 547.298 142.56 548.068 142.56C549.342 142.56 550.112 143.68 550.112 145.416C550.112 147.264 549.37 148.286 548.068 148.286ZM553.04 149H554.02V138.892L553.04 139.368V149ZM557.26 151.716H558.226L561.88 141.846H560.83L558.996 146.928L558.744 147.656C558.66 147.404 558.59 147.166 558.506 146.928L556.7 141.846H555.706L558.324 148.776L557.26 151.716ZM563.171 150.82H564.109C564.963 149.7 565.817 147.992 565.817 145.024C565.817 142.056 564.893 140.152 563.955 139.032H563.017C563.507 139.634 564.851 141.888 564.851 145.024C564.851 148.216 563.577 150.218 563.171 150.82ZM567.827 150.904L568.093 150.974C568.821 150.526 569.367 149.714 569.367 148.65C569.367 147.824 568.849 147.474 568.359 147.474C567.897 147.474 567.505 147.824 567.505 148.398C567.505 148.902 567.939 149.266 568.527 149.266C568.527 150.092 568.079 150.68 567.827 150.904ZM578.166 149H579.076V144.156C579.076 142.126 577.718 141.678 576.696 141.678C575.716 141.678 574.764 142.098 574.19 142.462L574.47 143.302C575.002 142.938 575.884 142.532 576.598 142.532C577.396 142.532 578.166 142.84 578.166 144.282V144.884C577.466 144.506 576.836 144.38 576.234 144.38C574.876 144.38 573.63 145.094 573.63 146.746C573.63 148.356 574.624 149.168 576.066 149.168C576.836 149.168 577.592 148.818 578.166 148.3V149ZM576.164 148.314C575.128 148.314 574.54 147.684 574.54 146.746C574.54 145.71 575.366 145.234 576.332 145.234C576.948 145.234 577.704 145.514 578.166 145.822V147.208C577.732 147.74 577.032 148.314 576.164 148.314ZM585.52 149H586.5V145.038C586.5 142.672 585.688 141.678 583.938 141.678C583.182 141.678 582.538 141.986 582.09 142.63V141.846H581.11V149H582.09V144.604C582.09 143.05 582.846 142.56 583.854 142.56C584.806 142.56 585.52 143.12 585.52 144.632V149ZM591.208 149.168C592.104 149.168 592.678 148.818 593.112 148.384V149H594.092V138.892L593.112 139.382V142.35C592.678 142 592.09 141.678 591.208 141.678C589.388 141.678 588.254 143.064 588.254 145.416C588.254 147.698 589.374 149.168 591.208 149.168ZM591.32 148.286C590.06 148.286 589.276 147.012 589.276 145.416C589.276 143.582 590.004 142.56 591.32 142.56C592.23 142.56 592.818 143.12 593.112 143.596V147.166C592.72 147.88 592.034 148.286 591.32 148.286ZM347.228 173.168C349.02 173.168 350.098 171.838 350.098 169.416C350.098 167.064 348.936 165.678 347.144 165.678C346.444 165.678 345.702 166.042 345.24 166.546V162.892L344.26 163.382V173H345.24V172.356C345.702 172.748 346.22 173.168 347.228 173.168ZM347.074 172.286C346.36 172.286 345.632 171.838 345.24 171.166V167.652C345.506 167.19 346.192 166.56 347.074 166.56C348.404 166.56 349.076 167.582 349.076 169.416C349.076 171.18 348.418 172.286 347.074 172.286ZM356.261 173H357.241V165.846H356.261V170.242C356.261 171.796 355.491 172.286 354.483 172.286C353.531 172.286 352.831 171.712 352.831 170.214V165.846H351.851V169.836C351.851 172.188 352.635 173.168 354.483 173.168C355.225 173.168 355.757 172.972 356.261 172.314V173ZM359.555 173H360.535V168.954C360.535 167.19 361.557 166.658 362.271 166.658C362.733 166.658 363.013 166.812 363.195 166.924L363.349 165.972C363.153 165.832 362.789 165.678 362.341 165.678C361.459 165.678 360.857 166.168 360.535 166.854V165.846H359.555V173ZM369.097 173H370.077V169.038C370.077 166.672 369.265 165.678 367.515 165.678C366.759 165.678 366.115 165.986 365.667 166.63V165.846H364.687V173H365.667V168.604C365.667 167.05 366.423 166.56 367.431 166.56C368.383 166.56 369.097 167.12 369.097 168.632V173ZM372.825 164.376C373.203 164.376 373.469 164.096 373.469 163.732C373.469 163.354 373.203 163.06 372.825 163.06C372.461 163.06 372.181 163.354 372.181 163.732C372.181 164.096 372.461 164.376 372.825 164.376ZM372.335 173H373.315V165.846H372.335V173ZM380.059 173H381.039V169.038C381.039 166.672 380.227 165.678 378.477 165.678C377.721 165.678 377.077 165.986 376.629 166.63V165.846H375.649V173H376.629V168.604C376.629 167.05 377.385 166.56 378.393 166.56C379.345 166.56 380.059 167.12 380.059 168.632V173ZM385.299 175.982C387.049 175.912 388.659 175.24 388.659 172.888V165.846H387.679V166.518C387.441 166.238 386.867 165.678 385.775 165.678C384.025 165.678 382.793 167.064 382.793 169.416C382.793 171.908 384.179 173.168 385.719 173.168C386.699 173.168 387.273 172.79 387.679 172.188V173.28C387.679 174.26 387.175 175.086 384.851 175.212L385.299 175.982ZM385.943 172.286C384.725 172.286 383.815 171.25 383.815 169.416C383.815 167.582 384.529 166.56 385.943 166.56C386.461 166.56 387.273 166.938 387.679 167.652V171.096C387.287 171.838 386.531 172.286 385.943 172.286ZM396.35 173.168C397.568 173.168 398.52 172.538 398.856 171.53L397.974 171.194C397.736 171.866 397.162 172.286 396.392 172.286C395.132 172.286 394.544 171.236 394.544 169.43C394.544 167.666 395.09 166.56 396.42 166.56C397.204 166.56 397.638 166.98 397.862 167.526L398.758 167.176C398.366 166.21 397.526 165.678 396.462 165.678C394.628 165.678 393.522 167.078 393.522 169.43C393.522 171.81 394.628 173.168 396.35 173.168ZM403.128 173.168C404.962 173.168 406.194 171.768 406.194 169.416C406.194 167.036 404.962 165.678 403.128 165.678C401.294 165.678 400.062 167.078 400.062 169.43C400.062 171.81 401.294 173.168 403.128 173.168ZM403.128 172.286C401.798 172.286 401.084 171.208 401.084 169.43C401.084 167.568 401.798 166.56 403.128 166.56C404.458 166.56 405.172 167.638 405.172 169.416C405.172 171.208 404.43 172.286 403.128 172.286ZM408.092 173H409.072V162.892L408.092 163.368V173ZM411.528 173H412.508V162.892L411.528 163.368V173ZM419.011 173H419.921V168.156C419.921 166.126 418.563 165.678 417.541 165.678C416.561 165.678 415.609 166.098 415.035 166.462L415.315 167.302C415.847 166.938 416.729 166.532 417.443 166.532C418.241 166.532 419.011 166.84 419.011 168.282V168.884C418.311 168.506 417.681 168.38 417.079 168.38C415.721 168.38 414.475 169.094 414.475 170.746C414.475 172.356 415.469 173.168 416.911 173.168C417.681 173.168 418.437 172.818 419.011 172.3V173ZM417.009 172.314C415.973 172.314 415.385 171.684 415.385 170.746C415.385 169.71 416.211 169.234 417.177 169.234C417.793 169.234 418.549 169.514 419.011 169.822V171.208C418.577 171.74 417.877 172.314 417.009 172.314ZM423.747 173.168C424.293 173.168 424.685 173.042 425.049 172.846L425.161 171.824C424.895 172.006 424.559 172.244 424.083 172.244C423.397 172.244 423.313 171.726 423.313 171.11V166.728H425.133V165.846H423.313V162.892L422.333 163.382V165.846H421.115V166.728H422.333V171.53C422.333 172.468 422.725 173.168 423.747 173.168ZM429.404 173.168C430.23 173.168 431.028 172.818 431.588 172.356L431.056 171.698C430.51 172.104 429.964 172.258 429.446 172.258C428.228 172.258 427.5 171.278 427.332 169.822H432.204C432.232 169.514 432.232 169.29 432.232 169.136C432.232 166.728 430.93 165.678 429.404 165.678C427.57 165.678 426.296 167.036 426.296 169.416C426.296 171.432 427.472 173.168 429.404 173.168ZM427.304 168.94C427.388 167.316 428.256 166.56 429.404 166.56C430.16 166.56 431.224 167.008 431.238 168.94H427.304ZM433.996 173H434.976V168.954C434.976 167.19 435.998 166.658 436.712 166.658C437.174 166.658 437.454 166.812 437.636 166.924L437.79 165.972C437.594 165.832 437.23 165.678 436.782 165.678C435.9 165.678 435.298 166.168 434.976 166.854V165.846H433.996V173ZM442.971 173H443.881V168.156C443.881 166.126 442.523 165.678 441.501 165.678C440.521 165.678 439.569 166.098 438.995 166.462L439.275 167.302C439.807 166.938 440.689 166.532 441.403 166.532C442.201 166.532 442.971 166.84 442.971 168.282V168.884C442.271 168.506 441.641 168.38 441.039 168.38C439.681 168.38 438.435 169.094 438.435 170.746C438.435 172.356 439.429 173.168 440.871 173.168C441.641 173.168 442.397 172.818 442.971 172.3V173ZM440.969 172.314C439.933 172.314 439.345 171.684 439.345 170.746C439.345 169.71 440.171 169.234 441.137 169.234C441.753 169.234 442.509 169.514 442.971 169.822V171.208C442.537 171.74 441.837 172.314 440.969 172.314ZM445.985 173H446.965V162.892L445.985 163.368V173ZM453.442 173H454.338L455.738 168.66C455.808 168.436 455.92 168.086 456.032 167.708C456.144 168.086 456.27 168.45 456.34 168.674L457.768 173H458.65L460.414 165.846H459.434L458.3 170.998C458.244 171.278 458.174 171.558 458.118 171.852C458.034 171.558 457.964 171.278 457.88 170.998L456.382 165.846H455.71L454.212 170.998C454.142 171.264 454.072 171.502 454.002 171.782L453.834 170.998L452.658 165.846H451.678L453.442 173ZM462.035 173H463.015V168.604C463.015 167.05 463.771 166.56 464.779 166.56C465.731 166.56 466.445 167.12 466.445 168.632V173H467.425V169.038C467.425 166.672 466.613 165.678 464.863 165.678C464.107 165.678 463.449 166 463.015 166.644V162.892L462.035 163.354V173ZM472.287 173.168C473.113 173.168 473.911 172.818 474.471 172.356L473.939 171.698C473.393 172.104 472.847 172.258 472.329 172.258C471.111 172.258 470.383 171.278 470.215 169.822H475.087C475.115 169.514 475.115 169.29 475.115 169.136C475.115 166.728 473.813 165.678 472.287 165.678C470.453 165.678 469.179 167.036 469.179 169.416C469.179 171.432 470.355 173.168 472.287 173.168ZM470.187 168.94C470.271 167.316 471.139 166.56 472.287 166.56C473.043 166.56 474.107 167.008 474.121 168.94H470.187ZM481.29 173H482.27V169.038C482.27 166.672 481.458 165.678 479.708 165.678C478.952 165.678 478.308 165.986 477.86 166.63V165.846H476.88V173H477.86V168.604C477.86 167.05 478.616 166.56 479.624 166.56C480.576 166.56 481.29 167.12 481.29 168.632V173ZM489.556 173.168C491.04 173.168 491.964 172.398 491.964 171.208C491.964 169.766 490.746 169.276 489.682 168.856C488.842 168.52 488.044 168.212 488.044 167.484C488.044 166.91 488.576 166.546 489.402 166.546C490.186 166.546 490.746 166.952 491.11 167.316L491.754 166.77C491.18 166.084 490.396 165.678 489.43 165.678C488.086 165.678 487.12 166.406 487.12 167.498C487.12 168.702 488.128 169.206 489.262 169.668C490.13 170.018 491.04 170.396 491.04 171.264C491.04 171.936 490.424 172.3 489.64 172.3C488.898 172.3 488.212 171.838 487.778 171.32L487.092 171.922C487.694 172.636 488.59 173.168 489.556 173.168ZM496.439 173.168C497.265 173.168 498.063 172.818 498.623 172.356L498.091 171.698C497.545 172.104 496.999 172.258 496.481 172.258C495.263 172.258 494.535 171.278 494.367 169.822H499.239C499.267 169.514 499.267 169.29 499.267 169.136C499.267 166.728 497.965 165.678 496.439 165.678C494.605 165.678 493.331 167.036 493.331 169.416C493.331 171.432 494.507 173.168 496.439 173.168ZM494.339 168.94C494.423 167.316 495.291 166.56 496.439 166.56C497.195 166.56 498.259 167.008 498.273 168.94H494.339ZM501.101 173H502.081V162.892L501.101 163.368V173ZM504.537 173H505.517V162.892L504.537 163.368V173ZM508.408 164.376C508.786 164.376 509.052 164.096 509.052 163.732C509.052 163.354 508.786 163.06 508.408 163.06C508.044 163.06 507.764 163.354 507.764 163.732C507.764 164.096 508.044 164.376 508.408 164.376ZM507.918 173H508.898V165.846H507.918V173ZM515.641 173H516.621V169.038C516.621 166.672 515.809 165.678 514.059 165.678C513.303 165.678 512.659 165.986 512.211 166.63V165.846H511.231V173H512.211V168.604C512.211 167.05 512.967 166.56 513.975 166.56C514.927 166.56 515.641 167.12 515.641 168.632V173ZM520.881 175.982C522.631 175.912 524.241 175.24 524.241 172.888V165.846H523.261V166.518C523.023 166.238 522.449 165.678 521.357 165.678C519.607 165.678 518.375 167.064 518.375 169.416C518.375 171.908 519.761 173.168 521.301 173.168C522.281 173.168 522.855 172.79 523.261 172.188V173.28C523.261 174.26 522.757 175.086 520.433 175.212L520.881 175.982ZM521.525 172.286C520.307 172.286 519.397 171.25 519.397 169.416C519.397 167.582 520.111 166.56 521.525 166.56C522.043 166.56 522.855 166.938 523.261 167.652V171.096C522.869 171.838 522.113 172.286 521.525 172.286ZM531.386 173.168C531.932 173.168 532.324 173.042 532.688 172.846L532.8 171.824C532.534 172.006 532.198 172.244 531.722 172.244C531.036 172.244 530.952 171.726 530.952 171.11V166.728H532.772V165.846H530.952V162.892L529.972 163.382V165.846H528.754V166.728H529.972V171.53C529.972 172.468 530.364 173.168 531.386 173.168ZM537.002 173.168C538.836 173.168 540.068 171.768 540.068 169.416C540.068 167.036 538.836 165.678 537.002 165.678C535.168 165.678 533.936 167.078 533.936 169.43C533.936 171.81 535.168 173.168 537.002 173.168ZM537.002 172.286C535.672 172.286 534.958 171.208 534.958 169.43C534.958 167.568 535.672 166.56 537.002 166.56C538.332 166.56 539.046 167.638 539.046 169.416C539.046 171.208 538.304 172.286 537.002 172.286ZM547.44 173L544.752 167.75L546.544 165.846H545.41L542.876 168.576V162.892L541.896 163.368V173H542.876V169.738L544.066 168.464L546.362 173H547.44ZM551.04 173.168C551.866 173.168 552.664 172.818 553.224 172.356L552.692 171.698C552.146 172.104 551.6 172.258 551.082 172.258C549.864 172.258 549.136 171.278 548.968 169.822H553.84C553.868 169.514 553.868 169.29 553.868 169.136C553.868 166.728 552.566 165.678 551.04 165.678C549.206 165.678 547.932 167.036 547.932 169.416C547.932 171.432 549.108 173.168 551.04 173.168ZM548.94 168.94C549.024 167.316 549.892 166.56 551.04 166.56C551.796 166.56 552.86 167.008 552.874 168.94H548.94ZM560.042 173H561.022V169.038C561.022 166.672 560.21 165.678 558.46 165.678C557.704 165.678 557.06 165.986 556.612 166.63V165.846H555.632V173H556.612V168.604C556.612 167.05 557.368 166.56 558.376 166.56C559.328 166.56 560.042 167.12 560.042 168.632V173ZM565.282 173.168C566.766 173.168 567.69 172.398 567.69 171.208C567.69 169.766 566.472 169.276 565.408 168.856C564.568 168.52 563.77 168.212 563.77 167.484C563.77 166.91 564.302 166.546 565.128 166.546C565.912 166.546 566.472 166.952 566.836 167.316L567.48 166.77C566.906 166.084 566.122 165.678 565.156 165.678C563.812 165.678 562.846 166.406 562.846 167.498C562.846 168.702 563.854 169.206 564.988 169.668C565.856 170.018 566.766 170.396 566.766 171.264C566.766 171.936 566.15 172.3 565.366 172.3C564.624 172.3 563.938 171.838 563.504 171.32L562.818 171.922C563.42 172.636 564.316 173.168 565.282 173.168ZM345.898 198.82H346.836C346.43 198.218 345.156 196.216 345.156 193.024C345.156 189.888 346.5 187.634 346.99 187.032H346.052C345.114 188.152 344.19 190.056 344.19 193.024C344.19 195.992 345.044 197.7 345.898 198.82ZM351.282 197.168C352.178 197.168 352.752 196.818 353.186 196.384V197H354.166V186.892L353.186 187.382V190.35C352.752 190 352.164 189.678 351.282 189.678C349.462 189.678 348.328 191.064 348.328 193.416C348.328 195.698 349.448 197.168 351.282 197.168ZM351.394 196.286C350.134 196.286 349.35 195.012 349.35 193.416C349.35 191.582 350.078 190.56 351.394 190.56C352.304 190.56 352.892 191.12 353.186 191.596V195.166C352.794 195.88 352.108 196.286 351.394 196.286ZM359.097 197.168C359.923 197.168 360.721 196.818 361.281 196.356L360.749 195.698C360.203 196.104 359.657 196.258 359.139 196.258C357.921 196.258 357.193 195.278 357.025 193.822H361.897C361.925 193.514 361.925 193.29 361.925 193.136C361.925 190.728 360.623 189.678 359.097 189.678C357.263 189.678 355.989 191.036 355.989 193.416C355.989 195.432 357.165 197.168 359.097 197.168ZM356.997 192.94C357.081 191.316 357.949 190.56 359.097 190.56C359.853 190.56 360.917 191.008 360.931 192.94H356.997ZM366.027 197.168C367.245 197.168 368.197 196.538 368.533 195.53L367.651 195.194C367.413 195.866 366.839 196.286 366.069 196.286C364.809 196.286 364.221 195.236 364.221 193.43C364.221 191.666 364.767 190.56 366.097 190.56C366.881 190.56 367.315 190.98 367.539 191.526L368.435 191.176C368.043 190.21 367.203 189.678 366.139 189.678C364.305 189.678 363.199 191.078 363.199 193.43C363.199 195.81 364.305 197.168 366.027 197.168ZM370.23 197H371.21V192.954C371.21 191.19 372.232 190.658 372.946 190.658C373.408 190.658 373.688 190.812 373.87 190.924L374.024 189.972C373.828 189.832 373.464 189.678 373.016 189.678C372.134 189.678 371.532 190.168 371.21 190.854V189.846H370.23V197ZM377.98 197.168C378.806 197.168 379.604 196.818 380.164 196.356L379.632 195.698C379.086 196.104 378.54 196.258 378.022 196.258C376.804 196.258 376.076 195.278 375.908 193.822H380.78C380.808 193.514 380.808 193.29 380.808 193.136C380.808 190.728 379.506 189.678 377.98 189.678C376.146 189.678 374.872 191.036 374.872 193.416C374.872 195.432 376.048 197.168 377.98 197.168ZM375.88 192.94C375.964 191.316 376.832 190.56 377.98 190.56C378.736 190.56 379.8 191.008 379.814 192.94H375.88ZM386.688 197H387.598V192.156C387.598 190.126 386.24 189.678 385.218 189.678C384.238 189.678 383.286 190.098 382.712 190.462L382.992 191.302C383.524 190.938 384.406 190.532 385.12 190.532C385.918 190.532 386.688 190.84 386.688 192.282V192.884C385.988 192.506 385.358 192.38 384.756 192.38C383.398 192.38 382.152 193.094 382.152 194.746C382.152 196.356 383.146 197.168 384.588 197.168C385.358 197.168 386.114 196.818 386.688 196.3V197ZM384.686 196.314C383.65 196.314 383.062 195.684 383.062 194.746C383.062 193.71 383.888 193.234 384.854 193.234C385.47 193.234 386.226 193.514 386.688 193.822V195.208C386.254 195.74 385.554 196.314 384.686 196.314ZM391.647 197.168C393.131 197.168 394.055 196.398 394.055 195.208C394.055 193.766 392.837 193.276 391.773 192.856C390.933 192.52 390.135 192.212 390.135 191.484C390.135 190.91 390.667 190.546 391.493 190.546C392.277 190.546 392.837 190.952 393.201 191.316L393.845 190.77C393.271 190.084 392.487 189.678 391.521 189.678C390.177 189.678 389.211 190.406 389.211 191.498C389.211 192.702 390.219 193.206 391.353 193.668C392.221 194.018 393.131 194.396 393.131 195.264C393.131 195.936 392.515 196.3 391.731 196.3C390.989 196.3 390.303 195.838 389.869 195.32L389.183 195.922C389.785 196.636 390.681 197.168 391.647 197.168ZM396.416 188.376C396.794 188.376 397.06 188.096 397.06 187.732C397.06 187.354 396.794 187.06 396.416 187.06C396.052 187.06 395.772 187.354 395.772 187.732C395.772 188.096 396.052 188.376 396.416 188.376ZM395.926 197H396.906V189.846H395.926V197ZM403.649 197H404.629V193.038C404.629 190.672 403.817 189.678 402.067 189.678C401.311 189.678 400.667 189.986 400.219 190.63V189.846H399.239V197H400.219V192.604C400.219 191.05 400.975 190.56 401.983 190.56C402.935 190.56 403.649 191.12 403.649 192.632V197ZM408.889 199.982C410.639 199.912 412.249 199.24 412.249 196.888V189.846H411.269V190.518C411.031 190.238 410.457 189.678 409.365 189.678C407.615 189.678 406.383 191.064 406.383 193.416C406.383 195.908 407.769 197.168 409.309 197.168C410.289 197.168 410.863 196.79 411.269 196.188V197.28C411.269 198.26 410.765 199.086 408.441 199.212L408.889 199.982ZM409.533 196.286C408.315 196.286 407.405 195.25 407.405 193.416C407.405 191.582 408.119 190.56 409.533 190.56C410.051 190.56 410.863 190.938 411.269 191.652V195.096C410.877 195.838 410.121 196.286 409.533 196.286ZM419.394 197.168C419.94 197.168 420.332 197.042 420.696 196.846L420.808 195.824C420.542 196.006 420.206 196.244 419.73 196.244C419.044 196.244 418.96 195.726 418.96 195.11V190.728H420.78V189.846H418.96V186.892L417.98 187.382V189.846H416.762V190.728H417.98V195.53C417.98 196.468 418.372 197.168 419.394 197.168ZM422.57 197H423.55V192.604C423.55 191.05 424.306 190.56 425.314 190.56C426.266 190.56 426.98 191.12 426.98 192.632V197H427.96V193.038C427.96 190.672 427.148 189.678 425.398 189.678C424.642 189.678 423.984 190 423.55 190.644V186.892L422.57 187.354V197ZM432.822 197.168C433.648 197.168 434.446 196.818 435.006 196.356L434.474 195.698C433.928 196.104 433.382 196.258 432.864 196.258C431.646 196.258 430.918 195.278 430.75 193.822H435.622C435.65 193.514 435.65 193.29 435.65 193.136C435.65 190.728 434.348 189.678 432.822 189.678C430.988 189.678 429.714 191.036 429.714 193.416C429.714 195.432 430.89 197.168 432.822 197.168ZM430.722 192.94C430.806 191.316 431.674 190.56 432.822 190.56C433.578 190.56 434.642 191.008 434.656 192.94H430.722ZM442.457 197.168C443.941 197.168 444.865 196.398 444.865 195.208C444.865 193.766 443.647 193.276 442.583 192.856C441.743 192.52 440.945 192.212 440.945 191.484C440.945 190.91 441.477 190.546 442.303 190.546C443.087 190.546 443.647 190.952 444.011 191.316L444.655 190.77C444.081 190.084 443.297 189.678 442.331 189.678C440.987 189.678 440.021 190.406 440.021 191.498C440.021 192.702 441.029 193.206 442.163 193.668C443.031 194.018 443.941 194.396 443.941 195.264C443.941 195.936 443.325 196.3 442.541 196.3C441.799 196.3 441.113 195.838 440.679 195.32L439.993 195.922C440.595 196.636 441.491 197.168 442.457 197.168ZM451.061 197H452.041V189.846H451.061V194.242C451.061 195.796 450.291 196.286 449.283 196.286C448.331 196.286 447.631 195.712 447.631 194.214V189.846H446.651V193.836C446.651 196.188 447.435 197.168 449.283 197.168C450.025 197.168 450.557 196.972 451.061 196.314V197ZM457.295 197.168C459.017 197.168 460.249 195.81 460.249 193.416C460.249 191.162 459.129 189.678 457.295 189.678C456.329 189.678 455.797 190.07 455.335 190.49V189.846H454.355V199.842L455.335 199.352V196.272C455.741 196.748 456.287 197.168 457.295 197.168ZM457.183 196.286C456.413 196.286 455.825 195.81 455.335 195.18V191.666C455.727 190.966 456.413 190.56 457.183 190.56C458.457 190.56 459.227 191.68 459.227 193.416C459.227 195.264 458.485 196.286 457.183 196.286ZM465.025 197.168C466.747 197.168 467.979 195.81 467.979 193.416C467.979 191.162 466.859 189.678 465.025 189.678C464.059 189.678 463.527 190.07 463.065 190.49V189.846H462.085V199.842L463.065 199.352V196.272C463.471 196.748 464.017 197.168 465.025 197.168ZM464.913 196.286C464.143 196.286 463.555 195.81 463.065 195.18V191.666C463.457 190.966 464.143 190.56 464.913 190.56C466.187 190.56 466.957 191.68 466.957 193.416C466.957 195.264 466.215 196.286 464.913 196.286ZM469.885 197H470.865V186.892L469.885 187.368V197ZM474.105 199.716H475.071L478.725 189.846H477.675L475.841 194.928L475.589 195.656C475.505 195.404 475.435 195.166 475.351 194.928L473.545 189.846H472.551L475.169 196.776L474.105 199.716ZM480.016 198.82H480.954C481.808 197.7 482.662 195.992 482.662 193.024C482.662 190.056 481.738 188.152 480.8 187.032H479.862C480.352 187.634 481.696 189.888 481.696 193.024C481.696 196.216 480.422 198.218 480.016 198.82ZM485.232 197.196C485.736 197.196 486.114 196.762 486.114 196.314C486.114 195.866 485.736 195.432 485.232 195.432C484.728 195.432 484.35 195.866 484.35 196.314C484.35 196.762 484.728 197.196 485.232 197.196ZM493.582 188.138H496.284V187.2H489.914V188.138H492.602V197H493.582V188.138ZM498.187 197H499.167V192.604C499.167 191.05 499.923 190.56 500.931 190.56C501.883 190.56 502.597 191.12 502.597 192.632V197H503.577V193.038C503.577 190.672 502.765 189.678 501.015 189.678C500.259 189.678 499.601 190 499.167 190.644V186.892L498.187 187.354V197ZM508.439 197.168C509.265 197.168 510.063 196.818 510.623 196.356L510.091 195.698C509.545 196.104 508.999 196.258 508.481 196.258C507.263 196.258 506.535 195.278 506.367 193.822H511.239C511.267 193.514 511.267 193.29 511.267 193.136C511.267 190.728 509.965 189.678 508.439 189.678C506.605 189.678 505.331 191.036 505.331 193.416C505.331 195.432 506.507 197.168 508.439 197.168ZM506.339 192.94C506.423 191.316 507.291 190.56 508.439 190.56C509.195 190.56 510.259 191.008 510.273 192.94H506.339ZM515.047 197.168C516.531 197.168 517.455 196.398 517.455 195.208C517.455 193.766 516.237 193.276 515.173 192.856C514.333 192.52 513.535 192.212 513.535 191.484C513.535 190.91 514.067 190.546 514.893 190.546C515.677 190.546 516.237 190.952 516.601 191.316L517.245 190.77C516.671 190.084 515.887 189.678 514.921 189.678C513.577 189.678 512.611 190.406 512.611 191.498C512.611 192.702 513.619 193.206 514.753 193.668C515.621 194.018 516.531 194.396 516.531 195.264C516.531 195.936 515.915 196.3 515.131 196.3C514.389 196.3 513.703 195.838 513.269 195.32L512.583 195.922C513.185 196.636 514.081 197.168 515.047 197.168ZM521.93 197.168C522.756 197.168 523.554 196.818 524.114 196.356L523.582 195.698C523.036 196.104 522.49 196.258 521.972 196.258C520.754 196.258 520.026 195.278 519.858 193.822H524.73C524.758 193.514 524.758 193.29 524.758 193.136C524.758 190.728 523.456 189.678 521.93 189.678C520.096 189.678 518.822 191.036 518.822 193.416C518.822 195.432 519.998 197.168 521.93 197.168ZM519.83 192.94C519.914 191.316 520.782 190.56 521.93 190.56C522.686 190.56 523.75 191.008 523.764 192.94H519.83ZM529.548 197H530.528V192.954C530.528 191.19 531.55 190.658 532.264 190.658C532.726 190.658 533.006 190.812 533.188 190.924L533.342 189.972C533.146 189.832 532.782 189.678 532.334 189.678C531.452 189.678 530.85 190.168 530.528 190.854V189.846H529.548V197ZM537.298 197.168C538.124 197.168 538.922 196.818 539.482 196.356L538.95 195.698C538.404 196.104 537.858 196.258 537.34 196.258C536.122 196.258 535.394 195.278 535.226 193.822H540.098C540.126 193.514 540.126 193.29 540.126 193.136C540.126 190.728 538.824 189.678 537.298 189.678C535.464 189.678 534.19 191.036 534.19 193.416C534.19 195.432 535.366 197.168 537.298 197.168ZM535.198 192.94C535.282 191.316 536.15 190.56 537.298 190.56C538.054 190.56 539.118 191.008 539.132 192.94H535.198ZM541.96 197H542.94V186.892L541.96 187.368V197ZM549.443 197H550.353V192.156C550.353 190.126 548.995 189.678 547.973 189.678C546.993 189.678 546.041 190.098 545.467 190.462L545.747 191.302C546.279 190.938 547.161 190.532 547.875 190.532C548.673 190.532 549.443 190.84 549.443 192.282V192.884C548.743 192.506 548.113 192.38 547.511 192.38C546.153 192.38 544.907 193.094 544.907 194.746C544.907 196.356 545.901 197.168 547.343 197.168C548.113 197.168 548.869 196.818 549.443 196.3V197ZM547.441 196.314C546.405 196.314 545.817 195.684 545.817 194.746C545.817 193.71 546.643 193.234 547.609 193.234C548.225 193.234 548.981 193.514 549.443 193.822V195.208C549.009 195.74 548.309 196.314 547.441 196.314ZM554.179 197.168C554.725 197.168 555.117 197.042 555.481 196.846L555.593 195.824C555.327 196.006 554.991 196.244 554.515 196.244C553.829 196.244 553.745 195.726 553.745 195.11V190.728H555.565V189.846H553.745V186.892L552.765 187.382V189.846H551.547V190.728H552.765V195.53C552.765 196.468 553.157 197.168 554.179 197.168ZM557.859 188.376C558.237 188.376 558.503 188.096 558.503 187.732C558.503 187.354 558.237 187.06 557.859 187.06C557.495 187.06 557.215 187.354 557.215 187.732C557.215 188.096 557.495 188.376 557.859 188.376ZM557.369 197H558.349V189.846H557.369V197ZM563.258 197.168C565.092 197.168 566.324 195.768 566.324 193.416C566.324 191.036 565.092 189.678 563.258 189.678C561.424 189.678 560.192 191.078 560.192 193.43C560.192 195.81 561.424 197.168 563.258 197.168ZM563.258 196.286C561.928 196.286 561.214 195.208 561.214 193.43C561.214 191.568 561.928 190.56 563.258 190.56C564.588 190.56 565.302 191.638 565.302 193.416C565.302 195.208 564.56 196.286 563.258 196.286ZM572.562 197H573.542V193.038C573.542 190.672 572.73 189.678 570.98 189.678C570.224 189.678 569.58 189.986 569.132 190.63V189.846H568.152V197H569.132V192.604C569.132 191.05 569.888 190.56 570.896 190.56C571.848 190.56 572.562 191.12 572.562 192.632V197ZM577.802 197.168C579.286 197.168 580.21 196.398 580.21 195.208C580.21 193.766 578.992 193.276 577.928 192.856C577.088 192.52 576.29 192.212 576.29 191.484C576.29 190.91 576.822 190.546 577.648 190.546C578.432 190.546 578.992 190.952 579.356 191.316L580 190.77C579.426 190.084 578.642 189.678 577.676 189.678C576.332 189.678 575.366 190.406 575.366 191.498C575.366 192.702 576.374 193.206 577.508 193.668C578.376 194.018 579.286 194.396 579.286 195.264C579.286 195.936 578.67 196.3 577.886 196.3C577.144 196.3 576.458 195.838 576.024 195.32L575.338 195.922C575.94 196.636 576.836 197.168 577.802 197.168ZM582.067 197H583.047V192.604C583.047 191.05 583.803 190.56 584.811 190.56C585.763 190.56 586.477 191.12 586.477 192.632V197H587.457V193.038C587.457 190.672 586.645 189.678 584.895 189.678C584.139 189.678 583.481 190 583.047 190.644V186.892L582.067 187.354V197ZM590.205 188.376C590.583 188.376 590.849 188.096 590.849 187.732C590.849 187.354 590.583 187.06 590.205 187.06C589.841 187.06 589.561 187.354 589.561 187.732C589.561 188.096 589.841 188.376 590.205 188.376ZM589.715 197H590.695V189.846H589.715V197ZM595.968 197.168C597.69 197.168 598.922 195.81 598.922 193.416C598.922 191.162 597.802 189.678 595.968 189.678C595.002 189.678 594.47 190.07 594.008 190.49V189.846H593.028V199.842L594.008 199.352V196.272C594.414 196.748 594.96 197.168 595.968 197.168ZM595.856 196.286C595.086 196.286 594.498 195.81 594.008 195.18V191.666C594.4 190.966 595.086 190.56 595.856 190.56C597.13 190.56 597.9 191.68 597.9 193.416C597.9 195.264 597.158 196.286 595.856 196.286ZM602.774 197.168C604.258 197.168 605.182 196.398 605.182 195.208C605.182 193.766 603.964 193.276 602.9 192.856C602.06 192.52 601.262 192.212 601.262 191.484C601.262 190.91 601.794 190.546 602.62 190.546C603.404 190.546 603.964 190.952 604.328 191.316L604.972 190.77C604.398 190.084 603.614 189.678 602.648 189.678C601.304 189.678 600.338 190.406 600.338 191.498C600.338 192.702 601.346 193.206 602.48 193.668C603.348 194.018 604.258 194.396 604.258 195.264C604.258 195.936 603.642 196.3 602.858 196.3C602.116 196.3 601.43 195.838 600.996 195.32L600.31 195.922C600.912 196.636 601.808 197.168 602.774 197.168ZM348.376 221H349.286V216.156C349.286 214.126 347.928 213.678 346.906 213.678C345.926 213.678 344.974 214.098 344.4 214.462L344.68 215.302C345.212 214.938 346.094 214.532 346.808 214.532C347.606 214.532 348.376 214.84 348.376 216.282V216.884C347.676 216.506 347.046 216.38 346.444 216.38C345.086 216.38 343.84 217.094 343.84 218.746C343.84 220.356 344.834 221.168 346.276 221.168C347.046 221.168 347.802 220.818 348.376 220.3V221ZM346.374 220.314C345.338 220.314 344.75 219.684 344.75 218.746C344.75 217.71 345.576 217.234 346.542 217.234C347.158 217.234 347.914 217.514 348.376 217.822V219.208C347.942 219.74 347.242 220.314 346.374 220.314ZM351.32 221H352.3V216.954C352.3 215.19 353.322 214.658 354.036 214.658C354.498 214.658 354.778 214.812 354.96 214.924L355.114 213.972C354.918 213.832 354.554 213.678 354.106 213.678C353.224 213.678 352.622 214.168 352.3 214.854V213.846H351.32V221ZM359.07 221.168C359.896 221.168 360.694 220.818 361.254 220.356L360.722 219.698C360.176 220.104 359.63 220.258 359.112 220.258C357.894 220.258 357.166 219.278 356.998 217.822H361.87C361.898 217.514 361.898 217.29 361.898 217.136C361.898 214.728 360.596 213.678 359.07 213.678C357.236 213.678 355.962 215.036 355.962 217.416C355.962 219.432 357.138 221.168 359.07 221.168ZM356.97 216.94C357.054 215.316 357.922 214.56 359.07 214.56C359.826 214.56 360.89 215.008 360.904 216.94H356.97ZM369.153 221.168C370.049 221.168 370.623 220.818 371.057 220.384V221H372.037V210.892L371.057 211.382V214.35C370.623 214 370.035 213.678 369.153 213.678C367.333 213.678 366.199 215.064 366.199 217.416C366.199 219.698 367.319 221.168 369.153 221.168ZM369.265 220.286C368.005 220.286 367.221 219.012 367.221 217.416C367.221 215.582 367.949 214.56 369.265 214.56C370.175 214.56 370.763 215.12 371.057 215.596V219.166C370.665 219.88 369.979 220.286 369.265 220.286ZM376.968 221.168C377.794 221.168 378.592 220.818 379.152 220.356L378.62 219.698C378.074 220.104 377.528 220.258 377.01 220.258C375.792 220.258 375.064 219.278 374.896 217.822H379.768C379.796 217.514 379.796 217.29 379.796 217.136C379.796 214.728 378.494 213.678 376.968 213.678C375.134 213.678 373.86 215.036 373.86 217.416C373.86 219.432 375.036 221.168 376.968 221.168ZM374.868 216.94C374.952 215.316 375.82 214.56 376.968 214.56C377.724 214.56 378.788 215.008 378.802 216.94H374.868ZM382.848 214.728H384.57V213.846H382.848V212.782C382.848 212.39 382.862 211.942 383.548 211.942C383.954 211.942 384.276 212.068 384.57 212.222V211.368C384.262 211.2 383.884 211.032 383.352 211.032C382.61 211.032 381.868 211.452 381.868 212.628V213.846H380.72V214.728H381.868V221H382.848V214.728ZM386.684 212.376C387.062 212.376 387.328 212.096 387.328 211.732C387.328 211.354 387.062 211.06 386.684 211.06C386.32 211.06 386.04 211.354 386.04 211.732C386.04 212.096 386.32 212.376 386.684 212.376ZM386.194 221H387.174V213.846H386.194V221ZM393.918 221H394.898V217.038C394.898 214.672 394.086 213.678 392.336 213.678C391.58 213.678 390.936 213.986 390.488 214.63V213.846H389.508V221H390.488V216.604C390.488 215.05 391.244 214.56 392.252 214.56C393.204 214.56 393.918 215.12 393.918 216.632V221ZM399.76 221.168C400.586 221.168 401.384 220.818 401.944 220.356L401.412 219.698C400.866 220.104 400.32 220.258 399.802 220.258C398.584 220.258 397.856 219.278 397.688 217.822H402.56C402.588 217.514 402.588 217.29 402.588 217.136C402.588 214.728 401.286 213.678 399.76 213.678C397.926 213.678 396.652 215.036 396.652 217.416C396.652 219.432 397.828 221.168 399.76 221.168ZM397.66 216.94C397.744 215.316 398.612 214.56 399.76 214.56C400.516 214.56 401.58 215.008 401.594 216.94H397.66ZM406.817 221.168C407.713 221.168 408.287 220.818 408.721 220.384V221H409.701V210.892L408.721 211.382V214.35C408.287 214 407.699 213.678 406.817 213.678C404.997 213.678 403.863 215.064 403.863 217.416C403.863 219.698 404.983 221.168 406.817 221.168ZM406.929 220.286C405.669 220.286 404.885 219.012 404.885 217.416C404.885 215.582 405.613 214.56 406.929 214.56C407.839 214.56 408.427 215.12 408.721 215.596V219.166C408.329 219.88 407.643 220.286 406.929 220.286ZM418.008 221.168C419.8 221.168 420.878 219.838 420.878 217.416C420.878 215.064 419.716 213.678 417.924 213.678C417.224 213.678 416.482 214.042 416.02 214.546V210.892L415.04 211.382V221H416.02V220.356C416.482 220.748 417 221.168 418.008 221.168ZM417.854 220.286C417.14 220.286 416.412 219.838 416.02 219.166V215.652C416.286 215.19 416.972 214.56 417.854 214.56C419.184 214.56 419.856 215.582 419.856 217.416C419.856 219.18 419.198 220.286 417.854 220.286ZM423.556 223.716H424.522L428.176 213.846H427.126L425.292 218.928L425.04 219.656C424.956 219.404 424.886 219.166 424.802 218.928L422.996 213.846H422.002L424.62 220.776L423.556 223.716ZM436.945 221H437.855V216.156C437.855 214.126 436.497 213.678 435.475 213.678C434.495 213.678 433.543 214.098 432.969 214.462L433.249 215.302C433.781 214.938 434.663 214.532 435.377 214.532C436.175 214.532 436.945 214.84 436.945 216.282V216.884C436.245 216.506 435.615 216.38 435.013 216.38C433.655 216.38 432.409 217.094 432.409 218.746C432.409 220.356 433.403 221.168 434.845 221.168C435.615 221.168 436.371 220.818 436.945 220.3V221ZM434.943 220.314C433.907 220.314 433.319 219.684 433.319 218.746C433.319 217.71 434.145 217.234 435.111 217.234C435.727 217.234 436.483 217.514 436.945 217.822V219.208C436.511 219.74 435.811 220.314 434.943 220.314ZM444.931 221.168C446.415 221.168 447.339 220.398 447.339 219.208C447.339 217.766 446.121 217.276 445.057 216.856C444.217 216.52 443.419 216.212 443.419 215.484C443.419 214.91 443.951 214.546 444.777 214.546C445.561 214.546 446.121 214.952 446.485 215.316L447.129 214.77C446.555 214.084 445.771 213.678 444.805 213.678C443.461 213.678 442.495 214.406 442.495 215.498C442.495 216.702 443.503 217.206 444.637 217.668C445.505 218.018 446.415 218.396 446.415 219.264C446.415 219.936 445.799 220.3 445.015 220.3C444.273 220.3 443.587 219.838 443.153 219.32L442.467 219.922C443.069 220.636 443.965 221.168 444.931 221.168ZM457.568 221H458.548V216.24C458.548 214.672 457.484 213.678 456.098 213.678C455.174 213.678 454.446 214.168 454.054 214.77C453.648 214.084 452.878 213.678 452.122 213.678C451.338 213.678 450.652 213.986 450.176 214.546V213.846H449.196V221H450.176V216.506C450.176 215.4 450.722 214.56 451.828 214.56C453.172 214.56 453.382 215.722 453.382 216.618V221H454.362V216.618C454.362 215.512 454.936 214.56 456.014 214.56C457.358 214.56 457.568 215.722 457.568 216.618V221ZM464.911 221H465.821V216.156C465.821 214.126 464.463 213.678 463.441 213.678C462.461 213.678 461.509 214.098 460.935 214.462L461.215 215.302C461.747 214.938 462.629 214.532 463.343 214.532C464.141 214.532 464.911 214.84 464.911 216.282V216.884C464.211 216.506 463.581 216.38 462.979 216.38C461.621 216.38 460.375 217.094 460.375 218.746C460.375 220.356 461.369 221.168 462.811 221.168C463.581 221.168 464.337 220.818 464.911 220.3V221ZM462.909 220.314C461.873 220.314 461.285 219.684 461.285 218.746C461.285 217.71 462.111 217.234 463.077 217.234C463.693 217.234 464.449 217.514 464.911 217.822V219.208C464.477 219.74 463.777 220.314 462.909 220.314ZM467.855 221H468.835V216.954C468.835 215.19 469.857 214.658 470.571 214.658C471.033 214.658 471.313 214.812 471.495 214.924L471.649 213.972C471.453 213.832 471.089 213.678 470.641 213.678C469.759 213.678 469.157 214.168 468.835 214.854V213.846H467.855V221ZM474.984 221.168C475.53 221.168 475.922 221.042 476.286 220.846L476.398 219.824C476.132 220.006 475.796 220.244 475.32 220.244C474.634 220.244 474.55 219.726 474.55 219.11V214.728H476.37V213.846H474.55V210.892L473.57 211.382V213.846H472.352V214.728H473.57V219.53C473.57 220.468 473.962 221.168 474.984 221.168ZM483.524 221.168C484.742 221.168 485.694 220.538 486.03 219.53L485.148 219.194C484.91 219.866 484.336 220.286 483.566 220.286C482.306 220.286 481.718 219.236 481.718 217.43C481.718 215.666 482.264 214.56 483.594 214.56C484.378 214.56 484.812 214.98 485.036 215.526L485.932 215.176C485.54 214.21 484.7 213.678 483.636 213.678C481.802 213.678 480.696 215.078 480.696 217.43C480.696 219.81 481.802 221.168 483.524 221.168ZM490.302 221.168C492.136 221.168 493.368 219.768 493.368 217.416C493.368 215.036 492.136 213.678 490.302 213.678C488.468 213.678 487.236 215.078 487.236 217.43C487.236 219.81 488.468 221.168 490.302 221.168ZM490.302 220.286C488.972 220.286 488.258 219.208 488.258 217.43C488.258 215.568 488.972 214.56 490.302 214.56C491.632 214.56 492.346 215.638 492.346 217.416C492.346 219.208 491.604 220.286 490.302 220.286ZM499.606 221H500.586V217.038C500.586 214.672 499.774 213.678 498.024 213.678C497.268 213.678 496.624 213.986 496.176 214.63V213.846H495.196V221H496.176V216.604C496.176 215.05 496.932 214.56 497.94 214.56C498.892 214.56 499.606 215.12 499.606 216.632V221ZM504.622 221.168C505.168 221.168 505.56 221.042 505.924 220.846L506.036 219.824C505.77 220.006 505.434 220.244 504.958 220.244C504.272 220.244 504.188 219.726 504.188 219.11V214.728H506.008V213.846H504.188V210.892L503.208 211.382V213.846H501.99V214.728H503.208V219.53C503.208 220.468 503.6 221.168 504.622 221.168ZM507.798 221H508.778V216.954C508.778 215.19 509.8 214.658 510.514 214.658C510.976 214.658 511.256 214.812 511.438 214.924L511.592 213.972C511.396 213.832 511.032 213.678 510.584 213.678C509.702 213.678 509.1 214.168 508.778 214.854V213.846H507.798V221ZM516.773 221H517.683V216.156C517.683 214.126 516.325 213.678 515.303 213.678C514.323 213.678 513.371 214.098 512.797 214.462L513.077 215.302C513.609 214.938 514.491 214.532 515.205 214.532C516.003 214.532 516.773 214.84 516.773 216.282V216.884C516.073 216.506 515.443 216.38 514.841 216.38C513.483 216.38 512.237 217.094 512.237 218.746C512.237 220.356 513.231 221.168 514.673 221.168C515.443 221.168 516.199 220.818 516.773 220.3V221ZM514.771 220.314C513.735 220.314 513.147 219.684 513.147 218.746C513.147 217.71 513.973 217.234 514.939 217.234C515.555 217.234 516.311 217.514 516.773 217.822V219.208C516.339 219.74 515.639 220.314 514.771 220.314ZM522.055 221.168C523.273 221.168 524.225 220.538 524.561 219.53L523.679 219.194C523.441 219.866 522.867 220.286 522.097 220.286C520.837 220.286 520.249 219.236 520.249 217.43C520.249 215.666 520.795 214.56 522.125 214.56C522.909 214.56 523.343 214.98 523.567 215.526L524.463 215.176C524.071 214.21 523.231 213.678 522.167 213.678C520.333 213.678 519.227 215.078 519.227 217.43C519.227 219.81 520.333 221.168 522.055 221.168ZM527.912 221.168C528.458 221.168 528.85 221.042 529.214 220.846L529.326 219.824C529.06 220.006 528.724 220.244 528.248 220.244C527.562 220.244 527.478 219.726 527.478 219.11V214.728H529.298V213.846H527.478V210.892L526.498 211.382V213.846H525.28V214.728H526.498V219.53C526.498 220.468 526.89 221.168 527.912 221.168ZM531.41 221.196C531.914 221.196 532.292 220.762 532.292 220.314C532.292 219.866 531.914 219.432 531.41 219.432C530.906 219.432 530.528 219.866 530.528 220.314C530.528 220.762 530.906 221.196 531.41 221.196Z" fill="#7C80F2"/>
<mask id="mask0" mask-type="alpha" maskUnits="userSpaceOnUse" x="323" y="96" width="12" height="144">
<rect x="323" y="96" width="12" height="144" rx="4" fill="#F7FDFF"/>
</mask>
<g mask="url(#mask0)">
<rect x="323" y="95" width="2" height="152" fill="#7C80F2"/>
</g>
<defs>
<filter id="filter0_d" x="299" y="105" width="17" height="17" filterUnits="userSpaceOnUse" color-interpolation-filters="sRGB">
<feFlood flood-opacity="0" result="BackgroundImageFix"/>
<feColorMatrix in="SourceAlpha" type="matrix" values="0 0 0 0 0 0 0 0 0 0 0 0 0 0 0 0 0 0 127 0"/>
<feOffset dy="1"/>
<feGaussianBlur stdDeviation="0.5"/>
<feColorMatrix type="matrix" values="0 0 0 0 0 0 0 0 0 0 0 0 0 0 0 0 0 0 0.15 0"/>
<feBlend mode="normal" in2="BackgroundImageFix" result="effect1_dropShadow"/>
<feBlend mode="normal" in="SourceGraphic" in2="effect1_dropShadow" result="shape"/>
</filter>
</defs>
</svg>
