<svg width="762" height="351" viewBox="0 0 762 351" fill="none" xmlns="http://www.w3.org/2000/svg">
<rect opacity="0.2" x="1" y="1" width="378" height="349" rx="4" fill="#F5F5F5" stroke="#979797"/>
<path d="M355.359 17C348.818 17 343.564 22.1227 343.564 28.5C343.564 34.8773 348.818 40 355.359 40C361.9 40 367.154 34.8773 367.154 28.5C367.154 22.1227 361.9 17 355.359 17ZM362.168 24.8932L353.59 33.5705C353.482 33.675 353.375 33.7273 353.214 33.7273C353.053 33.7273 352.893 33.675 352.839 33.5705L348.657 29.1795L348.55 29.075C348.443 28.9705 348.389 28.8136 348.389 28.7091C348.389 28.6045 348.443 28.4477 348.55 28.3432L349.301 27.6114C349.515 27.4023 349.837 27.4023 350.051 27.6114L350.105 27.6636L353.053 30.7477C353.161 30.8523 353.322 30.8523 353.429 30.7477L360.613 23.4818H360.667C360.881 23.2727 361.203 23.2727 361.417 23.4818L362.168 24.2136C362.382 24.3705 362.382 24.6841 362.168 24.8932Z" fill="#2CC68F"/>
<path d="M1 5C1 2.79086 2.79086 1 5 1H375.462C377.671 1 379.462 2.79086 379.462 5H1Z" fill="#2CC68F"/>
<rect opacity="0.2" x="383" y="1" width="378" height="349" rx="4" fill="#F5F5F5" stroke="#979797"/>
<path d="M736.897 17C730.357 17 725.103 22.1227 725.103 28.5C725.103 34.8773 730.357 40 736.897 40C743.438 40 748.692 34.8773 748.692 28.5C748.692 22.1227 743.438 17 736.897 17ZM738.613 28.7091L742.634 32.6295C742.741 32.7341 742.795 32.8909 742.795 32.9955C742.795 33.1 742.741 33.2568 742.634 33.3614L741.883 34.0932C741.776 34.1977 741.615 34.25 741.508 34.25C741.347 34.25 741.24 34.1977 741.133 34.0932L737.112 30.1727C737.005 30.0682 736.844 30.0682 736.737 30.1727L732.716 34.0932C732.608 34.1977 732.448 34.25 732.34 34.25C732.179 34.25 732.072 34.1977 731.965 34.0932L731.214 33.3614C731.107 33.2568 731.054 33.1 731.054 32.9955C731.054 32.8909 731.107 32.7341 731.214 32.6295L735.235 28.7091C735.343 28.6045 735.343 28.4477 735.235 28.3432L731.214 24.4227C731.107 24.3182 731.054 24.1614 731.054 24.0568C731.054 23.9523 731.107 23.7955 731.214 23.6909L731.965 22.9591C732.072 22.8545 732.233 22.8023 732.34 22.8023C732.448 22.8023 732.608 22.8545 732.716 22.9591L736.737 26.8795C736.844 26.9841 737.005 26.9841 737.112 26.8795L741.133 22.9591C741.24 22.8545 741.401 22.8023 741.508 22.8023C741.669 22.8023 741.776 22.8545 741.883 22.9591L742.634 23.6909C742.741 23.7955 742.795 23.9523 742.795 24.0568C742.795 24.1614 742.741 24.3182 742.634 24.4227L738.613 28.3432C738.506 28.3955 738.506 28.6045 738.613 28.7091Z" fill="#FF6969"/>
<path d="M382.539 5C382.539 2.79086 384.329 1 386.539 1H757C759.209 1 761 2.79086 761 5H382.539Z" fill="#FF6969"/>
<path d="M38.68 178H45.352V176.928H39.8V166.8H38.68V178ZM50.2903 178.192C52.3863 178.192 53.7943 176.592 53.7943 173.904C53.7943 171.184 52.3863 169.632 50.2903 169.632C48.1943 169.632 46.7863 171.232 46.7863 173.92C46.7863 176.64 48.1943 178.192 50.2903 178.192ZM50.2903 177.184C48.7703 177.184 47.9543 175.952 47.9543 173.92C47.9543 171.792 48.7703 170.64 50.2903 170.64C51.8103 170.64 52.6263 171.872 52.6263 173.904C52.6263 175.952 51.7783 177.184 50.2903 177.184ZM56.1119 178H57.2319V173.376C57.2319 171.36 58.3999 170.752 59.2159 170.752C59.7439 170.752 60.0639 170.928 60.2719 171.056L60.4479 169.968C60.2239 169.808 59.8079 169.632 59.2959 169.632C58.2879 169.632 57.5999 170.192 57.2319 170.976V169.824H56.1119V178ZM65.1976 178.192C66.1416 178.192 67.0536 177.792 67.6936 177.264L67.0856 176.512C66.4616 176.976 65.8376 177.152 65.2456 177.152C63.8536 177.152 63.0216 176.032 62.8296 174.368H68.3976C68.4296 174.016 68.4296 173.76 68.4296 173.584C68.4296 170.832 66.9416 169.632 65.1976 169.632C63.1016 169.632 61.6456 171.184 61.6456 173.904C61.6456 176.208 62.9896 178.192 65.1976 178.192ZM62.7976 173.36C62.8936 171.504 63.8856 170.64 65.1976 170.64C66.0616 170.64 67.2776 171.152 67.2936 173.36H62.7976ZM80.2424 178H81.3624V172.56C81.3624 170.768 80.1464 169.632 78.5624 169.632C77.5064 169.632 76.6744 170.192 76.2264 170.88C75.7624 170.096 74.8824 169.632 74.0184 169.632C73.1224 169.632 72.3384 169.984 71.7944 170.624V169.824H70.6744V178H71.7944V172.864C71.7944 171.6 72.4184 170.64 73.6824 170.64C75.2184 170.64 75.4584 171.968 75.4584 172.992V178H76.5784V172.992C76.5784 171.728 77.2344 170.64 78.4664 170.64C80.0024 170.64 80.2424 171.968 80.2424 172.992V178ZM88.4223 168.144C88.8543 168.144 89.1583 167.824 89.1583 167.408C89.1583 166.976 88.8543 166.64 88.4223 166.64C88.0063 166.64 87.6863 166.976 87.6863 167.408C87.6863 167.824 88.0063 168.144 88.4223 168.144ZM87.8623 178H88.9823V169.824H87.8623V178ZM95.2375 178.192C97.2055 178.192 98.6135 176.64 98.6135 173.904C98.6135 171.328 97.3335 169.632 95.2375 169.632C94.1335 169.632 93.5255 170.08 92.9975 170.56V169.824H91.8775V181.248L92.9975 180.688V177.168C93.4615 177.712 94.0855 178.192 95.2375 178.192ZM95.1095 177.184C94.2295 177.184 93.5575 176.64 92.9975 175.92V171.904C93.4455 171.104 94.2295 170.64 95.1095 170.64C96.5655 170.64 97.4455 171.92 97.4455 173.904C97.4455 176.016 96.5975 177.184 95.1095 177.184ZM103.244 178.192C104.94 178.192 105.996 177.312 105.996 175.952C105.996 174.304 104.604 173.744 103.388 173.264C102.428 172.88 101.516 172.528 101.516 171.696C101.516 171.04 102.124 170.624 103.068 170.624C103.964 170.624 104.604 171.088 105.02 171.504L105.756 170.88C105.1 170.096 104.204 169.632 103.1 169.632C101.564 169.632 100.46 170.464 100.46 171.712C100.46 173.088 101.612 173.664 102.908 174.192C103.9 174.592 104.94 175.024 104.94 176.016C104.94 176.784 104.236 177.2 103.34 177.2C102.492 177.2 101.708 176.672 101.212 176.08L100.428 176.768C101.116 177.584 102.14 178.192 103.244 178.192ZM113.306 178H114.426V169.824H113.306V174.848C113.306 176.624 112.426 177.184 111.274 177.184C110.186 177.184 109.386 176.528 109.386 174.816V169.824H108.266V174.384C108.266 177.072 109.162 178.192 111.274 178.192C112.122 178.192 112.73 177.968 113.306 177.216V178ZM126.867 178H127.987V172.56C127.987 170.768 126.771 169.632 125.187 169.632C124.131 169.632 123.299 170.192 122.851 170.88C122.387 170.096 121.507 169.632 120.643 169.632C119.747 169.632 118.963 169.984 118.419 170.624V169.824H117.299V178H118.419V172.864C118.419 171.6 119.043 170.64 120.307 170.64C121.843 170.64 122.083 171.968 122.083 172.992V178H123.203V172.992C123.203 171.728 123.859 170.64 125.091 170.64C126.627 170.64 126.867 171.968 126.867 172.992V178ZM137.287 178.192C138.311 178.192 138.967 177.792 139.463 177.296V178H140.583V166.448L139.463 167.008V170.4C138.967 170 138.295 169.632 137.287 169.632C135.207 169.632 133.911 171.216 133.911 173.904C133.911 176.512 135.191 178.192 137.287 178.192ZM137.415 177.184C135.975 177.184 135.079 175.728 135.079 173.904C135.079 171.808 135.911 170.64 137.415 170.64C138.455 170.64 139.127 171.28 139.463 171.824V175.904C139.015 176.72 138.231 177.184 137.415 177.184ZM146.4 178.192C148.496 178.192 149.904 176.592 149.904 173.904C149.904 171.184 148.496 169.632 146.4 169.632C144.304 169.632 142.896 171.232 142.896 173.92C142.896 176.64 144.304 178.192 146.4 178.192ZM146.4 177.184C144.88 177.184 144.064 175.952 144.064 173.92C144.064 171.792 144.88 170.64 146.4 170.64C147.92 170.64 148.736 171.872 148.736 173.904C148.736 175.952 147.888 177.184 146.4 177.184ZM152.301 178H153.421V166.448L152.301 166.992V178ZM159.322 178.192C161.418 178.192 162.826 176.592 162.826 173.904C162.826 171.184 161.418 169.632 159.322 169.632C157.226 169.632 155.818 171.232 155.818 173.92C155.818 176.64 157.226 178.192 159.322 178.192ZM159.322 177.184C157.802 177.184 156.986 175.952 156.986 173.92C156.986 171.792 157.802 170.64 159.322 170.64C160.842 170.64 161.658 171.872 161.658 173.904C161.658 175.952 160.81 177.184 159.322 177.184ZM165.143 178H166.263V173.376C166.263 171.36 167.431 170.752 168.247 170.752C168.775 170.752 169.095 170.928 169.303 171.056L169.479 169.968C169.255 169.808 168.839 169.632 168.327 169.632C167.319 169.632 166.631 170.192 166.263 170.976V169.824H165.143V178ZM177.228 178.192C178.924 178.192 179.98 177.312 179.98 175.952C179.98 174.304 178.588 173.744 177.372 173.264C176.412 172.88 175.5 172.528 175.5 171.696C175.5 171.04 176.108 170.624 177.052 170.624C177.948 170.624 178.588 171.088 179.004 171.504L179.74 170.88C179.084 170.096 178.188 169.632 177.084 169.632C175.548 169.632 174.444 170.464 174.444 171.712C174.444 173.088 175.596 173.664 176.892 174.192C177.884 174.592 178.924 175.024 178.924 176.016C178.924 176.784 178.22 177.2 177.324 177.2C176.476 177.2 175.692 176.672 175.196 176.08L174.412 176.768C175.1 177.584 176.124 178.192 177.228 178.192ZM182.907 168.144C183.339 168.144 183.643 167.824 183.643 167.408C183.643 166.976 183.339 166.64 182.907 166.64C182.491 166.64 182.171 166.976 182.171 167.408C182.171 167.824 182.491 168.144 182.907 168.144ZM182.347 178H183.467V169.824H182.347V178ZM188.41 178.192C189.034 178.192 189.482 178.048 189.898 177.824L190.026 176.656C189.722 176.864 189.338 177.136 188.794 177.136C188.01 177.136 187.914 176.544 187.914 175.84V170.832H189.994V169.824H187.914V166.448L186.794 167.008V169.824H185.402V170.832H186.794V176.32C186.794 177.392 187.242 178.192 188.41 178.192ZM200.66 178H201.7V172.464C201.7 170.144 200.148 169.632 198.98 169.632C197.86 169.632 196.772 170.112 196.116 170.528L196.436 171.488C197.044 171.072 198.052 170.608 198.868 170.608C199.78 170.608 200.66 170.96 200.66 172.608V173.296C199.86 172.864 199.14 172.72 198.452 172.72C196.9 172.72 195.476 173.536 195.476 175.424C195.476 177.264 196.612 178.192 198.26 178.192C199.14 178.192 200.004 177.792 200.66 177.2V178ZM198.372 177.216C197.188 177.216 196.516 176.496 196.516 175.424C196.516 174.24 197.46 173.696 198.564 173.696C199.268 173.696 200.132 174.016 200.66 174.368V175.952C200.164 176.56 199.364 177.216 198.372 177.216ZM213.821 178H214.941V172.56C214.941 170.768 213.725 169.632 212.141 169.632C211.085 169.632 210.253 170.192 209.805 170.88C209.341 170.096 208.461 169.632 207.597 169.632C206.701 169.632 205.917 169.984 205.373 170.624V169.824H204.253V178H205.373V172.864C205.373 171.6 205.997 170.64 207.261 170.64C208.797 170.64 209.037 171.968 209.037 172.992V178H210.157V172.992C210.157 171.728 210.812 170.64 212.045 170.64C213.581 170.64 213.821 171.968 213.821 172.992V178ZM220.729 178.192C221.673 178.192 222.585 177.792 223.225 177.264L222.617 176.512C221.993 176.976 221.369 177.152 220.777 177.152C219.385 177.152 218.553 176.032 218.361 174.368H223.929C223.961 174.016 223.961 173.76 223.961 173.584C223.961 170.832 222.473 169.632 220.729 169.632C218.633 169.632 217.177 171.184 217.177 173.904C217.177 176.208 218.521 178.192 220.729 178.192ZM218.329 173.36C218.425 171.504 219.417 170.64 220.729 170.64C221.593 170.64 222.809 171.152 222.825 173.36H218.329ZM228.097 178.192C228.721 178.192 229.169 178.048 229.585 177.824L229.713 176.656C229.409 176.864 229.025 177.136 228.481 177.136C227.697 177.136 227.601 176.544 227.601 175.84V170.832H229.681V169.824H227.601V166.448L226.481 167.008V169.824H225.089V170.832H226.481V176.32C226.481 177.392 226.929 178.192 228.097 178.192ZM231.684 180.176L231.988 180.256C232.82 179.744 233.444 178.816 233.444 177.6C233.444 176.656 232.852 176.256 232.292 176.256C231.764 176.256 231.316 176.656 231.316 177.312C231.316 177.888 231.812 178.304 232.484 178.304C232.484 179.248 231.972 179.92 231.684 180.176ZM241.924 178.192C243.317 178.192 244.405 177.472 244.789 176.32L243.781 175.936C243.509 176.704 242.853 177.184 241.973 177.184C240.533 177.184 239.861 175.984 239.861 173.92C239.861 171.904 240.485 170.64 242.005 170.64C242.901 170.64 243.397 171.12 243.653 171.744L244.677 171.344C244.229 170.24 243.269 169.632 242.053 169.632C239.957 169.632 238.693 171.232 238.693 173.92C238.693 176.64 239.957 178.192 241.924 178.192ZM249.9 178.192C251.996 178.192 253.404 176.592 253.404 173.904C253.404 171.184 251.996 169.632 249.9 169.632C247.804 169.632 246.396 171.232 246.396 173.92C246.396 176.64 247.804 178.192 249.9 178.192ZM249.9 177.184C248.38 177.184 247.564 175.952 247.564 173.92C247.564 171.792 248.38 170.64 249.9 170.64C251.42 170.64 252.236 171.872 252.236 173.904C252.236 175.952 251.388 177.184 249.9 177.184ZM260.761 178H261.881V173.472C261.881 170.768 260.953 169.632 258.953 169.632C258.089 169.632 257.353 169.984 256.841 170.72V169.824H255.721V178H256.841V172.976C256.841 171.2 257.705 170.64 258.857 170.64C259.945 170.64 260.761 171.28 260.761 173.008V178ZM266.978 178.192C268.674 178.192 269.73 177.312 269.73 175.952C269.73 174.304 268.338 173.744 267.122 173.264C266.162 172.88 265.25 172.528 265.25 171.696C265.25 171.04 265.858 170.624 266.802 170.624C267.698 170.624 268.338 171.088 268.754 171.504L269.49 170.88C268.834 170.096 267.938 169.632 266.834 169.632C265.298 169.632 264.194 170.464 264.194 171.712C264.194 173.088 265.346 173.664 266.642 174.192C267.634 174.592 268.674 175.024 268.674 176.016C268.674 176.784 267.97 177.2 267.074 177.2C266.226 177.2 265.442 176.672 264.946 176.08L264.162 176.768C264.85 177.584 265.874 178.192 266.978 178.192ZM275.073 178.192C276.017 178.192 276.929 177.792 277.569 177.264L276.961 176.512C276.337 176.976 275.713 177.152 275.121 177.152C273.729 177.152 272.897 176.032 272.705 174.368H278.273C278.305 174.016 278.305 173.76 278.305 173.584C278.305 170.832 276.817 169.632 275.073 169.632C272.977 169.632 271.521 171.184 271.521 173.904C271.521 176.208 272.865 178.192 275.073 178.192ZM272.673 173.36C272.769 171.504 273.761 170.64 275.073 170.64C275.937 170.64 277.153 171.152 277.169 173.36H272.673ZM283.221 178.192C284.613 178.192 285.701 177.472 286.085 176.32L285.077 175.936C284.805 176.704 284.149 177.184 283.269 177.184C281.829 177.184 281.157 175.984 281.157 173.92C281.157 171.904 281.781 170.64 283.301 170.64C284.197 170.64 284.693 171.12 284.949 171.744L285.973 171.344C285.525 170.24 284.565 169.632 283.349 169.632C281.253 169.632 279.989 171.232 279.989 173.92C279.989 176.64 281.253 178.192 283.221 178.192ZM290.144 178.192C290.768 178.192 291.216 178.048 291.632 177.824L291.76 176.656C291.456 176.864 291.072 177.136 290.528 177.136C289.744 177.136 289.648 176.544 289.648 175.84V170.832H291.728V169.824H289.648V166.448L288.528 167.008V169.824H287.136V170.832H288.528V176.32C288.528 177.392 288.976 178.192 290.144 178.192ZM296.838 178.192C297.782 178.192 298.694 177.792 299.334 177.264L298.726 176.512C298.102 176.976 297.478 177.152 296.886 177.152C295.494 177.152 294.662 176.032 294.47 174.368H300.038C300.07 174.016 300.07 173.76 300.07 173.584C300.07 170.832 298.582 169.632 296.838 169.632C294.742 169.632 293.286 171.184 293.286 173.904C293.286 176.208 294.63 178.192 296.838 178.192ZM294.438 173.36C294.534 171.504 295.526 170.64 296.838 170.64C297.702 170.64 298.918 171.152 298.934 173.36H294.438ZM304.207 178.192C304.831 178.192 305.279 178.048 305.695 177.824L305.823 176.656C305.519 176.864 305.135 177.136 304.591 177.136C303.807 177.136 303.711 176.544 303.711 175.84V170.832H305.791V169.824H303.711V166.448L302.591 167.008V169.824H301.199V170.832H302.591V176.32C302.591 177.392 303.039 178.192 304.207 178.192ZM313.025 178H314.145V169.824H313.025V174.848C313.025 176.624 312.145 177.184 310.993 177.184C309.905 177.184 309.105 176.528 309.105 174.816V169.824H307.985V174.384C307.985 177.072 308.881 178.192 310.993 178.192C311.841 178.192 312.449 177.968 313.025 177.216V178ZM317.018 178H318.138V173.376C318.138 171.36 319.306 170.752 320.122 170.752C320.65 170.752 320.97 170.928 321.178 171.056L321.354 169.968C321.13 169.808 320.714 169.632 320.202 169.632C319.194 169.632 318.506 170.192 318.138 170.976V169.824H317.018V178ZM43.144 204H44.184V198.464C44.184 196.144 42.632 195.632 41.464 195.632C40.344 195.632 39.256 196.112 38.6 196.528L38.92 197.488C39.528 197.072 40.536 196.608 41.352 196.608C42.264 196.608 43.144 196.96 43.144 198.608V199.296C42.344 198.864 41.624 198.72 40.936 198.72C39.384 198.72 37.96 199.536 37.96 201.424C37.96 203.264 39.096 204.192 40.744 204.192C41.624 204.192 42.488 203.792 43.144 203.2V204ZM40.856 203.216C39.672 203.216 39 202.496 39 201.424C39 200.24 39.944 199.696 41.048 199.696C41.752 199.696 42.616 200.016 43.144 200.368V201.952C42.648 202.56 41.848 203.216 40.856 203.216ZM49.5529 204.192C50.5769 204.192 51.2329 203.792 51.7289 203.296V204H52.8489V192.448L51.7289 193.008V196.4C51.2329 196 50.5609 195.632 49.5529 195.632C47.4729 195.632 46.1769 197.216 46.1769 199.904C46.1769 202.512 47.4569 204.192 49.5529 204.192ZM49.6809 203.184C48.2409 203.184 47.3449 201.728 47.3449 199.904C47.3449 197.808 48.1769 196.64 49.6809 196.64C50.7209 196.64 51.3929 197.28 51.7289 197.824V201.904C51.2809 202.72 50.4969 203.184 49.6809 203.184ZM56.2973 194.144C56.7293 194.144 57.0333 193.824 57.0333 193.408C57.0333 192.976 56.7293 192.64 56.2973 192.64C55.8813 192.64 55.5613 192.976 55.5613 193.408C55.5613 193.824 55.8813 194.144 56.2973 194.144ZM55.7373 204H56.8573V195.824H55.7373V204ZM63.1125 204.192C65.0805 204.192 66.4885 202.64 66.4885 199.904C66.4885 197.328 65.2085 195.632 63.1125 195.632C62.0085 195.632 61.4005 196.08 60.8725 196.56V195.824H59.7525V207.248L60.8725 206.688V203.168C61.3365 203.712 61.9605 204.192 63.1125 204.192ZM62.9845 203.184C62.1045 203.184 61.4325 202.64 60.8725 201.92V197.904C61.3205 197.104 62.1045 196.64 62.9845 196.64C64.4405 196.64 65.3205 197.92 65.3205 199.904C65.3205 202.016 64.4725 203.184 62.9845 203.184ZM69.391 194.144C69.823 194.144 70.127 193.824 70.127 193.408C70.127 192.976 69.823 192.64 69.391 192.64C68.975 192.64 68.655 192.976 68.655 193.408C68.655 193.824 68.975 194.144 69.391 194.144ZM68.831 204H69.951V195.824H68.831V204ZM75.1503 204.192C76.8463 204.192 77.9023 203.312 77.9023 201.952C77.9023 200.304 76.5103 199.744 75.2943 199.264C74.3343 198.88 73.4223 198.528 73.4223 197.696C73.4223 197.04 74.0303 196.624 74.9743 196.624C75.8703 196.624 76.5103 197.088 76.9263 197.504L77.6623 196.88C77.0063 196.096 76.1102 195.632 75.0063 195.632C73.4703 195.632 72.3663 196.464 72.3663 197.712C72.3663 199.088 73.5182 199.664 74.8143 200.192C75.8063 200.592 76.8463 201.024 76.8463 202.016C76.8463 202.784 76.1423 203.2 75.2463 203.2C74.3983 203.2 73.6143 202.672 73.1183 202.08L72.3343 202.768C73.0223 203.584 74.0463 204.192 75.1503 204.192ZM82.9245 204.192C84.3165 204.192 85.4045 203.472 85.7885 202.32L84.7805 201.936C84.5085 202.704 83.8525 203.184 82.9725 203.184C81.5325 203.184 80.8605 201.984 80.8605 199.92C80.8605 197.904 81.4845 196.64 83.0045 196.64C83.9005 196.64 84.3965 197.12 84.6525 197.744L85.6765 197.344C85.2285 196.24 84.2685 195.632 83.0525 195.632C80.9565 195.632 79.6925 197.232 79.6925 199.92C79.6925 202.64 80.9565 204.192 82.9245 204.192ZM88.5316 194.144C88.9636 194.144 89.2676 193.824 89.2676 193.408C89.2676 192.976 88.9636 192.64 88.5316 192.64C88.1156 192.64 87.7956 192.976 87.7956 193.408C87.7956 193.824 88.1156 194.144 88.5316 194.144ZM87.9716 204H89.0916V195.824H87.9716V204ZM97.0269 204H98.1469V199.472C98.1469 196.768 97.2189 195.632 95.2189 195.632C94.3549 195.632 93.6189 195.984 93.1069 196.72V195.824H91.9869V204H93.1069V198.976C93.1069 197.2 93.9709 196.64 95.1229 196.64C96.2109 196.64 97.0269 197.28 97.0269 199.008V204ZM103.244 207.408C105.244 207.328 107.084 206.56 107.084 203.872V195.824H105.964V196.592C105.692 196.272 105.036 195.632 103.788 195.632C101.788 195.632 100.38 197.216 100.38 199.904C100.38 202.752 101.964 204.192 103.724 204.192C104.844 204.192 105.5 203.76 105.964 203.072V204.32C105.964 205.44 105.388 206.384 102.732 206.528L103.244 207.408ZM103.98 203.184C102.588 203.184 101.548 202 101.548 199.904C101.548 197.808 102.364 196.64 103.98 196.64C104.572 196.64 105.5 197.072 105.964 197.888V201.824C105.516 202.672 104.652 203.184 103.98 203.184ZM116.651 204.192C117.595 204.192 118.507 203.792 119.147 203.264L118.539 202.512C117.915 202.976 117.291 203.152 116.699 203.152C115.307 203.152 114.475 202.032 114.283 200.368H119.851C119.883 200.016 119.883 199.76 119.883 199.584C119.883 196.832 118.395 195.632 116.651 195.632C114.555 195.632 113.099 197.184 113.099 199.904C113.099 202.208 114.443 204.192 116.651 204.192ZM114.251 199.36C114.347 197.504 115.339 196.64 116.651 196.64C117.515 196.64 118.731 197.152 118.747 199.36H114.251ZM122.208 204H123.328V192.448L122.208 192.992V204ZM126.86 194.144C127.292 194.144 127.596 193.824 127.596 193.408C127.596 192.976 127.292 192.64 126.86 192.64C126.444 192.64 126.124 192.976 126.124 193.408C126.124 193.824 126.444 194.144 126.86 194.144ZM126.3 204H127.42V195.824H126.3V204ZM132.363 204.192C132.987 204.192 133.435 204.048 133.851 203.824L133.979 202.656C133.675 202.864 133.291 203.136 132.747 203.136C131.963 203.136 131.867 202.544 131.867 201.84V196.832H133.947V195.824H131.867V192.448L130.747 193.008V195.824H129.355V196.832H130.747V202.32C130.747 203.392 131.195 204.192 132.363 204.192ZM135.949 206.176L136.253 206.256C137.085 205.744 137.709 204.816 137.709 203.6C137.709 202.656 137.117 202.256 136.557 202.256C136.029 202.256 135.581 202.656 135.581 203.312C135.581 203.888 136.077 204.304 136.749 204.304C136.749 205.248 136.237 205.92 135.949 206.176ZM145.822 204.192C147.518 204.192 148.574 203.312 148.574 201.952C148.574 200.304 147.182 199.744 145.966 199.264C145.006 198.88 144.094 198.528 144.094 197.696C144.094 197.04 144.702 196.624 145.646 196.624C146.542 196.624 147.182 197.088 147.598 197.504L148.334 196.88C147.678 196.096 146.782 195.632 145.678 195.632C144.142 195.632 143.038 196.464 143.038 197.712C143.038 199.088 144.19 199.664 145.486 200.192C146.478 200.592 147.518 201.024 147.518 202.016C147.518 202.784 146.814 203.2 145.918 203.2C145.07 203.2 144.286 202.672 143.79 202.08L143.006 202.768C143.694 203.584 144.718 204.192 145.822 204.192ZM153.916 204.192C154.86 204.192 155.772 203.792 156.412 203.264L155.804 202.512C155.18 202.976 154.556 203.152 153.964 203.152C152.572 203.152 151.74 202.032 151.548 200.368H157.116C157.148 200.016 157.148 199.76 157.148 199.584C157.148 196.832 155.66 195.632 153.916 195.632C151.82 195.632 150.364 197.184 150.364 199.904C150.364 202.208 151.708 204.192 153.916 204.192ZM151.516 199.36C151.612 197.504 152.604 196.64 153.916 196.64C154.78 196.64 155.996 197.152 156.012 199.36H151.516ZM162.209 204.192C163.233 204.192 163.889 203.792 164.385 203.296V204H165.505V192.448L164.385 193.008V196.4C163.889 196 163.217 195.632 162.209 195.632C160.129 195.632 158.833 197.216 158.833 199.904C158.833 202.512 160.113 204.192 162.209 204.192ZM162.337 203.184C160.897 203.184 160.001 201.728 160.001 199.904C160.001 197.808 160.833 196.64 162.337 196.64C163.377 196.64 164.049 197.28 164.385 197.824V201.904C163.937 202.72 163.153 203.184 162.337 203.184ZM174.881 204.192C175.905 204.192 176.561 203.792 177.057 203.296V204H178.177V192.448L177.057 193.008V196.4C176.561 196 175.889 195.632 174.881 195.632C172.801 195.632 171.505 197.216 171.505 199.904C171.505 202.512 172.785 204.192 174.881 204.192ZM175.009 203.184C173.569 203.184 172.673 201.728 172.673 199.904C172.673 197.808 173.505 196.64 175.009 196.64C176.049 196.64 176.721 197.28 177.057 197.824V201.904C176.609 202.72 175.825 203.184 175.009 203.184ZM183.993 204.192C186.089 204.192 187.497 202.592 187.497 199.904C187.497 197.184 186.089 195.632 183.993 195.632C181.897 195.632 180.489 197.232 180.489 199.92C180.489 202.64 181.897 204.192 183.993 204.192ZM183.993 203.184C182.473 203.184 181.657 201.952 181.657 199.92C181.657 197.792 182.473 196.64 183.993 196.64C185.513 196.64 186.329 197.872 186.329 199.904C186.329 201.952 185.481 203.184 183.993 203.184ZM196.495 204.192C197.439 204.192 198.351 203.792 198.991 203.264L198.383 202.512C197.759 202.976 197.135 203.152 196.543 203.152C195.151 203.152 194.319 202.032 194.127 200.368H199.695C199.727 200.016 199.727 199.76 199.727 199.584C199.727 196.832 198.239 195.632 196.495 195.632C194.399 195.632 192.943 197.184 192.943 199.904C192.943 202.208 194.287 204.192 196.495 204.192ZM194.095 199.36C194.191 197.504 195.183 196.64 196.495 196.64C197.359 196.64 198.575 197.152 198.591 199.36H194.095ZM202.547 194.144C202.979 194.144 203.283 193.824 203.283 193.408C203.283 192.976 202.979 192.64 202.547 192.64C202.131 192.64 201.811 192.976 201.811 193.408C201.811 193.824 202.131 194.144 202.547 194.144ZM201.987 204H203.107V195.824H201.987V204ZM210.963 204H212.083V195.824H210.963V200.848C210.963 202.624 210.083 203.184 208.931 203.184C207.843 203.184 207.043 202.528 207.043 200.816V195.824H205.923V200.384C205.923 203.072 206.819 204.192 208.931 204.192C209.779 204.192 210.387 203.968 210.963 203.216V204ZM217.26 204.192C218.956 204.192 220.012 203.312 220.012 201.952C220.012 200.304 218.62 199.744 217.404 199.264C216.444 198.88 215.532 198.528 215.532 197.696C215.532 197.04 216.14 196.624 217.084 196.624C217.98 196.624 218.62 197.088 219.036 197.504L219.772 196.88C219.116 196.096 218.22 195.632 217.116 195.632C215.58 195.632 214.476 196.464 214.476 197.712C214.476 199.088 215.628 199.664 216.924 200.192C217.916 200.592 218.956 201.024 218.956 202.016C218.956 202.784 218.252 203.2 217.356 203.2C216.508 203.2 215.724 202.672 215.228 202.08L214.444 202.768C215.132 203.584 216.156 204.192 217.26 204.192ZM231.93 204H233.05V198.56C233.05 196.768 231.834 195.632 230.25 195.632C229.194 195.632 228.362 196.192 227.914 196.88C227.45 196.096 226.57 195.632 225.706 195.632C224.81 195.632 224.026 195.984 223.482 196.624V195.824H222.362V204H223.482V198.864C223.482 197.6 224.106 196.64 225.37 196.64C226.906 196.64 227.146 197.968 227.146 198.992V204H228.266V198.992C228.266 197.728 228.922 196.64 230.154 196.64C231.69 196.64 231.93 197.968 231.93 198.992V204ZM238.79 204.192C240.886 204.192 242.294 202.592 242.294 199.904C242.294 197.184 240.886 195.632 238.79 195.632C236.694 195.632 235.286 197.232 235.286 199.92C235.286 202.64 236.694 204.192 238.79 204.192ZM238.79 203.184C237.27 203.184 236.454 201.952 236.454 199.92C236.454 197.792 237.27 196.64 238.79 196.64C240.31 196.64 241.126 197.872 241.126 199.904C241.126 201.952 240.278 203.184 238.79 203.184ZM247.428 204.192C248.452 204.192 249.108 203.792 249.604 203.296V204H250.724V192.448L249.604 193.008V196.4C249.108 196 248.436 195.632 247.428 195.632C245.348 195.632 244.052 197.216 244.052 199.904C244.052 202.512 245.332 204.192 247.428 204.192ZM247.556 203.184C246.116 203.184 245.22 201.728 245.22 199.904C245.22 197.808 246.052 196.64 247.556 196.64C248.596 196.64 249.268 197.28 249.604 197.824V201.904C249.156 202.72 248.372 203.184 247.556 203.184ZM259.332 204.192C259.956 204.192 260.404 204.048 260.82 203.824L260.948 202.656C260.644 202.864 260.26 203.136 259.716 203.136C258.932 203.136 258.836 202.544 258.836 201.84V196.832H260.916V195.824H258.836V192.448L257.716 193.008V195.824H256.324V196.832H257.716V202.32C257.716 203.392 258.164 204.192 259.332 204.192ZM266.026 204.192C266.97 204.192 267.882 203.792 268.522 203.264L267.914 202.512C267.29 202.976 266.666 203.152 266.074 203.152C264.682 203.152 263.85 202.032 263.658 200.368H269.226C269.258 200.016 269.258 199.76 269.258 199.584C269.258 196.832 267.77 195.632 266.026 195.632C263.93 195.632 262.474 197.184 262.474 199.904C262.474 202.208 263.818 204.192 266.026 204.192ZM263.626 199.36C263.722 197.504 264.714 196.64 266.026 196.64C266.89 196.64 268.106 197.152 268.122 199.36H263.626ZM281.071 204H282.191V198.56C282.191 196.768 280.975 195.632 279.391 195.632C278.335 195.632 277.503 196.192 277.055 196.88C276.591 196.096 275.711 195.632 274.847 195.632C273.951 195.632 273.167 195.984 272.623 196.624V195.824H271.503V204H272.623V198.864C272.623 197.6 273.247 196.64 274.511 196.64C276.047 196.64 276.287 197.968 276.287 198.992V204H277.407V198.992C277.407 197.728 278.062 196.64 279.295 196.64C280.831 196.64 281.071 197.968 281.071 198.992V204ZM288.347 204.192C290.315 204.192 291.723 202.64 291.723 199.904C291.723 197.328 290.443 195.632 288.347 195.632C287.243 195.632 286.635 196.08 286.107 196.56V195.824H284.987V207.248L286.107 206.688V203.168C286.571 203.712 287.195 204.192 288.347 204.192ZM288.219 203.184C287.339 203.184 286.667 202.64 286.107 201.92V197.904C286.555 197.104 287.339 196.64 288.219 196.64C289.675 196.64 290.555 197.92 290.555 199.904C290.555 202.016 289.707 203.184 288.219 203.184ZM296.993 204.192C299.089 204.192 300.497 202.592 300.497 199.904C300.497 197.184 299.089 195.632 296.993 195.632C294.897 195.632 293.489 197.232 293.489 199.92C293.489 202.64 294.897 204.192 296.993 204.192ZM296.993 203.184C295.473 203.184 294.657 201.952 294.657 199.92C294.657 197.792 295.473 196.64 296.993 196.64C298.513 196.64 299.329 197.872 299.329 199.904C299.329 201.952 298.481 203.184 296.993 203.184ZM302.815 204H303.935V199.376C303.935 197.36 305.103 196.752 305.919 196.752C306.447 196.752 306.767 196.928 306.975 197.056L307.151 195.968C306.927 195.808 306.511 195.632 305.999 195.632C304.991 195.632 304.303 196.192 303.935 196.976V195.824H302.815V204ZM39.016 220.144C39.448 220.144 39.752 219.824 39.752 219.408C39.752 218.976 39.448 218.64 39.016 218.64C38.6 218.64 38.28 218.976 38.28 219.408C38.28 219.824 38.6 220.144 39.016 220.144ZM38.456 230H39.576V221.824H38.456V230ZM47.5113 230H48.6313V225.472C48.6313 222.768 47.7033 221.632 45.7033 221.632C44.8393 221.632 44.1033 221.984 43.5913 222.72V221.824H42.4713V230H43.5913V224.976C43.5913 223.2 44.4553 222.64 45.6073 222.64C46.6953 222.64 47.5113 223.28 47.5113 225.008V230ZM54.0964 230.192C55.4884 230.192 56.5764 229.472 56.9604 228.32L55.9524 227.936C55.6804 228.704 55.0244 229.184 54.1444 229.184C52.7044 229.184 52.0324 227.984 52.0324 225.92C52.0324 223.904 52.6564 222.64 54.1764 222.64C55.0724 222.64 55.5684 223.12 55.8244 223.744L56.8484 223.344C56.4004 222.24 55.4404 221.632 54.2244 221.632C52.1284 221.632 50.8644 223.232 50.8644 225.92C50.8644 228.64 52.1284 230.192 54.0964 230.192ZM59.7035 220.144C60.1355 220.144 60.4395 219.824 60.4395 219.408C60.4395 218.976 60.1355 218.64 59.7035 218.64C59.2875 218.64 58.9675 218.976 58.9675 219.408C58.9675 219.824 59.2875 220.144 59.7035 220.144ZM59.1435 230H60.2635V221.824H59.1435V230ZM65.9748 230.192C66.9988 230.192 67.6548 229.792 68.1508 229.296V230H69.2708V218.448L68.1508 219.008V222.4C67.6548 222 66.9828 221.632 65.9748 221.632C63.8948 221.632 62.5988 223.216 62.5988 225.904C62.5988 228.512 63.8788 230.192 65.9748 230.192ZM66.1028 229.184C64.6628 229.184 63.7668 227.728 63.7668 225.904C63.7668 223.808 64.5988 222.64 66.1028 222.64C67.1428 222.64 67.8148 223.28 68.1508 223.824V227.904C67.7028 228.72 66.9188 229.184 66.1028 229.184ZM72.7191 220.144C73.1511 220.144 73.4551 219.824 73.4551 219.408C73.4551 218.976 73.1511 218.64 72.7191 218.64C72.3031 218.64 71.9831 218.976 71.9831 219.408C71.9831 219.824 72.3031 220.144 72.7191 220.144ZM72.1591 230H73.2791V221.824H72.1591V230ZM78.9904 230.192C80.0144 230.192 80.6704 229.792 81.1664 229.296V230H82.2864V218.448L81.1664 219.008V222.4C80.6704 222 79.9984 221.632 78.9904 221.632C76.9104 221.632 75.6144 223.216 75.6144 225.904C75.6144 228.512 76.8944 230.192 78.9904 230.192ZM79.1184 229.184C77.6784 229.184 76.7824 227.728 76.7824 225.904C76.7824 223.808 77.6144 222.64 79.1184 222.64C80.1584 222.64 80.8304 223.28 81.1664 223.824V227.904C80.7184 228.72 79.9344 229.184 79.1184 229.184ZM90.1188 230H91.2388V221.824H90.1188V226.848C90.1188 228.624 89.2388 229.184 88.0868 229.184C86.9988 229.184 86.1988 228.528 86.1988 226.816V221.824H85.0788V226.384C85.0788 229.072 85.9748 230.192 88.0868 230.192C88.9348 230.192 89.5428 229.968 90.1188 229.216V230ZM99.1519 230H100.272V225.472C100.272 222.768 99.3439 221.632 97.3439 221.632C96.4799 221.632 95.7439 221.984 95.2319 222.72V221.824H94.1119V230H95.2319V224.976C95.2319 223.2 96.0959 222.64 97.2479 222.64C98.3359 222.64 99.1519 223.28 99.1519 225.008V230ZM105.113 230.192C105.737 230.192 106.185 230.048 106.601 229.824L106.729 228.656C106.425 228.864 106.041 229.136 105.497 229.136C104.713 229.136 104.617 228.544 104.617 227.84V222.832H106.697V221.824H104.617V218.448L103.497 219.008V221.824H102.105V222.832H103.497V228.32C103.497 229.392 103.945 230.192 105.113 230.192ZM117.619 230H118.739V221.824H117.619V226.848C117.619 228.624 116.739 229.184 115.587 229.184C114.499 229.184 113.699 228.528 113.699 226.816V221.824H112.579V226.384C112.579 229.072 113.475 230.192 115.587 230.192C116.435 230.192 117.043 229.968 117.619 229.216V230ZM123.66 230.192C124.284 230.192 124.732 230.048 125.148 229.824L125.276 228.656C124.972 228.864 124.588 229.136 124.044 229.136C123.26 229.136 123.164 228.544 123.164 227.84V222.832H125.244V221.824H123.164V218.448L122.044 219.008V221.824H120.652V222.832H122.044V228.32C122.044 229.392 122.492 230.192 123.66 230.192ZM131.286 230H132.406V218.448L131.286 218.992V230ZM140.066 230H141.106V224.464C141.106 222.144 139.554 221.632 138.386 221.632C137.266 221.632 136.178 222.112 135.522 222.528L135.842 223.488C136.45 223.072 137.458 222.608 138.274 222.608C139.186 222.608 140.066 222.96 140.066 224.608V225.296C139.266 224.864 138.546 224.72 137.858 224.72C136.306 224.72 134.882 225.536 134.882 227.424C134.882 229.264 136.018 230.192 137.666 230.192C138.546 230.192 139.41 229.792 140.066 229.2V230ZM137.778 229.216C136.594 229.216 135.922 228.496 135.922 227.424C135.922 226.24 136.866 225.696 137.97 225.696C138.674 225.696 139.538 226.016 140.066 226.368V227.952C139.57 228.56 138.77 229.216 137.778 229.216ZM147.051 230.192C149.099 230.192 150.331 228.672 150.331 225.904C150.331 223.216 149.003 221.632 146.955 221.632C146.155 221.632 145.307 222.048 144.779 222.624V218.448L143.659 219.008V230H144.779V229.264C145.307 229.712 145.899 230.192 147.051 230.192ZM146.875 229.184C146.059 229.184 145.227 228.672 144.779 227.904V223.888C145.083 223.36 145.867 222.64 146.875 222.64C148.395 222.64 149.163 223.808 149.163 225.904C149.163 227.92 148.411 229.184 146.875 229.184ZM155.587 230.192C157.683 230.192 159.091 228.592 159.091 225.904C159.091 223.184 157.683 221.632 155.587 221.632C153.491 221.632 152.083 223.232 152.083 225.92C152.083 228.64 153.491 230.192 155.587 230.192ZM155.587 229.184C154.067 229.184 153.251 227.952 153.251 225.92C153.251 223.792 154.067 222.64 155.587 222.64C157.107 222.64 157.923 223.872 157.923 225.904C157.923 227.952 157.075 229.184 155.587 229.184ZM161.409 230H162.529V225.376C162.529 223.36 163.697 222.752 164.513 222.752C165.041 222.752 165.361 222.928 165.569 223.056L165.745 221.968C165.521 221.808 165.105 221.632 164.593 221.632C163.585 221.632 162.897 222.192 162.529 222.976V221.824H161.409V230ZM170.495 230.192C171.439 230.192 172.351 229.792 172.991 229.264L172.383 228.512C171.759 228.976 171.135 229.152 170.543 229.152C169.151 229.152 168.319 228.032 168.127 226.368H173.695C173.727 226.016 173.727 225.76 173.727 225.584C173.727 222.832 172.239 221.632 170.495 221.632C168.399 221.632 166.943 223.184 166.943 225.904C166.943 228.208 168.287 230.192 170.495 230.192ZM168.095 225.36C168.191 223.504 169.183 222.64 170.495 222.64C171.359 222.64 172.575 223.152 172.591 225.36H168.095ZM182.651 230.192C183.595 230.192 184.507 229.792 185.147 229.264L184.539 228.512C183.915 228.976 183.291 229.152 182.699 229.152C181.307 229.152 180.475 228.032 180.283 226.368H185.851C185.883 226.016 185.883 225.76 185.883 225.584C185.883 222.832 184.395 221.632 182.651 221.632C180.555 221.632 179.099 223.184 179.099 225.904C179.099 228.208 180.443 230.192 182.651 230.192ZM180.251 225.36C180.347 223.504 181.339 222.64 182.651 222.64C183.515 222.64 184.731 223.152 184.747 225.36H180.251ZM190.019 230.192C190.643 230.192 191.091 230.048 191.507 229.824L191.635 228.656C191.331 228.864 190.947 229.136 190.403 229.136C189.619 229.136 189.523 228.544 189.523 227.84V222.832H191.603V221.824H189.523V218.448L188.403 219.008V221.824H187.011V222.832H188.403V228.32C188.403 229.392 188.851 230.192 190.019 230.192ZM200.381 230.192C201.405 230.192 202.061 229.792 202.557 229.296V230H203.677V218.448L202.557 219.008V222.4C202.061 222 201.389 221.632 200.381 221.632C198.301 221.632 197.005 223.216 197.005 225.904C197.005 228.512 198.285 230.192 200.381 230.192ZM200.509 229.184C199.069 229.184 198.173 227.728 198.173 225.904C198.173 223.808 199.005 222.64 200.509 222.64C201.549 222.64 202.221 223.28 202.557 223.824V227.904C202.109 228.72 201.325 229.184 200.509 229.184ZM209.493 230.192C211.589 230.192 212.997 228.592 212.997 225.904C212.997 223.184 211.589 221.632 209.493 221.632C207.397 221.632 205.989 223.232 205.989 225.92C205.989 228.64 207.397 230.192 209.493 230.192ZM209.493 229.184C207.973 229.184 207.157 227.952 207.157 225.92C207.157 223.792 207.973 222.64 209.493 222.64C211.013 222.64 211.829 223.872 211.829 225.904C211.829 227.952 210.981 229.184 209.493 229.184ZM215.395 230H216.515V218.448L215.395 218.992V230ZM222.415 230.192C224.511 230.192 225.919 228.592 225.919 225.904C225.919 223.184 224.511 221.632 222.415 221.632C220.319 221.632 218.911 223.232 218.911 225.92C218.911 228.64 220.319 230.192 222.415 230.192ZM222.415 229.184C220.895 229.184 220.079 227.952 220.079 225.92C220.079 223.792 220.895 222.64 222.415 222.64C223.935 222.64 224.751 223.872 224.751 225.904C224.751 227.952 223.903 229.184 222.415 229.184ZM228.237 230H229.357V225.376C229.357 223.36 230.525 222.752 231.341 222.752C231.869 222.752 232.189 222.928 232.397 223.056L232.573 221.968C232.349 221.808 231.933 221.632 231.421 221.632C230.413 221.632 229.725 222.192 229.357 222.976V221.824H228.237V230ZM237.323 230.192C238.267 230.192 239.179 229.792 239.819 229.264L239.211 228.512C238.587 228.976 237.963 229.152 237.371 229.152C235.979 229.152 235.147 228.032 234.955 226.368H240.523C240.555 226.016 240.555 225.76 240.555 225.584C240.555 222.832 239.067 221.632 237.323 221.632C235.227 221.632 233.771 223.184 233.771 225.904C233.771 228.208 235.115 230.192 237.323 230.192ZM234.923 225.36C235.019 223.504 236.011 222.64 237.323 222.64C238.187 222.64 239.403 223.152 239.419 225.36H234.923ZM256.055 230H257.175V224.56C257.175 222.768 255.959 221.632 254.375 221.632C253.319 221.632 252.487 222.192 252.039 222.88C251.575 222.096 250.695 221.632 249.831 221.632C248.935 221.632 248.151 221.984 247.607 222.624V221.824H246.487V230H247.607V224.864C247.607 223.6 248.231 222.64 249.495 222.64C251.031 222.64 251.271 223.968 251.271 224.992V230H252.391V224.992C252.391 223.728 253.047 222.64 254.279 222.64C255.815 222.64 256.055 223.968 256.055 224.992V230ZM264.675 230H265.715V224.464C265.715 222.144 264.163 221.632 262.995 221.632C261.875 221.632 260.787 222.112 260.131 222.528L260.451 223.488C261.059 223.072 262.067 222.608 262.883 222.608C263.795 222.608 264.675 222.96 264.675 224.608V225.296C263.875 224.864 263.155 224.72 262.467 224.72C260.915 224.72 259.491 225.536 259.491 227.424C259.491 229.264 260.627 230.192 262.275 230.192C263.155 230.192 264.019 229.792 264.675 229.2V230ZM262.387 229.216C261.203 229.216 260.531 228.496 260.531 227.424C260.531 226.24 261.475 225.696 262.579 225.696C263.283 225.696 264.147 226.016 264.675 226.368V227.952C264.179 228.56 263.379 229.216 262.387 229.216ZM270.572 233.408C272.572 233.328 274.412 232.56 274.412 229.872V221.824H273.292V222.592C273.02 222.272 272.364 221.632 271.116 221.632C269.116 221.632 267.708 223.216 267.708 225.904C267.708 228.752 269.292 230.192 271.052 230.192C272.172 230.192 272.828 229.76 273.292 229.072V230.32C273.292 231.44 272.716 232.384 270.06 232.528L270.572 233.408ZM271.308 229.184C269.916 229.184 268.876 228 268.876 225.904C268.876 223.808 269.692 222.64 271.308 222.64C271.9 222.64 272.828 223.072 273.292 223.888V227.824C272.844 228.672 271.98 229.184 271.308 229.184ZM282.339 230H283.459V225.472C283.459 222.768 282.531 221.632 280.531 221.632C279.667 221.632 278.931 221.984 278.419 222.72V221.824H277.299V230H278.419V224.976C278.419 223.2 279.283 222.64 280.435 222.64C281.523 222.64 282.339 223.28 282.339 225.008V230ZM290.957 230H291.997V224.464C291.997 222.144 290.445 221.632 289.277 221.632C288.157 221.632 287.069 222.112 286.413 222.528L286.733 223.488C287.341 223.072 288.349 222.608 289.165 222.608C290.077 222.608 290.957 222.96 290.957 224.608V225.296C290.157 224.864 289.437 224.72 288.749 224.72C287.197 224.72 285.773 225.536 285.773 227.424C285.773 229.264 286.909 230.192 288.557 230.192C289.437 230.192 290.301 229.792 290.957 229.2V230ZM288.669 229.216C287.485 229.216 286.812 228.496 286.812 227.424C286.812 226.24 287.757 225.696 288.861 225.696C289.565 225.696 290.429 226.016 290.957 226.368V227.952C290.461 228.56 289.661 229.216 288.669 229.216ZM302.941 230H303.981V224.464C303.981 222.144 302.429 221.632 301.261 221.632C300.141 221.632 299.053 222.112 298.397 222.528L298.717 223.488C299.325 223.072 300.333 222.608 301.149 222.608C302.061 222.608 302.941 222.96 302.941 224.608V225.296C302.141 224.864 301.421 224.72 300.733 224.72C299.181 224.72 297.757 225.536 297.757 227.424C297.757 229.264 298.893 230.192 300.541 230.192C301.421 230.192 302.285 229.792 302.941 229.2V230ZM300.653 229.216C299.469 229.216 298.797 228.496 298.797 227.424C298.797 226.24 299.741 225.696 300.845 225.696C301.549 225.696 302.413 226.016 302.941 226.368V227.952C302.445 228.56 301.645 229.216 300.653 229.216ZM306.614 230H307.734V218.448L306.614 218.992V230ZM311.266 220.144C311.698 220.144 312.002 219.824 312.002 219.408C312.002 218.976 311.698 218.64 311.266 218.64C310.85 218.64 310.53 218.976 310.53 219.408C310.53 219.824 310.85 220.144 311.266 220.144ZM310.706 230H311.826V221.824H310.706V230ZM317.569 230.192C318.577 230.192 319.201 229.776 319.745 229.168V233.2L320.865 232.688V221.824H319.745V222.56C319.201 222.128 318.529 221.632 317.457 221.632C315.377 221.632 314.161 223.344 314.161 225.92C314.161 228.64 315.489 230.192 317.569 230.192ZM317.617 229.184C316.129 229.184 315.329 228.032 315.329 225.92C315.329 224.096 316.177 222.64 317.617 222.64C318.433 222.64 319.249 223.024 319.745 223.904V227.888C319.313 228.416 318.657 229.184 317.617 229.184ZM328.713 230H329.833V221.824H328.713V226.848C328.713 228.624 327.833 229.184 326.681 229.184C325.593 229.184 324.793 228.528 324.793 226.816V221.824H323.673V226.384C323.673 229.072 324.569 230.192 326.681 230.192C327.529 230.192 328.137 229.968 328.713 229.216V230ZM337.41 230H338.45V224.464C338.45 222.144 336.898 221.632 335.73 221.632C334.61 221.632 333.522 222.112 332.866 222.528L333.186 223.488C333.794 223.072 334.802 222.608 335.618 222.608C336.53 222.608 337.41 222.96 337.41 224.608V225.296C336.61 224.864 335.89 224.72 335.202 224.72C333.65 224.72 332.226 225.536 332.226 227.424C332.226 229.264 333.362 230.192 335.01 230.192C335.89 230.192 336.754 229.792 337.41 229.2V230ZM335.122 229.216C333.938 229.216 333.266 228.496 333.266 227.424C333.266 226.24 334.21 225.696 335.314 225.696C336.018 225.696 336.882 226.016 337.41 226.368V227.952C336.914 228.56 336.114 229.216 335.122 229.216ZM341.371 230.224C341.947 230.224 342.379 229.728 342.379 229.216C342.379 228.704 341.947 228.208 341.371 228.208C340.795 228.208 340.363 228.704 340.363 229.216C340.363 229.728 340.795 230.224 341.371 230.224Z" fill="#212B36"/>
<path d="M45.38 124.724H50.84V122.4H37.484V124.724H42.944V142H45.38V124.724ZM54.6482 142H57.0842V133.292C57.0842 130.52 58.5122 129.596 60.3882 129.596C62.1522 129.596 63.4682 130.632 63.4682 133.348V142H65.9042V133.768C65.9042 129.148 64.0282 127.356 60.7802 127.356C59.2402 127.356 57.9802 127.944 57.0842 129.176V121.784L54.6482 122.904V142ZM71.6576 125.088C72.5256 125.088 73.1976 124.416 73.1976 123.576C73.1976 122.708 72.5256 122.008 71.6576 122.008C70.8176 122.008 70.1456 122.708 70.1456 123.576C70.1456 124.416 70.8176 125.088 71.6576 125.088ZM70.4536 142H72.8896V127.692H70.4536V142ZM81.7629 142.336C84.8709 142.336 86.8589 140.852 86.8589 138.276C86.8589 135.56 84.8149 134.44 82.2109 133.516C80.6149 132.872 79.1869 132.34 79.1869 131.136C79.1869 130.128 80.1109 129.54 81.5669 129.54C83.1069 129.54 84.1149 130.268 84.7309 130.912L86.4109 129.512C85.3749 128.28 83.7789 127.356 81.5949 127.356C78.8509 127.356 76.7789 128.784 76.7789 131.136C76.7789 133.488 78.5709 134.636 81.2029 135.616C82.8829 136.26 84.4789 136.904 84.4789 138.332C84.4789 139.592 83.3309 140.152 81.8189 140.152C80.2789 140.152 79.0469 139.228 78.3189 138.444L76.5829 139.928C77.7029 141.356 79.6629 142.336 81.7629 142.336ZM98.4818 125.088C99.3498 125.088 100.022 124.416 100.022 123.576C100.022 122.708 99.3498 122.008 98.4818 122.008C97.6418 122.008 96.9698 122.708 96.9698 123.576C96.9698 124.416 97.6418 125.088 98.4818 125.088ZM97.2778 142H99.7138V127.692H97.2778V142ZM108.587 142.336C111.695 142.336 113.683 140.852 113.683 138.276C113.683 135.56 111.639 134.44 109.035 133.516C107.439 132.872 106.011 132.34 106.011 131.136C106.011 130.128 106.935 129.54 108.391 129.54C109.931 129.54 110.939 130.268 111.555 130.912L113.235 129.512C112.199 128.28 110.603 127.356 108.419 127.356C105.675 127.356 103.603 128.784 103.603 131.136C103.603 133.488 105.395 134.636 108.027 135.616C109.707 136.26 111.303 136.904 111.303 138.332C111.303 139.592 110.155 140.152 108.643 140.152C107.103 140.152 105.871 139.228 105.143 138.444L103.407 139.928C104.527 141.356 106.487 142.336 108.587 142.336ZM132.278 142H134.574V132.508C134.574 128.112 131.718 127.356 129.478 127.356C127.322 127.356 125.446 128.112 124.298 128.868L124.998 130.912C126.062 130.156 127.574 129.484 129.17 129.484C131.018 129.484 132.278 130.184 132.278 132.704V133.712C131.102 133.04 129.842 132.788 128.582 132.788C125.81 132.788 123.234 134.216 123.234 137.52C123.234 140.712 125.306 142.336 128.218 142.336C129.926 142.336 131.326 141.58 132.278 140.684V142ZM128.582 140.18C126.622 140.18 125.53 139.116 125.53 137.52C125.53 135.7 127.07 134.888 128.918 134.888C130.094 134.888 131.41 135.308 132.278 135.84V138.304C131.466 139.256 130.178 140.18 128.582 140.18ZM147.632 142H150.068V133.768C150.068 129.148 148.192 127.356 144.944 127.356C143.404 127.356 142.144 127.916 141.248 129.148V127.692H138.812V142H141.248V133.292C141.248 130.52 142.676 129.596 144.552 129.596C146.316 129.596 147.632 130.632 147.632 133.348V142ZM172.826 142H175.318L168.374 122.4H166.106L159.162 142H161.71L163.362 137.212H171.146L172.826 142ZM170.39 135.056H164.09L166.638 127.804C166.834 127.244 167.114 126.32 167.254 125.816C167.366 126.32 167.674 127.244 167.87 127.804L170.39 135.056ZM179.062 142H181.498V133.936C181.498 130.688 183.318 129.764 184.69 129.764C185.67 129.764 186.286 130.072 186.734 130.38L187.098 128.084C186.594 127.664 185.81 127.356 184.886 127.356C183.29 127.356 182.142 128.14 181.498 129.568V127.692H179.062V142ZM194.219 142.336C195.339 142.336 196.207 142.084 196.963 141.692L197.243 139.312C196.627 139.704 195.927 140.068 195.115 140.068C193.855 140.068 193.631 139.2 193.631 138.108V129.82H197.159V127.692H193.631V121.784L191.195 122.96V127.692H188.871V129.82H191.195V138.92C191.195 140.936 192.063 142.336 194.219 142.336ZM202.06 125.088C202.928 125.088 203.6 124.416 203.6 123.576C203.6 122.708 202.928 122.008 202.06 122.008C201.22 122.008 200.548 122.708 200.548 123.576C200.548 124.416 201.22 125.088 202.06 125.088ZM200.856 142H203.292V127.692H200.856V142ZM213.033 142.336C215.665 142.336 217.569 141.02 218.269 138.668L216.001 137.912C215.581 139.256 214.517 140.04 213.089 140.04C210.793 140.04 209.589 138.108 209.589 134.86C209.589 131.64 210.737 129.624 213.173 129.624C214.573 129.624 215.441 130.436 215.861 131.528L218.157 130.688C217.345 128.448 215.525 127.356 213.145 127.356C209.393 127.356 207.097 130.156 207.097 134.86C207.097 139.592 209.393 142.336 213.033 142.336ZM222.077 142H224.513V121.784L222.077 122.932V142ZM234.781 142.336C236.713 142.336 238.337 141.552 239.401 140.488L237.917 138.836C237.021 139.732 235.929 140.124 234.837 140.124C232.681 140.124 231.113 138.416 230.917 135.784H240.605C240.661 135.224 240.689 134.608 240.689 134.16C240.689 129.456 238.001 127.356 234.781 127.356C230.973 127.356 228.425 130.1 228.425 134.832C228.425 139.2 230.861 142.336 234.781 142.336ZM230.889 133.712C231.029 130.772 232.709 129.512 234.781 129.512C236.293 129.512 238.197 130.464 238.225 133.712H230.889ZM254.786 142.336C255.906 142.336 256.774 142.084 257.53 141.692L257.81 139.312C257.194 139.704 256.494 140.068 255.682 140.068C254.422 140.068 254.198 139.2 254.198 138.108V129.82H257.726V127.692H254.198V121.784L251.762 122.96V127.692H249.438V129.82H251.762V138.92C251.762 140.936 252.63 142.336 254.786 142.336ZM262.626 125.088C263.494 125.088 264.166 124.416 264.166 123.576C264.166 122.708 263.494 122.008 262.626 122.008C261.786 122.008 261.114 122.708 261.114 123.576C261.114 124.416 261.786 125.088 262.626 125.088ZM261.422 142H263.858V127.692H261.422V142ZM272.368 142.336C273.488 142.336 274.356 142.084 275.112 141.692L275.392 139.312C274.776 139.704 274.076 140.068 273.264 140.068C272.004 140.068 271.78 139.2 271.78 138.108V129.82H275.308V127.692H271.78V121.784L269.344 122.96V127.692H267.02V129.82H269.344V138.92C269.344 140.936 270.212 142.336 272.368 142.336ZM279.116 142H281.552V121.784L279.116 122.932V142ZM291.82 142.336C293.752 142.336 295.376 141.552 296.44 140.488L294.956 138.836C294.06 139.732 292.968 140.124 291.876 140.124C289.72 140.124 288.152 138.416 287.956 135.784H297.644C297.7 135.224 297.728 134.608 297.728 134.16C297.728 129.456 295.04 127.356 291.82 127.356C288.012 127.356 285.464 130.1 285.464 134.832C285.464 139.2 287.9 142.336 291.82 142.336ZM287.928 133.712C288.068 130.772 289.748 129.512 291.82 129.512C293.332 129.512 295.236 130.464 295.264 133.712H287.928Z" fill="#212B36"/>
<path d="M422.68 178H429.352V176.928H423.8V166.8H422.68V178ZM433.97 178.192C436.066 178.192 437.474 176.592 437.474 173.904C437.474 171.184 436.066 169.632 433.97 169.632C431.874 169.632 430.466 171.232 430.466 173.92C430.466 176.64 431.874 178.192 433.97 178.192ZM433.97 177.184C432.45 177.184 431.634 175.952 431.634 173.92C431.634 171.792 432.45 170.64 433.97 170.64C435.49 170.64 436.306 171.872 436.306 173.904C436.306 175.952 435.458 177.184 433.97 177.184ZM439.472 178H440.592V173.376C440.592 171.36 441.76 170.752 442.576 170.752C443.104 170.752 443.424 170.928 443.632 171.056L443.808 169.968C443.584 169.808 443.168 169.632 442.656 169.632C441.648 169.632 440.96 170.192 440.592 170.976V169.824H439.472V178ZM448.238 178.192C449.182 178.192 450.094 177.792 450.734 177.264L450.126 176.512C449.502 176.976 448.878 177.152 448.286 177.152C446.894 177.152 446.062 176.032 445.87 174.368H451.438C451.47 174.016 451.47 173.76 451.47 173.584C451.47 170.832 449.982 169.632 448.238 169.632C446.142 169.632 444.686 171.184 444.686 173.904C444.686 176.208 446.03 178.192 448.238 178.192ZM445.838 173.36C445.934 171.504 446.926 170.64 448.238 170.64C449.102 170.64 450.318 171.152 450.334 173.36H445.838ZM462.962 178H464.082V172.56C464.082 170.768 462.866 169.632 461.282 169.632C460.226 169.632 459.394 170.192 458.946 170.88C458.482 170.096 457.602 169.632 456.738 169.632C455.842 169.632 455.058 169.984 454.514 170.624V169.824H453.394V178H454.514V172.864C454.514 171.6 455.138 170.64 456.402 170.64C457.938 170.64 458.178 171.968 458.178 172.992V178H459.298V172.992C459.298 171.728 459.954 170.64 461.186 170.64C462.722 170.64 462.962 171.968 462.962 172.992V178ZM470.502 168.144C470.934 168.144 471.238 167.824 471.238 167.408C471.238 166.976 470.934 166.64 470.502 166.64C470.086 166.64 469.766 166.976 469.766 167.408C469.766 167.824 470.086 168.144 470.502 168.144ZM469.942 178H471.062V169.824H469.942V178ZM476.997 178.192C478.965 178.192 480.373 176.64 480.373 173.904C480.373 171.328 479.093 169.632 476.997 169.632C475.893 169.632 475.285 170.08 474.757 170.56V169.824H473.637V181.248L474.757 180.688V177.168C475.221 177.712 475.845 178.192 476.997 178.192ZM476.869 177.184C475.989 177.184 475.317 176.64 474.757 175.92V171.904C475.205 171.104 475.989 170.64 476.869 170.64C478.325 170.64 479.205 171.92 479.205 173.904C479.205 176.016 478.357 177.184 476.869 177.184ZM484.684 178.192C486.38 178.192 487.436 177.312 487.436 175.952C487.436 174.304 486.044 173.744 484.828 173.264C483.868 172.88 482.956 172.528 482.956 171.696C482.956 171.04 483.564 170.624 484.508 170.624C485.404 170.624 486.044 171.088 486.46 171.504L487.196 170.88C486.54 170.096 485.644 169.632 484.54 169.632C483.004 169.632 481.9 170.464 481.9 171.712C481.9 173.088 483.052 173.664 484.348 174.192C485.34 174.592 486.38 175.024 486.38 176.016C486.38 176.784 485.676 177.2 484.78 177.2C483.932 177.2 483.148 176.672 482.652 176.08L481.868 176.768C482.556 177.584 483.58 178.192 484.684 178.192ZM494.426 178H495.546V169.824H494.426V174.848C494.426 176.624 493.546 177.184 492.394 177.184C491.306 177.184 490.506 176.528 490.506 174.816V169.824H489.386V174.384C489.386 177.072 490.282 178.192 492.394 178.192C493.242 178.192 493.85 177.968 494.426 177.216V178ZM507.667 178H508.787V172.56C508.787 170.768 507.571 169.632 505.987 169.632C504.931 169.632 504.099 170.192 503.651 170.88C503.187 170.096 502.307 169.632 501.443 169.632C500.547 169.632 499.763 169.984 499.219 170.624V169.824H498.099V178H499.219V172.864C499.219 171.6 499.843 170.64 501.107 170.64C502.643 170.64 502.883 171.968 502.883 172.992V178H504.003V172.992C504.003 171.728 504.659 170.64 505.891 170.64C507.427 170.64 507.667 171.968 507.667 172.992V178ZM517.447 178.192C518.471 178.192 519.127 177.792 519.623 177.296V178H520.743V166.448L519.623 167.008V170.4C519.127 170 518.455 169.632 517.447 169.632C515.367 169.632 514.071 171.216 514.071 173.904C514.071 176.512 515.351 178.192 517.447 178.192ZM517.575 177.184C516.135 177.184 515.239 175.728 515.239 173.904C515.239 171.808 516.071 170.64 517.575 170.64C518.615 170.64 519.287 171.28 519.623 171.824V175.904C519.175 176.72 518.391 177.184 517.575 177.184ZM526.24 178.192C528.336 178.192 529.744 176.592 529.744 173.904C529.744 171.184 528.336 169.632 526.24 169.632C524.144 169.632 522.736 171.232 522.736 173.92C522.736 176.64 524.144 178.192 526.24 178.192ZM526.24 177.184C524.72 177.184 523.904 175.952 523.904 173.92C523.904 171.792 524.72 170.64 526.24 170.64C527.76 170.64 528.576 171.872 528.576 173.904C528.576 175.952 527.728 177.184 526.24 177.184ZM531.821 178H532.941V166.448L531.821 166.992V178ZM538.521 178.192C540.617 178.192 542.025 176.592 542.025 173.904C542.025 171.184 540.617 169.632 538.521 169.632C536.425 169.632 535.017 171.232 535.017 173.92C535.017 176.64 536.425 178.192 538.521 178.192ZM538.521 177.184C537.001 177.184 536.185 175.952 536.185 173.92C536.185 171.792 537.001 170.64 538.521 170.64C540.041 170.64 540.857 171.872 540.857 173.904C540.857 175.952 540.009 177.184 538.521 177.184ZM544.023 178H545.143V173.376C545.143 171.36 546.311 170.752 547.127 170.752C547.655 170.752 547.975 170.928 548.183 171.056L548.359 169.968C548.135 169.808 547.719 169.632 547.207 169.632C546.199 169.632 545.511 170.192 545.143 170.976V169.824H544.023V178ZM555.468 178.192C557.164 178.192 558.22 177.312 558.22 175.952C558.22 174.304 556.828 173.744 555.612 173.264C554.652 172.88 553.74 172.528 553.74 171.696C553.74 171.04 554.348 170.624 555.292 170.624C556.188 170.624 556.828 171.088 557.244 171.504L557.98 170.88C557.324 170.096 556.428 169.632 555.324 169.632C553.788 169.632 552.684 170.464 552.684 171.712C552.684 173.088 553.836 173.664 555.132 174.192C556.124 174.592 557.164 175.024 557.164 176.016C557.164 176.784 556.46 177.2 555.564 177.2C554.716 177.2 553.932 176.672 553.436 176.08L552.652 176.768C553.34 177.584 554.364 178.192 555.468 178.192ZM560.827 168.144C561.259 168.144 561.563 167.824 561.563 167.408C561.563 166.976 561.259 166.64 560.827 166.64C560.411 166.64 560.091 166.976 560.091 167.408C560.091 167.824 560.411 168.144 560.827 168.144ZM560.267 178H561.387V169.824H560.267V178ZM566.01 178.192C566.634 178.192 567.082 178.048 567.498 177.824L567.626 176.656C567.322 176.864 566.938 177.136 566.394 177.136C565.61 177.136 565.514 176.544 565.514 175.84V170.832H567.594V169.824H565.514V166.448L564.394 167.008V169.824H563.002V170.832H564.394V176.32C564.394 177.392 564.842 178.192 566.01 178.192ZM577.62 178H578.66V172.464C578.66 170.144 577.108 169.632 575.94 169.632C574.82 169.632 573.732 170.112 573.076 170.528L573.396 171.488C574.004 171.072 575.012 170.608 575.828 170.608C576.74 170.608 577.62 170.96 577.62 172.608V173.296C576.82 172.864 576.1 172.72 575.412 172.72C573.86 172.72 572.436 173.536 572.436 175.424C572.436 177.264 573.572 178.192 575.22 178.192C576.1 178.192 576.964 177.792 577.62 177.2V178ZM575.332 177.216C574.148 177.216 573.476 176.496 573.476 175.424C573.476 174.24 574.42 173.696 575.524 173.696C576.228 173.696 577.092 174.016 577.62 174.368V175.952C577.124 176.56 576.324 177.216 575.332 177.216ZM590.46 178H591.58V172.56C591.58 170.768 590.365 169.632 588.78 169.632C587.724 169.632 586.892 170.192 586.444 170.88C585.98 170.096 585.1 169.632 584.236 169.632C583.34 169.632 582.556 169.984 582.012 170.624V169.824H580.892V178H582.012V172.864C582.012 171.6 582.636 170.64 583.9 170.64C585.436 170.64 585.676 171.968 585.676 172.992V178H586.796V172.992C586.796 171.728 587.452 170.64 588.684 170.64C590.22 170.64 590.46 171.968 590.46 172.992V178ZM597.049 178.192C597.993 178.192 598.905 177.792 599.545 177.264L598.937 176.512C598.313 176.976 597.689 177.152 597.097 177.152C595.705 177.152 594.873 176.032 594.681 174.368H600.249C600.281 174.016 600.281 173.76 600.281 173.584C600.281 170.832 598.793 169.632 597.049 169.632C594.953 169.632 593.497 171.184 593.497 173.904C593.497 176.208 594.841 178.192 597.049 178.192ZM594.649 173.36C594.745 171.504 595.737 170.64 597.049 170.64C597.913 170.64 599.129 171.152 599.145 173.36H594.649ZM604.097 178.192C604.721 178.192 605.169 178.048 605.585 177.824L605.713 176.656C605.409 176.864 605.025 177.136 604.481 177.136C603.697 177.136 603.601 176.544 603.601 175.84V170.832H605.681V169.824H603.601V166.448L602.481 167.008V169.824H601.089V170.832H602.481V176.32C602.481 177.392 602.929 178.192 604.097 178.192ZM607.364 180.176L607.668 180.256C608.5 179.744 609.124 178.816 609.124 177.6C609.124 176.656 608.532 176.256 607.972 176.256C607.444 176.256 606.996 176.656 606.996 177.312C606.996 177.888 607.492 178.304 608.164 178.304C608.164 179.248 607.652 179.92 607.364 180.176ZM616.964 178.192C618.356 178.192 619.444 177.472 619.828 176.32L618.82 175.936C618.548 176.704 617.892 177.184 617.012 177.184C615.572 177.184 614.9 175.984 614.9 173.92C614.9 171.904 615.524 170.64 617.044 170.64C617.94 170.64 618.436 171.12 618.692 171.744L619.716 171.344C619.268 170.24 618.308 169.632 617.092 169.632C614.996 169.632 613.732 171.232 613.732 173.92C613.732 176.64 614.996 178.192 616.964 178.192ZM624.62 178.192C626.716 178.192 628.124 176.592 628.124 173.904C628.124 171.184 626.716 169.632 624.62 169.632C622.524 169.632 621.116 171.232 621.116 173.92C621.116 176.64 622.524 178.192 624.62 178.192ZM624.62 177.184C623.1 177.184 622.284 175.952 622.284 173.92C622.284 171.792 623.1 170.64 624.62 170.64C626.14 170.64 626.956 171.872 626.956 173.904C626.956 175.952 626.108 177.184 624.62 177.184ZM635.161 178H636.281V173.472C636.281 170.768 635.353 169.632 633.353 169.632C632.489 169.632 631.753 169.984 631.241 170.72V169.824H630.121V178H631.241V172.976C631.241 171.2 632.105 170.64 633.257 170.64C634.345 170.64 635.161 171.28 635.161 173.008V178ZM641.058 178.192C642.754 178.192 643.81 177.312 643.81 175.952C643.81 174.304 642.418 173.744 641.202 173.264C640.242 172.88 639.33 172.528 639.33 171.696C639.33 171.04 639.938 170.624 640.882 170.624C641.778 170.624 642.418 171.088 642.834 171.504L643.57 170.88C642.914 170.096 642.018 169.632 640.914 169.632C639.378 169.632 638.274 170.464 638.274 171.712C638.274 173.088 639.426 173.664 640.722 174.192C641.714 174.592 642.754 175.024 642.754 176.016C642.754 176.784 642.05 177.2 641.154 177.2C640.306 177.2 639.522 176.672 639.026 176.08L638.242 176.768C638.93 177.584 639.954 178.192 641.058 178.192ZM648.833 178.192C649.777 178.192 650.689 177.792 651.329 177.264L650.721 176.512C650.097 176.976 649.473 177.152 648.881 177.152C647.489 177.152 646.657 176.032 646.465 174.368H652.033C652.065 174.016 652.065 173.76 652.065 173.584C652.065 170.832 650.577 169.632 648.833 169.632C646.737 169.632 645.281 171.184 645.281 173.904C645.281 176.208 646.625 178.192 648.833 178.192ZM646.433 173.36C646.529 171.504 647.521 170.64 648.833 170.64C649.697 170.64 650.913 171.152 650.929 173.36H646.433ZM656.661 178.192C658.053 178.192 659.141 177.472 659.525 176.32L658.517 175.936C658.245 176.704 657.589 177.184 656.709 177.184C655.269 177.184 654.597 175.984 654.597 173.92C654.597 171.904 655.221 170.64 656.741 170.64C657.637 170.64 658.133 171.12 658.389 171.744L659.413 171.344C658.965 170.24 658.005 169.632 656.789 169.632C654.693 169.632 653.429 171.232 653.429 173.92C653.429 176.64 654.693 178.192 656.661 178.192ZM663.264 178.192C663.888 178.192 664.336 178.048 664.752 177.824L664.88 176.656C664.576 176.864 664.192 177.136 663.648 177.136C662.864 177.136 662.768 176.544 662.768 175.84V170.832H664.848V169.824H662.768V166.448L661.648 167.008V169.824H660.256V170.832H661.648V176.32C661.648 177.392 662.096 178.192 663.264 178.192ZM669.638 178.192C670.582 178.192 671.494 177.792 672.134 177.264L671.526 176.512C670.902 176.976 670.278 177.152 669.686 177.152C668.294 177.152 667.462 176.032 667.27 174.368H672.838C672.87 174.016 672.87 173.76 672.87 173.584C672.87 170.832 671.382 169.632 669.638 169.632C667.542 169.632 666.086 171.184 666.086 173.904C666.086 176.208 667.43 178.192 669.638 178.192ZM667.238 173.36C667.334 171.504 668.326 170.64 669.638 170.64C670.502 170.64 671.718 171.152 671.734 173.36H667.238ZM676.687 178.192C677.311 178.192 677.759 178.048 678.175 177.824L678.303 176.656C677.999 176.864 677.615 177.136 677.071 177.136C676.287 177.136 676.191 176.544 676.191 175.84V170.832H678.271V169.824H676.191V166.448L675.071 167.008V169.824H673.679V170.832H675.071V176.32C675.071 177.392 675.519 178.192 676.687 178.192ZM685.185 178H686.305V169.824H685.185V174.848C685.185 176.624 684.305 177.184 683.153 177.184C682.065 177.184 681.265 176.528 681.265 174.816V169.824H680.145V174.384C680.145 177.072 681.041 178.192 683.153 178.192C684.001 178.192 684.609 177.968 685.185 177.216V178ZM688.858 178H689.978V173.376C689.978 171.36 691.146 170.752 691.962 170.752C692.49 170.752 692.81 170.928 693.018 171.056L693.194 169.968C692.97 169.808 692.554 169.632 692.042 169.632C691.034 169.632 690.346 170.192 689.978 170.976V169.824H688.858V178ZM427.144 199H428.184V193.464C428.184 191.144 426.632 190.632 425.464 190.632C424.344 190.632 423.256 191.112 422.6 191.528L422.92 192.488C423.528 192.072 424.536 191.608 425.352 191.608C426.264 191.608 427.144 191.96 427.144 193.608V194.296C426.344 193.864 425.624 193.72 424.936 193.72C423.384 193.72 421.96 194.536 421.96 196.424C421.96 198.264 423.096 199.192 424.744 199.192C425.624 199.192 426.488 198.792 427.144 198.2V199ZM424.856 198.216C423.672 198.216 423 197.496 423 196.424C423 195.24 423.944 194.696 425.048 194.696C425.752 194.696 426.616 195.016 427.144 195.368V196.952C426.648 197.56 425.848 198.216 424.856 198.216ZM433.233 199.192C434.257 199.192 434.913 198.792 435.409 198.296V199H436.529V187.448L435.409 188.008V191.4C434.913 191 434.241 190.632 433.233 190.632C431.153 190.632 429.857 192.216 429.857 194.904C429.857 197.512 431.137 199.192 433.233 199.192ZM433.361 198.184C431.921 198.184 431.025 196.728 431.025 194.904C431.025 192.808 431.857 191.64 433.361 191.64C434.401 191.64 435.073 192.28 435.409 192.824V196.904C434.961 197.72 434.177 198.184 433.361 198.184ZM439.657 189.144C440.089 189.144 440.393 188.824 440.393 188.408C440.393 187.976 440.089 187.64 439.657 187.64C439.241 187.64 438.921 187.976 438.921 188.408C438.921 188.824 439.241 189.144 439.657 189.144ZM439.097 199H440.217V190.824H439.097V199ZM446.153 199.192C448.121 199.192 449.529 197.64 449.529 194.904C449.529 192.328 448.249 190.632 446.153 190.632C445.049 190.632 444.441 191.08 443.913 191.56V190.824H442.793V202.248L443.913 201.688V198.168C444.377 198.712 445.001 199.192 446.153 199.192ZM446.025 198.184C445.145 198.184 444.473 197.64 443.913 196.92V192.904C444.361 192.104 445.145 191.64 446.025 191.64C447.481 191.64 448.361 192.92 448.361 194.904C448.361 197.016 447.513 198.184 446.025 198.184ZM452.111 189.144C452.543 189.144 452.847 188.824 452.847 188.408C452.847 187.976 452.543 187.64 452.111 187.64C451.695 187.64 451.375 187.976 451.375 188.408C451.375 188.824 451.695 189.144 452.111 189.144ZM451.551 199H452.671V190.824H451.551V199ZM457.55 199.192C459.246 199.192 460.302 198.312 460.302 196.952C460.302 195.304 458.91 194.744 457.694 194.264C456.734 193.88 455.822 193.528 455.822 192.696C455.822 192.04 456.43 191.624 457.374 191.624C458.27 191.624 458.91 192.088 459.326 192.504L460.062 191.88C459.406 191.096 458.51 190.632 457.406 190.632C455.87 190.632 454.766 191.464 454.766 192.712C454.766 194.088 455.918 194.664 457.214 195.192C458.206 195.592 459.246 196.024 459.246 197.016C459.246 197.784 458.542 198.2 457.646 198.2C456.798 198.2 456.014 197.672 455.518 197.08L454.734 197.768C455.422 198.584 456.446 199.192 457.55 199.192ZM465.005 199.192C466.397 199.192 467.485 198.472 467.869 197.32L466.861 196.936C466.589 197.704 465.933 198.184 465.053 198.184C463.613 198.184 462.941 196.984 462.941 194.92C462.941 192.904 463.565 191.64 465.085 191.64C465.981 191.64 466.477 192.12 466.733 192.744L467.757 192.344C467.309 191.24 466.349 190.632 465.133 190.632C463.037 190.632 461.773 192.232 461.773 194.92C461.773 197.64 463.037 199.192 465.005 199.192ZM470.292 189.144C470.724 189.144 471.028 188.824 471.028 188.408C471.028 187.976 470.724 187.64 470.292 187.64C469.876 187.64 469.556 187.976 469.556 188.408C469.556 188.824 469.876 189.144 470.292 189.144ZM469.732 199H470.852V190.824H469.732V199ZM478.467 199H479.587V194.472C479.587 191.768 478.659 190.632 476.659 190.632C475.795 190.632 475.059 190.984 474.547 191.72V190.824H473.427V199H474.547V193.976C474.547 192.2 475.411 191.64 476.563 191.64C477.651 191.64 478.467 192.28 478.467 194.008V199ZM484.364 202.408C486.364 202.328 488.204 201.56 488.204 198.872V190.824H487.084V191.592C486.812 191.272 486.156 190.632 484.908 190.632C482.908 190.632 481.5 192.216 481.5 194.904C481.5 197.752 483.084 199.192 484.844 199.192C485.964 199.192 486.62 198.76 487.084 198.072V199.32C487.084 200.44 486.508 201.384 483.852 201.528L484.364 202.408ZM485.1 198.184C483.708 198.184 482.668 197 482.668 194.904C482.668 192.808 483.484 191.64 485.1 191.64C485.692 191.64 486.62 192.072 487.084 192.888V196.824C486.636 197.672 485.772 198.184 485.1 198.184ZM497.131 199.192C498.075 199.192 498.987 198.792 499.627 198.264L499.019 197.512C498.395 197.976 497.771 198.152 497.179 198.152C495.787 198.152 494.955 197.032 494.763 195.368H500.331C500.363 195.016 500.363 194.76 500.363 194.584C500.363 191.832 498.875 190.632 497.131 190.632C495.035 190.632 493.579 192.184 493.579 194.904C493.579 197.208 494.923 199.192 497.131 199.192ZM494.731 194.36C494.827 192.504 495.819 191.64 497.131 191.64C497.995 191.64 499.211 192.152 499.227 194.36H494.731ZM502.368 199H503.488V187.448L502.368 187.992V199ZM506.7 189.144C507.132 189.144 507.436 188.824 507.436 188.408C507.436 187.976 507.132 187.64 506.7 187.64C506.284 187.64 505.964 187.976 505.964 188.408C505.964 188.824 506.284 189.144 506.7 189.144ZM506.14 199H507.26V190.824H506.14V199ZM511.883 199.192C512.507 199.192 512.955 199.048 513.371 198.824L513.499 197.656C513.195 197.864 512.811 198.136 512.267 198.136C511.483 198.136 511.387 197.544 511.387 196.84V191.832H513.467V190.824H511.387V187.448L510.267 188.008V190.824H508.875V191.832H510.267V197.32C510.267 198.392 510.715 199.192 511.883 199.192ZM515.149 201.176L515.453 201.256C516.285 200.744 516.909 199.816 516.909 198.6C516.909 197.656 516.317 197.256 515.757 197.256C515.229 197.256 514.781 197.656 514.781 198.312C514.781 198.888 515.277 199.304 515.949 199.304C515.949 200.248 515.437 200.92 515.149 201.176ZM524.382 199.192C526.078 199.192 527.134 198.312 527.134 196.952C527.134 195.304 525.742 194.744 524.526 194.264C523.566 193.88 522.654 193.528 522.654 192.696C522.654 192.04 523.262 191.624 524.206 191.624C525.102 191.624 525.742 192.088 526.158 192.504L526.894 191.88C526.238 191.096 525.342 190.632 524.238 190.632C522.702 190.632 521.598 191.464 521.598 192.712C521.598 194.088 522.75 194.664 524.046 195.192C525.038 195.592 526.078 196.024 526.078 197.016C526.078 197.784 525.374 198.2 524.478 198.2C523.63 198.2 522.846 197.672 522.35 197.08L521.566 197.768C522.254 198.584 523.278 199.192 524.382 199.192ZM532.156 199.192C533.1 199.192 534.012 198.792 534.652 198.264L534.044 197.512C533.42 197.976 532.796 198.152 532.204 198.152C530.812 198.152 529.98 197.032 529.788 195.368H535.356C535.388 195.016 535.388 194.76 535.388 194.584C535.388 191.832 533.9 190.632 532.156 190.632C530.06 190.632 528.604 192.184 528.604 194.904C528.604 197.208 529.948 199.192 532.156 199.192ZM529.756 194.36C529.852 192.504 530.844 191.64 532.156 191.64C533.02 191.64 534.236 192.152 534.252 194.36H529.756ZM540.129 199.192C541.153 199.192 541.809 198.792 542.305 198.296V199H543.425V187.448L542.305 188.008V191.4C541.809 191 541.137 190.632 540.129 190.632C538.049 190.632 536.753 192.216 536.753 194.904C536.753 197.512 538.033 199.192 540.129 199.192ZM540.257 198.184C538.817 198.184 537.921 196.728 537.921 194.904C537.921 192.808 538.753 191.64 540.257 191.64C541.297 191.64 541.969 192.28 542.305 192.824V196.904C541.857 197.72 541.073 198.184 540.257 198.184ZM552.161 199.192C553.185 199.192 553.841 198.792 554.337 198.296V199H555.457V187.448L554.337 188.008V191.4C553.841 191 553.169 190.632 552.161 190.632C550.081 190.632 548.785 192.216 548.785 194.904C548.785 197.512 550.065 199.192 552.161 199.192ZM552.289 198.184C550.849 198.184 549.953 196.728 549.953 194.904C549.953 192.808 550.785 191.64 552.289 191.64C553.329 191.64 554.001 192.28 554.337 192.824V196.904C553.889 197.72 553.105 198.184 552.289 198.184ZM560.953 199.192C563.049 199.192 564.457 197.592 564.457 194.904C564.457 192.184 563.049 190.632 560.953 190.632C558.857 190.632 557.449 192.232 557.449 194.92C557.449 197.64 558.857 199.192 560.953 199.192ZM560.953 198.184C559.433 198.184 558.617 196.952 558.617 194.92C558.617 192.792 559.433 191.64 560.953 191.64C562.473 191.64 563.289 192.872 563.289 194.904C563.289 196.952 562.441 198.184 560.953 198.184ZM572.815 199.192C573.759 199.192 574.671 198.792 575.311 198.264L574.703 197.512C574.079 197.976 573.455 198.152 572.863 198.152C571.471 198.152 570.639 197.032 570.447 195.368H576.015C576.047 195.016 576.047 194.76 576.047 194.584C576.047 191.832 574.559 190.632 572.815 190.632C570.719 190.632 569.263 192.184 569.263 194.904C569.263 197.208 570.607 199.192 572.815 199.192ZM570.415 194.36C570.511 192.504 571.503 191.64 572.815 191.64C573.679 191.64 574.895 192.152 574.911 194.36H570.415ZM578.547 189.144C578.979 189.144 579.283 188.824 579.283 188.408C579.283 187.976 578.979 187.64 578.547 187.64C578.131 187.64 577.811 187.976 577.811 188.408C577.811 188.824 578.131 189.144 578.547 189.144ZM577.987 199H579.107V190.824H577.987V199ZM586.642 199H587.762V190.824H586.642V195.848C586.642 197.624 585.762 198.184 584.61 198.184C583.522 198.184 582.722 197.528 582.722 195.816V190.824H581.602V195.384C581.602 198.072 582.498 199.192 584.61 199.192C585.458 199.192 586.066 198.968 586.642 198.216V199ZM592.62 199.192C594.316 199.192 595.372 198.312 595.372 196.952C595.372 195.304 593.98 194.744 592.764 194.264C591.804 193.88 590.892 193.528 590.892 192.696C590.892 192.04 591.5 191.624 592.444 191.624C593.34 191.624 593.98 192.088 594.396 192.504L595.132 191.88C594.476 191.096 593.58 190.632 592.476 190.632C590.94 190.632 589.836 191.464 589.836 192.712C589.836 194.088 590.988 194.664 592.284 195.192C593.276 195.592 594.316 196.024 594.316 197.016C594.316 197.784 593.612 198.2 592.716 198.2C591.868 198.2 591.084 197.672 590.588 197.08L589.804 197.768C590.492 198.584 591.516 199.192 592.62 199.192ZM606.97 199H608.09V193.56C608.09 191.768 606.874 190.632 605.29 190.632C604.234 190.632 603.402 191.192 602.954 191.88C602.49 191.096 601.61 190.632 600.746 190.632C599.85 190.632 599.066 190.984 598.522 191.624V190.824H597.402V199H598.522V193.864C598.522 192.6 599.146 191.64 600.41 191.64C601.946 191.64 602.186 192.968 602.186 193.992V199H603.306V193.992C603.306 192.728 603.962 191.64 605.194 191.64C606.73 191.64 606.97 192.968 606.97 193.992V199ZM613.51 199.192C615.606 199.192 617.014 197.592 617.014 194.904C617.014 192.184 615.606 190.632 613.51 190.632C611.414 190.632 610.006 192.232 610.006 194.92C610.006 197.64 611.414 199.192 613.51 199.192ZM613.51 198.184C611.99 198.184 611.174 196.952 611.174 194.92C611.174 192.792 611.99 191.64 613.51 191.64C615.03 191.64 615.846 192.872 615.846 194.904C615.846 196.952 614.998 198.184 613.51 198.184ZM621.828 199.192C622.852 199.192 623.508 198.792 624.004 198.296V199H625.124V187.448L624.004 188.008V191.4C623.508 191 622.836 190.632 621.828 190.632C619.748 190.632 618.452 192.216 618.452 194.904C618.452 197.512 619.732 199.192 621.828 199.192ZM621.956 198.184C620.516 198.184 619.62 196.728 619.62 194.904C619.62 192.808 620.452 191.64 621.956 191.64C622.996 191.64 623.668 192.28 624.004 192.824V196.904C623.556 197.72 622.772 198.184 621.956 198.184ZM633.092 199.192C633.716 199.192 634.164 199.048 634.58 198.824L634.708 197.656C634.404 197.864 634.02 198.136 633.476 198.136C632.692 198.136 632.596 197.544 632.596 196.84V191.832H634.676V190.824H632.596V187.448L631.476 188.008V190.824H630.084V191.832H631.476V197.32C631.476 198.392 631.924 199.192 633.092 199.192ZM639.466 199.192C640.41 199.192 641.322 198.792 641.962 198.264L641.354 197.512C640.73 197.976 640.106 198.152 639.514 198.152C638.122 198.152 637.29 197.032 637.098 195.368H642.666C642.698 195.016 642.698 194.76 642.698 194.584C642.698 191.832 641.21 190.632 639.466 190.632C637.37 190.632 635.914 192.184 635.914 194.904C635.914 197.208 637.258 199.192 639.466 199.192ZM637.066 194.36C637.162 192.504 638.154 191.64 639.466 191.64C640.33 191.64 641.546 192.152 641.562 194.36H637.066ZM654.19 199H655.31V193.56C655.31 191.768 654.094 190.632 652.51 190.632C651.454 190.632 650.622 191.192 650.174 191.88C649.71 191.096 648.83 190.632 647.966 190.632C647.07 190.632 646.286 190.984 645.742 191.624V190.824H644.622V199H645.742V193.864C645.742 192.6 646.366 191.64 647.63 191.64C649.166 191.64 649.406 192.968 649.406 193.992V199H650.526V193.992C650.526 192.728 651.182 191.64 652.414 191.64C653.95 191.64 654.19 192.968 654.19 193.992V199ZM661.147 199.192C663.115 199.192 664.523 197.64 664.523 194.904C664.523 192.328 663.243 190.632 661.147 190.632C660.043 190.632 659.435 191.08 658.907 191.56V190.824H657.787V202.248L658.907 201.688V198.168C659.371 198.712 659.995 199.192 661.147 199.192ZM661.019 198.184C660.139 198.184 659.467 197.64 658.907 196.92V192.904C659.355 192.104 660.139 191.64 661.019 191.64C662.475 191.64 663.355 192.92 663.355 194.904C663.355 197.016 662.507 198.184 661.019 198.184ZM669.473 199.192C671.569 199.192 672.977 197.592 672.977 194.904C672.977 192.184 671.569 190.632 669.473 190.632C667.377 190.632 665.969 192.232 665.969 194.92C665.969 197.64 667.377 199.192 669.473 199.192ZM669.473 198.184C667.953 198.184 667.137 196.952 667.137 194.92C667.137 192.792 667.953 191.64 669.473 191.64C670.993 191.64 671.809 192.872 671.809 194.904C671.809 196.952 670.961 198.184 669.473 198.184ZM674.975 199H676.095V194.376C676.095 192.36 677.263 191.752 678.079 191.752C678.607 191.752 678.927 191.928 679.135 192.056L679.311 190.968C679.087 190.808 678.671 190.632 678.159 190.632C677.151 190.632 676.463 191.192 676.095 191.976V190.824H674.975V199ZM423.016 209.144C423.448 209.144 423.752 208.824 423.752 208.408C423.752 207.976 423.448 207.64 423.016 207.64C422.6 207.64 422.28 207.976 422.28 208.408C422.28 208.824 422.6 209.144 423.016 209.144ZM422.456 219H423.576V210.824H422.456V219ZM431.191 219H432.311V214.472C432.311 211.768 431.383 210.632 429.383 210.632C428.519 210.632 427.783 210.984 427.271 211.72V210.824H426.151V219H427.271V213.976C427.271 212.2 428.135 211.64 429.287 211.64C430.375 211.64 431.191 212.28 431.191 214.008V219ZM437.456 219.192C438.848 219.192 439.936 218.472 440.32 217.32L439.312 216.936C439.04 217.704 438.384 218.184 437.504 218.184C436.064 218.184 435.392 216.984 435.392 214.92C435.392 212.904 436.016 211.64 437.536 211.64C438.432 211.64 438.928 212.12 439.184 212.744L440.208 212.344C439.76 211.24 438.8 210.632 437.584 210.632C435.488 210.632 434.224 212.232 434.224 214.92C434.224 217.64 435.488 219.192 437.456 219.192ZM442.744 209.144C443.176 209.144 443.48 208.824 443.48 208.408C443.48 207.976 443.176 207.64 442.744 207.64C442.328 207.64 442.008 207.976 442.008 208.408C442.008 208.824 442.328 209.144 442.744 209.144ZM442.184 219H443.304V210.824H442.184V219ZM448.695 219.192C449.719 219.192 450.375 218.792 450.871 218.296V219H451.991V207.448L450.871 208.008V211.4C450.375 211 449.703 210.632 448.695 210.632C446.615 210.632 445.319 212.216 445.319 214.904C445.319 217.512 446.599 219.192 448.695 219.192ZM448.823 218.184C447.383 218.184 446.487 216.728 446.487 214.904C446.487 212.808 447.319 211.64 448.823 211.64C449.863 211.64 450.535 212.28 450.871 212.824V216.904C450.423 217.72 449.639 218.184 448.823 218.184ZM455.119 209.144C455.551 209.144 455.855 208.824 455.855 208.408C455.855 207.976 455.551 207.64 455.119 207.64C454.703 207.64 454.383 207.976 454.383 208.408C454.383 208.824 454.703 209.144 455.119 209.144ZM454.559 219H455.679V210.824H454.559V219ZM461.07 219.192C462.094 219.192 462.75 218.792 463.246 218.296V219H464.366V207.448L463.246 208.008V211.4C462.75 211 462.078 210.632 461.07 210.632C458.99 210.632 457.694 212.216 457.694 214.904C457.694 217.512 458.974 219.192 461.07 219.192ZM461.198 218.184C459.758 218.184 458.862 216.728 458.862 214.904C458.862 212.808 459.694 211.64 461.198 211.64C462.238 211.64 462.91 212.28 463.246 212.824V216.904C462.798 217.72 462.014 218.184 461.198 218.184ZM471.879 219H472.999V210.824H471.879V215.848C471.879 217.624 470.999 218.184 469.847 218.184C468.759 218.184 467.959 217.528 467.959 215.816V210.824H466.839V215.384C466.839 218.072 467.735 219.192 469.847 219.192C470.695 219.192 471.303 218.968 471.879 218.216V219ZM480.592 219H481.712V214.472C481.712 211.768 480.784 210.632 478.784 210.632C477.92 210.632 477.184 210.984 476.672 211.72V210.824H475.552V219H476.672V213.976C476.672 212.2 477.536 211.64 478.688 211.64C479.776 211.64 480.592 212.28 480.592 214.008V219ZM486.233 219.192C486.857 219.192 487.305 219.048 487.721 218.824L487.849 217.656C487.545 217.864 487.161 218.136 486.617 218.136C485.833 218.136 485.737 217.544 485.737 216.84V211.832H487.817V210.824H485.737V207.448L484.617 208.008V210.824H483.225V211.832H484.617V217.32C484.617 218.392 485.065 219.192 486.233 219.192ZM498.099 219H499.219V210.824H498.099V215.848C498.099 217.624 497.219 218.184 496.067 218.184C494.979 218.184 494.179 217.528 494.179 215.816V210.824H493.059V215.384C493.059 218.072 493.955 219.192 496.067 219.192C496.915 219.192 497.523 218.968 498.099 218.216V219ZM503.82 219.192C504.444 219.192 504.892 219.048 505.308 218.824L505.436 217.656C505.132 217.864 504.748 218.136 504.204 218.136C503.42 218.136 503.324 217.544 503.324 216.84V211.832H505.404V210.824H503.324V207.448L502.204 208.008V210.824H500.812V211.832H502.204V217.32C502.204 218.392 502.652 219.192 503.82 219.192ZM510.806 219H511.926V207.448L510.806 207.992V219ZM519.266 219H520.306V213.464C520.306 211.144 518.754 210.632 517.586 210.632C516.466 210.632 515.378 211.112 514.722 211.528L515.042 212.488C515.65 212.072 516.658 211.608 517.474 211.608C518.386 211.608 519.266 211.96 519.266 213.608V214.296C518.466 213.864 517.746 213.72 517.058 213.72C515.506 213.72 514.082 214.536 514.082 216.424C514.082 218.264 515.218 219.192 516.866 219.192C517.746 219.192 518.61 218.792 519.266 218.2V219ZM516.978 218.216C515.794 218.216 515.122 217.496 515.122 216.424C515.122 215.24 516.066 214.696 517.17 214.696C517.874 214.696 518.738 215.016 519.266 215.368V216.952C518.77 217.56 517.97 218.216 516.978 218.216ZM525.931 219.192C527.979 219.192 529.211 217.672 529.211 214.904C529.211 212.216 527.883 210.632 525.835 210.632C525.035 210.632 524.187 211.048 523.659 211.624V207.448L522.539 208.008V219H523.659V218.264C524.187 218.712 524.779 219.192 525.931 219.192ZM525.755 218.184C524.939 218.184 524.107 217.672 523.659 216.904V212.888C523.963 212.36 524.747 211.64 525.755 211.64C527.275 211.64 528.043 212.808 528.043 214.904C528.043 216.92 527.291 218.184 525.755 218.184ZM534.147 219.192C536.243 219.192 537.651 217.592 537.651 214.904C537.651 212.184 536.243 210.632 534.147 210.632C532.051 210.632 530.643 212.232 530.643 214.92C530.643 217.64 532.051 219.192 534.147 219.192ZM534.147 218.184C532.627 218.184 531.811 216.952 531.811 214.92C531.811 212.792 532.627 211.64 534.147 211.64C535.667 211.64 536.483 212.872 536.483 214.904C536.483 216.952 535.635 218.184 534.147 218.184ZM539.649 219H540.769V214.376C540.769 212.36 541.937 211.752 542.753 211.752C543.281 211.752 543.601 211.928 543.809 212.056L543.985 210.968C543.761 210.808 543.345 210.632 542.833 210.632C541.825 210.632 541.137 211.192 540.769 211.976V210.824H539.649V219ZM548.414 219.192C549.358 219.192 550.27 218.792 550.91 218.264L550.302 217.512C549.678 217.976 549.054 218.152 548.462 218.152C547.07 218.152 546.238 217.032 546.046 215.368H551.614C551.646 215.016 551.646 214.76 551.646 214.584C551.646 211.832 550.158 210.632 548.414 210.632C546.318 210.632 544.862 212.184 544.862 214.904C544.862 217.208 546.206 219.192 548.414 219.192ZM546.014 214.36C546.11 212.504 547.102 211.64 548.414 211.64C549.278 211.64 550.494 212.152 550.51 214.36H546.014ZM559.931 219.192C560.875 219.192 561.787 218.792 562.427 218.264L561.819 217.512C561.195 217.976 560.571 218.152 559.979 218.152C558.587 218.152 557.755 217.032 557.563 215.368H563.131C563.163 215.016 563.163 214.76 563.163 214.584C563.163 211.832 561.675 210.632 559.931 210.632C557.835 210.632 556.379 212.184 556.379 214.904C556.379 217.208 557.723 219.192 559.931 219.192ZM557.531 214.36C557.627 212.504 558.619 211.64 559.931 211.64C560.795 211.64 562.011 212.152 562.027 214.36H557.531ZM566.979 219.192C567.603 219.192 568.051 219.048 568.467 218.824L568.595 217.656C568.291 217.864 567.907 218.136 567.363 218.136C566.579 218.136 566.483 217.544 566.483 216.84V211.832H568.563V210.824H566.483V207.448L565.363 208.008V210.824H563.971V211.832H565.363V217.32C565.363 218.392 565.811 219.192 566.979 219.192ZM576.701 219.192C577.725 219.192 578.381 218.792 578.877 218.296V219H579.997V207.448L578.877 208.008V211.4C578.381 211 577.709 210.632 576.701 210.632C574.621 210.632 573.325 212.216 573.325 214.904C573.325 217.512 574.605 219.192 576.701 219.192ZM576.829 218.184C575.389 218.184 574.493 216.728 574.493 214.904C574.493 212.808 575.325 211.64 576.829 211.64C577.869 211.64 578.541 212.28 578.877 212.824V216.904C578.429 217.72 577.645 218.184 576.829 218.184ZM585.493 219.192C587.589 219.192 588.997 217.592 588.997 214.904C588.997 212.184 587.589 210.632 585.493 210.632C583.397 210.632 581.989 212.232 581.989 214.92C581.989 217.64 583.397 219.192 585.493 219.192ZM585.493 218.184C583.973 218.184 583.157 216.952 583.157 214.92C583.157 212.792 583.973 211.64 585.493 211.64C587.013 211.64 587.829 212.872 587.829 214.904C587.829 216.952 586.981 218.184 585.493 218.184ZM591.075 219H592.195V207.448L591.075 207.992V219ZM597.775 219.192C599.871 219.192 601.279 217.592 601.279 214.904C601.279 212.184 599.871 210.632 597.775 210.632C595.679 210.632 594.271 212.232 594.271 214.92C594.271 217.64 595.679 219.192 597.775 219.192ZM597.775 218.184C596.255 218.184 595.439 216.952 595.439 214.92C595.439 212.792 596.255 211.64 597.775 211.64C599.295 211.64 600.111 212.872 600.111 214.904C600.111 216.952 599.263 218.184 597.775 218.184ZM603.277 219H604.397V214.376C604.397 212.36 605.565 211.752 606.381 211.752C606.909 211.752 607.229 211.928 607.437 212.056L607.613 210.968C607.389 210.808 606.973 210.632 606.461 210.632C605.453 210.632 604.765 211.192 604.397 211.976V210.824H603.277V219ZM612.043 219.192C612.987 219.192 613.899 218.792 614.539 218.264L613.931 217.512C613.307 217.976 612.683 218.152 612.091 218.152C610.699 218.152 609.867 217.032 609.675 215.368H615.243C615.275 215.016 615.275 214.76 615.275 214.584C615.275 211.832 613.787 210.632 612.043 210.632C609.947 210.632 608.491 212.184 608.491 214.904C608.491 217.208 609.835 219.192 612.043 219.192ZM609.643 214.36C609.739 212.504 610.731 211.64 612.043 211.64C612.907 211.64 614.123 212.152 614.139 214.36H609.643ZM630.135 219H631.255V213.56C631.255 211.768 630.039 210.632 628.455 210.632C627.399 210.632 626.567 211.192 626.119 211.88C625.655 211.096 624.775 210.632 623.911 210.632C623.015 210.632 622.231 210.984 621.687 211.624V210.824H620.567V219H621.687V213.864C621.687 212.6 622.311 211.64 623.575 211.64C625.111 211.64 625.351 212.968 625.351 213.992V219H626.471V213.992C626.471 212.728 627.127 211.64 628.359 211.64C629.895 211.64 630.135 212.968 630.135 213.992V219ZM638.435 219H639.475V213.464C639.475 211.144 637.923 210.632 636.755 210.632C635.635 210.632 634.547 211.112 633.891 211.528L634.211 212.488C634.819 212.072 635.827 211.608 636.643 211.608C637.555 211.608 638.435 211.96 638.435 213.608V214.296C637.635 213.864 636.915 213.72 636.227 213.72C634.675 213.72 633.251 214.536 633.251 216.424C633.251 218.264 634.387 219.192 636.035 219.192C636.915 219.192 637.779 218.792 638.435 218.2V219ZM636.147 218.216C634.963 218.216 634.291 217.496 634.291 216.424C634.291 215.24 635.235 214.696 636.339 214.696C637.043 214.696 637.907 215.016 638.435 215.368V216.952C637.939 217.56 637.139 218.216 636.147 218.216ZM644.012 222.408C646.012 222.328 647.852 221.56 647.852 218.872V210.824H646.732V211.592C646.46 211.272 645.804 210.632 644.556 210.632C642.556 210.632 641.148 212.216 641.148 214.904C641.148 217.752 642.732 219.192 644.492 219.192C645.612 219.192 646.268 218.76 646.732 218.072V219.32C646.732 220.44 646.156 221.384 643.5 221.528L644.012 222.408ZM644.748 218.184C643.356 218.184 642.316 217 642.316 214.904C642.316 212.808 643.132 211.64 644.748 211.64C645.34 211.64 646.268 212.072 646.732 212.888V216.824C646.284 217.672 645.42 218.184 644.748 218.184ZM655.459 219H656.579V214.472C656.579 211.768 655.651 210.632 653.651 210.632C652.787 210.632 652.051 210.984 651.539 211.72V210.824H650.419V219H651.539V213.976C651.539 212.2 652.403 211.64 653.555 211.64C654.643 211.64 655.459 212.28 655.459 214.008V219ZM663.757 219H664.797V213.464C664.797 211.144 663.245 210.632 662.077 210.632C660.957 210.632 659.869 211.112 659.213 211.528L659.533 212.488C660.141 212.072 661.149 211.608 661.965 211.608C662.877 211.608 663.757 211.96 663.757 213.608V214.296C662.957 213.864 662.237 213.72 661.549 213.72C659.997 213.72 658.573 214.536 658.573 216.424C658.573 218.264 659.709 219.192 661.357 219.192C662.237 219.192 663.101 218.792 663.757 218.2V219ZM661.469 218.216C660.285 218.216 659.613 217.496 659.613 216.424C659.613 215.24 660.557 214.696 661.661 214.696C662.365 214.696 663.229 215.016 663.757 215.368V216.952C663.261 217.56 662.461 218.216 661.469 218.216ZM675.101 219H676.141V213.464C676.141 211.144 674.589 210.632 673.421 210.632C672.301 210.632 671.213 211.112 670.557 211.528L670.877 212.488C671.485 212.072 672.493 211.608 673.309 211.608C674.221 211.608 675.101 211.96 675.101 213.608V214.296C674.301 213.864 673.581 213.72 672.893 213.72C671.341 213.72 669.917 214.536 669.917 216.424C669.917 218.264 671.053 219.192 672.701 219.192C673.581 219.192 674.445 218.792 675.101 218.2V219ZM672.813 218.216C671.629 218.216 670.957 217.496 670.957 216.424C670.957 215.24 671.901 214.696 673.005 214.696C673.709 214.696 674.573 215.016 675.101 215.368V216.952C674.605 217.56 673.805 218.216 672.813 218.216ZM678.454 219H679.574V207.448L678.454 207.992V219ZM682.786 209.144C683.218 209.144 683.522 208.824 683.522 208.408C683.522 207.976 683.218 207.64 682.786 207.64C682.37 207.64 682.05 207.976 682.05 208.408C682.05 208.824 682.37 209.144 682.786 209.144ZM682.226 219H683.346V210.824H682.226V219ZM688.769 219.192C689.777 219.192 690.401 218.776 690.945 218.168V222.2L692.065 221.688V210.824H690.945V211.56C690.401 211.128 689.729 210.632 688.657 210.632C686.577 210.632 685.361 212.344 685.361 214.92C685.361 217.64 686.689 219.192 688.769 219.192ZM688.817 218.184C687.329 218.184 686.529 217.032 686.529 214.92C686.529 213.096 687.377 211.64 688.817 211.64C689.633 211.64 690.449 212.024 690.945 212.904V216.888C690.513 217.416 689.857 218.184 688.817 218.184ZM699.593 219H700.713V210.824H699.593V215.848C699.593 217.624 698.713 218.184 697.561 218.184C696.473 218.184 695.673 217.528 695.673 215.816V210.824H694.553V215.384C694.553 218.072 695.449 219.192 697.561 219.192C698.409 219.192 699.017 218.968 699.593 218.216V219ZM707.97 219H709.01V213.464C709.01 211.144 707.458 210.632 706.29 210.632C705.17 210.632 704.082 211.112 703.426 211.528L703.746 212.488C704.354 212.072 705.362 211.608 706.178 211.608C707.09 211.608 707.97 211.96 707.97 213.608V214.296C707.17 213.864 706.45 213.72 705.762 213.72C704.21 213.72 702.786 214.536 702.786 216.424C702.786 218.264 703.922 219.192 705.57 219.192C706.45 219.192 707.314 218.792 707.97 218.2V219ZM705.682 218.216C704.498 218.216 703.826 217.496 703.826 216.424C703.826 215.24 704.77 214.696 705.874 214.696C706.578 214.696 707.442 215.016 707.97 215.368V216.952C707.474 217.56 706.674 218.216 705.682 218.216ZM711.61 219.224C712.186 219.224 712.618 218.728 712.618 218.216C712.618 217.704 712.186 217.208 711.61 217.208C711.034 217.208 710.602 217.704 710.602 218.216C710.602 218.728 711.034 219.224 711.61 219.224Z" fill="#212B36"/>
<path d="M429.38 124.724H434.84V122.4H421.484V124.724H426.944V142H429.38V124.724ZM437.528 142H439.964V133.292C439.964 130.52 441.392 129.596 443.268 129.596C445.032 129.596 446.348 130.632 446.348 133.348V142H448.784V133.768C448.784 129.148 446.908 127.356 443.66 127.356C442.12 127.356 440.86 127.944 439.964 129.176V121.784L437.528 122.904V142ZM453.418 125.088C454.286 125.088 454.958 124.416 454.958 123.576C454.958 122.708 454.286 122.008 453.418 122.008C452.578 122.008 451.906 122.708 451.906 123.576C451.906 124.416 452.578 125.088 453.418 125.088ZM452.214 142H454.65V127.692H452.214V142ZM462.403 142.336C465.511 142.336 467.499 140.852 467.499 138.276C467.499 135.56 465.455 134.44 462.851 133.516C461.255 132.872 459.827 132.34 459.827 131.136C459.827 130.128 460.751 129.54 462.207 129.54C463.747 129.54 464.755 130.268 465.371 130.912L467.051 129.512C466.015 128.28 464.419 127.356 462.235 127.356C459.491 127.356 457.419 128.784 457.419 131.136C457.419 133.488 459.211 134.636 461.843 135.616C463.523 136.26 465.119 136.904 465.119 138.332C465.119 139.592 463.971 140.152 462.459 140.152C460.919 140.152 459.687 139.228 458.959 138.444L457.223 139.928C458.343 141.356 460.303 142.336 462.403 142.336ZM476.882 125.088C477.75 125.088 478.422 124.416 478.422 123.576C478.422 122.708 477.75 122.008 476.882 122.008C476.042 122.008 475.37 122.708 475.37 123.576C475.37 124.416 476.042 125.088 476.882 125.088ZM475.678 142H478.114V127.692H475.678V142ZM485.867 142.336C488.975 142.336 490.963 140.852 490.963 138.276C490.963 135.56 488.919 134.44 486.315 133.516C484.719 132.872 483.291 132.34 483.291 131.136C483.291 130.128 484.215 129.54 485.671 129.54C487.211 129.54 488.219 130.268 488.835 130.912L490.515 129.512C489.479 128.28 487.883 127.356 485.699 127.356C482.955 127.356 480.883 128.784 480.883 131.136C480.883 133.488 482.675 134.636 485.307 135.616C486.987 136.26 488.583 136.904 488.583 138.332C488.583 139.592 487.435 140.152 485.923 140.152C484.383 140.152 483.151 139.228 482.423 138.444L480.687 139.928C481.807 141.356 483.767 142.336 485.867 142.336ZM507.318 142H509.614V132.508C509.614 128.112 506.758 127.356 504.518 127.356C502.362 127.356 500.486 128.112 499.338 128.868L500.038 130.912C501.102 130.156 502.614 129.484 504.21 129.484C506.058 129.484 507.318 130.184 507.318 132.704V133.712C506.142 133.04 504.882 132.788 503.622 132.788C500.85 132.788 498.274 134.216 498.274 137.52C498.274 140.712 500.346 142.336 503.258 142.336C504.966 142.336 506.366 141.58 507.318 140.684V142ZM503.622 140.18C501.662 140.18 500.57 139.116 500.57 137.52C500.57 135.7 502.11 134.888 503.958 134.888C505.134 134.888 506.45 135.308 507.318 135.84V138.304C506.506 139.256 505.218 140.18 503.622 140.18ZM521.552 142H523.988V133.768C523.988 129.148 522.112 127.356 518.864 127.356C517.324 127.356 516.064 127.916 515.168 129.148V127.692H512.732V142H515.168V133.292C515.168 130.52 516.596 129.596 518.472 129.596C520.236 129.596 521.552 130.632 521.552 133.348V142ZM544.506 142H546.998L540.054 122.4H537.786L530.842 142H533.39L535.042 137.212H542.826L544.506 142ZM542.07 135.056H535.77L538.318 127.804C538.514 127.244 538.794 126.32 538.934 125.816C539.046 126.32 539.354 127.244 539.55 127.804L542.07 135.056ZM549.622 142H552.058V133.936C552.058 130.688 553.878 129.764 555.25 129.764C556.23 129.764 556.846 130.072 557.294 130.38L557.658 128.084C557.154 127.664 556.37 127.356 555.446 127.356C553.85 127.356 552.702 128.14 552.058 129.568V127.692H549.622V142ZM563.659 142.336C564.779 142.336 565.647 142.084 566.403 141.692L566.683 139.312C566.067 139.704 565.367 140.068 564.555 140.068C563.295 140.068 563.071 139.2 563.071 138.108V129.82H566.599V127.692H563.071V121.784L560.635 122.96V127.692H558.311V129.82H560.635V138.92C560.635 140.936 561.503 142.336 563.659 142.336ZM570.38 125.088C571.248 125.088 571.92 124.416 571.92 123.576C571.92 122.708 571.248 122.008 570.38 122.008C569.54 122.008 568.868 122.708 568.868 123.576C568.868 124.416 569.54 125.088 570.38 125.088ZM569.176 142H571.612V127.692H569.176V142ZM580.233 142.336C582.865 142.336 584.769 141.02 585.469 138.668L583.201 137.912C582.781 139.256 581.717 140.04 580.289 140.04C577.993 140.04 576.789 138.108 576.789 134.86C576.789 131.64 577.937 129.624 580.373 129.624C581.773 129.624 582.641 130.436 583.061 131.528L585.357 130.688C584.545 128.448 582.725 127.356 580.345 127.356C576.593 127.356 574.297 130.156 574.297 134.86C574.297 139.592 576.593 142.336 580.233 142.336ZM588.157 142H590.593V121.784L588.157 122.932V142ZM599.741 142.336C601.673 142.336 603.297 141.552 604.361 140.488L602.877 138.836C601.981 139.732 600.889 140.124 599.797 140.124C597.641 140.124 596.073 138.416 595.877 135.784H605.565C605.621 135.224 605.649 134.608 605.649 134.16C605.649 129.456 602.961 127.356 599.741 127.356C595.933 127.356 593.385 130.1 593.385 134.832C593.385 139.2 595.821 142.336 599.741 142.336ZM595.849 133.712C595.989 130.772 597.669 129.512 599.741 129.512C601.253 129.512 603.157 130.464 603.185 133.712H595.849ZM617.506 142.336C618.626 142.336 619.494 142.084 620.25 141.692L620.53 139.312C619.914 139.704 619.214 140.068 618.402 140.068C617.142 140.068 616.918 139.2 616.918 138.108V129.82H620.446V127.692H616.918V121.784L614.482 122.96V127.692H612.158V129.82H614.482V138.92C614.482 140.936 615.35 142.336 617.506 142.336ZM624.226 125.088C625.094 125.088 625.766 124.416 625.766 123.576C625.766 122.708 625.094 122.008 624.226 122.008C623.386 122.008 622.714 122.708 622.714 123.576C622.714 124.416 623.386 125.088 624.226 125.088ZM623.022 142H625.458V127.692H623.022V142ZM632.848 142.336C633.968 142.336 634.836 142.084 635.592 141.692L635.872 139.312C635.256 139.704 634.556 140.068 633.744 140.068C632.484 140.068 632.26 139.2 632.26 138.108V129.82H635.788V127.692H632.26V121.784L629.824 122.96V127.692H627.5V129.82H629.824V138.92C629.824 140.936 630.692 142.336 632.848 142.336ZM638.476 142H640.912V121.784L638.476 122.932V142ZM650.06 142.336C651.992 142.336 653.616 141.552 654.68 140.488L653.196 138.836C652.3 139.732 651.208 140.124 650.116 140.124C647.96 140.124 646.392 138.416 646.196 135.784H655.884C655.94 135.224 655.968 134.608 655.968 134.16C655.968 129.456 653.28 127.356 650.06 127.356C646.252 127.356 643.704 130.1 643.704 134.832C643.704 139.2 646.14 142.336 650.06 142.336ZM646.168 133.712C646.308 130.772 647.988 129.512 650.06 129.512C651.572 129.512 653.476 130.464 653.504 133.712H646.168Z" fill="#212B36"/>
</svg>
