<svg width="762" height="351" viewBox="0 0 762 351" fill="none" xmlns="http://www.w3.org/2000/svg">
<rect opacity="0.2" x="1" y="1" width="378" height="349" rx="4" fill="#F5F5F5" stroke="#979797"/>
<path d="M355.359 17C348.818 17 343.564 22.1227 343.564 28.5C343.564 34.8773 348.818 40 355.359 40C361.9 40 367.154 34.8773 367.154 28.5C367.154 22.1227 361.9 17 355.359 17ZM362.168 24.8932L353.59 33.5705C353.483 33.675 353.375 33.7273 353.215 33.7273C353.054 33.7273 352.893 33.675 352.839 33.5705L348.657 29.1795L348.55 29.075C348.443 28.9705 348.389 28.8136 348.389 28.7091C348.389 28.6045 348.443 28.4477 348.55 28.3432L349.301 27.6114C349.515 27.4023 349.837 27.4023 350.051 27.6114L350.105 27.6636L353.054 30.7477C353.161 30.8523 353.322 30.8523 353.429 30.7477L360.613 23.4818H360.667C360.881 23.2727 361.203 23.2727 361.417 23.4818L362.168 24.2136C362.382 24.3705 362.382 24.6841 362.168 24.8932Z" fill="#2CC68F"/>
<path d="M1 5C1 2.79086 2.79086 1 5 1H375.462C377.671 1 379.462 2.79086 379.462 5H1Z" fill="#2CC68F"/>
<rect opacity="0.2" x="383" y="1" width="378" height="349" rx="4" fill="#F5F5F5" stroke="#979797"/>
<path d="M736.897 17C730.357 17 725.103 22.1227 725.103 28.5C725.103 34.8773 730.357 40 736.897 40C743.438 40 748.692 34.8773 748.692 28.5C748.692 22.1227 743.438 17 736.897 17ZM738.613 28.7091L742.634 32.6295C742.741 32.7341 742.795 32.8909 742.795 32.9955C742.795 33.1 742.741 33.2568 742.634 33.3614L741.883 34.0932C741.776 34.1977 741.615 34.25 741.508 34.25C741.347 34.25 741.24 34.1977 741.133 34.0932L737.112 30.1727C737.005 30.0682 736.844 30.0682 736.737 30.1727L732.716 34.0932C732.608 34.1977 732.448 34.25 732.34 34.25C732.179 34.25 732.072 34.1977 731.965 34.0932L731.214 33.3614C731.107 33.2568 731.054 33.1 731.054 32.9955C731.054 32.8909 731.107 32.7341 731.214 32.6295L735.235 28.7091C735.343 28.6045 735.343 28.4477 735.235 28.3432L731.214 24.4227C731.107 24.3182 731.054 24.1614 731.054 24.0568C731.054 23.9523 731.107 23.7955 731.214 23.6909L731.965 22.9591C732.072 22.8545 732.233 22.8023 732.34 22.8023C732.448 22.8023 732.608 22.8545 732.716 22.9591L736.737 26.8795C736.844 26.9841 737.005 26.9841 737.112 26.8795L741.133 22.9591C741.24 22.8545 741.401 22.8023 741.508 22.8023C741.669 22.8023 741.776 22.8545 741.883 22.9591L742.634 23.6909C742.741 23.7955 742.795 23.9523 742.795 24.0568C742.795 24.1614 742.741 24.3182 742.634 24.4227L738.613 28.3432C738.506 28.3955 738.506 28.6045 738.613 28.7091Z" fill="#FF6969"/>
<path d="M382.539 5C382.539 2.79086 384.329 1 386.539 1H757C759.209 1 761 2.79086 761 5H382.539Z" fill="#FF6969"/>
<g filter="url(#filter0_d)">
<rect x="126" y="156" width="128" height="40" rx="3" fill="white"/>
<rect x="126.5" y="156.5" width="127" height="39" rx="2.5" stroke="#DFE3E8" stroke-opacity="0.75"/>
</g>
<path d="M181.91 181.192C184.022 181.192 185.59 180.024 185.59 177.96C185.59 175.752 183.766 174.936 182.198 174.344C180.934 173.88 179.782 173.416 179.782 172.376C179.782 171.464 180.502 170.904 181.686 170.904C182.79 170.904 183.51 171.416 183.782 172.04L185.062 171.608C184.726 170.456 183.558 169.608 181.782 169.608C179.606 169.608 178.342 170.872 178.342 172.376C178.342 174.328 180.054 175.048 181.622 175.624C182.934 176.104 184.15 176.696 184.15 177.992C184.15 179.224 183.286 179.88 181.942 179.88C180.71 179.88 179.766 179.208 179.318 178.216L178.006 178.696C178.502 180.136 179.958 181.192 181.91 181.192ZM187.984 181H189.376V176.024C189.376 174.44 190.192 173.912 191.264 173.912C192.272 173.912 193.024 174.504 193.024 176.056V181H194.416V176.296C194.416 173.656 193.344 172.632 191.488 172.632C190.608 172.632 189.888 172.968 189.376 173.672V169.448L187.984 170.088V181ZM201.688 181H203V175.576C203 173.064 201.368 172.632 200.088 172.632C198.856 172.632 197.784 173.064 197.128 173.496L197.528 174.664C198.136 174.232 199 173.848 199.912 173.848C200.968 173.848 201.688 174.248 201.688 175.688V176.264C201.016 175.88 200.296 175.736 199.576 175.736C197.992 175.736 196.52 176.552 196.52 178.44C196.52 180.264 197.704 181.192 199.368 181.192C200.344 181.192 201.144 180.76 201.688 180.248V181ZM199.576 179.96C198.456 179.96 197.832 179.352 197.832 178.44C197.832 177.4 198.712 176.936 199.768 176.936C200.44 176.936 201.192 177.176 201.688 177.48V178.888C201.224 179.432 200.488 179.96 199.576 179.96ZM205.422 181H206.814V176.392C206.814 174.536 207.854 174.008 208.638 174.008C209.198 174.008 209.55 174.184 209.806 174.36L210.014 173.048C209.726 172.808 209.278 172.632 208.75 172.632C207.838 172.632 207.182 173.08 206.814 173.896V172.824H205.422V181ZM214.793 181.192C215.897 181.192 216.825 180.744 217.433 180.136L216.585 179.192C216.073 179.704 215.449 179.928 214.825 179.928C213.593 179.928 212.697 178.952 212.585 177.448H218.121C218.153 177.128 218.169 176.776 218.169 176.52C218.169 173.832 216.633 172.632 214.793 172.632C212.617 172.632 211.161 174.2 211.161 176.904C211.161 179.4 212.553 181.192 214.793 181.192ZM212.569 176.264C212.649 174.584 213.609 173.864 214.793 173.864C215.657 173.864 216.745 174.408 216.761 176.264H212.569Z" fill="#636971"/>
<path d="M160.534 172.887C152.75 172.887 151.654 178.962 152.078 182C153.769 177.934 158.42 177.098 160.534 177.188V180.105L167 175.023L160.534 170V172.887Z" stroke="#8FA4B5" stroke-width="1.3" stroke-linejoin="round"/>
<g filter="url(#filter1_d)">
<rect x="508" y="156" width="128" height="40" rx="3" fill="white"/>
<rect x="508.5" y="156.5" width="127" height="39" rx="2.5" stroke="#DFE3E8" stroke-opacity="0.75"/>
</g>
<path d="M563.91 181.192C566.022 181.192 567.59 180.024 567.59 177.96C567.59 175.752 565.766 174.936 564.198 174.344C562.934 173.88 561.782 173.416 561.782 172.376C561.782 171.464 562.502 170.904 563.686 170.904C564.79 170.904 565.51 171.416 565.782 172.04L567.062 171.608C566.726 170.456 565.558 169.608 563.782 169.608C561.606 169.608 560.342 170.872 560.342 172.376C560.342 174.328 562.054 175.048 563.622 175.624C564.934 176.104 566.15 176.696 566.15 177.992C566.15 179.224 565.286 179.88 563.942 179.88C562.71 179.88 561.766 179.208 561.318 178.216L560.006 178.696C560.502 180.136 561.958 181.192 563.91 181.192ZM569.984 181H571.376V176.024C571.376 174.44 572.192 173.912 573.264 173.912C574.272 173.912 575.024 174.504 575.024 176.056V181H576.416V176.296C576.416 173.656 575.344 172.632 573.488 172.632C572.608 172.632 571.888 172.968 571.376 173.672V169.448L569.984 170.088V181ZM583.688 181H585V175.576C585 173.064 583.368 172.632 582.088 172.632C580.856 172.632 579.784 173.064 579.128 173.496L579.528 174.664C580.136 174.232 581 173.848 581.912 173.848C582.968 173.848 583.688 174.248 583.688 175.688V176.264C583.016 175.88 582.296 175.736 581.576 175.736C579.992 175.736 578.52 176.552 578.52 178.44C578.52 180.264 579.704 181.192 581.368 181.192C582.344 181.192 583.144 180.76 583.688 180.248V181ZM581.576 179.96C580.456 179.96 579.832 179.352 579.832 178.44C579.832 177.4 580.712 176.936 581.768 176.936C582.44 176.936 583.192 177.176 583.688 177.48V178.888C583.224 179.432 582.488 179.96 581.576 179.96ZM587.422 181H588.814V176.392C588.814 174.536 589.854 174.008 590.638 174.008C591.198 174.008 591.55 174.184 591.806 174.36L592.014 173.048C591.726 172.808 591.278 172.632 590.75 172.632C589.838 172.632 589.182 173.08 588.814 173.896V172.824H587.422V181ZM596.793 181.192C597.897 181.192 598.825 180.744 599.433 180.136L598.585 179.192C598.073 179.704 597.449 179.928 596.825 179.928C595.593 179.928 594.697 178.952 594.585 177.448H600.121C600.153 177.128 600.169 176.776 600.169 176.52C600.169 173.832 598.633 172.632 596.793 172.632C594.617 172.632 593.161 174.2 593.161 176.904C593.161 179.4 594.553 181.192 596.793 181.192ZM594.569 176.264C594.649 174.584 595.609 173.864 596.793 173.864C597.657 173.864 598.745 174.408 598.761 176.264H594.569Z" fill="#636971"/>
<path d="M542.534 172.887C534.75 172.887 533.654 178.962 534.078 182C535.769 177.934 540.42 177.098 542.534 177.188V180.105L549 175.023L542.534 170V172.887Z" stroke="#2CC68F" stroke-width="1.3" stroke-linejoin="round"/>
<defs>
<filter id="filter0_d" x="123" y="154" width="134" height="46" filterUnits="userSpaceOnUse" color-interpolation-filters="sRGB">
<feFlood flood-opacity="0" result="BackgroundImageFix"/>
<feColorMatrix in="SourceAlpha" type="matrix" values="0 0 0 0 0 0 0 0 0 0 0 0 0 0 0 0 0 0 127 0"/>
<feOffset dy="1"/>
<feGaussianBlur stdDeviation="1.5"/>
<feColorMatrix type="matrix" values="0 0 0 0 0 0 0 0 0 0 0 0 0 0 0 0 0 0 0.1 0"/>
<feBlend mode="normal" in2="BackgroundImageFix" result="effect1_dropShadow"/>
<feBlend mode="normal" in="SourceGraphic" in2="effect1_dropShadow" result="shape"/>
</filter>
<filter id="filter1_d" x="505" y="154" width="134" height="46" filterUnits="userSpaceOnUse" color-interpolation-filters="sRGB">
<feFlood flood-opacity="0" result="BackgroundImageFix"/>
<feColorMatrix in="SourceAlpha" type="matrix" values="0 0 0 0 0 0 0 0 0 0 0 0 0 0 0 0 0 0 127 0"/>
<feOffset dy="1"/>
<feGaussianBlur stdDeviation="1.5"/>
<feColorMatrix type="matrix" values="0 0 0 0 0 0 0 0 0 0 0 0 0 0 0 0 0 0 0.1 0"/>
<feBlend mode="normal" in2="BackgroundImageFix" result="effect1_dropShadow"/>
<feBlend mode="normal" in="SourceGraphic" in2="effect1_dropShadow" result="shape"/>
</filter>
</defs>
</svg>
