<svg width="762" height="351" viewBox="0 0 762 351" fill="none" xmlns="http://www.w3.org/2000/svg">
<rect opacity="0.2" x="1" y="1" width="378" height="349" rx="4" fill="#F5F5F5" stroke="#979797"/>
<path d="M355.359 17C348.818 17 343.564 22.1227 343.564 28.5C343.564 34.8773 348.818 40 355.359 40C361.9 40 367.154 34.8773 367.154 28.5C367.154 22.1227 361.9 17 355.359 17ZM362.168 24.8932L353.59 33.5705C353.483 33.675 353.375 33.7273 353.215 33.7273C353.054 33.7273 352.893 33.675 352.839 33.5705L348.657 29.1795L348.55 29.075C348.443 28.9705 348.389 28.8136 348.389 28.7091C348.389 28.6045 348.443 28.4477 348.55 28.3432L349.301 27.6114C349.515 27.4023 349.837 27.4023 350.051 27.6114L350.105 27.6636L353.054 30.7477C353.161 30.8523 353.322 30.8523 353.429 30.7477L360.613 23.4818H360.667C360.881 23.2727 361.203 23.2727 361.417 23.4818L362.168 24.2136C362.382 24.3705 362.382 24.6841 362.168 24.8932Z" fill="#2CC68F"/>
<path d="M1 5C1 2.79086 2.79086 1 5 1H375.462C377.671 1 379.462 2.79086 379.462 5H1Z" fill="#2CC68F"/>
<rect opacity="0.2" x="383" y="1" width="378" height="349" rx="4" fill="#F5F5F5" stroke="#979797"/>
<path d="M736.897 17C730.357 17 725.103 22.1227 725.103 28.5C725.103 34.8773 730.357 40 736.897 40C743.438 40 748.692 34.8773 748.692 28.5C748.692 22.1227 743.438 17 736.897 17ZM738.613 28.7091L742.634 32.6295C742.741 32.7341 742.795 32.8909 742.795 32.9955C742.795 33.1 742.741 33.2568 742.634 33.3614L741.883 34.0932C741.776 34.1977 741.615 34.25 741.508 34.25C741.347 34.25 741.24 34.1977 741.133 34.0932L737.112 30.1727C737.005 30.0682 736.844 30.0682 736.737 30.1727L732.716 34.0932C732.608 34.1977 732.448 34.25 732.34 34.25C732.179 34.25 732.072 34.1977 731.965 34.0932L731.214 33.3614C731.107 33.2568 731.054 33.1 731.054 32.9955C731.054 32.8909 731.107 32.7341 731.214 32.6295L735.235 28.7091C735.343 28.6045 735.343 28.4477 735.235 28.3432L731.214 24.4227C731.107 24.3182 731.054 24.1614 731.054 24.0568C731.054 23.9523 731.107 23.7955 731.214 23.6909L731.965 22.9591C732.072 22.8545 732.233 22.8023 732.34 22.8023C732.448 22.8023 732.608 22.8545 732.716 22.9591L736.737 26.8795C736.844 26.9841 737.005 26.9841 737.112 26.8795L741.133 22.9591C741.24 22.8545 741.401 22.8023 741.508 22.8023C741.669 22.8023 741.776 22.8545 741.883 22.9591L742.634 23.6909C742.741 23.7955 742.795 23.9523 742.795 24.0568C742.795 24.1614 742.741 24.3182 742.634 24.4227L738.613 28.3432C738.506 28.3955 738.506 28.6045 738.613 28.7091Z" fill="#FF6969"/>
<path d="M382.539 5C382.539 2.79086 384.329 1 386.539 1H757C759.209 1 761 2.79086 761 5H382.539Z" fill="#FF6969"/>
<g filter="url(#filter0_d)">
<rect x="126" y="156" width="128" height="40" rx="4" fill="url(#paint0_linear)"/>
</g>
<path d="M186.311 181H187.543L191.367 169.8H189.879L187.287 177.896C187.191 178.216 187.063 178.616 186.967 179.032C186.855 178.616 186.727 178.216 186.631 177.896L183.959 169.8H182.471L186.311 181ZM195.402 181.192C197.594 181.192 199.017 179.592 199.017 176.904C199.017 174.2 197.594 172.632 195.402 172.632C193.21 172.632 191.786 174.232 191.786 176.92C191.786 179.624 193.21 181.192 195.402 181.192ZM195.402 179.896C194.01 179.896 193.194 178.776 193.194 176.92C193.194 175.016 194.01 173.912 195.402 173.912C196.794 173.912 197.61 175.048 197.61 176.904C197.61 178.776 196.778 179.896 195.402 179.896ZM203.395 181.192C204.035 181.192 204.531 181.048 204.963 180.824L205.123 179.464C204.771 179.688 204.371 179.896 203.907 179.896C203.187 179.896 203.059 179.4 203.059 178.776V174.04H205.075V172.824H203.059V169.448L201.667 170.12V172.824H200.339V174.04H201.667V179.24C201.667 180.392 202.163 181.192 203.395 181.192ZM210.168 181.192C211.272 181.192 212.2 180.744 212.808 180.136L211.96 179.192C211.448 179.704 210.824 179.928 210.2 179.928C208.968 179.928 208.072 178.952 207.96 177.448H213.496C213.528 177.128 213.544 176.776 213.544 176.52C213.544 173.832 212.008 172.632 210.168 172.632C207.992 172.632 206.536 174.2 206.536 176.904C206.536 179.4 207.928 181.192 210.168 181.192ZM207.944 176.264C208.024 174.584 208.984 173.864 210.168 173.864C211.032 173.864 212.12 174.408 212.136 176.264H207.944Z" fill="white"/>
<path fill-rule="evenodd" clip-rule="evenodd" d="M160.023 166.178C160.273 165.941 160.671 165.941 160.921 166.178L161.634 166.853C161.634 166.853 161.634 166.853 161.634 166.853C161.936 167.139 162.128 167.538 162.128 167.984C162.128 168.104 162.112 168.216 162.092 168.312C162.092 168.313 162.091 168.315 162.091 168.317L161.664 170.245H165.513C166.342 170.245 167.056 170.89 167.056 171.727V172.788C167.056 173.047 167 173.279 166.917 173.484C166.913 173.492 166.91 173.5 166.907 173.508L164.876 177.996C164.57 178.69 163.854 179.152 163.046 179.152H156.992C155.912 179.152 155 178.32 155 177.245V171.727C155 171.191 155.233 170.712 155.592 170.372C155.592 170.372 155.592 170.372 155.592 170.372L160.023 166.178ZM156.491 171.283L156.041 170.827L156.491 171.283C156.366 171.402 156.293 171.559 156.293 171.727V177.245C156.293 177.579 156.583 177.885 156.992 177.885H163.046C163.349 177.885 163.593 177.712 163.69 177.491C163.691 177.489 163.692 177.487 163.693 177.485L165.718 173.008C165.749 172.929 165.763 172.858 165.763 172.788V171.727C165.763 171.631 165.67 171.512 165.513 171.512H160.862C160.667 171.512 160.482 171.425 160.359 171.276C160.236 171.127 160.189 170.931 160.23 170.744L160.826 168.052C160.832 168.021 160.834 167.998 160.834 167.984C160.834 167.903 160.801 167.827 160.736 167.764L160.736 167.764L160.472 167.515L156.491 171.283Z" fill="white"/>
<path fill-rule="evenodd" clip-rule="evenodd" d="M167.977 185.822C167.727 186.059 167.329 186.059 167.079 185.822L166.366 185.147C166.366 185.147 166.366 185.147 166.366 185.147C166.064 184.861 165.872 184.462 165.872 184.016C165.872 183.896 165.888 183.784 165.908 183.688C165.908 183.687 165.909 183.685 165.909 183.683L166.336 181.755L162.487 181.755C161.658 181.755 160.944 181.11 160.944 180.273L160.944 179.212C160.944 178.953 161 178.721 161.083 178.516L162.286 178.982C162.252 179.065 162.237 179.139 162.237 179.212L162.237 180.273C162.237 180.369 162.33 180.488 162.487 180.488L167.138 180.488C167.333 180.488 167.518 180.575 167.641 180.724C167.764 180.873 167.811 181.069 167.77 181.256L167.174 183.948C167.168 183.979 167.166 184.002 167.166 184.016C167.166 184.097 167.199 184.173 167.264 184.236L167.264 184.236L167.528 184.485L171.509 180.717L171.959 181.173L171.509 180.717C171.634 180.598 171.707 180.441 171.707 180.273L171.707 174.755C171.707 174.421 171.417 174.115 171.008 174.115L166.519 174.115L166.519 172.848L171.008 172.848C172.088 172.848 173 173.68 173 174.755L173 180.273C173 180.809 172.767 181.288 172.408 181.628C172.408 181.628 172.408 181.628 172.408 181.628L167.977 185.822Z" fill="white"/>
<g filter="url(#filter1_d)">
<rect x="508" y="156" width="128" height="40" rx="4" fill="url(#paint1_linear)"/>
</g>
<path d="M571.311 181H572.543L576.367 169.8H574.879L572.287 177.896C572.191 178.216 572.063 178.616 571.967 179.032C571.855 178.616 571.727 178.216 571.631 177.896L568.959 169.8H567.471L571.311 181ZM580.402 181.192C582.594 181.192 584.017 179.592 584.017 176.904C584.017 174.2 582.594 172.632 580.402 172.632C578.21 172.632 576.786 174.232 576.786 176.92C576.786 179.624 578.21 181.192 580.402 181.192ZM580.402 179.896C579.01 179.896 578.194 178.776 578.194 176.92C578.194 175.016 579.01 173.912 580.402 173.912C581.794 173.912 582.61 175.048 582.61 176.904C582.61 178.776 581.778 179.896 580.402 179.896ZM588.395 181.192C589.035 181.192 589.531 181.048 589.963 180.824L590.123 179.464C589.771 179.688 589.371 179.896 588.907 179.896C588.187 179.896 588.059 179.4 588.059 178.776V174.04H590.075V172.824H588.059V169.448L586.667 170.12V172.824H585.339V174.04H586.667V179.24C586.667 180.392 587.163 181.192 588.395 181.192ZM595.168 181.192C596.272 181.192 597.2 180.744 597.808 180.136L596.96 179.192C596.448 179.704 595.824 179.928 595.2 179.928C593.968 179.928 593.072 178.952 592.96 177.448H598.496C598.528 177.128 598.544 176.776 598.544 176.52C598.544 173.832 597.008 172.632 595.168 172.632C592.992 172.632 591.536 174.2 591.536 176.904C591.536 179.4 592.928 181.192 595.168 181.192ZM592.944 176.264C593.024 174.584 593.984 173.864 595.168 173.864C596.032 173.864 597.12 174.408 597.136 176.264H592.944Z" fill="white"/>
<path fill-rule="evenodd" clip-rule="evenodd" d="M538.255 161.813C538.617 161.47 539.191 161.47 539.553 161.813L540.583 162.788C540.583 162.788 540.583 162.788 540.583 162.788C541.019 163.201 541.296 163.777 541.296 164.421C541.296 164.595 541.273 164.757 541.244 164.895C541.243 164.897 541.243 164.9 541.242 164.903L540.626 167.687H546.185C547.383 167.687 548.415 168.619 548.415 169.828V171.361C548.415 171.734 548.333 172.07 548.213 172.366C548.208 172.378 548.203 172.389 548.198 172.4L545.266 178.883C544.823 179.885 543.789 180.554 542.622 180.554H533.877C532.317 180.554 531 179.352 531 177.799V169.828C531 169.054 531.336 168.361 531.855 167.87C531.855 167.87 531.855 167.87 531.855 167.87L538.255 161.813ZM533.153 169.187L532.504 168.529L533.153 169.187C532.973 169.358 532.868 169.585 532.868 169.828V177.799C532.868 178.281 533.287 178.723 533.877 178.723H542.622C543.06 178.723 543.411 178.474 543.552 178.154C543.554 178.151 543.555 178.148 543.556 178.145L546.482 171.678C546.526 171.564 546.546 171.462 546.546 171.361V169.828C546.546 169.689 546.412 169.518 546.185 169.518H539.468C539.185 169.518 538.918 169.392 538.74 169.177C538.563 168.961 538.495 168.679 538.555 168.408L539.415 164.52C539.424 164.475 539.427 164.442 539.427 164.421C539.427 164.304 539.38 164.194 539.285 164.104L539.285 164.104L538.904 163.744L533.153 169.187Z" fill="white"/>
<path fill-rule="evenodd" clip-rule="evenodd" d="M549.745 190.187C549.383 190.53 548.809 190.53 548.447 190.187L547.417 189.212C547.417 189.212 547.417 189.212 547.417 189.212C546.981 188.799 546.704 188.223 546.704 187.579C546.704 187.405 546.727 187.243 546.756 187.105C546.757 187.103 546.757 187.1 546.758 187.097L547.374 184.313L541.815 184.313C540.617 184.313 539.585 183.381 539.585 182.172L539.585 180.639C539.585 180.266 539.667 179.93 539.787 179.634L541.524 180.307C541.476 180.428 541.454 180.534 541.454 180.639L541.454 182.172C541.454 182.311 541.588 182.482 541.815 182.482L548.532 182.482C548.815 182.482 549.082 182.608 549.26 182.823C549.437 183.039 549.505 183.321 549.445 183.592L548.585 187.48C548.576 187.525 548.573 187.558 548.573 187.579C548.573 187.696 548.62 187.806 548.715 187.896L548.715 187.896L549.096 188.256L554.847 182.813L555.496 183.471L554.847 182.813C555.027 182.642 555.132 182.415 555.132 182.172L555.132 174.201C555.132 173.719 554.713 173.277 554.123 173.277L547.638 173.277L547.638 171.446L554.123 171.446C555.683 171.446 557 172.648 557 174.201L557 182.172C557 182.946 556.664 183.639 556.145 184.13C556.145 184.13 556.145 184.13 556.145 184.13L549.745 190.187Z" fill="white"/>
<defs>
<filter id="filter0_d" x="123" y="154" width="134" height="46" filterUnits="userSpaceOnUse" color-interpolation-filters="sRGB">
<feFlood flood-opacity="0" result="BackgroundImageFix"/>
<feColorMatrix in="SourceAlpha" type="matrix" values="0 0 0 0 0 0 0 0 0 0 0 0 0 0 0 0 0 0 127 0"/>
<feOffset dy="1"/>
<feGaussianBlur stdDeviation="1.5"/>
<feColorMatrix type="matrix" values="0 0 0 0 0 0 0 0 0 0 0 0 0 0 0 0 0 0 0.25 0"/>
<feBlend mode="normal" in2="BackgroundImageFix" result="effect1_dropShadow"/>
<feBlend mode="normal" in="SourceGraphic" in2="effect1_dropShadow" result="shape"/>
</filter>
<filter id="filter1_d" x="505" y="154" width="134" height="46" filterUnits="userSpaceOnUse" color-interpolation-filters="sRGB">
<feFlood flood-opacity="0" result="BackgroundImageFix"/>
<feColorMatrix in="SourceAlpha" type="matrix" values="0 0 0 0 0 0 0 0 0 0 0 0 0 0 0 0 0 0 127 0"/>
<feOffset dy="1"/>
<feGaussianBlur stdDeviation="1.5"/>
<feColorMatrix type="matrix" values="0 0 0 0 0 0 0 0 0 0 0 0 0 0 0 0 0 0 0.25 0"/>
<feBlend mode="normal" in2="BackgroundImageFix" result="effect1_dropShadow"/>
<feBlend mode="normal" in="SourceGraphic" in2="effect1_dropShadow" result="shape"/>
</filter>
<linearGradient id="paint0_linear" x1="254" y1="156" x2="123.598" y2="166.682" gradientUnits="userSpaceOnUse">
<stop stop-color="#3FE8E0"/>
<stop offset="1" stop-color="#08BEE5"/>
</linearGradient>
<linearGradient id="paint1_linear" x1="636" y1="156" x2="505.598" y2="166.682" gradientUnits="userSpaceOnUse">
<stop stop-color="#3FE8E0"/>
<stop offset="1" stop-color="#08BEE5"/>
</linearGradient>
</defs>
</svg>
