<svg width="762" height="351" viewBox="0 0 762 351" fill="none" xmlns="http://www.w3.org/2000/svg">
<rect opacity="0.2" x="1" y="1" width="378" height="349" rx="4" fill="#F5F5F5" stroke="#979797"/>
<path d="M355.359 17C348.818 17 343.564 22.1227 343.564 28.5C343.564 34.8773 348.818 40 355.359 40C361.9 40 367.154 34.8773 367.154 28.5C367.154 22.1227 361.9 17 355.359 17ZM362.168 24.8932L353.59 33.5705C353.482 33.675 353.375 33.7273 353.214 33.7273C353.053 33.7273 352.893 33.675 352.839 33.5705L348.657 29.1795L348.55 29.075C348.443 28.9705 348.389 28.8136 348.389 28.7091C348.389 28.6045 348.443 28.4477 348.55 28.3432L349.301 27.6114C349.515 27.4023 349.837 27.4023 350.051 27.6114L350.105 27.6636L353.053 30.7477C353.161 30.8523 353.322 30.8523 353.429 30.7477L360.613 23.4818H360.667C360.881 23.2727 361.203 23.2727 361.417 23.4818L362.168 24.2136C362.382 24.3705 362.382 24.6841 362.168 24.8932Z" fill="#2CC68F"/>
<path d="M1 5C1 2.79086 2.79086 1 5 1H375.462C377.671 1 379.462 2.79086 379.462 5H1Z" fill="#2CC68F"/>
<rect opacity="0.2" x="383" y="1" width="378" height="349" rx="4" fill="#F5F5F5" stroke="#979797"/>
<path d="M736.897 17C730.357 17 725.103 22.1227 725.103 28.5C725.103 34.8773 730.357 40 736.897 40C743.438 40 748.692 34.8773 748.692 28.5C748.692 22.1227 743.438 17 736.897 17ZM738.613 28.7091L742.634 32.6295C742.741 32.7341 742.795 32.8909 742.795 32.9955C742.795 33.1 742.741 33.2568 742.634 33.3614L741.883 34.0932C741.776 34.1977 741.615 34.25 741.508 34.25C741.347 34.25 741.24 34.1977 741.133 34.0932L737.112 30.1727C737.005 30.0682 736.844 30.0682 736.737 30.1727L732.716 34.0932C732.608 34.1977 732.448 34.25 732.34 34.25C732.179 34.25 732.072 34.1977 731.965 34.0932L731.214 33.3614C731.107 33.2568 731.054 33.1 731.054 32.9955C731.054 32.8909 731.107 32.7341 731.214 32.6295L735.235 28.7091C735.343 28.6045 735.343 28.4477 735.235 28.3432L731.214 24.4227C731.107 24.3182 731.054 24.1614 731.054 24.0568C731.054 23.9523 731.107 23.7955 731.214 23.6909L731.965 22.9591C732.072 22.8545 732.233 22.8023 732.34 22.8023C732.448 22.8023 732.608 22.8545 732.716 22.9591L736.737 26.8795C736.844 26.9841 737.005 26.9841 737.112 26.8795L741.133 22.9591C741.24 22.8545 741.401 22.8023 741.508 22.8023C741.669 22.8023 741.776 22.8545 741.883 22.9591L742.634 23.6909C742.741 23.7955 742.795 23.9523 742.795 24.0568C742.795 24.1614 742.741 24.3182 742.634 24.4227L738.613 28.3432C738.506 28.3955 738.506 28.6045 738.613 28.7091Z" fill="#FF6969"/>
<path d="M382.539 5C382.539 2.79086 384.329 1 386.539 1H757C759.209 1 761 2.79086 761 5H382.539Z" fill="#FF6969"/>
<path d="M38.68 178H45.352V176.928H39.8V166.8H38.68V178ZM50.2903 178.192C52.3863 178.192 53.7943 176.592 53.7943 173.904C53.7943 171.184 52.3863 169.632 50.2903 169.632C48.1943 169.632 46.7863 171.232 46.7863 173.92C46.7863 176.64 48.1943 178.192 50.2903 178.192ZM50.2903 177.184C48.7703 177.184 47.9543 175.952 47.9543 173.92C47.9543 171.792 48.7703 170.64 50.2903 170.64C51.8103 170.64 52.6263 171.872 52.6263 173.904C52.6263 175.952 51.7783 177.184 50.2903 177.184ZM56.1119 178H57.2319V173.376C57.2319 171.36 58.3999 170.752 59.2159 170.752C59.7439 170.752 60.0639 170.928 60.2719 171.056L60.4479 169.968C60.2239 169.808 59.8079 169.632 59.2959 169.632C58.2879 169.632 57.5999 170.192 57.2319 170.976V169.824H56.1119V178ZM65.1976 178.192C66.1416 178.192 67.0536 177.792 67.6936 177.264L67.0856 176.512C66.4616 176.976 65.8376 177.152 65.2456 177.152C63.8536 177.152 63.0216 176.032 62.8296 174.368H68.3976C68.4296 174.016 68.4296 173.76 68.4296 173.584C68.4296 170.832 66.9416 169.632 65.1976 169.632C63.1016 169.632 61.6456 171.184 61.6456 173.904C61.6456 176.208 62.9896 178.192 65.1976 178.192ZM62.7976 173.36C62.8936 171.504 63.8856 170.64 65.1976 170.64C66.0616 170.64 67.2776 171.152 67.2936 173.36H62.7976ZM80.2424 178H81.3624V172.56C81.3624 170.768 80.1464 169.632 78.5624 169.632C77.5064 169.632 76.6744 170.192 76.2264 170.88C75.7624 170.096 74.8824 169.632 74.0184 169.632C73.1224 169.632 72.3384 169.984 71.7944 170.624V169.824H70.6744V178H71.7944V172.864C71.7944 171.6 72.4184 170.64 73.6824 170.64C75.2184 170.64 75.4584 171.968 75.4584 172.992V178H76.5784V172.992C76.5784 171.728 77.2344 170.64 78.4664 170.64C80.0024 170.64 80.2424 171.968 80.2424 172.992V178ZM88.4223 168.144C88.8543 168.144 89.1583 167.824 89.1583 167.408C89.1583 166.976 88.8543 166.64 88.4223 166.64C88.0063 166.64 87.6863 166.976 87.6863 167.408C87.6863 167.824 88.0063 168.144 88.4223 168.144ZM87.8623 178H88.9823V169.824H87.8623V178ZM95.2375 178.192C97.2055 178.192 98.6135 176.64 98.6135 173.904C98.6135 171.328 97.3335 169.632 95.2375 169.632C94.1335 169.632 93.5255 170.08 92.9975 170.56V169.824H91.8775V181.248L92.9975 180.688V177.168C93.4615 177.712 94.0855 178.192 95.2375 178.192ZM95.1095 177.184C94.2295 177.184 93.5575 176.64 92.9975 175.92V171.904C93.4455 171.104 94.2295 170.64 95.1095 170.64C96.5655 170.64 97.4455 171.92 97.4455 173.904C97.4455 176.016 96.5975 177.184 95.1095 177.184ZM103.244 178.192C104.94 178.192 105.996 177.312 105.996 175.952C105.996 174.304 104.604 173.744 103.388 173.264C102.428 172.88 101.516 172.528 101.516 171.696C101.516 171.04 102.124 170.624 103.068 170.624C103.964 170.624 104.604 171.088 105.02 171.504L105.756 170.88C105.1 170.096 104.204 169.632 103.1 169.632C101.564 169.632 100.46 170.464 100.46 171.712C100.46 173.088 101.612 173.664 102.908 174.192C103.9 174.592 104.94 175.024 104.94 176.016C104.94 176.784 104.236 177.2 103.34 177.2C102.492 177.2 101.708 176.672 101.212 176.08L100.428 176.768C101.116 177.584 102.14 178.192 103.244 178.192ZM113.306 178H114.426V169.824H113.306V174.848C113.306 176.624 112.426 177.184 111.274 177.184C110.186 177.184 109.386 176.528 109.386 174.816V169.824H108.266V174.384C108.266 177.072 109.162 178.192 111.274 178.192C112.122 178.192 112.73 177.968 113.306 177.216V178ZM126.867 178H127.987V172.56C127.987 170.768 126.771 169.632 125.187 169.632C124.131 169.632 123.299 170.192 122.851 170.88C122.387 170.096 121.507 169.632 120.643 169.632C119.747 169.632 118.963 169.984 118.419 170.624V169.824H117.299V178H118.419V172.864C118.419 171.6 119.043 170.64 120.307 170.64C121.843 170.64 122.083 171.968 122.083 172.992V178H123.203V172.992C123.203 171.728 123.859 170.64 125.091 170.64C126.627 170.64 126.867 171.968 126.867 172.992V178ZM137.287 178.192C138.311 178.192 138.967 177.792 139.463 177.296V178H140.583V166.448L139.463 167.008V170.4C138.967 170 138.295 169.632 137.287 169.632C135.207 169.632 133.911 171.216 133.911 173.904C133.911 176.512 135.191 178.192 137.287 178.192ZM137.415 177.184C135.975 177.184 135.079 175.728 135.079 173.904C135.079 171.808 135.911 170.64 137.415 170.64C138.455 170.64 139.127 171.28 139.463 171.824V175.904C139.015 176.72 138.231 177.184 137.415 177.184ZM146.4 178.192C148.496 178.192 149.904 176.592 149.904 173.904C149.904 171.184 148.496 169.632 146.4 169.632C144.304 169.632 142.896 171.232 142.896 173.92C142.896 176.64 144.304 178.192 146.4 178.192ZM146.4 177.184C144.88 177.184 144.064 175.952 144.064 173.92C144.064 171.792 144.88 170.64 146.4 170.64C147.92 170.64 148.736 171.872 148.736 173.904C148.736 175.952 147.888 177.184 146.4 177.184ZM152.301 178H153.421V166.448L152.301 166.992V178ZM159.322 178.192C161.418 178.192 162.826 176.592 162.826 173.904C162.826 171.184 161.418 169.632 159.322 169.632C157.226 169.632 155.818 171.232 155.818 173.92C155.818 176.64 157.226 178.192 159.322 178.192ZM159.322 177.184C157.802 177.184 156.986 175.952 156.986 173.92C156.986 171.792 157.802 170.64 159.322 170.64C160.842 170.64 161.658 171.872 161.658 173.904C161.658 175.952 160.81 177.184 159.322 177.184ZM165.143 178H166.263V173.376C166.263 171.36 167.431 170.752 168.247 170.752C168.775 170.752 169.095 170.928 169.303 171.056L169.479 169.968C169.255 169.808 168.839 169.632 168.327 169.632C167.319 169.632 166.631 170.192 166.263 170.976V169.824H165.143V178ZM177.228 178.192C178.924 178.192 179.98 177.312 179.98 175.952C179.98 174.304 178.588 173.744 177.372 173.264C176.412 172.88 175.5 172.528 175.5 171.696C175.5 171.04 176.108 170.624 177.052 170.624C177.948 170.624 178.588 171.088 179.004 171.504L179.74 170.88C179.084 170.096 178.188 169.632 177.084 169.632C175.548 169.632 174.444 170.464 174.444 171.712C174.444 173.088 175.596 173.664 176.892 174.192C177.884 174.592 178.924 175.024 178.924 176.016C178.924 176.784 178.22 177.2 177.324 177.2C176.476 177.2 175.692 176.672 175.196 176.08L174.412 176.768C175.1 177.584 176.124 178.192 177.228 178.192ZM182.907 168.144C183.339 168.144 183.643 167.824 183.643 167.408C183.643 166.976 183.339 166.64 182.907 166.64C182.491 166.64 182.171 166.976 182.171 167.408C182.171 167.824 182.491 168.144 182.907 168.144ZM182.347 178H183.467V169.824H182.347V178ZM188.41 178.192C189.034 178.192 189.482 178.048 189.898 177.824L190.026 176.656C189.722 176.864 189.338 177.136 188.794 177.136C188.01 177.136 187.914 176.544 187.914 175.84V170.832H189.994V169.824H187.914V166.448L186.794 167.008V169.824H185.402V170.832H186.794V176.32C186.794 177.392 187.242 178.192 188.41 178.192ZM200.66 178H201.7V172.464C201.7 170.144 200.148 169.632 198.98 169.632C197.86 169.632 196.772 170.112 196.116 170.528L196.436 171.488C197.044 171.072 198.052 170.608 198.868 170.608C199.78 170.608 200.66 170.96 200.66 172.608V173.296C199.86 172.864 199.14 172.72 198.452 172.72C196.9 172.72 195.476 173.536 195.476 175.424C195.476 177.264 196.612 178.192 198.26 178.192C199.14 178.192 200.004 177.792 200.66 177.2V178ZM198.372 177.216C197.188 177.216 196.516 176.496 196.516 175.424C196.516 174.24 197.46 173.696 198.564 173.696C199.268 173.696 200.132 174.016 200.66 174.368V175.952C200.164 176.56 199.364 177.216 198.372 177.216ZM213.821 178H214.941V172.56C214.941 170.768 213.725 169.632 212.141 169.632C211.085 169.632 210.253 170.192 209.805 170.88C209.341 170.096 208.461 169.632 207.597 169.632C206.701 169.632 205.917 169.984 205.373 170.624V169.824H204.253V178H205.373V172.864C205.373 171.6 205.997 170.64 207.261 170.64C208.797 170.64 209.037 171.968 209.037 172.992V178H210.157V172.992C210.157 171.728 210.812 170.64 212.045 170.64C213.581 170.64 213.821 171.968 213.821 172.992V178ZM220.729 178.192C221.673 178.192 222.585 177.792 223.225 177.264L222.617 176.512C221.993 176.976 221.369 177.152 220.777 177.152C219.385 177.152 218.553 176.032 218.361 174.368H223.929C223.961 174.016 223.961 173.76 223.961 173.584C223.961 170.832 222.473 169.632 220.729 169.632C218.633 169.632 217.177 171.184 217.177 173.904C217.177 176.208 218.521 178.192 220.729 178.192ZM218.329 173.36C218.425 171.504 219.417 170.64 220.729 170.64C221.593 170.64 222.809 171.152 222.825 173.36H218.329ZM228.097 178.192C228.721 178.192 229.169 178.048 229.585 177.824L229.713 176.656C229.409 176.864 229.025 177.136 228.481 177.136C227.697 177.136 227.601 176.544 227.601 175.84V170.832H229.681V169.824H227.601V166.448L226.481 167.008V169.824H225.089V170.832H226.481V176.32C226.481 177.392 226.929 178.192 228.097 178.192ZM231.684 180.176L231.988 180.256C232.82 179.744 233.444 178.816 233.444 177.6C233.444 176.656 232.852 176.256 232.292 176.256C231.764 176.256 231.316 176.656 231.316 177.312C231.316 177.888 231.812 178.304 232.484 178.304C232.484 179.248 231.972 179.92 231.684 180.176ZM241.924 178.192C243.317 178.192 244.405 177.472 244.789 176.32L243.781 175.936C243.509 176.704 242.853 177.184 241.973 177.184C240.533 177.184 239.861 175.984 239.861 173.92C239.861 171.904 240.485 170.64 242.005 170.64C242.901 170.64 243.397 171.12 243.653 171.744L244.677 171.344C244.229 170.24 243.269 169.632 242.053 169.632C239.957 169.632 238.693 171.232 238.693 173.92C238.693 176.64 239.957 178.192 241.924 178.192ZM249.9 178.192C251.996 178.192 253.404 176.592 253.404 173.904C253.404 171.184 251.996 169.632 249.9 169.632C247.804 169.632 246.396 171.232 246.396 173.92C246.396 176.64 247.804 178.192 249.9 178.192ZM249.9 177.184C248.38 177.184 247.564 175.952 247.564 173.92C247.564 171.792 248.38 170.64 249.9 170.64C251.42 170.64 252.236 171.872 252.236 173.904C252.236 175.952 251.388 177.184 249.9 177.184ZM260.761 178H261.881V173.472C261.881 170.768 260.953 169.632 258.953 169.632C258.089 169.632 257.353 169.984 256.841 170.72V169.824H255.721V178H256.841V172.976C256.841 171.2 257.705 170.64 258.857 170.64C259.945 170.64 260.761 171.28 260.761 173.008V178ZM266.978 178.192C268.674 178.192 269.73 177.312 269.73 175.952C269.73 174.304 268.338 173.744 267.122 173.264C266.162 172.88 265.25 172.528 265.25 171.696C265.25 171.04 265.858 170.624 266.802 170.624C267.698 170.624 268.338 171.088 268.754 171.504L269.49 170.88C268.834 170.096 267.938 169.632 266.834 169.632C265.298 169.632 264.194 170.464 264.194 171.712C264.194 173.088 265.346 173.664 266.642 174.192C267.634 174.592 268.674 175.024 268.674 176.016C268.674 176.784 267.97 177.2 267.074 177.2C266.226 177.2 265.442 176.672 264.946 176.08L264.162 176.768C264.85 177.584 265.874 178.192 266.978 178.192ZM275.073 178.192C276.017 178.192 276.929 177.792 277.569 177.264L276.961 176.512C276.337 176.976 275.713 177.152 275.121 177.152C273.729 177.152 272.897 176.032 272.705 174.368H278.273C278.305 174.016 278.305 173.76 278.305 173.584C278.305 170.832 276.817 169.632 275.073 169.632C272.977 169.632 271.521 171.184 271.521 173.904C271.521 176.208 272.865 178.192 275.073 178.192ZM272.673 173.36C272.769 171.504 273.761 170.64 275.073 170.64C275.937 170.64 277.153 171.152 277.169 173.36H272.673ZM283.221 178.192C284.613 178.192 285.701 177.472 286.085 176.32L285.077 175.936C284.805 176.704 284.149 177.184 283.269 177.184C281.829 177.184 281.157 175.984 281.157 173.92C281.157 171.904 281.781 170.64 283.301 170.64C284.197 170.64 284.693 171.12 284.949 171.744L285.973 171.344C285.525 170.24 284.565 169.632 283.349 169.632C281.253 169.632 279.989 171.232 279.989 173.92C279.989 176.64 281.253 178.192 283.221 178.192ZM290.144 178.192C290.768 178.192 291.216 178.048 291.632 177.824L291.76 176.656C291.456 176.864 291.072 177.136 290.528 177.136C289.744 177.136 289.648 176.544 289.648 175.84V170.832H291.728V169.824H289.648V166.448L288.528 167.008V169.824H287.136V170.832H288.528V176.32C288.528 177.392 288.976 178.192 290.144 178.192ZM296.838 178.192C297.782 178.192 298.694 177.792 299.334 177.264L298.726 176.512C298.102 176.976 297.478 177.152 296.886 177.152C295.494 177.152 294.662 176.032 294.47 174.368H300.038C300.07 174.016 300.07 173.76 300.07 173.584C300.07 170.832 298.582 169.632 296.838 169.632C294.742 169.632 293.286 171.184 293.286 173.904C293.286 176.208 294.63 178.192 296.838 178.192ZM294.438 173.36C294.534 171.504 295.526 170.64 296.838 170.64C297.702 170.64 298.918 171.152 298.934 173.36H294.438ZM304.207 178.192C304.831 178.192 305.279 178.048 305.695 177.824L305.823 176.656C305.519 176.864 305.135 177.136 304.591 177.136C303.807 177.136 303.711 176.544 303.711 175.84V170.832H305.791V169.824H303.711V166.448L302.591 167.008V169.824H301.199V170.832H302.591V176.32C302.591 177.392 303.039 178.192 304.207 178.192ZM313.025 178H314.145V169.824H313.025V174.848C313.025 176.624 312.145 177.184 310.993 177.184C309.905 177.184 309.105 176.528 309.105 174.816V169.824H307.985V174.384C307.985 177.072 308.881 178.192 310.993 178.192C311.841 178.192 312.449 177.968 313.025 177.216V178ZM317.018 178H318.138V173.376C318.138 171.36 319.306 170.752 320.122 170.752C320.65 170.752 320.97 170.928 321.178 171.056L321.354 169.968C321.13 169.808 320.714 169.632 320.202 169.632C319.194 169.632 318.506 170.192 318.138 170.976V169.824H317.018V178ZM43.144 204H44.184V198.464C44.184 196.144 42.632 195.632 41.464 195.632C40.344 195.632 39.256 196.112 38.6 196.528L38.92 197.488C39.528 197.072 40.536 196.608 41.352 196.608C42.264 196.608 43.144 196.96 43.144 198.608V199.296C42.344 198.864 41.624 198.72 40.936 198.72C39.384 198.72 37.96 199.536 37.96 201.424C37.96 203.264 39.096 204.192 40.744 204.192C41.624 204.192 42.488 203.792 43.144 203.2V204ZM40.856 203.216C39.672 203.216 39 202.496 39 201.424C39 200.24 39.944 199.696 41.048 199.696C41.752 199.696 42.616 200.016 43.144 200.368V201.952C42.648 202.56 41.848 203.216 40.856 203.216ZM49.5529 204.192C50.5769 204.192 51.2329 203.792 51.7289 203.296V204H52.8489V192.448L51.7289 193.008V196.4C51.2329 196 50.5609 195.632 49.5529 195.632C47.4729 195.632 46.1769 197.216 46.1769 199.904C46.1769 202.512 47.4569 204.192 49.5529 204.192ZM49.6809 203.184C48.2409 203.184 47.3449 201.728 47.3449 199.904C47.3449 197.808 48.1769 196.64 49.6809 196.64C50.7209 196.64 51.3929 197.28 51.7289 197.824V201.904C51.2809 202.72 50.4969 203.184 49.6809 203.184ZM56.2973 194.144C56.7293 194.144 57.0333 193.824 57.0333 193.408C57.0333 192.976 56.7293 192.64 56.2973 192.64C55.8813 192.64 55.5613 192.976 55.5613 193.408C55.5613 193.824 55.8813 194.144 56.2973 194.144ZM55.7373 204H56.8573V195.824H55.7373V204ZM63.1125 204.192C65.0805 204.192 66.4885 202.64 66.4885 199.904C66.4885 197.328 65.2085 195.632 63.1125 195.632C62.0085 195.632 61.4005 196.08 60.8725 196.56V195.824H59.7525V207.248L60.8725 206.688V203.168C61.3365 203.712 61.9605 204.192 63.1125 204.192ZM62.9845 203.184C62.1045 203.184 61.4325 202.64 60.8725 201.92V197.904C61.3205 197.104 62.1045 196.64 62.9845 196.64C64.4405 196.64 65.3205 197.92 65.3205 199.904C65.3205 202.016 64.4725 203.184 62.9845 203.184ZM69.391 194.144C69.823 194.144 70.127 193.824 70.127 193.408C70.127 192.976 69.823 192.64 69.391 192.64C68.975 192.64 68.655 192.976 68.655 193.408C68.655 193.824 68.975 194.144 69.391 194.144ZM68.831 204H69.951V195.824H68.831V204ZM75.1503 204.192C76.8463 204.192 77.9023 203.312 77.9023 201.952C77.9023 200.304 76.5103 199.744 75.2943 199.264C74.3343 198.88 73.4223 198.528 73.4223 197.696C73.4223 197.04 74.0303 196.624 74.9743 196.624C75.8703 196.624 76.5103 197.088 76.9263 197.504L77.6623 196.88C77.0063 196.096 76.1102 195.632 75.0063 195.632C73.4703 195.632 72.3663 196.464 72.3663 197.712C72.3663 199.088 73.5182 199.664 74.8143 200.192C75.8063 200.592 76.8463 201.024 76.8463 202.016C76.8463 202.784 76.1423 203.2 75.2463 203.2C74.3983 203.2 73.6143 202.672 73.1183 202.08L72.3343 202.768C73.0223 203.584 74.0463 204.192 75.1503 204.192ZM82.9245 204.192C84.3165 204.192 85.4045 203.472 85.7885 202.32L84.7805 201.936C84.5085 202.704 83.8525 203.184 82.9725 203.184C81.5325 203.184 80.8605 201.984 80.8605 199.92C80.8605 197.904 81.4845 196.64 83.0045 196.64C83.9005 196.64 84.3965 197.12 84.6525 197.744L85.6765 197.344C85.2285 196.24 84.2685 195.632 83.0525 195.632C80.9565 195.632 79.6925 197.232 79.6925 199.92C79.6925 202.64 80.9565 204.192 82.9245 204.192ZM88.5316 194.144C88.9636 194.144 89.2676 193.824 89.2676 193.408C89.2676 192.976 88.9636 192.64 88.5316 192.64C88.1156 192.64 87.7956 192.976 87.7956 193.408C87.7956 193.824 88.1156 194.144 88.5316 194.144ZM87.9716 204H89.0916V195.824H87.9716V204ZM97.0269 204H98.1469V199.472C98.1469 196.768 97.2189 195.632 95.2189 195.632C94.3549 195.632 93.6189 195.984 93.1069 196.72V195.824H91.9869V204H93.1069V198.976C93.1069 197.2 93.9709 196.64 95.1229 196.64C96.2109 196.64 97.0269 197.28 97.0269 199.008V204ZM103.244 207.408C105.244 207.328 107.084 206.56 107.084 203.872V195.824H105.964V196.592C105.692 196.272 105.036 195.632 103.788 195.632C101.788 195.632 100.38 197.216 100.38 199.904C100.38 202.752 101.964 204.192 103.724 204.192C104.844 204.192 105.5 203.76 105.964 203.072V204.32C105.964 205.44 105.388 206.384 102.732 206.528L103.244 207.408ZM103.98 203.184C102.588 203.184 101.548 202 101.548 199.904C101.548 197.808 102.364 196.64 103.98 196.64C104.572 196.64 105.5 197.072 105.964 197.888V201.824C105.516 202.672 104.652 203.184 103.98 203.184ZM116.651 204.192C117.595 204.192 118.507 203.792 119.147 203.264L118.539 202.512C117.915 202.976 117.291 203.152 116.699 203.152C115.307 203.152 114.475 202.032 114.283 200.368H119.851C119.883 200.016 119.883 199.76 119.883 199.584C119.883 196.832 118.395 195.632 116.651 195.632C114.555 195.632 113.099 197.184 113.099 199.904C113.099 202.208 114.443 204.192 116.651 204.192ZM114.251 199.36C114.347 197.504 115.339 196.64 116.651 196.64C117.515 196.64 118.731 197.152 118.747 199.36H114.251ZM122.208 204H123.328V192.448L122.208 192.992V204ZM126.86 194.144C127.292 194.144 127.596 193.824 127.596 193.408C127.596 192.976 127.292 192.64 126.86 192.64C126.444 192.64 126.124 192.976 126.124 193.408C126.124 193.824 126.444 194.144 126.86 194.144ZM126.3 204H127.42V195.824H126.3V204ZM132.363 204.192C132.987 204.192 133.435 204.048 133.851 203.824L133.979 202.656C133.675 202.864 133.291 203.136 132.747 203.136C131.963 203.136 131.867 202.544 131.867 201.84V196.832H133.947V195.824H131.867V192.448L130.747 193.008V195.824H129.355V196.832H130.747V202.32C130.747 203.392 131.195 204.192 132.363 204.192ZM135.949 206.176L136.253 206.256C137.085 205.744 137.709 204.816 137.709 203.6C137.709 202.656 137.117 202.256 136.557 202.256C136.029 202.256 135.581 202.656 135.581 203.312C135.581 203.888 136.077 204.304 136.749 204.304C136.749 205.248 136.237 205.92 135.949 206.176ZM145.822 204.192C147.518 204.192 148.574 203.312 148.574 201.952C148.574 200.304 147.182 199.744 145.966 199.264C145.006 198.88 144.094 198.528 144.094 197.696C144.094 197.04 144.702 196.624 145.646 196.624C146.542 196.624 147.182 197.088 147.598 197.504L148.334 196.88C147.678 196.096 146.782 195.632 145.678 195.632C144.142 195.632 143.038 196.464 143.038 197.712C143.038 199.088 144.19 199.664 145.486 200.192C146.478 200.592 147.518 201.024 147.518 202.016C147.518 202.784 146.814 203.2 145.918 203.2C145.07 203.2 144.286 202.672 143.79 202.08L143.006 202.768C143.694 203.584 144.718 204.192 145.822 204.192ZM153.916 204.192C154.86 204.192 155.772 203.792 156.412 203.264L155.804 202.512C155.18 202.976 154.556 203.152 153.964 203.152C152.572 203.152 151.74 202.032 151.548 200.368H157.116C157.148 200.016 157.148 199.76 157.148 199.584C157.148 196.832 155.66 195.632 153.916 195.632C151.82 195.632 150.364 197.184 150.364 199.904C150.364 202.208 151.708 204.192 153.916 204.192ZM151.516 199.36C151.612 197.504 152.604 196.64 153.916 196.64C154.78 196.64 155.996 197.152 156.012 199.36H151.516ZM162.209 204.192C163.233 204.192 163.889 203.792 164.385 203.296V204H165.505V192.448L164.385 193.008V196.4C163.889 196 163.217 195.632 162.209 195.632C160.129 195.632 158.833 197.216 158.833 199.904C158.833 202.512 160.113 204.192 162.209 204.192ZM162.337 203.184C160.897 203.184 160.001 201.728 160.001 199.904C160.001 197.808 160.833 196.64 162.337 196.64C163.377 196.64 164.049 197.28 164.385 197.824V201.904C163.937 202.72 163.153 203.184 162.337 203.184ZM174.881 204.192C175.905 204.192 176.561 203.792 177.057 203.296V204H178.177V192.448L177.057 193.008V196.4C176.561 196 175.889 195.632 174.881 195.632C172.801 195.632 171.505 197.216 171.505 199.904C171.505 202.512 172.785 204.192 174.881 204.192ZM175.009 203.184C173.569 203.184 172.673 201.728 172.673 199.904C172.673 197.808 173.505 196.64 175.009 196.64C176.049 196.64 176.721 197.28 177.057 197.824V201.904C176.609 202.72 175.825 203.184 175.009 203.184ZM183.993 204.192C186.089 204.192 187.497 202.592 187.497 199.904C187.497 197.184 186.089 195.632 183.993 195.632C181.897 195.632 180.489 197.232 180.489 199.92C180.489 202.64 181.897 204.192 183.993 204.192ZM183.993 203.184C182.473 203.184 181.657 201.952 181.657 199.92C181.657 197.792 182.473 196.64 183.993 196.64C185.513 196.64 186.329 197.872 186.329 199.904C186.329 201.952 185.481 203.184 183.993 203.184ZM196.495 204.192C197.439 204.192 198.351 203.792 198.991 203.264L198.383 202.512C197.759 202.976 197.135 203.152 196.543 203.152C195.151 203.152 194.319 202.032 194.127 200.368H199.695C199.727 200.016 199.727 199.76 199.727 199.584C199.727 196.832 198.239 195.632 196.495 195.632C194.399 195.632 192.943 197.184 192.943 199.904C192.943 202.208 194.287 204.192 196.495 204.192ZM194.095 199.36C194.191 197.504 195.183 196.64 196.495 196.64C197.359 196.64 198.575 197.152 198.591 199.36H194.095ZM202.547 194.144C202.979 194.144 203.283 193.824 203.283 193.408C203.283 192.976 202.979 192.64 202.547 192.64C202.131 192.64 201.811 192.976 201.811 193.408C201.811 193.824 202.131 194.144 202.547 194.144ZM201.987 204H203.107V195.824H201.987V204ZM210.963 204H212.083V195.824H210.963V200.848C210.963 202.624 210.083 203.184 208.931 203.184C207.843 203.184 207.043 202.528 207.043 200.816V195.824H205.923V200.384C205.923 203.072 206.819 204.192 208.931 204.192C209.779 204.192 210.387 203.968 210.963 203.216V204ZM217.26 204.192C218.956 204.192 220.012 203.312 220.012 201.952C220.012 200.304 218.62 199.744 217.404 199.264C216.444 198.88 215.532 198.528 215.532 197.696C215.532 197.04 216.14 196.624 217.084 196.624C217.98 196.624 218.62 197.088 219.036 197.504L219.772 196.88C219.116 196.096 218.22 195.632 217.116 195.632C215.58 195.632 214.476 196.464 214.476 197.712C214.476 199.088 215.628 199.664 216.924 200.192C217.916 200.592 218.956 201.024 218.956 202.016C218.956 202.784 218.252 203.2 217.356 203.2C216.508 203.2 215.724 202.672 215.228 202.08L214.444 202.768C215.132 203.584 216.156 204.192 217.26 204.192ZM231.93 204H233.05V198.56C233.05 196.768 231.834 195.632 230.25 195.632C229.194 195.632 228.362 196.192 227.914 196.88C227.45 196.096 226.57 195.632 225.706 195.632C224.81 195.632 224.026 195.984 223.482 196.624V195.824H222.362V204H223.482V198.864C223.482 197.6 224.106 196.64 225.37 196.64C226.906 196.64 227.146 197.968 227.146 198.992V204H228.266V198.992C228.266 197.728 228.922 196.64 230.154 196.64C231.69 196.64 231.93 197.968 231.93 198.992V204ZM238.79 204.192C240.886 204.192 242.294 202.592 242.294 199.904C242.294 197.184 240.886 195.632 238.79 195.632C236.694 195.632 235.286 197.232 235.286 199.92C235.286 202.64 236.694 204.192 238.79 204.192ZM238.79 203.184C237.27 203.184 236.454 201.952 236.454 199.92C236.454 197.792 237.27 196.64 238.79 196.64C240.31 196.64 241.126 197.872 241.126 199.904C241.126 201.952 240.278 203.184 238.79 203.184ZM247.428 204.192C248.452 204.192 249.108 203.792 249.604 203.296V204H250.724V192.448L249.604 193.008V196.4C249.108 196 248.436 195.632 247.428 195.632C245.348 195.632 244.052 197.216 244.052 199.904C244.052 202.512 245.332 204.192 247.428 204.192ZM247.556 203.184C246.116 203.184 245.22 201.728 245.22 199.904C245.22 197.808 246.052 196.64 247.556 196.64C248.596 196.64 249.268 197.28 249.604 197.824V201.904C249.156 202.72 248.372 203.184 247.556 203.184ZM259.332 204.192C259.956 204.192 260.404 204.048 260.82 203.824L260.948 202.656C260.644 202.864 260.26 203.136 259.716 203.136C258.932 203.136 258.836 202.544 258.836 201.84V196.832H260.916V195.824H258.836V192.448L257.716 193.008V195.824H256.324V196.832H257.716V202.32C257.716 203.392 258.164 204.192 259.332 204.192ZM266.026 204.192C266.97 204.192 267.882 203.792 268.522 203.264L267.914 202.512C267.29 202.976 266.666 203.152 266.074 203.152C264.682 203.152 263.85 202.032 263.658 200.368H269.226C269.258 200.016 269.258 199.76 269.258 199.584C269.258 196.832 267.77 195.632 266.026 195.632C263.93 195.632 262.474 197.184 262.474 199.904C262.474 202.208 263.818 204.192 266.026 204.192ZM263.626 199.36C263.722 197.504 264.714 196.64 266.026 196.64C266.89 196.64 268.106 197.152 268.122 199.36H263.626ZM281.071 204H282.191V198.56C282.191 196.768 280.975 195.632 279.391 195.632C278.335 195.632 277.503 196.192 277.055 196.88C276.591 196.096 275.711 195.632 274.847 195.632C273.951 195.632 273.167 195.984 272.623 196.624V195.824H271.503V204H272.623V198.864C272.623 197.6 273.247 196.64 274.511 196.64C276.047 196.64 276.287 197.968 276.287 198.992V204H277.407V198.992C277.407 197.728 278.062 196.64 279.295 196.64C280.831 196.64 281.071 197.968 281.071 198.992V204ZM288.347 204.192C290.315 204.192 291.723 202.64 291.723 199.904C291.723 197.328 290.443 195.632 288.347 195.632C287.243 195.632 286.635 196.08 286.107 196.56V195.824H284.987V207.248L286.107 206.688V203.168C286.571 203.712 287.195 204.192 288.347 204.192ZM288.219 203.184C287.339 203.184 286.667 202.64 286.107 201.92V197.904C286.555 197.104 287.339 196.64 288.219 196.64C289.675 196.64 290.555 197.92 290.555 199.904C290.555 202.016 289.707 203.184 288.219 203.184ZM296.993 204.192C299.089 204.192 300.497 202.592 300.497 199.904C300.497 197.184 299.089 195.632 296.993 195.632C294.897 195.632 293.489 197.232 293.489 199.92C293.489 202.64 294.897 204.192 296.993 204.192ZM296.993 203.184C295.473 203.184 294.657 201.952 294.657 199.92C294.657 197.792 295.473 196.64 296.993 196.64C298.513 196.64 299.329 197.872 299.329 199.904C299.329 201.952 298.481 203.184 296.993 203.184ZM302.815 204H303.935V199.376C303.935 197.36 305.103 196.752 305.919 196.752C306.447 196.752 306.767 196.928 306.975 197.056L307.151 195.968C306.927 195.808 306.511 195.632 305.999 195.632C304.991 195.632 304.303 196.192 303.935 196.976V195.824H302.815V204ZM39.016 220.144C39.448 220.144 39.752 219.824 39.752 219.408C39.752 218.976 39.448 218.64 39.016 218.64C38.6 218.64 38.28 218.976 38.28 219.408C38.28 219.824 38.6 220.144 39.016 220.144ZM38.456 230H39.576V221.824H38.456V230ZM47.5113 230H48.6313V225.472C48.6313 222.768 47.7033 221.632 45.7033 221.632C44.8393 221.632 44.1033 221.984 43.5913 222.72V221.824H42.4713V230H43.5913V224.976C43.5913 223.2 44.4553 222.64 45.6073 222.64C46.6953 222.64 47.5113 223.28 47.5113 225.008V230ZM54.0964 230.192C55.4884 230.192 56.5764 229.472 56.9604 228.32L55.9524 227.936C55.6804 228.704 55.0244 229.184 54.1444 229.184C52.7044 229.184 52.0324 227.984 52.0324 225.92C52.0324 223.904 52.6564 222.64 54.1764 222.64C55.0724 222.64 55.5684 223.12 55.8244 223.744L56.8484 223.344C56.4004 222.24 55.4404 221.632 54.2244 221.632C52.1284 221.632 50.8644 223.232 50.8644 225.92C50.8644 228.64 52.1284 230.192 54.0964 230.192ZM59.7035 220.144C60.1355 220.144 60.4395 219.824 60.4395 219.408C60.4395 218.976 60.1355 218.64 59.7035 218.64C59.2875 218.64 58.9675 218.976 58.9675 219.408C58.9675 219.824 59.2875 220.144 59.7035 220.144ZM59.1435 230H60.2635V221.824H59.1435V230ZM65.9748 230.192C66.9988 230.192 67.6548 229.792 68.1508 229.296V230H69.2708V218.448L68.1508 219.008V222.4C67.6548 222 66.9828 221.632 65.9748 221.632C63.8948 221.632 62.5988 223.216 62.5988 225.904C62.5988 228.512 63.8788 230.192 65.9748 230.192ZM66.1028 229.184C64.6628 229.184 63.7668 227.728 63.7668 225.904C63.7668 223.808 64.5988 222.64 66.1028 222.64C67.1428 222.64 67.8148 223.28 68.1508 223.824V227.904C67.7028 228.72 66.9188 229.184 66.1028 229.184ZM72.7191 220.144C73.1511 220.144 73.4551 219.824 73.4551 219.408C73.4551 218.976 73.1511 218.64 72.7191 218.64C72.3031 218.64 71.9831 218.976 71.9831 219.408C71.9831 219.824 72.3031 220.144 72.7191 220.144ZM72.1591 230H73.2791V221.824H72.1591V230ZM78.9904 230.192C80.0144 230.192 80.6704 229.792 81.1664 229.296V230H82.2864V218.448L81.1664 219.008V222.4C80.6704 222 79.9984 221.632 78.9904 221.632C76.9104 221.632 75.6144 223.216 75.6144 225.904C75.6144 228.512 76.8944 230.192 78.9904 230.192ZM79.1184 229.184C77.6784 229.184 76.7824 227.728 76.7824 225.904C76.7824 223.808 77.6144 222.64 79.1184 222.64C80.1584 222.64 80.8304 223.28 81.1664 223.824V227.904C80.7184 228.72 79.9344 229.184 79.1184 229.184ZM90.1188 230H91.2388V221.824H90.1188V226.848C90.1188 228.624 89.2388 229.184 88.0868 229.184C86.9988 229.184 86.1988 228.528 86.1988 226.816V221.824H85.0788V226.384C85.0788 229.072 85.9748 230.192 88.0868 230.192C88.9348 230.192 89.5428 229.968 90.1188 229.216V230ZM99.1519 230H100.272V225.472C100.272 222.768 99.3439 221.632 97.3439 221.632C96.4799 221.632 95.7439 221.984 95.2319 222.72V221.824H94.1119V230H95.2319V224.976C95.2319 223.2 96.0959 222.64 97.2479 222.64C98.3359 222.64 99.1519 223.28 99.1519 225.008V230ZM105.113 230.192C105.737 230.192 106.185 230.048 106.601 229.824L106.729 228.656C106.425 228.864 106.041 229.136 105.497 229.136C104.713 229.136 104.617 228.544 104.617 227.84V222.832H106.697V221.824H104.617V218.448L103.497 219.008V221.824H102.105V222.832H103.497V228.32C103.497 229.392 103.945 230.192 105.113 230.192ZM117.619 230H118.739V221.824H117.619V226.848C117.619 228.624 116.739 229.184 115.587 229.184C114.499 229.184 113.699 228.528 113.699 226.816V221.824H112.579V226.384C112.579 229.072 113.475 230.192 115.587 230.192C116.435 230.192 117.043 229.968 117.619 229.216V230ZM123.66 230.192C124.284 230.192 124.732 230.048 125.148 229.824L125.276 228.656C124.972 228.864 124.588 229.136 124.044 229.136C123.26 229.136 123.164 228.544 123.164 227.84V222.832H125.244V221.824H123.164V218.448L122.044 219.008V221.824H120.652V222.832H122.044V228.32C122.044 229.392 122.492 230.192 123.66 230.192ZM131.286 230H132.406V218.448L131.286 218.992V230ZM140.066 230H141.106V224.464C141.106 222.144 139.554 221.632 138.386 221.632C137.266 221.632 136.178 222.112 135.522 222.528L135.842 223.488C136.45 223.072 137.458 222.608 138.274 222.608C139.186 222.608 140.066 222.96 140.066 224.608V225.296C139.266 224.864 138.546 224.72 137.858 224.72C136.306 224.72 134.882 225.536 134.882 227.424C134.882 229.264 136.018 230.192 137.666 230.192C138.546 230.192 139.41 229.792 140.066 229.2V230ZM137.778 229.216C136.594 229.216 135.922 228.496 135.922 227.424C135.922 226.24 136.866 225.696 137.97 225.696C138.674 225.696 139.538 226.016 140.066 226.368V227.952C139.57 228.56 138.77 229.216 137.778 229.216ZM147.051 230.192C149.099 230.192 150.331 228.672 150.331 225.904C150.331 223.216 149.003 221.632 146.955 221.632C146.155 221.632 145.307 222.048 144.779 222.624V218.448L143.659 219.008V230H144.779V229.264C145.307 229.712 145.899 230.192 147.051 230.192ZM146.875 229.184C146.059 229.184 145.227 228.672 144.779 227.904V223.888C145.083 223.36 145.867 222.64 146.875 222.64C148.395 222.64 149.163 223.808 149.163 225.904C149.163 227.92 148.411 229.184 146.875 229.184ZM155.587 230.192C157.683 230.192 159.091 228.592 159.091 225.904C159.091 223.184 157.683 221.632 155.587 221.632C153.491 221.632 152.083 223.232 152.083 225.92C152.083 228.64 153.491 230.192 155.587 230.192ZM155.587 229.184C154.067 229.184 153.251 227.952 153.251 225.92C153.251 223.792 154.067 222.64 155.587 222.64C157.107 222.64 157.923 223.872 157.923 225.904C157.923 227.952 157.075 229.184 155.587 229.184ZM161.409 230H162.529V225.376C162.529 223.36 163.697 222.752 164.513 222.752C165.041 222.752 165.361 222.928 165.569 223.056L165.745 221.968C165.521 221.808 165.105 221.632 164.593 221.632C163.585 221.632 162.897 222.192 162.529 222.976V221.824H161.409V230ZM170.495 230.192C171.439 230.192 172.351 229.792 172.991 229.264L172.383 228.512C171.759 228.976 171.135 229.152 170.543 229.152C169.151 229.152 168.319 228.032 168.127 226.368H173.695C173.727 226.016 173.727 225.76 173.727 225.584C173.727 222.832 172.239 221.632 170.495 221.632C168.399 221.632 166.943 223.184 166.943 225.904C166.943 228.208 168.287 230.192 170.495 230.192ZM168.095 225.36C168.191 223.504 169.183 222.64 170.495 222.64C171.359 222.64 172.575 223.152 172.591 225.36H168.095ZM182.651 230.192C183.595 230.192 184.507 229.792 185.147 229.264L184.539 228.512C183.915 228.976 183.291 229.152 182.699 229.152C181.307 229.152 180.475 228.032 180.283 226.368H185.851C185.883 226.016 185.883 225.76 185.883 225.584C185.883 222.832 184.395 221.632 182.651 221.632C180.555 221.632 179.099 223.184 179.099 225.904C179.099 228.208 180.443 230.192 182.651 230.192ZM180.251 225.36C180.347 223.504 181.339 222.64 182.651 222.64C183.515 222.64 184.731 223.152 184.747 225.36H180.251ZM190.019 230.192C190.643 230.192 191.091 230.048 191.507 229.824L191.635 228.656C191.331 228.864 190.947 229.136 190.403 229.136C189.619 229.136 189.523 228.544 189.523 227.84V222.832H191.603V221.824H189.523V218.448L188.403 219.008V221.824H187.011V222.832H188.403V228.32C188.403 229.392 188.851 230.192 190.019 230.192ZM200.381 230.192C201.405 230.192 202.061 229.792 202.557 229.296V230H203.677V218.448L202.557 219.008V222.4C202.061 222 201.389 221.632 200.381 221.632C198.301 221.632 197.005 223.216 197.005 225.904C197.005 228.512 198.285 230.192 200.381 230.192ZM200.509 229.184C199.069 229.184 198.173 227.728 198.173 225.904C198.173 223.808 199.005 222.64 200.509 222.64C201.549 222.64 202.221 223.28 202.557 223.824V227.904C202.109 228.72 201.325 229.184 200.509 229.184ZM209.493 230.192C211.589 230.192 212.997 228.592 212.997 225.904C212.997 223.184 211.589 221.632 209.493 221.632C207.397 221.632 205.989 223.232 205.989 225.92C205.989 228.64 207.397 230.192 209.493 230.192ZM209.493 229.184C207.973 229.184 207.157 227.952 207.157 225.92C207.157 223.792 207.973 222.64 209.493 222.64C211.013 222.64 211.829 223.872 211.829 225.904C211.829 227.952 210.981 229.184 209.493 229.184ZM215.395 230H216.515V218.448L215.395 218.992V230ZM222.415 230.192C224.511 230.192 225.919 228.592 225.919 225.904C225.919 223.184 224.511 221.632 222.415 221.632C220.319 221.632 218.911 223.232 218.911 225.92C218.911 228.64 220.319 230.192 222.415 230.192ZM222.415 229.184C220.895 229.184 220.079 227.952 220.079 225.92C220.079 223.792 220.895 222.64 222.415 222.64C223.935 222.64 224.751 223.872 224.751 225.904C224.751 227.952 223.903 229.184 222.415 229.184ZM228.237 230H229.357V225.376C229.357 223.36 230.525 222.752 231.341 222.752C231.869 222.752 232.189 222.928 232.397 223.056L232.573 221.968C232.349 221.808 231.933 221.632 231.421 221.632C230.413 221.632 229.725 222.192 229.357 222.976V221.824H228.237V230ZM237.323 230.192C238.267 230.192 239.179 229.792 239.819 229.264L239.211 228.512C238.587 228.976 237.963 229.152 237.371 229.152C235.979 229.152 235.147 228.032 234.955 226.368H240.523C240.555 226.016 240.555 225.76 240.555 225.584C240.555 222.832 239.067 221.632 237.323 221.632C235.227 221.632 233.771 223.184 233.771 225.904C233.771 228.208 235.115 230.192 237.323 230.192ZM234.923 225.36C235.019 223.504 236.011 222.64 237.323 222.64C238.187 222.64 239.403 223.152 239.419 225.36H234.923ZM256.055 230H257.175V224.56C257.175 222.768 255.959 221.632 254.375 221.632C253.319 221.632 252.487 222.192 252.039 222.88C251.575 222.096 250.695 221.632 249.831 221.632C248.935 221.632 248.151 221.984 247.607 222.624V221.824H246.487V230H247.607V224.864C247.607 223.6 248.231 222.64 249.495 222.64C251.031 222.64 251.271 223.968 251.271 224.992V230H252.391V224.992C252.391 223.728 253.047 222.64 254.279 222.64C255.815 222.64 256.055 223.968 256.055 224.992V230ZM264.675 230H265.715V224.464C265.715 222.144 264.163 221.632 262.995 221.632C261.875 221.632 260.787 222.112 260.131 222.528L260.451 223.488C261.059 223.072 262.067 222.608 262.883 222.608C263.795 222.608 264.675 222.96 264.675 224.608V225.296C263.875 224.864 263.155 224.72 262.467 224.72C260.915 224.72 259.491 225.536 259.491 227.424C259.491 229.264 260.627 230.192 262.275 230.192C263.155 230.192 264.019 229.792 264.675 229.2V230ZM262.387 229.216C261.203 229.216 260.531 228.496 260.531 227.424C260.531 226.24 261.475 225.696 262.579 225.696C263.283 225.696 264.147 226.016 264.675 226.368V227.952C264.179 228.56 263.379 229.216 262.387 229.216ZM270.572 233.408C272.572 233.328 274.412 232.56 274.412 229.872V221.824H273.292V222.592C273.02 222.272 272.364 221.632 271.116 221.632C269.116 221.632 267.708 223.216 267.708 225.904C267.708 228.752 269.292 230.192 271.052 230.192C272.172 230.192 272.828 229.76 273.292 229.072V230.32C273.292 231.44 272.716 232.384 270.06 232.528L270.572 233.408ZM271.308 229.184C269.916 229.184 268.876 228 268.876 225.904C268.876 223.808 269.692 222.64 271.308 222.64C271.9 222.64 272.828 223.072 273.292 223.888V227.824C272.844 228.672 271.98 229.184 271.308 229.184ZM282.339 230H283.459V225.472C283.459 222.768 282.531 221.632 280.531 221.632C279.667 221.632 278.931 221.984 278.419 222.72V221.824H277.299V230H278.419V224.976C278.419 223.2 279.283 222.64 280.435 222.64C281.523 222.64 282.339 223.28 282.339 225.008V230ZM290.957 230H291.997V224.464C291.997 222.144 290.445 221.632 289.277 221.632C288.157 221.632 287.069 222.112 286.413 222.528L286.733 223.488C287.341 223.072 288.349 222.608 289.165 222.608C290.077 222.608 290.957 222.96 290.957 224.608V225.296C290.157 224.864 289.437 224.72 288.749 224.72C287.197 224.72 285.773 225.536 285.773 227.424C285.773 229.264 286.909 230.192 288.557 230.192C289.437 230.192 290.301 229.792 290.957 229.2V230ZM288.669 229.216C287.485 229.216 286.812 228.496 286.812 227.424C286.812 226.24 287.757 225.696 288.861 225.696C289.565 225.696 290.429 226.016 290.957 226.368V227.952C290.461 228.56 289.661 229.216 288.669 229.216ZM302.941 230H303.981V224.464C303.981 222.144 302.429 221.632 301.261 221.632C300.141 221.632 299.053 222.112 298.397 222.528L298.717 223.488C299.325 223.072 300.333 222.608 301.149 222.608C302.061 222.608 302.941 222.96 302.941 224.608V225.296C302.141 224.864 301.421 224.72 300.733 224.72C299.181 224.72 297.757 225.536 297.757 227.424C297.757 229.264 298.893 230.192 300.541 230.192C301.421 230.192 302.285 229.792 302.941 229.2V230ZM300.653 229.216C299.469 229.216 298.797 228.496 298.797 227.424C298.797 226.24 299.741 225.696 300.845 225.696C301.549 225.696 302.413 226.016 302.941 226.368V227.952C302.445 228.56 301.645 229.216 300.653 229.216ZM306.614 230H307.734V218.448L306.614 218.992V230ZM311.266 220.144C311.698 220.144 312.002 219.824 312.002 219.408C312.002 218.976 311.698 218.64 311.266 218.64C310.85 218.64 310.53 218.976 310.53 219.408C310.53 219.824 310.85 220.144 311.266 220.144ZM310.706 230H311.826V221.824H310.706V230ZM317.569 230.192C318.577 230.192 319.201 229.776 319.745 229.168V233.2L320.865 232.688V221.824H319.745V222.56C319.201 222.128 318.529 221.632 317.457 221.632C315.377 221.632 314.161 223.344 314.161 225.92C314.161 228.64 315.489 230.192 317.569 230.192ZM317.617 229.184C316.129 229.184 315.329 228.032 315.329 225.92C315.329 224.096 316.177 222.64 317.617 222.64C318.433 222.64 319.249 223.024 319.745 223.904V227.888C319.313 228.416 318.657 229.184 317.617 229.184ZM328.713 230H329.833V221.824H328.713V226.848C328.713 228.624 327.833 229.184 326.681 229.184C325.593 229.184 324.793 228.528 324.793 226.816V221.824H323.673V226.384C323.673 229.072 324.569 230.192 326.681 230.192C327.529 230.192 328.137 229.968 328.713 229.216V230ZM337.41 230H338.45V224.464C338.45 222.144 336.898 221.632 335.73 221.632C334.61 221.632 333.522 222.112 332.866 222.528L333.186 223.488C333.794 223.072 334.802 222.608 335.618 222.608C336.53 222.608 337.41 222.96 337.41 224.608V225.296C336.61 224.864 335.89 224.72 335.202 224.72C333.65 224.72 332.226 225.536 332.226 227.424C332.226 229.264 333.362 230.192 335.01 230.192C335.89 230.192 336.754 229.792 337.41 229.2V230ZM335.122 229.216C333.938 229.216 333.266 228.496 333.266 227.424C333.266 226.24 334.21 225.696 335.314 225.696C336.018 225.696 336.882 226.016 337.41 226.368V227.952C336.914 228.56 336.114 229.216 335.122 229.216ZM341.371 230.224C341.947 230.224 342.379 229.728 342.379 229.216C342.379 228.704 341.947 228.208 341.371 228.208C340.795 228.208 340.363 228.704 340.363 229.216C340.363 229.728 340.795 230.224 341.371 230.224Z" fill="#738394"/>
<path d="M45.38 124.724H50.84V122.4H37.484V124.724H42.944V142H45.38V124.724ZM54.6482 142H57.0842V133.292C57.0842 130.52 58.5122 129.596 60.3882 129.596C62.1522 129.596 63.4682 130.632 63.4682 133.348V142H65.9042V133.768C65.9042 129.148 64.0282 127.356 60.7802 127.356C59.2402 127.356 57.9802 127.944 57.0842 129.176V121.784L54.6482 122.904V142ZM71.6576 125.088C72.5256 125.088 73.1976 124.416 73.1976 123.576C73.1976 122.708 72.5256 122.008 71.6576 122.008C70.8176 122.008 70.1456 122.708 70.1456 123.576C70.1456 124.416 70.8176 125.088 71.6576 125.088ZM70.4536 142H72.8896V127.692H70.4536V142ZM81.7629 142.336C84.8709 142.336 86.8589 140.852 86.8589 138.276C86.8589 135.56 84.8149 134.44 82.2109 133.516C80.6149 132.872 79.1869 132.34 79.1869 131.136C79.1869 130.128 80.1109 129.54 81.5669 129.54C83.1069 129.54 84.1149 130.268 84.7309 130.912L86.4109 129.512C85.3749 128.28 83.7789 127.356 81.5949 127.356C78.8509 127.356 76.7789 128.784 76.7789 131.136C76.7789 133.488 78.5709 134.636 81.2029 135.616C82.8829 136.26 84.4789 136.904 84.4789 138.332C84.4789 139.592 83.3309 140.152 81.8189 140.152C80.2789 140.152 79.0469 139.228 78.3189 138.444L76.5829 139.928C77.7029 141.356 79.6629 142.336 81.7629 142.336ZM98.4818 125.088C99.3498 125.088 100.022 124.416 100.022 123.576C100.022 122.708 99.3498 122.008 98.4818 122.008C97.6418 122.008 96.9698 122.708 96.9698 123.576C96.9698 124.416 97.6418 125.088 98.4818 125.088ZM97.2778 142H99.7138V127.692H97.2778V142ZM108.587 142.336C111.695 142.336 113.683 140.852 113.683 138.276C113.683 135.56 111.639 134.44 109.035 133.516C107.439 132.872 106.011 132.34 106.011 131.136C106.011 130.128 106.935 129.54 108.391 129.54C109.931 129.54 110.939 130.268 111.555 130.912L113.235 129.512C112.199 128.28 110.603 127.356 108.419 127.356C105.675 127.356 103.603 128.784 103.603 131.136C103.603 133.488 105.395 134.636 108.027 135.616C109.707 136.26 111.303 136.904 111.303 138.332C111.303 139.592 110.155 140.152 108.643 140.152C107.103 140.152 105.871 139.228 105.143 138.444L103.407 139.928C104.527 141.356 106.487 142.336 108.587 142.336ZM132.278 142H134.574V132.508C134.574 128.112 131.718 127.356 129.478 127.356C127.322 127.356 125.446 128.112 124.298 128.868L124.998 130.912C126.062 130.156 127.574 129.484 129.17 129.484C131.018 129.484 132.278 130.184 132.278 132.704V133.712C131.102 133.04 129.842 132.788 128.582 132.788C125.81 132.788 123.234 134.216 123.234 137.52C123.234 140.712 125.306 142.336 128.218 142.336C129.926 142.336 131.326 141.58 132.278 140.684V142ZM128.582 140.18C126.622 140.18 125.53 139.116 125.53 137.52C125.53 135.7 127.07 134.888 128.918 134.888C130.094 134.888 131.41 135.308 132.278 135.84V138.304C131.466 139.256 130.178 140.18 128.582 140.18ZM147.632 142H150.068V133.768C150.068 129.148 148.192 127.356 144.944 127.356C143.404 127.356 142.144 127.916 141.248 129.148V127.692H138.812V142H141.248V133.292C141.248 130.52 142.676 129.596 144.552 129.596C146.316 129.596 147.632 130.632 147.632 133.348V142ZM172.826 142H175.318L168.374 122.4H166.106L159.162 142H161.71L163.362 137.212H171.146L172.826 142ZM170.39 135.056H164.09L166.638 127.804C166.834 127.244 167.114 126.32 167.254 125.816C167.366 126.32 167.674 127.244 167.87 127.804L170.39 135.056ZM179.062 142H181.498V133.936C181.498 130.688 183.318 129.764 184.69 129.764C185.67 129.764 186.286 130.072 186.734 130.38L187.098 128.084C186.594 127.664 185.81 127.356 184.886 127.356C183.29 127.356 182.142 128.14 181.498 129.568V127.692H179.062V142ZM194.219 142.336C195.339 142.336 196.207 142.084 196.963 141.692L197.243 139.312C196.627 139.704 195.927 140.068 195.115 140.068C193.855 140.068 193.631 139.2 193.631 138.108V129.82H197.159V127.692H193.631V121.784L191.195 122.96V127.692H188.871V129.82H191.195V138.92C191.195 140.936 192.063 142.336 194.219 142.336ZM202.06 125.088C202.928 125.088 203.6 124.416 203.6 123.576C203.6 122.708 202.928 122.008 202.06 122.008C201.22 122.008 200.548 122.708 200.548 123.576C200.548 124.416 201.22 125.088 202.06 125.088ZM200.856 142H203.292V127.692H200.856V142ZM213.033 142.336C215.665 142.336 217.569 141.02 218.269 138.668L216.001 137.912C215.581 139.256 214.517 140.04 213.089 140.04C210.793 140.04 209.589 138.108 209.589 134.86C209.589 131.64 210.737 129.624 213.173 129.624C214.573 129.624 215.441 130.436 215.861 131.528L218.157 130.688C217.345 128.448 215.525 127.356 213.145 127.356C209.393 127.356 207.097 130.156 207.097 134.86C207.097 139.592 209.393 142.336 213.033 142.336ZM222.077 142H224.513V121.784L222.077 122.932V142ZM234.781 142.336C236.713 142.336 238.337 141.552 239.401 140.488L237.917 138.836C237.021 139.732 235.929 140.124 234.837 140.124C232.681 140.124 231.113 138.416 230.917 135.784H240.605C240.661 135.224 240.689 134.608 240.689 134.16C240.689 129.456 238.001 127.356 234.781 127.356C230.973 127.356 228.425 130.1 228.425 134.832C228.425 139.2 230.861 142.336 234.781 142.336ZM230.889 133.712C231.029 130.772 232.709 129.512 234.781 129.512C236.293 129.512 238.197 130.464 238.225 133.712H230.889ZM254.786 142.336C255.906 142.336 256.774 142.084 257.53 141.692L257.81 139.312C257.194 139.704 256.494 140.068 255.682 140.068C254.422 140.068 254.198 139.2 254.198 138.108V129.82H257.726V127.692H254.198V121.784L251.762 122.96V127.692H249.438V129.82H251.762V138.92C251.762 140.936 252.63 142.336 254.786 142.336ZM262.626 125.088C263.494 125.088 264.166 124.416 264.166 123.576C264.166 122.708 263.494 122.008 262.626 122.008C261.786 122.008 261.114 122.708 261.114 123.576C261.114 124.416 261.786 125.088 262.626 125.088ZM261.422 142H263.858V127.692H261.422V142ZM272.368 142.336C273.488 142.336 274.356 142.084 275.112 141.692L275.392 139.312C274.776 139.704 274.076 140.068 273.264 140.068C272.004 140.068 271.78 139.2 271.78 138.108V129.82H275.308V127.692H271.78V121.784L269.344 122.96V127.692H267.02V129.82H269.344V138.92C269.344 140.936 270.212 142.336 272.368 142.336ZM279.116 142H281.552V121.784L279.116 122.932V142ZM291.82 142.336C293.752 142.336 295.376 141.552 296.44 140.488L294.956 138.836C294.06 139.732 292.968 140.124 291.876 140.124C289.72 140.124 288.152 138.416 287.956 135.784H297.644C297.7 135.224 297.728 134.608 297.728 134.16C297.728 129.456 295.04 127.356 291.82 127.356C288.012 127.356 285.464 130.1 285.464 134.832C285.464 139.2 287.9 142.336 291.82 142.336ZM287.928 133.712C288.068 130.772 289.748 129.512 291.82 129.512C293.332 129.512 295.236 130.464 295.264 133.712H287.928Z" fill="#212B36"/>
<path d="M422.68 178H429.352V176.928H423.8V166.8H422.68V178ZM434.29 178.192C436.386 178.192 437.794 176.592 437.794 173.904C437.794 171.184 436.386 169.632 434.29 169.632C432.194 169.632 430.786 171.232 430.786 173.92C430.786 176.64 432.194 178.192 434.29 178.192ZM434.29 177.184C432.77 177.184 431.954 175.952 431.954 173.92C431.954 171.792 432.77 170.64 434.29 170.64C435.81 170.64 436.626 171.872 436.626 173.904C436.626 175.952 435.778 177.184 434.29 177.184ZM440.112 178H441.232V173.376C441.232 171.36 442.4 170.752 443.216 170.752C443.744 170.752 444.064 170.928 444.272 171.056L444.448 169.968C444.224 169.808 443.808 169.632 443.296 169.632C442.288 169.632 441.6 170.192 441.232 170.976V169.824H440.112V178ZM449.198 178.192C450.142 178.192 451.054 177.792 451.694 177.264L451.086 176.512C450.462 176.976 449.838 177.152 449.246 177.152C447.854 177.152 447.022 176.032 446.83 174.368H452.398C452.43 174.016 452.43 173.76 452.43 173.584C452.43 170.832 450.942 169.632 449.198 169.632C447.102 169.632 445.646 171.184 445.646 173.904C445.646 176.208 446.99 178.192 449.198 178.192ZM446.798 173.36C446.894 171.504 447.886 170.64 449.198 170.64C450.062 170.64 451.278 171.152 451.294 173.36H446.798ZM464.242 178H465.362V172.56C465.362 170.768 464.146 169.632 462.562 169.632C461.506 169.632 460.674 170.192 460.226 170.88C459.762 170.096 458.882 169.632 458.018 169.632C457.122 169.632 456.338 169.984 455.794 170.624V169.824H454.674V178H455.794V172.864C455.794 171.6 456.418 170.64 457.682 170.64C459.218 170.64 459.458 171.968 459.458 172.992V178H460.578V172.992C460.578 171.728 461.234 170.64 462.466 170.64C464.002 170.64 464.242 171.968 464.242 172.992V178ZM472.422 168.144C472.854 168.144 473.158 167.824 473.158 167.408C473.158 166.976 472.854 166.64 472.422 166.64C472.006 166.64 471.686 166.976 471.686 167.408C471.686 167.824 472.006 168.144 472.422 168.144ZM471.862 178H472.982V169.824H471.862V178ZM479.238 178.192C481.206 178.192 482.614 176.64 482.614 173.904C482.614 171.328 481.334 169.632 479.238 169.632C478.134 169.632 477.526 170.08 476.998 170.56V169.824H475.878V181.248L476.998 180.688V177.168C477.462 177.712 478.086 178.192 479.238 178.192ZM479.11 177.184C478.23 177.184 477.558 176.64 476.998 175.92V171.904C477.446 171.104 478.23 170.64 479.11 170.64C480.566 170.64 481.446 171.92 481.446 173.904C481.446 176.016 480.598 177.184 479.11 177.184ZM487.244 178.192C488.94 178.192 489.996 177.312 489.996 175.952C489.996 174.304 488.604 173.744 487.388 173.264C486.428 172.88 485.516 172.528 485.516 171.696C485.516 171.04 486.124 170.624 487.068 170.624C487.964 170.624 488.604 171.088 489.02 171.504L489.756 170.88C489.1 170.096 488.204 169.632 487.1 169.632C485.564 169.632 484.46 170.464 484.46 171.712C484.46 173.088 485.612 173.664 486.908 174.192C487.9 174.592 488.94 175.024 488.94 176.016C488.94 176.784 488.236 177.2 487.34 177.2C486.492 177.2 485.708 176.672 485.212 176.08L484.428 176.768C485.116 177.584 486.14 178.192 487.244 178.192ZM497.306 178H498.426V169.824H497.306V174.848C497.306 176.624 496.426 177.184 495.274 177.184C494.186 177.184 493.386 176.528 493.386 174.816V169.824H492.266V174.384C492.266 177.072 493.162 178.192 495.274 178.192C496.122 178.192 496.73 177.968 497.306 177.216V178ZM510.867 178H511.987V172.56C511.987 170.768 510.771 169.632 509.187 169.632C508.131 169.632 507.299 170.192 506.851 170.88C506.387 170.096 505.507 169.632 504.643 169.632C503.747 169.632 502.963 169.984 502.419 170.624V169.824H501.299V178H502.419V172.864C502.419 171.6 503.043 170.64 504.307 170.64C505.843 170.64 506.083 171.968 506.083 172.992V178H507.203V172.992C507.203 171.728 507.859 170.64 509.091 170.64C510.627 170.64 510.867 171.968 510.867 172.992V178ZM521.287 178.192C522.311 178.192 522.967 177.792 523.463 177.296V178H524.583V166.448L523.463 167.008V170.4C522.967 170 522.295 169.632 521.287 169.632C519.207 169.632 517.911 171.216 517.911 173.904C517.911 176.512 519.191 178.192 521.287 178.192ZM521.415 177.184C519.975 177.184 519.079 175.728 519.079 173.904C519.079 171.808 519.911 170.64 521.415 170.64C522.455 170.64 523.127 171.28 523.463 171.824V175.904C523.015 176.72 522.231 177.184 521.415 177.184ZM530.4 178.192C532.496 178.192 533.904 176.592 533.904 173.904C533.904 171.184 532.496 169.632 530.4 169.632C528.304 169.632 526.896 171.232 526.896 173.92C526.896 176.64 528.304 178.192 530.4 178.192ZM530.4 177.184C528.88 177.184 528.064 175.952 528.064 173.92C528.064 171.792 528.88 170.64 530.4 170.64C531.92 170.64 532.736 171.872 532.736 173.904C532.736 175.952 531.888 177.184 530.4 177.184ZM536.301 178H537.421V166.448L536.301 166.992V178ZM543.322 178.192C545.418 178.192 546.826 176.592 546.826 173.904C546.826 171.184 545.418 169.632 543.322 169.632C541.226 169.632 539.818 171.232 539.818 173.92C539.818 176.64 541.226 178.192 543.322 178.192ZM543.322 177.184C541.802 177.184 540.986 175.952 540.986 173.92C540.986 171.792 541.802 170.64 543.322 170.64C544.842 170.64 545.658 171.872 545.658 173.904C545.658 175.952 544.81 177.184 543.322 177.184ZM549.143 178H550.263V173.376C550.263 171.36 551.431 170.752 552.247 170.752C552.775 170.752 553.095 170.928 553.303 171.056L553.479 169.968C553.255 169.808 552.839 169.632 552.327 169.632C551.319 169.632 550.631 170.192 550.263 170.976V169.824H549.143V178ZM561.228 178.192C562.924 178.192 563.98 177.312 563.98 175.952C563.98 174.304 562.588 173.744 561.372 173.264C560.412 172.88 559.5 172.528 559.5 171.696C559.5 171.04 560.108 170.624 561.052 170.624C561.948 170.624 562.588 171.088 563.004 171.504L563.74 170.88C563.084 170.096 562.188 169.632 561.084 169.632C559.548 169.632 558.444 170.464 558.444 171.712C558.444 173.088 559.596 173.664 560.892 174.192C561.884 174.592 562.924 175.024 562.924 176.016C562.924 176.784 562.22 177.2 561.324 177.2C560.476 177.2 559.692 176.672 559.196 176.08L558.412 176.768C559.1 177.584 560.124 178.192 561.228 178.192ZM566.907 168.144C567.339 168.144 567.643 167.824 567.643 167.408C567.643 166.976 567.339 166.64 566.907 166.64C566.491 166.64 566.171 166.976 566.171 167.408C566.171 167.824 566.491 168.144 566.907 168.144ZM566.347 178H567.467V169.824H566.347V178ZM572.41 178.192C573.034 178.192 573.482 178.048 573.898 177.824L574.026 176.656C573.722 176.864 573.338 177.136 572.794 177.136C572.01 177.136 571.914 176.544 571.914 175.84V170.832H573.994V169.824H571.914V166.448L570.794 167.008V169.824H569.402V170.832H570.794V176.32C570.794 177.392 571.242 178.192 572.41 178.192ZM584.66 178H585.7V172.464C585.7 170.144 584.148 169.632 582.98 169.632C581.86 169.632 580.772 170.112 580.116 170.528L580.436 171.488C581.044 171.072 582.052 170.608 582.868 170.608C583.78 170.608 584.66 170.96 584.66 172.608V173.296C583.86 172.864 583.14 172.72 582.452 172.72C580.9 172.72 579.476 173.536 579.476 175.424C579.476 177.264 580.612 178.192 582.26 178.192C583.14 178.192 584.004 177.792 584.66 177.2V178ZM582.372 177.216C581.188 177.216 580.516 176.496 580.516 175.424C580.516 174.24 581.46 173.696 582.564 173.696C583.268 173.696 584.132 174.016 584.66 174.368V175.952C584.164 176.56 583.364 177.216 582.372 177.216ZM597.821 178H598.941V172.56C598.941 170.768 597.725 169.632 596.141 169.632C595.085 169.632 594.253 170.192 593.805 170.88C593.341 170.096 592.461 169.632 591.597 169.632C590.701 169.632 589.917 169.984 589.373 170.624V169.824H588.253V178H589.373V172.864C589.373 171.6 589.997 170.64 591.261 170.64C592.797 170.64 593.037 171.968 593.037 172.992V178H594.157V172.992C594.157 171.728 594.812 170.64 596.045 170.64C597.581 170.64 597.821 171.968 597.821 172.992V178ZM604.729 178.192C605.673 178.192 606.585 177.792 607.225 177.264L606.617 176.512C605.993 176.976 605.369 177.152 604.777 177.152C603.385 177.152 602.553 176.032 602.361 174.368H607.929C607.961 174.016 607.961 173.76 607.961 173.584C607.961 170.832 606.473 169.632 604.729 169.632C602.633 169.632 601.177 171.184 601.177 173.904C601.177 176.208 602.521 178.192 604.729 178.192ZM602.329 173.36C602.425 171.504 603.417 170.64 604.729 170.64C605.593 170.64 606.809 171.152 606.825 173.36H602.329ZM612.097 178.192C612.721 178.192 613.169 178.048 613.585 177.824L613.713 176.656C613.409 176.864 613.025 177.136 612.481 177.136C611.697 177.136 611.601 176.544 611.601 175.84V170.832H613.681V169.824H611.601V166.448L610.481 167.008V169.824H609.089V170.832H610.481V176.32C610.481 177.392 610.929 178.192 612.097 178.192ZM615.684 180.176L615.988 180.256C616.82 179.744 617.444 178.816 617.444 177.6C617.444 176.656 616.852 176.256 616.292 176.256C615.764 176.256 615.316 176.656 615.316 177.312C615.316 177.888 615.812 178.304 616.484 178.304C616.484 179.248 615.972 179.92 615.684 180.176ZM625.924 178.192C627.317 178.192 628.405 177.472 628.789 176.32L627.781 175.936C627.509 176.704 626.853 177.184 625.973 177.184C624.533 177.184 623.861 175.984 623.861 173.92C623.861 171.904 624.485 170.64 626.005 170.64C626.901 170.64 627.397 171.12 627.653 171.744L628.677 171.344C628.229 170.24 627.269 169.632 626.053 169.632C623.957 169.632 622.693 171.232 622.693 173.92C622.693 176.64 623.957 178.192 625.924 178.192ZM633.9 178.192C635.996 178.192 637.404 176.592 637.404 173.904C637.404 171.184 635.996 169.632 633.9 169.632C631.804 169.632 630.396 171.232 630.396 173.92C630.396 176.64 631.804 178.192 633.9 178.192ZM633.9 177.184C632.38 177.184 631.564 175.952 631.564 173.92C631.564 171.792 632.38 170.64 633.9 170.64C635.42 170.64 636.236 171.872 636.236 173.904C636.236 175.952 635.388 177.184 633.9 177.184ZM644.761 178H645.881V173.472C645.881 170.768 644.953 169.632 642.953 169.632C642.089 169.632 641.353 169.984 640.841 170.72V169.824H639.721V178H640.841V172.976C640.841 171.2 641.705 170.64 642.857 170.64C643.945 170.64 644.761 171.28 644.761 173.008V178ZM650.978 178.192C652.674 178.192 653.73 177.312 653.73 175.952C653.73 174.304 652.338 173.744 651.122 173.264C650.162 172.88 649.25 172.528 649.25 171.696C649.25 171.04 649.858 170.624 650.802 170.624C651.698 170.624 652.338 171.088 652.754 171.504L653.49 170.88C652.834 170.096 651.938 169.632 650.834 169.632C649.298 169.632 648.194 170.464 648.194 171.712C648.194 173.088 649.346 173.664 650.642 174.192C651.634 174.592 652.674 175.024 652.674 176.016C652.674 176.784 651.97 177.2 651.074 177.2C650.226 177.2 649.442 176.672 648.946 176.08L648.162 176.768C648.85 177.584 649.874 178.192 650.978 178.192ZM659.073 178.192C660.017 178.192 660.929 177.792 661.569 177.264L660.961 176.512C660.337 176.976 659.713 177.152 659.121 177.152C657.729 177.152 656.897 176.032 656.705 174.368H662.273C662.305 174.016 662.305 173.76 662.305 173.584C662.305 170.832 660.817 169.632 659.073 169.632C656.977 169.632 655.521 171.184 655.521 173.904C655.521 176.208 656.865 178.192 659.073 178.192ZM656.673 173.36C656.769 171.504 657.761 170.64 659.073 170.64C659.937 170.64 661.153 171.152 661.169 173.36H656.673ZM667.221 178.192C668.613 178.192 669.701 177.472 670.085 176.32L669.077 175.936C668.805 176.704 668.149 177.184 667.269 177.184C665.829 177.184 665.157 175.984 665.157 173.92C665.157 171.904 665.781 170.64 667.301 170.64C668.197 170.64 668.693 171.12 668.949 171.744L669.973 171.344C669.525 170.24 668.565 169.632 667.349 169.632C665.253 169.632 663.989 171.232 663.989 173.92C663.989 176.64 665.253 178.192 667.221 178.192ZM674.144 178.192C674.768 178.192 675.216 178.048 675.632 177.824L675.76 176.656C675.456 176.864 675.072 177.136 674.528 177.136C673.744 177.136 673.648 176.544 673.648 175.84V170.832H675.728V169.824H673.648V166.448L672.528 167.008V169.824H671.136V170.832H672.528V176.32C672.528 177.392 672.976 178.192 674.144 178.192ZM680.838 178.192C681.782 178.192 682.694 177.792 683.334 177.264L682.726 176.512C682.102 176.976 681.478 177.152 680.886 177.152C679.494 177.152 678.662 176.032 678.47 174.368H684.038C684.07 174.016 684.07 173.76 684.07 173.584C684.07 170.832 682.582 169.632 680.838 169.632C678.742 169.632 677.286 171.184 677.286 173.904C677.286 176.208 678.63 178.192 680.838 178.192ZM678.438 173.36C678.534 171.504 679.526 170.64 680.838 170.64C681.702 170.64 682.918 171.152 682.934 173.36H678.438ZM688.207 178.192C688.831 178.192 689.279 178.048 689.695 177.824L689.823 176.656C689.519 176.864 689.135 177.136 688.591 177.136C687.807 177.136 687.711 176.544 687.711 175.84V170.832H689.791V169.824H687.711V166.448L686.591 167.008V169.824H685.199V170.832H686.591V176.32C686.591 177.392 687.039 178.192 688.207 178.192ZM697.025 178H698.145V169.824H697.025V174.848C697.025 176.624 696.145 177.184 694.993 177.184C693.905 177.184 693.105 176.528 693.105 174.816V169.824H691.985V174.384C691.985 177.072 692.881 178.192 694.993 178.192C695.841 178.192 696.449 177.968 697.025 177.216V178ZM701.018 178H702.138V173.376C702.138 171.36 703.306 170.752 704.122 170.752C704.65 170.752 704.97 170.928 705.178 171.056L705.354 169.968C705.13 169.808 704.714 169.632 704.202 169.632C703.194 169.632 702.506 170.192 702.138 170.976V169.824H701.018V178ZM427.144 204H428.184V198.464C428.184 196.144 426.632 195.632 425.464 195.632C424.344 195.632 423.256 196.112 422.6 196.528L422.92 197.488C423.528 197.072 424.536 196.608 425.352 196.608C426.264 196.608 427.144 196.96 427.144 198.608V199.296C426.344 198.864 425.624 198.72 424.936 198.72C423.384 198.72 421.96 199.536 421.96 201.424C421.96 203.264 423.096 204.192 424.744 204.192C425.624 204.192 426.488 203.792 427.144 203.2V204ZM424.856 203.216C423.672 203.216 423 202.496 423 201.424C423 200.24 423.944 199.696 425.048 199.696C425.752 199.696 426.616 200.016 427.144 200.368V201.952C426.648 202.56 425.848 203.216 424.856 203.216ZM433.553 204.192C434.577 204.192 435.233 203.792 435.729 203.296V204H436.849V192.448L435.729 193.008V196.4C435.233 196 434.561 195.632 433.553 195.632C431.473 195.632 430.177 197.216 430.177 199.904C430.177 202.512 431.457 204.192 433.553 204.192ZM433.681 203.184C432.241 203.184 431.345 201.728 431.345 199.904C431.345 197.808 432.177 196.64 433.681 196.64C434.721 196.64 435.393 197.28 435.729 197.824V201.904C435.281 202.72 434.497 203.184 433.681 203.184ZM440.297 194.144C440.729 194.144 441.033 193.824 441.033 193.408C441.033 192.976 440.729 192.64 440.297 192.64C439.881 192.64 439.561 192.976 439.561 193.408C439.561 193.824 439.881 194.144 440.297 194.144ZM439.737 204H440.857V195.824H439.737V204ZM447.113 204.192C449.081 204.192 450.489 202.64 450.489 199.904C450.489 197.328 449.209 195.632 447.113 195.632C446.009 195.632 445.401 196.08 444.873 196.56V195.824H443.753V207.248L444.873 206.688V203.168C445.337 203.712 445.961 204.192 447.113 204.192ZM446.985 203.184C446.105 203.184 445.433 202.64 444.873 201.92V197.904C445.321 197.104 446.105 196.64 446.985 196.64C448.441 196.64 449.321 197.92 449.321 199.904C449.321 202.016 448.473 203.184 446.985 203.184ZM453.391 194.144C453.823 194.144 454.127 193.824 454.127 193.408C454.127 192.976 453.823 192.64 453.391 192.64C452.975 192.64 452.655 192.976 452.655 193.408C452.655 193.824 452.975 194.144 453.391 194.144ZM452.831 204H453.951V195.824H452.831V204ZM459.15 204.192C460.846 204.192 461.902 203.312 461.902 201.952C461.902 200.304 460.51 199.744 459.294 199.264C458.334 198.88 457.422 198.528 457.422 197.696C457.422 197.04 458.03 196.624 458.974 196.624C459.87 196.624 460.51 197.088 460.926 197.504L461.662 196.88C461.006 196.096 460.11 195.632 459.006 195.632C457.47 195.632 456.366 196.464 456.366 197.712C456.366 199.088 457.518 199.664 458.814 200.192C459.806 200.592 460.846 201.024 460.846 202.016C460.846 202.784 460.142 203.2 459.246 203.2C458.398 203.2 457.614 202.672 457.118 202.08L456.334 202.768C457.022 203.584 458.046 204.192 459.15 204.192ZM466.924 204.192C468.317 204.192 469.405 203.472 469.789 202.32L468.781 201.936C468.509 202.704 467.853 203.184 466.973 203.184C465.533 203.184 464.861 201.984 464.861 199.92C464.861 197.904 465.485 196.64 467.005 196.64C467.901 196.64 468.397 197.12 468.653 197.744L469.677 197.344C469.229 196.24 468.269 195.632 467.053 195.632C464.957 195.632 463.693 197.232 463.693 199.92C463.693 202.64 464.957 204.192 466.924 204.192ZM472.532 194.144C472.964 194.144 473.268 193.824 473.268 193.408C473.268 192.976 472.964 192.64 472.532 192.64C472.116 192.64 471.796 192.976 471.796 193.408C471.796 193.824 472.116 194.144 472.532 194.144ZM471.972 204H473.092V195.824H471.972V204ZM481.027 204H482.147V199.472C482.147 196.768 481.219 195.632 479.219 195.632C478.355 195.632 477.619 195.984 477.107 196.72V195.824H475.987V204H477.107V198.976C477.107 197.2 477.971 196.64 479.123 196.64C480.211 196.64 481.027 197.28 481.027 199.008V204ZM487.244 207.408C489.244 207.328 491.084 206.56 491.084 203.872V195.824H489.964V196.592C489.692 196.272 489.036 195.632 487.788 195.632C485.788 195.632 484.38 197.216 484.38 199.904C484.38 202.752 485.964 204.192 487.724 204.192C488.844 204.192 489.5 203.76 489.964 203.072V204.32C489.964 205.44 489.388 206.384 486.732 206.528L487.244 207.408ZM487.98 203.184C486.588 203.184 485.548 202 485.548 199.904C485.548 197.808 486.364 196.64 487.98 196.64C488.572 196.64 489.5 197.072 489.964 197.888V201.824C489.516 202.672 488.652 203.184 487.98 203.184ZM500.651 204.192C501.595 204.192 502.507 203.792 503.147 203.264L502.539 202.512C501.915 202.976 501.291 203.152 500.699 203.152C499.307 203.152 498.475 202.032 498.283 200.368H503.851C503.883 200.016 503.883 199.76 503.883 199.584C503.883 196.832 502.395 195.632 500.651 195.632C498.555 195.632 497.099 197.184 497.099 199.904C497.099 202.208 498.443 204.192 500.651 204.192ZM498.251 199.36C498.347 197.504 499.339 196.64 500.651 196.64C501.515 196.64 502.731 197.152 502.747 199.36H498.251ZM506.208 204H507.328V192.448L506.208 192.992V204ZM510.86 194.144C511.292 194.144 511.596 193.824 511.596 193.408C511.596 192.976 511.292 192.64 510.86 192.64C510.444 192.64 510.124 192.976 510.124 193.408C510.124 193.824 510.444 194.144 510.86 194.144ZM510.3 204H511.42V195.824H510.3V204ZM516.363 204.192C516.987 204.192 517.435 204.048 517.851 203.824L517.979 202.656C517.675 202.864 517.291 203.136 516.747 203.136C515.963 203.136 515.867 202.544 515.867 201.84V196.832H517.947V195.824H515.867V192.448L514.747 193.008V195.824H513.355V196.832H514.747V202.32C514.747 203.392 515.195 204.192 516.363 204.192ZM519.949 206.176L520.253 206.256C521.085 205.744 521.709 204.816 521.709 203.6C521.709 202.656 521.117 202.256 520.557 202.256C520.029 202.256 519.581 202.656 519.581 203.312C519.581 203.888 520.077 204.304 520.749 204.304C520.749 205.248 520.237 205.92 519.949 206.176ZM529.822 204.192C531.518 204.192 532.574 203.312 532.574 201.952C532.574 200.304 531.182 199.744 529.966 199.264C529.006 198.88 528.094 198.528 528.094 197.696C528.094 197.04 528.702 196.624 529.646 196.624C530.542 196.624 531.182 197.088 531.598 197.504L532.334 196.88C531.678 196.096 530.782 195.632 529.678 195.632C528.142 195.632 527.038 196.464 527.038 197.712C527.038 199.088 528.19 199.664 529.486 200.192C530.478 200.592 531.518 201.024 531.518 202.016C531.518 202.784 530.814 203.2 529.918 203.2C529.07 203.2 528.286 202.672 527.79 202.08L527.006 202.768C527.694 203.584 528.718 204.192 529.822 204.192ZM537.916 204.192C538.86 204.192 539.772 203.792 540.412 203.264L539.804 202.512C539.18 202.976 538.556 203.152 537.964 203.152C536.572 203.152 535.74 202.032 535.548 200.368H541.116C541.148 200.016 541.148 199.76 541.148 199.584C541.148 196.832 539.66 195.632 537.916 195.632C535.82 195.632 534.364 197.184 534.364 199.904C534.364 202.208 535.708 204.192 537.916 204.192ZM535.516 199.36C535.612 197.504 536.604 196.64 537.916 196.64C538.78 196.64 539.996 197.152 540.012 199.36H535.516ZM546.209 204.192C547.233 204.192 547.889 203.792 548.385 203.296V204H549.505V192.448L548.385 193.008V196.4C547.889 196 547.217 195.632 546.209 195.632C544.129 195.632 542.833 197.216 542.833 199.904C542.833 202.512 544.113 204.192 546.209 204.192ZM546.337 203.184C544.897 203.184 544.001 201.728 544.001 199.904C544.001 197.808 544.833 196.64 546.337 196.64C547.377 196.64 548.049 197.28 548.385 197.824V201.904C547.937 202.72 547.153 203.184 546.337 203.184ZM558.881 204.192C559.905 204.192 560.561 203.792 561.057 203.296V204H562.177V192.448L561.057 193.008V196.4C560.561 196 559.889 195.632 558.881 195.632C556.801 195.632 555.505 197.216 555.505 199.904C555.505 202.512 556.785 204.192 558.881 204.192ZM559.009 203.184C557.569 203.184 556.673 201.728 556.673 199.904C556.673 197.808 557.505 196.64 559.009 196.64C560.049 196.64 560.721 197.28 561.057 197.824V201.904C560.609 202.72 559.825 203.184 559.009 203.184ZM567.993 204.192C570.089 204.192 571.497 202.592 571.497 199.904C571.497 197.184 570.089 195.632 567.993 195.632C565.897 195.632 564.489 197.232 564.489 199.92C564.489 202.64 565.897 204.192 567.993 204.192ZM567.993 203.184C566.473 203.184 565.657 201.952 565.657 199.92C565.657 197.792 566.473 196.64 567.993 196.64C569.513 196.64 570.329 197.872 570.329 199.904C570.329 201.952 569.481 203.184 567.993 203.184ZM580.495 204.192C581.439 204.192 582.351 203.792 582.991 203.264L582.383 202.512C581.759 202.976 581.135 203.152 580.543 203.152C579.151 203.152 578.319 202.032 578.127 200.368H583.695C583.727 200.016 583.727 199.76 583.727 199.584C583.727 196.832 582.239 195.632 580.495 195.632C578.399 195.632 576.943 197.184 576.943 199.904C576.943 202.208 578.287 204.192 580.495 204.192ZM578.095 199.36C578.191 197.504 579.183 196.64 580.495 196.64C581.359 196.64 582.575 197.152 582.591 199.36H578.095ZM586.547 194.144C586.979 194.144 587.283 193.824 587.283 193.408C587.283 192.976 586.979 192.64 586.547 192.64C586.131 192.64 585.811 192.976 585.811 193.408C585.811 193.824 586.131 194.144 586.547 194.144ZM585.987 204H587.107V195.824H585.987V204ZM594.963 204H596.083V195.824H594.963V200.848C594.963 202.624 594.083 203.184 592.931 203.184C591.843 203.184 591.043 202.528 591.043 200.816V195.824H589.923V200.384C589.923 203.072 590.819 204.192 592.931 204.192C593.779 204.192 594.387 203.968 594.963 203.216V204ZM601.26 204.192C602.956 204.192 604.012 203.312 604.012 201.952C604.012 200.304 602.62 199.744 601.404 199.264C600.444 198.88 599.532 198.528 599.532 197.696C599.532 197.04 600.14 196.624 601.084 196.624C601.98 196.624 602.62 197.088 603.036 197.504L603.772 196.88C603.116 196.096 602.22 195.632 601.116 195.632C599.58 195.632 598.476 196.464 598.476 197.712C598.476 199.088 599.628 199.664 600.924 200.192C601.916 200.592 602.956 201.024 602.956 202.016C602.956 202.784 602.252 203.2 601.356 203.2C600.508 203.2 599.724 202.672 599.228 202.08L598.444 202.768C599.132 203.584 600.156 204.192 601.26 204.192ZM615.93 204H617.05V198.56C617.05 196.768 615.834 195.632 614.25 195.632C613.194 195.632 612.362 196.192 611.914 196.88C611.45 196.096 610.57 195.632 609.706 195.632C608.81 195.632 608.026 195.984 607.482 196.624V195.824H606.362V204H607.482V198.864C607.482 197.6 608.106 196.64 609.37 196.64C610.906 196.64 611.146 197.968 611.146 198.992V204H612.266V198.992C612.266 197.728 612.922 196.64 614.154 196.64C615.69 196.64 615.93 197.968 615.93 198.992V204ZM622.79 204.192C624.886 204.192 626.294 202.592 626.294 199.904C626.294 197.184 624.886 195.632 622.79 195.632C620.694 195.632 619.286 197.232 619.286 199.92C619.286 202.64 620.694 204.192 622.79 204.192ZM622.79 203.184C621.27 203.184 620.454 201.952 620.454 199.92C620.454 197.792 621.27 196.64 622.79 196.64C624.31 196.64 625.126 197.872 625.126 199.904C625.126 201.952 624.278 203.184 622.79 203.184ZM631.428 204.192C632.452 204.192 633.108 203.792 633.604 203.296V204H634.724V192.448L633.604 193.008V196.4C633.108 196 632.436 195.632 631.428 195.632C629.348 195.632 628.052 197.216 628.052 199.904C628.052 202.512 629.332 204.192 631.428 204.192ZM631.556 203.184C630.116 203.184 629.22 201.728 629.22 199.904C629.22 197.808 630.052 196.64 631.556 196.64C632.596 196.64 633.268 197.28 633.604 197.824V201.904C633.156 202.72 632.372 203.184 631.556 203.184ZM643.332 204.192C643.956 204.192 644.404 204.048 644.82 203.824L644.948 202.656C644.644 202.864 644.26 203.136 643.716 203.136C642.932 203.136 642.836 202.544 642.836 201.84V196.832H644.916V195.824H642.836V192.448L641.716 193.008V195.824H640.324V196.832H641.716V202.32C641.716 203.392 642.164 204.192 643.332 204.192ZM650.026 204.192C650.97 204.192 651.882 203.792 652.522 203.264L651.914 202.512C651.29 202.976 650.666 203.152 650.074 203.152C648.682 203.152 647.85 202.032 647.658 200.368H653.226C653.258 200.016 653.258 199.76 653.258 199.584C653.258 196.832 651.77 195.632 650.026 195.632C647.93 195.632 646.474 197.184 646.474 199.904C646.474 202.208 647.818 204.192 650.026 204.192ZM647.626 199.36C647.722 197.504 648.714 196.64 650.026 196.64C650.89 196.64 652.106 197.152 652.122 199.36H647.626ZM665.071 204H666.191V198.56C666.191 196.768 664.975 195.632 663.391 195.632C662.335 195.632 661.503 196.192 661.055 196.88C660.591 196.096 659.711 195.632 658.847 195.632C657.951 195.632 657.167 195.984 656.623 196.624V195.824H655.503V204H656.623V198.864C656.623 197.6 657.247 196.64 658.511 196.64C660.047 196.64 660.287 197.968 660.287 198.992V204H661.407V198.992C661.407 197.728 662.062 196.64 663.295 196.64C664.831 196.64 665.071 197.968 665.071 198.992V204ZM672.347 204.192C674.315 204.192 675.723 202.64 675.723 199.904C675.723 197.328 674.443 195.632 672.347 195.632C671.243 195.632 670.635 196.08 670.107 196.56V195.824H668.987V207.248L670.107 206.688V203.168C670.571 203.712 671.195 204.192 672.347 204.192ZM672.219 203.184C671.339 203.184 670.667 202.64 670.107 201.92V197.904C670.555 197.104 671.339 196.64 672.219 196.64C673.675 196.64 674.555 197.92 674.555 199.904C674.555 202.016 673.707 203.184 672.219 203.184ZM680.993 204.192C683.089 204.192 684.497 202.592 684.497 199.904C684.497 197.184 683.089 195.632 680.993 195.632C678.897 195.632 677.489 197.232 677.489 199.92C677.489 202.64 678.897 204.192 680.993 204.192ZM680.993 203.184C679.473 203.184 678.657 201.952 678.657 199.92C678.657 197.792 679.473 196.64 680.993 196.64C682.513 196.64 683.329 197.872 683.329 199.904C683.329 201.952 682.481 203.184 680.993 203.184ZM686.815 204H687.935V199.376C687.935 197.36 689.103 196.752 689.919 196.752C690.447 196.752 690.767 196.928 690.975 197.056L691.151 195.968C690.927 195.808 690.511 195.632 689.999 195.632C688.991 195.632 688.303 196.192 687.935 196.976V195.824H686.815V204ZM423.016 220.144C423.448 220.144 423.752 219.824 423.752 219.408C423.752 218.976 423.448 218.64 423.016 218.64C422.6 218.64 422.28 218.976 422.28 219.408C422.28 219.824 422.6 220.144 423.016 220.144ZM422.456 230H423.576V221.824H422.456V230ZM431.511 230H432.631V225.472C432.631 222.768 431.703 221.632 429.703 221.632C428.839 221.632 428.103 221.984 427.591 222.72V221.824H426.471V230H427.591V224.976C427.591 223.2 428.455 222.64 429.607 222.64C430.695 222.64 431.511 223.28 431.511 225.008V230ZM438.096 230.192C439.488 230.192 440.576 229.472 440.96 228.32L439.952 227.936C439.68 228.704 439.024 229.184 438.144 229.184C436.704 229.184 436.032 227.984 436.032 225.92C436.032 223.904 436.656 222.64 438.176 222.64C439.072 222.64 439.568 223.12 439.824 223.744L440.848 223.344C440.4 222.24 439.44 221.632 438.224 221.632C436.128 221.632 434.864 223.232 434.864 225.92C434.864 228.64 436.128 230.192 438.096 230.192ZM443.704 220.144C444.136 220.144 444.44 219.824 444.44 219.408C444.44 218.976 444.136 218.64 443.704 218.64C443.288 218.64 442.968 218.976 442.968 219.408C442.968 219.824 443.288 220.144 443.704 220.144ZM443.144 230H444.264V221.824H443.144V230ZM449.975 230.192C450.999 230.192 451.655 229.792 452.151 229.296V230H453.271V218.448L452.151 219.008V222.4C451.655 222 450.983 221.632 449.975 221.632C447.895 221.632 446.599 223.216 446.599 225.904C446.599 228.512 447.879 230.192 449.975 230.192ZM450.103 229.184C448.663 229.184 447.767 227.728 447.767 225.904C447.767 223.808 448.599 222.64 450.103 222.64C451.143 222.64 451.815 223.28 452.151 223.824V227.904C451.703 228.72 450.919 229.184 450.103 229.184ZM456.719 220.144C457.151 220.144 457.455 219.824 457.455 219.408C457.455 218.976 457.151 218.64 456.719 218.64C456.303 218.64 455.983 218.976 455.983 219.408C455.983 219.824 456.303 220.144 456.719 220.144ZM456.159 230H457.279V221.824H456.159V230ZM462.99 230.192C464.014 230.192 464.67 229.792 465.166 229.296V230H466.286V218.448L465.166 219.008V222.4C464.67 222 463.998 221.632 462.99 221.632C460.91 221.632 459.614 223.216 459.614 225.904C459.614 228.512 460.894 230.192 462.99 230.192ZM463.118 229.184C461.678 229.184 460.782 227.728 460.782 225.904C460.782 223.808 461.614 222.64 463.118 222.64C464.158 222.64 464.83 223.28 465.166 223.824V227.904C464.718 228.72 463.934 229.184 463.118 229.184ZM474.119 230H475.239V221.824H474.119V226.848C474.119 228.624 473.239 229.184 472.087 229.184C470.999 229.184 470.199 228.528 470.199 226.816V221.824H469.079V226.384C469.079 229.072 469.975 230.192 472.087 230.192C472.935 230.192 473.543 229.968 474.119 229.216V230ZM483.152 230H484.272V225.472C484.272 222.768 483.344 221.632 481.344 221.632C480.48 221.632 479.744 221.984 479.232 222.72V221.824H478.112V230H479.232V224.976C479.232 223.2 480.096 222.64 481.248 222.64C482.336 222.64 483.152 223.28 483.152 225.008V230ZM489.113 230.192C489.737 230.192 490.185 230.048 490.601 229.824L490.729 228.656C490.425 228.864 490.041 229.136 489.497 229.136C488.713 229.136 488.617 228.544 488.617 227.84V222.832H490.697V221.824H488.617V218.448L487.497 219.008V221.824H486.105V222.832H487.497V228.32C487.497 229.392 487.945 230.192 489.113 230.192ZM501.619 230H502.739V221.824H501.619V226.848C501.619 228.624 500.739 229.184 499.587 229.184C498.499 229.184 497.699 228.528 497.699 226.816V221.824H496.579V226.384C496.579 229.072 497.475 230.192 499.587 230.192C500.435 230.192 501.043 229.968 501.619 229.216V230ZM507.66 230.192C508.284 230.192 508.732 230.048 509.148 229.824L509.276 228.656C508.972 228.864 508.588 229.136 508.044 229.136C507.26 229.136 507.164 228.544 507.164 227.84V222.832H509.244V221.824H507.164V218.448L506.044 219.008V221.824H504.652V222.832H506.044V228.32C506.044 229.392 506.492 230.192 507.66 230.192ZM515.286 230H516.406V218.448L515.286 218.992V230ZM524.066 230H525.106V224.464C525.106 222.144 523.554 221.632 522.386 221.632C521.266 221.632 520.178 222.112 519.522 222.528L519.842 223.488C520.45 223.072 521.458 222.608 522.274 222.608C523.186 222.608 524.066 222.96 524.066 224.608V225.296C523.266 224.864 522.546 224.72 521.858 224.72C520.306 224.72 518.882 225.536 518.882 227.424C518.882 229.264 520.018 230.192 521.666 230.192C522.546 230.192 523.41 229.792 524.066 229.2V230ZM521.778 229.216C520.594 229.216 519.922 228.496 519.922 227.424C519.922 226.24 520.866 225.696 521.97 225.696C522.674 225.696 523.538 226.016 524.066 226.368V227.952C523.57 228.56 522.77 229.216 521.778 229.216ZM531.051 230.192C533.099 230.192 534.331 228.672 534.331 225.904C534.331 223.216 533.003 221.632 530.955 221.632C530.155 221.632 529.307 222.048 528.779 222.624V218.448L527.659 219.008V230H528.779V229.264C529.307 229.712 529.899 230.192 531.051 230.192ZM530.875 229.184C530.059 229.184 529.227 228.672 528.779 227.904V223.888C529.083 223.36 529.867 222.64 530.875 222.64C532.395 222.64 533.163 223.808 533.163 225.904C533.163 227.92 532.411 229.184 530.875 229.184ZM539.587 230.192C541.683 230.192 543.091 228.592 543.091 225.904C543.091 223.184 541.683 221.632 539.587 221.632C537.491 221.632 536.083 223.232 536.083 225.92C536.083 228.64 537.491 230.192 539.587 230.192ZM539.587 229.184C538.067 229.184 537.251 227.952 537.251 225.92C537.251 223.792 538.067 222.64 539.587 222.64C541.107 222.64 541.923 223.872 541.923 225.904C541.923 227.952 541.075 229.184 539.587 229.184ZM545.409 230H546.529V225.376C546.529 223.36 547.697 222.752 548.513 222.752C549.041 222.752 549.361 222.928 549.569 223.056L549.745 221.968C549.521 221.808 549.105 221.632 548.593 221.632C547.585 221.632 546.897 222.192 546.529 222.976V221.824H545.409V230ZM554.495 230.192C555.439 230.192 556.351 229.792 556.991 229.264L556.383 228.512C555.759 228.976 555.135 229.152 554.543 229.152C553.151 229.152 552.319 228.032 552.127 226.368H557.695C557.727 226.016 557.727 225.76 557.727 225.584C557.727 222.832 556.239 221.632 554.495 221.632C552.399 221.632 550.943 223.184 550.943 225.904C550.943 228.208 552.287 230.192 554.495 230.192ZM552.095 225.36C552.191 223.504 553.183 222.64 554.495 222.64C555.359 222.64 556.575 223.152 556.591 225.36H552.095ZM566.651 230.192C567.595 230.192 568.507 229.792 569.147 229.264L568.539 228.512C567.915 228.976 567.291 229.152 566.699 229.152C565.307 229.152 564.475 228.032 564.283 226.368H569.851C569.883 226.016 569.883 225.76 569.883 225.584C569.883 222.832 568.395 221.632 566.651 221.632C564.555 221.632 563.099 223.184 563.099 225.904C563.099 228.208 564.443 230.192 566.651 230.192ZM564.251 225.36C564.347 223.504 565.339 222.64 566.651 222.64C567.515 222.64 568.731 223.152 568.747 225.36H564.251ZM574.019 230.192C574.643 230.192 575.091 230.048 575.507 229.824L575.635 228.656C575.331 228.864 574.947 229.136 574.403 229.136C573.619 229.136 573.523 228.544 573.523 227.84V222.832H575.603V221.824H573.523V218.448L572.403 219.008V221.824H571.011V222.832H572.403V228.32C572.403 229.392 572.851 230.192 574.019 230.192ZM584.381 230.192C585.405 230.192 586.061 229.792 586.557 229.296V230H587.677V218.448L586.557 219.008V222.4C586.061 222 585.389 221.632 584.381 221.632C582.301 221.632 581.005 223.216 581.005 225.904C581.005 228.512 582.285 230.192 584.381 230.192ZM584.509 229.184C583.069 229.184 582.173 227.728 582.173 225.904C582.173 223.808 583.005 222.64 584.509 222.64C585.549 222.64 586.221 223.28 586.557 223.824V227.904C586.109 228.72 585.325 229.184 584.509 229.184ZM593.493 230.192C595.589 230.192 596.997 228.592 596.997 225.904C596.997 223.184 595.589 221.632 593.493 221.632C591.397 221.632 589.989 223.232 589.989 225.92C589.989 228.64 591.397 230.192 593.493 230.192ZM593.493 229.184C591.973 229.184 591.157 227.952 591.157 225.92C591.157 223.792 591.973 222.64 593.493 222.64C595.013 222.64 595.829 223.872 595.829 225.904C595.829 227.952 594.981 229.184 593.493 229.184ZM599.395 230H600.515V218.448L599.395 218.992V230ZM606.415 230.192C608.511 230.192 609.919 228.592 609.919 225.904C609.919 223.184 608.511 221.632 606.415 221.632C604.319 221.632 602.911 223.232 602.911 225.92C602.911 228.64 604.319 230.192 606.415 230.192ZM606.415 229.184C604.895 229.184 604.079 227.952 604.079 225.92C604.079 223.792 604.895 222.64 606.415 222.64C607.935 222.64 608.751 223.872 608.751 225.904C608.751 227.952 607.903 229.184 606.415 229.184ZM612.237 230H613.357V225.376C613.357 223.36 614.525 222.752 615.341 222.752C615.869 222.752 616.189 222.928 616.397 223.056L616.573 221.968C616.349 221.808 615.933 221.632 615.421 221.632C614.413 221.632 613.725 222.192 613.357 222.976V221.824H612.237V230ZM621.323 230.192C622.267 230.192 623.179 229.792 623.819 229.264L623.211 228.512C622.587 228.976 621.963 229.152 621.371 229.152C619.979 229.152 619.147 228.032 618.955 226.368H624.523C624.555 226.016 624.555 225.76 624.555 225.584C624.555 222.832 623.067 221.632 621.323 221.632C619.227 221.632 617.771 223.184 617.771 225.904C617.771 228.208 619.115 230.192 621.323 230.192ZM618.923 225.36C619.019 223.504 620.011 222.64 621.323 222.64C622.187 222.64 623.403 223.152 623.419 225.36H618.923ZM640.055 230H641.175V224.56C641.175 222.768 639.959 221.632 638.375 221.632C637.319 221.632 636.487 222.192 636.039 222.88C635.575 222.096 634.695 221.632 633.831 221.632C632.935 221.632 632.151 221.984 631.607 222.624V221.824H630.487V230H631.607V224.864C631.607 223.6 632.231 222.64 633.495 222.64C635.031 222.64 635.271 223.968 635.271 224.992V230H636.391V224.992C636.391 223.728 637.047 222.64 638.279 222.64C639.815 222.64 640.055 223.968 640.055 224.992V230ZM648.675 230H649.715V224.464C649.715 222.144 648.163 221.632 646.995 221.632C645.875 221.632 644.787 222.112 644.131 222.528L644.451 223.488C645.059 223.072 646.067 222.608 646.883 222.608C647.795 222.608 648.675 222.96 648.675 224.608V225.296C647.875 224.864 647.155 224.72 646.467 224.72C644.915 224.72 643.491 225.536 643.491 227.424C643.491 229.264 644.627 230.192 646.275 230.192C647.155 230.192 648.019 229.792 648.675 229.2V230ZM646.387 229.216C645.203 229.216 644.531 228.496 644.531 227.424C644.531 226.24 645.475 225.696 646.579 225.696C647.283 225.696 648.147 226.016 648.675 226.368V227.952C648.179 228.56 647.379 229.216 646.387 229.216ZM654.572 233.408C656.572 233.328 658.412 232.56 658.412 229.872V221.824H657.292V222.592C657.02 222.272 656.364 221.632 655.116 221.632C653.116 221.632 651.708 223.216 651.708 225.904C651.708 228.752 653.292 230.192 655.052 230.192C656.172 230.192 656.828 229.76 657.292 229.072V230.32C657.292 231.44 656.716 232.384 654.06 232.528L654.572 233.408ZM655.308 229.184C653.916 229.184 652.876 228 652.876 225.904C652.876 223.808 653.692 222.64 655.308 222.64C655.9 222.64 656.828 223.072 657.292 223.888V227.824C656.844 228.672 655.98 229.184 655.308 229.184ZM666.339 230H667.459V225.472C667.459 222.768 666.531 221.632 664.531 221.632C663.667 221.632 662.931 221.984 662.419 222.72V221.824H661.299V230H662.419V224.976C662.419 223.2 663.283 222.64 664.435 222.64C665.523 222.64 666.339 223.28 666.339 225.008V230ZM674.957 230H675.997V224.464C675.997 222.144 674.445 221.632 673.277 221.632C672.157 221.632 671.069 222.112 670.413 222.528L670.733 223.488C671.341 223.072 672.349 222.608 673.165 222.608C674.077 222.608 674.957 222.96 674.957 224.608V225.296C674.157 224.864 673.437 224.72 672.749 224.72C671.197 224.72 669.773 225.536 669.773 227.424C669.773 229.264 670.909 230.192 672.557 230.192C673.437 230.192 674.301 229.792 674.957 229.2V230ZM672.669 229.216C671.485 229.216 670.812 228.496 670.812 227.424C670.812 226.24 671.757 225.696 672.861 225.696C673.565 225.696 674.429 226.016 674.957 226.368V227.952C674.461 228.56 673.661 229.216 672.669 229.216ZM686.941 230H687.981V224.464C687.981 222.144 686.429 221.632 685.261 221.632C684.141 221.632 683.053 222.112 682.397 222.528L682.717 223.488C683.325 223.072 684.333 222.608 685.149 222.608C686.061 222.608 686.941 222.96 686.941 224.608V225.296C686.141 224.864 685.421 224.72 684.733 224.72C683.181 224.72 681.757 225.536 681.757 227.424C681.757 229.264 682.893 230.192 684.541 230.192C685.421 230.192 686.285 229.792 686.941 229.2V230ZM684.653 229.216C683.469 229.216 682.797 228.496 682.797 227.424C682.797 226.24 683.741 225.696 684.845 225.696C685.549 225.696 686.413 226.016 686.941 226.368V227.952C686.445 228.56 685.645 229.216 684.653 229.216ZM690.614 230H691.734V218.448L690.614 218.992V230ZM695.266 220.144C695.698 220.144 696.002 219.824 696.002 219.408C696.002 218.976 695.698 218.64 695.266 218.64C694.85 218.64 694.53 218.976 694.53 219.408C694.53 219.824 694.85 220.144 695.266 220.144ZM694.706 230H695.826V221.824H694.706V230ZM701.569 230.192C702.577 230.192 703.201 229.776 703.745 229.168V233.2L704.865 232.688V221.824H703.745V222.56C703.201 222.128 702.529 221.632 701.457 221.632C699.377 221.632 698.161 223.344 698.161 225.92C698.161 228.64 699.489 230.192 701.569 230.192ZM701.617 229.184C700.129 229.184 699.329 228.032 699.329 225.92C699.329 224.096 700.177 222.64 701.617 222.64C702.433 222.64 703.249 223.024 703.745 223.904V227.888C703.313 228.416 702.657 229.184 701.617 229.184ZM712.713 230H713.833V221.824H712.713V226.848C712.713 228.624 711.833 229.184 710.681 229.184C709.593 229.184 708.793 228.528 708.793 226.816V221.824H707.673V226.384C707.673 229.072 708.569 230.192 710.681 230.192C711.529 230.192 712.137 229.968 712.713 229.216V230ZM721.41 230H722.45V224.464C722.45 222.144 720.898 221.632 719.73 221.632C718.61 221.632 717.522 222.112 716.866 222.528L717.186 223.488C717.794 223.072 718.802 222.608 719.618 222.608C720.53 222.608 721.41 222.96 721.41 224.608V225.296C720.61 224.864 719.89 224.72 719.202 224.72C717.65 224.72 716.226 225.536 716.226 227.424C716.226 229.264 717.362 230.192 719.01 230.192C719.89 230.192 720.754 229.792 721.41 229.2V230ZM719.122 229.216C717.938 229.216 717.266 228.496 717.266 227.424C717.266 226.24 718.21 225.696 719.314 225.696C720.018 225.696 720.882 226.016 721.41 226.368V227.952C720.914 228.56 720.114 229.216 719.122 229.216ZM725.371 230.224C725.947 230.224 726.379 229.728 726.379 229.216C726.379 228.704 725.947 228.208 725.371 228.208C724.795 228.208 724.363 228.704 724.363 229.216C724.363 229.728 724.795 230.224 725.371 230.224Z" fill="#212B36"/>
<path d="M429.38 124.724H434.84V122.4H421.484V124.724H426.944V142H429.38V124.724ZM438.648 142H441.084V133.292C441.084 130.52 442.512 129.596 444.388 129.596C446.152 129.596 447.468 130.632 447.468 133.348V142H449.904V133.768C449.904 129.148 448.028 127.356 444.78 127.356C443.24 127.356 441.98 127.944 441.084 129.176V121.784L438.648 122.904V142ZM455.658 125.088C456.526 125.088 457.198 124.416 457.198 123.576C457.198 122.708 456.526 122.008 455.658 122.008C454.818 122.008 454.146 122.708 454.146 123.576C454.146 124.416 454.818 125.088 455.658 125.088ZM454.454 142H456.89V127.692H454.454V142ZM465.763 142.336C468.871 142.336 470.859 140.852 470.859 138.276C470.859 135.56 468.815 134.44 466.211 133.516C464.615 132.872 463.187 132.34 463.187 131.136C463.187 130.128 464.111 129.54 465.567 129.54C467.107 129.54 468.115 130.268 468.731 130.912L470.411 129.512C469.375 128.28 467.779 127.356 465.595 127.356C462.851 127.356 460.779 128.784 460.779 131.136C460.779 133.488 462.571 134.636 465.203 135.616C466.883 136.26 468.479 136.904 468.479 138.332C468.479 139.592 467.331 140.152 465.819 140.152C464.279 140.152 463.047 139.228 462.319 138.444L460.583 139.928C461.703 141.356 463.663 142.336 465.763 142.336ZM482.482 125.088C483.35 125.088 484.022 124.416 484.022 123.576C484.022 122.708 483.35 122.008 482.482 122.008C481.642 122.008 480.97 122.708 480.97 123.576C480.97 124.416 481.642 125.088 482.482 125.088ZM481.278 142H483.714V127.692H481.278V142ZM492.587 142.336C495.695 142.336 497.683 140.852 497.683 138.276C497.683 135.56 495.639 134.44 493.035 133.516C491.439 132.872 490.011 132.34 490.011 131.136C490.011 130.128 490.935 129.54 492.391 129.54C493.931 129.54 494.939 130.268 495.555 130.912L497.235 129.512C496.199 128.28 494.603 127.356 492.419 127.356C489.675 127.356 487.603 128.784 487.603 131.136C487.603 133.488 489.395 134.636 492.027 135.616C493.707 136.26 495.303 136.904 495.303 138.332C495.303 139.592 494.155 140.152 492.643 140.152C491.103 140.152 489.871 139.228 489.143 138.444L487.407 139.928C488.527 141.356 490.487 142.336 492.587 142.336ZM516.278 142H518.574V132.508C518.574 128.112 515.718 127.356 513.478 127.356C511.322 127.356 509.446 128.112 508.298 128.868L508.998 130.912C510.062 130.156 511.574 129.484 513.17 129.484C515.018 129.484 516.278 130.184 516.278 132.704V133.712C515.102 133.04 513.842 132.788 512.582 132.788C509.81 132.788 507.234 134.216 507.234 137.52C507.234 140.712 509.306 142.336 512.218 142.336C513.926 142.336 515.326 141.58 516.278 140.684V142ZM512.582 140.18C510.622 140.18 509.53 139.116 509.53 137.52C509.53 135.7 511.07 134.888 512.918 134.888C514.094 134.888 515.41 135.308 516.278 135.84V138.304C515.466 139.256 514.178 140.18 512.582 140.18ZM531.632 142H534.068V133.768C534.068 129.148 532.192 127.356 528.944 127.356C527.404 127.356 526.144 127.916 525.248 129.148V127.692H522.812V142H525.248V133.292C525.248 130.52 526.676 129.596 528.552 129.596C530.316 129.596 531.632 130.632 531.632 133.348V142ZM556.826 142H559.318L552.374 122.4H550.106L543.162 142H545.71L547.362 137.212H555.146L556.826 142ZM554.39 135.056H548.09L550.638 127.804C550.834 127.244 551.114 126.32 551.254 125.816C551.366 126.32 551.674 127.244 551.87 127.804L554.39 135.056ZM563.062 142H565.498V133.936C565.498 130.688 567.318 129.764 568.69 129.764C569.67 129.764 570.286 130.072 570.734 130.38L571.098 128.084C570.594 127.664 569.81 127.356 568.886 127.356C567.29 127.356 566.142 128.14 565.498 129.568V127.692H563.062V142ZM578.219 142.336C579.339 142.336 580.207 142.084 580.963 141.692L581.243 139.312C580.627 139.704 579.927 140.068 579.115 140.068C577.855 140.068 577.631 139.2 577.631 138.108V129.82H581.159V127.692H577.631V121.784L575.195 122.96V127.692H572.871V129.82H575.195V138.92C575.195 140.936 576.063 142.336 578.219 142.336ZM586.06 125.088C586.928 125.088 587.6 124.416 587.6 123.576C587.6 122.708 586.928 122.008 586.06 122.008C585.22 122.008 584.548 122.708 584.548 123.576C584.548 124.416 585.22 125.088 586.06 125.088ZM584.856 142H587.292V127.692H584.856V142ZM597.033 142.336C599.665 142.336 601.569 141.02 602.269 138.668L600.001 137.912C599.581 139.256 598.517 140.04 597.089 140.04C594.793 140.04 593.589 138.108 593.589 134.86C593.589 131.64 594.737 129.624 597.173 129.624C598.573 129.624 599.441 130.436 599.861 131.528L602.157 130.688C601.345 128.448 599.525 127.356 597.145 127.356C593.393 127.356 591.097 130.156 591.097 134.86C591.097 139.592 593.393 142.336 597.033 142.336ZM606.077 142H608.513V121.784L606.077 122.932V142ZM618.781 142.336C620.713 142.336 622.337 141.552 623.401 140.488L621.917 138.836C621.021 139.732 619.929 140.124 618.837 140.124C616.681 140.124 615.113 138.416 614.917 135.784H624.605C624.661 135.224 624.689 134.608 624.689 134.16C624.689 129.456 622.001 127.356 618.781 127.356C614.973 127.356 612.425 130.1 612.425 134.832C612.425 139.2 614.861 142.336 618.781 142.336ZM614.889 133.712C615.029 130.772 616.709 129.512 618.781 129.512C620.293 129.512 622.197 130.464 622.225 133.712H614.889ZM638.786 142.336C639.906 142.336 640.774 142.084 641.53 141.692L641.81 139.312C641.194 139.704 640.494 140.068 639.682 140.068C638.422 140.068 638.198 139.2 638.198 138.108V129.82H641.726V127.692H638.198V121.784L635.762 122.96V127.692H633.438V129.82H635.762V138.92C635.762 140.936 636.63 142.336 638.786 142.336ZM646.626 125.088C647.494 125.088 648.166 124.416 648.166 123.576C648.166 122.708 647.494 122.008 646.626 122.008C645.786 122.008 645.114 122.708 645.114 123.576C645.114 124.416 645.786 125.088 646.626 125.088ZM645.422 142H647.858V127.692H645.422V142ZM656.368 142.336C657.488 142.336 658.356 142.084 659.112 141.692L659.392 139.312C658.776 139.704 658.076 140.068 657.264 140.068C656.004 140.068 655.78 139.2 655.78 138.108V129.82H659.308V127.692H655.78V121.784L653.344 122.96V127.692H651.02V129.82H653.344V138.92C653.344 140.936 654.212 142.336 656.368 142.336ZM663.116 142H665.552V121.784L663.116 122.932V142ZM675.82 142.336C677.752 142.336 679.376 141.552 680.44 140.488L678.956 138.836C678.06 139.732 676.968 140.124 675.876 140.124C673.72 140.124 672.152 138.416 671.956 135.784H681.644C681.7 135.224 681.728 134.608 681.728 134.16C681.728 129.456 679.04 127.356 675.82 127.356C672.012 127.356 669.464 130.1 669.464 134.832C669.464 139.2 671.9 142.336 675.82 142.336ZM671.928 133.712C672.068 130.772 673.748 129.512 675.82 129.512C677.332 129.512 679.236 130.464 679.264 133.712H671.928Z" fill="#738394"/>
</svg>
