<svg width="762" height="351" viewBox="0 0 762 351" fill="none" xmlns="http://www.w3.org/2000/svg">
<rect opacity="0.2" x="1" y="1" width="378" height="349" rx="4" fill="#F5F5F5" stroke="#979797"/>
<rect width="76" height="76" transform="translate(152 138)" fill="white"/>
<path fill-rule="evenodd" clip-rule="evenodd" d="M179.094 190.274C179.094 184.165 183.977 179.214 190 179.214C196.023 179.214 200.906 184.165 200.906 190.274C200.906 196.382 196.023 201.333 190 201.333C183.977 201.333 179.094 196.382 179.094 190.274ZM190 183.491C186.307 183.491 183.312 186.528 183.312 190.274C183.312 194.019 186.307 197.056 190 197.056C193.694 197.056 196.688 194.019 196.688 190.274C196.688 186.528 193.694 183.491 190 183.491Z" fill="#212B36"/>
<path fill-rule="evenodd" clip-rule="evenodd" d="M161.5 167.08C161.5 162.943 164.807 159.589 168.887 159.589C172.967 159.589 176.274 162.943 176.274 167.08C176.274 171.218 172.967 174.572 168.887 174.572C164.807 174.572 161.5 171.218 161.5 167.08ZM168.887 163.866C167.137 163.866 165.718 165.305 165.718 167.08C165.718 168.855 167.137 170.294 168.887 170.294C170.638 170.294 172.056 168.855 172.056 167.08C172.056 165.305 170.638 163.866 168.887 163.866Z" fill="#212B36"/>
<path fill-rule="evenodd" clip-rule="evenodd" d="M203.726 167.08C203.726 162.943 207.033 159.589 211.113 159.589C215.193 159.589 218.5 162.943 218.5 167.08C218.5 171.218 215.193 174.572 211.113 174.572C207.033 174.572 203.726 171.218 203.726 167.08ZM211.113 163.866C209.363 163.866 207.944 165.305 207.944 167.08C207.944 168.855 209.363 170.294 211.113 170.294C212.863 170.294 214.282 168.855 214.282 167.08C214.282 165.305 212.863 163.866 211.113 163.866Z" fill="#212B36"/>
<path fill-rule="evenodd" clip-rule="evenodd" d="M182.612 158.158C182.612 154.021 185.92 150.667 190 150.667C194.079 150.667 197.387 154.021 197.387 158.158C197.387 162.296 194.079 165.65 190 165.65C185.92 165.65 182.612 162.296 182.612 158.158ZM190 154.944C188.249 154.944 186.83 156.383 186.83 158.158C186.83 159.933 188.249 161.372 190 161.372C191.75 161.372 193.169 159.933 193.169 158.158C193.169 156.383 191.75 154.944 190 154.944Z" fill="#212B36"/>
<path fill-rule="evenodd" clip-rule="evenodd" d="M187.891 181.323V162.619H192.109V181.323H187.891Z" fill="#212B36"/>
<path fill-rule="evenodd" clip-rule="evenodd" d="M193.347 182.575L205.719 170.028L208.702 173.053L196.33 185.599L193.347 182.575Z" fill="#212B36"/>
<path fill-rule="evenodd" clip-rule="evenodd" d="M186.489 182.575L174.117 170.028L171.135 173.053L183.507 185.599L186.489 182.575Z" fill="#212B36"/>
<rect width="76" height="76" transform="translate(529 138)" fill="white"/>
<path fill-rule="evenodd" clip-rule="evenodd" d="M556.094 190.274C556.094 184.165 560.977 179.214 567 179.214C573.023 179.214 577.906 184.165 577.906 190.274C577.906 196.382 573.023 201.333 567 201.333C560.977 201.333 556.094 196.382 556.094 190.274ZM567 183.491C563.307 183.491 560.312 186.528 560.312 190.274C560.312 194.019 563.307 197.056 567 197.056C570.694 197.056 573.688 194.019 573.688 190.274C573.688 186.528 570.694 183.491 567 183.491Z" fill="#212B36" stroke="#212B36" stroke-width="3" stroke-linejoin="round"/>
<path fill-rule="evenodd" clip-rule="evenodd" d="M538.5 167.08C538.5 162.943 541.807 159.589 545.887 159.589C549.967 159.589 553.274 162.943 553.274 167.08C553.274 171.218 549.967 174.572 545.887 174.572C541.807 174.572 538.5 171.218 538.5 167.08ZM545.887 163.866C544.137 163.866 542.718 165.305 542.718 167.08C542.718 168.855 544.137 170.294 545.887 170.294C547.638 170.294 549.056 168.855 549.056 167.08C549.056 165.305 547.638 163.866 545.887 163.866Z" fill="#212B36" stroke="#212B36" stroke-width="3" stroke-linejoin="round"/>
<path fill-rule="evenodd" clip-rule="evenodd" d="M580.726 167.08C580.726 162.943 584.033 159.589 588.113 159.589C592.193 159.589 595.5 162.943 595.5 167.08C595.5 171.218 592.193 174.572 588.113 174.572C584.033 174.572 580.726 171.218 580.726 167.08ZM588.113 163.866C586.363 163.866 584.944 165.305 584.944 167.08C584.944 168.855 586.363 170.294 588.113 170.294C589.863 170.294 591.282 168.855 591.282 167.08C591.282 165.305 589.863 163.866 588.113 163.866Z" fill="#212B36" stroke="#212B36" stroke-width="3" stroke-linejoin="round"/>
<path fill-rule="evenodd" clip-rule="evenodd" d="M559.612 158.158C559.612 154.021 562.92 150.667 567 150.667C571.079 150.667 574.387 154.021 574.387 158.158C574.387 162.296 571.079 165.65 567 165.65C562.92 165.65 559.612 162.296 559.612 158.158ZM567 154.944C565.249 154.944 563.83 156.383 563.83 158.158C563.83 159.933 565.249 161.372 567 161.372C568.75 161.372 570.169 159.933 570.169 158.158C570.169 156.383 568.75 154.944 567 154.944Z" fill="#212B36" stroke="#212B36" stroke-width="3" stroke-linejoin="round"/>
<path fill-rule="evenodd" clip-rule="evenodd" d="M564.891 181.323V162.619H569.109V181.323H564.891Z" fill="#212B36" stroke="#212B36" stroke-width="3" stroke-linejoin="round"/>
<path fill-rule="evenodd" clip-rule="evenodd" d="M570.347 182.575L582.719 170.028L585.702 173.053L573.33 185.599L570.347 182.575Z" fill="#212B36" stroke="#212B36" stroke-width="3" stroke-linejoin="round"/>
<path fill-rule="evenodd" clip-rule="evenodd" d="M563.489 182.575L551.117 170.028L548.135 173.053L560.507 185.599L563.489 182.575Z" fill="#212B36" stroke="#212B36" stroke-width="3" stroke-linejoin="round"/>
<path d="M355.359 17C348.818 17 343.564 22.1227 343.564 28.5C343.564 34.8773 348.818 40 355.359 40C361.9 40 367.154 34.8773 367.154 28.5C367.154 22.1227 361.9 17 355.359 17ZM362.168 24.8932L353.59 33.5705C353.483 33.675 353.375 33.7273 353.215 33.7273C353.054 33.7273 352.893 33.675 352.839 33.5705L348.657 29.1795L348.55 29.075C348.443 28.9705 348.389 28.8136 348.389 28.7091C348.389 28.6045 348.443 28.4477 348.55 28.3432L349.301 27.6114C349.515 27.4023 349.837 27.4023 350.051 27.6114L350.105 27.6636L353.054 30.7477C353.161 30.8523 353.322 30.8523 353.429 30.7477L360.613 23.4818H360.667C360.881 23.2727 361.203 23.2727 361.417 23.4818L362.168 24.2136C362.382 24.3705 362.382 24.6841 362.168 24.8932Z" fill="#2CC68F"/>
<path d="M1 5C1 2.79086 2.79086 1 5 1H375.462C377.671 1 379.462 2.79086 379.462 5H1Z" fill="#2CC68F"/>
<rect opacity="0.2" x="383" y="1" width="378" height="349" rx="4" fill="#F5F5F5" stroke="#979797"/>
<path d="M736.897 17C730.357 17 725.103 22.1227 725.103 28.5C725.103 34.8773 730.357 40 736.897 40C743.438 40 748.692 34.8773 748.692 28.5C748.692 22.1227 743.438 17 736.897 17ZM738.613 28.7091L742.634 32.6295C742.741 32.7341 742.795 32.8909 742.795 32.9955C742.795 33.1 742.741 33.2568 742.634 33.3614L741.883 34.0932C741.776 34.1977 741.615 34.25 741.508 34.25C741.347 34.25 741.24 34.1977 741.133 34.0932L737.112 30.1727C737.005 30.0682 736.844 30.0682 736.737 30.1727L732.716 34.0932C732.608 34.1977 732.448 34.25 732.34 34.25C732.179 34.25 732.072 34.1977 731.965 34.0932L731.214 33.3614C731.107 33.2568 731.054 33.1 731.054 32.9955C731.054 32.8909 731.107 32.7341 731.214 32.6295L735.235 28.7091C735.343 28.6045 735.343 28.4477 735.235 28.3432L731.214 24.4227C731.107 24.3182 731.054 24.1614 731.054 24.0568C731.054 23.9523 731.107 23.7955 731.214 23.6909L731.965 22.9591C732.072 22.8545 732.233 22.8023 732.34 22.8023C732.448 22.8023 732.608 22.8545 732.716 22.9591L736.737 26.8795C736.844 26.9841 737.005 26.9841 737.112 26.8795L741.133 22.9591C741.24 22.8545 741.401 22.8023 741.508 22.8023C741.669 22.8023 741.776 22.8545 741.883 22.9591L742.634 23.6909C742.741 23.7955 742.795 23.9523 742.795 24.0568C742.795 24.1614 742.741 24.3182 742.634 24.4227L738.613 28.3432C738.506 28.3955 738.506 28.6045 738.613 28.7091Z" fill="#FF6969"/>
<path d="M382.539 5C382.539 2.79086 384.329 1 386.539 1H757C759.209 1 761 2.79086 761 5H382.539Z" fill="#FF6969"/>
</svg>
