<svg width="759" height="166" viewBox="0 0 759 166" fill="none" xmlns="http://www.w3.org/2000/svg">
<rect x="0.5" y="29.5" width="758" height="68" stroke="#DDE4E9"/>
<path d="M25.6406 57.9609H28.8125C29.5573 57.9609 30.2135 58.0859 30.7812 58.3359C31.3542 58.5859 31.7995 58.9505 32.1172 59.4297C32.4349 59.9089 32.5938 60.4766 32.5938 61.1328C32.5938 61.7891 32.4375 62.3516 32.125 62.8203C31.8125 63.2891 31.3698 63.6458 30.7969 63.8906C30.2292 64.1302 29.5677 64.25 28.8125 64.25H27.0078V69H25.6406V57.9609ZM28.8125 62.9609C29.6198 62.9609 30.224 62.8073 30.625 62.5C31.026 62.1875 31.2266 61.7318 31.2266 61.1328C31.2266 60.5339 31.0208 60.0703 30.6094 59.7422C30.2031 59.4141 29.6042 59.25 28.8125 59.25H27.0078V62.9609H28.8125ZM34.2969 61.1953H35.5859V62.7266C35.7057 62.3672 35.888 62.0625 36.1328 61.8125C36.3776 61.5625 36.651 61.375 36.9531 61.25C37.2604 61.125 37.5729 61.0625 37.8906 61.0625C38.1302 61.0625 38.362 61.099 38.5859 61.1719C38.8099 61.2396 39.0078 61.3464 39.1797 61.4922L38.5703 62.5859C38.2891 62.4297 37.9974 62.3516 37.6953 62.3516C37.3411 62.3516 37.0026 62.4531 36.6797 62.6562C36.3568 62.8594 36.0911 63.1797 35.8828 63.6172C35.6797 64.0495 35.5781 64.5911 35.5781 65.2422V69H34.2969V61.1953ZM43.2031 69.1328C42.4583 69.1328 41.7943 68.9531 41.2109 68.5938C40.6276 68.2292 40.1719 67.7396 39.8438 67.125C39.5208 66.5052 39.3594 65.8229 39.3594 65.0781C39.3594 64.3385 39.5208 63.6641 39.8438 63.0547C40.1719 62.4401 40.6276 61.9557 41.2109 61.6016C41.7943 61.2422 42.4583 61.0625 43.2031 61.0625C43.9479 61.0625 44.612 61.2422 45.1953 61.6016C45.7839 61.9557 46.2422 62.4401 46.5703 63.0547C46.8984 63.6693 47.0625 64.3438 47.0625 65.0781C47.0625 65.8229 46.8984 66.5052 46.5703 67.125C46.2422 67.7396 45.7839 68.2292 45.1953 68.5938C44.612 68.9531 43.9479 69.1328 43.2031 69.1328ZM43.2031 67.9844C43.724 67.9844 44.1719 67.8542 44.5469 67.5938C44.9219 67.3333 45.2057 66.9844 45.3984 66.5469C45.5911 66.1042 45.6875 65.6146 45.6875 65.0781C45.6875 64.5469 45.5911 64.0651 45.3984 63.6328C45.2057 63.1953 44.9219 62.849 44.5469 62.5938C44.1719 62.3385 43.724 62.2109 43.2031 62.2109C42.6875 62.2109 42.2422 62.3385 41.8672 62.5938C41.4974 62.8438 41.2161 63.1875 41.0234 63.625C40.8307 64.0573 40.7344 64.5417 40.7344 65.0781C40.7344 65.6146 40.8307 66.1042 41.0234 66.5469C41.2161 66.9896 41.4974 67.3411 41.8672 67.6016C42.2422 67.8568 42.6875 67.9844 43.2031 67.9844ZM51.8047 69.1328C51.112 69.1328 50.5052 68.9531 49.9844 68.5938C49.4635 68.2292 49.0625 67.7396 48.7812 67.125C48.5 66.5104 48.3594 65.8333 48.3594 65.0938C48.3594 64.3594 48.4974 63.6849 48.7734 63.0703C49.0547 62.4557 49.4531 61.9688 49.9688 61.6094C50.4896 61.2448 51.0938 61.0625 51.7812 61.0625C52.3385 61.0625 52.849 61.1979 53.3125 61.4688C53.7812 61.7396 54.1406 62.1172 54.3906 62.6016V57.9609H55.7344V69H54.5L54.4453 67.5234C54.1953 68.0339 53.8333 68.4297 53.3594 68.7109C52.8906 68.9922 52.3724 69.1328 51.8047 69.1328ZM52.1172 67.9297C52.612 67.9297 53.0391 67.8073 53.3984 67.5625C53.7578 67.3177 54.0312 66.9818 54.2188 66.5547C54.4062 66.1224 54.5 65.6354 54.5 65.0938C54.5 64.5573 54.4062 64.0755 54.2188 63.6484C54.0312 63.2161 53.7578 62.8776 53.3984 62.6328C53.0391 62.388 52.612 62.2656 52.1172 62.2656C51.6224 62.2656 51.1927 62.3906 50.8281 62.6406C50.4635 62.8854 50.1849 63.224 49.9922 63.6562C49.7995 64.0833 49.7031 64.5625 49.7031 65.0938C49.7031 65.6302 49.7995 66.1146 49.9922 66.5469C50.1849 66.974 50.4635 67.3125 50.8281 67.5625C51.1927 67.8073 51.6224 67.9297 52.1172 67.9297ZM60.8672 69.1328C60.2578 69.1328 59.7474 68.9974 59.3359 68.7266C58.9297 68.4505 58.6276 68.0807 58.4297 67.6172C58.2318 67.1484 58.1276 66.625 58.1172 66.0469V61.1953H59.4297V65.8125C59.4297 66.4688 59.5833 66.9818 59.8906 67.3516C60.1979 67.7214 60.6432 67.9062 61.2266 67.9062C61.862 67.9062 62.3594 67.7188 62.7188 67.3438C63.0833 66.9635 63.2656 66.4141 63.2656 65.6953V61.1953H64.5781V69H63.2656V67.8125C63.0104 68.2448 62.6693 68.5729 62.2422 68.7969C61.8151 69.0208 61.3568 69.1328 60.8672 69.1328ZM70.1016 69.1328C69.3464 69.1328 68.6979 68.9531 68.1562 68.5938C67.6146 68.2292 67.2031 67.7422 66.9219 67.1328C66.6406 66.5182 66.5 65.8438 66.5 65.1094C66.5 64.401 66.6354 63.7396 66.9062 63.125C67.1771 62.5052 67.5807 62.0078 68.1172 61.6328C68.6589 61.2526 69.3151 61.0625 70.0859 61.0625C70.8255 61.0625 71.474 61.25 72.0312 61.625C72.5938 61.9948 73.0182 62.5391 73.3047 63.2578L72.0469 63.75C71.8906 63.2917 71.638 62.9297 71.2891 62.6641C70.9453 62.3984 70.5443 62.2656 70.0859 62.2656C69.5911 62.2656 69.1745 62.3984 68.8359 62.6641C68.4974 62.9245 68.2474 63.2708 68.0859 63.7031C67.9245 64.1354 67.8438 64.6042 67.8438 65.1094C67.8438 65.6198 67.9245 66.0885 68.0859 66.5156C68.2474 66.9427 68.4948 67.2865 68.8281 67.5469C69.1667 67.8021 69.5859 67.9297 70.0859 67.9297C70.5495 67.9297 70.9531 67.7995 71.2969 67.5391C71.6406 67.2734 71.8828 66.9167 72.0234 66.4688L73.2266 66.9219C72.9818 67.6198 72.5833 68.1641 72.0312 68.5547C71.4844 68.9401 70.8411 69.1328 70.1016 69.1328ZM77.5625 69.1328C76.849 69.1328 76.2995 68.9323 75.9141 68.5312C75.5286 68.125 75.3359 67.5547 75.3359 66.8203V62.3125H74.0469V61.1953H75.3516V59.0391L76.6562 58.0859V61.1953H78.7656V62.3125H76.6562V66.6016C76.6562 67.0807 76.75 67.4271 76.9375 67.6406C77.1302 67.8542 77.4141 67.9609 77.7891 67.9609C77.9557 67.9609 78.125 67.9401 78.2969 67.8984C78.474 67.8516 78.6276 67.7995 78.7578 67.7422L78.7656 68.9453C78.6302 68.9974 78.4531 69.0417 78.2344 69.0781C78.0156 69.1146 77.7917 69.1328 77.5625 69.1328ZM80.6875 57.9609H82.0703V59.6172H80.6875V57.9609ZM80.7188 61.1953H82.0391V69H80.7188V61.1953ZM83.5078 61.1953H84.9531L87.25 67.3047L89.5547 61.1953H91L87.8047 69H86.6953L83.5078 61.1953ZM95.3281 69.1328C94.5312 69.1328 93.8516 68.9557 93.2891 68.6016C92.7266 68.2474 92.3021 67.7682 92.0156 67.1641C91.7292 66.5547 91.5859 65.8776 91.5859 65.1328C91.5859 64.3984 91.724 63.7214 92 63.1016C92.276 62.4818 92.6849 61.987 93.2266 61.6172C93.7734 61.2474 94.4297 61.0625 95.1953 61.0625C96.013 61.0625 96.6797 61.25 97.1953 61.625C97.7161 62 98.0911 62.4714 98.3203 63.0391C98.5495 63.6016 98.6641 64.1797 98.6641 64.7734C98.6641 64.9141 98.6562 65.0547 98.6406 65.1953C98.6302 65.3307 98.6172 65.4297 98.6016 65.4922H92.9844C93.0365 66.2578 93.2604 66.8568 93.6562 67.2891C94.0573 67.7161 94.6172 67.9297 95.3359 67.9297C95.7734 67.9297 96.1615 67.8594 96.5 67.7188C96.8385 67.5729 97.1667 67.3307 97.4844 66.9922L98.4062 67.7969C97.974 68.2604 97.5104 68.599 97.0156 68.8125C96.526 69.026 95.9635 69.1328 95.3281 69.1328ZM97.3516 64.5234C97.3516 64.2995 97.3411 64.1354 97.3203 64.0312C97.2734 63.6927 97.1615 63.3854 96.9844 63.1094C96.8125 62.8281 96.5729 62.6042 96.2656 62.4375C95.9635 62.2656 95.6042 62.1797 95.1875 62.1797C94.5469 62.1797 94.0391 62.3932 93.6641 62.8203C93.2891 63.2422 93.0625 63.8099 92.9844 64.5234H97.3516Z" fill="#161616"/>
<path d="M260.641 55.9609H263.812C264.557 55.9609 265.214 56.0859 265.781 56.3359C266.354 56.5859 266.799 56.9505 267.117 57.4297C267.435 57.9089 267.594 58.4766 267.594 59.1328C267.594 59.7891 267.438 60.3516 267.125 60.8203C266.812 61.2891 266.37 61.6458 265.797 61.8906C265.229 62.1302 264.568 62.25 263.812 62.25H262.008V67H260.641V55.9609ZM263.812 60.9609C264.62 60.9609 265.224 60.8073 265.625 60.5C266.026 60.1875 266.227 59.7318 266.227 59.1328C266.227 58.5339 266.021 58.0703 265.609 57.7422C265.203 57.4141 264.604 57.25 263.812 57.25H262.008V60.9609H263.812ZM269.297 59.1953H270.586V60.7266C270.706 60.3672 270.888 60.0625 271.133 59.8125C271.378 59.5625 271.651 59.375 271.953 59.25C272.26 59.125 272.573 59.0625 272.891 59.0625C273.13 59.0625 273.362 59.099 273.586 59.1719C273.81 59.2396 274.008 59.3464 274.18 59.4922L273.57 60.5859C273.289 60.4297 272.997 60.3516 272.695 60.3516C272.341 60.3516 272.003 60.4531 271.68 60.6562C271.357 60.8594 271.091 61.1797 270.883 61.6172C270.68 62.0495 270.578 62.5911 270.578 63.2422V67H269.297V59.1953ZM278.203 67.1328C277.458 67.1328 276.794 66.9531 276.211 66.5938C275.628 66.2292 275.172 65.7396 274.844 65.125C274.521 64.5052 274.359 63.8229 274.359 63.0781C274.359 62.3385 274.521 61.6641 274.844 61.0547C275.172 60.4401 275.628 59.9557 276.211 59.6016C276.794 59.2422 277.458 59.0625 278.203 59.0625C278.948 59.0625 279.612 59.2422 280.195 59.6016C280.784 59.9557 281.242 60.4401 281.57 61.0547C281.898 61.6693 282.062 62.3438 282.062 63.0781C282.062 63.8229 281.898 64.5052 281.57 65.125C281.242 65.7396 280.784 66.2292 280.195 66.5938C279.612 66.9531 278.948 67.1328 278.203 67.1328ZM278.203 65.9844C278.724 65.9844 279.172 65.8542 279.547 65.5938C279.922 65.3333 280.206 64.9844 280.398 64.5469C280.591 64.1042 280.688 63.6146 280.688 63.0781C280.688 62.5469 280.591 62.0651 280.398 61.6328C280.206 61.1953 279.922 60.849 279.547 60.5938C279.172 60.3385 278.724 60.2109 278.203 60.2109C277.688 60.2109 277.242 60.3385 276.867 60.5938C276.497 60.8438 276.216 61.1875 276.023 61.625C275.831 62.0573 275.734 62.5417 275.734 63.0781C275.734 63.6146 275.831 64.1042 276.023 64.5469C276.216 64.9896 276.497 65.3411 276.867 65.6016C277.242 65.8568 277.688 65.9844 278.203 65.9844ZM286.805 67.1328C286.112 67.1328 285.505 66.9531 284.984 66.5938C284.464 66.2292 284.062 65.7396 283.781 65.125C283.5 64.5104 283.359 63.8333 283.359 63.0938C283.359 62.3594 283.497 61.6849 283.773 61.0703C284.055 60.4557 284.453 59.9688 284.969 59.6094C285.49 59.2448 286.094 59.0625 286.781 59.0625C287.339 59.0625 287.849 59.1979 288.312 59.4688C288.781 59.7396 289.141 60.1172 289.391 60.6016V55.9609H290.734V67H289.5L289.445 65.5234C289.195 66.0339 288.833 66.4297 288.359 66.7109C287.891 66.9922 287.372 67.1328 286.805 67.1328ZM287.117 65.9297C287.612 65.9297 288.039 65.8073 288.398 65.5625C288.758 65.3177 289.031 64.9818 289.219 64.5547C289.406 64.1224 289.5 63.6354 289.5 63.0938C289.5 62.5573 289.406 62.0755 289.219 61.6484C289.031 61.2161 288.758 60.8776 288.398 60.6328C288.039 60.388 287.612 60.2656 287.117 60.2656C286.622 60.2656 286.193 60.3906 285.828 60.6406C285.464 60.8854 285.185 61.224 284.992 61.6562C284.799 62.0833 284.703 62.5625 284.703 63.0938C284.703 63.6302 284.799 64.1146 284.992 64.5469C285.185 64.974 285.464 65.3125 285.828 65.5625C286.193 65.8073 286.622 65.9297 287.117 65.9297ZM295.867 67.1328C295.258 67.1328 294.747 66.9974 294.336 66.7266C293.93 66.4505 293.628 66.0807 293.43 65.6172C293.232 65.1484 293.128 64.625 293.117 64.0469V59.1953H294.43V63.8125C294.43 64.4688 294.583 64.9818 294.891 65.3516C295.198 65.7214 295.643 65.9062 296.227 65.9062C296.862 65.9062 297.359 65.7188 297.719 65.3438C298.083 64.9635 298.266 64.4141 298.266 63.6953V59.1953H299.578V67H298.266V65.8125C298.01 66.2448 297.669 66.5729 297.242 66.7969C296.815 67.0208 296.357 67.1328 295.867 67.1328ZM305.102 67.1328C304.346 67.1328 303.698 66.9531 303.156 66.5938C302.615 66.2292 302.203 65.7422 301.922 65.1328C301.641 64.5182 301.5 63.8438 301.5 63.1094C301.5 62.401 301.635 61.7396 301.906 61.125C302.177 60.5052 302.581 60.0078 303.117 59.6328C303.659 59.2526 304.315 59.0625 305.086 59.0625C305.826 59.0625 306.474 59.25 307.031 59.625C307.594 59.9948 308.018 60.5391 308.305 61.2578L307.047 61.75C306.891 61.2917 306.638 60.9297 306.289 60.6641C305.945 60.3984 305.544 60.2656 305.086 60.2656C304.591 60.2656 304.174 60.3984 303.836 60.6641C303.497 60.9245 303.247 61.2708 303.086 61.7031C302.924 62.1354 302.844 62.6042 302.844 63.1094C302.844 63.6198 302.924 64.0885 303.086 64.5156C303.247 64.9427 303.495 65.2865 303.828 65.5469C304.167 65.8021 304.586 65.9297 305.086 65.9297C305.549 65.9297 305.953 65.7995 306.297 65.5391C306.641 65.2734 306.883 64.9167 307.023 64.4688L308.227 64.9219C307.982 65.6198 307.583 66.1641 307.031 66.5547C306.484 66.9401 305.841 67.1328 305.102 67.1328ZM312.562 67.1328C311.849 67.1328 311.299 66.9323 310.914 66.5312C310.529 66.125 310.336 65.5547 310.336 64.8203V60.3125H309.047V59.1953H310.352V57.0391L311.656 56.0859V59.1953H313.766V60.3125H311.656V64.6016C311.656 65.0807 311.75 65.4271 311.938 65.6406C312.13 65.8542 312.414 65.9609 312.789 65.9609C312.956 65.9609 313.125 65.9401 313.297 65.8984C313.474 65.8516 313.628 65.7995 313.758 65.7422L313.766 66.9453C313.63 66.9974 313.453 67.0417 313.234 67.0781C313.016 67.1146 312.792 67.1328 312.562 67.1328ZM315.688 55.9609H317.07V57.6172H315.688V55.9609ZM315.719 59.1953H317.039V67H315.719V59.1953ZM318.508 59.1953H319.953L322.25 65.3047L324.555 59.1953H326L322.805 67H321.695L318.508 59.1953ZM330.328 67.1328C329.531 67.1328 328.852 66.9557 328.289 66.6016C327.727 66.2474 327.302 65.7682 327.016 65.1641C326.729 64.5547 326.586 63.8776 326.586 63.1328C326.586 62.3984 326.724 61.7214 327 61.1016C327.276 60.4818 327.685 59.987 328.227 59.6172C328.773 59.2474 329.43 59.0625 330.195 59.0625C331.013 59.0625 331.68 59.25 332.195 59.625C332.716 60 333.091 60.4714 333.32 61.0391C333.549 61.6016 333.664 62.1797 333.664 62.7734C333.664 62.9141 333.656 63.0547 333.641 63.1953C333.63 63.3307 333.617 63.4297 333.602 63.4922H327.984C328.036 64.2578 328.26 64.8568 328.656 65.2891C329.057 65.7161 329.617 65.9297 330.336 65.9297C330.773 65.9297 331.161 65.8594 331.5 65.7188C331.839 65.5729 332.167 65.3307 332.484 64.9922L333.406 65.7969C332.974 66.2604 332.51 66.599 332.016 66.8125C331.526 67.026 330.964 67.1328 330.328 67.1328ZM332.352 62.5234C332.352 62.2995 332.341 62.1354 332.32 62.0312C332.273 61.6927 332.161 61.3854 331.984 61.1094C331.812 60.8281 331.573 60.6042 331.266 60.4375C330.964 60.2656 330.604 60.1797 330.188 60.1797C329.547 60.1797 329.039 60.3932 328.664 60.8203C328.289 61.2422 328.062 61.8099 327.984 62.5234H332.352Z" fill="#7546F2"/>
<path d="M4.58594 14.1094C3.9349 14.1094 3.32812 13.9896 2.76562 13.75C2.20312 13.5104 1.73177 13.1589 1.35156 12.6953C0.971354 12.2266 0.726562 11.6641 0.617188 11.0078L1.97656 10.6641C2.07031 11.3828 2.35417 11.9323 2.82812 12.3125C3.30729 12.6927 3.90104 12.8828 4.60938 12.8828C5.0625 12.8828 5.45833 12.8021 5.79688 12.6406C6.14062 12.4792 6.40365 12.2578 6.58594 11.9766C6.76823 11.6953 6.85938 11.3776 6.85938 11.0234C6.85938 10.6328 6.7474 10.3021 6.52344 10.0312C6.29948 9.76042 6.02344 9.54167 5.69531 9.375C5.36719 9.20312 4.91927 9.00521 4.35156 8.78125C3.6849 8.52083 3.15104 8.28125 2.75 8.0625C2.34896 7.84375 2.00521 7.54427 1.71875 7.16406C1.4375 6.77865 1.29688 6.29688 1.29688 5.71875C1.29688 5.13542 1.4401 4.625 1.72656 4.1875C2.01302 3.75 2.40104 3.41406 2.89062 3.17969C3.38542 2.94531 3.92969 2.82812 4.52344 2.82812C5.22135 2.82812 5.84115 2.97917 6.38281 3.28125C6.92969 3.57812 7.3776 4.03646 7.72656 4.65625L6.58594 5.35938C6.11719 4.48958 5.41406 4.05469 4.47656 4.05469C4.13802 4.05469 3.83073 4.125 3.55469 4.26562C3.28385 4.40104 3.06771 4.59115 2.90625 4.83594C2.75 5.07552 2.67188 5.34896 2.67188 5.65625C2.67188 6 2.77604 6.29167 2.98438 6.53125C3.19271 6.76562 3.45052 6.96094 3.75781 7.11719C4.07031 7.27344 4.4974 7.45573 5.03906 7.66406C5.72656 7.92969 6.28125 8.17708 6.70312 8.40625C7.125 8.63542 7.48438 8.95573 7.78125 9.36719C8.08333 9.77344 8.23438 10.2865 8.23438 10.9062C8.23438 11.5417 8.07292 12.1016 7.75 12.5859C7.43229 13.0703 6.99479 13.4453 6.4375 13.7109C5.88542 13.9766 5.26823 14.1094 4.58594 14.1094ZM12.7656 14.1328C12.0521 14.1328 11.5026 13.9323 11.1172 13.5312C10.7318 13.125 10.5391 12.5547 10.5391 11.8203V7.3125H9.25V6.19531H10.5547V4.03906L11.8594 3.08594V6.19531H13.9688V7.3125H11.8594V11.6016C11.8594 12.0807 11.9531 12.4271 12.1406 12.6406C12.3333 12.8542 12.6172 12.9609 12.9922 12.9609C13.1589 12.9609 13.3281 12.9401 13.5 12.8984C13.6771 12.8516 13.8307 12.7995 13.9609 12.7422L13.9688 13.9453C13.8333 13.9974 13.6562 14.0417 13.4375 14.0781C13.2188 14.1146 12.9948 14.1328 12.7656 14.1328ZM18.1641 13.8672L14.9297 6.19531H16.3906L18.8672 12.3359L21.1328 6.19531H22.5859L18.2422 17.3516H16.7969L18.1641 13.8672ZM25.5391 14.1328C25.0182 14.1328 24.6354 13.9922 24.3906 13.7109C24.151 13.4245 24.0312 12.9818 24.0312 12.3828V2.96094H25.3594V12.0312C25.3594 12.3229 25.4141 12.5469 25.5234 12.7031C25.6328 12.8594 25.8359 12.9375 26.1328 12.9375C26.2943 12.9375 26.4948 12.9167 26.7344 12.875L26.7422 13.9922C26.3099 14.0859 25.9089 14.1328 25.5391 14.1328ZM31.5312 14.1328C30.7344 14.1328 30.0547 13.9557 29.4922 13.6016C28.9297 13.2474 28.5052 12.7682 28.2188 12.1641C27.9323 11.5547 27.7891 10.8776 27.7891 10.1328C27.7891 9.39844 27.9271 8.72135 28.2031 8.10156C28.4792 7.48177 28.888 6.98698 29.4297 6.61719C29.9766 6.2474 30.6328 6.0625 31.3984 6.0625C32.2161 6.0625 32.8828 6.25 33.3984 6.625C33.9193 7 34.2943 7.47135 34.5234 8.03906C34.7526 8.60156 34.8672 9.17969 34.8672 9.77344C34.8672 9.91406 34.8594 10.0547 34.8438 10.1953C34.8333 10.3307 34.8203 10.4297 34.8047 10.4922H29.1875C29.2396 11.2578 29.4635 11.8568 29.8594 12.2891C30.2604 12.7161 30.8203 12.9297 31.5391 12.9297C31.9766 12.9297 32.3646 12.8594 32.7031 12.7188C33.0417 12.5729 33.3698 12.3307 33.6875 11.9922L34.6094 12.7969C34.1771 13.2604 33.7135 13.599 33.2188 13.8125C32.7292 14.026 32.1667 14.1328 31.5312 14.1328ZM33.5547 9.52344C33.5547 9.29948 33.5443 9.13542 33.5234 9.03125C33.4766 8.69271 33.3646 8.38542 33.1875 8.10938C33.0156 7.82812 32.776 7.60417 32.4688 7.4375C32.1667 7.26562 31.8073 7.17969 31.3906 7.17969C30.75 7.17969 30.2422 7.39323 29.8672 7.82031C29.4922 8.24219 29.2656 8.8099 29.1875 9.52344H33.5547Z" fill="#637381"/>
<path d="M268.586 2.96094V14H267.164L261.969 5.19531V14H260.641V2.96094H262.047L267.258 11.7422V2.96094H268.586ZM274.211 6.0625C274.883 6.0625 275.458 6.19271 275.938 6.45312C276.422 6.70833 276.789 7.07552 277.039 7.55469C277.289 8.03385 277.414 8.59635 277.414 9.24219V14H276.312L276.227 12.6094C275.961 13.099 275.583 13.4766 275.094 13.7422C274.604 14.0026 274.081 14.1328 273.523 14.1328C272.992 14.1328 272.518 14.0365 272.102 13.8438C271.69 13.6458 271.367 13.3646 271.133 13C270.898 12.6302 270.781 12.1927 270.781 11.6875C270.781 10.9115 271.062 10.3464 271.625 9.99219C272.193 9.63281 272.984 9.45312 274 9.45312H276.211C276.206 8.93229 276.141 8.51042 276.016 8.1875C275.891 7.85938 275.682 7.61719 275.391 7.46094C275.104 7.29948 274.716 7.21875 274.227 7.21875C273.336 7.21875 272.628 7.625 272.102 8.4375L271.086 7.70312C271.482 7.16146 271.93 6.7526 272.43 6.47656C272.93 6.20052 273.523 6.0625 274.211 6.0625ZM273.781 13C274.417 13 274.945 12.8099 275.367 12.4297C275.794 12.0443 276.076 11.5443 276.211 10.9297V10.4219H274.078C273.438 10.4219 272.953 10.5391 272.625 10.7734C272.302 11.0078 272.141 11.3281 272.141 11.7344C272.141 12.1198 272.284 12.4271 272.57 12.6562C272.857 12.8854 273.26 13 273.781 13ZM279.812 6.19531H281.094V7.42188C281.312 6.96354 281.62 6.6224 282.016 6.39844C282.411 6.17448 282.862 6.0625 283.367 6.0625C283.93 6.0625 284.419 6.19531 284.836 6.46094C285.253 6.72135 285.552 7.125 285.734 7.67188C285.984 7.13542 286.331 6.73438 286.773 6.46875C287.221 6.19792 287.727 6.0625 288.289 6.0625C288.904 6.0625 289.414 6.20573 289.82 6.49219C290.227 6.77865 290.526 7.17188 290.719 7.67188C290.917 8.17188 291.016 8.7474 291.016 9.39844V14H289.688V9.55469C289.688 8.82031 289.557 8.26042 289.297 7.875C289.042 7.48958 288.62 7.29688 288.031 7.29688C287.641 7.29688 287.297 7.39323 287 7.58594C286.703 7.77344 286.474 8.03385 286.312 8.36719C286.156 8.69531 286.078 9.06771 286.078 9.48438V14H284.758V9.35938C284.758 8.70833 284.625 8.20312 284.359 7.84375C284.094 7.47917 283.677 7.29688 283.109 7.29688C282.714 7.29688 282.367 7.39323 282.07 7.58594C281.773 7.77344 281.544 8.03385 281.383 8.36719C281.227 8.69531 281.148 9.06771 281.148 9.48438V14H279.82L279.812 6.19531ZM296.516 14.1328C295.719 14.1328 295.039 13.9557 294.477 13.6016C293.914 13.2474 293.49 12.7682 293.203 12.1641C292.917 11.5547 292.773 10.8776 292.773 10.1328C292.773 9.39844 292.911 8.72135 293.188 8.10156C293.464 7.48177 293.872 6.98698 294.414 6.61719C294.961 6.2474 295.617 6.0625 296.383 6.0625C297.201 6.0625 297.867 6.25 298.383 6.625C298.904 7 299.279 7.47135 299.508 8.03906C299.737 8.60156 299.852 9.17969 299.852 9.77344C299.852 9.91406 299.844 10.0547 299.828 10.1953C299.818 10.3307 299.805 10.4297 299.789 10.4922H294.172C294.224 11.2578 294.448 11.8568 294.844 12.2891C295.245 12.7161 295.805 12.9297 296.523 12.9297C296.961 12.9297 297.349 12.8594 297.688 12.7188C298.026 12.5729 298.354 12.3307 298.672 11.9922L299.594 12.7969C299.161 13.2604 298.698 13.599 298.203 13.8125C297.714 14.026 297.151 14.1328 296.516 14.1328ZM298.539 9.52344C298.539 9.29948 298.529 9.13542 298.508 9.03125C298.461 8.69271 298.349 8.38542 298.172 8.10938C298 7.82812 297.76 7.60417 297.453 7.4375C297.151 7.26562 296.792 7.17969 296.375 7.17969C295.734 7.17969 295.227 7.39323 294.852 7.82031C294.477 8.24219 294.25 8.8099 294.172 9.52344H298.539Z" fill="#637381"/>
<path d="M482.023 14.1328C480.924 14.1328 479.99 13.888 479.219 13.3984C478.448 12.9036 477.87 12.2292 477.484 11.375C477.099 10.5208 476.906 9.55208 476.906 8.46875C476.906 7.38021 477.099 6.41146 477.484 5.5625C477.875 4.70833 478.456 4.03646 479.227 3.54688C480.003 3.05729 480.948 2.8125 482.062 2.8125C483.151 2.8125 484.086 3.07031 484.867 3.58594C485.648 4.10156 486.247 4.85938 486.664 5.85938L485.375 6.375C485.125 5.59896 484.719 5.03125 484.156 4.67188C483.599 4.30729 482.896 4.125 482.047 4.125C481.219 4.125 480.521 4.30469 479.953 4.66406C479.391 5.02344 478.969 5.52604 478.688 6.17188C478.411 6.8125 478.273 7.5599 478.273 8.41406C478.273 9.27344 478.406 10.0339 478.672 10.6953C478.938 11.3516 479.349 11.8698 479.906 12.25C480.469 12.6302 481.174 12.8203 482.023 12.8203C482.852 12.8203 483.539 12.638 484.086 12.2734C484.638 11.9089 485.078 11.3333 485.406 10.5469L486.68 11.0703C486.247 12.0703 485.633 12.8307 484.836 13.3516C484.044 13.8724 483.107 14.1328 482.023 14.1328ZM491.898 14.1094C491.247 14.1094 490.641 13.9896 490.078 13.75C489.516 13.5104 489.044 13.1589 488.664 12.6953C488.284 12.2266 488.039 11.6641 487.93 11.0078L489.289 10.6641C489.383 11.3828 489.667 11.9323 490.141 12.3125C490.62 12.6927 491.214 12.8828 491.922 12.8828C492.375 12.8828 492.771 12.8021 493.109 12.6406C493.453 12.4792 493.716 12.2578 493.898 11.9766C494.081 11.6953 494.172 11.3776 494.172 11.0234C494.172 10.6328 494.06 10.3021 493.836 10.0312C493.612 9.76042 493.336 9.54167 493.008 9.375C492.68 9.20312 492.232 9.00521 491.664 8.78125C490.997 8.52083 490.464 8.28125 490.062 8.0625C489.661 7.84375 489.318 7.54427 489.031 7.16406C488.75 6.77865 488.609 6.29688 488.609 5.71875C488.609 5.13542 488.753 4.625 489.039 4.1875C489.326 3.75 489.714 3.41406 490.203 3.17969C490.698 2.94531 491.242 2.82812 491.836 2.82812C492.534 2.82812 493.154 2.97917 493.695 3.28125C494.242 3.57812 494.69 4.03646 495.039 4.65625L493.898 5.35938C493.43 4.48958 492.727 4.05469 491.789 4.05469C491.451 4.05469 491.143 4.125 490.867 4.26562C490.596 4.40104 490.38 4.59115 490.219 4.83594C490.062 5.07552 489.984 5.34896 489.984 5.65625C489.984 6 490.089 6.29167 490.297 6.53125C490.505 6.76562 490.763 6.96094 491.07 7.11719C491.383 7.27344 491.81 7.45573 492.352 7.66406C493.039 7.92969 493.594 8.17708 494.016 8.40625C494.438 8.63542 494.797 8.95573 495.094 9.36719C495.396 9.77344 495.547 10.2865 495.547 10.9062C495.547 11.5417 495.385 12.1016 495.062 12.5859C494.745 13.0703 494.307 13.4453 493.75 13.7109C493.198 13.9766 492.581 14.1094 491.898 14.1094ZM500.852 14.1094C500.201 14.1094 499.594 13.9896 499.031 13.75C498.469 13.5104 497.997 13.1589 497.617 12.6953C497.237 12.2266 496.992 11.6641 496.883 11.0078L498.242 10.6641C498.336 11.3828 498.62 11.9323 499.094 12.3125C499.573 12.6927 500.167 12.8828 500.875 12.8828C501.328 12.8828 501.724 12.8021 502.062 12.6406C502.406 12.4792 502.669 12.2578 502.852 11.9766C503.034 11.6953 503.125 11.3776 503.125 11.0234C503.125 10.6328 503.013 10.3021 502.789 10.0312C502.565 9.76042 502.289 9.54167 501.961 9.375C501.633 9.20312 501.185 9.00521 500.617 8.78125C499.951 8.52083 499.417 8.28125 499.016 8.0625C498.615 7.84375 498.271 7.54427 497.984 7.16406C497.703 6.77865 497.562 6.29688 497.562 5.71875C497.562 5.13542 497.706 4.625 497.992 4.1875C498.279 3.75 498.667 3.41406 499.156 3.17969C499.651 2.94531 500.195 2.82812 500.789 2.82812C501.487 2.82812 502.107 2.97917 502.648 3.28125C503.195 3.57812 503.643 4.03646 503.992 4.65625L502.852 5.35938C502.383 4.48958 501.68 4.05469 500.742 4.05469C500.404 4.05469 500.096 4.125 499.82 4.26562C499.549 4.40104 499.333 4.59115 499.172 4.83594C499.016 5.07552 498.938 5.34896 498.938 5.65625C498.938 6 499.042 6.29167 499.25 6.53125C499.458 6.76562 499.716 6.96094 500.023 7.11719C500.336 7.27344 500.763 7.45573 501.305 7.66406C501.992 7.92969 502.547 8.17708 502.969 8.40625C503.391 8.63542 503.75 8.95573 504.047 9.36719C504.349 9.77344 504.5 10.2865 504.5 10.9062C504.5 11.5417 504.339 12.1016 504.016 12.5859C503.698 13.0703 503.26 13.4453 502.703 13.7109C502.151 13.9766 501.534 14.1094 500.852 14.1094Z" fill="#637381"/>
<rect x="0.5" y="97.5" width="758" height="68" stroke="#DDE4E9"/>
<path d="M25.6406 125.961H32.8984V127.227H27.0156V130.828H32.3672V132.102H27.0156V135.695H32.8984V137H25.6406V125.961ZM36.9531 133.078L34.1484 129.195H35.7656L37.8281 132.172L39.8828 129.195H41.5156L38.7031 133.078L41.5156 137H39.8906L37.8281 133.992L35.7656 137H34.1484L36.9531 133.078ZM43.125 129.195H44.4922V130.602C44.7422 130.117 45.099 129.74 45.5625 129.469C46.0312 129.198 46.5443 129.062 47.1016 129.062C47.7839 129.062 48.375 129.245 48.875 129.609C49.375 129.969 49.7552 130.456 50.0156 131.07C50.2812 131.68 50.4141 132.357 50.4141 133.102C50.4141 133.846 50.2812 134.526 50.0156 135.141C49.7552 135.75 49.3724 136.234 48.8672 136.594C48.3672 136.953 47.7708 137.133 47.0781 137.133C46.5208 137.133 46.013 137 45.5547 136.734C45.0964 136.464 44.7422 136.083 44.4922 135.594V140.234H43.125V129.195ZM46.7812 135.93C47.276 135.93 47.6953 135.807 48.0391 135.562C48.388 135.312 48.6484 134.974 48.8203 134.547C48.9974 134.12 49.0859 133.638 49.0859 133.102C49.0859 132.565 48.9974 132.086 48.8203 131.664C48.6484 131.237 48.388 130.901 48.0391 130.656C47.6953 130.411 47.276 130.289 46.7812 130.289C46.2865 130.289 45.8568 130.411 45.4922 130.656C45.1276 130.896 44.849 131.229 44.6562 131.656C44.4688 132.078 44.375 132.56 44.375 133.102C44.375 133.638 44.4714 134.122 44.6641 134.555C44.8568 134.982 45.1328 135.318 45.4922 135.562C45.8568 135.807 46.2865 135.93 46.7812 135.93ZM52.4219 129.195H53.7109V130.727C53.8307 130.367 54.013 130.062 54.2578 129.812C54.5026 129.562 54.776 129.375 55.0781 129.25C55.3854 129.125 55.6979 129.062 56.0156 129.062C56.2552 129.062 56.487 129.099 56.7109 129.172C56.9349 129.24 57.1328 129.346 57.3047 129.492L56.6953 130.586C56.4141 130.43 56.1224 130.352 55.8203 130.352C55.4661 130.352 55.1276 130.453 54.8047 130.656C54.4818 130.859 54.2161 131.18 54.0078 131.617C53.8047 132.049 53.7031 132.591 53.7031 133.242V137H52.4219V129.195ZM61.2812 137.133C60.4844 137.133 59.8047 136.956 59.2422 136.602C58.6797 136.247 58.2552 135.768 57.9688 135.164C57.6823 134.555 57.5391 133.878 57.5391 133.133C57.5391 132.398 57.6771 131.721 57.9531 131.102C58.2292 130.482 58.638 129.987 59.1797 129.617C59.7266 129.247 60.3828 129.062 61.1484 129.062C61.9661 129.062 62.6328 129.25 63.1484 129.625C63.6693 130 64.0443 130.471 64.2734 131.039C64.5026 131.602 64.6172 132.18 64.6172 132.773C64.6172 132.914 64.6094 133.055 64.5938 133.195C64.5833 133.331 64.5703 133.43 64.5547 133.492H58.9375C58.9896 134.258 59.2135 134.857 59.6094 135.289C60.0104 135.716 60.5703 135.93 61.2891 135.93C61.7266 135.93 62.1146 135.859 62.4531 135.719C62.7917 135.573 63.1198 135.331 63.4375 134.992L64.3594 135.797C63.9271 136.26 63.4635 136.599 62.9688 136.812C62.4792 137.026 61.9167 137.133 61.2812 137.133ZM63.3047 132.523C63.3047 132.299 63.2943 132.135 63.2734 132.031C63.2266 131.693 63.1146 131.385 62.9375 131.109C62.7656 130.828 62.526 130.604 62.2188 130.438C61.9167 130.266 61.5573 130.18 61.1406 130.18C60.5 130.18 59.9922 130.393 59.6172 130.82C59.2422 131.242 59.0156 131.81 58.9375 132.523H63.3047ZM68.8906 137.133C68.375 137.133 67.8984 137.042 67.4609 136.859C67.0234 136.677 66.651 136.427 66.3438 136.109C66.0365 135.786 65.8177 135.427 65.6875 135.031L66.7578 134.562C66.9089 134.979 67.1589 135.328 67.5078 135.609C67.8568 135.885 68.2969 136.023 68.8281 136.023C69.1771 136.023 69.474 135.969 69.7188 135.859C69.9635 135.745 70.1458 135.591 70.2656 135.398C70.3906 135.206 70.4531 134.992 70.4531 134.758C70.4531 134.497 70.3724 134.289 70.2109 134.133C70.0547 133.971 69.8568 133.846 69.6172 133.758C69.3776 133.669 69.0469 133.573 68.625 133.469C68.0885 133.333 67.6536 133.201 67.3203 133.07C66.9922 132.935 66.7109 132.727 66.4766 132.445C66.2422 132.159 66.125 131.776 66.125 131.297C66.125 130.823 66.2474 130.419 66.4922 130.086C66.737 129.747 67.0677 129.492 67.4844 129.32C67.901 129.148 68.3646 129.062 68.875 129.062C69.5 129.062 70.0521 129.206 70.5312 129.492C71.0156 129.779 71.401 130.185 71.6875 130.711L70.6641 131.266C70.4766 130.922 70.2292 130.646 69.9219 130.438C69.6198 130.224 69.2552 130.117 68.8281 130.117C68.3906 130.117 68.0417 130.211 67.7812 130.398C67.5208 130.586 67.3906 130.828 67.3906 131.125C67.3906 131.354 67.4661 131.542 67.6172 131.688C67.7682 131.828 67.9583 131.943 68.1875 132.031C68.4167 132.115 68.7292 132.208 69.125 132.312C69.6823 132.464 70.1354 132.615 70.4844 132.766C70.8333 132.911 71.1328 133.141 71.3828 133.453C71.6328 133.76 71.7578 134.174 71.7578 134.695C71.7578 135.221 71.6276 135.669 71.3672 136.039C71.1068 136.404 70.7578 136.677 70.3203 136.859C69.888 137.042 69.4115 137.133 68.8906 137.133ZM76.0938 137.133C75.5781 137.133 75.1016 137.042 74.6641 136.859C74.2266 136.677 73.8542 136.427 73.5469 136.109C73.2396 135.786 73.0208 135.427 72.8906 135.031L73.9609 134.562C74.112 134.979 74.362 135.328 74.7109 135.609C75.0599 135.885 75.5 136.023 76.0312 136.023C76.3802 136.023 76.6771 135.969 76.9219 135.859C77.1667 135.745 77.349 135.591 77.4688 135.398C77.5938 135.206 77.6562 134.992 77.6562 134.758C77.6562 134.497 77.5755 134.289 77.4141 134.133C77.2578 133.971 77.0599 133.846 76.8203 133.758C76.5807 133.669 76.25 133.573 75.8281 133.469C75.2917 133.333 74.8568 133.201 74.5234 133.07C74.1953 132.935 73.9141 132.727 73.6797 132.445C73.4453 132.159 73.3281 131.776 73.3281 131.297C73.3281 130.823 73.4505 130.419 73.6953 130.086C73.9401 129.747 74.2708 129.492 74.6875 129.32C75.1042 129.148 75.5677 129.062 76.0781 129.062C76.7031 129.062 77.2552 129.206 77.7344 129.492C78.2188 129.779 78.6042 130.185 78.8906 130.711L77.8672 131.266C77.6797 130.922 77.4323 130.646 77.125 130.438C76.8229 130.224 76.4583 130.117 76.0312 130.117C75.5938 130.117 75.2448 130.211 74.9844 130.398C74.724 130.586 74.5938 130.828 74.5938 131.125C74.5938 131.354 74.6693 131.542 74.8203 131.688C74.9714 131.828 75.1615 131.943 75.3906 132.031C75.6198 132.115 75.9323 132.208 76.3281 132.312C76.8854 132.464 77.3385 132.615 77.6875 132.766C78.0365 132.911 78.3359 133.141 78.5859 133.453C78.8359 133.76 78.9609 134.174 78.9609 134.695C78.9609 135.221 78.8307 135.669 78.5703 136.039C78.3099 136.404 77.9609 136.677 77.5234 136.859C77.0911 137.042 76.6146 137.133 76.0938 137.133ZM80.9375 125.961H82.3203V127.617H80.9375V125.961ZM80.9688 129.195H82.2891V137H80.9688V129.195ZM83.7578 129.195H85.2031L87.5 135.305L89.8047 129.195H91.25L88.0547 137H86.9453L83.7578 129.195ZM95.5781 137.133C94.7812 137.133 94.1016 136.956 93.5391 136.602C92.9766 136.247 92.5521 135.768 92.2656 135.164C91.9792 134.555 91.8359 133.878 91.8359 133.133C91.8359 132.398 91.974 131.721 92.25 131.102C92.526 130.482 92.9349 129.987 93.4766 129.617C94.0234 129.247 94.6797 129.062 95.4453 129.062C96.263 129.062 96.9297 129.25 97.4453 129.625C97.9661 130 98.3411 130.471 98.5703 131.039C98.7995 131.602 98.9141 132.18 98.9141 132.773C98.9141 132.914 98.9062 133.055 98.8906 133.195C98.8802 133.331 98.8672 133.43 98.8516 133.492H93.2344C93.2865 134.258 93.5104 134.857 93.9062 135.289C94.3073 135.716 94.8672 135.93 95.5859 135.93C96.0234 135.93 96.4115 135.859 96.75 135.719C97.0885 135.573 97.4167 135.331 97.7344 134.992L98.6562 135.797C98.224 136.26 97.7604 136.599 97.2656 136.812C96.776 137.026 96.2135 137.133 95.5781 137.133ZM97.6016 132.523C97.6016 132.299 97.5911 132.135 97.5703 132.031C97.5234 131.693 97.4115 131.385 97.2344 131.109C97.0625 130.828 96.8229 130.604 96.5156 130.438C96.2135 130.266 95.8542 130.18 95.4375 130.18C94.7969 130.18 94.2891 130.393 93.9141 130.82C93.5391 131.242 93.3125 131.81 93.2344 132.523H97.6016Z" fill="#161616"/>
<path d="M260.641 123.961H267.898V125.227H262.016V128.828H267.367V130.102H262.016V133.695H267.898V135H260.641V123.961ZM271.953 131.078L269.148 127.195H270.766L272.828 130.172L274.883 127.195H276.516L273.703 131.078L276.516 135H274.891L272.828 131.992L270.766 135H269.148L271.953 131.078ZM278.125 127.195H279.492V128.602C279.742 128.117 280.099 127.74 280.562 127.469C281.031 127.198 281.544 127.062 282.102 127.062C282.784 127.062 283.375 127.245 283.875 127.609C284.375 127.969 284.755 128.456 285.016 129.07C285.281 129.68 285.414 130.357 285.414 131.102C285.414 131.846 285.281 132.526 285.016 133.141C284.755 133.75 284.372 134.234 283.867 134.594C283.367 134.953 282.771 135.133 282.078 135.133C281.521 135.133 281.013 135 280.555 134.734C280.096 134.464 279.742 134.083 279.492 133.594V138.234H278.125V127.195ZM281.781 133.93C282.276 133.93 282.695 133.807 283.039 133.562C283.388 133.312 283.648 132.974 283.82 132.547C283.997 132.12 284.086 131.638 284.086 131.102C284.086 130.565 283.997 130.086 283.82 129.664C283.648 129.237 283.388 128.901 283.039 128.656C282.695 128.411 282.276 128.289 281.781 128.289C281.286 128.289 280.857 128.411 280.492 128.656C280.128 128.896 279.849 129.229 279.656 129.656C279.469 130.078 279.375 130.56 279.375 131.102C279.375 131.638 279.471 132.122 279.664 132.555C279.857 132.982 280.133 133.318 280.492 133.562C280.857 133.807 281.286 133.93 281.781 133.93ZM287.422 127.195H288.711V128.727C288.831 128.367 289.013 128.062 289.258 127.812C289.503 127.562 289.776 127.375 290.078 127.25C290.385 127.125 290.698 127.062 291.016 127.062C291.255 127.062 291.487 127.099 291.711 127.172C291.935 127.24 292.133 127.346 292.305 127.492L291.695 128.586C291.414 128.43 291.122 128.352 290.82 128.352C290.466 128.352 290.128 128.453 289.805 128.656C289.482 128.859 289.216 129.18 289.008 129.617C288.805 130.049 288.703 130.591 288.703 131.242V135H287.422V127.195ZM296.281 135.133C295.484 135.133 294.805 134.956 294.242 134.602C293.68 134.247 293.255 133.768 292.969 133.164C292.682 132.555 292.539 131.878 292.539 131.133C292.539 130.398 292.677 129.721 292.953 129.102C293.229 128.482 293.638 127.987 294.18 127.617C294.727 127.247 295.383 127.062 296.148 127.062C296.966 127.062 297.633 127.25 298.148 127.625C298.669 128 299.044 128.471 299.273 129.039C299.503 129.602 299.617 130.18 299.617 130.773C299.617 130.914 299.609 131.055 299.594 131.195C299.583 131.331 299.57 131.43 299.555 131.492H293.938C293.99 132.258 294.214 132.857 294.609 133.289C295.01 133.716 295.57 133.93 296.289 133.93C296.727 133.93 297.115 133.859 297.453 133.719C297.792 133.573 298.12 133.331 298.438 132.992L299.359 133.797C298.927 134.26 298.464 134.599 297.969 134.812C297.479 135.026 296.917 135.133 296.281 135.133ZM298.305 130.523C298.305 130.299 298.294 130.135 298.273 130.031C298.227 129.693 298.115 129.385 297.938 129.109C297.766 128.828 297.526 128.604 297.219 128.438C296.917 128.266 296.557 128.18 296.141 128.18C295.5 128.18 294.992 128.393 294.617 128.82C294.242 129.242 294.016 129.81 293.938 130.523H298.305ZM303.891 135.133C303.375 135.133 302.898 135.042 302.461 134.859C302.023 134.677 301.651 134.427 301.344 134.109C301.036 133.786 300.818 133.427 300.688 133.031L301.758 132.562C301.909 132.979 302.159 133.328 302.508 133.609C302.857 133.885 303.297 134.023 303.828 134.023C304.177 134.023 304.474 133.969 304.719 133.859C304.964 133.745 305.146 133.591 305.266 133.398C305.391 133.206 305.453 132.992 305.453 132.758C305.453 132.497 305.372 132.289 305.211 132.133C305.055 131.971 304.857 131.846 304.617 131.758C304.378 131.669 304.047 131.573 303.625 131.469C303.089 131.333 302.654 131.201 302.32 131.07C301.992 130.935 301.711 130.727 301.477 130.445C301.242 130.159 301.125 129.776 301.125 129.297C301.125 128.823 301.247 128.419 301.492 128.086C301.737 127.747 302.068 127.492 302.484 127.32C302.901 127.148 303.365 127.062 303.875 127.062C304.5 127.062 305.052 127.206 305.531 127.492C306.016 127.779 306.401 128.185 306.688 128.711L305.664 129.266C305.477 128.922 305.229 128.646 304.922 128.438C304.62 128.224 304.255 128.117 303.828 128.117C303.391 128.117 303.042 128.211 302.781 128.398C302.521 128.586 302.391 128.828 302.391 129.125C302.391 129.354 302.466 129.542 302.617 129.688C302.768 129.828 302.958 129.943 303.188 130.031C303.417 130.115 303.729 130.208 304.125 130.312C304.682 130.464 305.135 130.615 305.484 130.766C305.833 130.911 306.133 131.141 306.383 131.453C306.633 131.76 306.758 132.174 306.758 132.695C306.758 133.221 306.628 133.669 306.367 134.039C306.107 134.404 305.758 134.677 305.32 134.859C304.888 135.042 304.411 135.133 303.891 135.133ZM311.094 135.133C310.578 135.133 310.102 135.042 309.664 134.859C309.227 134.677 308.854 134.427 308.547 134.109C308.24 133.786 308.021 133.427 307.891 133.031L308.961 132.562C309.112 132.979 309.362 133.328 309.711 133.609C310.06 133.885 310.5 134.023 311.031 134.023C311.38 134.023 311.677 133.969 311.922 133.859C312.167 133.745 312.349 133.591 312.469 133.398C312.594 133.206 312.656 132.992 312.656 132.758C312.656 132.497 312.576 132.289 312.414 132.133C312.258 131.971 312.06 131.846 311.82 131.758C311.581 131.669 311.25 131.573 310.828 131.469C310.292 131.333 309.857 131.201 309.523 131.07C309.195 130.935 308.914 130.727 308.68 130.445C308.445 130.159 308.328 129.776 308.328 129.297C308.328 128.823 308.451 128.419 308.695 128.086C308.94 127.747 309.271 127.492 309.688 127.32C310.104 127.148 310.568 127.062 311.078 127.062C311.703 127.062 312.255 127.206 312.734 127.492C313.219 127.779 313.604 128.185 313.891 128.711L312.867 129.266C312.68 128.922 312.432 128.646 312.125 128.438C311.823 128.224 311.458 128.117 311.031 128.117C310.594 128.117 310.245 128.211 309.984 128.398C309.724 128.586 309.594 128.828 309.594 129.125C309.594 129.354 309.669 129.542 309.82 129.688C309.971 129.828 310.161 129.943 310.391 130.031C310.62 130.115 310.932 130.208 311.328 130.312C311.885 130.464 312.339 130.615 312.688 130.766C313.036 130.911 313.336 131.141 313.586 131.453C313.836 131.76 313.961 132.174 313.961 132.695C313.961 133.221 313.831 133.669 313.57 134.039C313.31 134.404 312.961 134.677 312.523 134.859C312.091 135.042 311.615 135.133 311.094 135.133ZM315.938 123.961H317.32V125.617H315.938V123.961ZM315.969 127.195H317.289V135H315.969V127.195ZM318.758 127.195H320.203L322.5 133.305L324.805 127.195H326.25L323.055 135H321.945L318.758 127.195ZM330.578 135.133C329.781 135.133 329.102 134.956 328.539 134.602C327.977 134.247 327.552 133.768 327.266 133.164C326.979 132.555 326.836 131.878 326.836 131.133C326.836 130.398 326.974 129.721 327.25 129.102C327.526 128.482 327.935 127.987 328.477 127.617C329.023 127.247 329.68 127.062 330.445 127.062C331.263 127.062 331.93 127.25 332.445 127.625C332.966 128 333.341 128.471 333.57 129.039C333.799 129.602 333.914 130.18 333.914 130.773C333.914 130.914 333.906 131.055 333.891 131.195C333.88 131.331 333.867 131.43 333.852 131.492H328.234C328.286 132.258 328.51 132.857 328.906 133.289C329.307 133.716 329.867 133.93 330.586 133.93C331.023 133.93 331.411 133.859 331.75 133.719C332.089 133.573 332.417 133.331 332.734 132.992L333.656 133.797C333.224 134.26 332.76 134.599 332.266 134.812C331.776 135.026 331.214 135.133 330.578 135.133ZM332.602 130.523C332.602 130.299 332.591 130.135 332.57 130.031C332.523 129.693 332.411 129.385 332.234 129.109C332.062 128.828 331.823 128.604 331.516 128.438C331.214 128.266 330.854 128.18 330.438 128.18C329.797 128.18 329.289 128.393 328.914 128.82C328.539 129.242 328.312 129.81 328.234 130.523H332.602Z" fill="#08BEE5"/>
<path d="M480.258 67.1328C479.503 67.1328 478.854 66.9531 478.312 66.5938C477.771 66.2292 477.359 65.7422 477.078 65.1328C476.797 64.5182 476.656 63.8438 476.656 63.1094C476.656 62.401 476.792 61.7396 477.062 61.125C477.333 60.5052 477.737 60.0078 478.273 59.6328C478.815 59.2526 479.471 59.0625 480.242 59.0625C480.982 59.0625 481.63 59.25 482.188 59.625C482.75 59.9948 483.174 60.5391 483.461 61.2578L482.203 61.75C482.047 61.2917 481.794 60.9297 481.445 60.6641C481.102 60.3984 480.701 60.2656 480.242 60.2656C479.747 60.2656 479.331 60.3984 478.992 60.6641C478.654 60.9245 478.404 61.2708 478.242 61.7031C478.081 62.1354 478 62.6042 478 63.1094C478 63.6198 478.081 64.0885 478.242 64.5156C478.404 64.9427 478.651 65.2865 478.984 65.5469C479.323 65.8021 479.742 65.9297 480.242 65.9297C480.706 65.9297 481.109 65.7995 481.453 65.5391C481.797 65.2734 482.039 64.9167 482.18 64.4688L483.383 64.9219C483.138 65.6198 482.74 66.1641 482.188 66.5547C481.641 66.9401 480.997 67.1328 480.258 67.1328ZM487.648 67.1328C487.039 67.1328 486.529 66.9974 486.117 66.7266C485.711 66.4505 485.409 66.0807 485.211 65.6172C485.013 65.1484 484.909 64.625 484.898 64.0469V59.1953H486.211V63.8125C486.211 64.4688 486.365 64.9818 486.672 65.3516C486.979 65.7214 487.424 65.9062 488.008 65.9062C488.643 65.9062 489.141 65.7188 489.5 65.3438C489.865 64.9635 490.047 64.4141 490.047 63.6953V59.1953H491.359V67H490.047V65.8125C489.792 66.2448 489.451 66.5729 489.023 66.7969C488.596 67.0208 488.138 67.1328 487.648 67.1328ZM497.977 67.1328C497.419 67.1328 496.906 66.9974 496.438 66.7266C495.974 66.4557 495.617 66.0755 495.367 65.5859V67H494V55.9609H495.367V60.6016C495.617 60.112 495.971 59.7344 496.43 59.4688C496.888 59.1979 497.396 59.0625 497.953 59.0625C498.646 59.0625 499.242 59.2422 499.742 59.6016C500.247 59.9609 500.63 60.4479 500.891 61.0625C501.156 61.6719 501.289 62.349 501.289 63.0938C501.289 63.8385 501.156 64.5182 500.891 65.1328C500.63 65.7422 500.25 66.2292 499.75 66.5938C499.25 66.9531 498.659 67.1328 497.977 67.1328ZM497.656 65.9062C498.151 65.9062 498.57 65.7839 498.914 65.5391C499.263 65.2943 499.523 64.9609 499.695 64.5391C499.872 64.112 499.961 63.6302 499.961 63.0938C499.961 62.5573 499.872 62.0755 499.695 61.6484C499.523 61.2214 499.263 60.8854 498.914 60.6406C498.57 60.3906 498.151 60.2656 497.656 60.2656C497.161 60.2656 496.732 60.388 496.367 60.6328C496.008 60.8776 495.732 61.2161 495.539 61.6484C495.346 62.0755 495.25 62.5573 495.25 63.0938C495.25 63.6302 495.344 64.112 495.531 64.5391C495.724 64.9661 496.003 65.3021 496.367 65.5469C496.732 65.7865 497.161 65.9062 497.656 65.9062ZM503.266 55.9609H504.648V57.6172H503.266V55.9609ZM503.297 59.1953H504.617V67H503.297V59.1953ZM510.18 67.1328C509.424 67.1328 508.776 66.9531 508.234 66.5938C507.693 66.2292 507.281 65.7422 507 65.1328C506.719 64.5182 506.578 63.8438 506.578 63.1094C506.578 62.401 506.714 61.7396 506.984 61.125C507.255 60.5052 507.659 60.0078 508.195 59.6328C508.737 59.2526 509.393 59.0625 510.164 59.0625C510.904 59.0625 511.552 59.25 512.109 59.625C512.672 59.9948 513.096 60.5391 513.383 61.2578L512.125 61.75C511.969 61.2917 511.716 60.9297 511.367 60.6641C511.023 60.3984 510.622 60.2656 510.164 60.2656C509.669 60.2656 509.253 60.3984 508.914 60.6641C508.576 60.9245 508.326 61.2708 508.164 61.7031C508.003 62.1354 507.922 62.6042 507.922 63.1094C507.922 63.6198 508.003 64.0885 508.164 64.5156C508.326 64.9427 508.573 65.2865 508.906 65.5469C509.245 65.8021 509.664 65.9297 510.164 65.9297C510.628 65.9297 511.031 65.7995 511.375 65.5391C511.719 65.2734 511.961 64.9167 512.102 64.4688L513.305 64.9219C513.06 65.6198 512.661 66.1641 512.109 66.5547C511.562 66.9401 510.919 67.1328 510.18 67.1328ZM515.047 61.6875H519.383V62.7031H515.047V61.6875ZM525.945 67.1328C525.388 67.1328 524.875 66.9974 524.406 66.7266C523.943 66.4557 523.586 66.0755 523.336 65.5859V67H521.969V55.9609H523.336V60.6016C523.586 60.112 523.94 59.7344 524.398 59.4688C524.857 59.1979 525.365 59.0625 525.922 59.0625C526.615 59.0625 527.211 59.2422 527.711 59.6016C528.216 59.9609 528.599 60.4479 528.859 61.0625C529.125 61.6719 529.258 62.349 529.258 63.0938C529.258 63.8385 529.125 64.5182 528.859 65.1328C528.599 65.7422 528.219 66.2292 527.719 66.5938C527.219 66.9531 526.628 67.1328 525.945 67.1328ZM525.625 65.9062C526.12 65.9062 526.539 65.7839 526.883 65.5391C527.232 65.2943 527.492 64.9609 527.664 64.5391C527.841 64.112 527.93 63.6302 527.93 63.0938C527.93 62.5573 527.841 62.0755 527.664 61.6484C527.492 61.2214 527.232 60.8854 526.883 60.6406C526.539 60.3906 526.12 60.2656 525.625 60.2656C525.13 60.2656 524.701 60.388 524.336 60.6328C523.977 60.8776 523.701 61.2161 523.508 61.6484C523.315 62.0755 523.219 62.5573 523.219 63.0938C523.219 63.6302 523.312 64.112 523.5 64.5391C523.693 64.9661 523.971 65.3021 524.336 65.5469C524.701 65.7865 525.13 65.9062 525.625 65.9062ZM534.359 67.1328C533.562 67.1328 532.883 66.9557 532.32 66.6016C531.758 66.2474 531.333 65.7682 531.047 65.1641C530.76 64.5547 530.617 63.8776 530.617 63.1328C530.617 62.3984 530.755 61.7214 531.031 61.1016C531.307 60.4818 531.716 59.987 532.258 59.6172C532.805 59.2474 533.461 59.0625 534.227 59.0625C535.044 59.0625 535.711 59.25 536.227 59.625C536.747 60 537.122 60.4714 537.352 61.0391C537.581 61.6016 537.695 62.1797 537.695 62.7734C537.695 62.9141 537.688 63.0547 537.672 63.1953C537.661 63.3307 537.648 63.4297 537.633 63.4922H532.016C532.068 64.2578 532.292 64.8568 532.688 65.2891C533.089 65.7161 533.648 65.9297 534.367 65.9297C534.805 65.9297 535.193 65.8594 535.531 65.7188C535.87 65.5729 536.198 65.3307 536.516 64.9922L537.438 65.7969C537.005 66.2604 536.542 66.599 536.047 66.8125C535.557 67.026 534.995 67.1328 534.359 67.1328ZM536.383 62.5234C536.383 62.2995 536.372 62.1354 536.352 62.0312C536.305 61.6927 536.193 61.3854 536.016 61.1094C535.844 60.8281 535.604 60.6042 535.297 60.4375C534.995 60.2656 534.635 60.1797 534.219 60.1797C533.578 60.1797 533.07 60.3932 532.695 60.8203C532.32 61.2422 532.094 61.8099 532.016 62.5234H536.383ZM545.445 60.2031L540.609 65.8828H545.414V67H538.82V66.0703L543.781 60.3125H539.07V59.1953H545.445V60.2031ZM547.328 55.9609H548.711V57.6172H547.328V55.9609ZM547.359 59.1953H548.68V67H547.359V59.1953ZM554.391 67.1328C553.594 67.1328 552.914 66.9557 552.352 66.6016C551.789 66.2474 551.365 65.7682 551.078 65.1641C550.792 64.5547 550.648 63.8776 550.648 63.1328C550.648 62.3984 550.786 61.7214 551.062 61.1016C551.339 60.4818 551.747 59.987 552.289 59.6172C552.836 59.2474 553.492 59.0625 554.258 59.0625C555.076 59.0625 555.742 59.25 556.258 59.625C556.779 60 557.154 60.4714 557.383 61.0391C557.612 61.6016 557.727 62.1797 557.727 62.7734C557.727 62.9141 557.719 63.0547 557.703 63.1953C557.693 63.3307 557.68 63.4297 557.664 63.4922H552.047C552.099 64.2578 552.323 64.8568 552.719 65.2891C553.12 65.7161 553.68 65.9297 554.398 65.9297C554.836 65.9297 555.224 65.8594 555.562 65.7188C555.901 65.5729 556.229 65.3307 556.547 64.9922L557.469 65.7969C557.036 66.2604 556.573 66.599 556.078 66.8125C555.589 67.026 555.026 67.1328 554.391 67.1328ZM556.414 62.5234C556.414 62.2995 556.404 62.1354 556.383 62.0312C556.336 61.6927 556.224 61.3854 556.047 61.1094C555.875 60.8281 555.635 60.6042 555.328 60.4375C555.026 60.2656 554.667 60.1797 554.25 60.1797C553.609 60.1797 553.102 60.3932 552.727 60.8203C552.352 61.2422 552.125 61.8099 552.047 62.5234H556.414ZM559.672 59.1953H560.961V60.7266C561.081 60.3672 561.263 60.0625 561.508 59.8125C561.753 59.5625 562.026 59.375 562.328 59.25C562.635 59.125 562.948 59.0625 563.266 59.0625C563.505 59.0625 563.737 59.099 563.961 59.1719C564.185 59.2396 564.383 59.3464 564.555 59.4922L563.945 60.5859C563.664 60.4297 563.372 60.3516 563.07 60.3516C562.716 60.3516 562.378 60.4531 562.055 60.6562C561.732 60.8594 561.466 61.1797 561.258 61.6172C561.055 62.0495 560.953 62.5911 560.953 63.2422V67H559.672V59.1953ZM571.492 67.6484C571.112 67.237 570.781 66.6849 570.5 65.9922C570.219 65.2995 570.003 64.5547 569.852 63.7578C569.701 62.9609 569.625 62.2031 569.625 61.4844C569.625 60.1979 569.784 59.0234 570.102 57.9609C570.424 56.8932 570.883 56.0156 571.477 55.3281H572.688C572.005 56.1667 571.5 57.112 571.172 58.1641C570.844 59.2161 570.68 60.3307 570.68 61.5078C570.68 62.737 570.844 63.8594 571.172 64.875C571.505 65.8854 572.003 66.8099 572.664 67.6484H571.492ZM577.586 67.1328C576.117 67.1328 575.102 66.5729 574.539 65.4531C573.977 64.3333 573.695 63.0078 573.695 61.4766C573.695 59.9349 573.966 58.6068 574.508 57.4922C575.055 56.3724 576.042 55.8125 577.469 55.8125C578.385 55.8125 579.133 56.0807 579.711 56.6172C580.289 57.1536 580.706 57.8516 580.961 58.7109C581.216 59.5651 581.344 60.4948 581.344 61.5C581.344 62.5 581.219 63.4245 580.969 64.2734C580.724 65.1172 580.32 65.8047 579.758 66.3359C579.195 66.8672 578.471 67.1328 577.586 67.1328ZM577.547 65.8281C578.427 65.8281 579.042 65.4167 579.391 64.5938C579.745 63.7656 579.922 62.7266 579.922 61.4766C579.922 60.2214 579.74 59.1849 579.375 58.3672C579.01 57.5443 578.375 57.1328 577.469 57.1328C576.536 57.1328 575.898 57.5443 575.555 58.3672C575.216 59.1901 575.047 60.2266 575.047 61.4766C575.047 62.7266 575.221 63.7656 575.57 64.5938C575.924 65.4167 576.583 65.8281 577.547 65.8281ZM583.633 65.1641H584.969V67H583.633V65.1641ZM595.164 55.9609V56.7266L589.922 67H588.406L593.516 57.2188H587.242V55.9609H595.164ZM604.18 65.75V67H596.414V65.8281C597.445 65.1927 598.378 64.5495 599.211 63.8984C600.044 63.2422 600.755 62.5026 601.344 61.6797C601.938 60.8516 602.234 59.9948 602.234 59.1094C602.234 58.4948 602.06 58.0026 601.711 57.6328C601.367 57.263 600.872 57.0781 600.227 57.0781C599.466 57.0781 598.896 57.3281 598.516 57.8281C598.141 58.3281 597.945 58.9766 597.93 59.7734L596.578 59.6875C596.578 58.974 596.721 58.3255 597.008 57.7422C597.299 57.1589 597.719 56.6953 598.266 56.3516C598.818 56.0078 599.466 55.8359 600.211 55.8359C600.878 55.8359 601.466 55.9661 601.977 56.2266C602.492 56.487 602.893 56.8672 603.18 57.3672C603.466 57.862 603.609 58.4531 603.609 59.1406C603.609 60.0052 603.354 60.8594 602.844 61.7031C602.333 62.5469 601.693 63.3125 600.922 64C600.156 64.6875 599.37 65.2708 598.562 65.75H604.18ZM607.445 64.9453H608.969L606.906 69.4297H606.008L607.445 64.9453ZM618.508 67.1328C617.039 67.1328 616.023 66.5729 615.461 65.4531C614.898 64.3333 614.617 63.0078 614.617 61.4766C614.617 59.9349 614.888 58.6068 615.43 57.4922C615.977 56.3724 616.964 55.8125 618.391 55.8125C619.307 55.8125 620.055 56.0807 620.633 56.6172C621.211 57.1536 621.628 57.8516 621.883 58.7109C622.138 59.5651 622.266 60.4948 622.266 61.5C622.266 62.5 622.141 63.4245 621.891 64.2734C621.646 65.1172 621.242 65.8047 620.68 66.3359C620.117 66.8672 619.393 67.1328 618.508 67.1328ZM618.469 65.8281C619.349 65.8281 619.964 65.4167 620.312 64.5938C620.667 63.7656 620.844 62.7266 620.844 61.4766C620.844 60.2214 620.661 59.1849 620.297 58.3672C619.932 57.5443 619.297 57.1328 618.391 57.1328C617.458 57.1328 616.82 57.5443 616.477 58.3672C616.138 59.1901 615.969 60.2266 615.969 61.4766C615.969 62.7266 616.143 63.7656 616.492 64.5938C616.846 65.4167 617.505 65.8281 618.469 65.8281ZM624.555 65.1641H625.891V67H624.555V65.1641ZM632.453 59.5625C633.115 59.5625 633.721 59.7292 634.273 60.0625C634.831 60.3906 635.271 60.8411 635.594 61.4141C635.917 61.9818 636.078 62.6068 636.078 63.2891C636.078 63.9766 635.904 64.6146 635.555 65.2031C635.206 65.7917 634.732 66.2604 634.133 66.6094C633.534 66.9583 632.883 67.1328 632.18 67.1328C631.56 67.1328 630.984 66.9948 630.453 66.7188C629.922 66.4375 629.474 66.0521 629.109 65.5625C628.75 65.0677 628.503 64.513 628.367 63.8984L629.641 63.5469C629.786 64.2292 630.076 64.7891 630.508 65.2266C630.94 65.6641 631.497 65.8828 632.18 65.8828C632.648 65.8828 633.073 65.763 633.453 65.5234C633.839 65.2839 634.138 64.9635 634.352 64.5625C634.57 64.1615 634.68 63.7318 634.68 63.2734C634.68 62.8151 634.578 62.3984 634.375 62.0234C634.177 61.6432 633.893 61.3438 633.523 61.125C633.159 60.9062 632.737 60.7969 632.258 60.7969C631.82 60.7969 631.401 60.9062 631 61.125C630.599 61.3385 630.268 61.6406 630.008 62.0312L628.703 61.6797L629.727 55.9609H635.562V57.2266H630.82L630.258 60.3203C630.951 59.8151 631.682 59.5625 632.453 59.5625ZM645.562 63.125V64.3828H643.773V67H642.422V64.3828H637.031V63.5391L642.57 55.9609H643.773V63.125H645.562ZM642.422 63.125V58.0156L638.781 63.125H642.422ZM648.477 64.9453H650L647.938 69.4297H647.039L648.477 64.9453ZM659.539 67.1328C658.07 67.1328 657.055 66.5729 656.492 65.4531C655.93 64.3333 655.648 63.0078 655.648 61.4766C655.648 59.9349 655.919 58.6068 656.461 57.4922C657.008 56.3724 657.995 55.8125 659.422 55.8125C660.339 55.8125 661.086 56.0807 661.664 56.6172C662.242 57.1536 662.659 57.8516 662.914 58.7109C663.169 59.5651 663.297 60.4948 663.297 61.5C663.297 62.5 663.172 63.4245 662.922 64.2734C662.677 65.1172 662.273 65.8047 661.711 66.3359C661.148 66.8672 660.424 67.1328 659.539 67.1328ZM659.5 65.8281C660.38 65.8281 660.995 65.4167 661.344 64.5938C661.698 63.7656 661.875 62.7266 661.875 61.4766C661.875 60.2214 661.693 59.1849 661.328 58.3672C660.964 57.5443 660.328 57.1328 659.422 57.1328C658.49 57.1328 657.852 57.5443 657.508 58.3672C657.169 59.1901 657 60.2266 657 61.4766C657 62.7266 657.174 63.7656 657.523 64.5938C657.878 65.4167 658.536 65.8281 659.5 65.8281ZM665.586 65.1641H666.922V67H665.586V65.1641ZM677.117 55.9609V56.7266L671.875 67H670.359L675.469 57.2188H669.195V55.9609H677.117ZM686.195 55.9609V56.7266L680.953 67H679.438L684.547 57.2188H678.273V55.9609H686.195ZM688.805 64.9453H690.328L688.266 69.4297H687.367L688.805 64.9453ZM701.219 55.9609V67H699.867V58.7812H697.156V57.7266H698.898C699.237 57.7266 699.49 57.6536 699.656 57.5078C699.828 57.362 699.914 57.1328 699.914 56.8203V55.9609H701.219ZM704.734 67.6484C705.396 66.8099 705.891 65.8854 706.219 64.875C706.552 63.8594 706.719 62.737 706.719 61.5078C706.719 60.3307 706.555 59.2161 706.227 58.1641C705.898 57.112 705.393 56.1667 704.711 55.3281H705.922C706.516 56.0156 706.971 56.8932 707.289 57.9609C707.612 59.0234 707.773 60.1979 707.773 61.4844C707.773 62.2031 707.698 62.9609 707.547 63.7578C707.396 64.5547 707.18 65.2995 706.898 65.9922C706.617 66.6849 706.286 67.237 705.906 67.6484H704.734Z" fill="#161616"/>
<path d="M480.258 135.133C479.503 135.133 478.854 134.953 478.312 134.594C477.771 134.229 477.359 133.742 477.078 133.133C476.797 132.518 476.656 131.844 476.656 131.109C476.656 130.401 476.792 129.74 477.062 129.125C477.333 128.505 477.737 128.008 478.273 127.633C478.815 127.253 479.471 127.062 480.242 127.062C480.982 127.062 481.63 127.25 482.188 127.625C482.75 127.995 483.174 128.539 483.461 129.258L482.203 129.75C482.047 129.292 481.794 128.93 481.445 128.664C481.102 128.398 480.701 128.266 480.242 128.266C479.747 128.266 479.331 128.398 478.992 128.664C478.654 128.924 478.404 129.271 478.242 129.703C478.081 130.135 478 130.604 478 131.109C478 131.62 478.081 132.089 478.242 132.516C478.404 132.943 478.651 133.286 478.984 133.547C479.323 133.802 479.742 133.93 480.242 133.93C480.706 133.93 481.109 133.799 481.453 133.539C481.797 133.273 482.039 132.917 482.18 132.469L483.383 132.922C483.138 133.62 482.74 134.164 482.188 134.555C481.641 134.94 480.997 135.133 480.258 135.133ZM487.648 135.133C487.039 135.133 486.529 134.997 486.117 134.727C485.711 134.451 485.409 134.081 485.211 133.617C485.013 133.148 484.909 132.625 484.898 132.047V127.195H486.211V131.812C486.211 132.469 486.365 132.982 486.672 133.352C486.979 133.721 487.424 133.906 488.008 133.906C488.643 133.906 489.141 133.719 489.5 133.344C489.865 132.964 490.047 132.414 490.047 131.695V127.195H491.359V135H490.047V133.812C489.792 134.245 489.451 134.573 489.023 134.797C488.596 135.021 488.138 135.133 487.648 135.133ZM497.977 135.133C497.419 135.133 496.906 134.997 496.438 134.727C495.974 134.456 495.617 134.076 495.367 133.586V135H494V123.961H495.367V128.602C495.617 128.112 495.971 127.734 496.43 127.469C496.888 127.198 497.396 127.062 497.953 127.062C498.646 127.062 499.242 127.242 499.742 127.602C500.247 127.961 500.63 128.448 500.891 129.062C501.156 129.672 501.289 130.349 501.289 131.094C501.289 131.839 501.156 132.518 500.891 133.133C500.63 133.742 500.25 134.229 499.75 134.594C499.25 134.953 498.659 135.133 497.977 135.133ZM497.656 133.906C498.151 133.906 498.57 133.784 498.914 133.539C499.263 133.294 499.523 132.961 499.695 132.539C499.872 132.112 499.961 131.63 499.961 131.094C499.961 130.557 499.872 130.076 499.695 129.648C499.523 129.221 499.263 128.885 498.914 128.641C498.57 128.391 498.151 128.266 497.656 128.266C497.161 128.266 496.732 128.388 496.367 128.633C496.008 128.878 495.732 129.216 495.539 129.648C495.346 130.076 495.25 130.557 495.25 131.094C495.25 131.63 495.344 132.112 495.531 132.539C495.724 132.966 496.003 133.302 496.367 133.547C496.732 133.786 497.161 133.906 497.656 133.906ZM503.266 123.961H504.648V125.617H503.266V123.961ZM503.297 127.195H504.617V135H503.297V127.195ZM510.18 135.133C509.424 135.133 508.776 134.953 508.234 134.594C507.693 134.229 507.281 133.742 507 133.133C506.719 132.518 506.578 131.844 506.578 131.109C506.578 130.401 506.714 129.74 506.984 129.125C507.255 128.505 507.659 128.008 508.195 127.633C508.737 127.253 509.393 127.062 510.164 127.062C510.904 127.062 511.552 127.25 512.109 127.625C512.672 127.995 513.096 128.539 513.383 129.258L512.125 129.75C511.969 129.292 511.716 128.93 511.367 128.664C511.023 128.398 510.622 128.266 510.164 128.266C509.669 128.266 509.253 128.398 508.914 128.664C508.576 128.924 508.326 129.271 508.164 129.703C508.003 130.135 507.922 130.604 507.922 131.109C507.922 131.62 508.003 132.089 508.164 132.516C508.326 132.943 508.573 133.286 508.906 133.547C509.245 133.802 509.664 133.93 510.164 133.93C510.628 133.93 511.031 133.799 511.375 133.539C511.719 133.273 511.961 132.917 512.102 132.469L513.305 132.922C513.06 133.62 512.661 134.164 512.109 134.555C511.562 134.94 510.919 135.133 510.18 135.133ZM515.047 129.688H519.383V130.703H515.047V129.688ZM525.945 135.133C525.388 135.133 524.875 134.997 524.406 134.727C523.943 134.456 523.586 134.076 523.336 133.586V135H521.969V123.961H523.336V128.602C523.586 128.112 523.94 127.734 524.398 127.469C524.857 127.198 525.365 127.062 525.922 127.062C526.615 127.062 527.211 127.242 527.711 127.602C528.216 127.961 528.599 128.448 528.859 129.062C529.125 129.672 529.258 130.349 529.258 131.094C529.258 131.839 529.125 132.518 528.859 133.133C528.599 133.742 528.219 134.229 527.719 134.594C527.219 134.953 526.628 135.133 525.945 135.133ZM525.625 133.906C526.12 133.906 526.539 133.784 526.883 133.539C527.232 133.294 527.492 132.961 527.664 132.539C527.841 132.112 527.93 131.63 527.93 131.094C527.93 130.557 527.841 130.076 527.664 129.648C527.492 129.221 527.232 128.885 526.883 128.641C526.539 128.391 526.12 128.266 525.625 128.266C525.13 128.266 524.701 128.388 524.336 128.633C523.977 128.878 523.701 129.216 523.508 129.648C523.315 130.076 523.219 130.557 523.219 131.094C523.219 131.63 523.312 132.112 523.5 132.539C523.693 132.966 523.971 133.302 524.336 133.547C524.701 133.786 525.13 133.906 525.625 133.906ZM534.359 135.133C533.562 135.133 532.883 134.956 532.32 134.602C531.758 134.247 531.333 133.768 531.047 133.164C530.76 132.555 530.617 131.878 530.617 131.133C530.617 130.398 530.755 129.721 531.031 129.102C531.307 128.482 531.716 127.987 532.258 127.617C532.805 127.247 533.461 127.062 534.227 127.062C535.044 127.062 535.711 127.25 536.227 127.625C536.747 128 537.122 128.471 537.352 129.039C537.581 129.602 537.695 130.18 537.695 130.773C537.695 130.914 537.688 131.055 537.672 131.195C537.661 131.331 537.648 131.43 537.633 131.492H532.016C532.068 132.258 532.292 132.857 532.688 133.289C533.089 133.716 533.648 133.93 534.367 133.93C534.805 133.93 535.193 133.859 535.531 133.719C535.87 133.573 536.198 133.331 536.516 132.992L537.438 133.797C537.005 134.26 536.542 134.599 536.047 134.812C535.557 135.026 534.995 135.133 534.359 135.133ZM536.383 130.523C536.383 130.299 536.372 130.135 536.352 130.031C536.305 129.693 536.193 129.385 536.016 129.109C535.844 128.828 535.604 128.604 535.297 128.438C534.995 128.266 534.635 128.18 534.219 128.18C533.578 128.18 533.07 128.393 532.695 128.82C532.32 129.242 532.094 129.81 532.016 130.523H536.383ZM545.445 128.203L540.609 133.883H545.414V135H538.82V134.07L543.781 128.312H539.07V127.195H545.445V128.203ZM547.328 123.961H548.711V125.617H547.328V123.961ZM547.359 127.195H548.68V135H547.359V127.195ZM554.391 135.133C553.594 135.133 552.914 134.956 552.352 134.602C551.789 134.247 551.365 133.768 551.078 133.164C550.792 132.555 550.648 131.878 550.648 131.133C550.648 130.398 550.786 129.721 551.062 129.102C551.339 128.482 551.747 127.987 552.289 127.617C552.836 127.247 553.492 127.062 554.258 127.062C555.076 127.062 555.742 127.25 556.258 127.625C556.779 128 557.154 128.471 557.383 129.039C557.612 129.602 557.727 130.18 557.727 130.773C557.727 130.914 557.719 131.055 557.703 131.195C557.693 131.331 557.68 131.43 557.664 131.492H552.047C552.099 132.258 552.323 132.857 552.719 133.289C553.12 133.716 553.68 133.93 554.398 133.93C554.836 133.93 555.224 133.859 555.562 133.719C555.901 133.573 556.229 133.331 556.547 132.992L557.469 133.797C557.036 134.26 556.573 134.599 556.078 134.812C555.589 135.026 555.026 135.133 554.391 135.133ZM556.414 130.523C556.414 130.299 556.404 130.135 556.383 130.031C556.336 129.693 556.224 129.385 556.047 129.109C555.875 128.828 555.635 128.604 555.328 128.438C555.026 128.266 554.667 128.18 554.25 128.18C553.609 128.18 553.102 128.393 552.727 128.82C552.352 129.242 552.125 129.81 552.047 130.523H556.414ZM559.672 127.195H560.961V128.727C561.081 128.367 561.263 128.062 561.508 127.812C561.753 127.562 562.026 127.375 562.328 127.25C562.635 127.125 562.948 127.062 563.266 127.062C563.505 127.062 563.737 127.099 563.961 127.172C564.185 127.24 564.383 127.346 564.555 127.492L563.945 128.586C563.664 128.43 563.372 128.352 563.07 128.352C562.716 128.352 562.378 128.453 562.055 128.656C561.732 128.859 561.466 129.18 561.258 129.617C561.055 130.049 560.953 130.591 560.953 131.242V135H559.672V127.195ZM571.492 135.648C571.112 135.237 570.781 134.685 570.5 133.992C570.219 133.299 570.003 132.555 569.852 131.758C569.701 130.961 569.625 130.203 569.625 129.484C569.625 128.198 569.784 127.023 570.102 125.961C570.424 124.893 570.883 124.016 571.477 123.328H572.688C572.005 124.167 571.5 125.112 571.172 126.164C570.844 127.216 570.68 128.331 570.68 129.508C570.68 130.737 570.844 131.859 571.172 132.875C571.505 133.885 572.003 134.81 572.664 135.648H571.492ZM577.586 135.133C576.117 135.133 575.102 134.573 574.539 133.453C573.977 132.333 573.695 131.008 573.695 129.477C573.695 127.935 573.966 126.607 574.508 125.492C575.055 124.372 576.042 123.812 577.469 123.812C578.385 123.812 579.133 124.081 579.711 124.617C580.289 125.154 580.706 125.852 580.961 126.711C581.216 127.565 581.344 128.495 581.344 129.5C581.344 130.5 581.219 131.424 580.969 132.273C580.724 133.117 580.32 133.805 579.758 134.336C579.195 134.867 578.471 135.133 577.586 135.133ZM577.547 133.828C578.427 133.828 579.042 133.417 579.391 132.594C579.745 131.766 579.922 130.727 579.922 129.477C579.922 128.221 579.74 127.185 579.375 126.367C579.01 125.544 578.375 125.133 577.469 125.133C576.536 125.133 575.898 125.544 575.555 126.367C575.216 127.19 575.047 128.227 575.047 129.477C575.047 130.727 575.221 131.766 575.57 132.594C575.924 133.417 576.583 133.828 577.547 133.828ZM583.633 133.164H584.969V135H583.633V133.164ZM591.531 127.562C592.193 127.562 592.799 127.729 593.352 128.062C593.909 128.391 594.349 128.841 594.672 129.414C594.995 129.982 595.156 130.607 595.156 131.289C595.156 131.977 594.982 132.615 594.633 133.203C594.284 133.792 593.81 134.26 593.211 134.609C592.612 134.958 591.961 135.133 591.258 135.133C590.638 135.133 590.062 134.995 589.531 134.719C589 134.438 588.552 134.052 588.188 133.562C587.828 133.068 587.581 132.513 587.445 131.898L588.719 131.547C588.865 132.229 589.154 132.789 589.586 133.227C590.018 133.664 590.576 133.883 591.258 133.883C591.727 133.883 592.151 133.763 592.531 133.523C592.917 133.284 593.216 132.964 593.43 132.562C593.648 132.161 593.758 131.732 593.758 131.273C593.758 130.815 593.656 130.398 593.453 130.023C593.255 129.643 592.971 129.344 592.602 129.125C592.237 128.906 591.815 128.797 591.336 128.797C590.898 128.797 590.479 128.906 590.078 129.125C589.677 129.339 589.346 129.641 589.086 130.031L587.781 129.68L588.805 123.961H594.641V125.227H589.898L589.336 128.32C590.029 127.815 590.76 127.562 591.531 127.562ZM601.828 123.961V135H600.477V126.781H597.766V125.727H599.508C599.846 125.727 600.099 125.654 600.266 125.508C600.438 125.362 600.523 125.133 600.523 124.82V123.961H601.828ZM607.508 132.945H609.031L606.969 137.43H606.07L607.508 132.945ZM618.57 135.133C617.102 135.133 616.086 134.573 615.523 133.453C614.961 132.333 614.68 131.008 614.68 129.477C614.68 127.935 614.951 126.607 615.492 125.492C616.039 124.372 617.026 123.812 618.453 123.812C619.37 123.812 620.117 124.081 620.695 124.617C621.273 125.154 621.69 125.852 621.945 126.711C622.201 127.565 622.328 128.495 622.328 129.5C622.328 130.5 622.203 131.424 621.953 132.273C621.708 133.117 621.305 133.805 620.742 134.336C620.18 134.867 619.456 135.133 618.57 135.133ZM618.531 133.828C619.411 133.828 620.026 133.417 620.375 132.594C620.729 131.766 620.906 130.727 620.906 129.477C620.906 128.221 620.724 127.185 620.359 126.367C619.995 125.544 619.359 125.133 618.453 125.133C617.521 125.133 616.883 125.544 616.539 126.367C616.201 127.19 616.031 128.227 616.031 129.477C616.031 130.727 616.206 131.766 616.555 132.594C616.909 133.417 617.568 133.828 618.531 133.828ZM624.617 133.164H625.953V135H624.617V133.164ZM636.195 133.75V135H628.43V133.828C629.461 133.193 630.393 132.549 631.227 131.898C632.06 131.242 632.771 130.503 633.359 129.68C633.953 128.852 634.25 127.995 634.25 127.109C634.25 126.495 634.076 126.003 633.727 125.633C633.383 125.263 632.888 125.078 632.242 125.078C631.482 125.078 630.911 125.328 630.531 125.828C630.156 126.328 629.961 126.977 629.945 127.773L628.594 127.688C628.594 126.974 628.737 126.326 629.023 125.742C629.315 125.159 629.734 124.695 630.281 124.352C630.833 124.008 631.482 123.836 632.227 123.836C632.893 123.836 633.482 123.966 633.992 124.227C634.508 124.487 634.909 124.867 635.195 125.367C635.482 125.862 635.625 126.453 635.625 127.141C635.625 128.005 635.37 128.859 634.859 129.703C634.349 130.547 633.708 131.312 632.938 132C632.172 132.688 631.385 133.271 630.578 133.75H636.195ZM641.289 135.133C640.544 135.133 639.872 135 639.273 134.734C638.68 134.464 638.211 134.065 637.867 133.539C637.523 133.013 637.352 132.383 637.352 131.648L638.664 131.57C638.664 132.039 638.773 132.448 638.992 132.797C639.216 133.141 639.526 133.406 639.922 133.594C640.323 133.776 640.784 133.867 641.305 133.867C641.794 133.867 642.234 133.784 642.625 133.617C643.021 133.445 643.333 133.198 643.562 132.875C643.792 132.552 643.906 132.169 643.906 131.727C643.906 131.169 643.75 130.745 643.438 130.453C643.13 130.161 642.75 129.971 642.297 129.883C641.849 129.789 641.339 129.745 640.766 129.75V128.656C641.625 128.656 642.263 128.518 642.68 128.242C643.096 127.961 643.305 127.51 643.305 126.891C643.305 126.526 643.216 126.211 643.039 125.945C642.867 125.674 642.625 125.469 642.312 125.328C642.005 125.182 641.659 125.109 641.273 125.109C640.857 125.109 640.49 125.188 640.172 125.344C639.859 125.5 639.615 125.724 639.438 126.016C639.266 126.302 639.177 126.641 639.172 127.031L637.875 126.945C637.875 126.315 638.023 125.766 638.32 125.297C638.617 124.823 639.023 124.461 639.539 124.211C640.055 123.956 640.628 123.828 641.258 123.828C641.867 123.828 642.43 123.948 642.945 124.188C643.461 124.427 643.87 124.766 644.172 125.203C644.479 125.641 644.633 126.148 644.633 126.727C644.633 127.315 644.461 127.812 644.117 128.219C643.773 128.62 643.299 128.917 642.695 129.109C643.477 129.271 644.091 129.583 644.539 130.047C644.992 130.51 645.219 131.104 645.219 131.828C645.219 132.51 645.044 133.102 644.695 133.602C644.346 134.102 643.872 134.482 643.273 134.742C642.674 135.003 642.013 135.133 641.289 135.133ZM648.492 132.945H650.016L647.953 137.43H647.055L648.492 132.945ZM659.555 135.133C658.086 135.133 657.07 134.573 656.508 133.453C655.945 132.333 655.664 131.008 655.664 129.477C655.664 127.935 655.935 126.607 656.477 125.492C657.023 124.372 658.01 123.812 659.438 123.812C660.354 123.812 661.102 124.081 661.68 124.617C662.258 125.154 662.674 125.852 662.93 126.711C663.185 127.565 663.312 128.495 663.312 129.5C663.312 130.5 663.188 131.424 662.938 132.273C662.693 133.117 662.289 133.805 661.727 134.336C661.164 134.867 660.44 135.133 659.555 135.133ZM659.516 133.828C660.396 133.828 661.01 133.417 661.359 132.594C661.714 131.766 661.891 130.727 661.891 129.477C661.891 128.221 661.708 127.185 661.344 126.367C660.979 125.544 660.344 125.133 659.438 125.133C658.505 125.133 657.867 125.544 657.523 126.367C657.185 127.19 657.016 128.227 657.016 129.477C657.016 130.727 657.19 131.766 657.539 132.594C657.893 133.417 658.552 133.828 659.516 133.828ZM665.602 133.164H666.938V135H665.602V133.164ZM677.18 133.75V135H669.414V133.828C670.445 133.193 671.378 132.549 672.211 131.898C673.044 131.242 673.755 130.503 674.344 129.68C674.938 128.852 675.234 127.995 675.234 127.109C675.234 126.495 675.06 126.003 674.711 125.633C674.367 125.263 673.872 125.078 673.227 125.078C672.466 125.078 671.896 125.328 671.516 125.828C671.141 126.328 670.945 126.977 670.93 127.773L669.578 127.688C669.578 126.974 669.721 126.326 670.008 125.742C670.299 125.159 670.719 124.695 671.266 124.352C671.818 124.008 672.466 123.836 673.211 123.836C673.878 123.836 674.466 123.966 674.977 124.227C675.492 124.487 675.893 124.867 676.18 125.367C676.466 125.862 676.609 126.453 676.609 127.141C676.609 128.005 676.354 128.859 675.844 129.703C675.333 130.547 674.693 131.312 673.922 132C673.156 132.688 672.37 133.271 671.562 133.75H677.18ZM686.32 123.961V124.727L681.078 135H679.562L684.672 125.219H678.398V123.961H686.32ZM688.93 132.945H690.453L688.391 137.43H687.492L688.93 132.945ZM701.344 123.961V135H699.992V126.781H697.281V125.727H699.023C699.362 125.727 699.615 125.654 699.781 125.508C699.953 125.362 700.039 125.133 700.039 124.82V123.961H701.344ZM704.859 135.648C705.521 134.81 706.016 133.885 706.344 132.875C706.677 131.859 706.844 130.737 706.844 129.508C706.844 128.331 706.68 127.216 706.352 126.164C706.023 125.112 705.518 124.167 704.836 123.328H706.047C706.641 124.016 707.096 124.893 707.414 125.961C707.737 127.023 707.898 128.198 707.898 129.484C707.898 130.203 707.823 130.961 707.672 131.758C707.521 132.555 707.305 133.299 707.023 133.992C706.742 134.685 706.411 135.237 706.031 135.648H704.859Z" fill="#161616"/>
</svg>
