<svg width="753" height="249" viewBox="0 0 753 249" fill="none" xmlns="http://www.w3.org/2000/svg">
<path d="M11.52 49.384C18.432 49.384 20.8 43.336 20.8 37.8C20.8 32.264 18.432 26.216 11.52 26.216C4.608 26.216 2.24 32.264 2.24 37.8C2.24 43.336 4.608 49.384 11.52 49.384ZM11.52 47.368C6.368 47.368 4.576 42.664 4.576 37.8C4.576 33.352 6.368 28.232 11.52 28.232C16.672 28.232 18.464 32.936 18.464 37.8C18.464 42.248 16.672 47.368 11.52 47.368ZM30.2953 49H31.8633L37.8473 32.648H35.6073L31.7353 43.784C31.5433 44.36 31.3513 44.872 31.1593 45.512C30.9673 44.872 30.7753 44.36 30.5833 43.784L26.6153 32.648H24.3113L30.2953 49ZM47.989 49.384C49.877 49.384 51.701 48.584 52.981 47.528L51.765 46.024C50.517 46.952 49.269 47.304 48.085 47.304C45.301 47.304 43.637 45.064 43.253 41.736H54.389C54.453 41.032 54.453 40.52 54.453 40.168C54.453 34.664 51.477 32.264 47.989 32.264C43.797 32.264 40.885 35.368 40.885 40.808C40.885 45.416 43.573 49.384 47.989 49.384ZM43.189 39.72C43.381 36.008 45.365 34.28 47.989 34.28C49.717 34.28 52.149 35.304 52.181 39.72H43.189ZM58.9425 49H61.1825V39.752C61.1825 35.72 63.5185 34.504 65.1505 34.504C66.2065 34.504 66.8465 34.856 67.2625 35.112L67.6145 32.936C67.1665 32.616 66.3345 32.264 65.3105 32.264C63.2945 32.264 61.9185 33.384 61.1825 34.952V32.648H58.9425V49ZM77.85 49.384C81.786 49.384 84.602 46.28 84.602 40.808C84.602 35.656 82.042 32.264 77.85 32.264C75.642 32.264 74.426 33.16 73.37 34.12V32.648H71.13V55.496L73.37 54.376V47.336C74.298 48.424 75.546 49.384 77.85 49.384ZM77.594 47.368C75.834 47.368 74.49 46.28 73.37 44.84V36.808C74.266 35.208 75.834 34.28 77.594 34.28C80.506 34.28 82.266 36.84 82.266 40.808C82.266 45.032 80.57 47.368 77.594 47.368ZM98.663 49H100.743V37.928C100.743 33.288 97.639 32.264 95.303 32.264C93.063 32.264 90.887 33.224 89.575 34.056L90.215 35.976C91.431 35.144 93.447 34.216 95.079 34.216C96.903 34.216 98.663 34.92 98.663 38.216V39.592C97.063 38.728 95.623 38.44 94.247 38.44C91.143 38.44 88.295 40.072 88.295 43.848C88.295 47.528 90.567 49.384 93.863 49.384C95.623 49.384 97.351 48.584 98.663 47.4V49ZM94.087 47.432C91.719 47.432 90.375 45.992 90.375 43.848C90.375 41.48 92.263 40.392 94.471 40.392C95.879 40.392 97.607 41.032 98.663 41.736V44.904C97.671 46.12 96.071 47.432 94.087 47.432ZM110.457 49.384C113.849 49.384 115.961 47.624 115.961 44.904C115.961 41.608 113.177 40.488 110.745 39.528C108.825 38.76 107.001 38.056 107.001 36.392C107.001 35.08 108.217 34.248 110.105 34.248C111.897 34.248 113.177 35.176 114.009 36.008L115.481 34.76C114.169 33.192 112.377 32.264 110.169 32.264C107.097 32.264 104.889 33.928 104.889 36.424C104.889 39.176 107.193 40.328 109.785 41.384C111.769 42.184 113.849 43.048 113.849 45.032C113.849 46.568 112.441 47.4 110.649 47.4C108.953 47.4 107.385 46.344 106.393 45.16L104.825 46.536C106.201 48.168 108.249 49.384 110.457 49.384ZM125.269 49.384C128.661 49.384 130.773 47.624 130.773 44.904C130.773 41.608 127.989 40.488 125.557 39.528C123.637 38.76 121.813 38.056 121.813 36.392C121.813 35.08 123.029 34.248 124.917 34.248C126.709 34.248 127.989 35.176 128.821 36.008L130.293 34.76C128.981 33.192 127.189 32.264 124.981 32.264C121.909 32.264 119.701 33.928 119.701 36.424C119.701 39.176 122.005 40.328 124.597 41.384C126.581 42.184 128.661 43.048 128.661 45.032C128.661 46.568 127.253 47.4 125.461 47.4C123.765 47.4 122.197 46.344 121.205 45.16L119.637 46.536C121.013 48.168 123.061 49.384 125.269 49.384ZM143.329 49H156.673V46.856H145.569V26.6H143.329V49ZM161.813 29.288C162.677 29.288 163.285 28.648 163.285 27.816C163.285 26.952 162.677 26.28 161.813 26.28C160.981 26.28 160.341 26.952 160.341 27.816C160.341 28.648 160.981 29.288 161.813 29.288ZM160.693 49H162.933V32.648H160.693V49ZM173.332 55.816C177.332 55.656 181.012 54.12 181.012 48.744V32.648H178.772V34.184C178.228 33.544 176.916 32.264 174.42 32.264C170.42 32.264 167.604 35.432 167.604 40.808C167.604 46.504 170.772 49.384 174.292 49.384C176.532 49.384 177.844 48.52 178.772 47.144V49.64C178.772 51.88 177.62 53.768 172.308 54.056L173.332 55.816ZM174.804 47.368C172.02 47.368 169.94 45 169.94 40.808C169.94 36.616 171.572 34.28 174.804 34.28C175.988 34.28 177.844 35.144 178.772 36.776V44.648C177.876 46.344 176.148 47.368 174.804 47.368ZM186.786 49H189.026V38.952C189.026 35.4 190.754 34.28 193.058 34.28C195.234 34.28 196.866 35.56 196.866 39.016V49H199.106V39.944C199.106 34.536 197.25 32.264 193.25 32.264C191.522 32.264 190.018 33 189.026 34.472V25.896L186.786 26.952V49ZM208.789 49.384C210.036 49.384 210.933 49.096 211.765 48.648L212.021 46.312C211.413 46.728 210.645 47.272 209.557 47.272C207.989 47.272 207.797 46.088 207.797 44.68V34.664H211.957V32.648H207.797V25.896L205.557 27.016V32.648H202.773V34.664H205.557V45.64C205.557 47.784 206.453 49.384 208.789 49.384Z" fill="#30404F"/>
<path d="M11.68 111.384C18.752 111.384 21.216 105.336 21.216 99.8C21.216 94.264 18.752 88.216 11.68 88.216C4.64 88.216 2.176 94.264 2.176 99.8C2.176 105.336 4.64 111.384 11.68 111.384ZM11.68 108.76C6.784 108.76 5.056 104.184 5.056 99.8C5.056 95.736 6.784 90.808 11.68 90.808C16.608 90.808 18.304 95.416 18.304 99.8C18.304 103.832 16.608 108.76 11.68 108.76ZM30.415 111H32.751L38.735 94.648H35.951L32.143 105.56C31.951 106.136 31.791 106.584 31.631 107.16C31.471 106.584 31.311 106.136 31.119 105.56L27.247 94.648H24.431L30.415 111ZM48.71 111.384C50.918 111.384 52.774 110.488 53.99 109.272L52.294 107.384C51.27 108.408 50.022 108.856 48.774 108.856C46.31 108.856 44.518 106.904 44.294 103.896H55.366C55.43 103.256 55.462 102.552 55.462 102.04C55.462 96.664 52.39 94.264 48.71 94.264C44.358 94.264 41.446 97.4 41.446 102.808C41.446 107.8 44.23 111.384 48.71 111.384ZM44.262 101.528C44.422 98.168 46.342 96.728 48.71 96.728C50.438 96.728 52.614 97.816 52.646 101.528H44.262ZM59.6248 111H62.4088V101.784C62.4088 98.072 64.4888 97.016 66.0568 97.016C67.1768 97.016 67.8808 97.368 68.3928 97.72L68.8088 95.096C68.2328 94.616 67.3368 94.264 66.2808 94.264C64.4568 94.264 63.1448 95.16 62.4088 96.792V94.648H59.6248V111ZM79.0383 111.384C83.0063 111.384 85.7903 108.248 85.7903 102.808C85.7903 97.56 83.1983 94.264 79.0383 94.264C76.9903 94.264 75.8063 95.064 74.8463 96.024V94.648H72.0623V117.464L74.8463 116.152V109.464C75.7103 110.488 76.9263 111.384 79.0383 111.384ZM78.6863 108.792C77.0223 108.792 75.7743 107.8 74.8463 106.584V99.032C75.6463 97.624 77.0223 96.824 78.6863 96.824C81.3743 96.824 82.9423 99.256 82.9423 102.808C82.9423 106.68 81.4063 108.792 78.6863 108.792ZM99.5008 111H102.125V100.152C102.125 95.128 98.8608 94.264 96.3008 94.264C93.8368 94.264 91.6927 95.128 90.3808 95.992L91.1808 98.328C92.3968 97.464 94.1248 96.696 95.9488 96.696C98.0608 96.696 99.5008 97.496 99.5008 100.376V101.528C98.1568 100.76 96.7168 100.472 95.2768 100.472C92.1088 100.472 89.1648 102.104 89.1648 105.88C89.1648 109.528 91.5328 111.384 94.8608 111.384C96.8128 111.384 98.4128 110.52 99.5008 109.496V111ZM95.2768 108.92C93.0368 108.92 91.7888 107.704 91.7888 105.88C91.7888 103.8 93.5488 102.872 95.6608 102.872C97.0048 102.872 98.5088 103.352 99.5008 103.96V106.776C98.5728 107.864 97.1008 108.92 95.2768 108.92ZM111.801 111.384C115.353 111.384 117.625 109.688 117.625 106.744C117.625 103.64 115.289 102.36 112.312 101.304C110.489 100.568 108.857 99.96 108.857 98.584C108.857 97.432 109.913 96.76 111.577 96.76C113.337 96.76 114.489 97.592 115.193 98.328L117.113 96.728C115.929 95.32 114.105 94.264 111.609 94.264C108.473 94.264 106.105 95.896 106.105 98.584C106.105 101.272 108.153 102.584 111.161 103.704C113.081 104.44 114.905 105.176 114.905 106.808C114.905 108.248 113.593 108.888 111.865 108.888C110.105 108.888 108.697 107.832 107.865 106.936L105.881 108.632C107.161 110.264 109.401 111.384 111.801 111.384ZM126.801 111.384C130.353 111.384 132.625 109.688 132.625 106.744C132.625 103.64 130.289 102.36 127.312 101.304C125.489 100.568 123.857 99.96 123.857 98.584C123.857 97.432 124.913 96.76 126.577 96.76C128.337 96.76 129.489 97.592 130.193 98.328L132.113 96.728C130.929 95.32 129.105 94.264 126.609 94.264C123.473 94.264 121.105 95.896 121.105 98.584C121.105 101.272 123.153 102.584 126.161 103.704C128.081 104.44 129.905 105.176 129.905 106.808C129.905 108.248 128.593 108.888 126.865 108.888C125.105 108.888 123.697 107.832 122.865 106.936L120.881 108.632C122.161 110.264 124.401 111.384 126.801 111.384ZM144.98 111H147.764V101.4H152.724L157.332 111H160.468L155.668 101.208C159.412 100.44 160.884 97.624 160.884 94.968C160.884 91.8 159.188 88.6 153.812 88.6H144.98V111ZM147.764 98.808V91.192H153.876C157.172 91.192 158.068 93.368 158.068 95.032C158.068 96.888 157.012 98.808 153.876 98.808H147.764ZM171.335 111.384C173.543 111.384 175.399 110.488 176.615 109.272L174.919 107.384C173.895 108.408 172.647 108.856 171.399 108.856C168.935 108.856 167.143 106.904 166.919 103.896H177.991C178.055 103.256 178.087 102.552 178.087 102.04C178.087 96.664 175.015 94.264 171.335 94.264C166.983 94.264 164.071 97.4 164.071 102.808C164.071 107.8 166.855 111.384 171.335 111.384ZM166.887 101.528C167.047 98.168 168.967 96.728 171.335 96.728C173.063 96.728 175.239 97.816 175.271 101.528H166.887ZM187.274 117.624C191.818 117.368 194.986 115.64 194.986 110.328V94.648H192.202V95.992C191.562 95.288 190.282 94.264 188.074 94.264C184.074 94.264 181.29 97.432 181.29 102.808C181.29 108.504 184.362 111.384 187.978 111.384C189.962 111.384 191.274 110.68 192.202 109.4V111.384C192.202 113.528 190.986 115.16 185.93 115.448L187.274 117.624ZM188.554 108.792C185.93 108.792 184.106 106.552 184.106 102.808C184.106 98.968 185.642 96.824 188.554 96.824C189.802 96.824 191.402 97.656 192.202 99V106.488C191.37 107.928 189.898 108.792 188.554 108.792ZM210.201 111H212.985V94.648H210.201V104.568C210.201 107.768 208.569 108.792 206.425 108.792C204.409 108.792 202.905 107.608 202.905 104.504V94.648H200.121V104.088C200.121 109.336 202.233 111.384 206.073 111.384C207.801 111.384 209.113 110.84 210.201 109.432V111ZM218.472 111H221.256V87.896L218.472 89.208V111ZM236.063 111H238.687V100.152C238.687 95.128 235.423 94.264 232.863 94.264C230.399 94.264 228.255 95.128 226.943 95.992L227.743 98.328C228.959 97.464 230.687 96.696 232.511 96.696C234.623 96.696 236.063 97.496 236.063 100.376V101.528C234.719 100.76 233.279 100.472 231.839 100.472C228.671 100.472 225.727 102.104 225.727 105.88C225.727 109.528 228.095 111.384 231.423 111.384C233.375 111.384 234.975 110.52 236.063 109.496V111ZM231.839 108.92C229.599 108.92 228.351 107.704 228.351 105.88C228.351 103.8 230.111 102.872 232.223 102.872C233.567 102.872 235.071 103.352 236.063 103.96V106.776C235.135 107.864 233.663 108.92 231.839 108.92ZM243.531 111H246.315V101.784C246.315 98.072 248.395 97.016 249.963 97.016C251.083 97.016 251.787 97.368 252.299 97.72L252.715 95.096C252.139 94.616 251.243 94.264 250.187 94.264C248.363 94.264 247.051 95.16 246.315 96.792V94.648H243.531V111Z" fill="#30404F"/>
<path d="M400.656 38.4844H395.031V48H393.188V25.25H399.609C400.609 25.2708 401.552 25.4323 402.438 25.7344C403.323 26.0365 404.094 26.474 404.75 27.0469C405.417 27.6094 405.938 28.3021 406.312 29.125C406.698 29.9479 406.891 30.8906 406.891 31.9531C406.891 32.7135 406.776 33.4062 406.547 34.0312C406.328 34.6562 406.021 35.224 405.625 35.7344C405.229 36.2344 404.755 36.6771 404.203 37.0625C403.661 37.4479 403.062 37.776 402.406 38.0469L407.594 47.7969V48H405.641L400.656 38.4844ZM395.031 36.9062H399.984C400.693 36.8854 401.354 36.75 401.969 36.5C402.583 36.25 403.115 35.9115 403.562 35.4844C404.021 35.0469 404.375 34.526 404.625 33.9219C404.885 33.3177 405.016 32.6562 405.016 31.9375C405.016 31.1354 404.875 30.4219 404.594 29.7969C404.312 29.1719 403.927 28.6458 403.438 28.2188C402.958 27.7812 402.385 27.4479 401.719 27.2188C401.062 26.9896 400.354 26.8646 399.594 26.8438H395.031V36.9062Z" fill="#30404F"/>
<path d="M411.266 39.2969C411.276 38.151 411.453 37.0625 411.797 36.0312C412.141 35 412.63 34.099 413.266 33.3281C413.911 32.5469 414.698 31.9271 415.625 31.4688C416.562 31.0104 417.62 30.7812 418.797 30.7812C419.984 30.7812 421.042 31.0104 421.969 31.4688C422.906 31.9271 423.698 32.5469 424.344 33.3281C424.99 34.099 425.484 35 425.828 36.0312C426.172 37.0625 426.349 38.151 426.359 39.2969V39.8125C426.349 40.9583 426.172 42.0469 425.828 43.0781C425.495 44.1094 425.005 45.0156 424.359 45.7969C423.714 46.5677 422.927 47.1823 422 47.6406C421.073 48.0885 420.016 48.3125 418.828 48.3125C417.641 48.3125 416.578 48.0885 415.641 47.6406C414.714 47.1823 413.927 46.5677 413.281 45.7969C412.635 45.0156 412.141 44.1094 411.797 43.0781C411.453 42.0469 411.276 40.9583 411.266 39.8125V39.2969ZM413.141 39.8125C413.141 40.7083 413.266 41.5729 413.516 42.4062C413.766 43.2396 414.13 43.9792 414.609 44.625C415.089 45.2604 415.677 45.7708 416.375 46.1562C417.083 46.5417 417.901 46.7344 418.828 46.7344C419.745 46.7344 420.552 46.5417 421.25 46.1562C421.958 45.7708 422.547 45.2604 423.016 44.625C423.495 43.9792 423.859 43.2396 424.109 42.4062C424.359 41.5729 424.484 40.7083 424.484 39.8125V39.2969C424.484 38.4115 424.359 37.5521 424.109 36.7188C423.859 35.8854 423.495 35.151 423.016 34.5156C422.536 33.8698 421.943 33.3542 421.234 32.9688C420.526 32.5729 419.714 32.375 418.797 32.375C417.88 32.375 417.068 32.5729 416.359 32.9688C415.661 33.3542 415.073 33.8698 414.594 34.5156C414.125 35.151 413.766 35.8854 413.516 36.7188C413.266 37.5521 413.141 38.4115 413.141 39.2969V39.8125Z" fill="#30404F"/>
<path d="M445.188 39.7188C445.188 40.8125 445.052 41.8802 444.781 42.9219C444.521 43.9531 444.115 44.8698 443.562 45.6719C443.021 46.4635 442.333 47.1042 441.5 47.5938C440.667 48.0729 439.677 48.3125 438.531 48.3125C437.448 48.3125 436.464 48.0938 435.578 47.6562C434.703 47.2083 433.969 46.5677 433.375 45.7344L433.297 48H431.547V24H433.422V33.4531C433.995 32.6094 434.708 31.9531 435.562 31.4844C436.427 31.0156 437.406 30.7812 438.5 30.7812C439.656 30.7812 440.656 31.0208 441.5 31.5C442.344 31.9688 443.036 32.6042 443.578 33.4062C444.12 34.1979 444.521 35.1146 444.781 36.1562C445.052 37.1875 445.188 38.2656 445.188 39.3906V39.7188ZM443.297 39.3906C443.297 38.5469 443.208 37.7083 443.031 36.875C442.854 36.0417 442.568 35.2969 442.172 34.6406C441.776 33.974 441.245 33.4375 440.578 33.0312C439.922 32.6146 439.109 32.4062 438.141 32.4062C437.578 32.4062 437.052 32.4896 436.562 32.6562C436.073 32.8229 435.625 33.0521 435.219 33.3438C434.823 33.6354 434.474 33.9896 434.172 34.4062C433.87 34.8125 433.62 35.2552 433.422 35.7344V43.625C433.63 44.0833 433.891 44.5052 434.203 44.8906C434.526 45.2656 434.891 45.5885 435.297 45.8594C435.714 46.1198 436.161 46.3229 436.641 46.4688C437.13 46.6146 437.641 46.6875 438.172 46.6875C439.12 46.6875 439.917 46.4844 440.562 46.0781C441.219 45.6719 441.745 45.1406 442.141 44.4844C442.547 43.8177 442.839 43.0677 443.016 42.2344C443.203 41.401 443.297 40.5625 443.297 39.7188V39.3906Z" fill="#30404F"/>
<path d="M449.703 39.2969C449.714 38.151 449.891 37.0625 450.234 36.0312C450.578 35 451.068 34.099 451.703 33.3281C452.349 32.5469 453.135 31.9271 454.062 31.4688C455 31.0104 456.057 30.7812 457.234 30.7812C458.422 30.7812 459.479 31.0104 460.406 31.4688C461.344 31.9271 462.135 32.5469 462.781 33.3281C463.427 34.099 463.922 35 464.266 36.0312C464.609 37.0625 464.786 38.151 464.797 39.2969V39.8125C464.786 40.9583 464.609 42.0469 464.266 43.0781C463.932 44.1094 463.443 45.0156 462.797 45.7969C462.151 46.5677 461.365 47.1823 460.438 47.6406C459.51 48.0885 458.453 48.3125 457.266 48.3125C456.078 48.3125 455.016 48.0885 454.078 47.6406C453.151 47.1823 452.365 46.5677 451.719 45.7969C451.073 45.0156 450.578 44.1094 450.234 43.0781C449.891 42.0469 449.714 40.9583 449.703 39.8125V39.2969ZM451.578 39.8125C451.578 40.7083 451.703 41.5729 451.953 42.4062C452.203 43.2396 452.568 43.9792 453.047 44.625C453.526 45.2604 454.115 45.7708 454.812 46.1562C455.521 46.5417 456.339 46.7344 457.266 46.7344C458.182 46.7344 458.99 46.5417 459.688 46.1562C460.396 45.7708 460.984 45.2604 461.453 44.625C461.932 43.9792 462.297 43.2396 462.547 42.4062C462.797 41.5729 462.922 40.7083 462.922 39.8125V39.2969C462.922 38.4115 462.797 37.5521 462.547 36.7188C462.297 35.8854 461.932 35.151 461.453 34.5156C460.974 33.8698 460.38 33.3542 459.672 32.9688C458.964 32.5729 458.151 32.375 457.234 32.375C456.318 32.375 455.505 32.5729 454.797 32.9688C454.099 33.3542 453.51 33.8698 453.031 34.5156C452.562 35.151 452.203 35.8854 451.953 36.7188C451.703 37.5521 451.578 38.4115 451.578 39.2969V39.8125Z" fill="#30404F"/>
<path d="M476.125 26.7656V31.0938H482.391V32.625H476.125V43.2656C476.135 43.9219 476.234 44.4688 476.422 44.9062C476.62 45.3333 476.88 45.6823 477.203 45.9531C477.536 46.2135 477.922 46.401 478.359 46.5156C478.807 46.6302 479.292 46.6875 479.812 46.6875C480.333 46.6875 480.865 46.651 481.406 46.5781C481.958 46.5052 482.427 46.4323 482.812 46.3594L483.094 47.7812C482.646 47.9583 482.099 48.0885 481.453 48.1719C480.807 48.2656 480.151 48.3125 479.484 48.3125C478.734 48.3125 478.042 48.2188 477.406 48.0312C476.771 47.8542 476.219 47.5677 475.75 47.1719C475.281 46.7656 474.911 46.2448 474.641 45.6094C474.37 44.9635 474.229 44.1771 474.219 43.25V32.625H469.516V31.0938H474.219V26.7656H476.125Z" fill="#30404F"/>
<path d="M488.141 39.2969C488.151 38.151 488.328 37.0625 488.672 36.0312C489.016 35 489.505 34.099 490.141 33.3281C490.786 32.5469 491.573 31.9271 492.5 31.4688C493.438 31.0104 494.495 30.7812 495.672 30.7812C496.859 30.7812 497.917 31.0104 498.844 31.4688C499.781 31.9271 500.573 32.5469 501.219 33.3281C501.865 34.099 502.359 35 502.703 36.0312C503.047 37.0625 503.224 38.151 503.234 39.2969V39.8125C503.224 40.9583 503.047 42.0469 502.703 43.0781C502.37 44.1094 501.88 45.0156 501.234 45.7969C500.589 46.5677 499.802 47.1823 498.875 47.6406C497.948 48.0885 496.891 48.3125 495.703 48.3125C494.516 48.3125 493.453 48.0885 492.516 47.6406C491.589 47.1823 490.802 46.5677 490.156 45.7969C489.51 45.0156 489.016 44.1094 488.672 43.0781C488.328 42.0469 488.151 40.9583 488.141 39.8125V39.2969ZM490.016 39.8125C490.016 40.7083 490.141 41.5729 490.391 42.4062C490.641 43.2396 491.005 43.9792 491.484 44.625C491.964 45.2604 492.552 45.7708 493.25 46.1562C493.958 46.5417 494.776 46.7344 495.703 46.7344C496.62 46.7344 497.427 46.5417 498.125 46.1562C498.833 45.7708 499.422 45.2604 499.891 44.625C500.37 43.9792 500.734 43.2396 500.984 42.4062C501.234 41.5729 501.359 40.7083 501.359 39.8125V39.2969C501.359 38.4115 501.234 37.5521 500.984 36.7188C500.734 35.8854 500.37 35.151 499.891 34.5156C499.411 33.8698 498.818 33.3542 498.109 32.9688C497.401 32.5729 496.589 32.375 495.672 32.375C494.755 32.375 493.943 32.5729 493.234 32.9688C492.536 33.3542 491.948 33.8698 491.469 34.5156C491 35.151 490.641 35.8854 490.391 36.7188C490.141 37.5521 490.016 38.4115 490.016 39.2969V39.8125Z" fill="#30404F"/>
<path d="M529.547 25.25L534.125 38.125L539 25.25H541.453V48H539.625V37.9219L539.766 27.75L534.719 41.1562H533.5L528.812 27.9688L528.969 37.9219V48H527.141V25.25H529.547Z" fill="#30404F"/>
<path d="M545.797 39.2969C545.807 38.151 545.984 37.0625 546.328 36.0312C546.672 35 547.161 34.099 547.797 33.3281C548.443 32.5469 549.229 31.9271 550.156 31.4688C551.094 31.0104 552.151 30.7812 553.328 30.7812C554.516 30.7812 555.573 31.0104 556.5 31.4688C557.438 31.9271 558.229 32.5469 558.875 33.3281C559.521 34.099 560.016 35 560.359 36.0312C560.703 37.0625 560.88 38.151 560.891 39.2969V39.8125C560.88 40.9583 560.703 42.0469 560.359 43.0781C560.026 44.1094 559.536 45.0156 558.891 45.7969C558.245 46.5677 557.458 47.1823 556.531 47.6406C555.604 48.0885 554.547 48.3125 553.359 48.3125C552.172 48.3125 551.109 48.0885 550.172 47.6406C549.245 47.1823 548.458 46.5677 547.812 45.7969C547.167 45.0156 546.672 44.1094 546.328 43.0781C545.984 42.0469 545.807 40.9583 545.797 39.8125V39.2969ZM547.672 39.8125C547.672 40.7083 547.797 41.5729 548.047 42.4062C548.297 43.2396 548.661 43.9792 549.141 44.625C549.62 45.2604 550.208 45.7708 550.906 46.1562C551.615 46.5417 552.432 46.7344 553.359 46.7344C554.276 46.7344 555.083 46.5417 555.781 46.1562C556.49 45.7708 557.078 45.2604 557.547 44.625C558.026 43.9792 558.391 43.2396 558.641 42.4062C558.891 41.5729 559.016 40.7083 559.016 39.8125V39.2969C559.016 38.4115 558.891 37.5521 558.641 36.7188C558.391 35.8854 558.026 35.151 557.547 34.5156C557.068 33.8698 556.474 33.3542 555.766 32.9688C555.057 32.5729 554.245 32.375 553.328 32.375C552.411 32.375 551.599 32.5729 550.891 32.9688C550.193 33.3542 549.604 33.8698 549.125 34.5156C548.656 35.151 548.297 35.8854 548.047 36.7188C547.797 37.5521 547.672 38.4115 547.672 39.2969V39.8125Z" fill="#30404F"/>
<path d="M567.703 31.0938L567.844 34.2656C568.438 33.2135 569.229 32.375 570.219 31.75C571.208 31.1146 572.333 30.7917 573.594 30.7812C575.448 30.7812 576.865 31.3385 577.844 32.4531C578.823 33.5573 579.318 35.1302 579.328 37.1719V48H577.453V37.2031C577.443 35.651 577.089 34.4635 576.391 33.6406C575.693 32.8073 574.609 32.3958 573.141 32.4062C572.536 32.4062 571.958 32.5052 571.406 32.7031C570.865 32.901 570.365 33.1719 569.906 33.5156C569.458 33.8594 569.057 34.2656 568.703 34.7344C568.359 35.2031 568.078 35.7135 567.859 36.2656V48H565.984V31.0938H567.703Z" fill="#30404F"/>
<path d="M584.234 39.2969C584.245 38.151 584.422 37.0625 584.766 36.0312C585.109 35 585.599 34.099 586.234 33.3281C586.88 32.5469 587.667 31.9271 588.594 31.4688C589.531 31.0104 590.589 30.7812 591.766 30.7812C592.953 30.7812 594.01 31.0104 594.938 31.4688C595.875 31.9271 596.667 32.5469 597.312 33.3281C597.958 34.099 598.453 35 598.797 36.0312C599.141 37.0625 599.318 38.151 599.328 39.2969V39.8125C599.318 40.9583 599.141 42.0469 598.797 43.0781C598.464 44.1094 597.974 45.0156 597.328 45.7969C596.682 46.5677 595.896 47.1823 594.969 47.6406C594.042 48.0885 592.984 48.3125 591.797 48.3125C590.609 48.3125 589.547 48.0885 588.609 47.6406C587.682 47.1823 586.896 46.5677 586.25 45.7969C585.604 45.0156 585.109 44.1094 584.766 43.0781C584.422 42.0469 584.245 40.9583 584.234 39.8125V39.2969ZM586.109 39.8125C586.109 40.7083 586.234 41.5729 586.484 42.4062C586.734 43.2396 587.099 43.9792 587.578 44.625C588.057 45.2604 588.646 45.7708 589.344 46.1562C590.052 46.5417 590.87 46.7344 591.797 46.7344C592.714 46.7344 593.521 46.5417 594.219 46.1562C594.927 45.7708 595.516 45.2604 595.984 44.625C596.464 43.9792 596.828 43.2396 597.078 42.4062C597.328 41.5729 597.453 40.7083 597.453 39.8125V39.2969C597.453 38.4115 597.328 37.5521 597.078 36.7188C596.828 35.8854 596.464 35.151 595.984 34.5156C595.505 33.8698 594.911 33.3542 594.203 32.9688C593.495 32.5729 592.682 32.375 591.766 32.375C590.849 32.375 590.036 32.5729 589.328 32.9688C588.63 33.3542 588.042 33.8698 587.562 34.5156C587.094 35.151 586.734 35.8854 586.484 36.7188C586.234 37.5521 586.109 38.4115 586.109 39.2969V39.8125Z" fill="#30404F"/>
<path d="M625.938 46.375H637.516V48H624.062V25.25H625.938V46.375Z" fill="#30404F"/>
<path d="M643.297 31.0938H651.141V46.3438H656.891V48H643.297V46.3438H649.266V32.7656H643.297V31.0938ZM648.719 26.4688C648.719 26.0833 648.828 25.75 649.047 25.4688C649.266 25.1875 649.63 25.0469 650.141 25.0469C650.641 25.0469 651 25.1875 651.219 25.4688C651.448 25.75 651.562 26.0833 651.562 26.4688C651.562 26.8333 651.448 27.1562 651.219 27.4375C651 27.7083 650.641 27.8438 650.141 27.8438C649.63 27.8438 649.266 27.7083 649.047 27.4375C648.828 27.1562 648.719 26.8333 648.719 26.4688Z" fill="#30404F"/>
<path d="M661.547 39.3906C661.547 38.2656 661.682 37.1875 661.953 36.1562C662.224 35.1146 662.635 34.1979 663.188 33.4062C663.75 32.6042 664.448 31.9688 665.281 31.5C666.125 31.0208 667.12 30.7812 668.266 30.7812C669.349 30.7812 670.318 31.0156 671.172 31.4844C672.036 31.9427 672.755 32.5938 673.328 33.4375L673.406 31.0938H675.156V47.7031C675.146 48.7344 674.984 49.6823 674.672 50.5469C674.359 51.4115 673.906 52.151 673.312 52.7656C672.729 53.3906 672.021 53.875 671.188 54.2188C670.354 54.5625 669.417 54.7344 668.375 54.7344C667.875 54.7344 667.354 54.6771 666.812 54.5625C666.271 54.4479 665.74 54.2708 665.219 54.0312C664.698 53.7917 664.198 53.4896 663.719 53.125C663.25 52.7708 662.839 52.3438 662.484 51.8438L663.531 50.7188C664.875 52.3438 666.448 53.1562 668.25 53.1562C669.052 53.1562 669.766 53.026 670.391 52.7656C671.016 52.5052 671.536 52.1354 671.953 51.6562C672.38 51.1875 672.703 50.6198 672.922 49.9531C673.151 49.2969 673.271 48.5729 673.281 47.7812V45.8594C672.688 46.651 671.958 47.2604 671.094 47.6875C670.24 48.1042 669.286 48.3125 668.234 48.3125C667.109 48.3125 666.125 48.0729 665.281 47.5938C664.448 47.1042 663.755 46.4635 663.203 45.6719C662.651 44.8698 662.234 43.9531 661.953 42.9219C661.682 41.8802 661.547 40.8125 661.547 39.7188V39.3906ZM663.422 39.7188C663.422 40.5625 663.51 41.401 663.688 42.2344C663.875 43.0677 664.172 43.8177 664.578 44.4844C664.984 45.1406 665.516 45.6719 666.172 46.0781C666.828 46.4844 667.63 46.6875 668.578 46.6875C669.109 46.6875 669.615 46.6198 670.094 46.4844C670.573 46.3385 671.01 46.1354 671.406 45.875C671.812 45.6146 672.172 45.3021 672.484 44.9375C672.807 44.5625 673.073 44.1458 673.281 43.6875V35.6406C673.073 35.1719 672.818 34.7396 672.516 34.3438C672.214 33.9479 671.865 33.6094 671.469 33.3281C671.073 33.0365 670.635 32.8125 670.156 32.6562C669.677 32.4896 669.161 32.4062 668.609 32.4062C667.651 32.4062 666.844 32.6146 666.188 33.0312C665.531 33.4375 664.995 33.974 664.578 34.6406C664.172 35.2969 663.875 36.0417 663.688 36.875C663.51 37.7083 663.422 38.5469 663.422 39.3906V39.7188Z" fill="#30404F"/>
<path d="M683.172 34.3594C683.766 33.276 684.557 32.4115 685.547 31.7656C686.536 31.1198 687.667 30.7917 688.938 30.7812C689.865 30.7812 690.682 30.9271 691.391 31.2188C692.109 31.5 692.708 31.9167 693.188 32.4688C693.677 33.0104 694.047 33.6823 694.297 34.4844C694.557 35.276 694.688 36.1823 694.688 37.2031V48H692.812V37.2031C692.812 36.4531 692.724 35.7812 692.547 35.1875C692.37 34.5938 692.099 34.0938 691.734 33.6875C691.38 33.2708 690.932 32.9531 690.391 32.7344C689.849 32.5156 689.214 32.4062 688.484 32.4062C687.891 32.4062 687.323 32.5 686.781 32.6875C686.24 32.875 685.74 33.1354 685.281 33.4688C684.823 33.8021 684.411 34.1979 684.047 34.6562C683.693 35.1042 683.401 35.599 683.172 36.1406V48H681.297V24H683.172V34.3594Z" fill="#30404F"/>
<path d="M706.75 26.7656V31.0938H713.016V32.625H706.75V43.2656C706.76 43.9219 706.859 44.4688 707.047 44.9062C707.245 45.3333 707.505 45.6823 707.828 45.9531C708.161 46.2135 708.547 46.401 708.984 46.5156C709.432 46.6302 709.917 46.6875 710.438 46.6875C710.958 46.6875 711.49 46.651 712.031 46.5781C712.583 46.5052 713.052 46.4323 713.438 46.3594L713.719 47.7812C713.271 47.9583 712.724 48.0885 712.078 48.1719C711.432 48.2656 710.776 48.3125 710.109 48.3125C709.359 48.3125 708.667 48.2188 708.031 48.0312C707.396 47.8542 706.844 47.5677 706.375 47.1719C705.906 46.7656 705.536 46.2448 705.266 45.6094C704.995 44.9635 704.854 44.1771 704.844 43.25V32.625H700.141V31.0938H704.844V26.7656H706.75Z" fill="#30404F"/>
<path d="M400.25 101.719H395.703V111H392.828V88.25H399.5C400.562 88.2708 401.562 88.4219 402.5 88.7031C403.438 88.9844 404.255 89.4062 404.953 89.9688C405.661 90.5312 406.214 91.2396 406.609 92.0938C407.016 92.9375 407.219 93.9323 407.219 95.0781C407.219 95.8177 407.109 96.4948 406.891 97.1094C406.682 97.724 406.391 98.2812 406.016 98.7812C405.641 99.2812 405.193 99.724 404.672 100.109C404.151 100.495 403.578 100.823 402.953 101.094L407.781 110.812L407.766 111H404.719L400.25 101.719ZM395.703 99.3438H399.578C400.224 99.3333 400.833 99.2344 401.406 99.0469C401.979 98.849 402.479 98.5677 402.906 98.2031C403.344 97.8385 403.688 97.3958 403.938 96.875C404.188 96.3438 404.312 95.7344 404.312 95.0469C404.312 94.3177 404.193 93.6823 403.953 93.1406C403.714 92.5885 403.38 92.1302 402.953 91.7656C402.526 91.3906 402.016 91.1094 401.422 90.9219C400.839 90.7344 400.198 90.6354 399.5 90.625H395.703V99.3438Z" fill="#30404F"/>
<path d="M411.125 102.391C411.125 101.172 411.302 100.042 411.656 99C412.01 97.9479 412.516 97.0365 413.172 96.2656C413.839 95.4948 414.646 94.8906 415.594 94.4531C416.542 94.0052 417.609 93.7812 418.797 93.7812C419.995 93.7812 421.068 94.0052 422.016 94.4531C422.974 94.8906 423.781 95.4948 424.438 96.2656C425.104 97.0365 425.615 97.9479 425.969 99C426.323 100.042 426.5 101.172 426.5 102.391V102.734C426.5 103.953 426.323 105.083 425.969 106.125C425.615 107.167 425.104 108.073 424.438 108.844C423.781 109.615 422.979 110.219 422.031 110.656C421.083 111.094 420.016 111.312 418.828 111.312C417.63 111.312 416.552 111.094 415.594 110.656C414.646 110.219 413.839 109.615 413.172 108.844C412.516 108.073 412.01 107.167 411.656 106.125C411.302 105.083 411.125 103.953 411.125 102.734V102.391ZM414.016 102.734C414.016 103.568 414.115 104.365 414.312 105.125C414.51 105.875 414.807 106.536 415.203 107.109C415.609 107.682 416.115 108.135 416.719 108.469C417.323 108.802 418.026 108.969 418.828 108.969C419.62 108.969 420.312 108.802 420.906 108.469C421.51 108.135 422.01 107.682 422.406 107.109C422.812 106.536 423.115 105.875 423.312 105.125C423.51 104.365 423.609 103.568 423.609 102.734V102.391C423.609 101.568 423.505 100.781 423.297 100.031C423.099 99.2708 422.797 98.6042 422.391 98.0312C421.995 97.4583 421.495 97.0052 420.891 96.6719C420.297 96.3281 419.599 96.1562 418.797 96.1562C417.995 96.1562 417.297 96.3281 416.703 96.6719C416.109 97.0052 415.609 97.4583 415.203 98.0312C414.807 98.6042 414.51 99.2708 414.312 100.031C414.115 100.781 414.016 101.568 414.016 102.391V102.734Z" fill="#30404F"/>
<path d="M445.484 102.734C445.484 103.943 445.339 105.073 445.047 106.125C444.755 107.167 444.328 108.073 443.766 108.844C443.203 109.615 442.505 110.219 441.672 110.656C440.849 111.094 439.901 111.312 438.828 111.312C437.745 111.312 436.802 111.12 436 110.734C435.208 110.349 434.531 109.797 433.969 109.078L433.828 111H431.172V87H434.062V95.9062C434.615 95.2188 435.281 94.6927 436.062 94.3281C436.844 93.9635 437.755 93.7812 438.797 93.7812C439.88 93.7812 440.839 93.9948 441.672 94.4219C442.505 94.849 443.203 95.4427 443.766 96.2031C444.328 96.9635 444.755 97.875 445.047 98.9375C445.339 99.9896 445.484 101.146 445.484 102.406V102.734ZM442.594 102.406C442.594 101.583 442.51 100.802 442.344 100.062C442.188 99.3125 441.932 98.6562 441.578 98.0938C441.224 97.5208 440.76 97.0677 440.188 96.7344C439.615 96.401 438.911 96.2344 438.078 96.2344C437.578 96.2344 437.12 96.3021 436.703 96.4375C436.286 96.5625 435.911 96.7448 435.578 96.9844C435.255 97.2135 434.964 97.4896 434.703 97.8125C434.453 98.125 434.24 98.4688 434.062 98.8438V106.234C434.25 106.609 434.469 106.958 434.719 107.281C434.979 107.594 435.276 107.87 435.609 108.109C435.943 108.349 436.318 108.536 436.734 108.672C437.151 108.797 437.609 108.859 438.109 108.859C438.901 108.859 439.578 108.698 440.141 108.375C440.714 108.042 441.177 107.594 441.531 107.031C441.896 106.469 442.161 105.818 442.328 105.078C442.505 104.339 442.594 103.557 442.594 102.734V102.406Z" fill="#30404F"/>
<path d="M449.562 102.391C449.562 101.172 449.74 100.042 450.094 99C450.448 97.9479 450.953 97.0365 451.609 96.2656C452.276 95.4948 453.083 94.8906 454.031 94.4531C454.979 94.0052 456.047 93.7812 457.234 93.7812C458.432 93.7812 459.505 94.0052 460.453 94.4531C461.411 94.8906 462.219 95.4948 462.875 96.2656C463.542 97.0365 464.052 97.9479 464.406 99C464.76 100.042 464.938 101.172 464.938 102.391V102.734C464.938 103.953 464.76 105.083 464.406 106.125C464.052 107.167 463.542 108.073 462.875 108.844C462.219 109.615 461.417 110.219 460.469 110.656C459.521 111.094 458.453 111.312 457.266 111.312C456.068 111.312 454.99 111.094 454.031 110.656C453.083 110.219 452.276 109.615 451.609 108.844C450.953 108.073 450.448 107.167 450.094 106.125C449.74 105.083 449.562 103.953 449.562 102.734V102.391ZM452.453 102.734C452.453 103.568 452.552 104.365 452.75 105.125C452.948 105.875 453.245 106.536 453.641 107.109C454.047 107.682 454.552 108.135 455.156 108.469C455.76 108.802 456.464 108.969 457.266 108.969C458.057 108.969 458.75 108.802 459.344 108.469C459.948 108.135 460.448 107.682 460.844 107.109C461.25 106.536 461.552 105.875 461.75 105.125C461.948 104.365 462.047 103.568 462.047 102.734V102.391C462.047 101.568 461.943 100.781 461.734 100.031C461.536 99.2708 461.234 98.6042 460.828 98.0312C460.432 97.4583 459.932 97.0052 459.328 96.6719C458.734 96.3281 458.036 96.1562 457.234 96.1562C456.432 96.1562 455.734 96.3281 455.141 96.6719C454.547 97.0052 454.047 97.4583 453.641 98.0312C453.245 98.6042 452.948 99.2708 452.75 100.031C452.552 100.781 452.453 101.568 452.453 102.391V102.734Z" fill="#30404F"/>
<path d="M476.438 90V94.0938H482.875V96.3281H476.438V105.516C476.438 106.172 476.521 106.714 476.688 107.141C476.854 107.568 477.083 107.911 477.375 108.172C477.667 108.422 478 108.599 478.375 108.703C478.76 108.807 479.167 108.859 479.594 108.859C479.906 108.859 480.229 108.844 480.562 108.812C480.896 108.771 481.219 108.724 481.531 108.672C481.854 108.62 482.151 108.568 482.422 108.516C482.703 108.453 482.932 108.401 483.109 108.359L483.516 110.406C483.276 110.552 482.984 110.682 482.641 110.797C482.297 110.901 481.922 110.99 481.516 111.062C481.109 111.146 480.677 111.208 480.219 111.25C479.771 111.292 479.323 111.312 478.875 111.312C478.125 111.312 477.422 111.208 476.766 111C476.12 110.781 475.557 110.443 475.078 109.984C474.599 109.516 474.219 108.917 473.938 108.188C473.667 107.448 473.531 106.557 473.531 105.516V96.3281H469.094V94.0938H473.531V90H476.438Z" fill="#30404F"/>
<path d="M488 102.391C488 101.172 488.177 100.042 488.531 99C488.885 97.9479 489.391 97.0365 490.047 96.2656C490.714 95.4948 491.521 94.8906 492.469 94.4531C493.417 94.0052 494.484 93.7812 495.672 93.7812C496.87 93.7812 497.943 94.0052 498.891 94.4531C499.849 94.8906 500.656 95.4948 501.312 96.2656C501.979 97.0365 502.49 97.9479 502.844 99C503.198 100.042 503.375 101.172 503.375 102.391V102.734C503.375 103.953 503.198 105.083 502.844 106.125C502.49 107.167 501.979 108.073 501.312 108.844C500.656 109.615 499.854 110.219 498.906 110.656C497.958 111.094 496.891 111.312 495.703 111.312C494.505 111.312 493.427 111.094 492.469 110.656C491.521 110.219 490.714 109.615 490.047 108.844C489.391 108.073 488.885 107.167 488.531 106.125C488.177 105.083 488 103.953 488 102.734V102.391ZM490.891 102.734C490.891 103.568 490.99 104.365 491.188 105.125C491.385 105.875 491.682 106.536 492.078 107.109C492.484 107.682 492.99 108.135 493.594 108.469C494.198 108.802 494.901 108.969 495.703 108.969C496.495 108.969 497.188 108.802 497.781 108.469C498.385 108.135 498.885 107.682 499.281 107.109C499.688 106.536 499.99 105.875 500.188 105.125C500.385 104.365 500.484 103.568 500.484 102.734V102.391C500.484 101.568 500.38 100.781 500.172 100.031C499.974 99.2708 499.672 98.6042 499.266 98.0312C498.87 97.4583 498.37 97.0052 497.766 96.6719C497.172 96.3281 496.474 96.1562 495.672 96.1562C494.87 96.1562 494.172 96.3281 493.578 96.6719C492.984 97.0052 492.484 97.4583 492.078 98.0312C491.682 98.6042 491.385 99.2708 491.188 100.031C490.99 100.781 490.891 101.568 490.891 102.391V102.734Z" fill="#30404F"/>
<path d="M530.422 88.25L534.125 99.625L538.125 88.25H541.719V111H538.906V101.922L539.141 92.4219L534.938 104.672H533.281L529.422 92.75L529.656 101.922V111H526.844V88.25H530.422Z" fill="#30404F"/>
<path d="M545.656 102.391C545.656 101.172 545.833 100.042 546.188 99C546.542 97.9479 547.047 97.0365 547.703 96.2656C548.37 95.4948 549.177 94.8906 550.125 94.4531C551.073 94.0052 552.141 93.7812 553.328 93.7812C554.526 93.7812 555.599 94.0052 556.547 94.4531C557.505 94.8906 558.312 95.4948 558.969 96.2656C559.635 97.0365 560.146 97.9479 560.5 99C560.854 100.042 561.031 101.172 561.031 102.391V102.734C561.031 103.953 560.854 105.083 560.5 106.125C560.146 107.167 559.635 108.073 558.969 108.844C558.312 109.615 557.51 110.219 556.562 110.656C555.615 111.094 554.547 111.312 553.359 111.312C552.161 111.312 551.083 111.094 550.125 110.656C549.177 110.219 548.37 109.615 547.703 108.844C547.047 108.073 546.542 107.167 546.188 106.125C545.833 105.083 545.656 103.953 545.656 102.734V102.391ZM548.547 102.734C548.547 103.568 548.646 104.365 548.844 105.125C549.042 105.875 549.339 106.536 549.734 107.109C550.141 107.682 550.646 108.135 551.25 108.469C551.854 108.802 552.557 108.969 553.359 108.969C554.151 108.969 554.844 108.802 555.438 108.469C556.042 108.135 556.542 107.682 556.938 107.109C557.344 106.536 557.646 105.875 557.844 105.125C558.042 104.365 558.141 103.568 558.141 102.734V102.391C558.141 101.568 558.036 100.781 557.828 100.031C557.63 99.2708 557.328 98.6042 556.922 98.0312C556.526 97.4583 556.026 97.0052 555.422 96.6719C554.828 96.3281 554.13 96.1562 553.328 96.1562C552.526 96.1562 551.828 96.3281 551.234 96.6719C550.641 97.0052 550.141 97.4583 549.734 98.0312C549.339 98.6042 549.042 99.2708 548.844 100.031C548.646 100.781 548.547 101.568 548.547 102.391V102.734Z" fill="#30404F"/>
<path d="M568.281 94.0938L568.484 96.5938C569.099 95.7188 569.854 95.0365 570.75 94.5469C571.646 94.0469 572.646 93.7917 573.75 93.7812C574.635 93.7812 575.438 93.9062 576.156 94.1562C576.885 94.4062 577.505 94.7969 578.016 95.3281C578.526 95.8594 578.917 96.5365 579.188 97.3594C579.469 98.1719 579.609 99.1406 579.609 100.266V111H576.719V100.328C576.719 99.5781 576.635 98.9427 576.469 98.4219C576.302 97.901 576.052 97.4792 575.719 97.1562C575.396 96.8333 574.995 96.599 574.516 96.4531C574.047 96.3073 573.505 96.2344 572.891 96.2344C571.922 96.2344 571.068 96.4792 570.328 96.9688C569.599 97.4479 569.016 98.0833 568.578 98.875V111H565.688V94.0938H568.281Z" fill="#30404F"/>
<path d="M584.094 102.391C584.094 101.172 584.271 100.042 584.625 99C584.979 97.9479 585.484 97.0365 586.141 96.2656C586.807 95.4948 587.615 94.8906 588.562 94.4531C589.51 94.0052 590.578 93.7812 591.766 93.7812C592.964 93.7812 594.036 94.0052 594.984 94.4531C595.943 94.8906 596.75 95.4948 597.406 96.2656C598.073 97.0365 598.583 97.9479 598.938 99C599.292 100.042 599.469 101.172 599.469 102.391V102.734C599.469 103.953 599.292 105.083 598.938 106.125C598.583 107.167 598.073 108.073 597.406 108.844C596.75 109.615 595.948 110.219 595 110.656C594.052 111.094 592.984 111.312 591.797 111.312C590.599 111.312 589.521 111.094 588.562 110.656C587.615 110.219 586.807 109.615 586.141 108.844C585.484 108.073 584.979 107.167 584.625 106.125C584.271 105.083 584.094 103.953 584.094 102.734V102.391ZM586.984 102.734C586.984 103.568 587.083 104.365 587.281 105.125C587.479 105.875 587.776 106.536 588.172 107.109C588.578 107.682 589.083 108.135 589.688 108.469C590.292 108.802 590.995 108.969 591.797 108.969C592.589 108.969 593.281 108.802 593.875 108.469C594.479 108.135 594.979 107.682 595.375 107.109C595.781 106.536 596.083 105.875 596.281 105.125C596.479 104.365 596.578 103.568 596.578 102.734V102.391C596.578 101.568 596.474 100.781 596.266 100.031C596.068 99.2708 595.766 98.6042 595.359 98.0312C594.964 97.4583 594.464 97.0052 593.859 96.6719C593.266 96.3281 592.568 96.1562 591.766 96.1562C590.964 96.1562 590.266 96.3281 589.672 96.6719C589.078 97.0052 588.578 97.4583 588.172 98.0312C587.776 98.6042 587.479 99.2708 587.281 100.031C587.083 100.781 586.984 101.568 586.984 102.391V102.734Z" fill="#30404F"/>
<path d="M630.875 101.719H626.328V111H623.453V88.25H630.125C631.188 88.2708 632.188 88.4219 633.125 88.7031C634.062 88.9844 634.88 89.4062 635.578 89.9688C636.286 90.5312 636.839 91.2396 637.234 92.0938C637.641 92.9375 637.844 93.9323 637.844 95.0781C637.844 95.8177 637.734 96.4948 637.516 97.1094C637.307 97.724 637.016 98.2812 636.641 98.7812C636.266 99.2812 635.818 99.724 635.297 100.109C634.776 100.495 634.203 100.823 633.578 101.094L638.406 110.812L638.391 111H635.344L630.875 101.719ZM626.328 99.3438H630.203C630.849 99.3333 631.458 99.2344 632.031 99.0469C632.604 98.849 633.104 98.5677 633.531 98.2031C633.969 97.8385 634.312 97.3958 634.562 96.875C634.812 96.3438 634.938 95.7344 634.938 95.0469C634.938 94.3177 634.818 93.6823 634.578 93.1406C634.339 92.5885 634.005 92.1302 633.578 91.7656C633.151 91.3906 632.641 91.1094 632.047 90.9219C631.464 90.7344 630.823 90.6354 630.125 90.625H626.328V99.3438Z" fill="#30404F"/>
<path d="M650.031 111.312C648.844 111.312 647.75 111.109 646.75 110.703C645.76 110.297 644.911 109.729 644.203 109C643.495 108.271 642.943 107.406 642.547 106.406C642.151 105.406 641.953 104.318 641.953 103.141V102.484C641.953 101.12 642.172 99.901 642.609 98.8281C643.047 97.7448 643.625 96.8333 644.344 96.0938C645.073 95.3438 645.896 94.7708 646.812 94.375C647.74 93.9792 648.688 93.7812 649.656 93.7812C650.875 93.7812 651.938 93.9948 652.844 94.4219C653.76 94.8385 654.521 95.4219 655.125 96.1719C655.729 96.9115 656.177 97.7865 656.469 98.7969C656.771 99.8073 656.922 100.901 656.922 102.078V103.375H644.844C644.875 104.146 645.021 104.87 645.281 105.547C645.552 106.224 645.917 106.818 646.375 107.328C646.844 107.828 647.401 108.224 648.047 108.516C648.693 108.807 649.406 108.953 650.188 108.953C651.219 108.953 652.135 108.745 652.938 108.328C653.74 107.911 654.406 107.359 654.938 106.672L656.703 108.047C656.422 108.474 656.068 108.885 655.641 109.281C655.224 109.667 654.74 110.01 654.188 110.312C653.635 110.615 653.01 110.854 652.312 111.031C651.615 111.219 650.854 111.312 650.031 111.312ZM649.656 96.1562C649.073 96.1562 648.521 96.2656 648 96.4844C647.479 96.6927 647.01 97.0052 646.594 97.4219C646.177 97.8281 645.823 98.3333 645.531 98.9375C645.25 99.5312 645.052 100.219 644.938 101H654.031V100.781C654 100.219 653.891 99.6615 653.703 99.1094C653.526 98.5573 653.26 98.0625 652.906 97.625C652.552 97.1875 652.104 96.8333 651.562 96.5625C651.031 96.2917 650.396 96.1562 649.656 96.1562Z" fill="#30404F"/>
<path d="M661.25 102.406C661.25 101.146 661.401 99.9896 661.703 98.9375C662.016 97.875 662.464 96.9635 663.047 96.2031C663.63 95.4427 664.339 94.849 665.172 94.4219C666.005 93.9948 666.948 93.7812 668 93.7812C669.042 93.7812 669.953 93.9688 670.734 94.3438C671.526 94.7083 672.198 95.2396 672.75 95.9375L672.891 94.0938H675.516V110.641C675.516 111.755 675.339 112.745 674.984 113.609C674.641 114.474 674.151 115.208 673.516 115.812C672.891 116.417 672.141 116.875 671.266 117.188C670.391 117.5 669.422 117.656 668.359 117.656C667.922 117.656 667.422 117.604 666.859 117.5C666.297 117.406 665.724 117.245 665.141 117.016C664.568 116.797 664.01 116.5 663.469 116.125C662.938 115.75 662.479 115.286 662.094 114.734L663.594 113C663.948 113.427 664.312 113.786 664.688 114.078C665.062 114.38 665.443 114.62 665.828 114.797C666.214 114.974 666.599 115.099 666.984 115.172C667.37 115.255 667.755 115.297 668.141 115.297C668.828 115.297 669.448 115.198 670 115C670.552 114.802 671.021 114.51 671.406 114.125C671.802 113.75 672.104 113.281 672.312 112.719C672.521 112.156 672.625 111.51 672.625 110.781V109.328C672.062 109.974 671.396 110.469 670.625 110.812C669.865 111.146 668.979 111.312 667.969 111.312C666.938 111.312 666.005 111.094 665.172 110.656C664.339 110.219 663.63 109.615 663.047 108.844C662.474 108.073 662.031 107.167 661.719 106.125C661.406 105.073 661.25 103.943 661.25 102.734V102.406ZM664.141 102.734C664.141 103.557 664.224 104.339 664.391 105.078C664.568 105.818 664.839 106.469 665.203 107.031C665.578 107.594 666.052 108.042 666.625 108.375C667.198 108.698 667.885 108.859 668.688 108.859C669.188 108.859 669.635 108.802 670.031 108.688C670.438 108.562 670.797 108.391 671.109 108.172C671.432 107.953 671.719 107.693 671.969 107.391C672.219 107.089 672.438 106.755 672.625 106.391V98.6406C672.438 98.2865 672.219 97.9635 671.969 97.6719C671.719 97.3802 671.432 97.1302 671.109 96.9219C670.786 96.7031 670.427 96.5365 670.031 96.4219C669.635 96.2969 669.198 96.2344 668.719 96.2344C667.906 96.2344 667.208 96.401 666.625 96.7344C666.052 97.0677 665.578 97.5208 665.203 98.0938C664.839 98.6562 664.568 99.3125 664.391 100.062C664.224 100.802 664.141 101.583 664.141 102.406V102.734Z" fill="#30404F"/>
<path d="M691.969 108.672C691.406 109.505 690.703 110.156 689.859 110.625C689.016 111.083 688.042 111.312 686.938 111.312C686.052 111.312 685.25 111.177 684.531 110.906C683.812 110.625 683.198 110.193 682.688 109.609C682.177 109.026 681.781 108.286 681.5 107.391C681.229 106.484 681.094 105.401 681.094 104.141V94.0938H683.984V104.172C683.984 105.089 684.057 105.849 684.203 106.453C684.349 107.057 684.568 107.542 684.859 107.906C685.151 108.26 685.505 108.51 685.922 108.656C686.349 108.802 686.839 108.875 687.391 108.875C688.568 108.875 689.516 108.635 690.234 108.156C690.964 107.677 691.505 107.031 691.859 106.219V94.0938H694.766V111H692.141L691.969 108.672Z" fill="#30404F"/>
<path d="M700.672 87H709.312V108.5H714.828V111H700.672V108.5H706.422V89.5156H700.672V87Z" fill="#30404F"/>
<path d="M730.547 111C730.432 110.781 730.339 110.51 730.266 110.188C730.203 109.854 730.156 109.51 730.125 109.156C729.833 109.448 729.505 109.724 729.141 109.984C728.786 110.245 728.391 110.474 727.953 110.672C727.526 110.87 727.068 111.026 726.578 111.141C726.089 111.255 725.568 111.312 725.016 111.312C724.12 111.312 723.307 111.182 722.578 110.922C721.859 110.661 721.245 110.312 720.734 109.875C720.234 109.427 719.844 108.901 719.562 108.297C719.292 107.682 719.156 107.021 719.156 106.312C719.156 105.385 719.339 104.573 719.703 103.875C720.078 103.177 720.604 102.599 721.281 102.141C721.958 101.672 722.771 101.323 723.719 101.094C724.677 100.865 725.745 100.75 726.922 100.75H730.078V99.4219C730.078 98.9115 729.984 98.4531 729.797 98.0469C729.609 97.6406 729.344 97.2969 729 97.0156C728.656 96.724 728.234 96.5 727.734 96.3438C727.245 96.1875 726.693 96.1094 726.078 96.1094C725.505 96.1094 724.99 96.1823 724.531 96.3281C724.083 96.474 723.703 96.6667 723.391 96.9062C723.078 97.1458 722.833 97.4323 722.656 97.7656C722.49 98.0885 722.406 98.4271 722.406 98.7812H719.5C719.51 98.1667 719.667 97.5625 719.969 96.9688C720.281 96.375 720.724 95.8438 721.297 95.375C721.88 94.8958 722.583 94.5104 723.406 94.2188C724.24 93.9271 725.182 93.7812 726.234 93.7812C727.193 93.7812 728.083 93.901 728.906 94.1406C729.729 94.3698 730.438 94.724 731.031 95.2031C731.635 95.6719 732.109 96.2604 732.453 96.9688C732.797 97.6771 732.969 98.5052 732.969 99.4531V107.312C732.969 107.875 733.021 108.474 733.125 109.109C733.229 109.734 733.375 110.281 733.562 110.75V111H730.547ZM725.438 108.797C726 108.797 726.526 108.724 727.016 108.578C727.505 108.432 727.948 108.24 728.344 108C728.75 107.76 729.099 107.49 729.391 107.188C729.682 106.875 729.911 106.552 730.078 106.219V102.797H727.391C725.703 102.797 724.391 103.047 723.453 103.547C722.516 104.047 722.047 104.833 722.047 105.906C722.047 106.323 722.115 106.708 722.25 107.062C722.396 107.417 722.609 107.724 722.891 107.984C723.172 108.234 723.526 108.432 723.953 108.578C724.38 108.724 724.875 108.797 725.438 108.797Z" fill="#30404F"/>
<path d="M749.734 93.7812C750.005 93.7812 750.286 93.7917 750.578 93.8125C750.87 93.8229 751.146 93.849 751.406 93.8906C751.677 93.9219 751.922 93.9635 752.141 94.0156C752.37 94.0677 752.557 94.125 752.703 94.1875L752.312 97.0156C751.75 96.8906 751.214 96.8021 750.703 96.75C750.203 96.6875 749.677 96.6562 749.125 96.6562C747.771 96.6562 746.672 96.9635 745.828 97.5781C744.995 98.1927 744.38 99.0521 743.984 100.156V111H741.078V94.0938H743.828L743.969 96.7812C744.656 95.8542 745.479 95.125 746.438 94.5938C747.406 94.0521 748.505 93.7812 749.734 93.7812Z" fill="#30404F"/>
<path d="M399.953 164.125H396.141V173H392.391V150.25H399.578C400.745 150.26 401.818 150.411 402.797 150.703C403.786 150.984 404.641 151.411 405.359 151.984C406.078 152.547 406.635 153.255 407.031 154.109C407.427 154.964 407.625 155.964 407.625 157.109C407.625 157.88 407.521 158.583 407.312 159.219C407.115 159.844 406.833 160.411 406.469 160.922C406.104 161.432 405.667 161.88 405.156 162.266C404.646 162.651 404.083 162.979 403.469 163.25L408.281 172.812V173H404.281L399.953 164.125ZM396.141 161.094H399.594C400.219 161.094 400.792 161.005 401.312 160.828C401.833 160.651 402.281 160.401 402.656 160.078C403.042 159.745 403.339 159.344 403.547 158.875C403.755 158.396 403.859 157.849 403.859 157.234C403.859 156.599 403.76 156.036 403.562 155.547C403.365 155.057 403.078 154.646 402.703 154.312C402.339 153.979 401.891 153.729 401.359 153.562C400.828 153.385 400.234 153.292 399.578 153.281H396.141V161.094Z" fill="#30404F"/>
<path d="M410.953 164.391C410.953 163.172 411.13 162.036 411.484 160.984C411.849 159.932 412.365 159.021 413.031 158.25C413.708 157.479 414.531 156.875 415.5 156.438C416.469 156 417.568 155.781 418.797 155.781C420.036 155.781 421.141 156 422.109 156.438C423.089 156.875 423.911 157.479 424.578 158.25C425.255 159.021 425.771 159.932 426.125 160.984C426.479 162.036 426.656 163.172 426.656 164.391V164.719C426.656 165.948 426.479 167.089 426.125 168.141C425.771 169.193 425.255 170.104 424.578 170.875C423.911 171.635 423.094 172.234 422.125 172.672C421.156 173.109 420.057 173.328 418.828 173.328C417.589 173.328 416.479 173.109 415.5 172.672C414.531 172.234 413.708 171.635 413.031 170.875C412.365 170.104 411.849 169.193 411.484 168.141C411.13 167.089 410.953 165.948 410.953 164.719V164.391ZM414.688 164.719C414.688 165.49 414.766 166.214 414.922 166.891C415.089 167.568 415.339 168.167 415.672 168.688C416.016 169.198 416.448 169.604 416.969 169.906C417.49 170.198 418.109 170.344 418.828 170.344C419.526 170.344 420.13 170.198 420.641 169.906C421.161 169.604 421.589 169.198 421.922 168.688C422.266 168.167 422.516 167.568 422.672 166.891C422.839 166.214 422.922 165.49 422.922 164.719V164.391C422.922 163.641 422.839 162.927 422.672 162.25C422.516 161.573 422.266 160.979 421.922 160.469C421.589 159.958 421.161 159.552 420.641 159.25C420.13 158.948 419.516 158.797 418.797 158.797C418.089 158.797 417.474 158.948 416.953 159.25C416.432 159.552 416.005 159.958 415.672 160.469C415.339 160.979 415.089 161.573 414.922 162.25C414.766 162.927 414.688 163.641 414.688 164.391V164.719Z" fill="#30404F"/>
<path d="M445.719 164.734C445.719 165.984 445.573 167.135 445.281 168.188C445 169.229 444.578 170.13 444.016 170.891C443.453 171.651 442.76 172.245 441.938 172.672C441.115 173.099 440.167 173.312 439.094 173.312C438.062 173.312 437.167 173.13 436.406 172.766C435.656 172.401 435.01 171.875 434.469 171.188L434.297 173H430.906V149H434.641V157.703C435.172 157.089 435.797 156.615 436.516 156.281C437.234 155.948 438.083 155.781 439.062 155.781C440.146 155.781 441.099 155.995 441.922 156.422C442.755 156.839 443.453 157.427 444.016 158.188C444.578 158.948 445 159.859 445.281 160.922C445.573 161.974 445.719 163.135 445.719 164.406V164.734ZM441.984 164.406C441.984 163.656 441.917 162.948 441.781 162.281C441.656 161.604 441.443 161.01 441.141 160.5C440.849 159.99 440.453 159.589 439.953 159.297C439.453 158.995 438.839 158.844 438.109 158.844C437.224 158.844 436.5 159.047 435.938 159.453C435.375 159.859 434.943 160.391 434.641 161.047V168.031C434.943 168.688 435.375 169.224 435.938 169.641C436.51 170.057 437.245 170.266 438.141 170.266C438.849 170.266 439.448 170.125 439.938 169.844C440.427 169.552 440.823 169.156 441.125 168.656C441.427 168.156 441.646 167.573 441.781 166.906C441.917 166.229 441.984 165.505 441.984 164.734V164.406Z" fill="#30404F"/>
<path d="M449.391 164.391C449.391 163.172 449.568 162.036 449.922 160.984C450.286 159.932 450.802 159.021 451.469 158.25C452.146 157.479 452.969 156.875 453.938 156.438C454.906 156 456.005 155.781 457.234 155.781C458.474 155.781 459.578 156 460.547 156.438C461.526 156.875 462.349 157.479 463.016 158.25C463.693 159.021 464.208 159.932 464.562 160.984C464.917 162.036 465.094 163.172 465.094 164.391V164.719C465.094 165.948 464.917 167.089 464.562 168.141C464.208 169.193 463.693 170.104 463.016 170.875C462.349 171.635 461.531 172.234 460.562 172.672C459.594 173.109 458.495 173.328 457.266 173.328C456.026 173.328 454.917 173.109 453.938 172.672C452.969 172.234 452.146 171.635 451.469 170.875C450.802 170.104 450.286 169.193 449.922 168.141C449.568 167.089 449.391 165.948 449.391 164.719V164.391ZM453.125 164.719C453.125 165.49 453.203 166.214 453.359 166.891C453.526 167.568 453.776 168.167 454.109 168.688C454.453 169.198 454.885 169.604 455.406 169.906C455.927 170.198 456.547 170.344 457.266 170.344C457.964 170.344 458.568 170.198 459.078 169.906C459.599 169.604 460.026 169.198 460.359 168.688C460.703 168.167 460.953 167.568 461.109 166.891C461.276 166.214 461.359 165.49 461.359 164.719V164.391C461.359 163.641 461.276 162.927 461.109 162.25C460.953 161.573 460.703 160.979 460.359 160.469C460.026 159.958 459.599 159.552 459.078 159.25C458.568 158.948 457.953 158.797 457.234 158.797C456.526 158.797 455.911 158.948 455.391 159.25C454.87 159.552 454.443 159.958 454.109 160.469C453.776 160.979 453.526 161.573 453.359 162.25C453.203 162.927 453.125 163.641 453.125 164.391V164.719Z" fill="#30404F"/>
<path d="M476.781 152V156.094H483.172V158.875H476.781V166.984C476.781 167.62 476.854 168.146 477 168.562C477.156 168.979 477.37 169.312 477.641 169.562C477.911 169.812 478.229 169.99 478.594 170.094C478.958 170.188 479.359 170.234 479.797 170.234C480.12 170.234 480.453 170.219 480.797 170.188C481.151 170.146 481.49 170.104 481.812 170.062C482.146 170.01 482.448 169.958 482.719 169.906C483 169.844 483.234 169.786 483.422 169.734L483.844 172.312C483.573 172.469 483.245 172.615 482.859 172.75C482.484 172.875 482.073 172.979 481.625 173.062C481.177 173.146 480.708 173.208 480.219 173.25C479.74 173.302 479.266 173.328 478.797 173.328C477.953 173.328 477.177 173.214 476.469 172.984C475.771 172.745 475.167 172.38 474.656 171.891C474.156 171.391 473.76 170.755 473.469 169.984C473.188 169.203 473.047 168.271 473.047 167.188V158.875H468.922V156.094H473.047V152H476.781Z" fill="#30404F"/>
<path d="M487.828 164.391C487.828 163.172 488.005 162.036 488.359 160.984C488.724 159.932 489.24 159.021 489.906 158.25C490.583 157.479 491.406 156.875 492.375 156.438C493.344 156 494.443 155.781 495.672 155.781C496.911 155.781 498.016 156 498.984 156.438C499.964 156.875 500.786 157.479 501.453 158.25C502.13 159.021 502.646 159.932 503 160.984C503.354 162.036 503.531 163.172 503.531 164.391V164.719C503.531 165.948 503.354 167.089 503 168.141C502.646 169.193 502.13 170.104 501.453 170.875C500.786 171.635 499.969 172.234 499 172.672C498.031 173.109 496.932 173.328 495.703 173.328C494.464 173.328 493.354 173.109 492.375 172.672C491.406 172.234 490.583 171.635 489.906 170.875C489.24 170.104 488.724 169.193 488.359 168.141C488.005 167.089 487.828 165.948 487.828 164.719V164.391ZM491.562 164.719C491.562 165.49 491.641 166.214 491.797 166.891C491.964 167.568 492.214 168.167 492.547 168.688C492.891 169.198 493.323 169.604 493.844 169.906C494.365 170.198 494.984 170.344 495.703 170.344C496.401 170.344 497.005 170.198 497.516 169.906C498.036 169.604 498.464 169.198 498.797 168.688C499.141 168.167 499.391 167.568 499.547 166.891C499.714 166.214 499.797 165.49 499.797 164.719V164.391C499.797 163.641 499.714 162.927 499.547 162.25C499.391 161.573 499.141 160.979 498.797 160.469C498.464 159.958 498.036 159.552 497.516 159.25C497.005 158.948 496.391 158.797 495.672 158.797C494.964 158.797 494.349 158.948 493.828 159.25C493.307 159.552 492.88 159.958 492.547 160.469C492.214 160.979 491.964 161.573 491.797 162.25C491.641 162.927 491.562 163.641 491.562 164.391V164.719Z" fill="#30404F"/>
<path d="M531.297 150.25L534.125 160.078L537.25 150.25H541.906V173H538.375V165.188L538.594 155.219L535.094 166.125H533.125L529.953 155.594L530.172 165.188V173H526.641V150.25H531.297Z" fill="#30404F"/>
<path d="M545.484 164.391C545.484 163.172 545.661 162.036 546.016 160.984C546.38 159.932 546.896 159.021 547.562 158.25C548.24 157.479 549.062 156.875 550.031 156.438C551 156 552.099 155.781 553.328 155.781C554.568 155.781 555.672 156 556.641 156.438C557.62 156.875 558.443 157.479 559.109 158.25C559.786 159.021 560.302 159.932 560.656 160.984C561.01 162.036 561.188 163.172 561.188 164.391V164.719C561.188 165.948 561.01 167.089 560.656 168.141C560.302 169.193 559.786 170.104 559.109 170.875C558.443 171.635 557.625 172.234 556.656 172.672C555.688 173.109 554.589 173.328 553.359 173.328C552.12 173.328 551.01 173.109 550.031 172.672C549.062 172.234 548.24 171.635 547.562 170.875C546.896 170.104 546.38 169.193 546.016 168.141C545.661 167.089 545.484 165.948 545.484 164.719V164.391ZM549.219 164.719C549.219 165.49 549.297 166.214 549.453 166.891C549.62 167.568 549.87 168.167 550.203 168.688C550.547 169.198 550.979 169.604 551.5 169.906C552.021 170.198 552.641 170.344 553.359 170.344C554.057 170.344 554.661 170.198 555.172 169.906C555.693 169.604 556.12 169.198 556.453 168.688C556.797 168.167 557.047 167.568 557.203 166.891C557.37 166.214 557.453 165.49 557.453 164.719V164.391C557.453 163.641 557.37 162.927 557.203 162.25C557.047 161.573 556.797 160.979 556.453 160.469C556.12 159.958 555.693 159.552 555.172 159.25C554.661 158.948 554.047 158.797 553.328 158.797C552.62 158.797 552.005 158.948 551.484 159.25C550.964 159.552 550.536 159.958 550.203 160.469C549.87 160.979 549.62 161.573 549.453 162.25C549.297 162.927 549.219 163.641 549.219 164.391V164.719Z" fill="#30404F"/>
<path d="M568.766 156.094L569 158.438C569.615 157.594 570.354 156.943 571.219 156.484C572.094 156.016 573.062 155.781 574.125 155.781C574.99 155.781 575.776 155.906 576.484 156.156C577.203 156.406 577.818 156.797 578.328 157.328C578.849 157.859 579.25 158.547 579.531 159.391C579.823 160.234 579.969 161.25 579.969 162.438V173H576.234V162.5C576.234 161.802 576.151 161.219 575.984 160.75C575.828 160.281 575.599 159.906 575.297 159.625C575.005 159.344 574.646 159.146 574.219 159.031C573.792 158.906 573.307 158.844 572.766 158.844C571.943 158.844 571.224 159.026 570.609 159.391C570.005 159.755 569.516 160.25 569.141 160.875V173H565.391V156.094H568.766Z" fill="#30404F"/>
<path d="M583.922 164.391C583.922 163.172 584.099 162.036 584.453 160.984C584.818 159.932 585.333 159.021 586 158.25C586.677 157.479 587.5 156.875 588.469 156.438C589.438 156 590.536 155.781 591.766 155.781C593.005 155.781 594.109 156 595.078 156.438C596.057 156.875 596.88 157.479 597.547 158.25C598.224 159.021 598.74 159.932 599.094 160.984C599.448 162.036 599.625 163.172 599.625 164.391V164.719C599.625 165.948 599.448 167.089 599.094 168.141C598.74 169.193 598.224 170.104 597.547 170.875C596.88 171.635 596.062 172.234 595.094 172.672C594.125 173.109 593.026 173.328 591.797 173.328C590.557 173.328 589.448 173.109 588.469 172.672C587.5 172.234 586.677 171.635 586 170.875C585.333 170.104 584.818 169.193 584.453 168.141C584.099 167.089 583.922 165.948 583.922 164.719V164.391ZM587.656 164.719C587.656 165.49 587.734 166.214 587.891 166.891C588.057 167.568 588.307 168.167 588.641 168.688C588.984 169.198 589.417 169.604 589.938 169.906C590.458 170.198 591.078 170.344 591.797 170.344C592.495 170.344 593.099 170.198 593.609 169.906C594.13 169.604 594.557 169.198 594.891 168.688C595.234 168.167 595.484 167.568 595.641 166.891C595.807 166.214 595.891 165.49 595.891 164.719V164.391C595.891 163.641 595.807 162.927 595.641 162.25C595.484 161.573 595.234 160.979 594.891 160.469C594.557 159.958 594.13 159.552 593.609 159.25C593.099 158.948 592.484 158.797 591.766 158.797C591.057 158.797 590.443 158.948 589.922 159.25C589.401 159.552 588.974 159.958 588.641 160.469C588.307 160.979 588.057 161.573 587.891 162.25C587.734 162.927 587.656 163.641 587.656 164.391V164.719Z" fill="#30404F"/>
<path d="M627.391 150.25L630.219 160.078L633.344 150.25H638V173H634.469V165.188L634.688 155.219L631.188 166.125H629.219L626.047 155.594L626.266 165.188V173H622.734V150.25H627.391Z" fill="#30404F"/>
<path d="M650.141 173.312C648.891 173.312 647.75 173.104 646.719 172.688C645.688 172.271 644.802 171.698 644.062 170.969C643.333 170.24 642.766 169.38 642.359 168.391C641.953 167.391 641.75 166.312 641.75 165.156V164.516C641.75 163.172 641.964 161.964 642.391 160.891C642.828 159.818 643.406 158.901 644.125 158.141C644.854 157.38 645.698 156.797 646.656 156.391C647.625 155.984 648.641 155.781 649.703 155.781C650.932 155.781 652.016 155.99 652.953 156.406C653.891 156.812 654.672 157.391 655.297 158.141C655.932 158.88 656.411 159.76 656.734 160.781C657.057 161.802 657.219 162.922 657.219 164.141V165.719H645.5C645.562 166.375 645.724 166.984 645.984 167.547C646.245 168.109 646.583 168.599 647 169.016C647.427 169.422 647.922 169.745 648.484 169.984C649.057 170.214 649.682 170.328 650.359 170.328C651.307 170.328 652.177 170.141 652.969 169.766C653.771 169.391 654.422 168.875 654.922 168.219L656.953 170.125C656.682 170.531 656.333 170.927 655.906 171.312C655.479 171.688 654.979 172.026 654.406 172.328C653.833 172.62 653.188 172.854 652.469 173.031C651.76 173.219 650.984 173.312 650.141 173.312ZM649.688 158.797C649.167 158.797 648.682 158.891 648.234 159.078C647.786 159.266 647.385 159.542 647.031 159.906C646.677 160.26 646.375 160.698 646.125 161.219C645.885 161.729 645.714 162.312 645.609 162.969H653.531V162.688C653.5 162.188 653.401 161.708 653.234 161.25C653.078 160.781 652.844 160.365 652.531 160C652.219 159.635 651.823 159.344 651.344 159.125C650.875 158.906 650.323 158.797 649.688 158.797Z" fill="#30404F"/>
<path d="M660.984 164.422C660.984 163.141 661.141 161.969 661.453 160.906C661.766 159.844 662.214 158.932 662.797 158.172C663.38 157.411 664.083 156.823 664.906 156.406C665.74 155.99 666.672 155.781 667.703 155.781C668.63 155.781 669.448 155.943 670.156 156.266C670.865 156.578 671.484 157.031 672.016 157.625V149H675.766V173H672.375L672.188 171.281C671.656 171.938 671.016 172.443 670.266 172.797C669.526 173.141 668.661 173.312 667.672 173.312C666.651 173.312 665.729 173.099 664.906 172.672C664.083 172.234 663.38 171.635 662.797 170.875C662.224 170.115 661.776 169.214 661.453 168.172C661.141 167.12 660.984 165.979 660.984 164.75V164.422ZM664.719 164.75C664.719 165.51 664.792 166.224 664.938 166.891C665.083 167.557 665.312 168.141 665.625 168.641C665.948 169.141 666.354 169.536 666.844 169.828C667.344 170.109 667.938 170.25 668.625 170.25C669.479 170.25 670.177 170.068 670.719 169.703C671.26 169.328 671.693 168.828 672.016 168.203V160.859C671.693 160.245 671.255 159.755 670.703 159.391C670.161 159.026 669.479 158.844 668.656 158.844C667.958 158.844 667.359 158.99 666.859 159.281C666.37 159.573 665.964 159.974 665.641 160.484C665.328 160.995 665.094 161.589 664.938 162.266C664.792 162.943 664.719 163.661 664.719 164.422V164.75Z" fill="#30404F"/>
<path d="M681.516 156.094H690.531V169.906H695.547V173H681.516V169.906H686.766V159.203H681.516V156.094ZM686.453 151.719C686.453 151.135 686.641 150.656 687.016 150.281C687.391 149.896 687.917 149.703 688.594 149.703C689.281 149.703 689.812 149.896 690.188 150.281C690.573 150.656 690.766 151.135 690.766 151.719C690.766 152.302 690.573 152.786 690.188 153.172C689.812 153.547 689.281 153.734 688.594 153.734C687.917 153.734 687.391 153.547 687.016 153.172C686.641 152.786 686.453 152.302 686.453 151.719Z" fill="#30404F"/>
<path d="M710.766 170.688C710.193 171.521 709.495 172.172 708.672 172.641C707.859 173.099 706.948 173.328 705.938 173.328C705.062 173.328 704.26 173.193 703.531 172.922C702.812 172.651 702.193 172.224 701.672 171.641C701.161 171.047 700.76 170.297 700.469 169.391C700.188 168.474 700.047 167.375 700.047 166.094V156.094H703.781V166.125C703.781 166.938 703.839 167.609 703.953 168.141C704.078 168.672 704.266 169.094 704.516 169.406C704.766 169.719 705.078 169.943 705.453 170.078C705.828 170.203 706.276 170.266 706.797 170.266C707.797 170.266 708.604 170.073 709.219 169.688C709.833 169.292 710.297 168.76 710.609 168.094V156.094H714.359V173H710.984L710.766 170.688Z" fill="#30404F"/>
<path d="M721.297 156.094L721.391 157.875C721.724 157.219 722.172 156.708 722.734 156.344C723.297 155.969 723.974 155.781 724.766 155.781C725.484 155.781 726.078 155.927 726.547 156.219C727.026 156.5 727.385 156.943 727.625 157.547C727.958 157.005 728.385 156.578 728.906 156.266C729.427 155.943 730.057 155.781 730.797 155.781C731.349 155.781 731.854 155.875 732.312 156.062C732.781 156.24 733.177 156.526 733.5 156.922C733.833 157.318 734.089 157.823 734.266 158.438C734.453 159.052 734.547 159.792 734.547 160.656V173H731.078V160.625C731.078 159.948 730.932 159.484 730.641 159.234C730.359 158.974 729.995 158.844 729.547 158.844C729.12 158.844 728.781 158.948 728.531 159.156C728.281 159.354 728.099 159.62 727.984 159.953V173H724.594V160.625C724.594 159.969 724.458 159.51 724.188 159.25C723.927 158.979 723.568 158.844 723.109 158.844C722.672 158.844 722.328 158.938 722.078 159.125C721.828 159.312 721.635 159.568 721.5 159.891V173H718.031V156.094H721.297Z" fill="#30404F"/>
<path d="M399.766 226.5H396.438V235H392.047V212.25H399.672C400.932 212.25 402.073 212.401 403.094 212.703C404.115 212.995 404.984 213.427 405.703 214C406.432 214.573 406.99 215.286 407.375 216.141C407.771 216.995 407.969 217.984 407.969 219.109C407.969 219.922 407.87 220.656 407.672 221.312C407.484 221.958 407.208 222.542 406.844 223.062C406.49 223.573 406.057 224.021 405.547 224.406C405.047 224.792 404.484 225.125 403.859 225.406L408.75 234.797V235H404.047L399.766 226.5ZM396.438 222.938H399.688C400.927 222.938 401.88 222.625 402.547 222C403.224 221.365 403.562 220.5 403.562 219.406C403.562 218.271 403.234 217.391 402.578 216.766C401.922 216.13 400.953 215.812 399.672 215.812H396.438V222.938Z" fill="#30404F"/>
<path d="M410.828 226.391C410.828 225.161 411.005 224.026 411.359 222.984C411.714 221.932 412.229 221.021 412.906 220.25C413.594 219.479 414.427 218.875 415.406 218.438C416.396 218 417.526 217.781 418.797 217.781C420.068 217.781 421.198 218 422.188 218.438C423.177 218.875 424.01 219.479 424.688 220.25C425.375 221.021 425.896 221.932 426.25 222.984C426.604 224.026 426.781 225.161 426.781 226.391V226.719C426.781 227.958 426.604 229.104 426.25 230.156C425.896 231.198 425.38 232.104 424.703 232.875C424.026 233.646 423.193 234.25 422.203 234.688C421.214 235.115 420.089 235.328 418.828 235.328C417.557 235.328 416.422 235.115 415.422 234.688C414.432 234.25 413.594 233.646 412.906 232.875C412.229 232.104 411.714 231.198 411.359 230.156C411.005 229.104 410.828 227.958 410.828 226.719V226.391ZM415.172 226.719C415.172 227.427 415.24 228.094 415.375 228.719C415.51 229.333 415.724 229.875 416.016 230.344C416.307 230.802 416.682 231.167 417.141 231.438C417.609 231.708 418.172 231.844 418.828 231.844C419.464 231.844 420.01 231.708 420.469 231.438C420.927 231.167 421.297 230.802 421.578 230.344C421.87 229.875 422.083 229.333 422.219 228.719C422.354 228.094 422.422 227.427 422.422 226.719V226.391C422.422 225.703 422.354 225.052 422.219 224.438C422.083 223.823 421.87 223.281 421.578 222.812C421.297 222.344 420.927 221.974 420.469 221.703C420.01 221.432 419.453 221.297 418.797 221.297C418.151 221.297 417.599 221.432 417.141 221.703C416.682 221.974 416.307 222.344 416.016 222.812C415.724 223.281 415.51 223.823 415.375 224.438C415.24 225.052 415.172 225.703 415.172 226.391V226.719Z" fill="#30404F"/>
<path d="M445.875 226.719C445.875 227.979 445.734 229.135 445.453 230.188C445.182 231.24 444.771 232.146 444.219 232.906C443.667 233.667 442.979 234.26 442.156 234.688C441.333 235.104 440.375 235.312 439.281 235.312C438.292 235.312 437.432 235.13 436.703 234.766C435.984 234.391 435.365 233.87 434.844 233.203L434.641 235H430.734V211H435.078V219.625C435.578 219.042 436.167 218.589 436.844 218.266C437.531 217.943 438.333 217.781 439.25 217.781C440.354 217.781 441.318 217.995 442.141 218.422C442.974 218.849 443.667 219.443 444.219 220.203C444.771 220.964 445.182 221.875 445.453 222.938C445.734 223.99 445.875 225.141 445.875 226.391V226.719ZM441.531 226.391C441.531 225.703 441.479 225.052 441.375 224.438C441.271 223.823 441.089 223.286 440.828 222.828C440.578 222.359 440.234 221.99 439.797 221.719C439.359 221.448 438.812 221.312 438.156 221.312C437.365 221.312 436.719 221.479 436.219 221.812C435.729 222.146 435.349 222.604 435.078 223.188V229.922C435.349 230.505 435.729 230.964 436.219 231.297C436.719 231.63 437.375 231.797 438.188 231.797C438.844 231.797 439.385 231.672 439.812 231.422C440.24 231.161 440.578 230.807 440.828 230.359C441.089 229.901 441.271 229.365 441.375 228.75C441.479 228.125 441.531 227.448 441.531 226.719V226.391Z" fill="#30404F"/>
<path d="M449.266 226.391C449.266 225.161 449.443 224.026 449.797 222.984C450.151 221.932 450.667 221.021 451.344 220.25C452.031 219.479 452.865 218.875 453.844 218.438C454.833 218 455.964 217.781 457.234 217.781C458.505 217.781 459.635 218 460.625 218.438C461.615 218.875 462.448 219.479 463.125 220.25C463.812 221.021 464.333 221.932 464.688 222.984C465.042 224.026 465.219 225.161 465.219 226.391V226.719C465.219 227.958 465.042 229.104 464.688 230.156C464.333 231.198 463.818 232.104 463.141 232.875C462.464 233.646 461.63 234.25 460.641 234.688C459.651 235.115 458.526 235.328 457.266 235.328C455.995 235.328 454.859 235.115 453.859 234.688C452.87 234.25 452.031 233.646 451.344 232.875C450.667 232.104 450.151 231.198 449.797 230.156C449.443 229.104 449.266 227.958 449.266 226.719V226.391ZM453.609 226.719C453.609 227.427 453.677 228.094 453.812 228.719C453.948 229.333 454.161 229.875 454.453 230.344C454.745 230.802 455.12 231.167 455.578 231.438C456.047 231.708 456.609 231.844 457.266 231.844C457.901 231.844 458.448 231.708 458.906 231.438C459.365 231.167 459.734 230.802 460.016 230.344C460.307 229.875 460.521 229.333 460.656 228.719C460.792 228.094 460.859 227.427 460.859 226.719V226.391C460.859 225.703 460.792 225.052 460.656 224.438C460.521 223.823 460.307 223.281 460.016 222.812C459.734 222.344 459.365 221.974 458.906 221.703C458.448 221.432 457.891 221.297 457.234 221.297C456.589 221.297 456.036 221.432 455.578 221.703C455.12 221.974 454.745 222.344 454.453 222.812C454.161 223.281 453.948 223.823 453.812 224.438C453.677 225.052 453.609 225.703 453.609 226.391V226.719Z" fill="#30404F"/>
<path d="M477.047 213.953V218.094H483.359V221.297H477.047V228.562C477.047 229.177 477.115 229.693 477.25 230.109C477.396 230.516 477.599 230.844 477.859 231.094C478.12 231.333 478.432 231.505 478.797 231.609C479.172 231.714 479.589 231.766 480.047 231.766C480.38 231.766 480.719 231.75 481.062 231.719C481.417 231.688 481.75 231.651 482.062 231.609C482.385 231.557 482.682 231.505 482.953 231.453C483.234 231.401 483.474 231.349 483.672 231.297L484.094 234.281C483.792 234.458 483.438 234.615 483.031 234.75C482.625 234.875 482.193 234.979 481.734 235.062C481.276 235.146 480.797 235.208 480.297 235.25C479.807 235.302 479.323 235.328 478.844 235.328C477.917 235.328 477.073 235.208 476.312 234.969C475.562 234.719 474.917 234.339 474.375 233.828C473.844 233.307 473.432 232.651 473.141 231.859C472.849 231.057 472.703 230.099 472.703 228.984V221.297H468.844V218.094H472.703V213.953H477.047Z" fill="#30404F"/>
<path d="M487.703 226.391C487.703 225.161 487.88 224.026 488.234 222.984C488.589 221.932 489.104 221.021 489.781 220.25C490.469 219.479 491.302 218.875 492.281 218.438C493.271 218 494.401 217.781 495.672 217.781C496.943 217.781 498.073 218 499.062 218.438C500.052 218.875 500.885 219.479 501.562 220.25C502.25 221.021 502.771 221.932 503.125 222.984C503.479 224.026 503.656 225.161 503.656 226.391V226.719C503.656 227.958 503.479 229.104 503.125 230.156C502.771 231.198 502.255 232.104 501.578 232.875C500.901 233.646 500.068 234.25 499.078 234.688C498.089 235.115 496.964 235.328 495.703 235.328C494.432 235.328 493.297 235.115 492.297 234.688C491.307 234.25 490.469 233.646 489.781 232.875C489.104 232.104 488.589 231.198 488.234 230.156C487.88 229.104 487.703 227.958 487.703 226.719V226.391ZM492.047 226.719C492.047 227.427 492.115 228.094 492.25 228.719C492.385 229.333 492.599 229.875 492.891 230.344C493.182 230.802 493.557 231.167 494.016 231.438C494.484 231.708 495.047 231.844 495.703 231.844C496.339 231.844 496.885 231.708 497.344 231.438C497.802 231.167 498.172 230.802 498.453 230.344C498.745 229.875 498.958 229.333 499.094 228.719C499.229 228.094 499.297 227.427 499.297 226.719V226.391C499.297 225.703 499.229 225.052 499.094 224.438C498.958 223.823 498.745 223.281 498.453 222.812C498.172 222.344 497.802 221.974 497.344 221.703C496.885 221.432 496.328 221.297 495.672 221.297C495.026 221.297 494.474 221.432 494.016 221.703C493.557 221.974 493.182 222.344 492.891 222.812C492.599 223.281 492.385 223.823 492.25 224.438C492.115 225.052 492.047 225.703 492.047 226.391V226.719Z" fill="#30404F"/>
<path d="M531.969 212.25L534.125 220.797L536.578 212.25H542.031V235H538V228.266L538.188 217.625L535.203 227.5H533.031L530.359 218.047L530.547 228.266V235H526.516V212.25H531.969Z" fill="#30404F"/>
<path d="M545.359 226.391C545.359 225.161 545.536 224.026 545.891 222.984C546.245 221.932 546.76 221.021 547.438 220.25C548.125 219.479 548.958 218.875 549.938 218.438C550.927 218 552.057 217.781 553.328 217.781C554.599 217.781 555.729 218 556.719 218.438C557.708 218.875 558.542 219.479 559.219 220.25C559.906 221.021 560.427 221.932 560.781 222.984C561.135 224.026 561.312 225.161 561.312 226.391V226.719C561.312 227.958 561.135 229.104 560.781 230.156C560.427 231.198 559.911 232.104 559.234 232.875C558.557 233.646 557.724 234.25 556.734 234.688C555.745 235.115 554.62 235.328 553.359 235.328C552.089 235.328 550.953 235.115 549.953 234.688C548.964 234.25 548.125 233.646 547.438 232.875C546.76 232.104 546.245 231.198 545.891 230.156C545.536 229.104 545.359 227.958 545.359 226.719V226.391ZM549.703 226.719C549.703 227.427 549.771 228.094 549.906 228.719C550.042 229.333 550.255 229.875 550.547 230.344C550.839 230.802 551.214 231.167 551.672 231.438C552.141 231.708 552.703 231.844 553.359 231.844C553.995 231.844 554.542 231.708 555 231.438C555.458 231.167 555.828 230.802 556.109 230.344C556.401 229.875 556.615 229.333 556.75 228.719C556.885 228.094 556.953 227.427 556.953 226.719V226.391C556.953 225.703 556.885 225.052 556.75 224.438C556.615 223.823 556.401 223.281 556.109 222.812C555.828 222.344 555.458 221.974 555 221.703C554.542 221.432 553.984 221.297 553.328 221.297C552.682 221.297 552.13 221.432 551.672 221.703C551.214 221.974 550.839 222.344 550.547 222.812C550.255 223.281 550.042 223.823 549.906 224.438C549.771 225.052 549.703 225.703 549.703 226.391V226.719Z" fill="#30404F"/>
<path d="M569.109 218.094L569.375 220.438C569.979 219.594 570.714 218.943 571.578 218.484C572.443 218.016 573.401 217.781 574.453 217.781C575.307 217.781 576.089 217.906 576.797 218.156C577.505 218.406 578.115 218.807 578.625 219.359C579.146 219.901 579.547 220.604 579.828 221.469C580.12 222.323 580.266 223.365 580.266 224.594V235H575.922V224.656C575.922 223.99 575.844 223.443 575.688 223.016C575.542 222.578 575.328 222.234 575.047 221.984C574.766 221.734 574.427 221.562 574.031 221.469C573.635 221.365 573.188 221.312 572.688 221.312C571.948 221.312 571.318 221.464 570.797 221.766C570.276 222.057 569.854 222.464 569.531 222.984V235H565.172V218.094H569.109Z" fill="#30404F"/>
<path d="M583.797 226.391C583.797 225.161 583.974 224.026 584.328 222.984C584.682 221.932 585.198 221.021 585.875 220.25C586.562 219.479 587.396 218.875 588.375 218.438C589.365 218 590.495 217.781 591.766 217.781C593.036 217.781 594.167 218 595.156 218.438C596.146 218.875 596.979 219.479 597.656 220.25C598.344 221.021 598.865 221.932 599.219 222.984C599.573 224.026 599.75 225.161 599.75 226.391V226.719C599.75 227.958 599.573 229.104 599.219 230.156C598.865 231.198 598.349 232.104 597.672 232.875C596.995 233.646 596.161 234.25 595.172 234.688C594.182 235.115 593.057 235.328 591.797 235.328C590.526 235.328 589.391 235.115 588.391 234.688C587.401 234.25 586.562 233.646 585.875 232.875C585.198 232.104 584.682 231.198 584.328 230.156C583.974 229.104 583.797 227.958 583.797 226.719V226.391ZM588.141 226.719C588.141 227.427 588.208 228.094 588.344 228.719C588.479 229.333 588.693 229.875 588.984 230.344C589.276 230.802 589.651 231.167 590.109 231.438C590.578 231.708 591.141 231.844 591.797 231.844C592.432 231.844 592.979 231.708 593.438 231.438C593.896 231.167 594.266 230.802 594.547 230.344C594.839 229.875 595.052 229.333 595.188 228.719C595.323 228.094 595.391 227.427 595.391 226.719V226.391C595.391 225.703 595.323 225.052 595.188 224.438C595.052 223.823 594.839 223.281 594.547 222.812C594.266 222.344 593.896 221.974 593.438 221.703C592.979 221.432 592.422 221.297 591.766 221.297C591.12 221.297 590.568 221.432 590.109 221.703C589.651 221.974 589.276 222.344 588.984 222.812C588.693 223.281 588.479 223.823 588.344 224.438C588.208 225.052 588.141 225.703 588.141 226.391V226.719Z" fill="#30404F"/>
<path d="M622.641 235V212.25H630.281C631.521 212.25 632.646 212.375 633.656 212.625C634.677 212.875 635.547 213.255 636.266 213.766C636.984 214.276 637.536 214.922 637.922 215.703C638.318 216.484 638.516 217.406 638.516 218.469C638.505 219.531 638.219 220.484 637.656 221.328C637.104 222.172 636.286 222.812 635.203 223.25C635.859 223.417 636.427 223.667 636.906 224C637.385 224.333 637.781 224.729 638.094 225.188C638.417 225.635 638.651 226.13 638.797 226.672C638.953 227.203 639.031 227.755 639.031 228.328C639.031 229.422 638.844 230.385 638.469 231.219C638.094 232.052 637.557 232.75 636.859 233.312C636.161 233.875 635.312 234.297 634.312 234.578C633.312 234.859 632.188 235 630.938 235H622.641ZM627.047 224.969V231.453H630.953C632.151 231.443 633.062 231.151 633.688 230.578C634.323 229.995 634.641 229.234 634.641 228.297C634.651 227.255 634.37 226.443 633.797 225.859C633.224 225.276 632.339 224.979 631.141 224.969H627.047ZM627.047 221.797H630.312C631.531 221.786 632.469 221.531 633.125 221.031C633.781 220.531 634.115 219.797 634.125 218.828C634.125 217.766 633.797 217.005 633.141 216.547C632.484 216.078 631.536 215.839 630.297 215.828H627.047V221.797Z" fill="#30404F"/>
<path d="M641.453 226.391C641.453 225.161 641.63 224.026 641.984 222.984C642.339 221.932 642.854 221.021 643.531 220.25C644.219 219.479 645.052 218.875 646.031 218.438C647.021 218 648.151 217.781 649.422 217.781C650.693 217.781 651.823 218 652.812 218.438C653.802 218.875 654.635 219.479 655.312 220.25C656 221.021 656.521 221.932 656.875 222.984C657.229 224.026 657.406 225.161 657.406 226.391V226.719C657.406 227.958 657.229 229.104 656.875 230.156C656.521 231.198 656.005 232.104 655.328 232.875C654.651 233.646 653.818 234.25 652.828 234.688C651.839 235.115 650.714 235.328 649.453 235.328C648.182 235.328 647.047 235.115 646.047 234.688C645.057 234.25 644.219 233.646 643.531 232.875C642.854 232.104 642.339 231.198 641.984 230.156C641.63 229.104 641.453 227.958 641.453 226.719V226.391ZM645.797 226.719C645.797 227.427 645.865 228.094 646 228.719C646.135 229.333 646.349 229.875 646.641 230.344C646.932 230.802 647.307 231.167 647.766 231.438C648.234 231.708 648.797 231.844 649.453 231.844C650.089 231.844 650.635 231.708 651.094 231.438C651.552 231.167 651.922 230.802 652.203 230.344C652.495 229.875 652.708 229.333 652.844 228.719C652.979 228.094 653.047 227.427 653.047 226.719V226.391C653.047 225.703 652.979 225.052 652.844 224.438C652.708 223.823 652.495 223.281 652.203 222.812C651.922 222.344 651.552 221.974 651.094 221.703C650.635 221.432 650.078 221.297 649.422 221.297C648.776 221.297 648.224 221.432 647.766 221.703C647.307 221.974 646.932 222.344 646.641 222.812C646.349 223.281 646.135 223.823 646 224.438C645.865 225.052 645.797 225.703 645.797 226.391V226.719Z" fill="#30404F"/>
<path d="M662.172 211H671.625V231.469H676.469V235H662.172V231.469H667.234V214.547H662.172V211Z" fill="#30404F"/>
<path d="M680.031 226.422C680.031 225.141 680.177 223.969 680.469 222.906C680.771 221.844 681.208 220.932 681.781 220.172C682.354 219.411 683.047 218.823 683.859 218.406C684.682 217.99 685.62 217.781 686.672 217.781C687.557 217.781 688.333 217.943 689 218.266C689.677 218.578 690.276 219.026 690.797 219.609V211H695.156V235H691.234L691.016 233.234C690.484 233.891 689.859 234.401 689.141 234.766C688.422 235.13 687.589 235.312 686.641 235.312C685.609 235.312 684.682 235.099 683.859 234.672C683.047 234.234 682.354 233.635 681.781 232.875C681.219 232.115 680.786 231.214 680.484 230.172C680.182 229.12 680.031 227.979 680.031 226.75V226.422ZM684.375 226.75C684.375 227.458 684.432 228.12 684.547 228.734C684.672 229.339 684.87 229.87 685.141 230.328C685.411 230.776 685.76 231.13 686.188 231.391C686.615 231.651 687.135 231.781 687.75 231.781C688.5 231.781 689.12 231.62 689.609 231.297C690.109 230.974 690.505 230.531 690.797 229.969V223.125C690.505 222.552 690.115 222.109 689.625 221.797C689.135 221.474 688.521 221.312 687.781 221.312C687.167 221.312 686.641 221.448 686.203 221.719C685.776 221.979 685.427 222.344 685.156 222.812C684.885 223.271 684.688 223.812 684.562 224.438C684.438 225.052 684.375 225.714 684.375 226.422V226.75Z" fill="#30404F"/>
<path d="M15.616 172.712C14.4853 173.16 13.2267 173.384 11.84 173.384C10.4533 173.384 9.19467 173.16 8.064 172.712C6.93333 172.264 6.00533 171.667 5.28 170.92C4.55467 170.173 3.94667 169.288 3.456 168.264C2.96533 167.24 2.61333 166.195 2.4 165.128C2.18667 164.061 2.08 162.952 2.08 161.8C2.08 160.648 2.18667 159.539 2.4 158.472C2.61333 157.405 2.96533 156.36 3.456 155.336C3.94667 154.312 4.55467 153.427 5.28 152.68C6.00533 151.933 6.93333 151.336 8.064 150.888C9.19467 150.44 10.4533 150.216 11.84 150.216C13.2267 150.216 14.4853 150.44 15.616 150.888C16.7467 151.336 17.6747 151.933 18.4 152.68C19.1253 153.427 19.7333 154.312 20.224 155.336C20.7147 156.36 21.0667 157.405 21.28 158.472C21.4933 159.539 21.6 160.648 21.6 161.8C21.6 162.952 21.4933 164.061 21.28 165.128C21.0667 166.195 20.7147 167.24 20.224 168.264C19.7333 169.288 19.1253 170.173 18.4 170.92C17.6747 171.667 16.7467 172.264 15.616 172.712ZM8.896 169.448C9.74933 169.939 10.7307 170.184 11.84 170.184C12.9493 170.184 13.9307 169.928 14.784 169.416C15.6373 168.883 16.2987 168.189 16.768 167.336C17.2373 166.483 17.5787 165.597 17.792 164.68C18.0267 163.741 18.144 162.781 18.144 161.8C18.144 160.776 18.0267 159.795 17.792 158.856C17.5787 157.896 17.2373 157 16.768 156.168C16.2987 155.336 15.6373 154.675 14.784 154.184C13.9307 153.672 12.9493 153.416 11.84 153.416C10.7307 153.416 9.74933 153.683 8.896 154.216C8.04267 154.728 7.38133 155.411 6.912 156.264C6.44267 157.117 6.09067 158.013 5.856 158.952C5.64267 159.869 5.536 160.819 5.536 161.8C5.536 162.824 5.64267 163.816 5.856 164.776C6.09067 165.715 6.44267 166.6 6.912 167.432C7.38133 168.264 8.04267 168.936 8.896 169.448ZM30.4715 173L24.4875 156.648H27.8155L31.5915 167.368C31.8262 168.072 31.9755 168.552 32.0395 168.808C32.1035 168.552 32.2528 168.072 32.4875 167.368L36.2315 156.648H39.5595L33.5755 173H30.4715ZM49.399 173.384C47.1163 173.384 45.303 172.627 43.959 171.112C42.6363 169.576 41.975 167.475 41.975 164.808C41.975 162.141 42.647 160.051 43.991 158.536C45.335 157.021 47.1377 156.264 49.399 156.264C51.447 156.264 53.1323 156.915 54.455 158.216C55.7777 159.517 56.439 161.416 56.439 163.912C56.439 164.829 56.3963 165.544 56.311 166.056H45.303C45.3243 167.357 45.7403 168.413 46.551 169.224C47.383 170.035 48.343 170.44 49.431 170.44C50.839 170.44 51.9697 169.885 52.823 168.776L54.999 171.016C53.6763 172.595 51.8097 173.384 49.399 173.384ZM45.303 163.368H53.111C53.0897 161.96 52.7163 160.915 51.991 160.232C51.2657 159.549 50.4017 159.208 49.399 159.208C48.2683 159.208 47.319 159.549 46.551 160.232C45.8043 160.893 45.3883 161.939 45.303 163.368ZM60.275 173V156.648H63.603V158.632C64.3283 157.053 65.5443 156.264 67.251 156.264C68.3177 156.264 69.235 156.595 70.003 157.256L69.523 160.328C68.7337 159.795 67.8697 159.528 66.931 159.528C66.035 159.528 65.2563 159.869 64.595 160.552C63.9337 161.213 63.603 162.301 63.603 163.816V173H60.275ZM80.2578 173.384C78.5938 173.384 77.2818 172.787 76.3218 171.592V177.896L72.9938 179.432V156.648H76.3218V157.96C77.3458 156.829 78.6578 156.264 80.2578 156.264C82.3271 156.264 83.9591 157.032 85.1538 158.568C86.3698 160.083 86.9778 162.173 86.9778 164.84C86.9778 167.485 86.3591 169.576 85.1218 171.112C83.9058 172.627 82.2844 173.384 80.2578 173.384ZM79.7778 170.248C81.0364 170.248 81.9964 169.789 82.6578 168.872C83.3191 167.933 83.6498 166.589 83.6498 164.84C83.6498 163.219 83.3084 161.907 82.6258 160.904C81.9431 159.901 80.9938 159.4 79.7778 159.4C78.2418 159.4 77.0898 160.019 76.3218 161.256V168.36C77.2604 169.619 78.4124 170.248 79.7778 170.248ZM100.307 173V171.592C99.1545 172.787 97.6612 173.384 95.8265 173.384C94.0985 173.384 92.6905 172.915 91.6025 171.976C90.5358 171.016 90.0025 169.661 90.0025 167.912C90.0025 166.141 90.6105 164.797 91.8265 163.88C93.0425 162.963 94.5252 162.504 96.2745 162.504C97.8745 162.504 99.2185 162.824 100.307 163.464V162.568C100.307 161.352 100.029 160.488 99.4745 159.976C98.9198 159.464 98.0345 159.208 96.8185 159.208C95.0265 159.208 93.4692 159.699 92.1465 160.68L91.1545 157.96C92.7972 156.829 94.8345 156.264 97.2665 156.264C98.0772 156.264 98.8025 156.339 99.4425 156.488C100.083 156.616 100.733 156.883 101.395 157.288C102.056 157.672 102.568 158.301 102.931 159.176C103.315 160.051 103.507 161.128 103.507 162.408V173H100.307ZM96.4345 170.44C97.9705 170.44 99.2612 169.853 100.307 168.68V166.184C99.3038 165.651 98.1412 165.384 96.8185 165.384C95.7518 165.384 94.8772 165.597 94.1945 166.024C93.5332 166.429 93.2025 167.059 93.2025 167.912C93.2025 168.701 93.4798 169.32 94.0345 169.768C94.5892 170.216 95.3892 170.44 96.4345 170.44ZM113.05 173.384C111.77 173.384 110.564 173.149 109.434 172.68C108.303 172.189 107.45 171.539 106.874 170.728L109.242 168.712C110.415 169.821 111.663 170.376 112.986 170.376C114.906 170.376 115.866 169.789 115.866 168.616C115.866 168.211 115.684 167.837 115.322 167.496C114.959 167.155 114.596 166.909 114.234 166.76C113.871 166.589 113.284 166.344 112.474 166.024C110.682 165.427 109.359 164.723 108.506 163.912C107.674 163.101 107.258 162.056 107.258 160.776C107.258 159.368 107.791 158.269 108.858 157.48C109.946 156.669 111.311 156.264 112.954 156.264C115.407 156.264 117.316 157.085 118.682 158.728L116.282 160.648C115.407 159.731 114.298 159.272 112.954 159.272C112.25 159.272 111.684 159.411 111.258 159.688C110.852 159.944 110.65 160.307 110.65 160.776C110.65 161.267 110.895 161.672 111.386 161.992C111.898 162.291 112.708 162.653 113.818 163.08C115.674 163.699 117.028 164.424 117.882 165.256C118.756 166.088 119.194 167.208 119.194 168.616C119.194 170.152 118.639 171.336 117.53 172.168C116.442 172.979 114.948 173.384 113.05 173.384ZM128.237 173.384C126.957 173.384 125.752 173.149 124.621 172.68C123.491 172.189 122.637 171.539 122.061 170.728L124.429 168.712C125.603 169.821 126.851 170.376 128.173 170.376C130.093 170.376 131.053 169.789 131.053 168.616C131.053 168.211 130.872 167.837 130.509 167.496C130.147 167.155 129.784 166.909 129.421 166.76C129.059 166.589 128.472 166.344 127.661 166.024C125.869 165.427 124.547 164.723 123.693 163.912C122.861 163.101 122.445 162.056 122.445 160.776C122.445 159.368 122.979 158.269 124.045 157.48C125.133 156.669 126.499 156.264 128.141 156.264C130.595 156.264 132.504 157.085 133.869 158.728L131.469 160.648C130.595 159.731 129.485 159.272 128.141 159.272C127.437 159.272 126.872 159.411 126.445 159.688C126.04 159.944 125.837 160.307 125.837 160.776C125.837 161.267 126.083 161.672 126.573 161.992C127.085 162.291 127.896 162.653 129.005 163.08C130.861 163.699 132.216 164.424 133.069 165.256C133.944 166.088 134.381 167.208 134.381 168.616C134.381 170.152 133.827 171.336 132.717 172.168C131.629 172.979 130.136 173.384 128.237 173.384ZM153.416 173.384C151.432 173.384 149.715 172.904 148.264 171.944C146.814 170.963 145.811 169.629 145.256 167.944L148.392 166.792C148.862 167.837 149.544 168.669 150.44 169.288C151.336 169.885 152.371 170.184 153.544 170.184C154.782 170.184 155.763 169.885 156.488 169.288C157.235 168.691 157.608 167.837 157.608 166.728C157.608 166.259 157.502 165.832 157.288 165.448C157.096 165.043 156.872 164.712 156.616 164.456C156.36 164.2 155.966 163.944 155.432 163.688C154.899 163.411 154.451 163.208 154.088 163.08C153.747 162.931 153.235 162.739 152.552 162.504C151.699 162.205 151.059 161.971 150.632 161.8C150.206 161.629 149.64 161.352 148.936 160.968C148.254 160.563 147.731 160.168 147.368 159.784C147.027 159.379 146.718 158.856 146.44 158.216C146.163 157.576 146.024 156.861 146.024 156.072C146.024 154.429 146.664 153.043 147.944 151.912C149.224 150.781 150.963 150.216 153.16 150.216C154.995 150.216 156.499 150.621 157.672 151.432C158.867 152.243 159.667 153.32 160.072 154.664L157 155.688C156.702 155.005 156.2 154.461 155.496 154.056C154.814 153.629 153.95 153.416 152.904 153.416C151.838 153.416 150.995 153.651 150.376 154.12C149.779 154.589 149.48 155.251 149.48 156.104C149.48 156.68 149.715 157.192 150.184 157.64C150.654 158.088 151.144 158.419 151.656 158.632C152.168 158.845 152.947 159.133 153.992 159.496C154.632 159.731 155.102 159.912 155.4 160.04C155.72 160.147 156.179 160.339 156.776 160.616C157.374 160.893 157.832 161.149 158.152 161.384C158.472 161.597 158.846 161.896 159.272 162.28C159.699 162.664 160.019 163.059 160.232 163.464C160.467 163.848 160.659 164.328 160.808 164.904C160.979 165.459 161.064 166.056 161.064 166.696C161.064 168.787 160.35 170.429 158.92 171.624C157.491 172.797 155.656 173.384 153.416 173.384ZM171.993 173.384C169.71 173.384 167.897 172.627 166.553 171.112C165.23 169.576 164.569 167.475 164.569 164.808C164.569 162.141 165.241 160.051 166.585 158.536C167.929 157.021 169.731 156.264 171.993 156.264C174.041 156.264 175.726 156.915 177.049 158.216C178.371 159.517 179.033 161.416 179.033 163.912C179.033 164.829 178.99 165.544 178.905 166.056H167.897C167.918 167.357 168.334 168.413 169.145 169.224C169.977 170.035 170.937 170.44 172.025 170.44C173.433 170.44 174.563 169.885 175.417 168.776L177.593 171.016C176.27 172.595 174.403 173.384 171.993 173.384ZM167.897 163.368H175.705C175.683 161.96 175.31 160.915 174.585 160.232C173.859 159.549 172.995 159.208 171.993 159.208C170.862 159.208 169.913 159.549 169.145 160.232C168.398 160.893 167.982 161.939 167.897 163.368ZM202.069 173V163.208C202.069 160.669 201.066 159.4 199.061 159.4C198.122 159.4 197.343 159.752 196.725 160.456C196.106 161.139 195.797 162.109 195.797 163.368V173H192.469V163.208C192.469 160.669 191.466 159.4 189.461 159.4C188.522 159.4 187.743 159.752 187.125 160.456C186.506 161.139 186.197 162.109 186.197 163.368V173H182.869V156.648H186.197V158.152C187.071 156.893 188.447 156.264 190.325 156.264C192.351 156.264 193.802 157.043 194.677 158.6C195.679 157.043 197.29 156.264 199.509 156.264C201.279 156.264 202.698 156.776 203.765 157.8C204.853 158.824 205.397 160.371 205.397 162.44V173H202.069ZM213.129 153.512C212.745 153.896 212.276 154.088 211.721 154.088C211.166 154.088 210.686 153.896 210.281 153.512C209.897 153.107 209.705 152.627 209.705 152.072C209.705 151.517 209.897 151.048 210.281 150.664C210.686 150.259 211.166 150.056 211.721 150.056C212.276 150.056 212.745 150.259 213.129 150.664C213.534 151.048 213.737 151.517 213.737 152.072C213.737 152.627 213.534 153.107 213.129 153.512ZM210.057 173V156.648H213.385V173H210.057ZM218.693 150.6H227.173C229.647 150.6 231.439 151.165 232.549 152.296C233.679 153.427 234.245 154.856 234.245 156.584C234.245 157.544 233.978 158.44 233.444 159.272C232.933 160.083 232.175 160.733 231.173 161.224C232.495 161.693 233.466 162.397 234.085 163.336C234.725 164.275 235.045 165.309 235.045 166.44C235.045 167.251 234.906 168.029 234.628 168.776C234.373 169.501 233.967 170.195 233.413 170.856C232.858 171.496 232.079 172.019 231.077 172.424C230.095 172.808 228.954 173 227.653 173H218.693V150.6ZM226.629 159.848C227.994 159.848 229.039 159.571 229.765 159.016C230.49 158.44 230.853 157.683 230.853 156.744C230.853 154.696 229.658 153.672 227.269 153.672H222.021V159.848H226.629ZM227.909 169.928C229.253 169.928 230.213 169.608 230.789 168.968C231.365 168.328 231.653 167.539 231.653 166.6C231.653 164.147 230.085 162.92 226.949 162.92H222.021V169.928H227.909ZM251.653 171.112C250.309 172.627 248.485 173.384 246.181 173.384C243.877 173.384 242.053 172.627 240.709 171.112C239.386 169.597 238.725 167.507 238.725 164.84C238.725 162.173 239.386 160.083 240.709 158.568C242.053 157.032 243.877 156.264 246.181 156.264C248.485 156.264 250.309 157.032 251.653 158.568C252.997 160.083 253.669 162.173 253.669 164.84C253.669 167.507 252.997 169.597 251.653 171.112ZM246.181 170.248C247.461 170.248 248.474 169.768 249.221 168.808C249.968 167.848 250.341 166.525 250.341 164.84C250.341 163.155 249.968 161.832 249.221 160.872C248.474 159.891 247.461 159.4 246.181 159.4C244.922 159.4 243.92 159.891 243.173 160.872C242.426 161.832 242.053 163.155 242.053 164.84C242.053 166.504 242.426 167.827 243.173 168.808C243.92 169.768 244.922 170.248 246.181 170.248ZM257.841 173V151.464L261.169 149.896V173H257.841ZM272.103 173.384C270.033 173.384 268.38 172.627 267.143 171.112C265.927 169.576 265.319 167.475 265.319 164.808C265.319 162.163 265.937 160.083 267.175 158.568C268.433 157.032 270.076 156.264 272.103 156.264C273.703 156.264 274.993 156.776 275.975 157.8V151.432L279.303 149.896V173H275.975V171.848C275.057 172.872 273.767 173.384 272.103 173.384ZM272.583 170.248C274.076 170.248 275.207 169.629 275.975 168.392V161.192C275.676 160.701 275.228 160.285 274.631 159.944C274.055 159.581 273.372 159.4 272.583 159.4C271.324 159.4 270.353 159.869 269.671 160.808C268.988 161.747 268.647 163.08 268.647 164.808C268.647 166.429 268.999 167.741 269.703 168.744C270.407 169.747 271.367 170.248 272.583 170.248Z" fill="#30404F"/>
<path d="M11.744 235.384C18.976 235.384 21.568 229.336 21.568 223.8C21.568 218.264 18.976 212.216 11.744 212.216C4.544 212.216 1.92 218.264 1.92 223.8C1.92 229.336 4.544 235.384 11.744 235.384ZM11.744 231.704C7.392 231.704 5.888 227.448 5.888 223.8C5.888 220.344 7.392 215.896 11.744 215.896C16.096 215.896 17.6 220.12 17.6 223.8C17.6 227.224 16.064 231.704 11.744 231.704ZM30.034 235H33.746L39.73 218.648H35.922L32.37 228.856C32.178 229.368 32.05 229.816 31.922 230.328C31.794 229.816 31.634 229.368 31.474 228.856L27.858 218.648H24.05L30.034 235ZM49.527 235.384C52.151 235.384 54.071 234.36 55.351 232.824L52.983 230.392C52.119 231.544 50.967 232.088 49.527 232.088C47.575 232.088 45.815 230.648 45.687 228.248H56.535C56.631 227.512 56.663 226.616 56.663 225.944C56.663 220.696 53.463 218.264 49.527 218.264C44.951 218.264 41.975 221.464 41.975 226.808C41.975 232.184 44.887 235.384 49.527 235.384ZM45.719 225.144C45.911 222.584 47.511 221.56 49.527 221.56C51.223 221.56 52.791 222.648 52.951 225.144H45.719ZM60.4938 235H64.2378V225.848C64.2378 222.744 65.8698 221.944 67.3098 221.944C68.5578 221.944 69.4218 222.328 70.0938 222.808L70.6378 219.384C69.8058 218.68 68.8138 218.264 67.5978 218.264C65.9658 218.264 64.8778 219 64.2378 220.344V218.648H60.4938V235ZM80.856 235.384C84.824 235.384 87.608 232.216 87.608 226.84C87.608 221.368 84.952 218.264 80.888 218.264C79.128 218.264 77.944 218.936 77.144 219.896V218.648H73.4V241.432L77.144 239.704V233.688C77.912 234.648 79.096 235.384 80.856 235.384ZM80.312 231.8C78.808 231.8 77.72 231.032 77.144 230.2V223.416C77.816 222.424 78.84 221.816 80.312 221.816C82.616 221.816 83.864 223.864 83.864 226.84C83.864 230.04 82.584 231.8 80.312 231.8ZM100.931 235H104.579V224.472C104.579 218.968 100.995 218.264 98.1148 218.264C95.3628 218.264 93.1868 219.064 91.7148 220.056L92.8668 223.096C94.2428 222.136 95.7468 221.56 97.7308 221.56C99.8748 221.56 100.931 222.392 100.931 224.536V225.4C99.9068 224.824 98.5948 224.536 97.0588 224.536C93.8268 224.536 90.6588 226.168 90.6588 229.944C90.6588 233.528 93.2188 235.384 96.5788 235.384C98.7548 235.384 100.131 234.52 100.931 233.688V235ZM97.2828 232.088C95.3308 232.088 94.3068 231.224 94.3068 229.944C94.3068 228.376 95.8108 227.736 97.6667 227.736C98.8828 227.736 100.067 227.992 100.931 228.408V230.52C100.099 231.384 98.8828 232.088 97.2828 232.088ZM114.304 235.384C118.08 235.384 120.576 233.688 120.576 230.52C120.576 227.416 118.368 226.072 115.2 225.016C113.472 224.44 112 223.864 112 222.872C112 222.008 112.864 221.528 114.208 221.528C115.712 221.528 116.672 222.136 117.472 222.904L120.064 220.792C118.944 219.48 117.024 218.264 114.208 218.264C110.976 218.264 108.384 219.864 108.384 222.808C108.384 225.56 110.24 226.936 113.792 228.12C115.648 228.856 116.96 229.368 116.96 230.52C116.96 231.704 115.84 232.12 114.304 232.12C112.512 232.12 111.168 231.064 110.496 230.392L107.936 232.568C109.152 234.296 111.68 235.384 114.304 235.384ZM129.836 235.384C133.612 235.384 136.108 233.688 136.108 230.52C136.108 227.416 133.9 226.072 130.732 225.016C129.004 224.44 127.532 223.864 127.532 222.872C127.532 222.008 128.396 221.528 129.74 221.528C131.244 221.528 132.204 222.136 133.004 222.904L135.596 220.792C134.476 219.48 132.556 218.264 129.74 218.264C126.508 218.264 123.916 219.864 123.916 222.808C123.916 225.56 125.772 226.936 129.324 228.12C131.18 228.856 132.492 229.368 132.492 230.52C132.492 231.704 131.372 232.12 129.836 232.12C128.044 232.12 126.7 231.064 126.028 230.392L123.468 232.568C124.684 234.296 127.212 235.384 129.836 235.384ZM148.283 212.6V235H157.915C163.451 235 165.403 231.48 165.403 228.376C165.403 226.36 164.378 224.152 161.722 223.192C163.707 222.232 164.603 220.472 164.603 218.584C164.603 215.544 162.843 212.6 157.435 212.6H148.283ZM156.923 221.624H152.123V216.152H157.531C160.187 216.152 160.731 217.56 160.731 218.872C160.731 220.504 159.483 221.624 156.923 221.624ZM158.139 231.448H152.123V225.176H157.211C160.699 225.176 161.499 226.808 161.499 228.472C161.499 229.848 160.763 231.448 158.139 231.448ZM176.401 235.384C181.009 235.384 183.921 232.216 183.921 226.84C183.921 221.496 181.009 218.264 176.401 218.264C171.825 218.264 168.913 221.496 168.913 226.84C168.913 232.216 171.825 235.384 176.401 235.384ZM176.401 231.8C174.129 231.8 172.657 229.944 172.657 226.84C172.657 223.736 174.129 221.816 176.401 221.816C178.737 221.816 180.177 223.736 180.177 226.84C180.177 229.944 178.737 231.8 176.401 231.8ZM188.091 235H191.835V211.896L188.091 213.656V235ZM202.79 235.384C204.518 235.384 205.702 234.808 206.47 233.816V235H210.214V211.896L206.47 213.592V219.8C205.702 218.904 204.518 218.264 202.79 218.264C198.854 218.264 196.006 221.464 196.006 226.808C196.006 232.248 198.662 235.384 202.79 235.384ZM203.366 231.8C201.062 231.8 199.75 229.784 199.75 226.808C199.75 223.576 201.062 221.816 203.366 221.816C204.934 221.816 205.99 222.68 206.47 223.384V230.232C205.798 231.256 204.774 231.8 203.366 231.8Z" fill="#30404F"/>
</svg>
