<svg width="739" height="145" viewBox="0 0 739 145" fill="none" xmlns="http://www.w3.org/2000/svg">
<path d="M293.402 84.6802L282.602 84.7802V93.8802H293.402C295.902 93.8802 298.002 91.7802 298.002 89.2802C298.002 88.0802 297.502 86.9802 296.702 86.0802C295.802 85.1802 294.602 84.6802 293.402 84.6802Z" fill="url(#paint0_linear)"/>
<mask id="mask0" mask-type="alpha" maskUnits="userSpaceOnUse" x="282" y="84" width="17" height="10">
<path d="M293.402 84.6802L282.602 84.7802V93.8802H293.402C295.902 93.8802 298.002 91.7802 298.002 89.2802C298.002 88.0802 297.502 86.9802 296.702 86.0802C295.802 85.1802 294.602 84.6802 293.402 84.6802Z" fill="white"/>
</mask>
<g mask="url(#mask0)">
</g>
<path d="M293.402 107.08L275.202 107.18C272.702 107.18 270.602 109.28 270.602 111.78C270.602 112.98 271.102 114.08 271.902 114.98C272.802 115.88 273.902 116.28 275.102 116.28L286.402 116.18H293.202C295.702 116.18 297.802 114.08 297.802 111.58C297.802 110.38 297.302 109.28 296.502 108.38C295.802 107.48 294.602 107.08 293.402 107.08Z" fill="url(#paint1_linear)"/>
<mask id="mask1" mask-type="alpha" maskUnits="userSpaceOnUse" x="270" y="107" width="28" height="10">
<path d="M293.402 107.08L275.202 107.18C272.702 107.18 270.602 109.28 270.602 111.78C270.602 112.98 271.102 114.08 271.902 114.98C272.802 115.88 273.902 116.28 275.102 116.28L286.402 116.18H293.202C295.702 116.18 297.802 114.08 297.802 111.58C297.802 110.38 297.302 109.28 296.502 108.38C295.802 107.48 294.602 107.08 293.402 107.08Z" fill="white"/>
</mask>
<g mask="url(#mask1)">
</g>
<path d="M293.402 82.6801C295.902 82.6801 298.002 80.5801 298.002 78.0801C298.002 76.8801 297.502 75.7801 296.702 74.8801C295.802 73.9801 294.702 73.5801 293.502 73.5801L282.602 73.6801C282.702 73.9801 282.802 74.2801 282.802 74.5801V82.6801H293.402Z" fill="url(#paint2_linear)"/>
<mask id="mask2" mask-type="alpha" maskUnits="userSpaceOnUse" x="282" y="73" width="17" height="10">
<path d="M293.402 82.6801C295.902 82.6801 298.002 80.5801 298.002 78.0801C298.002 76.8801 297.502 75.7801 296.702 74.8801C295.802 73.9801 294.702 73.5801 293.502 73.5801L282.602 73.6801C282.702 73.9801 282.802 74.2801 282.802 74.5801V82.6801H293.402Z" fill="white"/>
</mask>
<g mask="url(#mask2)">
</g>
<path d="M275.201 118.28C272.801 118.28 270.601 116.98 269.301 114.78C268.801 113.88 268.501 112.78 268.501 111.68C268.501 109.38 269.701 107.28 271.601 106.08C271.201 105.78 270.801 105.48 270.501 105.18C269.201 103.98 268.601 102.28 268.601 100.48C268.601 97.7804 270.201 95.4804 272.601 94.3804C271.401 93.5804 270.401 92.4804 269.701 91.0804C269.001 89.6804 268.701 88.1804 268.701 86.6804V83.6804C268.701 83.0804 269.201 82.6804 269.701 82.6804C270.301 82.6804 270.701 83.1804 270.701 83.6804V86.6804C270.701 88.3804 271.201 89.9804 272.301 91.2804C273.601 92.8804 275.501 93.7804 277.601 93.6804H279.901H280.601V74.3804C280.601 74.1804 280.501 73.8804 280.301 73.6804C280.101 73.4804 279.901 73.3804 279.601 73.3804H277.901H273.701H262.901C258.801 73.3804 255.201 76.1804 254.201 80.1804L249.301 100.08C249.301 100.28 249.201 100.38 249.001 100.58L224.301 125.98C223.901 126.38 223.901 127.08 224.301 127.48L240.401 143.48C240.801 143.88 241.501 143.88 241.901 143.48L261.201 123.58C261.401 123.38 261.701 123.28 261.901 123.28L279.101 123.18C280.801 123.18 282.301 122.28 283.201 120.88L285.001 117.98L275.201 118.28Z" fill="url(#paint3_linear)"/>
<mask id="mask3" mask-type="alpha" maskUnits="userSpaceOnUse" x="224" y="73" width="62" height="71">
<path d="M275.201 118.28C272.801 118.28 270.601 116.98 269.301 114.78C268.801 113.88 268.501 112.78 268.501 111.68C268.501 109.38 269.701 107.28 271.601 106.08C271.201 105.78 270.801 105.48 270.501 105.18C269.201 103.98 268.601 102.28 268.601 100.48C268.601 97.7804 270.201 95.4804 272.601 94.3804C271.401 93.5804 270.401 92.4804 269.701 91.0804C269.001 89.6804 268.701 88.1804 268.701 86.6804V83.6804C268.701 83.0804 269.201 82.6804 269.701 82.6804C270.301 82.6804 270.701 83.1804 270.701 83.6804V86.6804C270.701 88.3804 271.201 89.9804 272.301 91.2804C273.601 92.8804 275.501 93.7804 277.601 93.6804H279.901H280.601V74.3804C280.601 74.1804 280.501 73.8804 280.301 73.6804C280.101 73.4804 279.901 73.3804 279.601 73.3804H277.901H273.701H262.901C258.801 73.3804 255.201 76.1804 254.201 80.1804L249.301 100.08C249.301 100.28 249.201 100.38 249.001 100.58L224.301 125.98C223.901 126.38 223.901 127.08 224.301 127.48L240.401 143.48C240.801 143.88 241.501 143.88 241.901 143.48L261.201 123.58C261.401 123.38 261.701 123.28 261.901 123.28L279.101 123.18C280.801 123.18 282.301 122.28 283.201 120.88L285.001 117.98L275.201 118.28Z" fill="white"/>
</mask>
<g mask="url(#mask3)">
</g>
<path d="M293.402 95.8804L277.602 95.9804H275.302C272.802 95.9804 270.702 98.0804 270.702 100.58C270.702 101.78 271.202 102.88 272.002 103.78C272.902 104.68 274.002 105.08 275.202 105.08L293.402 104.98C295.902 104.98 298.002 102.88 298.002 100.38C298.002 99.1804 297.502 98.0804 296.702 97.1804C295.802 96.3804 294.602 95.8804 293.402 95.8804Z" fill="url(#paint4_linear)"/>
<mask id="mask4" mask-type="alpha" maskUnits="userSpaceOnUse" x="270" y="95" width="29" height="11">
<path d="M293.402 95.8804L277.602 95.9804H275.302C272.802 95.9804 270.702 98.0804 270.702 100.58C270.702 101.78 271.202 102.88 272.002 103.78C272.902 104.68 274.002 105.08 275.202 105.08L293.402 104.98C295.902 104.98 298.002 102.88 298.002 100.38C298.002 99.1804 297.502 98.0804 296.702 97.1804C295.802 96.3804 294.602 95.8804 293.402 95.8804Z" fill="white"/>
</mask>
<g mask="url(#mask4)">
</g>
<path d="M272.602 54.5803L273.902 54.4803V71.5803H278.102V62.7803L279.702 62.8803C285.502 63.0803 291.202 60.5803 294.902 55.9803L297.002 53.3803L293.602 53.2803C287.802 53.0803 282.102 55.5803 278.402 60.1803L278.002 60.6803V28.9803C278.902 28.8803 274.584 28.8803 273.802 28.9803V44.8803V51.7803C270.102 47.2803 264.402 44.6803 258.602 44.8803L255.202 44.9803L257.302 47.5803C261.102 52.2803 266.702 54.8803 272.602 54.5803Z" fill="url(#paint5_linear)"/>
<mask id="mask5" mask-type="alpha" maskUnits="userSpaceOnUse" x="255" y="28" width="43" height="44">
<path d="M272.602 54.5803L273.902 54.4803V71.5803H278.102V62.7803L279.702 62.8803C285.502 63.0803 291.202 60.5803 294.902 55.9803L297.002 53.3803L293.602 53.2803C287.802 53.0803 282.102 55.5803 278.402 60.1803L278.002 60.6803V28.9803C278.902 28.8803 274.584 28.8803 273.802 28.9803V44.8803V51.7803C270.102 47.2803 264.402 44.6803 258.602 44.8803L255.202 44.9803L257.302 47.5803C261.102 52.2803 266.702 54.8803 272.602 54.5803Z" fill="white"/>
</mask>
<g mask="url(#mask5)">
</g>
<path d="M277.662 31.3919C285.313 31.3919 291.516 25.1522 291.516 17.4552C291.516 9.75821 285.313 3.51855 277.662 3.51855C270.011 3.51855 263.809 9.75821 263.809 17.4552C263.809 25.1522 270.011 31.3919 277.662 31.3919Z" fill="#F9FAFC"/>
<path d="M287.392 13.2761C288.385 14.6283 288.904 16.2263 288.904 17.8858C288.904 19.8987 288.08 21.7579 286.674 23.2638L287.53 26.4752H290.126L292.86 23.356L293.594 18.7924L293.746 16.0726L291.043 12.9995L287.392 13.2761Z" fill="#D0EEF4"/>
<path d="M257.302 26.8437L257.775 28.7337C257.775 28.7337 263.366 40.2733 275.952 44.5603C275.952 44.5603 287.402 39.6433 292.488 31.2997L285.467 25.1381C285.467 25.1381 282.107 27.8271 277.112 27.8271C272.118 27.8271 265.336 24.8308 265.336 18.6538C265.336 12.4768 272.362 10.218 272.362 10.218L269.368 9.48047H261.716L256.859 21.2506L257.302 26.8437Z" fill="#D0EEF4"/>
<path d="M299.596 13.8722C299.382 13.657 294.985 7.98058 277.75 0.980579C276.876 0.638092 276.059 0.929066 276.059 0.929066C260.268 4.97977 252.521 13.34 252.521 13.8722C252.521 14.4044 254.782 22.4034 256.248 25.6609C256.37 25.9375 258.325 29.4101 259.776 31.3001C258.921 29.4101 257.989 27.766 257.989 24.9387C257.989 16.9639 264.129 10.4796 271.812 10.203C271.996 10.203 272.194 10.203 272.377 10.2184L270.545 8.37452C270.545 8.37452 277.922 7.1299 287.392 12.892C287.392 12.892 287.529 13.184 287.392 14.0445C287.392 14.0445 291.852 15.9805 292.234 19.7451C292.616 23.5097 290.248 25.6609 288.339 25.9682C288.339 25.9682 289.332 24.4163 287.804 23.5865C287.484 23.4021 287.102 23.3253 286.72 23.3407C283.803 23.3407 283.467 26.6904 283.467 26.6904C283.436 26.8594 283.436 27.0284 283.436 27.1975C283.436 27.1975 282.947 32.0991 291.623 32.0069C291.623 32.0069 296.022 26.9977 297.183 22.4956C297.61 20.8361 297.916 19.5915 298.114 18.6695C298.603 17.3634 299.077 15.4395 299.535 14.0412L299.596 13.8722Z" fill="url(#paint6_linear)"/>
<mask id="mask6" mask-type="alpha" maskUnits="userSpaceOnUse" x="252" y="0" width="48" height="33">
<path d="M299.596 13.8722C299.382 13.657 294.985 7.98058 277.75 0.980579C276.876 0.638092 276.059 0.929066 276.059 0.929066C260.268 4.97977 252.521 13.34 252.521 13.8722C252.521 14.4044 254.782 22.4034 256.248 25.6609C256.37 25.9375 258.325 29.4101 259.776 31.3001C258.921 29.4101 257.989 27.766 257.989 24.9387C257.989 16.9639 264.129 10.4796 271.812 10.203C271.996 10.203 272.194 10.203 272.377 10.2184L270.545 8.37452C270.545 8.37452 277.922 7.1299 287.392 12.892C287.392 12.892 287.529 13.184 287.392 14.0445C287.392 14.0445 291.852 15.9805 292.234 19.7451C292.616 23.5097 290.248 25.6609 288.339 25.9682C288.339 25.9682 289.332 24.4163 287.804 23.5865C287.484 23.4021 287.102 23.3253 286.72 23.3407C283.803 23.3407 283.467 26.6904 283.467 26.6904C283.436 26.8594 283.436 27.0284 283.436 27.1975C283.436 27.1975 282.947 32.0991 291.623 32.0069C291.623 32.0069 296.022 26.9977 297.183 22.4956C297.61 20.8361 297.916 19.5915 298.114 18.6695C298.603 17.3634 299.077 15.4395 299.535 14.0412L299.596 13.8722Z" fill="white"/>
</mask>
<g mask="url(#mask6)">
</g>
<path opacity="0.895424" d="M283.619 14.3824C283.742 14.321 284.139 14.1212 284.597 13.6449C285.513 13.7678 286.415 14.0597 286.415 14.0597C284.75 13.0456 282.474 12.4463 279.954 12.4617C279.954 12.4617 280.916 13.8446 283.589 14.4132C283.589 14.4132 283.604 14.3978 283.619 14.3824Z" fill="#67D2E9"/>
<path fill-rule="evenodd" clip-rule="evenodd" d="M276.532 0.17236C278.945 0.971481 290.569 5.12378 299.764 13.115L299.978 13.2717L299.932 13.5381C299.932 13.6007 298.924 19.6803 295.533 26.512C293.532 30.539 291.104 34.0488 288.324 36.932C284.902 40.4732 280.946 43.0899 276.532 44.7195L276.272 44.8135L275.997 44.9232L275.738 44.8292L275.478 44.7351C271.064 43.1056 267.093 40.4888 263.686 36.9476C260.907 34.0489 258.478 30.5547 256.477 26.5277C253.227 19.9641 252.18 14.1204 252.085 13.5921C252.081 13.5692 252.079 13.5563 252.078 13.5537L252.032 13.2874L252.231 13.115C261.426 5.12378 273.05 0.971481 275.463 0.17236L275.997 0L276.303 0.0940143L276.532 0.17236ZM287.652 36.2739C290.37 33.4534 292.738 30.0219 294.693 26.089C297.626 20.1817 298.741 14.8699 298.97 13.6634C289.546 5.56251 277.617 1.5199 275.997 0.98715C274.363 1.5199 262.449 5.56251 253.025 13.6634C253.254 14.8856 254.354 20.1974 257.302 26.1203C259.257 30.0532 261.624 33.4691 264.343 36.2895C267.719 39.7837 271.629 42.3378 275.997 43.9204C280.366 42.3378 284.276 39.7681 287.652 36.2739Z" fill="#F9FAFC"/>
<path d="M74.3344 105.261C96.226 105.261 113.973 87.5186 113.973 65.6327C113.973 43.7469 96.226 26.0049 74.3344 26.0049C52.4429 26.0049 34.6963 43.7469 34.6963 65.6327C34.6963 87.5186 52.4429 105.261 74.3344 105.261Z" fill="url(#paint7_linear)"/>
<mask id="mask7" mask-type="alpha" maskUnits="userSpaceOnUse" x="34" y="26" width="80" height="80">
<path d="M74.3344 105.261C96.226 105.261 113.973 87.5186 113.973 65.6327C113.973 43.7469 96.226 26.0049 74.3344 26.0049C52.4429 26.0049 34.6963 43.7469 34.6963 65.6327C34.6963 87.5186 52.4429 105.261 74.3344 105.261Z" fill="white"/>
</mask>
<g mask="url(#mask7)">
</g>
<path d="M102.173 53.7488C105.013 57.5937 106.499 62.1375 106.499 66.8562C106.499 72.5797 104.139 77.8663 100.119 82.1481L102.566 91.2795H109.995L117.818 82.4102L119.916 69.4339L120.353 61.7006L112.618 52.9624L102.173 53.7488Z" fill="url(#paint8_linear)"/>
<path d="M16.0789 92.328L17.4337 97.702C17.4337 97.702 33.4288 130.514 69.4396 142.704C69.4396 142.704 102.202 128.723 116.754 104.998L96.6662 87.4783C96.6662 87.4783 87.0517 95.1242 72.761 95.1242C58.4703 95.1242 39.0664 86.6044 39.0664 69.0406C39.0664 51.4768 59.1695 45.0542 59.1695 45.0542L50.6038 42.957H28.7089L14.8115 76.4244L16.0789 92.328Z" fill="url(#paint9_linear)"/>
<path d="M137.091 55.4438C136.48 54.8322 120.887 36.7669 72.2458 20.0332C69.7459 19.0594 69.7459 18.6411 69.7459 18.6411C24.5659 30.159 2.40039 53.9305 2.40039 55.4438C2.40039 56.9571 8.86836 79.7017 13.0638 88.9642C13.4134 89.7506 19.0073 99.6248 23.1591 104.999C20.7117 99.6248 18.0459 94.9499 18.0459 86.9107C18.0459 64.235 35.6143 45.7974 57.5966 45.0109C58.121 45.0109 58.6892 45.0109 59.2136 45.0546L53.9693 39.8117C53.9693 39.8117 75.0776 36.2727 102.173 52.6569C102.173 52.6569 102.566 53.487 102.173 55.9337C102.173 55.9337 114.934 61.4388 116.027 72.1431C117.119 82.8474 110.345 88.9642 104.883 89.838C104.883 89.838 107.723 85.4252 103.353 83.0659C102.435 82.5416 101.343 82.3231 100.25 82.3668C91.903 82.3668 90.9416 91.8915 90.9416 91.8915C90.8542 92.3721 90.8542 92.8527 90.8542 93.3333C90.8542 93.3333 89.4557 107.271 114.279 107.009C114.279 107.009 126.865 92.7653 130.186 79.9638C131.41 75.2452 132.284 71.7062 132.852 69.0847C134.251 65.371 135.606 59.9003 136.917 55.9244L137.091 55.4438Z" fill="url(#paint10_linear)"/>
<path opacity="0.895424" d="M91.3782 56.8948C91.7279 56.7201 92.8641 56.1521 94.1752 54.7977C96.7973 55.1472 99.3758 55.9773 99.3758 55.9773C94.6122 53.0937 88.1006 51.3897 80.8896 51.4334C80.8896 51.4334 83.6429 55.3656 91.2908 56.9822C91.2908 56.9822 91.3345 56.9385 91.3782 56.8948Z" fill="white"/>
<path fill-rule="evenodd" clip-rule="evenodd" d="M71.1002 16.4901C78.0052 18.7623 111.263 30.5691 137.572 53.2915L138.184 53.737L138.052 54.4944C138.052 54.6726 135.168 71.9595 125.466 91.3849C119.741 102.835 112.792 112.815 104.839 121.013C95.0492 131.082 83.7302 138.523 71.1002 143.156L70.3573 143.424L69.5706 143.736L68.8277 143.468L68.0847 143.201C55.4547 138.567 44.0921 131.127 34.3464 121.058C26.3926 112.815 19.4439 102.88 13.7189 91.4295C4.41902 72.7664 1.42351 56.1502 1.15271 54.648C1.141 54.5831 1.13438 54.5464 1.13257 54.539L1.00146 53.7816L1.5696 53.2915C27.8785 30.5691 61.1361 18.7623 68.041 16.4901L69.5706 16L70.4447 16.2673L71.1002 16.4901ZM102.916 119.142C110.695 111.122 117.469 101.365 123.063 90.1818C131.453 73.385 134.644 58.2813 135.299 54.8507C108.335 31.8164 74.2032 20.3215 69.5707 18.8067C64.8945 20.3215 30.8066 31.8164 3.8422 54.8507C4.49774 58.3258 7.64432 73.4296 16.0789 90.2709C21.6728 101.454 28.4467 111.167 36.2257 119.186C45.884 129.122 57.0718 136.384 69.5707 140.884C82.0696 136.384 93.2575 129.077 102.916 119.142Z" fill="url(#paint11_linear)"/>
<path d="M71.1002 16.4901L70.9715 16.8688L70.9752 16.87L71.1002 16.4901ZM125.466 91.3849L125.824 91.5638L125.824 91.5637L125.466 91.3849ZM34.3464 121.058L34.0586 121.335L34.059 121.336L34.3464 121.058ZM1.5696 53.2915L1.83087 53.5944L1.83105 53.5942L1.5696 53.2915ZM68.041 16.4901L67.919 16.1092L67.916 16.1101L68.041 16.4901ZM3.8422 54.8507L3.58239 54.5465L3.40617 54.6971L3.44913 54.9248L3.8422 54.8507ZM36.2257 119.186L35.9386 119.465L35.9389 119.465L36.2257 119.186ZM69.5707 140.884L69.4352 141.26L69.5707 141.309L69.7062 141.26L69.5707 140.884ZM137.833 52.9888C137.706 52.8787 137.578 52.7689 137.45 52.6594L136.93 53.2667C137.057 53.3756 137.184 53.4848 137.31 53.5942L137.833 52.9888ZM136.682 52.0052C136.425 51.7882 136.168 51.5722 135.91 51.3572L135.398 51.9717C135.654 52.1855 135.91 52.4003 136.166 52.6162L136.682 52.0052ZM135.134 50.7146C134.874 50.5008 134.613 50.288 134.352 50.0762L133.848 50.6975C134.108 50.9082 134.367 51.1199 134.626 51.3326L135.134 50.7146ZM133.567 49.4439C133.305 49.2341 133.042 49.0254 132.779 48.8176L132.283 49.4456C132.545 49.6522 132.807 49.8599 133.067 50.0686L133.567 49.4439ZM131.984 48.1944C131.719 47.9877 131.453 47.782 131.187 47.5774L130.699 48.2116C130.964 48.4153 131.229 48.6199 131.493 48.8255L131.984 48.1944ZM130.387 46.9666C130.119 46.7629 129.85 46.5603 129.581 46.3588L129.101 46.9991C129.369 47.1996 129.637 47.4012 129.904 47.6039L130.387 46.9666ZM128.772 45.7566C128.502 45.5569 128.232 45.3583 127.961 45.1607L127.489 45.8067C127.759 46.0034 128.028 46.2011 128.296 46.3998L128.772 45.7566ZM127.145 44.5681C126.872 44.3711 126.598 44.1752 126.325 43.9803L125.86 44.632C126.133 44.8259 126.405 45.0209 126.677 45.217L127.145 44.5681ZM125.503 43.3989C125.228 43.2053 124.953 43.0128 124.677 42.8213L124.221 43.4782C124.495 43.6688 124.769 43.8605 125.043 44.0532L125.503 43.3989ZM123.847 42.2475C123.57 42.0573 123.292 41.8682 123.015 41.6802L122.566 42.3422C122.842 42.5294 123.118 42.7177 123.394 42.907L123.847 42.2475ZM122.18 41.1172C121.9 40.9294 121.62 40.7427 121.34 40.5571L120.898 41.224C121.177 41.4088 121.456 41.5947 121.735 41.7817L122.18 41.1172ZM120.499 40.0035C120.218 39.8195 119.937 39.6366 119.656 39.4547L119.221 40.1264C119.501 40.3075 119.781 40.4896 120.061 40.6728L120.499 40.0035ZM118.806 38.9079C118.523 38.7268 118.239 38.5467 117.956 38.3678L117.529 39.044C117.811 39.2222 118.093 39.4015 118.375 39.5819L118.806 38.9079ZM117.105 37.8329C116.819 37.6539 116.533 37.4759 116.246 37.2992L115.826 37.9797C116.111 38.1558 116.396 38.333 116.681 38.5113L117.105 37.8329ZM115.389 36.7722C115.102 36.5972 114.816 36.4234 114.53 36.2507L114.116 36.9355C114.401 37.1075 114.686 37.2806 114.972 37.4549L115.389 36.7722ZM113.663 35.7298C113.374 35.5573 113.085 35.386 112.797 35.2158L112.39 35.9046C112.677 36.0741 112.965 36.2448 113.253 36.4166L113.663 35.7298ZM111.931 34.7072C111.639 34.5366 111.347 34.3672 111.056 34.1989L110.656 34.8917C110.946 35.0593 111.237 35.2281 111.528 35.398L111.931 34.7072ZM110.184 33.6978C109.892 33.5312 109.601 33.3658 109.31 33.2016L108.917 33.8981C109.206 34.0617 109.496 34.2265 109.787 34.3924L110.184 33.6978ZM108.428 32.7058C108.134 32.5418 107.841 32.379 107.549 32.2175L107.162 32.9177C107.453 33.0786 107.745 33.2408 108.038 33.4042L108.428 32.7058ZM106.668 31.733C106.371 31.5707 106.074 31.4096 105.779 31.2499L105.398 31.9536C105.693 32.1128 105.988 32.2732 106.284 32.4349L106.668 31.733ZM104.895 30.7744C104.597 30.6152 104.3 30.4574 104.005 30.3009L103.63 31.008C103.925 31.164 104.221 31.3212 104.517 31.4798L104.895 30.7744ZM103.111 29.8304C102.813 29.6749 102.517 29.5208 102.222 29.3679L101.854 30.0784C102.148 30.2307 102.444 30.3843 102.74 30.5392L103.111 29.8304ZM101.322 28.9047C101.022 28.7508 100.722 28.5983 100.424 28.4472L100.063 29.1609C100.36 29.3115 100.658 29.4634 100.958 29.6168L101.322 28.9047ZM99.5307 27.9971C99.2266 27.8447 98.9237 27.6938 98.6221 27.5443L98.2668 28.2611C98.5674 28.4101 98.8692 28.5605 99.1723 28.7123L99.5307 27.9971ZM97.7212 27.1002C97.4182 26.9516 97.1165 26.8045 96.8162 26.6589L96.4672 27.3788C96.7664 27.5239 97.067 27.6705 97.3691 27.8185L97.7212 27.1002ZM95.9055 26.2197C95.6034 26.0748 95.3029 25.9315 95.004 25.7897L94.6611 26.5124C94.959 26.6538 95.2585 26.7966 95.5595 26.941L95.9055 26.2197ZM94.0854 25.3563C93.7801 25.213 93.4766 25.0714 93.1749 24.9314L92.8382 25.6571C93.1388 25.7966 93.4413 25.9378 93.7456 26.0805L94.0854 25.3563ZM92.261 24.5097C91.9522 24.368 91.6456 24.2281 91.3411 24.09L91.0105 24.8185C91.314 24.9562 91.6196 25.0956 91.9273 25.2368L92.261 24.5097ZM90.4316 23.6796C90.1194 23.5395 89.8095 23.4013 89.5022 23.265L89.1778 23.9963C89.4841 24.1321 89.7929 24.2699 90.1041 24.4095L90.4316 23.6796ZM88.5877 22.8617C88.2749 22.7245 87.9649 22.5894 87.6577 22.4562L87.3396 23.1903C87.6457 23.3229 87.9547 23.4576 88.2664 23.5943L88.5877 22.8617ZM86.7363 22.0592C86.4232 21.9251 86.1133 21.7932 85.8067 21.6634L85.4949 22.4001C85.8004 22.5294 86.1093 22.6609 86.4213 22.7946L86.7363 22.0592ZM84.8794 21.2732C84.5653 21.1419 84.255 21.0129 83.9484 20.8863L83.643 21.6257C83.9484 21.7518 84.2578 21.8804 84.5708 22.0113L84.8794 21.2732ZM83.0171 20.5039C82.7009 20.3749 82.3891 20.2486 82.082 20.1249L81.7831 20.8669C82.0892 20.9902 82.3998 21.1161 82.7149 21.2447L83.0171 20.5039ZM81.1499 19.7518C80.8302 19.6247 80.516 19.5007 80.2075 19.3797L79.9154 20.1244C80.2228 20.245 80.5358 20.3686 80.8543 20.4952L81.1499 19.7518ZM79.28 19.0183C78.9553 18.8927 78.6377 18.7707 78.3273 18.6523L78.0423 19.3998C78.3514 19.5177 78.6679 19.6392 78.9913 19.7644L79.28 19.0183ZM77.3898 18.2973C77.0671 18.1761 76.7534 18.0592 76.4489 17.9465L76.1713 18.6968C76.4745 18.809 76.787 18.9255 77.1084 19.0462L77.3898 18.2973ZM75.4942 17.5962C75.1652 17.4764 74.8489 17.3624 74.5461 17.2542L74.2767 18.0075C74.5782 18.1152 74.893 18.2287 75.2207 18.3479L75.4942 17.5962ZM73.5995 16.919C73.2608 16.8002 72.9434 16.6902 72.6482 16.5889L72.3885 17.3456C72.6821 17.4463 72.9978 17.5558 73.3348 17.6739L73.5995 16.919ZM71.687 16.2633C71.5221 16.2082 71.3681 16.1571 71.2252 16.1101L70.9752 16.87C71.1168 16.9167 71.2697 16.9673 71.4334 17.0221L71.687 16.2633ZM71.2289 16.1114L70.9011 16L70.6437 16.7574L70.9715 16.8688L71.2289 16.1114ZM70.5617 15.8848L70.1246 15.7512L69.8907 16.5162L70.3277 16.6498L70.5617 15.8848ZM69.4486 15.6191L69.0662 15.7416L69.3103 16.5034L69.6927 16.3809L69.4486 15.6191ZM68.3014 15.9866L67.919 16.1092L68.1631 16.871L68.5455 16.7485L68.3014 15.9866ZM67.916 16.1101C67.7732 16.1571 67.6192 16.2082 67.4543 16.2633L67.7078 17.0221C67.8716 16.9673 68.0244 16.9167 68.1661 16.87L67.916 16.1101ZM66.4931 16.5889C66.1979 16.6902 65.8804 16.8002 65.5417 16.919L65.8064 17.6739C66.1434 17.5558 66.4592 17.4463 66.7527 17.3456L66.4931 16.5889ZM64.5952 17.2542C64.2923 17.3624 63.9761 17.4764 63.647 17.5962L63.9206 18.3479C64.2482 18.2287 64.563 18.1152 64.8645 18.0075L64.5952 17.2542ZM62.6923 17.9465C62.3879 18.0592 62.0741 18.1761 61.7515 18.2973L62.0329 19.0462C62.3543 18.9255 62.6667 18.809 62.9699 18.6968L62.6923 17.9465ZM60.8139 18.6523C60.5035 18.7707 60.1859 18.8927 59.8613 19.0183L60.15 19.7644C60.4734 19.6392 60.7898 19.5177 61.099 19.3998L60.8139 18.6523ZM58.9337 19.3797C58.6252 19.5007 58.311 19.6247 57.9914 19.7518L58.287 20.4952C58.6055 20.3686 58.9185 20.245 59.2258 20.1244L58.9337 19.3797ZM57.0593 20.1249C56.7521 20.2486 56.4404 20.3749 56.1242 20.5039L56.4264 21.2447C56.7415 21.1161 57.0521 20.9902 57.3582 20.8669L57.0593 20.1249ZM55.1928 20.8863C54.8863 21.0129 54.5759 21.1419 54.2618 21.2732L54.5705 22.0113C54.8835 21.8804 55.1928 21.7518 55.4983 21.6257L55.1928 20.8863ZM53.3345 21.6634C53.0279 21.7932 52.718 21.9251 52.405 22.0592L52.72 22.7946C53.032 22.6609 53.3408 22.5294 53.6464 22.4001L53.3345 21.6634ZM51.4836 22.4562C51.1764 22.5894 50.8663 22.7245 50.5535 22.8617L50.8748 23.5943C51.1866 23.4576 51.4956 23.3229 51.8017 23.1903L51.4836 22.4562ZM49.6391 23.265C49.3317 23.4013 49.0219 23.5395 48.7096 23.6796L49.0371 24.4095C49.3483 24.2699 49.6571 24.1321 49.9634 23.9963L49.6391 23.265ZM47.8002 24.09C47.4957 24.2281 47.189 24.368 46.8803 24.5097L47.2139 25.2368C47.5216 25.0956 47.8273 24.9562 48.1307 24.8185L47.8002 24.09ZM45.9664 24.9314C45.6647 25.0714 45.3612 25.213 45.0558 25.3563L45.3956 26.0805C45.6999 25.9378 46.0024 25.7966 46.3031 25.6571L45.9664 24.9314ZM44.1373 25.7897C43.8384 25.9315 43.5379 26.0748 43.2358 26.2197L43.5818 26.941C43.8828 26.7966 44.1823 26.6538 44.4802 26.5124L44.1373 25.7897ZM42.325 26.6589C42.0248 26.8045 41.7231 26.9516 41.42 27.1002L41.7722 27.8185C42.0742 27.6705 42.3749 27.5239 42.6741 27.3788L42.325 26.6589ZM40.5192 27.5443C40.2176 27.6938 39.9147 27.8447 39.6106 27.9971L39.969 28.7123C40.2721 28.5605 40.5739 28.4101 40.8745 28.2611L40.5192 27.5443ZM38.7171 28.4472C38.4188 28.5983 38.1194 28.7508 37.8189 28.9047L38.1836 29.6168C38.483 29.4634 38.7814 29.3115 39.0786 29.1609L38.7171 28.4472ZM36.9192 29.3679C36.624 29.5208 36.3278 29.6749 36.0307 29.8304L36.4017 30.5392C36.6977 30.3843 36.9929 30.2307 37.287 30.0784L36.9192 29.3679ZM35.1367 30.3009C34.8408 30.4574 34.5441 30.6152 34.2466 30.7744L34.6239 31.4798C34.9204 31.3212 35.216 31.164 35.5108 31.008L35.1367 30.3009ZM33.3624 31.2498C33.0669 31.4096 32.7707 31.5707 32.4738 31.733L32.8575 32.4349C33.1533 32.2732 33.4485 32.1128 33.7429 31.9536L33.3624 31.2498ZM31.5923 32.2175C31.3 32.379 31.007 32.5418 30.7135 32.7058L31.1037 33.4042C31.3961 33.2408 31.688 33.0786 31.9792 32.9177L31.5923 32.2175ZM29.8312 33.2016C29.5405 33.3658 29.2493 33.5312 28.9577 33.6978L29.3545 34.3924C29.645 34.2265 29.9351 34.0617 30.2247 33.8981L29.8312 33.2016ZM28.0852 34.1989C27.7939 34.3672 27.5021 34.5366 27.21 34.7072L27.6134 35.398C27.9045 35.2281 28.1951 35.0593 28.4853 34.8917L28.0852 34.1989ZM26.344 35.2158C26.0559 35.3859 25.7674 35.5573 25.4786 35.7298L25.8888 36.4166C26.1764 36.2448 26.4638 36.0741 26.7509 35.9046L26.344 35.2158ZM24.6112 36.2507C24.3253 36.4234 24.0391 36.5972 23.7527 36.7722L24.1697 37.4549C24.455 37.2806 24.74 37.1075 25.0248 36.9355L24.6112 36.2507ZM22.8949 37.2992C22.6087 37.4759 22.3224 37.6539 22.0359 37.8329L22.4599 38.5113C22.7452 38.333 23.0304 38.1558 23.3154 37.9797L22.8949 37.2992ZM21.185 38.3678C20.9019 38.5467 20.6187 38.7268 20.3354 38.9079L20.7664 39.5819C21.0485 39.4015 21.3305 39.2222 21.6124 39.044L21.185 38.3678ZM19.4854 39.4547C19.2044 39.6366 18.9233 39.8195 18.6422 40.0035L19.0804 40.6728C19.3603 40.4896 19.6401 40.3075 19.92 40.1264L19.4854 39.4547ZM17.8015 40.5571C17.5213 40.7427 17.2411 40.9294 16.9609 41.1172L17.4064 41.7817C17.6853 41.5947 17.9643 41.4088 18.2433 41.224L17.8015 40.5571ZM16.126 41.6802C15.8488 41.8682 15.5717 42.0573 15.2947 42.2475L15.7475 42.907C16.0233 42.7177 16.2992 42.5294 16.5752 42.3422L16.126 41.6802ZM14.4641 42.8213C14.1886 43.0128 13.9132 43.2053 13.6381 43.3989L14.0984 44.0532C14.3723 43.8605 14.6464 43.6688 14.9207 43.4782L14.4641 42.8213ZM12.8167 43.9803C12.5431 44.1752 12.2697 44.3711 11.9966 44.5681L12.4645 45.217C12.7364 45.0209 13.0085 44.8259 13.2808 44.632L12.8167 43.9803ZM11.1801 45.1607C10.9095 45.3583 10.6392 45.5569 10.3692 45.7566L10.8449 46.3998C11.1136 46.2011 11.3826 46.0034 11.6519 45.8067L11.1801 45.1607ZM9.56017 46.3588C9.29109 46.5603 9.02236 46.7629 8.754 46.9666L9.2376 47.6039C9.50463 47.4012 9.77204 47.1996 10.0398 46.9991L9.56017 46.3588ZM7.95429 47.5774C7.6881 47.782 7.42231 47.9877 7.15695 48.1944L7.64857 48.8255C7.91258 48.6199 8.17702 48.4153 8.44187 48.2116L7.95429 47.5774ZM6.36218 48.8176C6.09903 49.0254 5.83633 49.2341 5.57412 49.4439L6.07389 50.0686C6.33474 49.8599 6.59607 49.6522 6.85786 49.4456L6.36218 48.8176ZM4.78914 50.0762C4.52799 50.288 4.26735 50.5008 4.00725 50.7146L4.51532 51.3326C4.77402 51.1199 5.03327 50.9082 5.29305 50.6975L4.78914 50.0762ZM3.23106 51.3572C2.97318 51.5722 2.71588 51.7882 2.45917 52.0052L2.97566 52.6162C3.23095 52.4003 3.48685 52.1855 3.74333 51.9717L3.23106 51.3572ZM1.69088 52.6594C1.56314 52.7689 1.43556 52.8787 1.30814 52.9888L1.83105 53.5942C1.95775 53.4848 2.08462 53.3756 2.21164 53.2667L1.69088 52.6594ZM1.30832 52.9886L1.02426 53.2336L1.5468 53.8394L1.83087 53.5944L1.30832 52.9886ZM0.607326 53.8498L0.67288 54.2285L1.46116 54.0921L1.3956 53.7133L0.607326 53.8498ZM0.744084 54.6343C0.742833 54.6292 0.742052 54.6255 0.741905 54.6248C0.741655 54.6236 0.74155 54.6231 0.74163 54.6235C0.741796 54.6243 0.742205 54.6264 0.74294 54.6303C0.744392 54.638 0.746459 54.6493 0.749274 54.6648L1.53643 54.522C1.5325 54.5004 1.52607 54.4641 1.52106 54.4437L0.744084 54.6343ZM0.759052 54.719C0.776885 54.8179 0.806622 54.9828 0.849189 55.2096L1.63545 55.062C1.59343 54.8381 1.5641 54.6754 1.54636 54.577L0.759052 54.719ZM1.04017 56.1899C1.09894 56.482 1.16691 56.812 1.24463 57.1779L2.02718 57.0117C1.95007 56.6487 1.88267 56.3214 1.82444 56.0321L1.04017 56.1899ZM1.45677 58.1542C1.52544 58.4633 1.59953 58.7908 1.67926 59.1357L2.45871 58.9555C2.37951 58.6129 2.30592 58.2877 2.23774 57.9807L1.45677 58.1542ZM1.90985 60.1151C1.98501 60.4287 2.06421 60.754 2.1476 61.0905L2.92411 60.8981C2.84123 60.5636 2.76251 60.2403 2.68782 59.9287L1.90985 60.1151ZM2.39214 62.0619C2.47254 62.3764 2.55627 62.6993 2.64342 63.0302L3.41705 62.8265C3.3304 62.4974 3.24715 62.1764 3.16721 61.8637L2.39214 62.0619ZM2.90149 63.9966C2.98691 64.312 3.07522 64.6339 3.1665 64.962L3.93723 64.7476C3.84645 64.4213 3.75862 64.1012 3.67368 63.7875L2.90149 63.9966ZM3.43858 65.9274C3.52903 66.2442 3.62211 66.5662 3.71787 66.8933L4.48564 66.6685C4.39039 66.3432 4.29781 66.0229 4.20784 65.7078L3.43858 65.9274ZM4.00286 67.8549C4.09716 68.1693 4.19383 68.4878 4.29292 68.8105L5.05767 68.5756C4.95909 68.2547 4.86293 67.9378 4.76913 67.6251L4.00286 67.8549ZM4.59047 69.7681C4.68992 70.0846 4.79162 70.4046 4.89562 70.7281L5.65723 70.4832C5.55377 70.1614 5.45259 69.843 5.35366 69.5283L4.59047 69.7681ZM5.204 71.6768C5.30717 71.9907 5.41246 72.3077 5.51988 72.6276L6.27826 72.3729C6.17139 72.0547 6.06665 71.7394 5.96401 71.427L5.204 71.6768ZM5.84367 73.5816C5.95055 73.8931 6.05941 74.2072 6.17029 74.5237L6.92531 74.2593C6.81501 73.9444 6.70671 73.6319 6.60038 73.322L5.84367 73.5816ZM6.50497 75.4694C6.61675 75.782 6.73047 76.0968 6.84614 76.4138L7.59767 76.1396C7.48259 75.8242 7.36946 75.511 7.25826 75.2L6.50497 75.4694ZM7.19175 77.3514C7.30787 77.6634 7.42588 77.9772 7.54578 78.2929L8.29366 78.0089C8.17439 77.6948 8.057 77.3826 7.94147 77.0723L7.19175 77.3514ZM7.90364 79.226C8.0236 79.5358 8.14537 79.8472 8.26897 80.1602L9.01305 79.8663C8.89011 79.555 8.76898 79.2452 8.64965 78.9371L7.90364 79.226ZM8.64046 81.0919C8.7643 81.3995 8.88989 81.7085 9.01725 82.019L9.75737 81.7153C9.63069 81.4065 9.50576 81.0991 9.38258 80.7931L8.64046 81.0919ZM9.40213 82.9481C9.52991 83.2536 9.6594 83.5604 9.79061 83.8683L10.5266 83.5547C10.3961 83.2484 10.2673 82.9433 10.1402 82.6394L9.40213 82.9481ZM10.1881 84.7923C10.3201 85.0963 10.4537 85.4014 10.5891 85.7074L11.3207 85.3838C11.1861 85.0794 11.0532 84.776 10.9219 84.4737L10.1881 84.7923ZM10.9986 86.6247C11.135 86.9275 11.2731 87.2311 11.4129 87.5356L12.1399 87.2019C12.001 86.8991 11.8637 86.5971 11.728 86.2961L10.9986 86.6247ZM11.8347 88.4462C11.9755 88.7475 12.118 89.0494 12.2621 89.3521L12.9844 89.0082C12.8411 88.7073 12.6994 88.407 12.5594 88.1075L11.8347 88.4462ZM12.6964 90.2562C12.8417 90.5557 12.9885 90.8558 13.137 91.1565L13.8543 90.8023C13.7067 90.5033 13.5607 90.2049 13.4163 89.9072L12.6964 90.2562ZM13.3611 91.6084C13.4365 91.7592 13.5121 91.9097 13.5879 92.06L14.3022 91.6996C14.2268 91.5502 14.1516 91.4005 14.0767 91.2506L13.3611 91.6084ZM14.046 92.9596C14.2 93.2593 14.3548 93.5581 14.5105 93.8557L15.2194 93.4849C15.0646 93.189 14.9107 92.892 14.7575 92.594L14.046 92.9596ZM14.9818 94.7485C15.1403 95.0461 15.2997 95.3427 15.4599 95.6381L16.1632 95.2568C16.0039 94.9631 15.8455 94.6683 15.6879 94.3724L14.9818 94.7485ZM15.9447 96.524C16.1076 96.8192 16.2714 97.1132 16.4361 97.4062L17.1335 97.0142C16.9698 96.723 16.807 96.4307 16.645 96.1374L15.9447 96.524ZM16.9343 98.2845C17.1017 98.577 17.27 98.8685 17.4391 99.1588L18.1304 98.7561C17.9623 98.4676 17.795 98.1779 17.6286 97.8871L16.9343 98.2845ZM17.9508 100.029C18.1227 100.319 18.2956 100.608 18.4693 100.896L19.1541 100.482C18.9815 100.196 18.8098 99.9092 18.6388 99.6211L17.9508 100.029ZM18.9948 101.758C19.1714 102.046 19.3489 102.332 19.5272 102.617L20.2054 102.192C20.0282 101.909 19.8518 101.625 19.6764 101.339L18.9948 101.758ZM20.0665 103.471C20.2477 103.755 20.4297 104.038 20.6126 104.32L21.2838 103.885C21.1021 103.605 20.9212 103.323 20.7412 103.041L20.0665 103.471ZM21.1657 105.165C21.3515 105.446 21.5381 105.727 21.7257 106.006L22.3896 105.559C22.2033 105.282 22.0178 105.004 21.8332 104.724L21.1657 105.165ZM22.2926 106.841C22.483 107.119 22.6744 107.396 22.8665 107.672L23.5229 107.215C23.332 106.941 23.1419 106.666 22.9527 106.389L22.2926 106.841ZM23.4477 108.499C23.6429 108.774 23.839 109.047 24.0359 109.32L24.6843 108.851C24.4887 108.581 24.294 108.309 24.1001 108.036L23.4477 108.499ZM24.6311 110.136C24.831 110.408 25.0317 110.678 25.2333 110.947L25.8736 110.467C25.6733 110.2 25.474 109.932 25.2754 109.662L24.6311 110.136ZM25.8427 111.753C26.0472 112.021 26.2527 112.288 26.459 112.553L27.0907 112.062C26.8858 111.799 26.6818 111.534 26.4786 111.268L25.8427 111.753ZM27.0825 113.348C27.2918 113.613 27.502 113.876 27.713 114.137L28.3358 113.635C28.1263 113.375 27.9176 113.114 27.7097 112.852L27.0825 113.348ZM28.3507 114.921C28.5647 115.182 28.7797 115.441 28.9955 115.699L29.609 115.185C29.3948 114.929 29.1814 114.672 28.9689 114.413L28.3507 114.921ZM29.6474 116.471C29.8663 116.727 30.086 116.983 30.3066 117.236L30.9105 116.712C30.6915 116.46 30.4734 116.206 30.2562 115.952L29.6474 116.471ZM30.9728 117.996C31.1964 118.249 31.4209 118.5 31.6462 118.75L32.2402 118.214C32.0165 117.966 31.7938 117.717 31.5718 117.466L30.9728 117.996ZM32.3267 119.497C32.555 119.745 32.7842 119.992 33.0142 120.237L33.5979 119.69C33.3696 119.447 33.1421 119.202 32.9155 118.955L32.3267 119.497ZM33.7089 120.971C33.8252 121.093 33.9418 121.214 34.0586 121.335L34.6343 120.78C34.5184 120.66 34.4027 120.539 34.2872 120.419L33.7089 120.971ZM34.059 121.336C34.1748 121.455 34.2907 121.575 34.4069 121.694L34.9789 121.134C34.8637 121.016 34.7487 120.898 34.6339 120.78L34.059 121.336ZM35.1072 122.403C35.3421 122.638 35.578 122.872 35.8148 123.105L36.3753 122.534C36.1405 122.303 35.9065 122.071 35.6735 121.837L35.1072 122.403ZM36.5298 123.8C36.7696 124.03 37.0102 124.259 37.2518 124.487L37.8004 123.905C37.5609 123.679 37.3222 123.452 37.0844 123.223L36.5298 123.8ZM37.9807 125.167C38.2252 125.392 38.4705 125.616 38.7168 125.839L39.2531 125.245C39.009 125.025 38.7657 124.802 38.5233 124.579L37.9807 125.167ZM39.4601 126.504C39.7093 126.724 39.9594 126.943 40.2104 127.16L40.7341 126.556C40.4852 126.34 40.2373 126.123 39.9902 125.904L39.4601 126.504ZM40.9674 127.809C41.2211 128.024 41.4757 128.237 41.7312 128.449L42.2419 127.834C41.9886 127.623 41.7362 127.412 41.4846 127.199L40.9674 127.809ZM42.5022 129.082C42.7605 129.291 43.0197 129.499 43.2799 129.706L43.7772 129.079C43.5193 128.875 43.2623 128.668 43.0062 128.461L42.5022 129.082ZM44.0642 130.321C44.3269 130.525 44.5906 130.728 44.8551 130.928L45.3387 130.291C45.0765 130.092 44.8151 129.892 44.5547 129.69L44.0642 130.321ZM45.6526 131.527C45.9198 131.725 46.1879 131.922 46.4569 132.117L46.9264 131.469C46.6598 131.276 46.3941 131.081 46.1292 130.884L45.6526 131.527ZM47.2674 132.697C47.5389 132.89 47.8112 133.08 48.0843 133.269L48.5394 132.611C48.2687 132.424 47.9988 132.235 47.7298 132.044L47.2674 132.697ZM48.9074 133.832C49.1831 134.018 49.4596 134.202 49.737 134.385L50.1773 133.717C49.9024 133.536 49.6284 133.353 49.3552 133.169L48.9074 133.832ZM50.5726 134.93C50.8523 135.11 51.1328 135.288 51.4142 135.465L51.8395 134.787C51.5607 134.612 51.2826 134.435 51.0055 134.257L50.5726 134.93ZM52.2617 135.99C52.5453 136.164 52.8297 136.336 53.1151 136.506L53.5251 135.819C53.2423 135.65 52.9604 135.48 52.6794 135.308L52.2617 135.99ZM53.9743 137.012C54.2617 137.179 54.55 137.345 54.8391 137.509L55.2336 136.813C54.9471 136.65 54.6614 136.486 54.3765 136.321L53.9743 137.012ZM55.7095 137.995C56.0006 138.156 56.2925 138.315 56.5853 138.472L56.9639 137.768C56.6738 137.612 56.3845 137.454 56.096 137.295L55.7095 137.995ZM57.4665 138.939C57.7611 139.093 58.0566 139.246 58.3529 139.396L58.7154 138.683C58.4218 138.534 58.129 138.383 57.8371 138.23L57.4665 138.939ZM59.2444 139.843C59.5424 139.991 59.8413 140.136 60.1409 140.28L60.4872 139.559C60.1903 139.416 59.8942 139.272 59.5989 139.126L59.2444 139.843ZM61.0424 140.707C61.3436 140.847 61.6457 140.986 61.9486 141.123L62.2784 140.394C61.9783 140.258 61.679 140.121 61.3805 139.982L61.0424 140.707ZM62.8594 141.529C63.1637 141.663 63.4689 141.794 63.7748 141.925L64.0881 141.189C63.7849 141.06 63.4826 140.929 63.181 140.796L62.8594 141.529ZM64.6946 142.31C65.0019 142.437 65.3099 142.562 65.6188 142.685L65.9153 141.942C65.6093 141.82 65.304 141.696 64.9995 141.57L64.6946 142.31ZM66.547 143.049C66.8569 143.169 67.1677 143.287 67.4792 143.403L67.759 142.654C67.4503 142.539 67.1423 142.422 66.8352 142.303L66.547 143.049ZM67.9493 143.577L68.3208 143.711L68.5916 142.958L68.2202 142.825L67.9493 143.577ZM68.6923 143.845L69.0637 143.978L69.3346 143.226L68.9631 143.092L68.6923 143.845ZM69.718 144.107L70.1114 143.951L69.8165 143.208L69.4232 143.364L69.718 144.107ZM70.4927 143.8L70.8642 143.666L70.5933 142.914L70.2218 143.047L70.4927 143.8ZM71.238 143.532C71.3941 143.475 71.55 143.417 71.7057 143.359L71.426 142.609C71.2717 142.667 71.1171 142.724 70.9624 142.781L71.238 143.532ZM72.6379 143.005C72.9481 142.885 73.2575 142.763 73.566 142.64L73.2694 141.897C72.9636 142.019 72.657 142.14 72.3497 142.259L72.6379 143.005ZM74.4901 142.265C74.7975 142.138 75.104 142.01 75.4098 141.88L75.0963 141.144C74.7934 141.273 74.4896 141.4 74.185 141.526L74.4901 142.265ZM76.325 141.484C76.6294 141.35 76.9329 141.215 77.2357 141.077L76.9055 140.349C76.6056 140.485 76.3048 140.619 76.0032 140.751L76.325 141.484ZM78.1417 140.661C78.4429 140.52 78.7433 140.378 79.0429 140.234L78.6963 139.513C78.3994 139.656 78.1018 139.797 77.8033 139.936L78.1417 140.661ZM79.9391 139.797C80.2371 139.649 80.5341 139.5 80.8304 139.349L80.4675 138.636C80.1739 138.786 79.8796 138.934 79.5844 139.08L79.9391 139.797ZM81.7165 138.892C82.011 138.738 82.3046 138.582 82.5974 138.424L82.2183 137.72C81.9282 137.876 81.6373 138.03 81.3455 138.183L81.7165 138.892ZM83.4728 137.947C83.7637 137.786 84.0537 137.624 84.3428 137.46L83.948 136.764C83.6614 136.927 83.3741 137.088 83.0858 137.247L83.4728 137.947ZM85.2073 136.963C85.4944 136.795 85.7807 136.626 86.0661 136.456L85.6557 135.769C85.3728 135.938 85.0891 136.106 84.8046 136.271L85.2073 136.963ZM86.9191 135.939C87.2023 135.766 87.4847 135.59 87.7662 135.414L87.3404 134.736C87.0615 134.912 86.7816 135.085 86.501 135.257L86.9191 135.939ZM88.6074 134.878C88.8867 134.698 89.1651 134.517 89.4426 134.333L89.0019 133.666C88.7268 133.847 88.4509 134.027 88.1741 134.206L88.6074 134.878ZM90.2718 133.779C90.5469 133.593 90.8211 133.406 91.0945 133.216L90.6391 132.559C90.3681 132.746 90.0963 132.932 89.8237 133.117L90.2718 133.779ZM91.911 132.644C92.182 132.452 92.4521 132.258 92.7213 132.063L92.2516 131.416C91.9847 131.609 91.717 131.801 91.4484 131.992L91.911 132.644ZM93.5253 131.473C93.7919 131.275 94.0577 131.076 94.3226 130.875L93.8389 130.238C93.5763 130.437 93.3128 130.635 93.0485 130.831L93.5253 131.473ZM95.1133 130.268C95.3755 130.064 95.6369 129.859 95.8974 129.652L95.4001 129.026C95.1418 129.23 94.8827 129.434 94.6227 129.636L95.1133 130.268ZM96.6751 129.028C96.933 128.819 97.19 128.608 97.4461 128.396L96.9355 127.78C96.6816 127.99 96.4268 128.199 96.1711 128.407L96.6751 129.028ZM98.21 127.756C98.4633 127.541 98.7157 127.325 98.9672 127.108L98.4438 126.503C98.1944 126.718 97.9441 126.933 97.6929 127.145L98.21 127.756ZM99.7177 126.451C99.9665 126.232 100.214 126.01 100.462 125.787L99.9256 125.193C99.6806 125.414 99.4347 125.634 99.188 125.852L99.7177 126.451ZM101.198 125.116C101.442 124.891 101.685 124.665 101.928 124.437L101.38 123.854C101.139 124.08 100.898 124.305 100.656 124.527L101.198 125.116ZM102.65 123.751C102.89 123.521 103.129 123.29 103.366 123.057L102.807 122.485C102.571 122.716 102.334 122.946 102.097 123.173L102.65 123.751ZM104.075 122.356C104.31 122.122 104.544 121.886 104.777 121.649L104.206 121.088C103.975 121.324 103.743 121.558 103.51 121.79L104.075 122.356ZM105.126 121.292C105.243 121.171 105.36 121.05 105.476 120.928L104.899 120.374C104.784 120.495 104.668 120.615 104.551 120.735L105.126 121.292ZM106.173 120.196C106.403 119.951 106.633 119.705 106.862 119.457L106.274 118.914C106.047 119.16 105.819 119.405 105.59 119.648L106.173 120.196ZM107.544 118.711C107.77 118.461 107.994 118.21 108.218 117.958L107.62 117.427C107.398 117.677 107.175 117.926 106.951 118.174L107.544 118.711ZM108.886 117.199C109.106 116.945 109.326 116.69 109.546 116.433L108.937 115.914C108.72 116.168 108.501 116.422 108.282 116.674L108.886 117.199ZM110.198 115.662C110.414 115.404 110.629 115.145 110.843 114.884L110.225 114.376C110.013 114.635 109.799 114.892 109.585 115.148L110.198 115.662ZM111.481 114.101C111.692 113.839 111.903 113.576 112.112 113.311L111.485 112.815C111.277 113.077 111.068 113.339 110.859 113.598L111.481 114.101ZM112.735 112.516C112.942 112.251 113.147 111.984 113.352 111.716L112.716 111.231C112.512 111.497 112.308 111.762 112.104 112.026L112.735 112.516ZM113.961 110.91C114.162 110.641 114.363 110.37 114.563 110.098L113.918 109.625C113.72 109.895 113.521 110.163 113.32 110.43L113.961 110.91ZM115.158 109.282C115.354 109.009 115.55 108.735 115.745 108.46L115.093 107.997C114.899 108.271 114.704 108.543 114.509 108.814L115.158 109.282ZM116.326 107.633C116.518 107.357 116.709 107.08 116.9 106.802L116.239 106.35C116.05 106.627 115.86 106.902 115.669 107.176L116.326 107.633ZM117.466 105.966C117.653 105.687 117.84 105.406 118.025 105.125L117.357 104.685C117.173 104.964 116.988 105.243 116.802 105.52L117.466 105.966ZM118.578 104.279C118.761 103.997 118.942 103.714 119.123 103.429L118.448 103C118.269 103.283 118.088 103.564 117.906 103.845L118.578 104.279ZM119.662 102.575C119.84 102.29 120.017 102.004 120.194 101.716L119.512 101.298C119.337 101.583 119.161 101.868 118.984 102.151L119.662 102.575ZM120.719 100.853C120.892 100.565 121.065 100.277 121.237 99.9865L120.549 99.5788C120.378 99.8671 120.206 100.154 120.034 100.44L120.719 100.853ZM121.748 99.1158C121.917 98.8253 122.085 98.5338 122.252 98.2411L121.558 97.8441C121.392 98.135 121.225 98.4248 121.057 98.7135L121.748 99.1158ZM122.75 97.3625C122.915 97.0695 123.078 96.7754 123.241 96.4802L122.541 96.0938C122.379 96.3872 122.216 96.6796 122.053 96.9709L122.75 97.3625ZM123.726 95.5941C123.886 95.2985 124.045 95.0019 124.204 94.7043L123.497 94.3284C123.34 94.6243 123.181 94.9191 123.022 95.2129L123.726 95.5941ZM124.675 93.8113C124.83 93.5136 124.985 93.2149 125.139 92.9151L124.427 92.5496C124.274 92.8477 124.12 93.1447 123.966 93.4407L124.675 93.8113ZM125.597 92.0154C125.673 91.8651 125.748 91.7146 125.824 91.5638L125.108 91.206C125.033 91.356 124.958 91.5057 124.883 91.6551L125.597 92.0154ZM125.824 91.5637C125.899 91.4126 125.974 91.2617 126.049 91.111L125.332 90.7562C125.258 90.906 125.183 91.0561 125.108 91.2062L125.824 91.5637ZM126.492 90.2082C126.639 89.9056 126.784 89.6036 126.928 89.3023L126.206 88.9578C126.063 89.2574 125.918 89.5577 125.772 89.8586L126.492 90.2082ZM127.358 88.3933C127.5 88.0885 127.641 87.7844 127.781 87.4812L127.054 87.147C126.915 87.4485 126.775 87.7508 126.633 88.0539L127.358 88.3933ZM128.198 86.5665C128.336 86.2595 128.473 85.9534 128.608 85.6483L127.877 85.3242C127.743 85.6276 127.606 85.9321 127.469 86.2374L128.198 86.5665ZM129.012 84.7286C129.147 84.4193 129.279 84.1112 129.411 83.8041L128.675 83.49C128.544 83.7954 128.412 84.1019 128.279 84.4095L129.012 84.7286ZM129.801 82.88C129.932 82.5685 130.061 82.2582 130.188 81.9492L129.448 81.6451C129.321 81.9524 129.193 82.2611 129.063 82.571L129.801 82.88ZM130.565 81.0217C130.692 80.7077 130.817 80.3952 130.939 80.0843L130.196 79.7901C130.073 80.0994 129.949 80.4102 129.823 80.7225L130.565 81.0217ZM131.305 79.1521C131.427 78.8363 131.548 78.5223 131.666 78.21L130.919 77.9257C130.801 78.2363 130.681 78.5487 130.559 78.8628L131.305 79.1521ZM132.02 77.2708C132.138 76.9543 132.254 76.6399 132.368 76.3275L131.617 76.0529C131.503 76.3637 131.388 76.6765 131.27 76.9913L132.02 77.2708ZM132.711 75.3808C132.824 75.0641 132.935 74.7498 133.045 74.4379L132.29 74.1731C132.181 74.4834 132.07 74.7961 131.957 75.1111L132.711 75.3808ZM133.376 73.4833C133.486 73.1639 133.593 72.8472 133.699 72.5333L132.941 72.2784C132.836 72.5906 132.729 72.9057 132.619 73.2234L133.376 73.4833ZM134.016 71.5802C134.122 71.2573 134.226 70.9376 134.328 70.6212L133.566 70.3763C133.465 70.691 133.362 71.009 133.256 71.3303L134.016 71.5802ZM134.632 69.6662C134.733 69.3425 134.833 69.0225 134.93 68.7064L134.165 68.4714C134.069 68.7858 133.97 69.1041 133.868 69.4262L134.632 69.6662ZM135.223 67.7412C135.321 67.4157 135.416 67.0949 135.508 66.7787L134.741 66.5539C134.648 66.8684 134.554 67.1876 134.457 67.5113L135.223 67.7412ZM135.786 65.8184C135.88 65.4885 135.971 65.1643 136.06 64.846L135.289 64.6317C135.201 64.9483 135.11 65.2707 135.017 65.5988L135.786 65.8184ZM136.326 63.874C136.416 63.5427 136.502 63.2187 136.586 62.9021L135.812 62.6987C135.729 63.0135 135.643 63.3357 135.554 63.6651L136.326 63.874ZM136.837 61.9293C136.923 61.5947 137.004 61.2697 137.082 60.9547L136.305 60.7629C136.228 61.076 136.147 61.3991 136.062 61.7317L136.837 61.9293ZM137.319 59.977C137.401 59.6357 137.477 59.3085 137.549 58.996L136.769 58.8171C136.698 59.1274 136.622 59.4524 136.541 59.7915L137.319 59.977ZM137.77 58.0134C137.847 57.6632 137.917 57.3372 137.98 57.0363L137.197 56.8725C137.134 57.1707 137.065 57.4941 136.988 57.8416L137.77 58.0134ZM138.182 56.0413C138.262 55.6321 138.323 55.3024 138.366 55.0581L137.578 54.9187C137.536 55.1577 137.476 55.4826 137.397 55.8873L138.182 56.0413ZM138.447 54.5627L138.512 54.184L137.724 54.0475L137.658 54.4262L138.447 54.5627ZM138.419 53.4137L138.113 53.1909L137.642 53.8376L137.948 54.0604L138.419 53.4137ZM122.705 90.0028C122.629 90.1535 122.554 90.3039 122.478 90.4541L123.192 90.8146C123.268 90.6636 123.344 90.5123 123.42 90.3607L122.705 90.0028ZM122.02 91.353C121.866 91.6525 121.711 91.951 121.556 92.2484L122.264 92.6195C122.421 92.3203 122.577 92.0201 122.732 91.7188L122.02 91.353ZM121.084 93.1403C120.926 93.4375 120.767 93.7337 120.606 94.0288L121.309 94.4105C121.471 94.1136 121.631 93.8157 121.79 93.5167L121.084 93.1403ZM120.121 94.9137C119.958 95.2085 119.795 95.5022 119.63 95.7947L120.327 96.1872C120.493 95.8929 120.658 95.5974 120.822 95.3008L120.121 94.9137ZM119.131 96.6718C118.964 96.964 118.796 97.2551 118.626 97.5449L119.317 97.9483C119.487 97.6566 119.657 97.3638 119.825 97.0698L119.131 96.6718ZM118.114 98.4139C117.942 98.7034 117.769 98.9916 117.595 99.2787L118.28 99.6931C118.454 99.4042 118.629 99.1141 118.802 98.8228L118.114 98.4139ZM117.069 100.139C116.893 100.426 116.715 100.711 116.536 100.995L117.214 101.421C117.393 101.135 117.572 100.848 117.75 100.559L117.069 100.139ZM115.996 101.847C115.815 102.131 115.632 102.413 115.449 102.695L116.119 103.131C116.304 102.848 116.487 102.564 116.67 102.278L115.996 101.847ZM114.895 103.537C114.709 103.818 114.521 104.097 114.333 104.375L114.996 104.823C115.185 104.543 115.374 104.262 115.561 103.98L114.895 103.537ZM113.765 105.208C113.574 105.485 113.382 105.761 113.189 106.036L113.844 106.496C114.038 106.219 114.231 105.941 114.424 105.662L113.765 105.208ZM112.606 106.859C112.411 107.133 112.214 107.405 112.016 107.676L112.663 108.147C112.862 107.874 113.06 107.6 113.257 107.324L112.606 106.859ZM111.419 108.488C111.218 108.759 111.016 109.028 110.814 109.295L111.452 109.778C111.656 109.508 111.859 109.238 112.061 108.965L111.419 108.488ZM110.202 110.096C109.996 110.363 109.79 110.628 109.583 110.891L110.211 111.386C110.42 111.12 110.628 110.853 110.835 110.585L110.202 110.096ZM108.956 111.681C108.745 111.944 108.534 112.205 108.321 112.465L108.941 112.971C109.155 112.709 109.368 112.446 109.58 112.181L108.956 111.681ZM107.68 113.242C107.464 113.501 107.248 113.758 107.03 114.013L107.64 114.531C107.859 114.274 108.077 114.015 108.294 113.754L107.68 113.242ZM106.374 114.778C106.153 115.032 105.932 115.285 105.71 115.536L106.309 116.066C106.533 115.813 106.756 115.558 106.978 115.302L106.374 114.778ZM105.038 116.288C104.813 116.538 104.586 116.786 104.359 117.033L104.947 117.575C105.176 117.326 105.405 117.076 105.632 116.824L105.038 116.288ZM103.672 117.77C103.442 118.015 103.21 118.259 102.978 118.501L103.555 119.055C103.789 118.811 104.023 118.565 104.255 118.318L103.672 117.77ZM102.629 118.863C102.513 118.983 102.396 119.102 102.279 119.221L102.85 119.781C102.968 119.661 103.085 119.541 103.203 119.421L102.629 118.863ZM101.575 119.93C101.339 120.166 101.102 120.4 100.864 120.633L101.423 121.205C101.663 120.97 101.902 120.734 102.14 120.497L101.575 119.93ZM100.145 121.328C99.9037 121.558 99.6617 121.787 99.4188 122.015L99.9657 122.599C100.211 122.369 100.455 122.138 100.698 121.906L100.145 121.328ZM98.6857 122.694C98.4399 122.92 98.1932 123.144 97.9456 123.366L98.4799 123.961C98.7297 123.737 98.9785 123.511 99.2264 123.284L98.6857 122.694ZM97.198 124.03C96.9473 124.25 96.6958 124.468 96.4433 124.685L96.9646 125.292C97.2193 125.073 97.4731 124.853 97.7259 124.631L97.198 124.03ZM95.6816 125.333C95.4263 125.547 95.1701 125.76 94.913 125.971L95.421 126.589C95.6803 126.376 95.9388 126.161 96.1963 125.945L95.6816 125.333ZM94.1376 126.602C93.8776 126.81 93.6167 127.018 93.3549 127.223L93.849 127.852C94.1131 127.645 94.3764 127.436 94.6387 127.225L94.1376 126.602ZM92.5653 127.836C92.3008 128.039 92.0354 128.241 91.7691 128.44L92.249 129.08C92.5177 128.879 92.7855 128.676 93.0524 128.471L92.5653 127.836ZM90.9662 129.035C90.6973 129.232 90.4274 129.427 90.1567 129.621L90.622 130.272C90.8952 130.076 91.1674 129.879 91.4388 129.681L90.9662 129.035ZM89.3403 130.197C89.0669 130.388 88.7927 130.577 88.5175 130.765L88.9677 131.426C89.2454 131.237 89.5222 131.046 89.7981 130.853L89.3403 130.197ZM87.6883 131.322C87.4107 131.507 87.1322 131.689 86.8528 131.87L87.2876 132.542C87.5696 132.359 87.8507 132.175 88.1309 131.989L87.6883 131.322ZM86.011 132.409C85.7292 132.586 85.4465 132.763 85.1629 132.937L85.5821 133.618C85.8683 133.442 86.1536 133.265 86.4381 133.085L86.011 132.409ZM84.3087 133.456C84.0229 133.627 83.7362 133.796 83.4486 133.964L83.8518 134.655C84.1421 134.486 84.4314 134.315 84.7199 134.142L84.3087 133.456ZM82.5827 134.463C82.293 134.627 82.0024 134.79 81.711 134.951L82.0978 135.651C82.392 135.489 82.6853 135.324 82.9777 135.158L82.5827 134.463ZM80.8335 135.429C80.54 135.587 80.2457 135.742 79.9505 135.897L80.3207 136.606C80.6187 136.45 80.9158 136.293 81.212 136.134L80.8335 135.429ZM79.062 136.354C78.765 136.504 78.467 136.653 78.1683 136.8L78.5216 137.518C78.8232 137.37 79.124 137.219 79.4238 137.067L79.062 136.354ZM77.2693 137.236C76.9688 137.38 76.6674 137.522 76.3652 137.662L76.7015 138.388C77.0066 138.246 77.3108 138.103 77.6141 137.958L77.2693 137.236ZM75.4561 138.076C75.1524 138.213 74.8478 138.347 74.5423 138.48L74.8614 139.214C75.1697 139.08 75.4772 138.944 75.7839 138.806L75.4561 138.076ZM73.6237 138.873C73.3168 139.003 73.0091 139.13 72.7005 139.256L73.0022 139.997C73.3137 139.87 73.6243 139.741 73.9341 139.611L73.6237 138.873ZM71.7728 139.627C71.4631 139.749 71.1524 139.869 70.841 139.987L71.1252 140.735C71.4396 140.616 71.7531 140.495 72.0658 140.371L71.7728 139.627ZM69.905 140.337C69.7486 140.394 69.592 140.451 69.4352 140.508L69.7062 141.26C69.8645 141.203 70.0225 141.146 70.1804 141.088L69.905 140.337ZM69.7062 140.508C69.5495 140.451 69.393 140.394 69.2367 140.337L68.9614 141.088C69.1191 141.146 69.2771 141.203 69.4352 141.26L69.7062 140.508ZM68.3011 139.988C67.9898 139.87 67.6793 139.75 67.3697 139.628L67.077 140.373C67.3895 140.495 67.7029 140.616 68.0171 140.736L68.3011 139.988ZM66.4423 139.257C66.1339 139.132 65.8262 139.005 65.5194 138.876L65.2095 139.613C65.5191 139.743 65.8297 139.872 66.141 139.998L66.4423 139.257ZM64.6011 138.483C64.2957 138.351 63.9911 138.217 63.6874 138.081L63.3603 138.811C63.6669 138.948 63.9743 139.084 64.2826 139.217L64.6011 138.483ZM62.7785 137.667C62.4763 137.527 62.175 137.386 61.8745 137.243L61.5304 137.965C61.8337 138.109 62.1379 138.252 62.4429 138.393L62.7785 137.667ZM60.9755 136.808C60.6767 136.661 60.3788 136.513 60.0818 136.363L59.7208 137.077C60.0207 137.228 60.3214 137.378 60.623 137.526L60.9755 136.808ZM59.1933 135.907C58.898 135.753 58.6037 135.598 58.3102 135.441L57.9325 136.146C58.2288 136.305 58.5259 136.461 58.824 136.616L59.1933 135.907ZM57.4326 134.964C57.1411 134.804 56.8504 134.641 56.5607 134.477L56.1666 135.174C56.4591 135.339 56.7525 135.503 57.0467 135.665L57.4326 134.964ZM55.6945 133.98C55.4069 133.813 55.1201 133.644 54.8342 133.473L54.424 134.16C54.7126 134.333 55.002 134.503 55.2924 134.672L55.6945 133.98ZM53.9798 132.956C53.6962 132.782 53.4134 132.607 53.1315 132.429L52.7054 133.106C52.9899 133.285 53.2753 133.463 53.5617 133.638L53.9798 132.956ZM52.2895 131.893C52.01 131.712 51.7314 131.53 51.4537 131.346L51.012 132.013C51.2923 132.199 51.5735 132.383 51.8556 132.565L52.2895 131.893ZM50.6242 130.79C50.349 130.603 50.0746 130.415 49.8011 130.224L49.3442 130.881C49.6202 131.073 49.8971 131.263 50.1749 131.452L50.6242 130.79ZM48.9845 129.649C48.7137 129.456 48.4438 129.261 48.1747 129.065L47.7029 129.711C47.9744 129.909 48.2468 130.106 48.5201 130.3L48.9845 129.649ZM47.3716 128.471C47.1052 128.272 46.8397 128.071 46.5752 127.869L46.0889 128.504C46.3558 128.708 46.6237 128.911 46.8925 129.112L47.3716 128.471ZM45.7854 127.257C45.5236 127.052 45.2626 126.845 45.0025 126.636L44.5021 127.261C44.7645 127.471 45.0278 127.68 45.292 127.887L45.7854 127.257ZM44.227 126.007C43.9698 125.797 43.7136 125.584 43.4583 125.37L42.9441 125.983C43.2017 126.199 43.4602 126.413 43.7196 126.626L44.227 126.007ZM42.6966 124.724C42.4441 124.507 42.1925 124.289 41.9418 124.069L41.4143 124.67C41.6672 124.892 41.921 125.112 42.1757 125.331L42.6966 124.724ZM41.1943 123.406C40.9467 123.184 40.7 122.961 40.4542 122.735L39.9138 123.325C40.1618 123.552 40.4106 123.778 40.6603 124.002L41.1943 123.406ZM39.7213 122.057C39.4784 121.83 39.2365 121.601 38.9955 121.37L38.4426 121.948C38.6857 122.181 38.9297 122.412 39.1746 122.641L39.7213 122.057ZM38.2768 120.676C38.0389 120.443 37.8019 120.21 37.5657 119.974L37.0008 120.541C37.2389 120.778 37.4779 121.014 37.7178 121.248L38.2768 120.676ZM36.8621 119.265C36.7454 119.146 36.6288 119.027 36.5125 118.907L35.9389 119.465C36.0562 119.586 36.1737 119.706 36.2914 119.826L36.8621 119.265ZM36.5128 118.908C36.3962 118.787 36.2798 118.667 36.1636 118.546L35.5865 119.1C35.7036 119.222 35.821 119.344 35.9386 119.465L36.5128 118.908ZM35.47 117.816C35.2404 117.572 35.0116 117.326 34.7838 117.079L34.1956 117.621C34.4253 117.871 34.6558 118.118 34.8873 118.364L35.47 117.816ZM34.105 116.336C33.8804 116.087 33.6566 115.837 33.4337 115.585L32.8348 116.116C33.0595 116.369 33.285 116.621 33.5115 116.872L34.105 116.336ZM32.7697 114.828C32.5499 114.575 32.3311 114.321 32.1131 114.065L31.504 114.583C31.7237 114.841 31.9442 115.098 32.1657 115.353L32.7697 114.828ZM31.4639 113.295C31.2491 113.037 31.0351 112.779 30.8221 112.519L30.2032 113.026C30.4178 113.288 30.6334 113.548 30.8498 113.808L31.4639 113.295ZM30.1876 111.736C29.9777 111.475 29.7687 111.212 29.5605 110.948L28.9322 111.444C29.1419 111.71 29.3524 111.974 29.5639 112.237L30.1876 111.736ZM28.9409 110.155C28.7359 109.889 28.5318 109.623 28.3286 109.355L27.6912 109.838C27.8959 110.108 28.1015 110.377 28.308 110.644L28.9409 110.155ZM27.7236 108.55C27.5234 108.281 27.3242 108.011 27.1259 107.739L26.4798 108.211C26.6796 108.485 26.8803 108.757 27.0818 109.027L27.7236 108.55ZM26.5354 106.923C26.3401 106.651 26.1457 106.377 25.9522 106.102L25.2979 106.562C25.4928 106.839 25.6885 107.115 25.8852 107.389L26.5354 106.923ZM25.3762 105.275C25.1857 105 24.9961 104.722 24.8074 104.444L24.1452 104.893C24.3352 105.173 24.5261 105.452 24.7179 105.73L25.3762 105.275ZM24.2458 103.608C24.06 103.328 23.8752 103.048 23.6912 102.766L23.0214 103.204C23.2066 103.487 23.3927 103.77 23.5797 104.051L24.2458 103.608ZM23.1438 101.92C22.9629 101.638 22.7828 101.355 22.6035 101.07L21.9265 101.496C22.1069 101.783 22.2882 102.068 22.4704 102.352L23.1438 101.92ZM22.0705 100.215C21.8943 99.9299 21.7189 99.6435 21.5444 99.3559L20.8605 99.7709C21.0361 100.06 21.2125 100.349 21.3899 100.636L22.0705 100.215ZM21.0254 98.4924C20.8538 98.2044 20.6831 97.9151 20.5133 97.6247L19.8227 98.0286C19.9936 98.3208 20.1654 98.6119 20.3381 98.9018L21.0254 98.4924ZM20.0081 96.7528C19.8411 96.462 19.675 96.1701 19.5097 95.8769L18.8128 96.2698C18.9791 96.5647 19.1463 96.8585 19.3143 97.1512L20.0081 96.7528ZM19.0183 94.997C18.8559 94.7036 18.6943 94.409 18.5336 94.1133L17.8307 94.4952C17.9924 94.7928 18.1549 95.0892 18.3183 95.3844L19.0183 94.997ZM18.0558 93.2258C17.898 92.93 17.741 92.6331 17.5849 92.3351L16.8762 92.7063C17.0333 93.0061 17.1912 93.3048 17.35 93.6024L18.0558 93.2258ZM17.1207 91.4407C16.9673 91.1424 16.8148 90.8431 16.6632 90.5427L15.949 90.9033C16.1016 91.2054 16.255 91.5065 16.4093 91.8065L17.1207 91.4407ZM16.4365 90.0918C16.3625 89.9438 16.2888 89.796 16.2155 89.6484L15.4989 90.004C15.5726 90.1525 15.6467 90.3012 15.7212 90.45L16.4365 90.0918ZM15.7808 88.7642C15.636 88.4671 15.4929 88.1706 15.3514 87.8748L14.6297 88.22C14.772 88.5175 14.916 88.8158 15.0616 89.1146L15.7808 88.7642ZM14.9303 86.9862C14.7896 86.6865 14.6505 86.3875 14.5131 86.0894L13.7865 86.4242C13.9247 86.7241 14.0646 87.0248 14.2062 87.3263L14.9303 86.9862ZM14.104 85.1936C13.9678 84.8924 13.8332 84.5921 13.7003 84.2928L12.9691 84.6174C13.1028 84.9184 13.2381 85.2204 13.3752 85.5233L14.104 85.1936ZM13.303 83.3895C13.1714 83.0873 13.0414 82.7861 12.9131 82.4861L12.1775 82.8006C12.3065 83.1023 12.4372 83.4051 12.5696 83.7091L13.303 83.3895ZM12.5274 81.5753C12.3997 81.271 12.2738 80.9678 12.1497 80.666L11.4098 80.9705C11.5347 81.2739 11.6613 81.5787 11.7897 81.8848L12.5274 81.5753ZM11.7772 79.752C11.6532 79.4449 11.5311 79.1392 11.4107 78.835L10.6668 79.1294C10.7879 79.4352 10.9107 79.7426 11.0353 80.0514L11.7772 79.752ZM11.052 77.9197C10.9319 77.6101 10.8136 77.3023 10.6972 76.9962L9.94944 77.2806C10.0665 77.5883 10.1854 77.8979 10.3062 78.2091L11.052 77.9197ZM10.3495 76.0728C10.2342 75.7636 10.1208 75.4563 10.0093 75.1511L9.25788 75.4255C9.36997 75.7324 9.48396 76.0414 9.59986 76.3523L10.3495 76.0728ZM9.67267 74.2198C9.56089 73.9074 9.45112 73.5973 9.34332 73.2896L8.58831 73.5541C8.69669 73.8634 8.80705 74.1752 8.91942 74.4893L9.67267 74.2198ZM9.02129 72.3606C8.91333 72.0458 8.80748 71.7337 8.7037 71.4245L7.94527 71.679C8.0496 71.9899 8.15602 72.3036 8.26456 72.6201L9.02129 72.3606ZM8.39243 70.4867C8.28883 70.1711 8.18745 69.8587 8.08824 69.5496L7.32651 69.794C7.42625 70.1048 7.52818 70.4189 7.63234 70.7362L8.39243 70.4867ZM7.79103 68.6128C7.691 68.2939 7.59336 67.9788 7.49807 67.6677L6.73315 67.902C6.82896 68.2148 6.92713 68.5316 7.0277 68.8523L7.79103 68.6128ZM7.21183 66.7219C7.11613 66.4018 7.02302 66.0863 6.93243 65.7756L6.16441 65.9996C6.2555 66.312 6.34913 66.6292 6.44535 66.951L7.21183 66.7219ZM6.65979 64.8286C6.56832 64.5067 6.47969 64.1905 6.39385 63.8802L5.62281 64.0935C5.70915 64.4056 5.79828 64.7235 5.89025 65.0472L6.65979 64.8286ZM6.13455 62.9299C6.04712 62.605 5.96292 62.2874 5.88189 61.9773L5.10788 62.1796C5.1894 62.4915 5.27409 62.811 5.36203 63.1378L6.13455 62.9299ZM5.63594 61.0219C5.55243 60.6924 5.4728 60.3728 5.39692 60.0635L4.61995 60.254C4.69631 60.5653 4.77644 60.8869 4.86045 61.2184L5.63594 61.0219ZM5.16533 59.1029C5.08601 58.768 5.01166 58.4476 4.94211 58.1425L4.16212 58.3203C4.23216 58.6276 4.30702 58.9501 4.38686 59.2872L5.16533 59.1029ZM4.72863 57.1865C4.65214 56.8364 4.58333 56.5129 4.52184 56.2173L3.73861 56.3803C3.80063 56.6784 3.86999 57.0046 3.94708 57.3573L4.72863 57.1865ZM4.32682 55.2525C4.29211 55.0752 4.26165 54.9164 4.23527 54.7765L3.44913 54.9248C3.47585 55.0664 3.50665 55.2271 3.54174 55.4063L4.32682 55.2525ZM4.10201 55.1548C4.22929 55.0461 4.35672 54.9376 4.48432 54.8294L3.96687 54.2193C3.83856 54.3281 3.7104 54.4372 3.58239 54.5465L4.10201 55.1548ZM5.25172 54.1832C5.50813 53.9688 5.76513 53.7555 6.0227 53.5432L5.51383 52.9259C5.25485 53.1393 4.99642 53.3539 4.73859 53.5694L5.25172 54.1832ZM6.79778 52.9087C7.05765 52.6974 7.31806 52.4872 7.57898 52.278L7.07856 51.6538C6.81625 51.8642 6.55443 52.0755 6.29315 52.2879L6.79778 52.9087ZM8.36322 51.6535C8.62512 51.4464 8.88749 51.2403 9.15031 51.0352L8.65818 50.4045C8.39399 50.6106 8.13024 50.8178 7.86696 51.0261L8.36322 51.6535ZM9.94422 50.4199C10.2094 50.2157 10.475 50.0126 10.741 49.8105L10.2571 49.1735C9.98971 49.3766 9.72275 49.5808 9.45619 49.786L9.94422 50.4199ZM11.5401 49.2074C11.8081 49.0065 12.0763 48.8066 12.345 48.6078L11.869 47.9648C11.5991 48.1646 11.3295 48.3654 11.0602 48.5673L11.5401 49.2074ZM13.1537 48.013C13.4236 47.8158 13.6938 47.6197 13.9642 47.4246L13.4961 46.7758C13.2244 46.9718 12.9529 47.1689 12.6817 47.3671L13.1537 48.013ZM14.7789 46.8405C15.0521 46.6459 15.3254 46.4523 15.599 46.2599L15.1387 45.6056C14.8639 45.7989 14.5892 45.9934 14.3147 46.1889L14.7789 46.8405ZM16.4203 45.6857C16.6947 45.495 16.9693 45.3054 17.244 45.1169L16.7913 44.4573C16.5154 44.6467 16.2395 44.8372 15.9638 45.0287L16.4203 45.6857ZM18.075 44.55C18.3521 44.3622 18.6293 44.1754 18.9065 43.9897L18.4613 43.325C18.1828 43.5116 17.9044 43.6992 17.6261 43.8879L18.075 44.55ZM19.7384 43.4358C20.0189 43.2503 20.2993 43.0658 20.5797 42.8824L20.1419 42.2129C19.8603 42.397 19.5786 42.5823 19.2969 42.7687L19.7384 43.4358ZM21.421 42.3356C21.7014 42.1544 21.9818 41.9743 22.262 41.7954L21.8315 41.1211C21.55 41.3009 21.2684 41.4817 20.9868 41.6637L21.421 42.3356ZM23.1116 41.256C23.3952 41.077 23.6787 40.8991 23.9621 40.7224L23.5387 40.0436C23.2541 40.2211 22.9694 40.3997 22.6846 40.5795L23.1116 41.256ZM24.8117 40.1954C25.0977 40.0191 25.3835 39.8439 25.669 39.6698L25.2527 38.9867C24.9659 39.1615 24.679 39.3374 24.3918 39.5145L24.8117 40.1954ZM26.5283 39.149C26.8144 38.9766 27.1003 38.8053 27.3859 38.6352L26.9764 37.9479C26.6897 38.1187 26.4027 38.2907 26.1154 38.4638L26.5283 39.149ZM28.2508 38.1228C28.5403 37.9523 28.8294 37.7829 29.1182 37.6148L28.7155 36.9235C28.4257 37.0923 28.1354 37.2623 27.8447 37.4335L28.2508 38.1228ZM29.9832 37.1138C30.2744 36.9461 30.5652 36.7795 30.8555 36.6142L30.4596 35.919C30.1682 36.085 29.8763 36.2522 29.5839 36.4206L29.9832 37.1138ZM31.7305 36.1187C32.0216 35.9548 32.3122 35.7921 32.6022 35.6306L32.213 34.9316C31.9219 35.0938 31.6302 35.2571 31.338 35.4217L31.7305 36.1187ZM33.4822 35.1432C33.7769 34.9809 34.0708 34.8199 34.3641 34.6602L33.9814 33.9577C33.6871 34.118 33.392 34.2796 33.0963 34.4424L33.4822 35.1432ZM35.2417 34.1848C35.5385 34.0249 35.8346 33.8663 36.1299 33.709L35.7537 33.003C35.4574 33.1608 35.1602 33.32 34.8623 33.4805L35.2417 34.1848ZM37.0177 33.2386C37.3127 33.0831 37.6069 32.929 37.9002 32.7761L37.5305 32.0667C37.2361 32.2201 36.9409 32.3748 36.6447 32.5309L37.0177 33.2386ZM38.7974 32.3111C39.096 32.1572 39.3935 32.0047 39.69 31.8535L39.3267 31.1408C39.0291 31.2925 38.7305 31.4456 38.4308 31.6L38.7974 32.3111ZM40.5799 31.4023C40.8823 31.2498 41.1836 31.0988 41.4836 30.9492L41.1265 30.2333C40.8255 30.3834 40.5232 30.535 40.2197 30.688L40.5799 31.4023ZM42.3797 30.5047C42.6812 30.356 42.9814 30.2088 43.2802 30.063L42.9294 29.344C42.6296 29.4903 42.3284 29.638 42.0258 29.7873L42.3797 30.5047ZM44.187 29.6231C44.4878 29.478 44.787 29.3344 45.0847 29.1924L44.7402 28.4704C44.4415 28.6129 44.1412 28.757 43.8394 28.9026L44.187 29.6231ZM45.9978 28.7591C46.3022 28.6155 46.6048 28.4736 46.9056 28.3332L46.5673 27.6083C46.2655 27.7491 45.9618 27.8915 45.6564 28.0356L45.9978 28.7591ZM47.8122 27.9125C48.1204 27.7704 48.4265 27.6299 48.7305 27.4913L48.3984 26.7634C48.0934 26.9026 47.7863 27.0435 47.4771 27.1861L47.8122 27.9125ZM49.6361 27.0805C49.9463 26.9405 50.2543 26.8024 50.5598 26.6662L50.234 25.9356C49.9274 26.0722 49.6185 26.2108 49.3071 26.3512L49.6361 27.0805ZM51.4742 26.2608C51.7835 26.1245 52.0902 25.9901 52.3941 25.8577L52.0746 25.1243C51.7696 25.2571 51.4619 25.392 51.1516 25.5288L51.4742 26.2608ZM53.3172 25.4579C53.6261 25.3249 53.9319 25.194 54.2345 25.0653L53.9213 24.3291C53.6176 24.4583 53.3108 24.5897 53.0009 24.7231L53.3172 25.4579ZM55.1656 24.6715C55.4748 24.5415 55.7803 24.4139 56.0822 24.2885L55.7754 23.5497C55.4725 23.6755 55.1658 23.8036 54.8556 23.934L55.1656 24.6715ZM57.02 23.9015C57.3306 23.7741 57.6369 23.6493 57.9388 23.527L57.6385 22.7855C57.3355 22.9082 57.0281 23.0335 56.7164 23.1613L57.02 23.9015ZM58.8806 23.1481C59.1941 23.0228 59.5024 22.9004 59.8053 22.7809L59.5118 22.0367C59.2077 22.1566 58.8983 22.2795 58.5837 22.4052L58.8806 23.1481ZM60.7465 22.4121C61.0648 22.2882 61.3765 22.1678 61.6814 22.0508L61.3948 21.3039C61.0888 21.4214 60.7759 21.5422 60.4564 21.6666L60.7465 22.4121ZM62.6138 21.6956C62.939 21.5727 63.2553 21.454 63.5624 21.3396L63.2832 20.5899C62.9748 20.7048 62.6572 20.8239 62.3308 20.9474L62.6138 21.6956ZM64.4983 20.9938C64.822 20.8751 65.1338 20.7618 65.4331 20.6539L65.1618 19.9013C64.8612 20.0097 64.5481 20.1235 64.2229 20.2427L64.4983 20.9938ZM66.3869 20.3132C66.7238 20.1939 67.0407 20.083 67.3366 19.9804L67.0744 19.2245C66.7769 19.3277 66.4585 19.4392 66.12 19.559L66.3869 20.3132ZM68.2833 19.6556C68.6455 19.5328 68.9603 19.4278 69.225 19.3405L68.9745 18.5808C68.7077 18.6688 68.3908 18.7744 68.0264 18.898L68.2833 19.6556ZM69.4464 19.1869C69.5789 19.2302 69.7356 19.2817 69.9157 19.3415L70.1677 18.5822C69.9864 18.522 69.8285 18.4701 69.695 18.4265L69.4464 19.1869ZM70.8565 19.6578C71.1427 19.7552 71.4586 19.8637 71.803 19.9835L72.0658 19.2279C71.7197 19.1075 71.4021 18.9984 71.1142 18.9004L70.8565 19.6578ZM72.7523 20.317C73.0542 20.4241 73.3722 20.5379 73.7058 20.6583L73.9775 19.9059C73.6425 19.7849 73.323 19.6706 73.0197 19.5631L72.7523 20.317ZM74.6415 20.999C74.9429 21.1097 75.2548 21.225 75.5767 21.345L75.8562 20.5954C75.533 20.4749 75.2198 20.3591 74.9172 20.248L74.6415 20.999ZM76.5248 21.7013C76.8282 21.8161 77.1393 21.9347 77.4579 22.057L77.7446 21.3102C77.4249 21.1874 77.1126 21.0684 76.808 20.9531L76.5248 21.7013ZM78.3922 22.4183C78.7 22.5381 79.0139 22.6612 79.3339 22.7875L79.6276 22.0434C79.3065 21.9166 78.9914 21.7931 78.6824 21.6728L78.3922 22.4183ZM80.258 23.1547C80.5671 23.2783 80.8813 23.4047 81.2003 23.5339L81.5007 22.7925C81.1806 22.6628 80.8653 22.5359 80.5551 22.4118L80.258 23.1547ZM82.1186 23.9083C82.4272 24.0349 82.7399 24.1639 83.0568 24.2955L83.3636 23.5567C83.0457 23.4247 82.7318 23.2951 82.4222 23.1681L82.1186 23.9083ZM83.9729 24.6784C84.2799 24.8074 84.5904 24.9388 84.9044 25.0724L85.2176 24.3362C84.9026 24.2022 84.591 24.0704 84.2829 23.9409L83.9729 24.6784ZM85.8212 25.4648C86.126 25.5961 86.4339 25.7294 86.7446 25.8647L87.0641 25.1313C86.7523 24.9955 86.4435 24.8617 86.1375 24.73L85.8212 25.4648ZM87.6641 26.2677C87.9665 26.4009 88.2714 26.5361 88.5788 26.6732L88.9046 25.9425C88.5961 25.805 88.2902 25.6693 87.9867 25.5356L87.6641 26.2677ZM89.5022 27.0872C89.802 27.2224 90.104 27.3594 90.408 27.498L90.74 26.7702C90.4349 26.631 90.1319 26.4936 89.8311 26.3579L89.5022 27.0872ZM91.3265 27.9194C91.6268 28.0578 91.9289 28.198 92.2329 28.3398L92.5711 27.6148C92.2661 27.4725 91.9629 27.3319 91.6616 27.1929L91.3265 27.9194ZM93.1409 28.7657C93.4434 28.9085 93.7477 29.0528 94.0537 29.1987L94.3981 28.4767C94.0911 28.3302 93.7858 28.1854 93.4822 28.0422L93.1409 28.7657ZM94.9516 29.6294C95.2525 29.7745 95.5548 29.9212 95.8587 30.0693L96.2093 29.3503C95.9045 29.2016 95.6011 29.0545 95.2992 28.9089L94.9516 29.6294ZM96.7589 30.5108C97.0564 30.6575 97.3552 30.8056 97.6553 30.9552L98.0122 30.2392C97.7111 30.0891 97.4112 29.9405 97.1127 29.7933L96.7589 30.5108ZM98.5591 31.4083C98.8545 31.5572 99.1511 31.7075 99.4488 31.8592L99.812 31.1464C99.5133 30.9942 99.2157 30.8433 98.9192 30.6939L98.5591 31.4083ZM100.342 32.3167C100.64 32.4703 100.939 32.6252 101.239 32.7815L101.608 32.072C101.307 31.9151 101.007 31.7597 100.708 31.6056L100.342 32.3167ZM102.121 33.2439C102.416 33.3993 102.712 33.5561 103.009 33.7141L103.385 33.008C103.087 32.8494 102.79 32.6921 102.494 32.536L102.121 33.2439ZM103.897 34.1897C104.189 34.3469 104.482 34.5053 104.775 34.665L105.158 33.9624C104.863 33.8021 104.57 33.6431 104.277 33.4854L103.897 34.1897ZM105.657 35.1478C105.95 35.309 106.243 35.4714 106.537 35.635L106.926 34.936C106.631 34.7717 106.337 34.6087 106.043 34.447L105.657 35.1478ZM107.409 36.123C107.7 36.2869 107.992 36.452 108.284 36.6184L108.68 35.9231C108.386 35.7561 108.094 35.5904 107.801 35.4259L107.409 36.123ZM109.156 37.1177C109.444 37.2835 109.733 37.4504 110.022 37.6185L110.424 36.9272C110.134 36.7584 109.845 36.5908 109.556 36.4244L109.156 37.1177ZM110.889 38.1264C111.177 38.296 111.465 38.4667 111.754 38.6386L112.163 37.9512C111.874 37.7787 111.584 37.6073 111.295 37.4371L110.889 38.1264ZM112.612 39.1523C112.898 39.3247 113.184 39.4982 113.471 39.6729L113.887 38.9897C113.599 38.8143 113.312 38.6401 113.024 38.467L112.612 39.1523ZM114.328 40.1983C114.611 40.3728 114.895 40.5484 115.178 40.7251L115.601 40.0463C115.317 39.8688 115.032 39.6925 114.748 39.5173L114.328 40.1983ZM116.029 41.2586C116.312 41.4372 116.595 41.6169 116.878 41.7977L117.309 41.1234C117.024 40.9418 116.74 40.7613 116.456 40.582L116.029 41.2586ZM117.719 42.3379C118 42.519 118.28 42.7012 118.561 42.8845L118.999 42.2149C118.717 42.0308 118.435 41.8477 118.153 41.6658L117.719 42.3379ZM119.402 43.4378C119.68 43.6213 119.957 43.8058 120.234 43.9915L120.679 43.3267C120.401 43.1403 120.122 42.9549 119.844 42.7705L119.402 43.4378ZM121.066 44.5517C121.343 44.7395 121.62 44.9284 121.897 45.1183L122.349 44.4587C122.071 44.2678 121.793 44.0781 121.515 43.8894L121.066 44.5517ZM122.721 45.687C122.995 45.8773 123.268 46.0687 123.542 46.2611L124.002 45.6067C123.727 45.4134 123.452 45.2212 123.177 45.03L122.721 45.687ZM124.362 46.8415C124.634 47.0351 124.906 47.2298 125.177 47.4255L125.645 46.7767C125.372 46.58 125.099 46.3844 124.826 46.1899L124.362 46.8415ZM125.987 48.0139C126.257 48.211 126.527 48.4092 126.796 48.6085L127.272 47.9654C127.002 47.7652 126.731 47.566 126.459 47.3679L125.987 48.0139ZM127.601 49.208C127.868 49.408 128.134 49.609 128.4 49.811L128.884 49.174C128.617 48.9709 128.349 48.7689 128.081 48.5679L127.601 49.208ZM129.197 50.4203C129.462 50.6244 129.727 50.8294 129.991 51.0356L130.483 50.4048C130.218 50.1976 129.952 49.9915 129.685 49.7864L129.197 50.4203ZM130.778 51.6538C131.04 51.8609 131.302 52.069 131.562 52.2782L132.063 51.654C131.801 51.4437 131.538 51.2345 131.274 51.0263L130.778 51.6538ZM132.344 52.9088C132.603 53.1193 132.861 53.3307 133.119 53.5432L133.628 52.9259C133.368 52.7122 133.109 52.4996 132.848 52.288L132.344 52.9088ZM133.89 54.1833C134.146 54.3976 134.402 54.613 134.657 54.8294L135.175 54.2193C134.918 54.0016 134.661 53.785 134.403 53.5695L133.89 54.1833ZM134.906 54.7756C134.879 54.9179 134.848 55.0804 134.811 55.2626L135.596 55.4185C135.633 55.2344 135.665 55.0699 135.692 54.9257L134.906 54.7756ZM134.609 56.2504C134.545 56.5525 134.473 56.8836 134.394 57.2421L135.175 57.4154C135.255 57.0541 135.327 56.7204 135.391 56.4157L134.609 56.2504ZM134.172 58.222C134.099 58.535 134.022 58.8639 133.939 59.2078L134.717 59.3948C134.8 59.0486 134.878 58.7176 134.951 58.4023L134.172 58.222ZM133.698 60.1932C133.619 60.5087 133.537 60.8346 133.451 61.1705L134.226 61.3697C134.312 61.0318 134.395 60.7039 134.474 60.3865L133.698 60.1932ZM133.196 62.1475C133.111 62.4652 133.024 62.7907 132.933 63.1237L133.705 63.3342C133.796 62.9994 133.884 62.672 133.969 62.3525L133.196 62.1475ZM132.663 64.0988C132.574 64.417 132.482 64.7413 132.387 65.0714L133.156 65.2928C133.251 64.9609 133.344 64.6348 133.434 64.3148L132.663 64.0988ZM132.104 66.0393C132.011 66.3567 131.914 66.6789 131.815 67.0059L132.581 67.2378C132.68 66.9091 132.777 66.5851 132.872 66.266L132.104 66.0393ZM131.519 67.9716C131.42 68.2894 131.319 68.6112 131.216 68.9369L131.978 69.1792C132.082 68.8518 132.184 68.5282 132.283 68.2088L131.519 67.9716ZM130.906 69.9021C130.803 70.2182 130.698 70.5378 130.59 70.8605L131.349 71.113C131.457 70.7885 131.563 70.4673 131.666 70.1494L130.906 69.9021ZM130.269 71.8168C130.161 72.1329 130.052 72.4519 129.94 72.7736L130.696 73.0361C130.808 72.7127 130.918 72.3921 131.026 72.0743L130.269 71.8168ZM129.604 73.7308C129.492 74.0443 129.379 74.3603 129.264 74.6786L130.016 74.9512C130.132 74.6312 130.246 74.3136 130.358 73.9984L129.604 73.7308ZM128.916 75.6273C128.8 75.9418 128.682 76.2584 128.561 76.577L129.31 76.8597C129.431 76.5394 129.55 76.2211 129.667 75.905L128.916 75.6273ZM128.202 77.519C128.081 77.8311 127.959 78.1449 127.835 78.4604L128.58 78.7532C128.705 78.436 128.827 78.1205 128.948 77.8068L128.202 77.519ZM127.461 79.4028C127.337 79.7126 127.211 80.024 127.083 80.3368L127.823 80.6397C127.952 80.3252 128.079 80.0121 128.203 79.7006L127.461 79.4028ZM126.697 81.2711C126.567 81.5809 126.436 81.892 126.304 82.2044L127.04 82.5175C127.173 82.2034 127.305 81.8906 127.435 81.5791L126.697 81.2711ZM125.906 83.1307C125.772 83.4387 125.637 83.7478 125.5 84.058L126.232 84.3814C126.369 84.0695 126.505 83.7587 126.64 83.449L125.906 83.1307ZM125.088 84.9803C124.951 85.2858 124.811 85.5923 124.67 85.8997L125.397 86.2335C125.539 85.9243 125.679 85.6161 125.818 85.3089L125.088 84.9803ZM124.244 86.8187C124.103 87.1218 123.959 87.4256 123.814 87.7302L124.536 88.0744C124.682 87.7681 124.826 87.4625 124.969 87.1577L124.244 86.8187ZM123.375 88.6422C123.229 88.9437 123.08 89.2458 122.931 89.5485L123.648 89.9034C123.798 89.5989 123.947 89.295 124.095 88.9918L123.375 88.6422Z" fill="#44C0D3"/>
<path d="M69.5827 137.927C81.5961 137.927 91.3349 128.188 91.3349 116.175C91.3349 104.161 81.5961 94.4224 69.5827 94.4224C57.5694 94.4224 47.8306 104.161 47.8306 116.175C47.8306 128.188 57.5694 137.927 69.5827 137.927Z" stroke="url(#paint12_linear)" stroke-width="0.8" stroke-dasharray="1"/>
<path d="M69.5828 39.8291C75.0006 39.8291 79.3926 35.4371 79.3926 30.0193C79.3926 24.6015 75.0006 20.2095 69.5828 20.2095C64.165 20.2095 59.7729 24.6015 59.7729 30.0193C59.7729 35.4371 64.165 39.8291 69.5828 39.8291Z" stroke="url(#paint13_linear)" stroke-width="0.8" stroke-dasharray="1"/>
<path d="M5.17921 59.4487C5.17921 65.1021 9.76217 69.685 15.4155 69.685C21.0689 69.685 25.6519 65.1021 25.6519 59.4487C25.6519 53.7954 21.0689 49.2124 15.4155 49.2124C9.76217 49.2124 5.17921 53.7954 5.17921 59.4487Z" stroke="url(#paint14_linear)" stroke-width="0.8" stroke-dasharray="1"/>
<path d="M501.345 41.2534C501.355 46.9995 499.375 52.5745 495.74 57.0367H456.279C452.645 52.5745 450.666 46.9995 450.673 41.2534C450.673 27.3057 462.018 16 476.009 16C490.003 16 501.345 27.3057 501.345 41.2534Z" fill="url(#paint15_linear)"/>
<path d="M514.013 60.1938V107.544C514.012 108.241 513.778 108.919 513.348 109.469C513.228 109.631 513.09 109.779 512.937 109.911C512.843 110.005 512.716 110.069 512.62 110.164L490.737 128.882C490.16 129.366 489.432 129.634 488.677 129.641H463.341C462.588 129.634 461.86 129.366 461.283 128.882L439.4 110.164C439.304 110.069 439.178 110.005 439.083 109.911C438.93 109.779 438.791 109.631 438.67 109.469C438.242 108.919 438.008 108.241 438.005 107.544V60.1938C438.005 58.4505 439.423 57.0371 441.172 57.0371H510.846C512.595 57.0371 514.013 58.4505 514.013 60.1938Z" fill="url(#paint16_linear)"/>
<path fill-rule="evenodd" clip-rule="evenodd" d="M551.09 117.938L542.517 109.393V88.6036C542.517 87.7666 542.183 86.9636 541.589 86.3717L525.754 70.5884L521.275 75.0521L536.183 89.9107V109.393L527.609 117.938C527.016 118.53 526.683 119.333 526.682 120.17V126.484C526.682 128.227 528.1 129.64 529.849 129.64C531.598 129.64 533.016 128.227 533.016 126.484V121.477L539.35 115.164L545.684 121.477V126.484C545.684 128.227 547.102 129.64 548.851 129.64C550.6 129.64 552.018 128.227 552.018 126.484V120.17C552.018 119.333 551.684 118.53 551.09 117.938Z" fill="#42B1CA"/>
<path fill-rule="evenodd" clip-rule="evenodd" d="M415.836 109.393V89.9107L430.744 75.0521L426.265 70.5884L410.43 86.3717C409.836 86.9636 409.504 87.7666 409.502 88.6036V109.393L400.929 117.938C400.335 118.53 400.003 119.333 400.001 120.17V126.484C400.001 128.227 401.42 129.64 403.168 129.64C404.917 129.64 406.335 128.227 406.335 126.484V121.477L412.669 115.164L419.003 121.477V126.484C419.003 128.227 420.421 129.64 422.17 129.64C423.919 129.64 425.337 128.227 425.337 126.484V120.17C425.337 119.333 425.003 118.53 424.41 117.938L415.836 109.393Z" fill="#42B1CA"/>
<path fill-rule="evenodd" clip-rule="evenodd" d="M464.925 28.627H487.094C489.718 28.627 491.844 30.5009 491.844 32.8137C491.844 35.1252 489.718 37.0005 487.094 37.0005H464.925C462.302 37.0005 460.174 35.1252 460.174 32.8137C460.174 30.5009 462.302 28.627 464.925 28.627Z" fill="#F9FAFC"/>
<path d="M478.556 94.2605C486.946 94.2605 493.747 87.4188 493.747 78.9791C493.747 70.5395 486.946 63.6978 478.556 63.6978C470.167 63.6978 463.366 70.5395 463.366 78.9791C463.366 87.4188 470.167 94.2605 478.556 94.2605Z" fill="#44C9E6"/>
<path d="M489.225 74.3965C490.314 75.8792 490.883 77.6314 490.883 79.451C490.883 81.6581 489.979 83.6968 488.438 85.3479L489.376 88.8692H492.223L495.221 85.449L496.025 80.4451L496.192 77.4629L493.228 74.0933L489.225 74.3965Z" fill="#B4E4EF"/>
<path d="M456.231 89.2734L456.75 91.3457C456.75 91.3457 462.88 103.999 476.681 108.699C476.681 108.699 489.236 103.308 494.813 94.1594L487.115 87.4033C487.115 87.4033 483.43 90.3517 477.953 90.3517C472.477 90.3517 465.041 87.0663 465.041 80.2933C465.041 73.5203 472.745 71.0436 472.745 71.0436L469.462 70.2349H461.071L455.746 83.1406L456.231 89.2734Z" fill="#B4E4EF"/>
<path d="M502.607 75.0504C502.372 74.8145 497.55 68.5904 478.652 60.9149C477.694 60.5394 476.798 60.8585 476.798 60.8585C459.484 65.3 450.989 74.4669 450.989 75.0504C450.989 75.634 453.468 84.4048 455.076 87.9766C455.21 88.2799 457.353 92.0876 458.945 94.1599C458.007 92.0876 456.985 90.2848 456.985 87.1847C456.985 78.4405 463.718 71.3305 472.142 71.0273C472.343 71.0273 472.561 71.0273 472.762 71.0441L470.752 69.0223C470.752 69.0223 478.841 67.6576 489.225 73.9757C489.225 73.9757 489.376 74.2958 489.225 75.2393C489.225 75.2393 494.115 77.3622 494.534 81.49C494.953 85.6179 492.357 87.9766 490.263 88.3136C490.263 88.3136 491.352 86.6119 489.677 85.7021C489.325 85.4999 488.907 85.4157 488.488 85.4325C485.289 85.4325 484.921 89.1055 484.921 89.1055C484.887 89.2908 484.887 89.4761 484.887 89.6614C484.887 89.6614 484.351 95.036 493.864 94.935C493.864 94.935 498.687 89.4424 499.96 84.5059C500.429 82.6863 500.764 81.3216 500.982 80.3107C501.518 78.8786 502.037 76.7689 502.54 75.2357L502.607 75.0504Z" fill="#F9FAFC"/>
<path opacity="0.895424" d="M485.088 75.6098C485.222 75.5424 485.658 75.3233 486.16 74.8011C487.165 74.9358 488.153 75.256 488.153 75.256C486.328 74.144 483.832 73.4869 481.069 73.5037C481.069 73.5037 482.124 75.0201 485.055 75.6435C485.055 75.6435 485.072 75.6266 485.088 75.6098Z" fill="white"/>
<path fill-rule="evenodd" clip-rule="evenodd" d="M477.317 60.0288C479.963 60.9051 492.708 65.458 502.791 74.2203L503.025 74.3921L502.975 74.6842C502.975 74.7529 501.869 81.4191 498.151 88.91C495.957 93.3255 493.294 97.174 490.246 100.335C486.495 104.218 482.157 107.087 477.317 108.874L477.032 108.977L476.731 109.098L476.446 108.994L476.161 108.891C471.321 107.105 466.967 104.235 463.232 100.352C460.184 97.174 457.521 93.3426 455.327 88.9271C451.763 81.7302 450.615 75.3227 450.511 74.7434C450.507 74.7183 450.504 74.7042 450.503 74.7013L450.453 74.4093L450.671 74.2203C460.753 65.458 473.498 60.9051 476.145 60.0288L476.731 59.8398L477.066 59.9429L477.317 60.0288ZM489.509 99.6137C492.491 96.5211 495.086 92.7585 497.23 88.4461C500.446 81.9689 501.668 76.1446 501.92 74.8216C491.586 65.9391 478.506 61.5064 476.731 60.9223C474.939 61.5064 461.875 65.9391 451.542 74.8216C451.793 76.1617 452.999 81.9861 456.231 88.4805C458.375 92.7929 460.971 96.5383 463.952 99.6309C467.653 103.462 471.941 106.263 476.731 107.998C481.521 106.263 485.808 103.445 489.509 99.6137Z" fill="white"/>
<path d="M438.005 60.1934V85.4467H434.838C429.598 85.4313 425.354 81.2003 425.337 75.9767V69.6634C425.354 64.4398 429.598 60.2088 434.838 60.1934L438.005 60.1934Z" fill="url(#paint17_linear)"/>
<path d="M526.681 69.6634V75.9767C526.666 81.2003 522.421 85.4313 517.18 85.4467H514.013V60.1934H517.18C522.421 60.2088 526.666 64.4398 526.681 69.6634Z" fill="url(#paint18_linear)"/>
<path d="M545.684 88.6034C545.684 92.0899 542.849 94.9167 539.35 94.9167C535.852 94.9167 533.016 92.0899 533.016 88.6034C533.016 85.1169 535.852 82.29 539.35 82.29C542.849 82.29 545.684 85.1169 545.684 88.6034Z" fill="url(#paint19_linear)"/>
<path d="M419.004 88.6034C419.004 92.0899 416.169 94.9167 412.67 94.9167C409.172 94.9167 406.336 92.0899 406.336 88.6034C406.336 85.1169 409.172 82.29 412.67 82.29C416.169 82.29 419.004 85.1169 419.004 88.6034Z" fill="url(#paint20_linear)"/>
<path d="M715.324 30.5518H647.363L624.001 60.7241V71.5C624.001 72.6902 624.952 73.6553 626.125 73.6553H628.249V129.69C628.249 132.07 630.151 134 632.497 134H730.191C732.537 134 734.439 132.07 734.439 129.69V73.6553H736.563C737.736 73.6553 738.687 72.6904 738.687 71.5V60.7241L715.324 30.5518Z" fill="url(#paint21_linear)"/>
<mask id="mask8" mask-type="alpha" maskUnits="userSpaceOnUse" x="624" y="30" width="115" height="104">
<path d="M715.324 30.5518H647.363L624.001 60.7241V71.5C624.001 72.6902 624.952 73.6553 626.125 73.6553H628.249V129.69C628.249 132.07 630.151 134 632.497 134H730.191C732.537 134 734.439 132.07 734.439 129.69V73.6553H736.563C737.736 73.6553 738.687 72.6904 738.687 71.5V60.7241L715.324 30.5518Z" fill="white"/>
</mask>
<g mask="url(#mask8)">
</g>
<path fill-rule="evenodd" clip-rule="evenodd" d="M624.001 60.7241H738.686V71.5C738.686 72.6902 737.736 73.6553 736.562 73.6553H626.125C624.953 73.6553 624.001 72.6904 624.001 71.5V60.7241Z" fill="#2CB6D4"/>
<path d="M738.686 60.7241L715.324 30.5518H706.829H655.858H647.363L624.001 60.7241H738.686Z" fill="url(#paint22_linear)"/>
<mask id="mask9" mask-type="alpha" maskUnits="userSpaceOnUse" x="624" y="30" width="115" height="31">
<path d="M738.686 60.7241L715.324 30.5518H706.829H655.858H647.363L624.001 60.7241H738.686Z" fill="white"/>
</mask>
<g mask="url(#mask9)">
</g>
<path fill-rule="evenodd" clip-rule="evenodd" d="M655.858 41.3276H651.611L645.239 49.9482H655.858H706.829H717.448L711.077 41.3276H706.829" fill="#4299AC"/>
<path fill-rule="evenodd" clip-rule="evenodd" d="M660.106 9H702.582C704.928 9 706.829 10.9297 706.829 13.3103V49.9482H655.858V13.3103C655.858 10.9297 657.76 9 660.106 9Z" fill="url(#paint23_linear)"/>
<mask id="mask10" mask-type="alpha" maskUnits="userSpaceOnUse" x="655" y="9" width="52" height="41">
<path fill-rule="evenodd" clip-rule="evenodd" d="M660.106 9H702.582C704.928 9 706.829 10.9297 706.829 13.3103V49.9482H655.858V13.3103C655.858 10.9297 657.76 9 660.106 9Z" fill="white"/>
</mask>
<g mask="url(#mask10)">
</g>
<path fill-rule="evenodd" clip-rule="evenodd" d="M671.347 103.351C671.745 103.756 672.286 103.983 672.849 103.982H689.839C690.403 103.983 690.943 103.756 691.341 103.351C691.74 102.947 691.963 102.399 691.963 101.827V88.896C691.963 82.9446 687.209 78.1201 681.344 78.1201C675.479 78.1201 670.725 82.9446 670.725 88.896V101.827C670.725 102.399 670.949 102.947 671.347 103.351ZM687.716 88.8962V99.6721H674.973V88.8962C674.973 85.3254 677.825 82.4307 681.344 82.4307C684.863 82.4307 687.716 85.3254 687.716 88.8962Z" fill="white"/>
<path fill-rule="evenodd" clip-rule="evenodd" d="M670.725 97.5171H691.963C694.309 97.5171 696.211 99.447 696.211 101.827V119.069C696.211 121.449 694.309 123.379 691.963 123.379H670.725C668.379 123.379 666.478 121.449 666.478 119.069V101.827C666.478 99.4468 668.379 97.5171 670.725 97.5171Z" fill="#B4E4EF"/>
<mask id="mask11" mask-type="alpha" maskUnits="userSpaceOnUse" x="666" y="97" width="31" height="27">
<path fill-rule="evenodd" clip-rule="evenodd" d="M670.725 97.5171H691.963C694.309 97.5171 696.211 99.447 696.211 101.827V119.069C696.211 121.449 694.309 123.379 691.963 123.379H670.725C668.379 123.379 666.478 121.449 666.478 119.069V101.827C666.478 99.4468 668.379 97.5171 670.725 97.5171Z" fill="white"/>
</mask>
<g mask="url(#mask11)">
</g>
<defs>
<linearGradient id="paint0_linear" x1="320.904" y1="76.2031" x2="281.724" y2="79.8501" gradientUnits="userSpaceOnUse">
<stop stop-color="#B0E4EF"/>
<stop offset="1" stop-color="#44C9E6"/>
</linearGradient>
<linearGradient id="paint1_linear" x1="338.253" y1="98.603" x2="270.289" y2="109.777" gradientUnits="userSpaceOnUse">
<stop stop-color="#B0E4EF"/>
<stop offset="1" stop-color="#44C9E6"/>
</linearGradient>
<linearGradient id="paint2_linear" x1="320.904" y1="65.1952" x2="281.731" y2="68.8815" gradientUnits="userSpaceOnUse">
<stop stop-color="#B0E4EF"/>
<stop offset="1" stop-color="#44C9E6"/>
</linearGradient>
<linearGradient id="paint3_linear" x1="263.819" y1="158.705" x2="322.748" y2="107.801" gradientUnits="userSpaceOnUse">
<stop stop-color="#B0E4EF"/>
<stop offset="1" stop-color="#44C9E6"/>
</linearGradient>
<linearGradient id="paint4_linear" x1="338.602" y1="87.4033" x2="270.401" y2="98.657" gradientUnits="userSpaceOnUse">
<stop stop-color="#B0E4EF"/>
<stop offset="1" stop-color="#44C9E6"/>
</linearGradient>
<linearGradient id="paint5_linear" x1="269.748" y1="70.7445" x2="299.022" y2="52.5725" gradientUnits="userSpaceOnUse">
<stop stop-color="#B0E4EF"/>
<stop offset="1" stop-color="#44C9E6"/>
</linearGradient>
<linearGradient id="paint6_linear" x1="268.904" y1="31.3969" x2="292.77" y2="8.58419" gradientUnits="userSpaceOnUse">
<stop stop-color="#B0E4EF"/>
<stop offset="1" stop-color="#44C9E6"/>
</linearGradient>
<linearGradient id="paint7_linear" x1="62.2851" y1="103.708" x2="117.151" y2="68.928" gradientUnits="userSpaceOnUse">
<stop stop-color="#B0E4EF"/>
<stop offset="1" stop-color="#44C9E6"/>
</linearGradient>
<linearGradient id="paint8_linear" x1="123.086" y1="54.685" x2="117.207" y2="12.9073" gradientUnits="userSpaceOnUse">
<stop stop-color="#9CE2F1"/>
<stop offset="1" stop-color="#44C9E6"/>
</linearGradient>
<linearGradient id="paint9_linear" x1="40.6799" y1="16.2554" x2="-7.07264" y2="100.995" gradientUnits="userSpaceOnUse">
<stop stop-color="#98DEEE"/>
<stop offset="1" stop-color="white"/>
</linearGradient>
<linearGradient id="paint10_linear" x1="61.2414" y1="64.5808" x2="95.0773" y2="30.6884" gradientUnits="userSpaceOnUse">
<stop stop-color="#F9FAFC"/>
<stop offset="1" stop-color="#CCF6FF"/>
</linearGradient>
<linearGradient id="paint11_linear" x1="64.5179" y1="87.7171" x2="138.183" y2="87.7171" gradientUnits="userSpaceOnUse">
<stop stop-color="#44C9E6" stop-opacity="0.01"/>
<stop offset="1" stop-color="#44C9E6"/>
</linearGradient>
<linearGradient id="paint12_linear" x1="61.6818" y1="86.95" x2="46.7372" y2="132.641" gradientUnits="userSpaceOnUse">
<stop stop-color="#5BCFE8" stop-opacity="0.01"/>
<stop offset="1" stop-color="#2CB2E1"/>
</linearGradient>
<linearGradient id="paint13_linear" x1="67.3277" y1="48.2944" x2="88.2136" y2="30.6524" gradientUnits="userSpaceOnUse">
<stop stop-color="#5BCFE8" stop-opacity="0.01"/>
<stop offset="1" stop-color="#2CB2E1"/>
</linearGradient>
<linearGradient id="paint14_linear" x1="40.7031" y1="89.7179" x2="40.7031" y2="39.1427" gradientUnits="userSpaceOnUse">
<stop stop-color="#5BCFE8" stop-opacity="0.01"/>
<stop offset="1" stop-color="#2CB2E1"/>
</linearGradient>
<linearGradient id="paint15_linear" x1="450.673" y1="16" x2="450.673" y2="57.0367" gradientUnits="userSpaceOnUse">
<stop stop-color="#B0E4EF" stop-opacity="0.790025"/>
<stop offset="1" stop-color="#39B7D2"/>
</linearGradient>
<linearGradient id="paint16_linear" x1="435.336" y1="121.589" x2="473.009" y2="146.944" gradientUnits="userSpaceOnUse">
<stop stop-color="#B0E4EF" stop-opacity="0.790025"/>
<stop offset="1" stop-color="#39B7D2"/>
</linearGradient>
<linearGradient id="paint17_linear" x1="425.337" y1="60.1934" x2="425.337" y2="85.4467" gradientUnits="userSpaceOnUse">
<stop stop-color="#B0E4EF" stop-opacity="0.790025"/>
<stop offset="1" stop-color="#39B7D2"/>
</linearGradient>
<linearGradient id="paint18_linear" x1="514.013" y1="60.1934" x2="514.013" y2="85.4467" gradientUnits="userSpaceOnUse">
<stop stop-color="#B0E4EF" stop-opacity="0.790025"/>
<stop offset="1" stop-color="#39B7D2"/>
</linearGradient>
<linearGradient id="paint19_linear" x1="533.016" y1="82.29" x2="533.016" y2="94.9167" gradientUnits="userSpaceOnUse">
<stop stop-color="#B0E4EF" stop-opacity="0.790025"/>
<stop offset="1" stop-color="#39B7D2"/>
</linearGradient>
<linearGradient id="paint20_linear" x1="406.336" y1="82.29" x2="406.336" y2="94.9167" gradientUnits="userSpaceOnUse">
<stop stop-color="#B0E4EF" stop-opacity="0.790025"/>
<stop offset="1" stop-color="#39B7D2"/>
</linearGradient>
<linearGradient id="paint21_linear" x1="649.164" y1="37.2113" x2="635.304" y2="126.445" gradientUnits="userSpaceOnUse">
<stop stop-color="#98DEEE"/>
<stop offset="1" stop-color="#44C9E6"/>
</linearGradient>
<linearGradient id="paint22_linear" x1="748.648" y1="51.1602" x2="748.648" y2="15.7461" gradientUnits="userSpaceOnUse">
<stop stop-color="#98DEEE"/>
<stop offset="1" stop-color="#44C9E6"/>
</linearGradient>
<linearGradient id="paint23_linear" x1="619.91" y1="20.189" x2="658.17" y2="73.2954" gradientUnits="userSpaceOnUse">
<stop stop-color="#FAF9F4"/>
<stop offset="1" stop-color="#CEF1F9"/>
</linearGradient>
</defs>
</svg>
