<svg width="762" height="416" viewBox="0 0 762 416" fill="none" xmlns="http://www.w3.org/2000/svg">
<path d="M1 5C1 2.79086 2.79086 1 5 1H375.462C377.671 1 379.462 2.79086 379.462 5H1Z" fill="#2CC68F"/>
<path d="M382.539 5C382.539 2.79086 384.329 1 386.539 1H757C759.209 1 761 2.79086 761 5H382.539Z" fill="#FF6969"/>
<rect opacity="0.2" x="1" y="1" width="378" height="414" rx="4" fill="#F5F5F5" stroke="#979797"/>
<path d="M355.359 17C348.818 17 343.564 22.1227 343.564 28.5C343.564 34.8773 348.818 40 355.359 40C361.9 40 367.154 34.8773 367.154 28.5C367.154 22.1227 361.9 17 355.359 17ZM362.168 24.8932L353.59 33.5705C353.482 33.675 353.375 33.7273 353.214 33.7273C353.053 33.7273 352.893 33.675 352.839 33.5705L348.657 29.1795L348.55 29.075C348.443 28.9705 348.389 28.8136 348.389 28.7091C348.389 28.6045 348.443 28.4477 348.55 28.3432L349.301 27.6114C349.515 27.4023 349.837 27.4023 350.051 27.6114L350.105 27.6636L353.053 30.7477C353.161 30.8523 353.322 30.8523 353.429 30.7477L360.613 23.4818H360.667C360.881 23.2727 361.203 23.2727 361.417 23.4818L362.168 24.2136C362.382 24.3705 362.382 24.6841 362.168 24.8932Z" fill="#2CC68F"/>
<path opacity="0.2" d="M383 5.00001C383 2.79087 384.791 1 387 1H757C759.209 1 761 2.79086 761 5V411C761 413.209 759.209 415 757 415H387C384.791 415 383 413.209 383 411V5.00001Z" fill="#F5F5F5" stroke="#979797"/>
<path d="M736.897 17C730.357 17 725.103 22.1227 725.103 28.5C725.103 34.8773 730.357 40 736.897 40C743.438 40 748.692 34.8773 748.692 28.5C748.692 22.1227 743.438 17 736.897 17ZM738.613 28.7091L742.634 32.6295C742.741 32.7341 742.795 32.8909 742.795 32.9955C742.795 33.1 742.741 33.2568 742.634 33.3614L741.883 34.0932C741.776 34.1977 741.615 34.25 741.508 34.25C741.347 34.25 741.24 34.1977 741.133 34.0932L737.112 30.1727C737.005 30.0682 736.844 30.0682 736.737 30.1727L732.716 34.0932C732.608 34.1977 732.448 34.25 732.34 34.25C732.179 34.25 732.072 34.1977 731.965 34.0932L731.214 33.3614C731.107 33.2568 731.054 33.1 731.054 32.9955C731.054 32.8909 731.107 32.7341 731.214 32.6295L735.235 28.7091C735.343 28.6045 735.343 28.4477 735.235 28.3432L731.214 24.4227C731.107 24.3182 731.054 24.1614 731.054 24.0568C731.054 23.9523 731.107 23.7955 731.214 23.6909L731.965 22.9591C732.072 22.8545 732.233 22.8023 732.34 22.8023C732.448 22.8023 732.608 22.8545 732.716 22.9591L736.737 26.8795C736.844 26.9841 737.005 26.9841 737.112 26.8795L741.133 22.9591C741.24 22.8545 741.401 22.8023 741.508 22.8023C741.669 22.8023 741.776 22.8545 741.883 22.9591L742.634 23.6909C742.741 23.7955 742.795 23.9523 742.795 24.0568C742.795 24.1614 742.741 24.3182 742.634 24.4227L738.613 28.3432C738.506 28.3955 738.506 28.6045 738.613 28.7091Z" fill="#FF6969"/>
<g clip-path="url(#clip0)">
<path fill-rule="evenodd" clip-rule="evenodd" d="M80.4263 276.817H141.555V200.212H80.4263V276.817Z" fill="white"/>
<path fill-rule="evenodd" clip-rule="evenodd" d="M141.756 190.153L111.191 173.646L80.6265 190.153V200.212H141.756V190.153Z" fill="#4D5E82"/>
<path fill-rule="evenodd" clip-rule="evenodd" d="M98.6806 223.138H89.1958V218.395C89.1958 215.777 91.3191 213.653 93.938 213.653C96.5573 213.653 98.6806 215.777 98.6806 218.395V223.138Z" fill="#34B2E9"/>
<path fill-rule="evenodd" clip-rule="evenodd" d="M115.733 223.138H106.248V218.395C106.248 215.777 108.371 213.653 110.991 213.653C113.61 213.653 115.733 215.777 115.733 218.395V223.138Z" fill="#34B2E9"/>
<path fill-rule="evenodd" clip-rule="evenodd" d="M132.786 223.138H123.301V218.395C123.301 215.777 125.424 213.653 128.043 213.653C130.662 213.653 132.786 215.777 132.786 218.395V223.138Z" fill="#34B2E9"/>
<path fill-rule="evenodd" clip-rule="evenodd" d="M98.6806 254.348H89.1958V249.606C89.1958 246.987 91.3191 244.863 93.938 244.863C96.5573 244.863 98.6806 246.987 98.6806 249.606V254.348Z" fill="#34B2E9"/>
<path fill-rule="evenodd" clip-rule="evenodd" d="M115.733 254.348H106.248V249.606C106.248 246.987 108.371 244.863 110.991 244.863C113.61 244.863 115.733 246.987 115.733 249.606V254.348Z" fill="#34B2E9"/>
<path fill-rule="evenodd" clip-rule="evenodd" d="M132.786 254.348H123.301V249.606C123.301 246.987 125.424 244.863 128.043 244.863C130.662 244.863 132.786 246.987 132.786 249.606V254.348Z" fill="#34B2E9"/>
<path fill-rule="evenodd" clip-rule="evenodd" d="M89.1958 236.064H132.786V231.938H89.1958V236.064Z" fill="#4D5E82"/>
<path fill-rule="evenodd" clip-rule="evenodd" d="M141.555 231.938V276.817H169.153V246.843L141.555 231.938Z" fill="#659BC2"/>
<path fill-rule="evenodd" clip-rule="evenodd" d="M141.555 231.938L169.153 246.843V234.062L141.555 219.156V231.938Z" fill="#4D5E82"/>
<path fill-rule="evenodd" clip-rule="evenodd" d="M150.711 276.817H159.997V259.02H150.711V276.817Z" fill="#FFFFFE"/>
<path fill-rule="evenodd" clip-rule="evenodd" d="M69.6868 234C72.5513 231.971 74.4263 228.637 74.4263 224.859C74.4263 218.67 69.4099 213.653 63.2217 213.653C57.0329 213.653 52.0161 218.67 52.0161 224.859C52.0161 228.637 53.8916 231.971 56.7565 234C53.8916 236.03 52.0161 239.364 52.0161 243.142C52.0161 249.331 57.0329 254.347 63.2217 254.347C69.4099 254.347 74.4263 249.331 74.4263 243.142C74.4263 239.364 72.5513 236.03 69.6868 234Z" fill="#34B2E9"/>
<path fill-rule="evenodd" clip-rule="evenodd" d="M60.9004 276.817H65.5428V243.143H60.9004V276.817Z" fill="#010604"/>
</g>
<path fill-rule="evenodd" clip-rule="evenodd" d="M168.896 276.579H219.687V168.547H168.896V276.579Z" fill="#659BC2"/>
<path fill-rule="evenodd" clip-rule="evenodd" d="M219.687 160.129L194.292 145L168.896 160.129V168.547H219.687V160.129Z" fill="#4D5E82"/>
<path fill-rule="evenodd" clip-rule="evenodd" d="M178.668 189.791H183.786V181.021H178.668V189.791Z" fill="#4D5E82"/>
<path fill-rule="evenodd" clip-rule="evenodd" d="M191.732 189.791H196.85V181.021H191.732V189.791Z" fill="#4D5E82"/>
<path fill-rule="evenodd" clip-rule="evenodd" d="M204.796 189.791H209.914V181.021H204.796V189.791Z" fill="#4D5E82"/>
<path fill-rule="evenodd" clip-rule="evenodd" d="M178.668 211.034H183.786V202.267H178.668V211.034Z" fill="#4D5E82"/>
<path fill-rule="evenodd" clip-rule="evenodd" d="M191.732 211.034H196.85V202.267H191.732V211.034Z" fill="#4D5E82"/>
<path fill-rule="evenodd" clip-rule="evenodd" d="M204.796 211.034H209.914V202.267H204.796V211.034Z" fill="#4D5E82"/>
<path fill-rule="evenodd" clip-rule="evenodd" d="M178.668 232.279H183.786V223.508H178.668V232.279Z" fill="#4D5E82"/>
<path fill-rule="evenodd" clip-rule="evenodd" d="M191.732 232.279H196.85V223.508H191.732V232.279Z" fill="#4D5E82"/>
<path fill-rule="evenodd" clip-rule="evenodd" d="M204.796 232.279H209.914V223.508H204.796V232.279Z" fill="#4D5E82"/>
<path fill-rule="evenodd" clip-rule="evenodd" d="M178.668 253.526H183.786V244.755H178.668V253.526Z" fill="#4D5E82"/>
<path fill-rule="evenodd" clip-rule="evenodd" d="M191.732 253.526H196.85V244.755H191.732V253.526Z" fill="#4D5E82"/>
<path fill-rule="evenodd" clip-rule="evenodd" d="M204.796 253.526H209.914V244.755H204.796V253.526Z" fill="#4D5E82"/>
<path fill-rule="evenodd" clip-rule="evenodd" d="M283.931 276.579H219.687V199.077L283.931 229.775V276.579Z" fill="white"/>
<path fill-rule="evenodd" clip-rule="evenodd" d="M219.687 183.728L283.931 214.424V229.775L219.687 199.077V183.728Z" fill="#4D5E82"/>
<path fill-rule="evenodd" clip-rule="evenodd" d="M239.58 245.694H230.81V241.31C230.81 238.886 232.773 236.927 235.194 236.927C237.616 236.927 239.58 238.886 239.58 241.31V245.694Z" fill="#34B2E9"/>
<path fill-rule="evenodd" clip-rule="evenodd" d="M256.193 245.694H247.424V241.31C247.424 238.886 249.387 236.927 251.809 236.927C254.231 236.927 256.193 238.886 256.193 241.31V245.694Z" fill="#34B2E9"/>
<path fill-rule="evenodd" clip-rule="evenodd" d="M272.808 245.694H264.038V241.31C264.038 238.886 266.001 236.927 268.423 236.927C270.845 236.927 272.808 238.886 272.808 241.31V245.694Z" fill="#34B2E9"/>
<path fill-rule="evenodd" clip-rule="evenodd" d="M239.58 227.087H230.81V222.703C230.81 220.279 232.773 218.315 235.194 218.315C237.616 218.315 239.58 220.279 239.58 222.703V227.087Z" fill="#34B2E9"/>
<path fill-rule="evenodd" clip-rule="evenodd" d="M239.58 276.58H264.038V254.953H239.58V276.58Z" fill="#659BC2"/>
<path fill-rule="evenodd" clip-rule="evenodd" d="M333.784 233.764C333.784 245 324.674 254.112 313.437 254.112C302.199 254.112 293.09 245 293.09 233.764C293.09 222.524 302.199 213.417 313.437 213.417C324.674 213.417 333.784 222.524 333.784 233.764Z" fill="#FED183"/>
<path fill-rule="evenodd" clip-rule="evenodd" d="M311.115 276.579H315.758V242.902H311.115V276.579Z" fill="#010604"/>
<g clip-path="url(#clip1)">
<path d="M606.174 114H486.528V292.224H606.174V114Z" fill="#64798A"/>
<path d="M515.319 127.786H499.961V153.191H515.319V127.786Z" fill="#44C4A1"/>
<path d="M541.125 127.786H525.767V153.191H541.125V127.786Z" fill="#44C4A1"/>
<path d="M566.934 127.786H551.576V153.191H566.934V127.786Z" fill="#44C4A1"/>
<path d="M592.747 127.786H577.389V153.191H592.747V127.786Z" fill="#44C4A1"/>
<path d="M515.319 167.918H499.961V193.323H515.319V167.918Z" fill="#44C4A1"/>
<path d="M541.125 167.918H525.767V193.323H541.125V167.918Z" fill="#44C4A1"/>
<path d="M566.934 167.918H551.576V193.323H566.934V167.918Z" fill="#27A2DB"/>
<path d="M592.748 167.918H577.39V193.323H592.748V167.918Z" fill="#27A2DB"/>
<path d="M566.933 233.44H551.575L566.933 208.034V233.44Z" fill="#2D93BA"/>
<path d="M592.74 233.44H577.382L592.74 208.034V233.44Z" fill="#2D93BA"/>
<path d="M515.319 248.157H499.961V273.562H515.319V248.157Z" fill="#44C4A1"/>
<path d="M541.125 248.157H525.767V273.562H541.125V248.157Z" fill="#44C4A1"/>
<path d="M566.934 248.157H551.576V273.562H566.934V248.157Z" fill="#27A2DB"/>
<path d="M592.748 248.157H577.39V273.562H592.748V248.157Z" fill="#27A2DB"/>
<path d="M515.319 153.194H499.961L515.319 127.788V153.194Z" fill="#3EA69B"/>
<path d="M541.126 153.194H525.768L541.126 127.788V153.194Z" fill="#3EA69B"/>
<path d="M566.933 153.194H551.575L566.933 127.788V153.194Z" fill="#3EA69B"/>
<path d="M592.74 153.194H577.382L592.74 127.788V153.194Z" fill="#3EA69B"/>
<path d="M515.319 193.317H499.961L515.319 167.911V193.317Z" fill="#3EA69B"/>
<path d="M541.126 193.317H525.768L541.126 167.911V193.317Z" fill="#3EA69B"/>
<path d="M566.933 193.317H551.575L566.933 167.911V193.317Z" fill="#2D93BA"/>
<path d="M592.74 193.317H577.382L592.74 167.911V193.317Z" fill="#2D93BA"/>
<path d="M515.319 208.025H499.961V233.43H515.319V208.025Z" fill="#44C4A1"/>
<path d="M541.125 208.025H525.767V233.43H541.125V208.025Z" fill="#44C4A1"/>
<path d="M566.934 208.025H551.576V233.43H566.934V208.025Z" fill="#27A2DB"/>
<path d="M592.748 208.025H577.39V233.43H592.748V208.025Z" fill="#27A2DB"/>
<path d="M515.319 273.563H499.961L515.319 248.157V273.563Z" fill="#3EA69B"/>
<path d="M541.126 273.563H525.768L541.126 248.157V273.563Z" fill="#3EA69B"/>
<path d="M566.933 273.563H551.575L566.933 248.157V273.563Z" fill="#2D93BA"/>
<path d="M592.74 273.563H577.382L592.74 248.157V273.563Z" fill="#2D93BA"/>
<path d="M654.174 167.65H551.576V292.234H654.174V167.65Z" fill="#D5D6DB"/>
<path d="M619.985 258.04H585.787V292.233H619.985V258.04Z" fill="#64798A"/>
<path d="M624.256 252.285H581.493V258.043H624.256V252.285Z" fill="#3A556A"/>
<path d="M574.271 179.276H560.118V203.962H574.271V179.276Z" fill="#27A2DB"/>
<path d="M598.059 179.276H583.907V203.962H598.059V179.276Z" fill="#27A2DB"/>
<path d="M621.847 179.276H607.695V203.962H621.847V179.276Z" fill="#27A2DB"/>
<path d="M645.623 179.276H631.471V203.962H645.623V179.276Z" fill="#27A2DB"/>
<path d="M574.278 203.962H560.125L574.278 179.276V203.962Z" fill="#2D93BA"/>
<path d="M598.06 203.962H583.907L598.06 179.276V203.962Z" fill="#2D93BA"/>
<path d="M621.841 203.962H607.688L621.841 179.276V203.962Z" fill="#2D93BA"/>
<path d="M645.623 203.962H631.471L645.623 179.276V203.962Z" fill="#2D93BA"/>
<path d="M574.271 215.972H560.118V240.657H574.271V215.972Z" fill="#27A2DB"/>
<path d="M598.059 215.972H583.907V240.657H598.059V215.972Z" fill="#27A2DB"/>
<path d="M621.847 215.972H607.695V240.657H621.847V215.972Z" fill="#27A2DB"/>
<path d="M645.623 215.972H631.471V240.657H645.623V215.972Z" fill="#27A2DB"/>
<path d="M645.623 252.285H631.471V276.971H645.623V252.285Z" fill="#27A2DB"/>
<path d="M574.271 252.285H560.118V276.971H574.271V252.285Z" fill="#27A2DB"/>
<path d="M574.278 240.659H560.125L574.278 215.973V240.659Z" fill="#2D93BA"/>
<path d="M598.06 240.659H583.907L598.06 215.973V240.659Z" fill="#2D93BA"/>
<path d="M621.841 240.659H607.688L621.841 215.973V240.659Z" fill="#2D93BA"/>
<path d="M645.623 240.659H631.471L645.623 215.973V240.659Z" fill="#2D93BA"/>
<path d="M645.623 276.97H631.471L645.623 252.284V276.97Z" fill="#2D93BA"/>
<path d="M574.278 276.97H560.125L574.278 252.284V276.97Z" fill="#2D93BA"/>
<path d="M661.052 302H482.949C481.564 302 480.442 300.877 480.442 299.493V294.74C480.442 293.356 481.564 292.233 482.949 292.233H661.052C662.436 292.233 663.559 293.355 663.559 294.74V299.493C663.559 300.877 662.436 302 661.052 302Z" fill="#3A556A"/>
<path d="M515.319 233.44H499.961L515.319 208.034V233.44Z" fill="#3EA69B"/>
<path d="M541.126 233.44H525.768L541.126 208.034V233.44Z" fill="#3EA69B"/>
</g>
<defs>
<clipPath id="clip0">
<rect width="117.19" height="103.324" fill="white" transform="translate(52 173.546)"/>
</clipPath>
<clipPath id="clip1">
<rect width="188" height="188" fill="white" transform="translate(478 114)"/>
</clipPath>
</defs>
</svg>
