<svg width="760" height="340" viewBox="0 0 760 340" fill="none" xmlns="http://www.w3.org/2000/svg">
<rect opacity="0.2" width="760" height="340" rx="4" fill="#F5F5F5"/>
<path d="M131.85 196H129.809V144.566L114 151.951V149.725L131.145 141.969H131.85V196Z" fill="black"/>
<path d="M198.924 196H166.602V193.996L184.303 173.586C185.342 172.374 186.43 171.087 187.568 169.727C188.706 168.366 189.745 166.931 190.686 165.422C191.65 163.913 192.442 162.354 193.061 160.746C193.679 159.113 193.988 157.443 193.988 155.736C193.988 153.782 193.654 152.038 192.986 150.504C192.343 148.945 191.428 147.634 190.24 146.57C189.077 145.482 187.692 144.653 186.084 144.084C184.476 143.515 182.719 143.23 180.814 143.23C178.811 143.23 176.992 143.602 175.359 144.344C173.727 145.086 172.316 146.1 171.129 147.387C169.966 148.648 169.051 150.133 168.383 151.84C167.715 153.522 167.344 155.316 167.27 157.221H165.266C165.34 155.044 165.76 152.99 166.527 151.061C167.319 149.106 168.395 147.411 169.756 145.977C171.117 144.517 172.725 143.367 174.58 142.525C176.46 141.66 178.538 141.227 180.814 141.227C183.016 141.227 185.045 141.561 186.9 142.229C188.756 142.872 190.364 143.824 191.725 145.086C193.085 146.348 194.137 147.882 194.879 149.688C195.646 151.469 196.029 153.485 196.029 155.736C196.029 157.666 195.658 159.534 194.916 161.34C194.199 163.146 193.296 164.89 192.207 166.572C191.118 168.255 189.919 169.863 188.607 171.396C187.321 172.93 186.084 174.378 184.896 175.738L169.236 193.996H198.924V196Z" fill="black"/>
<path d="M231.672 166.572H236.162C237.894 166.548 239.527 166.3 241.061 165.83C242.594 165.36 243.93 164.68 245.068 163.789C246.231 162.898 247.146 161.81 247.814 160.523C248.482 159.237 248.816 157.753 248.816 156.07C248.816 154.314 248.544 152.755 248 151.395C247.456 150.009 246.689 148.846 245.699 147.906C244.71 146.966 243.51 146.249 242.1 145.754C240.714 145.259 239.168 145.012 237.461 145.012C235.754 145.012 234.183 145.284 232.748 145.828C231.313 146.348 230.064 147.09 229 148.055C227.961 149.02 227.132 150.195 226.514 151.58C225.92 152.941 225.611 154.462 225.586 156.145H221.133C221.182 154.017 221.615 152.05 222.432 150.244C223.273 148.413 224.411 146.83 225.846 145.494C227.281 144.158 228.988 143.119 230.967 142.377C232.946 141.61 235.111 141.227 237.461 141.227C239.762 141.227 241.877 141.573 243.807 142.266C245.736 142.934 247.394 143.911 248.779 145.197C250.189 146.459 251.278 148.018 252.045 149.873C252.837 151.729 253.232 153.844 253.232 156.219C253.232 157.555 253.01 158.841 252.564 160.078C252.144 161.29 251.525 162.428 250.709 163.492C249.893 164.531 248.903 165.471 247.74 166.312C246.577 167.129 245.279 167.797 243.844 168.316C247.208 169.257 249.781 170.877 251.562 173.178C253.344 175.454 254.234 178.175 254.234 181.342C254.234 183.766 253.801 185.931 252.936 187.836C252.094 189.741 250.919 191.349 249.41 192.66C247.926 193.971 246.169 194.986 244.141 195.703C242.137 196.396 239.972 196.742 237.646 196.742C235.271 196.742 233.045 196.396 230.967 195.703C228.889 194.986 227.07 193.971 225.512 192.66C223.953 191.324 222.716 189.704 221.801 187.799C220.885 185.894 220.403 183.742 220.354 181.342H224.77C224.819 183.123 225.178 184.731 225.846 186.166C226.514 187.601 227.417 188.826 228.555 189.84C229.717 190.854 231.066 191.633 232.6 192.178C234.158 192.722 235.84 192.994 237.646 192.994C239.403 192.994 241.023 192.747 242.508 192.252C244.017 191.757 245.303 191.027 246.367 190.062C247.456 189.098 248.297 187.898 248.891 186.463C249.509 185.028 249.818 183.37 249.818 181.49C249.818 179.511 249.447 177.829 248.705 176.443C247.988 175.033 247.01 173.883 245.773 172.992C244.536 172.102 243.089 171.446 241.432 171.025C239.774 170.605 238.018 170.382 236.162 170.357H231.672V166.572Z" fill="black"/>
<path d="M305.352 178.596H313.812V182.344H305.352V196H300.936V182.344H275.516V179.82L300.49 141.969H305.352V178.596ZM280.859 178.596H300.936V147.572L298.82 151.32L280.859 178.596Z" fill="black"/>
<path d="M336.949 168.91L339.658 141.969H367.379V148.648H345.447L343.926 163.047C344.99 162.428 346.264 161.884 347.748 161.414C349.232 160.944 350.952 160.709 352.906 160.709C355.405 160.709 357.644 161.142 359.623 162.008C361.602 162.874 363.285 164.098 364.67 165.682C366.055 167.24 367.119 169.133 367.861 171.359C368.604 173.586 368.975 176.06 368.975 178.781C368.975 181.354 368.628 183.742 367.936 185.943C367.243 188.145 366.191 190.05 364.781 191.658C363.396 193.242 361.639 194.491 359.512 195.406C357.384 196.297 354.885 196.742 352.016 196.742C349.814 196.742 347.736 196.433 345.781 195.814C343.827 195.196 342.083 194.268 340.549 193.031C339.04 191.794 337.79 190.236 336.801 188.355C335.836 186.475 335.23 184.286 334.982 181.787H341.514C341.934 184.855 343.06 187.18 344.891 188.764C346.746 190.347 349.121 191.139 352.016 191.139C353.648 191.139 355.096 190.854 356.357 190.285C357.619 189.691 358.671 188.863 359.512 187.799C360.378 186.71 361.021 185.411 361.441 183.902C361.887 182.393 362.109 180.711 362.109 178.855C362.109 177.173 361.862 175.602 361.367 174.143C360.897 172.683 360.204 171.421 359.289 170.357C358.374 169.269 357.248 168.415 355.912 167.797C354.576 167.178 353.042 166.869 351.311 166.869C350.173 166.869 349.183 166.956 348.342 167.129C347.525 167.277 346.783 167.5 346.115 167.797C345.447 168.094 344.816 168.452 344.223 168.873C343.654 169.294 343.06 169.776 342.441 170.32L336.949 168.91Z" fill="black"/>
<path d="M415.453 141.932V148.092H414.859C412.583 148.092 410.542 148.327 408.736 148.797C406.955 149.267 405.384 149.91 404.023 150.727C402.663 151.543 401.488 152.52 400.498 153.658C399.533 154.771 398.729 155.996 398.086 157.332C397.443 158.668 396.948 160.066 396.602 161.525C396.255 162.985 396.033 164.469 395.934 165.979C396.577 165.212 397.319 164.507 398.16 163.863C399.001 163.195 399.904 162.626 400.869 162.156C401.859 161.661 402.91 161.278 404.023 161.006C405.161 160.709 406.349 160.561 407.586 160.561C410.283 160.561 412.608 161.08 414.562 162.119C416.517 163.133 418.125 164.482 419.387 166.164C420.648 167.846 421.576 169.751 422.17 171.879C422.764 174.007 423.061 176.171 423.061 178.373C423.061 180.896 422.702 183.271 421.984 185.498C421.292 187.725 420.24 189.679 418.83 191.361C417.42 193.019 415.663 194.33 413.561 195.295C411.482 196.26 409.07 196.742 406.324 196.742C404.37 196.742 402.576 196.458 400.943 195.889C399.335 195.32 397.888 194.553 396.602 193.588C395.315 192.598 394.189 191.436 393.225 190.1C392.26 188.764 391.456 187.329 390.812 185.795C390.194 184.261 389.724 182.665 389.402 181.008C389.081 179.35 388.92 177.693 388.92 176.035V172.807C388.92 170.333 389.068 167.859 389.365 165.385C389.687 162.886 390.219 160.499 390.961 158.223C391.703 155.947 392.705 153.819 393.967 151.84C395.229 149.836 396.812 148.104 398.717 146.645C400.646 145.185 402.935 144.035 405.582 143.193C408.229 142.352 411.322 141.932 414.859 141.932H415.453ZM406.473 166.275C405.31 166.275 404.184 166.461 403.096 166.832C402.007 167.203 400.993 167.723 400.053 168.391C399.113 169.059 398.284 169.863 397.566 170.803C396.849 171.743 396.28 172.782 395.859 173.92V176.221C395.859 178.596 396.144 180.711 396.713 182.566C397.282 184.397 398.049 185.943 399.014 187.205C399.979 188.467 401.092 189.432 402.354 190.1C403.615 190.743 404.939 191.064 406.324 191.064C407.932 191.064 409.355 190.755 410.592 190.137C411.829 189.518 412.868 188.665 413.709 187.576C414.575 186.488 415.218 185.189 415.639 183.68C416.084 182.146 416.307 180.488 416.307 178.707C416.307 177.124 416.109 175.59 415.713 174.105C415.317 172.596 414.711 171.26 413.895 170.098C413.078 168.935 412.051 168.007 410.814 167.314C409.577 166.622 408.13 166.275 406.473 166.275Z" fill="black"/>
<path d="M480.004 146.904L458.369 196H449.018L470.652 149.354H442.635V141.969H480.004V146.904Z" fill="black"/>
<path d="M534.424 156.219C534.424 158.866 533.743 161.229 532.383 163.307C531.022 165.36 529.167 166.98 526.816 168.168C528.152 168.786 529.352 169.541 530.416 170.432C531.505 171.322 532.432 172.324 533.199 173.438C533.966 174.551 534.548 175.775 534.943 177.111C535.364 178.423 535.574 179.82 535.574 181.305C535.574 183.803 535.117 186.018 534.201 187.947C533.286 189.877 532.036 191.497 530.453 192.809C528.87 194.095 527.002 195.072 524.85 195.74C522.722 196.408 520.434 196.742 517.984 196.742C515.486 196.742 513.148 196.408 510.971 195.74C508.818 195.072 506.951 194.095 505.367 192.809C503.784 191.497 502.535 189.877 501.619 187.947C500.729 186.018 500.283 183.803 500.283 181.305C500.283 179.82 500.481 178.41 500.877 177.074C501.298 175.738 501.879 174.514 502.621 173.4C503.388 172.287 504.303 171.285 505.367 170.395C506.456 169.504 507.668 168.762 509.004 168.168C506.678 166.98 504.848 165.36 503.512 163.307C502.176 161.229 501.508 158.866 501.508 156.219C501.508 153.819 501.916 151.691 502.732 149.836C503.549 147.956 504.674 146.385 506.109 145.123C507.569 143.837 509.301 142.872 511.305 142.229C513.309 141.561 515.498 141.227 517.873 141.227C520.248 141.227 522.438 141.561 524.441 142.229C526.47 142.872 528.227 143.837 529.711 145.123C531.195 146.385 532.346 147.956 533.162 149.836C534.003 151.691 534.424 153.819 534.424 156.219ZM526.705 180.859C526.705 179.499 526.495 178.262 526.074 177.148C525.654 176.035 525.06 175.083 524.293 174.291C523.526 173.499 522.598 172.893 521.51 172.473C520.446 172.027 519.246 171.805 517.91 171.805C516.574 171.805 515.362 172.027 514.273 172.473C513.21 172.893 512.294 173.499 511.527 174.291C510.785 175.083 510.204 176.035 509.783 177.148C509.387 178.262 509.189 179.499 509.189 180.859C509.189 183.63 509.969 185.795 511.527 187.354C513.086 188.887 515.238 189.654 517.984 189.654C519.271 189.654 520.446 189.456 521.51 189.061C522.598 188.665 523.526 188.083 524.293 187.316C525.06 186.549 525.654 185.634 526.074 184.57C526.495 183.482 526.705 182.245 526.705 180.859ZM525.555 156.516C525.555 155.328 525.369 154.24 524.998 153.25C524.627 152.236 524.107 151.37 523.439 150.652C522.771 149.935 521.955 149.378 520.99 148.982C520.05 148.587 519.011 148.389 517.873 148.389C516.71 148.389 515.659 148.574 514.719 148.945C513.803 149.316 513.024 149.861 512.381 150.578C511.738 151.271 511.243 152.124 510.896 153.139C510.55 154.128 510.377 155.254 510.377 156.516C510.377 157.753 510.55 158.878 510.896 159.893C511.268 160.882 511.775 161.736 512.418 162.453C513.086 163.146 513.89 163.69 514.83 164.086C515.77 164.482 516.822 164.68 517.984 164.68C519.122 164.68 520.161 164.482 521.102 164.086C522.042 163.69 522.833 163.146 523.477 162.453C524.145 161.736 524.652 160.882 524.998 159.893C525.369 158.878 525.555 157.753 525.555 156.516Z" fill="black"/>
<path d="M562.941 187.799C565.712 187.799 568.112 187.502 570.141 186.908C572.169 186.314 573.864 185.461 575.225 184.348C576.61 183.21 577.674 181.837 578.416 180.229C579.183 178.596 579.678 176.753 579.9 174.699C578.861 175.738 577.525 176.629 575.893 177.371C574.26 178.113 572.281 178.484 569.955 178.484C567.382 178.484 565.118 178.014 563.164 177.074C561.21 176.134 559.564 174.848 558.229 173.215C556.917 171.582 555.915 169.665 555.223 167.463C554.555 165.236 554.221 162.849 554.221 160.301C554.221 157.678 554.629 155.217 555.445 152.916C556.286 150.59 557.486 148.562 559.045 146.83C560.604 145.098 562.484 143.738 564.686 142.748C566.912 141.734 569.411 141.227 572.182 141.227C575.002 141.227 577.538 141.771 579.789 142.859C582.04 143.948 583.945 145.469 585.504 147.424C587.087 149.378 588.287 151.704 589.104 154.4C589.945 157.097 590.365 160.053 590.365 163.27V166.832C590.365 171.137 589.833 175.095 588.77 178.707C587.706 182.319 586.061 185.449 583.834 188.096C581.607 190.718 578.775 192.771 575.336 194.256C571.897 195.715 567.79 196.445 563.016 196.445H562.236V187.799H562.941ZM572.404 170.506C573.344 170.506 574.21 170.37 575.002 170.098C575.818 169.826 576.548 169.454 577.191 168.984C577.859 168.49 578.428 167.921 578.898 167.277C579.393 166.609 579.789 165.892 580.086 165.125V161.451C580.086 159.472 579.876 157.74 579.455 156.256C579.059 154.771 578.503 153.535 577.785 152.545C577.068 151.555 576.227 150.813 575.262 150.318C574.297 149.824 573.258 149.576 572.145 149.576C570.932 149.576 569.844 149.873 568.879 150.467C567.939 151.036 567.147 151.815 566.504 152.805C565.861 153.77 565.366 154.895 565.02 156.182C564.673 157.443 564.5 158.767 564.5 160.152C564.5 161.538 564.661 162.861 564.982 164.123C565.304 165.385 565.786 166.486 566.43 167.426C567.098 168.366 567.926 169.12 568.916 169.689C569.906 170.234 571.068 170.506 572.404 170.506Z" fill="black"/>
<path d="M646.678 175.441C646.678 178.93 646.27 182.01 645.453 184.682C644.661 187.329 643.511 189.555 642.002 191.361C640.493 193.143 638.65 194.491 636.473 195.406C634.296 196.322 631.846 196.779 629.125 196.779C626.428 196.779 623.992 196.322 621.814 195.406C619.637 194.491 617.782 193.143 616.248 191.361C614.739 189.555 613.564 187.329 612.723 184.682C611.906 182.01 611.498 178.93 611.498 175.441V162.527C611.498 159.039 611.906 155.971 612.723 153.324C613.539 150.652 614.702 148.426 616.211 146.645C617.745 144.839 619.588 143.478 621.74 142.562C623.917 141.647 626.354 141.189 629.051 141.189C631.772 141.189 634.221 141.647 636.398 142.562C638.576 143.478 640.419 144.839 641.928 146.645C643.462 148.426 644.637 150.652 645.453 153.324C646.27 155.971 646.678 159.039 646.678 162.527V175.441ZM621.889 170.988L636.287 160.264C636.213 156.627 635.582 153.93 634.395 152.174C633.207 150.417 631.426 149.539 629.051 149.539C626.651 149.539 624.857 150.467 623.67 152.322C622.482 154.178 621.889 157.035 621.889 160.895V170.988ZM636.287 167.277L621.889 177.965C622.012 181.527 622.668 184.174 623.855 185.906C625.043 187.613 626.799 188.467 629.125 188.467C631.549 188.467 633.343 187.527 634.506 185.646C635.693 183.766 636.287 180.884 636.287 177V167.277Z" fill="black"/>
</svg>
