<svg width="760" height="331" viewBox="0 0 760 331" fill="none" xmlns="http://www.w3.org/2000/svg">
<rect opacity="0.2" width="760" height="331" rx="4" fill="#F5F5F5"/>
<circle cx="110" cy="166" r="22" fill="#EAFAFD"/>
<circle cx="140" cy="166" r="22" fill="#08BEE5"/>
<circle cx="170" cy="166" r="22" fill="#11ABCC"/>
<circle cx="200" cy="166" r="22" fill="#0792AF"/>
<circle cx="230" cy="166" r="22" fill="#9CF7F3"/>
<circle cx="260" cy="166" r="22" fill="#3FE8E0"/>
<circle cx="290" cy="166" r="22" fill="#26B4AD"/>
<circle cx="320" cy="166" r="22" fill="#CCBDF4"/>
<circle cx="350" cy="166" r="22" fill="#7C80F2"/>
<circle cx="380" cy="166" r="22" fill="#4D22DF"/>
<circle cx="410" cy="166" r="22" fill="#9DBEFF"/>
<circle cx="440" cy="166" r="22" fill="#3E7BF6"/>
<circle cx="470" cy="166" r="22" fill="#3361EB"/>
<circle cx="500" cy="166" r="22" fill="#FEF4A8"/>
<circle cx="530" cy="166" r="22" fill="#F7D858"/>
<circle cx="560" cy="166" r="22" fill="#F2C14F"/>
<circle cx="590" cy="166" r="22" fill="#FCC2AA"/>
<circle cx="620" cy="166" r="22" fill="#F08658"/>
<circle cx="650" cy="166" r="22" fill="#D26C41"/>
</svg>
