<svg width="381" height="304" viewBox="0 0 381 304" fill="none" xmlns="http://www.w3.org/2000/svg">
<rect x="0.5" y="0.5" width="380" height="303" stroke="#DDE4E9"/>
<path d="M187.772 110H196.628L175.964 52.6H167.19L146.444 110H155.3L159.974 96.798H183.18L187.772 110ZM180.556 89.254H162.598L169.65 69.738C170.306 67.852 171.126 65.228 171.618 63.26C172.028 65.228 172.93 67.934 173.586 69.738L180.556 89.254ZM229.789 110H237.989V82.858C237.989 68.918 229.133 67.114 221.999 67.114C215.111 67.114 209.781 69.082 206.337 71.46L208.879 78.43C211.995 76.134 215.603 74.658 220.851 74.658C227.001 74.658 229.789 76.954 229.789 83.268V85.564C227.001 83.924 223.311 83.104 219.457 83.104C211.257 83.104 203.385 87.286 203.385 96.962C203.385 106.228 209.781 110.984 218.309 110.984C223.885 110.984 227.657 108.606 229.789 106.392V110ZM219.867 103.44C214.455 103.44 211.585 100.898 211.585 96.962C211.585 92.37 215.767 90.484 220.851 90.484C224.131 90.484 227.493 91.304 229.789 92.534V98.93C227.575 101.39 224.213 103.44 219.867 103.44Z" fill="#30404F"/>
<path d="M137.356 169.384C144.556 169.384 147.116 163.336 147.116 157.8C147.116 152.264 144.556 146.216 137.356 146.216C130.156 146.216 127.596 152.264 127.596 157.8C127.596 163.336 130.156 169.384 137.356 169.384ZM137.356 166.184C132.684 166.184 131.052 161.704 131.052 157.8C131.052 154.152 132.684 149.416 137.356 149.416C142.028 149.416 143.66 153.896 143.66 157.8C143.66 161.448 142.028 166.184 137.356 166.184ZM155.987 169H159.091L165.075 152.648H161.747L158.003 163.368C157.811 163.944 157.683 164.296 157.555 164.808C157.427 164.296 157.299 163.944 157.107 163.368L153.331 152.648H150.003L155.987 169ZM174.915 169.384C177.475 169.384 179.331 168.424 180.515 167.016L178.339 164.776C177.507 165.864 176.291 166.44 174.947 166.44C172.835 166.44 170.883 164.744 170.819 162.056H181.827C181.923 161.48 181.955 160.616 181.955 159.912C181.955 154.696 178.787 152.264 174.915 152.264C170.435 152.264 167.491 155.432 167.491 160.808C167.491 166.184 170.371 169.384 174.915 169.384ZM170.819 159.368C170.979 156.328 172.835 155.208 174.915 155.208C176.675 155.208 178.563 156.328 178.627 159.368H170.819ZM185.791 169H189.119V159.816C189.119 156.456 190.975 155.528 192.447 155.528C193.631 155.528 194.431 155.912 195.039 156.328L195.519 153.256C194.783 152.616 193.855 152.264 192.767 152.264C191.135 152.264 189.887 152.968 189.119 154.632V152.648H185.791V169ZM205.773 169.384C209.773 169.384 212.493 166.216 212.493 160.84C212.493 155.464 209.901 152.264 205.773 152.264C203.885 152.264 202.701 153 201.837 153.96V152.648H198.509V175.432L201.837 173.896V167.592C202.637 168.584 203.853 169.384 205.773 169.384ZM205.293 166.248C203.725 166.248 202.573 165.352 201.837 164.36V157.256C202.573 156.072 203.757 155.4 205.293 155.4C207.757 155.4 209.165 157.672 209.165 160.84C209.165 164.328 207.789 166.248 205.293 166.248ZM225.822 169H229.022V158.408C229.022 152.968 225.566 152.264 222.782 152.264C220.094 152.264 218.014 153.032 216.67 153.96L217.662 156.68C218.878 155.784 220.286 155.208 222.334 155.208C224.734 155.208 225.822 156.104 225.822 158.568V159.464C224.734 158.824 223.294 158.504 221.79 158.504C218.59 158.504 215.518 160.136 215.518 163.912C215.518 167.528 218.014 169.384 221.342 169.384C223.518 169.384 224.99 168.456 225.822 167.592V169ZM221.95 166.44C219.838 166.44 218.718 165.448 218.718 163.912C218.718 162.12 220.35 161.384 222.334 161.384C223.614 161.384 224.926 161.704 225.822 162.184V164.68C224.958 165.64 223.646 166.44 221.95 166.44ZM238.565 169.384C242.277 169.384 244.709 167.752 244.709 164.616C244.709 161.672 242.853 160.264 239.333 159.08C237.605 158.408 236.165 157.864 236.165 156.776C236.165 155.816 237.061 155.272 238.469 155.272C240.197 155.272 241.221 156.04 241.797 156.648L244.197 154.728C243.141 153.448 241.285 152.264 238.469 152.264C235.301 152.264 232.773 153.864 232.773 156.776C232.773 159.4 234.533 160.872 237.989 162.024C239.813 162.728 241.381 163.304 241.381 164.616C241.381 165.928 240.165 166.376 238.501 166.376C236.677 166.376 235.429 165.352 234.757 164.712L232.389 166.728C233.541 168.36 236.005 169.384 238.565 169.384ZM253.753 169.384C257.465 169.384 259.897 167.752 259.897 164.616C259.897 161.672 258.041 160.264 254.521 159.08C252.793 158.408 251.353 157.864 251.353 156.776C251.353 155.816 252.249 155.272 253.657 155.272C255.385 155.272 256.409 156.04 256.985 156.648L259.385 154.728C258.329 153.448 256.473 152.264 253.657 152.264C250.489 152.264 247.961 153.864 247.961 156.776C247.961 159.4 249.721 160.872 253.177 162.024C255.001 162.728 256.569 163.304 256.569 164.616C256.569 165.928 255.353 166.376 253.689 166.376C251.865 166.376 250.617 165.352 249.945 164.712L247.577 166.728C248.729 168.36 251.193 169.384 253.753 169.384Z" fill="#30404F"/>
<g filter="url(#filter0_d)">
<rect x="113" y="214" width="154" height="48" rx="4" fill="white"/>
</g>
<rect width="24" height="24" transform="translate(129 226)" fill="white"/>
<path d="M145.903 238.171C145.546 238.171 145.256 238.46 145.256 238.817V243.719C145.256 244.264 144.813 244.707 144.268 244.707H135.28C134.736 244.707 134.293 244.264 134.293 243.719V234.732C134.293 234.187 134.736 233.744 135.28 233.744H140.183C140.54 233.744 140.829 233.454 140.829 233.097C140.829 232.741 140.54 232.451 140.183 232.451H135.28C134.023 232.451 133 233.474 133 234.732V243.719C133 244.977 134.023 246 135.28 246H144.268C145.526 246 146.549 244.977 146.549 243.719V238.817C146.549 238.46 146.259 238.171 145.903 238.171Z" fill="#08BEE5" stroke="#08BEE5" stroke-width="0.1"/>
<path d="M148.354 230H143.451C143.094 230 142.805 230.289 142.805 230.646C142.805 231.003 143.094 231.293 143.451 231.293H147.707V235.549C147.707 235.906 147.997 236.195 148.354 236.195C148.711 236.195 149 235.906 149 235.549V230.646C149 230.289 148.711 230 148.354 230Z" fill="#08BEE5" stroke="#08BEE5" stroke-width="0.1"/>
<path d="M148.811 230.19C148.558 229.937 148.149 229.937 147.897 230.19L138.909 239.178C138.656 239.43 138.656 239.839 138.909 240.092C139.035 240.218 139.2 240.281 139.366 240.281C139.531 240.281 139.697 240.218 139.823 240.092L148.811 231.104C149.063 230.851 149.063 230.442 148.811 230.19Z" fill="#08BEE5" stroke="#08BEE5" stroke-width="0.1"/>
<path d="M162.484 231.961H170.062V233.227H163.859V236.828H169.32V238.102H163.859V243H162.484V231.961ZM174.547 243.133C173.802 243.133 173.138 242.953 172.555 242.594C171.971 242.229 171.516 241.74 171.188 241.125C170.865 240.505 170.703 239.823 170.703 239.078C170.703 238.339 170.865 237.664 171.188 237.055C171.516 236.44 171.971 235.956 172.555 235.602C173.138 235.242 173.802 235.062 174.547 235.062C175.292 235.062 175.956 235.242 176.539 235.602C177.128 235.956 177.586 236.44 177.914 237.055C178.242 237.669 178.406 238.344 178.406 239.078C178.406 239.823 178.242 240.505 177.914 241.125C177.586 241.74 177.128 242.229 176.539 242.594C175.956 242.953 175.292 243.133 174.547 243.133ZM174.547 241.984C175.068 241.984 175.516 241.854 175.891 241.594C176.266 241.333 176.549 240.984 176.742 240.547C176.935 240.104 177.031 239.615 177.031 239.078C177.031 238.547 176.935 238.065 176.742 237.633C176.549 237.195 176.266 236.849 175.891 236.594C175.516 236.339 175.068 236.211 174.547 236.211C174.031 236.211 173.586 236.339 173.211 236.594C172.841 236.844 172.56 237.188 172.367 237.625C172.174 238.057 172.078 238.542 172.078 239.078C172.078 239.615 172.174 240.104 172.367 240.547C172.56 240.99 172.841 241.341 173.211 241.602C173.586 241.857 174.031 241.984 174.547 241.984ZM180.344 235.195H181.664V236.383C181.924 235.951 182.266 235.622 182.688 235.398C183.109 235.174 183.565 235.062 184.055 235.062C184.664 235.062 185.172 235.201 185.578 235.477C185.99 235.747 186.294 236.115 186.492 236.578C186.695 237.042 186.802 237.562 186.812 238.141V243H185.492V238.383C185.492 237.727 185.339 237.214 185.031 236.844C184.724 236.474 184.279 236.289 183.695 236.289C183.06 236.289 182.562 236.479 182.203 236.859C181.844 237.234 181.664 237.781 181.664 238.5V243H180.344V235.195ZM191.734 243.133C191.021 243.133 190.471 242.932 190.086 242.531C189.701 242.125 189.508 241.555 189.508 240.82V236.312H188.219V235.195H189.523V233.039L190.828 232.086V235.195H192.938V236.312H190.828V240.602C190.828 241.081 190.922 241.427 191.109 241.641C191.302 241.854 191.586 241.961 191.961 241.961C192.128 241.961 192.297 241.94 192.469 241.898C192.646 241.852 192.799 241.799 192.93 241.742L192.938 242.945C192.802 242.997 192.625 243.042 192.406 243.078C192.188 243.115 191.964 243.133 191.734 243.133ZM199.203 231.961H206.781V233.227H200.578V236.828H206.039V238.102H200.578V243H199.203V231.961ZM210.805 235.062C211.477 235.062 212.052 235.193 212.531 235.453C213.016 235.708 213.383 236.076 213.633 236.555C213.883 237.034 214.008 237.596 214.008 238.242V243H212.906L212.82 241.609C212.555 242.099 212.177 242.477 211.688 242.742C211.198 243.003 210.674 243.133 210.117 243.133C209.586 243.133 209.112 243.036 208.695 242.844C208.284 242.646 207.961 242.365 207.727 242C207.492 241.63 207.375 241.193 207.375 240.688C207.375 239.911 207.656 239.346 208.219 238.992C208.786 238.633 209.578 238.453 210.594 238.453H212.805C212.799 237.932 212.734 237.51 212.609 237.188C212.484 236.859 212.276 236.617 211.984 236.461C211.698 236.299 211.31 236.219 210.82 236.219C209.93 236.219 209.221 236.625 208.695 237.438L207.68 236.703C208.076 236.161 208.523 235.753 209.023 235.477C209.523 235.201 210.117 235.062 210.805 235.062ZM210.375 242C211.01 242 211.539 241.81 211.961 241.43C212.388 241.044 212.669 240.544 212.805 239.93V239.422H210.672C210.031 239.422 209.547 239.539 209.219 239.773C208.896 240.008 208.734 240.328 208.734 240.734C208.734 241.12 208.878 241.427 209.164 241.656C209.451 241.885 209.854 242 210.375 242ZM216.406 235.195H217.688V236.422C217.906 235.964 218.214 235.622 218.609 235.398C219.005 235.174 219.456 235.062 219.961 235.062C220.523 235.062 221.013 235.195 221.43 235.461C221.846 235.721 222.146 236.125 222.328 236.672C222.578 236.135 222.924 235.734 223.367 235.469C223.815 235.198 224.32 235.062 224.883 235.062C225.497 235.062 226.008 235.206 226.414 235.492C226.82 235.779 227.12 236.172 227.312 236.672C227.51 237.172 227.609 237.747 227.609 238.398V243H226.281V238.555C226.281 237.82 226.151 237.26 225.891 236.875C225.635 236.49 225.214 236.297 224.625 236.297C224.234 236.297 223.891 236.393 223.594 236.586C223.297 236.773 223.068 237.034 222.906 237.367C222.75 237.695 222.672 238.068 222.672 238.484V243H221.352V238.359C221.352 237.708 221.219 237.203 220.953 236.844C220.688 236.479 220.271 236.297 219.703 236.297C219.307 236.297 218.961 236.393 218.664 236.586C218.367 236.773 218.138 237.034 217.977 237.367C217.82 237.695 217.742 238.068 217.742 238.484V243H216.414L216.406 235.195ZM229.984 231.961H231.367V233.617H229.984V231.961ZM230.016 235.195H231.336V243H230.016V235.195ZM235.414 243.133C234.893 243.133 234.51 242.992 234.266 242.711C234.026 242.424 233.906 241.982 233.906 241.383V231.961H235.234V241.031C235.234 241.323 235.289 241.547 235.398 241.703C235.508 241.859 235.711 241.938 236.008 241.938C236.169 241.938 236.37 241.917 236.609 241.875L236.617 242.992C236.185 243.086 235.784 243.133 235.414 243.133ZM240.398 242.867L237.164 235.195H238.625L241.102 241.336L243.367 235.195H244.82L240.477 246.352H239.031L240.398 242.867Z" fill="#637381"/>
<defs>
<filter id="filter0_d" x="109" y="212" width="162" height="56" filterUnits="userSpaceOnUse" color-interpolation-filters="sRGB">
<feFlood flood-opacity="0" result="BackgroundImageFix"/>
<feColorMatrix in="SourceAlpha" type="matrix" values="0 0 0 0 0 0 0 0 0 0 0 0 0 0 0 0 0 0 127 0"/>
<feOffset dy="2"/>
<feGaussianBlur stdDeviation="2"/>
<feColorMatrix type="matrix" values="0 0 0 0 0 0 0 0 0 0 0 0 0 0 0 0 0 0 0.1 0"/>
<feBlend mode="normal" in2="BackgroundImageFix" result="effect1_dropShadow"/>
<feBlend mode="normal" in="SourceGraphic" in2="effect1_dropShadow" result="shape"/>
</filter>
</defs>
</svg>
