<svg width="381" height="304" viewBox="0 0 381 304" fill="none" xmlns="http://www.w3.org/2000/svg">
<rect x="0.5" y="0.5" width="380" height="303" stroke="#DDE4E9"/>
<path d="M174.233 95.4668H156.016L152.012 109H142.082L161.021 50.7031H169.469L188.047 109H178.157L174.233 95.4668ZM158.458 87.2588H171.831L165.225 64.3965L158.458 87.2588Z" fill="#30404F"/>
<path d="M223.081 109C222.814 108.466 222.587 107.839 222.4 107.118C222.24 106.397 222.093 105.623 221.96 104.796C221.293 105.49 220.532 106.144 219.678 106.758C218.85 107.345 217.916 107.866 216.875 108.319C215.861 108.773 214.753 109.133 213.552 109.4C212.377 109.667 211.109 109.801 209.748 109.801C207.452 109.801 205.37 109.48 203.502 108.84C201.66 108.173 200.072 107.265 198.737 106.117C197.429 104.943 196.415 103.568 195.694 101.993C194.974 100.418 194.613 98.71 194.613 96.8682C194.613 92.2236 196.335 88.6735 199.778 86.2178C203.248 83.762 208.213 82.5342 214.673 82.5342H221.68V79.6914C221.68 77.3958 220.906 75.5807 219.357 74.2461C217.809 72.8848 215.62 72.2041 212.791 72.2041C211.51 72.2041 210.389 72.3643 209.428 72.6846C208.467 72.9782 207.666 73.3919 207.025 73.9258C206.385 74.4596 205.904 75.0869 205.584 75.8076C205.264 76.5283 205.104 77.3024 205.104 78.1299H195.534C195.534 76.4482 195.921 74.82 196.695 73.2451C197.496 71.6436 198.657 70.2288 200.179 69.001C201.7 67.7464 203.555 66.7454 205.744 65.998C207.96 65.2507 210.482 64.877 213.312 64.877C215.874 64.877 218.25 65.1973 220.438 65.8379C222.627 66.4518 224.522 67.3861 226.124 68.6406C227.726 69.8685 228.98 71.4167 229.888 73.2852C230.795 75.127 231.249 77.2891 231.249 79.7715V99.0703C231.249 100.965 231.382 102.701 231.649 104.275C231.943 105.824 232.357 107.172 232.891 108.319V109H223.081ZM211.55 102.073C212.778 102.073 213.925 101.926 214.993 101.633C216.088 101.312 217.062 100.912 217.916 100.432C218.797 99.9245 219.544 99.3506 220.158 98.71C220.799 98.0693 221.306 97.4154 221.68 96.748V88.6201H215.594C211.697 88.6201 208.814 89.2474 206.945 90.502C205.104 91.7565 204.183 93.5449 204.183 95.8672C204.183 96.748 204.329 97.5755 204.623 98.3496C204.917 99.097 205.357 99.751 205.944 100.312C206.558 100.845 207.319 101.272 208.227 101.593C209.161 101.913 210.269 102.073 211.55 102.073Z" fill="#30404F"/>
<path d="M93.75 160.125H89.9375V169H86.1875V146.25H93.375C94.5417 146.26 95.6146 146.411 96.5938 146.703C97.5833 146.984 98.4375 147.411 99.1562 147.984C99.875 148.547 100.432 149.255 100.828 150.109C101.224 150.964 101.422 151.964 101.422 153.109C101.422 153.88 101.318 154.583 101.109 155.219C100.911 155.844 100.63 156.411 100.266 156.922C99.901 157.432 99.4635 157.88 98.9531 158.266C98.4427 158.651 97.8802 158.979 97.2656 159.25L102.078 168.812V169H98.0781L93.75 160.125ZM89.9375 157.094H93.3906C94.0156 157.094 94.5885 157.005 95.1094 156.828C95.6302 156.651 96.0781 156.401 96.4531 156.078C96.8385 155.745 97.1354 155.344 97.3438 154.875C97.5521 154.396 97.6562 153.849 97.6562 153.234C97.6562 152.599 97.5573 152.036 97.3594 151.547C97.1615 151.057 96.875 150.646 96.5 150.312C96.1354 149.979 95.6875 149.729 95.1562 149.562C94.625 149.385 94.0312 149.292 93.375 149.281H89.9375V157.094Z" fill="#30404F"/>
<path d="M104.75 160.391C104.75 159.172 104.927 158.036 105.281 156.984C105.646 155.932 106.161 155.021 106.828 154.25C107.505 153.479 108.328 152.875 109.297 152.438C110.266 152 111.365 151.781 112.594 151.781C113.833 151.781 114.938 152 115.906 152.438C116.885 152.875 117.708 153.479 118.375 154.25C119.052 155.021 119.568 155.932 119.922 156.984C120.276 158.036 120.453 159.172 120.453 160.391V160.719C120.453 161.948 120.276 163.089 119.922 164.141C119.568 165.193 119.052 166.104 118.375 166.875C117.708 167.635 116.891 168.234 115.922 168.672C114.953 169.109 113.854 169.328 112.625 169.328C111.385 169.328 110.276 169.109 109.297 168.672C108.328 168.234 107.505 167.635 106.828 166.875C106.161 166.104 105.646 165.193 105.281 164.141C104.927 163.089 104.75 161.948 104.75 160.719V160.391ZM108.484 160.719C108.484 161.49 108.562 162.214 108.719 162.891C108.885 163.568 109.135 164.167 109.469 164.688C109.812 165.198 110.245 165.604 110.766 165.906C111.286 166.198 111.906 166.344 112.625 166.344C113.323 166.344 113.927 166.198 114.438 165.906C114.958 165.604 115.385 165.198 115.719 164.688C116.062 164.167 116.312 163.568 116.469 162.891C116.635 162.214 116.719 161.49 116.719 160.719V160.391C116.719 159.641 116.635 158.927 116.469 158.25C116.312 157.573 116.062 156.979 115.719 156.469C115.385 155.958 114.958 155.552 114.438 155.25C113.927 154.948 113.312 154.797 112.594 154.797C111.885 154.797 111.271 154.948 110.75 155.25C110.229 155.552 109.802 155.958 109.469 156.469C109.135 156.979 108.885 157.573 108.719 158.25C108.562 158.927 108.484 159.641 108.484 160.391V160.719Z" fill="#30404F"/>
<path d="M139.516 160.734C139.516 161.984 139.37 163.135 139.078 164.188C138.797 165.229 138.375 166.13 137.812 166.891C137.25 167.651 136.557 168.245 135.734 168.672C134.911 169.099 133.964 169.312 132.891 169.312C131.859 169.312 130.964 169.13 130.203 168.766C129.453 168.401 128.807 167.875 128.266 167.188L128.094 169H124.703V145H128.438V153.703C128.969 153.089 129.594 152.615 130.312 152.281C131.031 151.948 131.88 151.781 132.859 151.781C133.943 151.781 134.896 151.995 135.719 152.422C136.552 152.839 137.25 153.427 137.812 154.188C138.375 154.948 138.797 155.859 139.078 156.922C139.37 157.974 139.516 159.135 139.516 160.406V160.734ZM135.781 160.406C135.781 159.656 135.714 158.948 135.578 158.281C135.453 157.604 135.24 157.01 134.938 156.5C134.646 155.99 134.25 155.589 133.75 155.297C133.25 154.995 132.635 154.844 131.906 154.844C131.021 154.844 130.297 155.047 129.734 155.453C129.172 155.859 128.74 156.391 128.438 157.047V164.031C128.74 164.688 129.172 165.224 129.734 165.641C130.307 166.057 131.042 166.266 131.938 166.266C132.646 166.266 133.245 166.125 133.734 165.844C134.224 165.552 134.62 165.156 134.922 164.656C135.224 164.156 135.443 163.573 135.578 162.906C135.714 162.229 135.781 161.505 135.781 160.734V160.406Z" fill="#30404F"/>
<path d="M143.188 160.391C143.188 159.172 143.365 158.036 143.719 156.984C144.083 155.932 144.599 155.021 145.266 154.25C145.943 153.479 146.766 152.875 147.734 152.438C148.703 152 149.802 151.781 151.031 151.781C152.271 151.781 153.375 152 154.344 152.438C155.323 152.875 156.146 153.479 156.812 154.25C157.49 155.021 158.005 155.932 158.359 156.984C158.714 158.036 158.891 159.172 158.891 160.391V160.719C158.891 161.948 158.714 163.089 158.359 164.141C158.005 165.193 157.49 166.104 156.812 166.875C156.146 167.635 155.328 168.234 154.359 168.672C153.391 169.109 152.292 169.328 151.062 169.328C149.823 169.328 148.714 169.109 147.734 168.672C146.766 168.234 145.943 167.635 145.266 166.875C144.599 166.104 144.083 165.193 143.719 164.141C143.365 163.089 143.188 161.948 143.188 160.719V160.391ZM146.922 160.719C146.922 161.49 147 162.214 147.156 162.891C147.323 163.568 147.573 164.167 147.906 164.688C148.25 165.198 148.682 165.604 149.203 165.906C149.724 166.198 150.344 166.344 151.062 166.344C151.76 166.344 152.365 166.198 152.875 165.906C153.396 165.604 153.823 165.198 154.156 164.688C154.5 164.167 154.75 163.568 154.906 162.891C155.073 162.214 155.156 161.49 155.156 160.719V160.391C155.156 159.641 155.073 158.927 154.906 158.25C154.75 157.573 154.5 156.979 154.156 156.469C153.823 155.958 153.396 155.552 152.875 155.25C152.365 154.948 151.75 154.797 151.031 154.797C150.323 154.797 149.708 154.948 149.188 155.25C148.667 155.552 148.24 155.958 147.906 156.469C147.573 156.979 147.323 157.573 147.156 158.25C147 158.927 146.922 159.641 146.922 160.391V160.719Z" fill="#30404F"/>
<path d="M170.578 148V152.094H176.969V154.875H170.578V162.984C170.578 163.62 170.651 164.146 170.797 164.562C170.953 164.979 171.167 165.312 171.438 165.562C171.708 165.812 172.026 165.99 172.391 166.094C172.755 166.188 173.156 166.234 173.594 166.234C173.917 166.234 174.25 166.219 174.594 166.188C174.948 166.146 175.286 166.104 175.609 166.062C175.943 166.01 176.245 165.958 176.516 165.906C176.797 165.844 177.031 165.786 177.219 165.734L177.641 168.312C177.37 168.469 177.042 168.615 176.656 168.75C176.281 168.875 175.87 168.979 175.422 169.062C174.974 169.146 174.505 169.208 174.016 169.25C173.536 169.302 173.062 169.328 172.594 169.328C171.75 169.328 170.974 169.214 170.266 168.984C169.568 168.745 168.964 168.38 168.453 167.891C167.953 167.391 167.557 166.755 167.266 165.984C166.984 165.203 166.844 164.271 166.844 163.188V154.875H162.719V152.094H166.844V148H170.578Z" fill="#30404F"/>
<path d="M181.625 160.391C181.625 159.172 181.802 158.036 182.156 156.984C182.521 155.932 183.036 155.021 183.703 154.25C184.38 153.479 185.203 152.875 186.172 152.438C187.141 152 188.24 151.781 189.469 151.781C190.708 151.781 191.812 152 192.781 152.438C193.76 152.875 194.583 153.479 195.25 154.25C195.927 155.021 196.443 155.932 196.797 156.984C197.151 158.036 197.328 159.172 197.328 160.391V160.719C197.328 161.948 197.151 163.089 196.797 164.141C196.443 165.193 195.927 166.104 195.25 166.875C194.583 167.635 193.766 168.234 192.797 168.672C191.828 169.109 190.729 169.328 189.5 169.328C188.26 169.328 187.151 169.109 186.172 168.672C185.203 168.234 184.38 167.635 183.703 166.875C183.036 166.104 182.521 165.193 182.156 164.141C181.802 163.089 181.625 161.948 181.625 160.719V160.391ZM185.359 160.719C185.359 161.49 185.438 162.214 185.594 162.891C185.76 163.568 186.01 164.167 186.344 164.688C186.688 165.198 187.12 165.604 187.641 165.906C188.161 166.198 188.781 166.344 189.5 166.344C190.198 166.344 190.802 166.198 191.312 165.906C191.833 165.604 192.26 165.198 192.594 164.688C192.938 164.167 193.188 163.568 193.344 162.891C193.51 162.214 193.594 161.49 193.594 160.719V160.391C193.594 159.641 193.51 158.927 193.344 158.25C193.188 157.573 192.938 156.979 192.594 156.469C192.26 155.958 191.833 155.552 191.312 155.25C190.802 154.948 190.188 154.797 189.469 154.797C188.76 154.797 188.146 154.948 187.625 155.25C187.104 155.552 186.677 155.958 186.344 156.469C186.01 156.979 185.76 157.573 185.594 158.25C185.438 158.927 185.359 159.641 185.359 160.391V160.719Z" fill="#30404F"/>
<path d="M225.094 146.25L227.922 156.078L231.047 146.25H235.703V169H232.172V161.188L232.391 151.219L228.891 162.125H226.922L223.75 151.594L223.969 161.188V169H220.438V146.25H225.094Z" fill="#30404F"/>
<path d="M239.281 160.391C239.281 159.172 239.458 158.036 239.812 156.984C240.177 155.932 240.693 155.021 241.359 154.25C242.036 153.479 242.859 152.875 243.828 152.438C244.797 152 245.896 151.781 247.125 151.781C248.365 151.781 249.469 152 250.438 152.438C251.417 152.875 252.24 153.479 252.906 154.25C253.583 155.021 254.099 155.932 254.453 156.984C254.807 158.036 254.984 159.172 254.984 160.391V160.719C254.984 161.948 254.807 163.089 254.453 164.141C254.099 165.193 253.583 166.104 252.906 166.875C252.24 167.635 251.422 168.234 250.453 168.672C249.484 169.109 248.385 169.328 247.156 169.328C245.917 169.328 244.807 169.109 243.828 168.672C242.859 168.234 242.036 167.635 241.359 166.875C240.693 166.104 240.177 165.193 239.812 164.141C239.458 163.089 239.281 161.948 239.281 160.719V160.391ZM243.016 160.719C243.016 161.49 243.094 162.214 243.25 162.891C243.417 163.568 243.667 164.167 244 164.688C244.344 165.198 244.776 165.604 245.297 165.906C245.818 166.198 246.438 166.344 247.156 166.344C247.854 166.344 248.458 166.198 248.969 165.906C249.49 165.604 249.917 165.198 250.25 164.688C250.594 164.167 250.844 163.568 251 162.891C251.167 162.214 251.25 161.49 251.25 160.719V160.391C251.25 159.641 251.167 158.927 251 158.25C250.844 157.573 250.594 156.979 250.25 156.469C249.917 155.958 249.49 155.552 248.969 155.25C248.458 154.948 247.844 154.797 247.125 154.797C246.417 154.797 245.802 154.948 245.281 155.25C244.76 155.552 244.333 155.958 244 156.469C243.667 156.979 243.417 157.573 243.25 158.25C243.094 158.927 243.016 159.641 243.016 160.391V160.719Z" fill="#30404F"/>
<path d="M262.562 152.094L262.797 154.438C263.411 153.594 264.151 152.943 265.016 152.484C265.891 152.016 266.859 151.781 267.922 151.781C268.786 151.781 269.573 151.906 270.281 152.156C271 152.406 271.615 152.797 272.125 153.328C272.646 153.859 273.047 154.547 273.328 155.391C273.62 156.234 273.766 157.25 273.766 158.438V169H270.031V158.5C270.031 157.802 269.948 157.219 269.781 156.75C269.625 156.281 269.396 155.906 269.094 155.625C268.802 155.344 268.443 155.146 268.016 155.031C267.589 154.906 267.104 154.844 266.562 154.844C265.74 154.844 265.021 155.026 264.406 155.391C263.802 155.755 263.312 156.25 262.938 156.875V169H259.188V152.094H262.562Z" fill="#30404F"/>
<path d="M277.719 160.391C277.719 159.172 277.896 158.036 278.25 156.984C278.615 155.932 279.13 155.021 279.797 154.25C280.474 153.479 281.297 152.875 282.266 152.438C283.234 152 284.333 151.781 285.562 151.781C286.802 151.781 287.906 152 288.875 152.438C289.854 152.875 290.677 153.479 291.344 154.25C292.021 155.021 292.536 155.932 292.891 156.984C293.245 158.036 293.422 159.172 293.422 160.391V160.719C293.422 161.948 293.245 163.089 292.891 164.141C292.536 165.193 292.021 166.104 291.344 166.875C290.677 167.635 289.859 168.234 288.891 168.672C287.922 169.109 286.823 169.328 285.594 169.328C284.354 169.328 283.245 169.109 282.266 168.672C281.297 168.234 280.474 167.635 279.797 166.875C279.13 166.104 278.615 165.193 278.25 164.141C277.896 163.089 277.719 161.948 277.719 160.719V160.391ZM281.453 160.719C281.453 161.49 281.531 162.214 281.688 162.891C281.854 163.568 282.104 164.167 282.438 164.688C282.781 165.198 283.214 165.604 283.734 165.906C284.255 166.198 284.875 166.344 285.594 166.344C286.292 166.344 286.896 166.198 287.406 165.906C287.927 165.604 288.354 165.198 288.688 164.688C289.031 164.167 289.281 163.568 289.438 162.891C289.604 162.214 289.688 161.49 289.688 160.719V160.391C289.688 159.641 289.604 158.927 289.438 158.25C289.281 157.573 289.031 156.979 288.688 156.469C288.354 155.958 287.927 155.552 287.406 155.25C286.896 154.948 286.281 154.797 285.562 154.797C284.854 154.797 284.24 154.948 283.719 155.25C283.198 155.552 282.771 155.958 282.438 156.469C282.104 156.979 281.854 157.573 281.688 158.25C281.531 158.927 281.453 159.641 281.453 160.391V160.719Z" fill="#30404F"/>
<g filter="url(#filter0_d)">
<rect x="114" y="214" width="154" height="48" rx="4" fill="white"/>
</g>
<rect width="24" height="24" transform="translate(130 226)" fill="white"/>
<path d="M146.903 238.171C146.546 238.171 146.256 238.46 146.256 238.817V243.719C146.256 244.264 145.813 244.707 145.268 244.707H136.28C135.736 244.707 135.293 244.264 135.293 243.719V234.732C135.293 234.187 135.736 233.744 136.28 233.744H141.183C141.54 233.744 141.829 233.454 141.829 233.097C141.829 232.741 141.54 232.451 141.183 232.451H136.28C135.023 232.451 134 233.474 134 234.732V243.719C134 244.977 135.023 246 136.28 246H145.268C146.526 246 147.549 244.977 147.549 243.719V238.817C147.549 238.46 147.259 238.171 146.903 238.171Z" fill="#08BEE5" stroke="#08BEE5" stroke-width="0.1"/>
<path d="M149.354 230H144.451C144.094 230 143.805 230.289 143.805 230.646C143.805 231.003 144.094 231.293 144.451 231.293H148.707V235.549C148.707 235.906 148.997 236.195 149.354 236.195C149.711 236.195 150 235.906 150 235.549V230.646C150 230.289 149.711 230 149.354 230Z" fill="#08BEE5" stroke="#08BEE5" stroke-width="0.1"/>
<path d="M149.811 230.19C149.558 229.937 149.149 229.937 148.897 230.19L139.909 239.178C139.656 239.43 139.656 239.839 139.909 240.092C140.035 240.218 140.2 240.281 140.366 240.281C140.531 240.281 140.697 240.218 140.823 240.092L149.811 231.104C150.063 230.851 150.063 230.442 149.811 230.19Z" fill="#08BEE5" stroke="#08BEE5" stroke-width="0.1"/>
<path d="M163.484 231.961H171.062V233.227H164.859V236.828H170.32V238.102H164.859V243H163.484V231.961ZM175.547 243.133C174.802 243.133 174.138 242.953 173.555 242.594C172.971 242.229 172.516 241.74 172.188 241.125C171.865 240.505 171.703 239.823 171.703 239.078C171.703 238.339 171.865 237.664 172.188 237.055C172.516 236.44 172.971 235.956 173.555 235.602C174.138 235.242 174.802 235.062 175.547 235.062C176.292 235.062 176.956 235.242 177.539 235.602C178.128 235.956 178.586 236.44 178.914 237.055C179.242 237.669 179.406 238.344 179.406 239.078C179.406 239.823 179.242 240.505 178.914 241.125C178.586 241.74 178.128 242.229 177.539 242.594C176.956 242.953 176.292 243.133 175.547 243.133ZM175.547 241.984C176.068 241.984 176.516 241.854 176.891 241.594C177.266 241.333 177.549 240.984 177.742 240.547C177.935 240.104 178.031 239.615 178.031 239.078C178.031 238.547 177.935 238.065 177.742 237.633C177.549 237.195 177.266 236.849 176.891 236.594C176.516 236.339 176.068 236.211 175.547 236.211C175.031 236.211 174.586 236.339 174.211 236.594C173.841 236.844 173.56 237.188 173.367 237.625C173.174 238.057 173.078 238.542 173.078 239.078C173.078 239.615 173.174 240.104 173.367 240.547C173.56 240.99 173.841 241.341 174.211 241.602C174.586 241.857 175.031 241.984 175.547 241.984ZM181.344 235.195H182.664V236.383C182.924 235.951 183.266 235.622 183.688 235.398C184.109 235.174 184.565 235.062 185.055 235.062C185.664 235.062 186.172 235.201 186.578 235.477C186.99 235.747 187.294 236.115 187.492 236.578C187.695 237.042 187.802 237.562 187.812 238.141V243H186.492V238.383C186.492 237.727 186.339 237.214 186.031 236.844C185.724 236.474 185.279 236.289 184.695 236.289C184.06 236.289 183.562 236.479 183.203 236.859C182.844 237.234 182.664 237.781 182.664 238.5V243H181.344V235.195ZM192.734 243.133C192.021 243.133 191.471 242.932 191.086 242.531C190.701 242.125 190.508 241.555 190.508 240.82V236.312H189.219V235.195H190.523V233.039L191.828 232.086V235.195H193.938V236.312H191.828V240.602C191.828 241.081 191.922 241.427 192.109 241.641C192.302 241.854 192.586 241.961 192.961 241.961C193.128 241.961 193.297 241.94 193.469 241.898C193.646 241.852 193.799 241.799 193.93 241.742L193.938 242.945C193.802 242.997 193.625 243.042 193.406 243.078C193.188 243.115 192.964 243.133 192.734 243.133ZM200.203 231.961H207.781V233.227H201.578V236.828H207.039V238.102H201.578V243H200.203V231.961ZM211.805 235.062C212.477 235.062 213.052 235.193 213.531 235.453C214.016 235.708 214.383 236.076 214.633 236.555C214.883 237.034 215.008 237.596 215.008 238.242V243H213.906L213.82 241.609C213.555 242.099 213.177 242.477 212.688 242.742C212.198 243.003 211.674 243.133 211.117 243.133C210.586 243.133 210.112 243.036 209.695 242.844C209.284 242.646 208.961 242.365 208.727 242C208.492 241.63 208.375 241.193 208.375 240.688C208.375 239.911 208.656 239.346 209.219 238.992C209.786 238.633 210.578 238.453 211.594 238.453H213.805C213.799 237.932 213.734 237.51 213.609 237.188C213.484 236.859 213.276 236.617 212.984 236.461C212.698 236.299 212.31 236.219 211.82 236.219C210.93 236.219 210.221 236.625 209.695 237.438L208.68 236.703C209.076 236.161 209.523 235.753 210.023 235.477C210.523 235.201 211.117 235.062 211.805 235.062ZM211.375 242C212.01 242 212.539 241.81 212.961 241.43C213.388 241.044 213.669 240.544 213.805 239.93V239.422H211.672C211.031 239.422 210.547 239.539 210.219 239.773C209.896 240.008 209.734 240.328 209.734 240.734C209.734 241.12 209.878 241.427 210.164 241.656C210.451 241.885 210.854 242 211.375 242ZM217.406 235.195H218.688V236.422C218.906 235.964 219.214 235.622 219.609 235.398C220.005 235.174 220.456 235.062 220.961 235.062C221.523 235.062 222.013 235.195 222.43 235.461C222.846 235.721 223.146 236.125 223.328 236.672C223.578 236.135 223.924 235.734 224.367 235.469C224.815 235.198 225.32 235.062 225.883 235.062C226.497 235.062 227.008 235.206 227.414 235.492C227.82 235.779 228.12 236.172 228.312 236.672C228.51 237.172 228.609 237.747 228.609 238.398V243H227.281V238.555C227.281 237.82 227.151 237.26 226.891 236.875C226.635 236.49 226.214 236.297 225.625 236.297C225.234 236.297 224.891 236.393 224.594 236.586C224.297 236.773 224.068 237.034 223.906 237.367C223.75 237.695 223.672 238.068 223.672 238.484V243H222.352V238.359C222.352 237.708 222.219 237.203 221.953 236.844C221.688 236.479 221.271 236.297 220.703 236.297C220.307 236.297 219.961 236.393 219.664 236.586C219.367 236.773 219.138 237.034 218.977 237.367C218.82 237.695 218.742 238.068 218.742 238.484V243H217.414L217.406 235.195ZM230.984 231.961H232.367V233.617H230.984V231.961ZM231.016 235.195H232.336V243H231.016V235.195ZM236.414 243.133C235.893 243.133 235.51 242.992 235.266 242.711C235.026 242.424 234.906 241.982 234.906 241.383V231.961H236.234V241.031C236.234 241.323 236.289 241.547 236.398 241.703C236.508 241.859 236.711 241.938 237.008 241.938C237.169 241.938 237.37 241.917 237.609 241.875L237.617 242.992C237.185 243.086 236.784 243.133 236.414 243.133ZM241.398 242.867L238.164 235.195H239.625L242.102 241.336L244.367 235.195H245.82L241.477 246.352H240.031L241.398 242.867Z" fill="#637381"/>
<defs>
<filter id="filter0_d" x="110" y="212" width="162" height="56" filterUnits="userSpaceOnUse" color-interpolation-filters="sRGB">
<feFlood flood-opacity="0" result="BackgroundImageFix"/>
<feColorMatrix in="SourceAlpha" type="matrix" values="0 0 0 0 0 0 0 0 0 0 0 0 0 0 0 0 0 0 127 0"/>
<feOffset dy="2"/>
<feGaussianBlur stdDeviation="2"/>
<feColorMatrix type="matrix" values="0 0 0 0 0 0 0 0 0 0 0 0 0 0 0 0 0 0 0.1 0"/>
<feBlend mode="normal" in2="BackgroundImageFix" result="effect1_dropShadow"/>
<feBlend mode="normal" in="SourceGraphic" in2="effect1_dropShadow" result="shape"/>
</filter>
</defs>
</svg>
