<svg width="760" height="413" viewBox="0 0 760 413" fill="none" xmlns="http://www.w3.org/2000/svg">
<rect opacity="0.2" width="760" height="413" rx="4" fill="#F5F5F5"/>
<rect width="146" height="146" transform="translate(307 134)" fill="white"/>
<path d="M414.412 172.587C405.22 163.396 392.999 158.333 380 158.333C367.001 158.333 354.779 163.396 345.587 172.587C336.396 181.779 331.333 194.001 331.333 207C331.333 219.999 336.396 232.22 345.587 241.412C354.779 250.604 367.001 255.667 380 255.667C392.999 255.667 405.22 250.604 414.412 241.412C423.604 232.22 428.667 219.999 428.667 207C428.667 194.001 423.604 181.779 414.412 172.587ZM380 247.803C357.501 247.803 339.197 229.499 339.197 207C339.197 184.501 357.501 166.197 380 166.197C402.499 166.197 420.803 184.501 420.803 207C420.803 229.499 402.499 247.803 380 247.803Z" fill="#212B36"/>
<path d="M380 185.174C377.829 185.174 376.069 186.934 376.069 189.105V224.893C376.069 227.065 377.829 228.825 380 228.825C382.172 228.825 383.932 227.065 383.932 224.893V189.105C383.932 186.934 382.172 185.174 380 185.174Z" fill="#212B36"/>
<path d="M397.893 203.069H362.105C359.934 203.069 358.174 204.829 358.174 207C358.174 209.172 359.934 210.932 362.105 210.932H397.893C400.065 210.932 401.825 209.172 401.825 207C401.825 204.829 400.065 203.069 397.893 203.069Z" fill="#212B36"/>
<rect x="368.5" y="134.5" width="23" height="23" stroke="#FF0000"/>
<path d="M376 148H376.56V146.488H377.408V146.008H376.56V142.4H376.224L373.28 146.192V146.488H376V148ZM376 146.008H374.008L376 143.368V146.008ZM380.173 148.096C381.157 148.096 381.861 147.32 381.861 145.952C381.861 144.664 381.221 143.816 380.173 143.816C379.621 143.816 379.317 144.04 379.053 144.28V143.912H378.493V149.624L379.053 149.344V147.584C379.285 147.856 379.597 148.096 380.173 148.096ZM380.109 147.592C379.669 147.592 379.333 147.32 379.053 146.96V144.952C379.277 144.552 379.669 144.32 380.109 144.32C380.837 144.32 381.277 144.96 381.277 145.952C381.277 147.008 380.853 147.592 380.109 147.592ZM382.343 148H382.951L383.775 146.736C383.863 146.6 383.943 146.472 384.031 146.328L384.287 146.736L385.111 148H385.719L384.335 145.88L385.623 143.912H385.015L384.295 145.016C384.199 145.16 384.119 145.288 384.031 145.432C383.943 145.288 383.863 145.16 383.767 145.016L383.047 143.912H382.439L383.727 145.88L382.343 148Z" fill="#FF0303"/>
<rect x="429.5" y="195.5" width="23" height="23" stroke="#FF0000"/>
<path d="M437 209H437.56V207.488H438.408V207.008H437.56V203.4H437.224L434.28 207.192V207.488H437V209ZM437 207.008H435.008L437 204.368V207.008ZM441.173 209.096C442.157 209.096 442.861 208.32 442.861 206.952C442.861 205.664 442.221 204.816 441.173 204.816C440.621 204.816 440.317 205.04 440.053 205.28V204.912H439.493V210.624L440.053 210.344V208.584C440.285 208.856 440.597 209.096 441.173 209.096ZM441.109 208.592C440.669 208.592 440.333 208.32 440.053 207.96V205.952C440.277 205.552 440.669 205.32 441.109 205.32C441.837 205.32 442.277 205.96 442.277 206.952C442.277 208.008 441.853 208.592 441.109 208.592ZM443.343 209H443.951L444.775 207.736C444.863 207.6 444.943 207.472 445.031 207.328L445.287 207.736L446.111 209H446.719L445.335 206.88L446.623 204.912H446.015L445.295 206.016C445.199 206.16 445.119 206.288 445.031 206.432C444.943 206.288 444.863 206.16 444.767 206.016L444.047 204.912H443.439L444.727 206.88L443.343 209Z" fill="#FF0303"/>
<rect x="368.5" y="256.5" width="23" height="23" stroke="#FF0000"/>
<path d="M376 270H376.56V268.488H377.408V268.008H376.56V264.4H376.224L373.28 268.192V268.488H376V270ZM376 268.008H374.008L376 265.368V268.008ZM380.173 270.096C381.157 270.096 381.861 269.32 381.861 267.952C381.861 266.664 381.221 265.816 380.173 265.816C379.621 265.816 379.317 266.04 379.053 266.28V265.912H378.493V271.624L379.053 271.344V269.584C379.285 269.856 379.597 270.096 380.173 270.096ZM380.109 269.592C379.669 269.592 379.333 269.32 379.053 268.96V266.952C379.277 266.552 379.669 266.32 380.109 266.32C380.837 266.32 381.277 266.96 381.277 267.952C381.277 269.008 380.853 269.592 380.109 269.592ZM382.343 270H382.951L383.775 268.736C383.863 268.6 383.943 268.472 384.031 268.328L384.287 268.736L385.111 270H385.719L384.335 267.88L385.623 265.912H385.015L384.295 267.016C384.199 267.16 384.119 267.288 384.031 267.432C383.943 267.288 383.863 267.16 383.767 267.016L383.047 265.912H382.439L383.727 267.88L382.343 270Z" fill="#FF0303"/>
<rect x="307.5" y="195.5" width="23" height="23" stroke="#FF0000"/>
<path d="M315 209H315.56V207.488H316.408V207.008H315.56V203.4H315.224L312.28 207.192V207.488H315V209ZM315 207.008H313.008L315 204.368V207.008ZM319.173 209.096C320.157 209.096 320.861 208.32 320.861 206.952C320.861 205.664 320.221 204.816 319.173 204.816C318.621 204.816 318.317 205.04 318.053 205.28V204.912H317.493V210.624L318.053 210.344V208.584C318.285 208.856 318.597 209.096 319.173 209.096ZM319.109 208.592C318.669 208.592 318.333 208.32 318.053 207.96V205.952C318.277 205.552 318.669 205.32 319.109 205.32C319.837 205.32 320.277 205.96 320.277 206.952C320.277 208.008 319.853 208.592 319.109 208.592ZM321.343 209H321.951L322.775 207.736C322.863 207.6 322.943 207.472 323.031 207.328L323.287 207.736L324.111 209H324.719L323.335 206.88L324.623 204.912H324.015L323.295 206.016C323.199 206.16 323.119 206.288 323.031 206.432C322.943 206.288 322.863 206.16 322.767 206.016L322.047 204.912H321.439L322.727 206.88L321.343 209Z" fill="#FF0303"/>
<path d="M371.608 115H375.28V114.464H372.2C372.328 113.76 372.928 113.36 373.568 112.944C374.376 112.424 375.232 111.904 375.232 110.88C375.232 109.928 374.584 109.304 373.48 109.304C372.528 109.304 371.856 109.832 371.688 110.488L372.184 110.712C372.32 110.176 372.672 109.808 373.432 109.808C374.208 109.808 374.648 110.272 374.648 110.88C374.648 111.6 374 112.024 373.304 112.496C372.496 113.04 371.608 113.6 371.608 115ZM378.805 115H379.365V113.488H380.213V113.008H379.365V109.4H379.029L376.085 113.192V113.488H378.805V115ZM378.805 113.008H376.813L378.805 110.368V113.008ZM382.978 115.096C383.962 115.096 384.666 114.32 384.666 112.952C384.666 111.664 384.026 110.816 382.978 110.816C382.426 110.816 382.122 111.04 381.858 111.28V110.912H381.298V116.624L381.858 116.344V114.584C382.09 114.856 382.402 115.096 382.978 115.096ZM382.914 114.592C382.474 114.592 382.138 114.32 381.858 113.96V111.952C382.082 111.552 382.474 111.32 382.914 111.32C383.642 111.32 384.082 111.96 384.082 112.952C384.082 114.008 383.658 114.592 382.914 114.592ZM385.148 115H385.756L386.58 113.736C386.668 113.6 386.748 113.472 386.836 113.328L387.092 113.736L387.916 115H388.524L387.14 112.88L388.428 110.912H387.82L387.1 112.016C387.004 112.16 386.924 112.288 386.836 112.432C386.748 112.288 386.668 112.16 386.572 112.016L385.852 110.912H385.244L386.532 112.88L385.148 115Z" fill="#FF0303"/>
<path d="M473.608 209H477.28V208.464H474.2C474.328 207.76 474.928 207.36 475.568 206.944C476.376 206.424 477.232 205.904 477.232 204.88C477.232 203.928 476.584 203.304 475.48 203.304C474.528 203.304 473.856 203.832 473.688 204.488L474.184 204.712C474.32 204.176 474.672 203.808 475.432 203.808C476.208 203.808 476.648 204.272 476.648 204.88C476.648 205.6 476 206.024 475.304 206.496C474.496 207.04 473.608 207.6 473.608 209ZM480.805 209H481.365V207.488H482.213V207.008H481.365V203.4H481.029L478.085 207.192V207.488H480.805V209ZM480.805 207.008H478.813L480.805 204.368V207.008ZM484.978 209.096C485.962 209.096 486.666 208.32 486.666 206.952C486.666 205.664 486.026 204.816 484.978 204.816C484.426 204.816 484.122 205.04 483.858 205.28V204.912H483.298V210.624L483.858 210.344V208.584C484.09 208.856 484.402 209.096 484.978 209.096ZM484.914 208.592C484.474 208.592 484.138 208.32 483.858 207.96V205.952C484.082 205.552 484.474 205.32 484.914 205.32C485.642 205.32 486.082 205.96 486.082 206.952C486.082 208.008 485.658 208.592 484.914 208.592ZM487.148 209H487.756L488.58 207.736C488.668 207.6 488.748 207.472 488.836 207.328L489.092 207.736L489.916 209H490.524L489.14 206.88L490.428 204.912H489.82L489.1 206.016C489.004 206.16 488.924 206.288 488.836 206.432C488.748 206.288 488.668 206.16 488.572 206.016L487.852 204.912H487.244L488.532 206.88L487.148 209Z" fill="#FF0303"/>
<rect x="307.5" y="134.5" width="145" height="145" rx="5.5" stroke="#FF0000"/>
<line x1="308" y1="122.5" x2="453" y2="122.5" stroke="#FF0000"/>
<line x1="307.5" y1="125" x2="307.5" y2="120" stroke="#FF0000"/>
<line x1="452.5" y1="125" x2="452.5" y2="120" stroke="#FF0000"/>
<line x1="465.5" y1="279" x2="465.5" y2="134" stroke="#FF0000"/>
<line x1="468" y1="279.5" x2="463" y2="279.5" stroke="#FF0000"/>
<line x1="468" y1="134.5" x2="463" y2="134.5" stroke="#FF0000"/>
</svg>
