<svg width="762" height="416" viewBox="0 0 762 416" fill="none" xmlns="http://www.w3.org/2000/svg">
<rect opacity="0.2" x="1" y="1" width="378" height="414" rx="4" fill="#F5F5F5" stroke="#979797"/>
<path fill-rule="evenodd" clip-rule="evenodd" d="M53.0859 182.627C53.0859 182.627 70.5926 199.84 88.9865 203.437C107.38 207.035 109.567 193.675 109.567 193.675L53.0859 182.627Z" fill="#6F6DA4"/>
<path fill-rule="evenodd" clip-rule="evenodd" d="M53.1039 182.532C53.1039 182.532 75.766 173.176 94.1599 176.773C112.553 180.37 109.585 193.578 109.585 193.578L53.1039 182.532Z" fill="#6F6DA4"/>
<path fill-rule="evenodd" clip-rule="evenodd" d="M117.838 195.91L51.356 182.908L51.5876 181.716L118.07 194.719L117.838 195.91Z" fill="#3E3F71"/>
<path fill-rule="evenodd" clip-rule="evenodd" d="M112.505 132.271C109.6 131.849 107.085 129.95 105.875 127.27C105.003 125.343 103.825 123.515 102.334 121.859C98.6395 117.757 93.6967 115.454 88.6054 115.007C85.8666 114.764 83.3424 113.357 81.8509 111.042C81.2675 110.136 80.5611 109.284 79.7287 108.508C75.0385 104.133 67.7394 103.827 62.7033 107.787C56.6579 112.54 55.9841 121.334 61.0503 126.959C61.532 127.495 62.0479 127.981 62.5927 128.418C64.7396 130.145 65.8806 132.802 65.8374 135.557C65.7579 140.674 67.5345 145.834 71.2299 149.936C72.679 151.545 74.3191 152.877 76.0862 153.93C78.6909 155.482 80.3917 158.238 80.5298 161.269C80.8283 167.818 83.4099 174.304 88.3432 179.44C98.6379 190.153 115.722 190.899 126.897 181.136C138.7 170.823 139.729 152.863 129.268 141.246C124.715 136.19 118.743 133.18 112.505 132.271Z" fill="#FFD08D"/>
<path fill-rule="evenodd" clip-rule="evenodd" d="M151.384 206.75L118.711 170.467L119.95 148.306L118.741 148.236L117.569 169.199L101.809 151.698L102.632 136.968L101.422 136.899L100.665 150.428L86.6243 134.837L87.2307 123.974L86.0208 123.905L85.4809 133.566L70.0183 116.396L69.1175 117.207L84.3357 134.107L75.194 133.585L75.1267 134.796L85.489 135.388L99.6663 151.13L86.354 150.37L86.2863 151.582L100.82 152.411L116.73 170.079L95.656 168.876L95.5879 170.088L117.885 171.361L150.482 207.557L151.384 206.75Z" fill="#3E3F71"/>
<path d="M187.365 241.326C216.252 241.326 239.671 217.88 239.671 188.957C239.671 160.034 216.252 136.588 187.365 136.588C158.477 136.588 135.059 160.034 135.059 188.957C135.059 217.88 158.477 241.326 187.365 241.326Z" fill="#44C9E6"/>
<path d="M224.623 174.668C228.371 179.752 229.812 184.34 229.812 190.574C229.812 198.139 226.696 205.125 221.391 210.782L224.618 222.852H234.423L244.748 211.131L247.515 193.983L248.092 183.762L237.884 172.216C228.812 171.119 224.39 171.939 224.623 174.668Z" fill="#CAF2F9"/>
<mask id="mask0" mask-type="alpha" maskUnits="userSpaceOnUse" x="108" y="158" width="136" height="133">
<path d="M110.493 224.242L112.279 231.345C112.279 231.345 133.389 274.708 180.909 290.818C180.909 290.818 224.143 272.338 243.345 240.988L216.838 217.833C216.838 217.833 204.15 227.937 185.292 227.937C166.435 227.937 140.83 216.677 140.83 193.464C140.83 170.251 167.357 161.764 167.357 161.764L156.052 158.991H127.157L108.818 203.223L110.493 224.242Z" fill="#CAF2F9"/>
</mask>
<g mask="url(#mask0)">
<circle cx="183.622" cy="204.394" r="74.932" fill="#CAF2F9"/>
</g>
<mask id="mask1" mask-type="alpha" maskUnits="userSpaceOnUse" x="91" y="110" width="180" height="134">
<path d="M270.183 175.494C269.377 174.688 262.116 137.307 197.927 115.191C195.898 113.802 128.152 102.878 138.496 117.643C78.8746 132.864 92.4414 173.494 92.4414 175.494C92.4414 177.494 100.975 207.553 106.513 219.794C106.974 220.833 114.357 233.884 119.837 240.987C116.609 233.884 113.09 227.708 113.09 217.084C113.09 187.117 136.272 162.749 165.28 161.71C165.974 161.71 166.721 161.71 167.415 161.768L160.494 154.839C160.494 154.839 188.35 150.164 224.104 171.814C224.104 171.814 224.624 172.911 224.104 176.145C224.104 176.145 240.943 183.418 242.384 197.566C243.826 211.714 234.885 219.799 227.677 220.949C227.677 220.949 231.424 215.118 225.658 212.001C224.444 211.307 223.003 211.02 221.561 211.078C210.547 211.078 209.276 223.668 209.276 223.668C209.159 224.304 209.159 224.94 209.159 225.572C209.159 225.572 207.315 243.993 240.069 243.643C240.069 243.643 256.679 224.819 261.062 207.903C262.679 201.669 263.829 196.988 264.581 193.526C266.426 188.618 268.217 181.388 269.945 176.135L270.183 175.494Z" fill="url(#paint0_radial)"/>
</mask>
<g mask="url(#mask1)">
<circle cx="180.524" cy="200.449" r="73.2418" fill="#7ED7E8"/>
<circle cx="183.966" cy="204.043" r="72.603" fill="url(#paint1_linear)"/>
</g>
<path d="M209.859 177.412C210.32 177.179 211.82 176.432 213.548 174.64C217.008 175.101 220.411 176.199 220.411 176.199C214.125 172.387 205.534 170.134 196.015 170.193C196.015 170.193 199.651 175.388 209.742 177.524C209.742 177.529 209.8 177.471 209.859 177.412Z" fill="white"/>
<path d="M183.06 283.257C177.716 283.257 172.371 282.718 167.178 281.654C162.11 280.615 157.13 279.071 152.368 277.056C147.694 275.08 143.19 272.633 138.971 269.783C134.797 266.962 130.875 263.724 127.307 260.155C123.74 256.587 120.502 252.663 117.682 248.488C114.833 244.273 112.386 239.763 110.411 235.087C108.396 230.324 106.853 225.343 105.814 220.274C104.751 215.079 104.212 209.733 104.212 204.387C104.212 199.041 104.751 193.696 105.814 188.501C106.853 183.437 108.396 178.45 110.411 173.687C112.386 169.011 114.833 164.506 117.682 160.286C120.502 156.111 123.74 152.188 127.307 148.619C130.875 145.05 134.797 141.812 138.971 138.991C143.185 136.141 147.694 133.694 152.368 131.718C157.13 129.703 162.11 128.159 167.178 127.12C172.371 126.057 177.716 125.518 183.06 125.518C188.404 125.518 193.748 126.057 198.942 127.12C204.009 128.159 208.99 129.703 213.751 131.718C218.426 133.694 222.93 136.141 227.148 138.991C231.322 141.812 235.244 145.05 238.812 148.619C242.38 152.188 245.617 156.111 248.437 160.286C251.287 164.501 253.733 169.011 255.709 173.687C257.723 178.45 259.267 183.432 260.305 188.501C261.368 193.696 261.907 199.041 261.907 204.387C261.907 209.733 261.368 215.079 260.305 220.274C259.267 225.343 257.723 230.324 255.709 235.087C253.733 239.763 251.287 244.269 248.437 248.488C245.617 252.663 242.38 256.587 238.812 260.155C235.244 263.724 231.322 266.962 227.148 269.783C222.935 272.633 218.426 275.08 213.751 277.056C208.99 279.071 204.009 280.615 198.942 281.654C193.748 282.718 188.404 283.257 183.06 283.257ZM183.06 136.704C173.92 136.704 165.061 138.491 156.722 142.021C152.713 143.715 148.849 145.818 145.233 148.26C141.651 150.683 138.277 153.465 135.215 156.528C132.152 159.592 129.366 162.967 126.948 166.555C124.507 170.172 122.405 174.041 120.711 178.047C117.182 186.389 115.396 195.249 115.396 204.392C115.396 213.535 117.182 222.395 120.711 230.737C122.405 234.747 124.507 238.612 126.948 242.229C129.37 245.813 132.152 249.187 135.215 252.251C138.277 255.314 141.651 258.097 145.233 260.519C148.849 262.962 152.718 265.064 156.722 266.758C165.061 270.288 173.92 272.075 183.06 272.075C192.2 272.075 201.058 270.288 209.397 266.758C213.407 265.064 217.27 262.962 220.887 260.519C224.469 258.097 227.842 255.314 230.905 252.251C233.968 249.187 236.749 245.813 239.171 242.229C241.613 238.612 243.715 234.743 245.409 230.737C248.937 222.395 250.724 213.535 250.724 204.392C250.724 195.249 248.937 186.389 245.409 178.047C243.715 174.037 241.613 170.172 239.171 166.555C236.749 162.971 233.968 159.597 230.905 156.533C227.842 153.47 224.469 150.687 220.887 148.265C217.27 145.822 213.402 143.72 209.397 142.026C201.058 138.496 192.2 136.704 183.06 136.704Z" fill="url(#paint2_radial)"/>
<path d="M355.359 17C348.818 17 343.564 22.1227 343.564 28.5C343.564 34.8773 348.818 40 355.359 40C361.9 40 367.154 34.8773 367.154 28.5C367.154 22.1227 361.9 17 355.359 17ZM362.168 24.8932L353.59 33.5705C353.482 33.675 353.375 33.7273 353.214 33.7273C353.053 33.7273 352.893 33.675 352.839 33.5705L348.657 29.1795L348.55 29.075C348.443 28.9705 348.389 28.8136 348.389 28.7091C348.389 28.6045 348.443 28.4477 348.55 28.3432L349.301 27.6114C349.515 27.4023 349.837 27.4023 350.051 27.6114L350.105 27.6636L353.053 30.7477C353.161 30.8523 353.322 30.8523 353.429 30.7477L360.613 23.4818H360.667C360.881 23.2727 361.203 23.2727 361.417 23.4818L362.168 24.2136C362.382 24.3705 362.382 24.6841 362.168 24.8932Z" fill="#2CC68F"/>
<path d="M1 5C1 2.79086 2.79086 1 5 1H375.462C377.671 1 379.462 2.79086 379.462 5H1Z" fill="#2CC68F"/>
<rect opacity="0.2" x="383" y="1" width="378" height="414" rx="4" fill="#F5F5F5" stroke="#979797"/>
<path d="M736.897 17C730.357 17 725.103 22.1227 725.103 28.5C725.103 34.8773 730.357 40 736.897 40C743.438 40 748.692 34.8773 748.692 28.5C748.692 22.1227 743.438 17 736.897 17ZM738.613 28.7091L742.634 32.6295C742.741 32.7341 742.795 32.8909 742.795 32.9955C742.795 33.1 742.741 33.2568 742.634 33.3614L741.883 34.0932C741.776 34.1977 741.615 34.25 741.508 34.25C741.347 34.25 741.24 34.1977 741.133 34.0932L737.112 30.1727C737.005 30.0682 736.844 30.0682 736.737 30.1727L732.716 34.0932C732.608 34.1977 732.448 34.25 732.34 34.25C732.179 34.25 732.072 34.1977 731.965 34.0932L731.214 33.3614C731.107 33.2568 731.054 33.1 731.054 32.9955C731.054 32.8909 731.107 32.7341 731.214 32.6295L735.235 28.7091C735.343 28.6045 735.343 28.4477 735.235 28.3432L731.214 24.4227C731.107 24.3182 731.054 24.1614 731.054 24.0568C731.054 23.9523 731.107 23.7955 731.214 23.6909L731.965 22.9591C732.072 22.8545 732.233 22.8023 732.34 22.8023C732.448 22.8023 732.608 22.8545 732.716 22.9591L736.737 26.8795C736.844 26.9841 737.005 26.9841 737.112 26.8795L741.133 22.9591C741.24 22.8545 741.401 22.8023 741.508 22.8023C741.669 22.8023 741.776 22.8545 741.883 22.9591L742.634 23.6909C742.741 23.7955 742.795 23.9523 742.795 24.0568C742.795 24.1614 742.741 24.3182 742.634 24.4227L738.613 28.3432C738.506 28.3955 738.506 28.6045 738.613 28.7091Z" fill="#FF6969"/>
<path d="M382.539 5C382.539 2.79086 384.329 1 386.539 1H757C759.209 1 761 2.79086 761 5H382.539Z" fill="#FF6969"/>
<rect x="178.227" y="282.976" width="99.8881" height="28.2512" fill="#8DDAC5"/>
<path fill-rule="evenodd" clip-rule="evenodd" d="M157.473 257.544L149.489 275.485L139.395 260.58C137.188 257.322 133.505 255.37 129.564 255.37H117.386C117.386 257.866 113.843 259.89 109.472 259.89C107.934 259.89 106.503 259.635 105.287 259.201C103.051 258.403 101.558 256.988 101.558 255.37H90.6737C86.0438 255.37 81.836 258.058 79.8991 262.253L59.0068 307.504H70.6283L89.3118 272.457L98.6334 298.001H138.141L137.237 281.061L143.503 289.278C144.835 291.022 146.905 292.047 149.102 292.047C152.005 292.047 154.609 290.269 155.659 287.57L165.814 261.491L157.473 257.544Z" fill="#6893C0"/>
<path fill-rule="evenodd" clip-rule="evenodd" d="M101.159 239.373C101.4 239.243 101.653 239.133 101.932 239.071C102.512 238.943 103.087 238.997 103.607 239.185C103.994 238.753 104.295 238.282 104.53 237.808C105.344 236.174 105.382 234.529 105.382 234.529L116.992 237.198C117.085 228.376 109.623 227.805 104.66 228.905C102.988 229.276 101.401 230.058 100.074 231.158C100.062 231.167 100.05 231.172 100.038 231.181C94.7015 235.116 96.1341 239.66 92.9705 241.615C92.2168 242.08 91.3453 242.313 90.539 242.679C88.5272 243.592 86.9376 245.385 86.2762 247.488C85.8999 248.684 85.7997 249.99 85.1402 251.055C84.1907 252.589 82.339 253.253 80.8708 254.304C77.3962 256.79 76.3912 261.971 78.3009 265.713L79.899 262.253C81.8359 258.057 86.0437 255.37 90.6737 255.37H104.725L102.41 244.985C101.102 244.908 99.9463 243.993 99.6479 242.653C99.3496 241.313 100.007 239.995 101.159 239.373Z" fill="#3E3F71"/>
<path fill-rule="evenodd" clip-rule="evenodd" d="M118.542 244.151L116.992 237.198L105.382 234.529C105.382 234.529 105.344 236.174 104.53 237.809C104.295 238.283 103.994 238.753 103.607 239.185C103.087 238.997 102.512 238.943 101.932 239.071C101.653 239.133 101.4 239.244 101.159 239.373C100.007 239.996 99.3495 241.314 99.6479 242.654C99.9463 243.993 101.102 244.909 102.41 244.986L104.725 255.37H101.558C101.558 256.988 103.051 258.403 105.287 259.201C106.503 259.635 107.934 259.89 109.472 259.89C113.843 259.89 117.386 257.866 117.386 255.37H113.61L111.894 247.669L115.577 247.807C117.514 247.823 118.962 246.037 118.542 244.151Z" fill="#855D51"/>
<path fill-rule="evenodd" clip-rule="evenodd" d="M218.065 300.56L223.002 290.033C223.286 289.44 223.877 289.062 224.536 289.062C225.472 289.062 226.227 289.817 226.227 290.749V311.93H218.065V300.56Z" fill="#3E3F71"/>
<path fill-rule="evenodd" clip-rule="evenodd" d="M98.6331 298.001L97.6553 300.12C95.1114 305.639 99.1531 311.93 105.242 311.93H218.065V300.56L138.141 298.001H98.6331Z" fill="#FFD08D"/>
<path fill-rule="evenodd" clip-rule="evenodd" d="M157.473 257.544V252.008L164.154 249.033L169.688 253.289L165.814 261.491L157.473 257.544Z" fill="#855D51"/>
<path fill-rule="evenodd" clip-rule="evenodd" d="M88.8905 272.61L86.6147 266.374L87.4573 266.068L89.7318 272.304L88.8905 272.61Z" fill="#3E3F71"/>
<path fill-rule="evenodd" clip-rule="evenodd" d="M136.789 281.086L136.109 268.321L137.004 268.274L137.684 281.038L136.789 281.086Z" fill="#3E3F71"/>
<path fill-rule="evenodd" clip-rule="evenodd" d="M112.428 243.757C112.562 243.995 112.754 244.196 112.994 244.343C113.363 244.571 113.795 244.641 114.223 244.541C114.944 244.371 115.44 243.742 115.474 243.037L112.428 243.757ZM113.842 245.48C113.38 245.48 112.926 245.353 112.523 245.104C111.949 244.751 111.547 244.197 111.392 243.542L111.29 243.107L116.2 241.946L116.304 242.382C116.624 243.733 115.783 245.092 114.43 245.411C114.234 245.458 114.038 245.48 113.842 245.48Z" fill="white"/>
<path fill-rule="evenodd" clip-rule="evenodd" d="M59.0066 307.504L55.1328 309.436V311.93H68.4145L70.628 307.504H59.0066Z" fill="#855D51"/>
<path fill-rule="evenodd" clip-rule="evenodd" d="M257.517 276.6L248.927 280.622C248.443 280.849 248.134 281.336 248.134 281.87C248.134 282.631 248.751 283.248 249.511 283.248H268.822V276.6H257.517Z" fill="#1A5C63"/>
<path fill-rule="evenodd" clip-rule="evenodd" d="M289.342 304.471L280.752 308.494C280.268 308.72 279.959 309.207 279.959 309.742C279.959 310.502 280.576 311.12 281.336 311.12H300.647V304.471H289.342Z" fill="#1A5C63"/>
<path fill-rule="evenodd" clip-rule="evenodd" d="M264.477 199.769L245.423 220.822C242.812 223.707 241.934 227.764 243.117 231.472L257.517 276.6H268.822L259.71 228.595L276.658 212.191H282.343L289.343 304.471H300.648C300.648 304.471 300.213 204.088 299.35 199.769H264.477Z" fill="#FFD08D"/>
<path fill-rule="evenodd" clip-rule="evenodd" d="M299.349 199.769L298.873 165.796C298.785 159.563 293.71 154.556 287.48 154.556H251.73C248.274 154.556 247.873 153.339 245.665 156L249 163L251.73 171.115L252.471 169.949L256.915 180.989L236.796 186.563L239.853 197.74L261.987 193.585L264.476 199.769H299.349Z" fill="#8DDAC5"/>
<path fill-rule="evenodd" clip-rule="evenodd" d="M237.803 186.401L231.548 186.114L227.667 192.148L231.548 201.075L240.86 197.578L237.803 186.401Z" fill="#EDB09A"/>
<path fill-rule="evenodd" clip-rule="evenodd" d="M257.006 181.315L256.826 180.663L268.338 177.474L282.496 161.994L282.994 162.451L268.705 178.073L257.006 181.315Z" fill="#161918"/>
<path fill-rule="evenodd" clip-rule="evenodd" d="M262.123 194.088L261.99 193.426L271.651 191.484C274.373 190.937 276.832 189.591 278.76 187.593L294.664 171.115L295.151 171.585L279.246 188.063C277.222 190.16 274.642 191.572 271.784 192.146L262.123 194.088Z" fill="#161918"/>
<path fill-rule="evenodd" clip-rule="evenodd" d="M252.16 170.081L249.324 163.368L249.946 163.105L252.782 169.818L252.16 170.081Z" fill="#161918"/>
<path fill-rule="evenodd" clip-rule="evenodd" d="M266.417 139.036L266.949 141.216C267.254 140.346 267.976 139.643 268.938 139.407C269.14 139.358 269.342 139.333 269.542 139.329L268.641 135.638L262.654 137.101L266.417 139.036Z" fill="#635D8A"/>
<path fill-rule="evenodd" clip-rule="evenodd" d="M258.641 131.32C253.927 132.593 250.087 132.233 250.087 132.233C248.788 136.4 253.597 139.315 253.597 139.315L262.605 137.113L262.654 137.101L268.641 135.638C267.264 129.999 263.355 130.049 258.641 131.32Z" fill="#292830"/>
<path fill-rule="evenodd" clip-rule="evenodd" d="M269.555 139.329L269.542 139.329C269.342 139.334 269.141 139.358 268.939 139.407C267.977 139.643 267.254 140.346 266.95 141.217L266.417 139.036L262.654 137.102L262.606 137.113L253.598 139.316L256.442 150.967C256.891 152.806 258.934 153.749 260.623 152.897L263.79 151.183L266.098 160.636L273.686 156.167L270.876 144.659C272.02 144.082 272.66 142.775 272.343 141.476C272.024 140.171 270.844 139.304 269.555 139.329Z" fill="#EDB09A"/>
<path fill-rule="evenodd" clip-rule="evenodd" d="M258.305 147.408C258.686 148.13 259.503 148.539 260.313 148.349C260.796 148.238 261.197 147.942 261.463 147.514C261.633 147.237 261.728 146.928 261.742 146.61L258.305 147.408ZM259.911 149.439C258.611 149.439 257.434 148.509 257.141 147.142L257.025 146.633L262.579 145.346L262.688 145.855C262.851 146.622 262.722 147.409 262.314 148.073C261.912 148.736 261.279 149.197 260.537 149.368C260.326 149.417 260.122 149.439 259.911 149.439Z" fill="#3E3F71"/>
<path fill-rule="evenodd" clip-rule="evenodd" d="M441.086 182.627C441.086 182.627 458.593 199.84 476.986 203.437C495.38 207.035 497.567 193.675 497.567 193.675L441.086 182.627Z" fill="#6F6DA4"/>
<path fill-rule="evenodd" clip-rule="evenodd" d="M441.104 182.532C441.104 182.532 463.766 173.176 482.16 176.773C500.553 180.37 497.585 193.578 497.585 193.578L441.104 182.532Z" fill="#6F6DA4"/>
<path fill-rule="evenodd" clip-rule="evenodd" d="M505.838 195.91L439.356 182.908L439.588 181.716L506.07 194.719L505.838 195.91Z" fill="#3E3F71"/>
<path fill-rule="evenodd" clip-rule="evenodd" d="M500.505 132.271C497.6 131.849 495.085 129.95 493.875 127.27C493.003 125.343 491.825 123.515 490.334 121.859C486.639 117.757 481.697 115.454 476.605 115.007C473.867 114.764 471.342 113.357 469.851 111.042C469.268 110.136 468.561 109.284 467.729 108.508C463.039 104.133 455.739 103.827 450.703 107.787C444.658 112.54 443.984 121.334 449.05 126.959C449.532 127.495 450.048 127.981 450.593 128.418C452.74 130.145 453.881 132.802 453.837 135.557C453.758 140.674 455.534 145.834 459.23 149.936C460.679 151.545 462.319 152.877 464.086 153.93C466.691 155.482 468.392 158.238 468.53 161.269C468.828 167.818 471.41 174.304 476.343 179.44C486.638 190.153 503.722 190.899 514.897 181.136C526.7 170.823 527.729 152.863 517.268 141.246C512.715 136.19 506.743 133.18 500.505 132.271Z" fill="#FFD08D"/>
<path fill-rule="evenodd" clip-rule="evenodd" d="M539.384 206.75L506.711 170.467L507.95 148.306L506.741 148.236L505.569 169.199L489.809 151.698L490.632 136.968L489.422 136.899L488.665 150.428L474.624 134.837L475.231 123.974L474.021 123.905L473.481 133.566L458.018 116.396L457.117 117.207L472.336 134.107L463.194 133.585L463.127 134.796L473.489 135.388L487.666 151.13L474.354 150.37L474.286 151.582L488.82 152.411L504.73 170.079L483.656 168.876L483.588 170.088L505.885 171.361L538.482 207.557L539.384 206.75Z" fill="#3E3F71"/>
<path d="M575.365 241.326C604.252 241.326 627.671 217.88 627.671 188.957C627.671 160.034 604.252 136.588 575.365 136.588C546.477 136.588 523.059 160.034 523.059 188.957C523.059 217.88 546.477 241.326 575.365 241.326Z" fill="#44C9E6"/>
<path d="M612.623 174.668C616.371 179.752 617.812 184.34 617.812 190.574C617.812 198.139 614.696 205.125 609.391 210.782L612.618 222.852H622.423L632.748 211.131L635.515 193.983L636.092 183.762L625.884 172.216C616.812 171.119 612.39 171.939 612.623 174.668Z" fill="#CAF2F9"/>
<mask id="mask2" mask-type="alpha" maskUnits="userSpaceOnUse" x="496" y="158" width="136" height="133">
<path d="M498.493 224.242L500.279 231.345C500.279 231.345 521.389 274.708 568.909 290.818C568.909 290.818 612.143 272.338 631.345 240.988L604.838 217.833C604.838 217.833 592.15 227.937 573.292 227.937C554.435 227.937 528.83 216.677 528.83 193.464C528.83 170.251 555.357 161.764 555.357 161.764L544.052 158.991H515.157L496.818 203.223L498.493 224.242Z" fill="#CAF2F9"/>
</mask>
<g mask="url(#mask2)">
<circle cx="571.622" cy="204.394" r="74.932" fill="#CAF2F9"/>
</g>
<mask id="mask3" mask-type="alpha" maskUnits="userSpaceOnUse" x="479" y="110" width="180" height="134">
<path d="M658.183 175.494C657.377 174.688 650.116 137.307 585.927 115.191C583.898 113.802 516.152 102.878 526.496 117.643C466.875 132.864 480.441 173.494 480.441 175.494C480.441 177.494 488.975 207.553 494.513 219.794C494.974 220.833 502.357 233.884 507.837 240.987C504.609 233.884 501.09 227.708 501.09 217.084C501.09 187.117 524.272 162.749 553.28 161.71C553.974 161.71 554.721 161.71 555.415 161.768L548.494 154.839C548.494 154.839 576.35 150.164 612.104 171.814C612.104 171.814 612.624 172.911 612.104 176.145C612.104 176.145 628.943 183.418 630.384 197.566C631.826 211.714 622.885 219.799 615.677 220.949C615.677 220.949 619.424 215.118 613.658 212.001C612.444 211.307 611.003 211.02 609.561 211.078C598.547 211.078 597.276 223.668 597.276 223.668C597.159 224.304 597.159 224.94 597.159 225.572C597.159 225.572 595.315 243.993 628.069 243.643C628.069 243.643 644.679 224.819 649.062 207.903C650.679 201.669 651.829 196.988 652.581 193.526C654.426 188.618 656.217 181.388 657.945 176.135L658.183 175.494Z" fill="url(#paint3_radial)"/>
</mask>
<g mask="url(#mask3)">
<circle cx="568.524" cy="200.449" r="73.2418" fill="#7ED7E8"/>
<circle cx="571.966" cy="204.043" r="72.603" fill="url(#paint4_linear)"/>
</g>
<path d="M597.859 177.412C598.32 177.179 599.82 176.432 601.548 174.64C605.008 175.101 608.411 176.199 608.411 176.199C602.125 172.387 593.534 170.134 584.015 170.193C584.015 170.193 587.651 175.388 597.742 177.524C597.742 177.529 597.8 177.471 597.859 177.412Z" fill="white"/>
<path d="M571.06 283.257C565.716 283.257 560.371 282.718 555.178 281.654C550.11 280.615 545.13 279.071 540.368 277.056C535.694 275.08 531.19 272.633 526.971 269.783C522.797 266.962 518.875 263.724 515.307 260.155C511.74 256.587 508.502 252.663 505.682 248.488C502.833 244.273 500.386 239.763 498.411 235.087C496.396 230.324 494.853 225.343 493.814 220.274C492.751 215.079 492.212 209.733 492.212 204.387C492.212 199.041 492.751 193.696 493.814 188.501C494.853 183.437 496.396 178.45 498.411 173.687C500.386 169.011 502.833 164.506 505.682 160.286C508.502 156.111 511.74 152.188 515.307 148.619C518.875 145.05 522.797 141.812 526.971 138.991C531.185 136.141 535.694 133.694 540.368 131.718C545.13 129.703 550.11 128.159 555.178 127.12C560.371 126.057 565.716 125.518 571.06 125.518C576.404 125.518 581.748 126.057 586.942 127.12C592.009 128.159 596.99 129.703 601.751 131.718C606.426 133.694 610.93 136.141 615.148 138.991C619.322 141.812 623.244 145.05 626.812 148.619C630.38 152.188 633.617 156.111 636.437 160.286C639.287 164.501 641.733 169.011 643.709 173.687C645.723 178.45 647.267 183.432 648.305 188.501C649.368 193.696 649.907 199.041 649.907 204.387C649.907 209.733 649.368 215.079 648.305 220.274C647.267 225.343 645.723 230.324 643.709 235.087C641.733 239.763 639.287 244.269 636.437 248.488C633.617 252.663 630.38 256.587 626.812 260.155C623.244 263.724 619.322 266.962 615.148 269.783C610.935 272.633 606.426 275.08 601.751 277.056C596.99 279.071 592.009 280.615 586.942 281.654C581.748 282.718 576.404 283.257 571.06 283.257ZM571.06 136.704C561.92 136.704 553.061 138.491 544.722 142.021C540.713 143.715 536.849 145.818 533.233 148.26C529.651 150.683 526.277 153.465 523.215 156.528C520.152 159.592 517.366 162.967 514.948 166.555C512.507 170.172 510.405 174.041 508.711 178.047C505.182 186.389 503.396 195.249 503.396 204.392C503.396 213.535 505.182 222.395 508.711 230.737C510.405 234.747 512.507 238.612 514.948 242.229C517.37 245.813 520.152 249.187 523.215 252.251C526.277 255.314 529.651 258.097 533.233 260.519C536.849 262.962 540.718 265.064 544.722 266.758C553.061 270.288 561.92 272.075 571.06 272.075C580.2 272.075 589.058 270.288 597.397 266.758C601.407 265.064 605.27 262.962 608.887 260.519C612.469 258.097 615.842 255.314 618.905 252.251C621.968 249.187 624.749 245.813 627.171 242.229C629.613 238.612 631.715 234.743 633.409 230.737C636.937 222.395 638.724 213.535 638.724 204.392C638.724 195.249 636.937 186.389 633.409 178.047C631.715 174.037 629.613 170.172 627.171 166.555C624.749 162.971 621.968 159.597 618.905 156.533C615.842 153.47 612.469 150.687 608.887 148.265C605.27 145.822 601.402 143.72 597.397 142.026C589.058 138.496 580.2 136.704 571.06 136.704Z" fill="url(#paint5_radial)"/>
<rect x="567.227" y="282.976" width="99.8881" height="28.2512" fill="#8DDAC5"/>
<path fill-rule="evenodd" clip-rule="evenodd" d="M607.065 300.56L612.002 290.033C612.286 289.44 612.877 289.062 613.536 289.062C614.472 289.062 615.227 289.817 615.227 290.749V311.93H607.065V300.56Z" fill="#3E3F71"/>
<path fill-rule="evenodd" clip-rule="evenodd" d="M487.633 298.001L486.655 300.12C484.111 305.639 488.153 311.93 494.242 311.93H607.065V300.56L527.141 298.001H487.633Z" fill="#FFD08D"/>
<path fill-rule="evenodd" clip-rule="evenodd" d="M546.473 257.544V252.008L553.154 249.033L558.688 253.289L554.814 261.491L546.473 257.544Z" fill="#EDB09A"/>
<path fill-rule="evenodd" clip-rule="evenodd" d="M477.89 272.61L475.615 266.374L476.457 266.068L478.732 272.304L477.89 272.61Z" fill="#3E3F71"/>
<path fill-rule="evenodd" clip-rule="evenodd" d="M525.789 281.086L525.109 268.321L526.004 268.274L526.684 281.038L525.789 281.086Z" fill="#3E3F71"/>
<path fill-rule="evenodd" clip-rule="evenodd" d="M448.007 307.504L444.133 309.436V311.93H457.415L459.628 307.504H448.007Z" fill="#E89F8B"/>
<path fill-rule="evenodd" clip-rule="evenodd" d="M646.517 276.6L637.927 280.622C637.443 280.849 637.134 281.336 637.134 281.87C637.134 282.631 637.751 283.248 638.511 283.248H657.822V276.6H646.517Z" fill="#1A5C63"/>
<path fill-rule="evenodd" clip-rule="evenodd" d="M678.342 304.471L669.752 308.494C669.268 308.72 668.959 309.207 668.959 309.742C668.959 310.502 669.576 311.12 670.336 311.12H689.647V304.471H678.342Z" fill="#1A5C63"/>
<path fill-rule="evenodd" clip-rule="evenodd" d="M653.477 199.769L634.423 220.822C631.812 223.707 630.934 227.764 632.117 231.472L646.517 276.6H657.822L648.71 228.595L665.658 212.191H671.343L678.343 304.471H689.648C689.648 304.471 689.213 204.088 688.35 199.769H653.477Z" fill="#FFD08D"/>
<path fill-rule="evenodd" clip-rule="evenodd" d="M688.349 199.769L687.873 165.797C687.785 159.564 682.71 154.557 676.48 154.557H640.73C637.274 154.557 635 156 634 157.5L637.5 163L640.73 169L641.471 169.949L645.915 180.989L625.796 186.564L628.853 197.741L650.987 193.586L653.476 199.769H688.349Z" fill="#8DDAC5"/>
<path fill-rule="evenodd" clip-rule="evenodd" d="M626.803 186.401L620.548 186.114L616.667 192.148L620.548 201.075L629.86 197.578L626.803 186.401Z" fill="#EDB09A"/>
<path fill-rule="evenodd" clip-rule="evenodd" d="M646.006 181.315L645.826 180.663L657.338 177.474L671.496 161.994L671.994 162.451L657.705 178.073L646.006 181.315Z" fill="#161918"/>
<path fill-rule="evenodd" clip-rule="evenodd" d="M651.123 194.088L650.99 193.426L660.651 191.484C663.373 190.937 665.832 189.591 667.76 187.593L683.664 171.115L684.151 171.585L668.246 188.063C666.222 190.16 663.642 191.572 660.784 192.146L651.123 194.088Z" fill="#161918"/>
<path fill-rule="evenodd" clip-rule="evenodd" d="M641.16 170.081L638.324 163.368L638.946 163.105L641.782 169.818L641.16 170.081Z" fill="#161918"/>
<path fill-rule="evenodd" clip-rule="evenodd" d="M655.417 139.036L655.949 141.216C656.254 140.346 656.976 139.643 657.938 139.407C658.14 139.358 658.342 139.333 658.542 139.329L657.641 135.638L651.654 137.101L655.417 139.036Z" fill="#635D8A"/>
<path fill-rule="evenodd" clip-rule="evenodd" d="M647.641 131.32C642.927 132.593 639.087 132.233 639.087 132.233C637.788 136.4 642.597 139.315 642.597 139.315L651.605 137.113L651.654 137.101L657.641 135.638C656.264 129.999 652.355 130.049 647.641 131.32Z" fill="#292830"/>
<path fill-rule="evenodd" clip-rule="evenodd" d="M508.301 248.172L504.259 235.021L495.046 237.521C495.046 237.521 493.573 239.387 492.759 241.021C492.524 241.496 493.753 242.775 493.367 243.207C492.847 243.019 492.271 242.965 491.691 243.093C491.412 243.155 491.159 243.265 490.918 243.395C489.766 244.017 489.109 245.335 489.407 246.675C489.706 248.015 490.861 248.93 492.169 249.007L494.859 255.5H489.407C489.407 257.118 491.13 259.222 493.367 260.02C494.583 260.454 498.067 260.02 499.606 260.02C503.977 260.02 507.52 257.996 507.52 255.5H503.744L501.654 251.691L505.337 251.828C507.273 251.844 508.721 250.058 508.301 248.172Z" fill="#EDB09A"/>
<path fill-rule="evenodd" clip-rule="evenodd" d="M502.187 247.779C502.321 248.016 502.513 248.218 502.753 248.365C503.122 248.592 503.555 248.662 503.982 248.563C504.703 248.392 505.199 247.764 505.233 247.059L502.187 247.779ZM503.602 249.501C503.14 249.501 502.686 249.374 502.282 249.125C501.708 248.773 501.307 248.218 501.152 247.564L501.049 247.129L505.96 245.968L506.063 246.403C506.384 247.754 505.542 249.113 504.189 249.433C503.994 249.479 503.797 249.501 503.602 249.501Z" fill="#3E3F71"/>
<path fill-rule="evenodd" clip-rule="evenodd" d="M493.149 242.003L493.869 244.129C493.146 243.558 492.158 243.351 491.22 243.669C491.024 243.736 490.84 243.823 490.669 243.926L489.449 240.328L495.287 238.352L493.149 242.003Z" fill="#635D8A"/>
<path fill-rule="evenodd" clip-rule="evenodd" d="M495.573 231.32C500.234 229.865 503.282 227.502 503.282 227.502C506.614 230.321 504.119 235.361 504.119 235.361L495.335 238.335L495.288 238.351L489.45 240.328C487.587 234.831 490.913 232.775 495.573 231.32Z" fill="#292830"/>
<path fill-rule="evenodd" clip-rule="evenodd" d="M658.555 139.329L658.542 139.329C658.342 139.334 658.141 139.358 657.939 139.407C656.977 139.643 656.254 140.346 655.95 141.217L655.417 139.036L651.654 137.102L651.606 137.113L642.598 139.316L645.442 150.967C645.891 152.806 647.934 153.749 649.623 152.897L652.79 151.183L655.098 160.636L662.686 156.167L659.876 144.659C661.02 144.082 661.66 142.775 661.343 141.476C661.024 140.171 659.844 139.304 658.555 139.329Z" fill="#EDB09A"/>
<path fill-rule="evenodd" clip-rule="evenodd" d="M647.305 147.408C647.686 148.13 648.503 148.539 649.313 148.349C649.796 148.238 650.197 147.942 650.463 147.514C650.633 147.237 650.728 146.928 650.742 146.61L647.305 147.408ZM648.911 149.439C647.611 149.439 646.434 148.509 646.141 147.142L646.025 146.633L651.579 145.346L651.688 145.855C651.851 146.622 651.722 147.409 651.314 148.073C650.912 148.736 650.279 149.197 649.537 149.368C649.326 149.417 649.122 149.439 648.911 149.439Z" fill="#3E3F71"/>
<path fill-rule="evenodd" clip-rule="evenodd" d="M546.473 257.544L538.489 275.485L528.395 260.58C526.188 257.322 522.505 255.37 518.564 255.37H506.386C506.386 257.866 502.843 259.89 498.472 259.89C496.934 259.89 495.503 259.635 494.287 259.201C492.051 258.403 490.558 256.988 490.558 255.37H479.674C475.044 255.37 470.836 258.058 468.899 262.253L448.007 307.504H459.628L478.312 272.457L487.633 298.001H527.141L526.237 281.061L532.503 289.278C533.835 291.022 535.905 292.047 538.102 292.047C541.005 292.047 543.609 290.269 544.659 287.57L554.814 261.491L546.473 257.544Z" fill="#8DDAC5"/>
<defs>
<radialGradient id="paint0_radial" cx="0" cy="0" r="1" gradientUnits="userSpaceOnUse" gradientTransform="translate(68.9493 300.666) scale(0.325102)">
<stop stop-color="#00C9FF"/>
<stop offset="1" stop-color="#7DD6E7"/>
</radialGradient>
<linearGradient id="paint1_linear" x1="143.222" y1="140.788" x2="121.77" y2="265.37" gradientUnits="userSpaceOnUse">
<stop stop-color="#98DEEE"/>
<stop offset="1" stop-color="#44C9E6"/>
</linearGradient>
<radialGradient id="paint2_radial" cx="0" cy="0" r="1" gradientUnits="userSpaceOnUse" gradientTransform="translate(183.06 204.392) scale(78.8433 78.8655)">
<stop stop-color="#00C9FF"/>
<stop offset="1" stop-color="#54CDE7"/>
</radialGradient>
<radialGradient id="paint3_radial" cx="0" cy="0" r="1" gradientUnits="userSpaceOnUse" gradientTransform="translate(456.949 300.666) scale(0.325102)">
<stop stop-color="#00C9FF"/>
<stop offset="1" stop-color="#7DD6E7"/>
</radialGradient>
<linearGradient id="paint4_linear" x1="531.222" y1="140.788" x2="509.77" y2="265.37" gradientUnits="userSpaceOnUse">
<stop stop-color="#98DEEE"/>
<stop offset="1" stop-color="#44C9E6"/>
</linearGradient>
<radialGradient id="paint5_radial" cx="0" cy="0" r="1" gradientUnits="userSpaceOnUse" gradientTransform="translate(571.06 204.392) scale(78.8433 78.8655)">
<stop stop-color="#00C9FF"/>
<stop offset="1" stop-color="#54CDE7"/>
</radialGradient>
</defs>
</svg>
