<svg width="761" height="684" viewBox="0 0 761 684" fill="none" xmlns="http://www.w3.org/2000/svg">
<rect opacity="0.2" x="0.00146484" width="760" height="331" rx="4" fill="#F5F5F5"/>
<path fill-rule="evenodd" clip-rule="evenodd" d="M166.094 181.997C158.14 172.445 170.326 179.513 170.326 179.513L183.256 177.493C185.25 174.102 187.458 177.493 191.669 177.493C192.753 177.493 187.977 191.372 188.963 191.655C190.563 192.108 199.437 162.594 200.644 163.633C203.057 160.136 205.446 154.775 204.707 147.725C203.353 134.442 193.478 135.799 193.478 135.799C187.691 125.296 161.44 115.315 142.534 131.597C123.627 147.878 135.944 167.211 135.944 167.211H166.094" fill="#2C2C4E"/>
<path fill-rule="evenodd" clip-rule="evenodd" d="M149.938 205.45L163.482 201.904V231.726L196.407 231.751V183.24C201.184 181.878 204.706 177.524 204.706 172.301C204.706 168.812 203.13 165.726 200.642 163.633C199.436 162.594 198.007 161.816 196.407 161.362C195.422 161.079 194.387 160.88 193.304 160.88C189.093 160.88 185.448 163.182 183.454 166.573L166.092 147.725C166.092 147.725 158.138 157.659 166.092 167.211H135.943V194.295C135.943 201.658 142.784 207.1 149.938 205.45Z" fill="#F5C5B6"/>
<path fill-rule="evenodd" clip-rule="evenodd" d="M167.208 190.485C163.068 191.674 158.471 191.282 154.41 189.025L156.417 185.387C162.545 188.791 170.268 186.565 173.655 180.436L177.281 182.457C175.04 186.524 171.354 189.294 167.208 190.485Z" fill="#3E3F71"/>
<path fill-rule="evenodd" clip-rule="evenodd" d="M378.094 181.997C370.14 172.445 382.326 179.513 382.326 179.513L395.256 177.493C397.25 174.102 399.458 177.493 403.669 177.493C404.753 177.493 399.977 191.372 400.963 191.655C402.563 192.108 411.437 162.594 412.644 163.633C415.057 160.136 417.446 154.775 416.707 147.725C415.353 134.442 405.478 135.799 405.478 135.799C399.691 125.296 373.44 115.315 354.534 131.597C335.627 147.878 347.944 167.211 347.944 167.211H378.094" fill="#2C2C4E"/>
<path fill-rule="evenodd" clip-rule="evenodd" d="M361.938 205.45L375.482 201.904V231.726L408.407 231.751V183.24C413.184 181.878 416.706 177.524 416.706 172.301C416.706 168.812 415.13 165.726 412.642 163.633C411.436 162.594 410.007 161.816 408.407 161.362C407.422 161.079 406.387 160.88 405.304 160.88C401.093 160.88 397.448 163.182 395.454 166.573L378.092 147.725C378.092 147.725 370.138 157.659 378.092 167.211H347.943V194.295C347.943 201.658 354.784 207.1 361.938 205.45Z" fill="#C98E7C"/>
<path fill-rule="evenodd" clip-rule="evenodd" d="M379.208 190.485C375.068 191.674 370.471 191.282 366.41 189.025L368.417 185.387C374.545 188.791 382.268 186.565 385.655 180.436L389.281 182.457C387.04 186.524 383.354 189.294 379.208 190.485Z" fill="#3E3F71"/>
<path fill-rule="evenodd" clip-rule="evenodd" d="M590.094 181.997C582.14 172.445 594.326 179.513 594.326 179.513L607.256 177.493C609.25 174.102 611.458 177.493 615.669 177.493C616.753 177.493 611.977 191.372 612.963 191.655C614.563 192.108 623.437 162.594 624.644 163.633C627.057 160.136 629.446 154.775 628.707 147.725C627.353 134.442 617.478 135.799 617.478 135.799C611.691 125.296 585.44 115.315 566.534 131.597C547.627 147.878 559.944 167.211 559.944 167.211H590.094" fill="#2C2C4E"/>
<path fill-rule="evenodd" clip-rule="evenodd" d="M573.938 205.45L587.482 201.904V231.726L620.407 231.751V183.24C625.184 181.878 628.706 177.524 628.706 172.301C628.706 168.812 627.13 165.726 624.642 163.633C623.436 162.594 622.007 161.816 620.407 161.362C619.422 161.079 618.387 160.88 617.304 160.88C613.093 160.88 609.448 163.182 607.454 166.573L590.092 147.725C590.092 147.725 582.138 157.659 590.092 167.211H559.943V194.295C559.943 201.658 566.784 207.1 573.938 205.45Z" fill="#855D51"/>
<path fill-rule="evenodd" clip-rule="evenodd" d="M591.208 190.485C587.068 191.674 582.471 191.282 578.41 189.025L580.417 185.387C586.545 188.791 594.268 186.565 597.655 180.436L601.281 182.457C599.04 186.524 595.354 189.294 591.208 190.485Z" fill="white"/>
<rect opacity="0.2" x="0.00146484" y="353" width="760" height="331" rx="4" fill="#F5F5F5"/>
<path fill-rule="evenodd" clip-rule="evenodd" d="M165.701 529.739C166.332 524.887 170.161 521.275 174.757 520.594C175.703 520.454 176.694 520.391 177.686 520.526C179.758 520.797 181.651 521.682 183.137 522.946C191.203 518.608 194.717 509.512 194.717 509.512L230.221 532.592L226.887 557.77C225.986 564.6 219.002 568.816 212.559 566.406L200.439 561.458L197.33 585.247H166.241L172.054 540.916C167.818 539.065 165.07 534.592 165.701 529.739Z" fill="#F5C5B6"/>
<path fill-rule="evenodd" clip-rule="evenodd" d="M80.3188 508.649C86.7167 501.134 96.9445 497.13 106.722 498.362C111.903 499.017 117.49 500.967 122.086 498.498C126.276 496.241 127.898 491.19 130.421 487.132C136.143 477.851 148.263 473.08 158.807 475.978C166.106 477.995 174.081 485.389 177.099 493.483C183.903 490.079 191.698 488.811 199.177 489.795C217.064 492.151 241.259 503.156 230.221 532.591L194.716 509.512C194.716 509.512 191.202 518.607 183.137 522.945C181.65 521.681 179.758 520.796 177.685 520.526C176.694 520.39 175.703 520.453 174.756 520.593C170.161 521.275 166.331 524.886 165.7 529.738C165.069 534.591 167.818 539.064 172.053 540.915L170.161 555.572C170.161 555.572 155.472 542.472 158.401 520.155C159.527 511.769 162.997 505.065 167.908 500.087C161.915 499.247 156.148 499.518 149.976 503.802C144.569 507.584 140.784 513.245 136.459 518.246C131.232 524.268 125.06 529.454 118.256 533.548C110.461 538.22 101.315 541.52 92.3488 540.008C83.3826 538.491 75.0472 530.975 75.0021 521.875C74.9571 517.018 77.2099 512.36 80.3188 508.649Z" fill="#2C2C4E"/>
<path fill-rule="evenodd" clip-rule="evenodd" d="M207.483 549.656C206.742 550.514 205.793 551.18 204.694 551.583C203.003 552.207 201.181 552.138 199.519 551.381C196.717 550.095 195.209 547.125 195.649 544.221L207.483 549.656ZM200.302 555.521C202.186 555.9 204.143 555.754 205.993 555.07C208.623 554.103 210.716 552.168 211.886 549.627L212.661 547.937L193.581 539.174L192.803 540.866C190.387 546.113 192.704 552.347 197.963 554.76C198.721 555.109 199.506 555.361 200.302 555.521Z" fill="#3E3F71"/>
<path fill-rule="evenodd" clip-rule="evenodd" d="M377.701 529.739C378.332 524.887 382.161 521.275 386.757 520.594C387.703 520.454 388.694 520.391 389.686 520.526C391.758 520.797 393.651 521.682 395.137 522.946C403.203 518.608 406.717 509.512 406.717 509.512L442.221 532.592L438.887 557.77C437.986 564.6 431.002 568.816 424.559 566.406L412.439 561.458L409.33 585.247H378.241L384.054 540.916C379.818 539.065 377.07 534.592 377.701 529.739Z" fill="#C98E7C"/>
<path fill-rule="evenodd" clip-rule="evenodd" d="M292.319 508.649C298.717 501.134 308.944 497.13 318.722 498.362C323.903 499.017 329.49 500.967 334.086 498.498C338.276 496.241 339.898 491.19 342.421 487.132C348.143 477.851 360.263 473.08 370.807 475.978C378.106 477.995 386.081 485.389 389.099 493.483C395.903 490.079 403.698 488.811 411.177 489.795C429.064 492.151 453.259 503.156 442.221 532.591L406.716 509.512C406.716 509.512 403.202 518.607 395.137 522.945C393.65 521.681 391.758 520.796 389.685 520.526C388.694 520.39 387.703 520.453 386.756 520.593C382.161 521.275 378.331 524.886 377.7 529.738C377.069 534.591 379.818 539.064 384.053 540.915L382.161 555.572C382.161 555.572 367.472 542.472 370.401 520.155C371.527 511.769 374.997 505.065 379.908 500.087C373.915 499.247 368.148 499.518 361.976 503.802C356.569 507.584 352.784 513.245 348.459 518.246C343.232 524.268 337.06 529.454 330.256 533.548C322.461 538.22 313.315 541.52 304.349 540.008C295.383 538.491 287.047 530.975 287.002 521.875C286.957 517.018 289.21 512.36 292.319 508.649Z" fill="#2C2C4E"/>
<path fill-rule="evenodd" clip-rule="evenodd" d="M419.483 549.656C418.742 550.514 417.793 551.18 416.694 551.583C415.003 552.207 413.181 552.138 411.519 551.381C408.717 550.095 407.209 547.125 407.649 544.221L419.483 549.656ZM412.302 555.521C414.186 555.9 416.143 555.754 417.993 555.07C420.623 554.103 422.716 552.168 423.886 549.627L424.661 547.937L405.581 539.174L404.803 540.866C402.387 546.113 404.704 552.347 409.963 554.76C410.721 555.109 411.506 555.361 412.302 555.521Z" fill="#3E3F71"/>
<path fill-rule="evenodd" clip-rule="evenodd" d="M589.701 529.739C590.332 524.887 594.161 521.275 598.757 520.594C599.703 520.454 600.694 520.391 601.686 520.526C603.758 520.797 605.651 521.682 607.137 522.946C615.203 518.608 618.717 509.512 618.717 509.512L654.221 532.592L650.887 557.77C649.986 564.6 643.002 568.816 636.559 566.406L624.439 561.458L621.33 585.247H590.241L596.054 540.916C591.818 539.065 589.07 534.592 589.701 529.739Z" fill="#855D51"/>
<path fill-rule="evenodd" clip-rule="evenodd" d="M504.319 508.649C510.717 501.134 520.944 497.13 530.722 498.362C535.903 499.017 541.49 500.967 546.086 498.498C550.276 496.241 551.898 491.19 554.421 487.132C560.143 477.851 572.263 473.08 582.807 475.978C590.106 477.995 598.081 485.389 601.099 493.483C607.903 490.079 615.698 488.811 623.177 489.795C641.064 492.151 665.259 503.156 654.221 532.591L618.716 509.512C618.716 509.512 615.202 518.607 607.137 522.945C605.65 521.681 603.758 520.796 601.685 520.526C600.694 520.39 599.703 520.453 598.756 520.593C594.161 521.275 590.331 524.886 589.7 529.738C589.069 534.591 591.818 539.064 596.053 540.915L594.161 555.572C594.161 555.572 579.472 542.472 582.401 520.155C583.527 511.769 586.997 505.065 591.908 500.087C585.915 499.247 580.148 499.518 573.976 503.802C568.569 507.584 564.784 513.245 560.459 518.246C555.232 524.268 549.06 529.454 542.256 533.548C534.461 538.22 525.315 541.52 516.349 540.008C507.383 538.491 499.047 530.975 499.002 521.875C498.957 517.018 501.21 512.36 504.319 508.649Z" fill="#2C2C4E"/>
<path fill-rule="evenodd" clip-rule="evenodd" d="M631.483 549.656C630.742 550.514 629.793 551.18 628.694 551.583C627.003 552.207 625.181 552.138 623.519 551.381C620.717 550.095 619.209 547.125 619.649 544.221L631.483 549.656ZM624.302 555.521C626.186 555.9 628.143 555.754 629.993 555.07C632.623 554.103 634.716 552.168 635.886 549.627L636.661 547.937L617.581 539.174L616.803 540.866C614.387 546.113 616.704 552.347 621.963 554.76C622.721 555.109 623.506 555.361 624.302 555.521Z" fill="white"/>
</svg>
