<svg width="761" height="304" viewBox="0 0 761 304" fill="none" xmlns="http://www.w3.org/2000/svg">
<rect x="0.5" y="0.5" width="380" height="303" stroke="#DDE4E9"/>
<rect x="380.5" y="0.5" width="380" height="303" stroke="#DDE4E9"/>
<path d="M187.772 110H196.628L175.964 52.6H167.19L146.444 110H155.3L159.974 96.798H183.18L187.772 110ZM180.556 89.254H162.598L169.65 69.738C170.306 67.852 171.126 65.228 171.618 63.26C172.028 65.228 172.93 67.934 173.586 69.738L180.556 89.254ZM229.789 110H237.989V82.858C237.989 68.918 229.133 67.114 221.999 67.114C215.111 67.114 209.781 69.082 206.337 71.46L208.879 78.43C211.995 76.134 215.603 74.658 220.851 74.658C227.001 74.658 229.789 76.954 229.789 83.268V85.564C227.001 83.924 223.311 83.104 219.457 83.104C211.257 83.104 203.385 87.286 203.385 96.962C203.385 106.228 209.781 110.984 218.309 110.984C223.885 110.984 227.657 108.606 229.789 106.392V110ZM219.867 103.44C214.455 103.44 211.585 100.898 211.585 96.962C211.585 92.37 215.767 90.484 220.851 90.484C224.131 90.484 227.493 91.304 229.789 92.534V98.93C227.575 101.39 224.213 103.44 219.867 103.44Z" fill="#30404F"/>
<path d="M554.233 95.4668H536.016L532.012 109H522.082L541.021 50.7031H549.469L568.047 109H558.157L554.233 95.4668ZM538.458 87.2588H551.831L545.225 64.3965L538.458 87.2588Z" fill="#30404F"/>
<path d="M603.081 109C602.814 108.466 602.587 107.839 602.4 107.118C602.24 106.397 602.093 105.623 601.96 104.796C601.293 105.49 600.532 106.144 599.678 106.758C598.85 107.345 597.916 107.866 596.875 108.319C595.861 108.773 594.753 109.133 593.552 109.4C592.377 109.667 591.109 109.801 589.748 109.801C587.452 109.801 585.37 109.48 583.502 108.84C581.66 108.173 580.072 107.265 578.737 106.117C577.429 104.943 576.415 103.568 575.694 101.993C574.974 100.418 574.613 98.71 574.613 96.8682C574.613 92.2236 576.335 88.6735 579.778 86.2178C583.248 83.762 588.213 82.5342 594.673 82.5342H601.68V79.6914C601.68 77.3958 600.906 75.5807 599.357 74.2461C597.809 72.8848 595.62 72.2041 592.791 72.2041C591.51 72.2041 590.389 72.3643 589.428 72.6846C588.467 72.9782 587.666 73.3919 587.025 73.9258C586.385 74.4596 585.904 75.0869 585.584 75.8076C585.264 76.5283 585.104 77.3024 585.104 78.1299H575.534C575.534 76.4482 575.921 74.82 576.695 73.2451C577.496 71.6436 578.657 70.2288 580.179 69.001C581.7 67.7464 583.555 66.7454 585.744 65.998C587.96 65.2507 590.482 64.877 593.312 64.877C595.874 64.877 598.25 65.1973 600.438 65.8379C602.627 66.4518 604.522 67.3861 606.124 68.6406C607.726 69.8685 608.98 71.4167 609.888 73.2852C610.795 75.127 611.249 77.2891 611.249 79.7715V99.0703C611.249 100.965 611.382 102.701 611.649 104.275C611.943 105.824 612.357 107.172 612.891 108.319V109H603.081ZM591.55 102.073C592.778 102.073 593.925 101.926 594.993 101.633C596.088 101.312 597.062 100.912 597.916 100.432C598.797 99.9245 599.544 99.3506 600.158 98.71C600.799 98.0693 601.306 97.4154 601.68 96.748V88.6201H595.594C591.697 88.6201 588.814 89.2474 586.945 90.502C585.104 91.7565 584.183 93.5449 584.183 95.8672C584.183 96.748 584.329 97.5755 584.623 98.3496C584.917 99.097 585.357 99.751 585.944 100.312C586.558 100.845 587.319 101.272 588.227 101.593C589.161 101.913 590.269 102.073 591.55 102.073Z" fill="#30404F"/>
<g filter="url(#filter0_d)">
<rect x="113" y="214" width="154" height="48" rx="4" fill="white"/>
</g>
<path d="M164.781 244C168.327 244 170.327 241.795 170.327 238.159C170.327 234.545 168.327 232.364 164.94 232.364H161.19V244H164.781ZM162.599 242.75V233.614H164.849C167.577 233.614 168.963 235.341 168.963 238.159C168.963 241 167.577 242.75 164.69 242.75H162.599ZM176.054 244.182C178.418 244.182 180.009 242.386 180.009 239.682C180.009 236.955 178.418 235.159 176.054 235.159C173.69 235.159 172.099 236.955 172.099 239.682C172.099 242.386 173.69 244.182 176.054 244.182ZM176.054 242.977C174.259 242.977 173.44 241.432 173.44 239.682C173.44 237.932 174.259 236.364 176.054 236.364C177.849 236.364 178.668 237.932 178.668 239.682C178.668 241.432 177.849 242.977 176.054 242.977ZM183.736 244H185.054L186.963 237.295H187.099L189.009 244H190.327L192.986 235.273H191.577L189.69 241.932H189.599L187.759 235.273H186.327L184.463 241.955H184.372L182.486 235.273H181.077L183.736 244ZM196.099 238.75C196.099 237.227 197.043 236.364 198.327 236.364C199.571 236.364 200.327 237.176 200.327 238.545V244H201.668V238.455C201.668 236.227 200.48 235.159 198.713 235.159C197.395 235.159 196.577 235.75 196.168 236.636H196.054V235.273H194.759V244H196.099V238.75ZM205.459 232.364H204.118V244H205.459V232.364ZM211.46 244.182C213.824 244.182 215.415 242.386 215.415 239.682C215.415 236.955 213.824 235.159 211.46 235.159C209.097 235.159 207.506 236.955 207.506 239.682C207.506 242.386 209.097 244.182 211.46 244.182ZM211.46 242.977C209.665 242.977 208.847 241.432 208.847 239.682C208.847 237.932 209.665 236.364 211.46 236.364C213.256 236.364 214.074 237.932 214.074 239.682C214.074 241.432 213.256 242.977 211.46 242.977ZM220.03 244.205C221.553 244.205 222.348 243.386 222.621 242.818H222.689V244H224.03V238.25C224.03 235.477 221.916 235.159 220.803 235.159C219.484 235.159 217.984 235.614 217.303 237.205L218.575 237.659C218.871 237.023 219.57 236.341 220.848 236.341C222.092 236.341 222.689 237.006 222.689 238.136C222.689 238.784 222.03 238.75 220.439 238.955C218.82 239.165 217.053 239.523 217.053 241.523C217.053 243.227 218.371 244.205 220.03 244.205ZM220.234 243C219.166 243 218.393 242.523 218.393 241.591C218.393 240.568 219.325 240.25 220.371 240.114C220.939 240.045 222.462 239.886 222.689 239.614V240.841C222.689 241.932 221.825 243 220.234 243ZM233.773 244V232.364H232.432V236.659H232.318C232.023 236.205 231.5 235.159 229.795 235.159C227.591 235.159 226.068 236.909 226.068 239.659C226.068 242.432 227.591 244.182 229.773 244.182C231.455 244.182 232.023 243.136 232.318 242.659H232.477V244H233.773ZM232.455 239.636C232.455 241.614 231.568 242.977 229.955 242.977C228.273 242.977 227.409 241.5 227.409 239.636C227.409 237.795 228.25 236.364 229.955 236.364C231.591 236.364 232.455 237.682 232.455 239.636Z" fill="#637381"/>
<path d="M152.204 239.748L152.204 239.748C152.421 239.545 152.77 239.543 152.984 239.75M152.204 239.748L148.716 243.888L148.612 243.995C148.825 244.202 149.175 244.201 149.388 243.995L152.984 240.52C153.205 240.306 153.205 239.964 152.984 239.75M152.204 239.748L152.202 239.75M152.204 239.748L152.202 239.75M152.984 239.75L152.88 239.857L152.984 239.75C152.984 239.75 152.984 239.75 152.984 239.75ZM152.202 239.75L149.554 242.314L149.554 233.394C149.554 233.09 149.299 232.85 148.997 232.85C148.692 232.85 148.446 233.093 148.446 233.394L148.446 242.314L145.792 239.75C145.792 239.75 145.792 239.75 145.792 239.75M152.202 239.75L145.792 239.75M145.792 239.75C145.792 239.75 145.792 239.75 145.792 239.75L145.792 239.75Z" fill="#08BEE5" stroke="#08BEE5" stroke-width="0.3"/>
<g filter="url(#filter1_d)">
<rect x="494" y="214" width="154" height="48" rx="4" fill="white"/>
</g>
<path d="M545.781 244C549.327 244 551.327 241.795 551.327 238.159C551.327 234.545 549.327 232.364 545.94 232.364H542.19V244H545.781ZM543.599 242.75V233.614H545.849C548.577 233.614 549.963 235.341 549.963 238.159C549.963 241 548.577 242.75 545.69 242.75H543.599ZM557.054 244.182C559.418 244.182 561.009 242.386 561.009 239.682C561.009 236.955 559.418 235.159 557.054 235.159C554.69 235.159 553.099 236.955 553.099 239.682C553.099 242.386 554.69 244.182 557.054 244.182ZM557.054 242.977C555.259 242.977 554.44 241.432 554.44 239.682C554.44 237.932 555.259 236.364 557.054 236.364C558.849 236.364 559.668 237.932 559.668 239.682C559.668 241.432 558.849 242.977 557.054 242.977ZM564.736 244H566.054L567.963 237.295H568.099L570.009 244H571.327L573.986 235.273H572.577L570.69 241.932H570.599L568.759 235.273H567.327L565.463 241.955H565.372L563.486 235.273H562.077L564.736 244ZM577.099 238.75C577.099 237.227 578.043 236.364 579.327 236.364C580.571 236.364 581.327 237.176 581.327 238.545V244H582.668V238.455C582.668 236.227 581.48 235.159 579.713 235.159C578.395 235.159 577.577 235.75 577.168 236.636H577.054V235.273H575.759V244H577.099V238.75ZM586.459 232.364H585.118V244H586.459V232.364ZM592.46 244.182C594.824 244.182 596.415 242.386 596.415 239.682C596.415 236.955 594.824 235.159 592.46 235.159C590.097 235.159 588.506 236.955 588.506 239.682C588.506 242.386 590.097 244.182 592.46 244.182ZM592.46 242.977C590.665 242.977 589.847 241.432 589.847 239.682C589.847 237.932 590.665 236.364 592.46 236.364C594.256 236.364 595.074 237.932 595.074 239.682C595.074 241.432 594.256 242.977 592.46 242.977ZM601.03 244.205C602.553 244.205 603.348 243.386 603.621 242.818H603.689V244H605.03V238.25C605.03 235.477 602.916 235.159 601.803 235.159C600.484 235.159 598.984 235.614 598.303 237.205L599.575 237.659C599.871 237.023 600.57 236.341 601.848 236.341C603.092 236.341 603.689 237.006 603.689 238.136C603.689 238.784 603.03 238.75 601.439 238.955C599.82 239.165 598.053 239.523 598.053 241.523C598.053 243.227 599.371 244.205 601.03 244.205ZM601.234 243C600.166 243 599.393 242.523 599.393 241.591C599.393 240.568 600.325 240.25 601.371 240.114C601.939 240.045 603.462 239.886 603.689 239.614V240.841C603.689 241.932 602.825 243 601.234 243ZM614.773 244V232.364H613.432V236.659H613.318C613.023 236.205 612.5 235.159 610.795 235.159C608.591 235.159 607.068 236.909 607.068 239.659C607.068 242.432 608.591 244.182 610.773 244.182C612.455 244.182 613.023 243.136 613.318 242.659H613.477V244H614.773ZM613.455 239.636C613.455 241.614 612.568 242.977 610.955 242.977C609.273 242.977 608.409 241.5 608.409 239.636C608.409 237.795 609.25 236.364 610.955 236.364C612.591 236.364 613.455 237.682 613.455 239.636Z" fill="#637381"/>
<path d="M533.204 239.748L533.204 239.748C533.421 239.545 533.77 239.543 533.984 239.75M533.204 239.748L529.716 243.888L529.612 243.995C529.825 244.202 530.175 244.201 530.388 243.995L533.984 240.52C534.205 240.306 534.205 239.964 533.984 239.75M533.204 239.748L533.202 239.75M533.204 239.748L533.202 239.75M533.984 239.75L533.88 239.857L533.984 239.75C533.984 239.75 533.984 239.75 533.984 239.75ZM533.202 239.75L530.554 242.314L530.554 233.394C530.554 233.09 530.299 232.85 529.997 232.85C529.692 232.85 529.446 233.093 529.446 233.394L529.446 242.314L526.792 239.75C526.792 239.75 526.792 239.75 526.792 239.75M533.202 239.75L526.792 239.75M526.792 239.75C526.792 239.75 526.792 239.75 526.792 239.75L526.792 239.75Z" fill="#08BEE5" stroke="#08BEE5" stroke-width="0.3"/>
<path d="M141.132 168.712C140.001 169.16 138.742 169.384 137.356 169.384C135.969 169.384 134.71 169.16 133.58 168.712C132.449 168.264 131.521 167.667 130.796 166.92C130.07 166.173 129.462 165.288 128.972 164.264C128.481 163.24 128.129 162.195 127.916 161.128C127.702 160.061 127.596 158.952 127.596 157.8C127.596 156.648 127.702 155.539 127.916 154.472C128.129 153.405 128.481 152.36 128.972 151.336C129.462 150.312 130.07 149.427 130.796 148.68C131.521 147.933 132.449 147.336 133.58 146.888C134.71 146.44 135.969 146.216 137.356 146.216C138.742 146.216 140.001 146.44 141.132 146.888C142.262 147.336 143.19 147.933 143.916 148.68C144.641 149.427 145.249 150.312 145.74 151.336C146.23 152.36 146.582 153.405 146.796 154.472C147.009 155.539 147.116 156.648 147.116 157.8C147.116 158.952 147.009 160.061 146.796 161.128C146.582 162.195 146.23 163.24 145.74 164.264C145.249 165.288 144.641 166.173 143.916 166.92C143.19 167.667 142.262 168.264 141.132 168.712ZM134.412 165.448C135.265 165.939 136.246 166.184 137.356 166.184C138.465 166.184 139.446 165.928 140.3 165.416C141.153 164.883 141.814 164.189 142.284 163.336C142.753 162.483 143.094 161.597 143.308 160.68C143.542 159.741 143.66 158.781 143.66 157.8C143.66 156.776 143.542 155.795 143.308 154.856C143.094 153.896 142.753 153 142.284 152.168C141.814 151.336 141.153 150.675 140.3 150.184C139.446 149.672 138.465 149.416 137.356 149.416C136.246 149.416 135.265 149.683 134.412 150.216C133.558 150.728 132.897 151.411 132.428 152.264C131.958 153.117 131.606 154.013 131.372 154.952C131.158 155.869 131.052 156.819 131.052 157.8C131.052 158.824 131.158 159.816 131.372 160.776C131.606 161.715 131.958 162.6 132.428 163.432C132.897 164.264 133.558 164.936 134.412 165.448ZM155.987 169L150.003 152.648H153.331L157.107 163.368C157.342 164.072 157.491 164.552 157.555 164.808C157.619 164.552 157.768 164.072 158.003 163.368L161.747 152.648H165.075L159.091 169H155.987ZM174.915 169.384C172.632 169.384 170.819 168.627 169.475 167.112C168.152 165.576 167.491 163.475 167.491 160.808C167.491 158.141 168.163 156.051 169.507 154.536C170.851 153.021 172.653 152.264 174.915 152.264C176.963 152.264 178.648 152.915 179.971 154.216C181.293 155.517 181.955 157.416 181.955 159.912C181.955 160.829 181.912 161.544 181.827 162.056H170.819C170.84 163.357 171.256 164.413 172.067 165.224C172.899 166.035 173.859 166.44 174.947 166.44C176.355 166.44 177.485 165.885 178.339 164.776L180.515 167.016C179.192 168.595 177.325 169.384 174.915 169.384ZM170.819 159.368H178.627C178.605 157.96 178.232 156.915 177.507 156.232C176.781 155.549 175.917 155.208 174.915 155.208C173.784 155.208 172.835 155.549 172.067 156.232C171.32 156.893 170.904 157.939 170.819 159.368ZM185.791 169V152.648H189.119V154.632C189.844 153.053 191.06 152.264 192.767 152.264C193.833 152.264 194.751 152.595 195.519 153.256L195.039 156.328C194.249 155.795 193.385 155.528 192.447 155.528C191.551 155.528 190.772 155.869 190.111 156.552C189.449 157.213 189.119 158.301 189.119 159.816V169H185.791ZM205.773 169.384C204.109 169.384 202.797 168.787 201.837 167.592V173.896L198.509 175.432V152.648H201.837V153.96C202.861 152.829 204.173 152.264 205.773 152.264C207.843 152.264 209.475 153.032 210.669 154.568C211.885 156.083 212.493 158.173 212.493 160.84C212.493 163.485 211.875 165.576 210.637 167.112C209.421 168.627 207.8 169.384 205.773 169.384ZM205.293 166.248C206.552 166.248 207.512 165.789 208.173 164.872C208.835 163.933 209.165 162.589 209.165 160.84C209.165 159.219 208.824 157.907 208.141 156.904C207.459 155.901 206.509 155.4 205.293 155.4C203.757 155.4 202.605 156.019 201.837 157.256V164.36C202.776 165.619 203.928 166.248 205.293 166.248ZM225.822 169V167.592C224.67 168.787 223.177 169.384 221.342 169.384C219.614 169.384 218.206 168.915 217.118 167.976C216.051 167.016 215.518 165.661 215.518 163.912C215.518 162.141 216.126 160.797 217.342 159.88C218.558 158.963 220.041 158.504 221.79 158.504C223.39 158.504 224.734 158.824 225.822 159.464V158.568C225.822 157.352 225.545 156.488 224.99 155.976C224.435 155.464 223.55 155.208 222.334 155.208C220.542 155.208 218.985 155.699 217.662 156.68L216.67 153.96C218.313 152.829 220.35 152.264 222.782 152.264C223.593 152.264 224.318 152.339 224.958 152.488C225.598 152.616 226.249 152.883 226.91 153.288C227.571 153.672 228.083 154.301 228.446 155.176C228.83 156.051 229.022 157.128 229.022 158.408V169H225.822ZM221.95 166.44C223.486 166.44 224.777 165.853 225.822 164.68V162.184C224.819 161.651 223.657 161.384 222.334 161.384C221.267 161.384 220.393 161.597 219.71 162.024C219.049 162.429 218.718 163.059 218.718 163.912C218.718 164.701 218.995 165.32 219.55 165.768C220.105 166.216 220.905 166.44 221.95 166.44ZM238.565 169.384C237.285 169.384 236.08 169.149 234.949 168.68C233.819 168.189 232.965 167.539 232.389 166.728L234.757 164.712C235.931 165.821 237.179 166.376 238.501 166.376C240.421 166.376 241.381 165.789 241.381 164.616C241.381 164.211 241.2 163.837 240.837 163.496C240.475 163.155 240.112 162.909 239.749 162.76C239.387 162.589 238.8 162.344 237.989 162.024C236.197 161.427 234.875 160.723 234.021 159.912C233.189 159.101 232.773 158.056 232.773 156.776C232.773 155.368 233.307 154.269 234.373 153.48C235.461 152.669 236.827 152.264 238.469 152.264C240.923 152.264 242.832 153.085 244.197 154.728L241.797 156.648C240.923 155.731 239.813 155.272 238.469 155.272C237.765 155.272 237.2 155.411 236.773 155.688C236.368 155.944 236.165 156.307 236.165 156.776C236.165 157.267 236.411 157.672 236.901 157.992C237.413 158.291 238.224 158.653 239.333 159.08C241.189 159.699 242.544 160.424 243.397 161.256C244.272 162.088 244.709 163.208 244.709 164.616C244.709 166.152 244.155 167.336 243.045 168.168C241.957 168.979 240.464 169.384 238.565 169.384ZM253.753 169.384C252.473 169.384 251.268 169.149 250.137 168.68C249.006 168.189 248.153 167.539 247.577 166.728L249.945 164.712C251.118 165.821 252.366 166.376 253.689 166.376C255.609 166.376 256.569 165.789 256.569 164.616C256.569 164.211 256.388 163.837 256.025 163.496C255.662 163.155 255.3 162.909 254.937 162.76C254.574 162.589 253.988 162.344 253.177 162.024C251.385 161.427 250.062 160.723 249.209 159.912C248.377 159.101 247.961 158.056 247.961 156.776C247.961 155.368 248.494 154.269 249.561 153.48C250.649 152.669 252.014 152.264 253.657 152.264C256.11 152.264 258.02 153.085 259.385 154.728L256.985 156.648C256.11 155.731 255.001 155.272 253.657 155.272C252.953 155.272 252.388 155.411 251.961 155.688C251.556 155.944 251.353 156.307 251.353 156.776C251.353 157.267 251.598 157.672 252.089 157.992C252.601 158.291 253.412 158.653 254.521 159.08C256.377 159.699 257.732 160.424 258.585 161.256C259.46 162.088 259.897 163.208 259.897 164.616C259.897 166.152 259.342 167.336 258.233 168.168C257.145 168.979 255.652 169.384 253.753 169.384Z" fill="#30404F"/>
<path d="M473.75 160.125H469.938V169H466.188V146.25H473.375C474.542 146.26 475.615 146.411 476.594 146.703C477.583 146.984 478.438 147.411 479.156 147.984C479.875 148.547 480.432 149.255 480.828 150.109C481.224 150.964 481.422 151.964 481.422 153.109C481.422 153.88 481.318 154.583 481.109 155.219C480.911 155.844 480.63 156.411 480.266 156.922C479.901 157.432 479.464 157.88 478.953 158.266C478.443 158.651 477.88 158.979 477.266 159.25L482.078 168.812V169H478.078L473.75 160.125ZM469.938 157.094H473.391C474.016 157.094 474.589 157.005 475.109 156.828C475.63 156.651 476.078 156.401 476.453 156.078C476.839 155.745 477.135 155.344 477.344 154.875C477.552 154.396 477.656 153.849 477.656 153.234C477.656 152.599 477.557 152.036 477.359 151.547C477.161 151.057 476.875 150.646 476.5 150.312C476.135 149.979 475.688 149.729 475.156 149.562C474.625 149.385 474.031 149.292 473.375 149.281H469.938V157.094Z" fill="#30404F"/>
<path d="M484.75 160.391C484.75 159.172 484.927 158.036 485.281 156.984C485.646 155.932 486.161 155.021 486.828 154.25C487.505 153.479 488.328 152.875 489.297 152.438C490.266 152 491.365 151.781 492.594 151.781C493.833 151.781 494.938 152 495.906 152.438C496.885 152.875 497.708 153.479 498.375 154.25C499.052 155.021 499.568 155.932 499.922 156.984C500.276 158.036 500.453 159.172 500.453 160.391V160.719C500.453 161.948 500.276 163.089 499.922 164.141C499.568 165.193 499.052 166.104 498.375 166.875C497.708 167.635 496.891 168.234 495.922 168.672C494.953 169.109 493.854 169.328 492.625 169.328C491.385 169.328 490.276 169.109 489.297 168.672C488.328 168.234 487.505 167.635 486.828 166.875C486.161 166.104 485.646 165.193 485.281 164.141C484.927 163.089 484.75 161.948 484.75 160.719V160.391ZM488.484 160.719C488.484 161.49 488.562 162.214 488.719 162.891C488.885 163.568 489.135 164.167 489.469 164.688C489.812 165.198 490.245 165.604 490.766 165.906C491.286 166.198 491.906 166.344 492.625 166.344C493.323 166.344 493.927 166.198 494.438 165.906C494.958 165.604 495.385 165.198 495.719 164.688C496.062 164.167 496.312 163.568 496.469 162.891C496.635 162.214 496.719 161.49 496.719 160.719V160.391C496.719 159.641 496.635 158.927 496.469 158.25C496.312 157.573 496.062 156.979 495.719 156.469C495.385 155.958 494.958 155.552 494.438 155.25C493.927 154.948 493.312 154.797 492.594 154.797C491.885 154.797 491.271 154.948 490.75 155.25C490.229 155.552 489.802 155.958 489.469 156.469C489.135 156.979 488.885 157.573 488.719 158.25C488.562 158.927 488.484 159.641 488.484 160.391V160.719Z" fill="#30404F"/>
<path d="M519.516 160.734C519.516 161.984 519.37 163.135 519.078 164.188C518.797 165.229 518.375 166.13 517.812 166.891C517.25 167.651 516.557 168.245 515.734 168.672C514.911 169.099 513.964 169.312 512.891 169.312C511.859 169.312 510.964 169.13 510.203 168.766C509.453 168.401 508.807 167.875 508.266 167.188L508.094 169H504.703V145H508.438V153.703C508.969 153.089 509.594 152.615 510.312 152.281C511.031 151.948 511.88 151.781 512.859 151.781C513.943 151.781 514.896 151.995 515.719 152.422C516.552 152.839 517.25 153.427 517.812 154.188C518.375 154.948 518.797 155.859 519.078 156.922C519.37 157.974 519.516 159.135 519.516 160.406V160.734ZM515.781 160.406C515.781 159.656 515.714 158.948 515.578 158.281C515.453 157.604 515.24 157.01 514.938 156.5C514.646 155.99 514.25 155.589 513.75 155.297C513.25 154.995 512.635 154.844 511.906 154.844C511.021 154.844 510.297 155.047 509.734 155.453C509.172 155.859 508.74 156.391 508.438 157.047V164.031C508.74 164.688 509.172 165.224 509.734 165.641C510.307 166.057 511.042 166.266 511.938 166.266C512.646 166.266 513.245 166.125 513.734 165.844C514.224 165.552 514.62 165.156 514.922 164.656C515.224 164.156 515.443 163.573 515.578 162.906C515.714 162.229 515.781 161.505 515.781 160.734V160.406Z" fill="#30404F"/>
<path d="M523.188 160.391C523.188 159.172 523.365 158.036 523.719 156.984C524.083 155.932 524.599 155.021 525.266 154.25C525.943 153.479 526.766 152.875 527.734 152.438C528.703 152 529.802 151.781 531.031 151.781C532.271 151.781 533.375 152 534.344 152.438C535.323 152.875 536.146 153.479 536.812 154.25C537.49 155.021 538.005 155.932 538.359 156.984C538.714 158.036 538.891 159.172 538.891 160.391V160.719C538.891 161.948 538.714 163.089 538.359 164.141C538.005 165.193 537.49 166.104 536.812 166.875C536.146 167.635 535.328 168.234 534.359 168.672C533.391 169.109 532.292 169.328 531.062 169.328C529.823 169.328 528.714 169.109 527.734 168.672C526.766 168.234 525.943 167.635 525.266 166.875C524.599 166.104 524.083 165.193 523.719 164.141C523.365 163.089 523.188 161.948 523.188 160.719V160.391ZM526.922 160.719C526.922 161.49 527 162.214 527.156 162.891C527.323 163.568 527.573 164.167 527.906 164.688C528.25 165.198 528.682 165.604 529.203 165.906C529.724 166.198 530.344 166.344 531.062 166.344C531.76 166.344 532.365 166.198 532.875 165.906C533.396 165.604 533.823 165.198 534.156 164.688C534.5 164.167 534.75 163.568 534.906 162.891C535.073 162.214 535.156 161.49 535.156 160.719V160.391C535.156 159.641 535.073 158.927 534.906 158.25C534.75 157.573 534.5 156.979 534.156 156.469C533.823 155.958 533.396 155.552 532.875 155.25C532.365 154.948 531.75 154.797 531.031 154.797C530.323 154.797 529.708 154.948 529.188 155.25C528.667 155.552 528.24 155.958 527.906 156.469C527.573 156.979 527.323 157.573 527.156 158.25C527 158.927 526.922 159.641 526.922 160.391V160.719Z" fill="#30404F"/>
<path d="M550.578 148V152.094H556.969V154.875H550.578V162.984C550.578 163.62 550.651 164.146 550.797 164.562C550.953 164.979 551.167 165.312 551.438 165.562C551.708 165.812 552.026 165.99 552.391 166.094C552.755 166.188 553.156 166.234 553.594 166.234C553.917 166.234 554.25 166.219 554.594 166.188C554.948 166.146 555.286 166.104 555.609 166.062C555.943 166.01 556.245 165.958 556.516 165.906C556.797 165.844 557.031 165.786 557.219 165.734L557.641 168.312C557.37 168.469 557.042 168.615 556.656 168.75C556.281 168.875 555.87 168.979 555.422 169.062C554.974 169.146 554.505 169.208 554.016 169.25C553.536 169.302 553.062 169.328 552.594 169.328C551.75 169.328 550.974 169.214 550.266 168.984C549.568 168.745 548.964 168.38 548.453 167.891C547.953 167.391 547.557 166.755 547.266 165.984C546.984 165.203 546.844 164.271 546.844 163.188V154.875H542.719V152.094H546.844V148H550.578Z" fill="#30404F"/>
<path d="M561.625 160.391C561.625 159.172 561.802 158.036 562.156 156.984C562.521 155.932 563.036 155.021 563.703 154.25C564.38 153.479 565.203 152.875 566.172 152.438C567.141 152 568.24 151.781 569.469 151.781C570.708 151.781 571.812 152 572.781 152.438C573.76 152.875 574.583 153.479 575.25 154.25C575.927 155.021 576.443 155.932 576.797 156.984C577.151 158.036 577.328 159.172 577.328 160.391V160.719C577.328 161.948 577.151 163.089 576.797 164.141C576.443 165.193 575.927 166.104 575.25 166.875C574.583 167.635 573.766 168.234 572.797 168.672C571.828 169.109 570.729 169.328 569.5 169.328C568.26 169.328 567.151 169.109 566.172 168.672C565.203 168.234 564.38 167.635 563.703 166.875C563.036 166.104 562.521 165.193 562.156 164.141C561.802 163.089 561.625 161.948 561.625 160.719V160.391ZM565.359 160.719C565.359 161.49 565.438 162.214 565.594 162.891C565.76 163.568 566.01 164.167 566.344 164.688C566.688 165.198 567.12 165.604 567.641 165.906C568.161 166.198 568.781 166.344 569.5 166.344C570.198 166.344 570.802 166.198 571.312 165.906C571.833 165.604 572.26 165.198 572.594 164.688C572.938 164.167 573.188 163.568 573.344 162.891C573.51 162.214 573.594 161.49 573.594 160.719V160.391C573.594 159.641 573.51 158.927 573.344 158.25C573.188 157.573 572.938 156.979 572.594 156.469C572.26 155.958 571.833 155.552 571.312 155.25C570.802 154.948 570.188 154.797 569.469 154.797C568.76 154.797 568.146 154.948 567.625 155.25C567.104 155.552 566.677 155.958 566.344 156.469C566.01 156.979 565.76 157.573 565.594 158.25C565.438 158.927 565.359 159.641 565.359 160.391V160.719Z" fill="#30404F"/>
<path d="M605.094 146.25L607.922 156.078L611.047 146.25H615.703V169H612.172V161.188L612.391 151.219L608.891 162.125H606.922L603.75 151.594L603.969 161.188V169H600.438V146.25H605.094Z" fill="#30404F"/>
<path d="M619.281 160.391C619.281 159.172 619.458 158.036 619.812 156.984C620.177 155.932 620.693 155.021 621.359 154.25C622.036 153.479 622.859 152.875 623.828 152.438C624.797 152 625.896 151.781 627.125 151.781C628.365 151.781 629.469 152 630.438 152.438C631.417 152.875 632.24 153.479 632.906 154.25C633.583 155.021 634.099 155.932 634.453 156.984C634.807 158.036 634.984 159.172 634.984 160.391V160.719C634.984 161.948 634.807 163.089 634.453 164.141C634.099 165.193 633.583 166.104 632.906 166.875C632.24 167.635 631.422 168.234 630.453 168.672C629.484 169.109 628.385 169.328 627.156 169.328C625.917 169.328 624.807 169.109 623.828 168.672C622.859 168.234 622.036 167.635 621.359 166.875C620.693 166.104 620.177 165.193 619.812 164.141C619.458 163.089 619.281 161.948 619.281 160.719V160.391ZM623.016 160.719C623.016 161.49 623.094 162.214 623.25 162.891C623.417 163.568 623.667 164.167 624 164.688C624.344 165.198 624.776 165.604 625.297 165.906C625.818 166.198 626.438 166.344 627.156 166.344C627.854 166.344 628.458 166.198 628.969 165.906C629.49 165.604 629.917 165.198 630.25 164.688C630.594 164.167 630.844 163.568 631 162.891C631.167 162.214 631.25 161.49 631.25 160.719V160.391C631.25 159.641 631.167 158.927 631 158.25C630.844 157.573 630.594 156.979 630.25 156.469C629.917 155.958 629.49 155.552 628.969 155.25C628.458 154.948 627.844 154.797 627.125 154.797C626.417 154.797 625.802 154.948 625.281 155.25C624.76 155.552 624.333 155.958 624 156.469C623.667 156.979 623.417 157.573 623.25 158.25C623.094 158.927 623.016 159.641 623.016 160.391V160.719Z" fill="#30404F"/>
<path d="M642.562 152.094L642.797 154.438C643.411 153.594 644.151 152.943 645.016 152.484C645.891 152.016 646.859 151.781 647.922 151.781C648.786 151.781 649.573 151.906 650.281 152.156C651 152.406 651.615 152.797 652.125 153.328C652.646 153.859 653.047 154.547 653.328 155.391C653.62 156.234 653.766 157.25 653.766 158.438V169H650.031V158.5C650.031 157.802 649.948 157.219 649.781 156.75C649.625 156.281 649.396 155.906 649.094 155.625C648.802 155.344 648.443 155.146 648.016 155.031C647.589 154.906 647.104 154.844 646.562 154.844C645.74 154.844 645.021 155.026 644.406 155.391C643.802 155.755 643.312 156.25 642.938 156.875V169H639.188V152.094H642.562Z" fill="#30404F"/>
<path d="M657.719 160.391C657.719 159.172 657.896 158.036 658.25 156.984C658.615 155.932 659.13 155.021 659.797 154.25C660.474 153.479 661.297 152.875 662.266 152.438C663.234 152 664.333 151.781 665.562 151.781C666.802 151.781 667.906 152 668.875 152.438C669.854 152.875 670.677 153.479 671.344 154.25C672.021 155.021 672.536 155.932 672.891 156.984C673.245 158.036 673.422 159.172 673.422 160.391V160.719C673.422 161.948 673.245 163.089 672.891 164.141C672.536 165.193 672.021 166.104 671.344 166.875C670.677 167.635 669.859 168.234 668.891 168.672C667.922 169.109 666.823 169.328 665.594 169.328C664.354 169.328 663.245 169.109 662.266 168.672C661.297 168.234 660.474 167.635 659.797 166.875C659.13 166.104 658.615 165.193 658.25 164.141C657.896 163.089 657.719 161.948 657.719 160.719V160.391ZM661.453 160.719C661.453 161.49 661.531 162.214 661.688 162.891C661.854 163.568 662.104 164.167 662.438 164.688C662.781 165.198 663.214 165.604 663.734 165.906C664.255 166.198 664.875 166.344 665.594 166.344C666.292 166.344 666.896 166.198 667.406 165.906C667.927 165.604 668.354 165.198 668.688 164.688C669.031 164.167 669.281 163.568 669.438 162.891C669.604 162.214 669.688 161.49 669.688 160.719V160.391C669.688 159.641 669.604 158.927 669.438 158.25C669.281 157.573 669.031 156.979 668.688 156.469C668.354 155.958 667.927 155.552 667.406 155.25C666.896 154.948 666.281 154.797 665.562 154.797C664.854 154.797 664.24 154.948 663.719 155.25C663.198 155.552 662.771 155.958 662.438 156.469C662.104 156.979 661.854 157.573 661.688 158.25C661.531 158.927 661.453 159.641 661.453 160.391V160.719Z" fill="#30404F"/>
<defs>
<filter id="filter0_d" x="109" y="212" width="162" height="56" filterUnits="userSpaceOnUse" color-interpolation-filters="sRGB">
<feFlood flood-opacity="0" result="BackgroundImageFix"/>
<feColorMatrix in="SourceAlpha" type="matrix" values="0 0 0 0 0 0 0 0 0 0 0 0 0 0 0 0 0 0 127 0"/>
<feOffset dy="2"/>
<feGaussianBlur stdDeviation="2"/>
<feColorMatrix type="matrix" values="0 0 0 0 0 0 0 0 0 0 0 0 0 0 0 0 0 0 0.1 0"/>
<feBlend mode="normal" in2="BackgroundImageFix" result="effect1_dropShadow"/>
<feBlend mode="normal" in="SourceGraphic" in2="effect1_dropShadow" result="shape"/>
</filter>
<filter id="filter1_d" x="490" y="212" width="162" height="56" filterUnits="userSpaceOnUse" color-interpolation-filters="sRGB">
<feFlood flood-opacity="0" result="BackgroundImageFix"/>
<feColorMatrix in="SourceAlpha" type="matrix" values="0 0 0 0 0 0 0 0 0 0 0 0 0 0 0 0 0 0 127 0"/>
<feOffset dy="2"/>
<feGaussianBlur stdDeviation="2"/>
<feColorMatrix type="matrix" values="0 0 0 0 0 0 0 0 0 0 0 0 0 0 0 0 0 0 0.1 0"/>
<feBlend mode="normal" in2="BackgroundImageFix" result="effect1_dropShadow"/>
<feBlend mode="normal" in="SourceGraphic" in2="effect1_dropShadow" result="shape"/>
</filter>
</defs>
</svg>
