<svg width="799" height="698" viewBox="0 0 799 698" fill="none" xmlns="http://www.w3.org/2000/svg">
<rect opacity="0.2" width="760" height="698" rx="4" fill="#F5F5F5"/>
<rect x="53.5" y="101.5" width="23" height="23" stroke="#FF0000"/>
<rect x="53.5" y="77.5" width="652" height="23" fill="#08BEE5" fill-opacity="0.2" stroke="#08BEE5"/>
<rect x="53.5" y="218.5" width="652" height="10" fill="#08BEE5" fill-opacity="0.2" stroke="#08BEE5"/>
<rect x="120.5" y="335.5" width="524" height="23" fill="#08BEE5" fill-opacity="0.2" stroke="#08BEE5"/>
<rect x="53.5" y="125.5" width="652" height="44" fill="#08BEE5" fill-opacity="0.2" stroke="#08BEE5"/>
<path d="M125.03 342.894H128.54V341.4H119.954V342.894H123.464V354H125.03V342.894ZM130.988 354H132.554V348.402C132.554 346.62 133.472 346.026 134.678 346.026C135.812 346.026 136.658 346.692 136.658 348.438V354H138.224V348.708C138.224 345.738 137.018 344.586 134.93 344.586C133.94 344.586 133.13 344.964 132.554 345.756V341.004L130.988 341.724V354ZM141.923 343.128C142.481 343.128 142.913 342.696 142.913 342.156C142.913 341.598 142.481 341.148 141.923 341.148C141.383 341.148 140.951 341.598 140.951 342.156C140.951 342.696 141.383 343.128 141.923 343.128ZM141.149 354H142.715V344.802H141.149V354ZM148.419 354.216C150.417 354.216 151.695 353.262 151.695 351.606C151.695 349.86 150.381 349.14 148.707 348.546C147.681 348.132 146.763 347.79 146.763 347.016C146.763 346.368 147.357 345.99 148.293 345.99C149.283 345.99 149.931 346.458 150.327 346.872L151.407 345.972C150.741 345.18 149.715 344.586 148.311 344.586C146.547 344.586 145.215 345.504 145.215 347.016C145.215 348.528 146.367 349.266 148.059 349.896C149.139 350.31 150.165 350.724 150.165 351.642C150.165 352.452 149.427 352.812 148.455 352.812C147.465 352.812 146.673 352.218 146.205 351.714L145.089 352.668C145.809 353.586 147.069 354.216 148.419 354.216ZM159.167 343.128C159.725 343.128 160.157 342.696 160.157 342.156C160.157 341.598 159.725 341.148 159.167 341.148C158.627 341.148 158.195 341.598 158.195 342.156C158.195 342.696 158.627 343.128 159.167 343.128ZM158.393 354H159.959V344.802H158.393V354ZM165.663 354.216C167.661 354.216 168.939 353.262 168.939 351.606C168.939 349.86 167.625 349.14 165.951 348.546C164.925 348.132 164.007 347.79 164.007 347.016C164.007 346.368 164.601 345.99 165.537 345.99C166.527 345.99 167.175 346.458 167.571 346.872L168.651 345.972C167.985 345.18 166.959 344.586 165.555 344.586C163.791 344.586 162.459 345.504 162.459 347.016C162.459 348.528 163.611 349.266 165.303 349.896C166.383 350.31 167.409 350.724 167.409 351.642C167.409 352.452 166.671 352.812 165.699 352.812C164.709 352.812 163.917 352.218 163.449 351.714L162.333 352.668C163.053 353.586 164.313 354.216 165.663 354.216ZM180.893 354H182.369V347.898C182.369 345.072 180.533 344.586 179.093 344.586C177.707 344.586 176.501 345.072 175.763 345.558L176.213 346.872C176.897 346.386 177.869 345.954 178.895 345.954C180.083 345.954 180.893 346.404 180.893 348.024V348.672C180.137 348.24 179.327 348.078 178.517 348.078C176.735 348.078 175.079 348.996 175.079 351.12C175.079 353.172 176.411 354.216 178.283 354.216C179.381 354.216 180.281 353.73 180.893 353.154V354ZM178.517 352.83C177.257 352.83 176.555 352.146 176.555 351.12C176.555 349.95 177.545 349.428 178.733 349.428C179.489 349.428 180.335 349.698 180.893 350.04V351.624C180.371 352.236 179.543 352.83 178.517 352.83ZM192.048 354.216C194.046 354.216 195.324 353.262 195.324 351.606C195.324 349.86 194.01 349.14 192.336 348.546C191.31 348.132 190.392 347.79 190.392 347.016C190.392 346.368 190.986 345.99 191.922 345.99C192.912 345.99 193.56 346.458 193.956 346.872L195.036 345.972C194.37 345.18 193.344 344.586 191.94 344.586C190.176 344.586 188.844 345.504 188.844 347.016C188.844 348.528 189.996 349.266 191.688 349.896C192.768 350.31 193.794 350.724 193.794 351.642C193.794 352.452 193.056 352.812 192.084 352.812C191.094 352.812 190.302 352.218 189.834 351.714L188.718 352.668C189.438 353.586 190.698 354.216 192.048 354.216ZM201.313 354.216C202.555 354.216 203.599 353.712 204.283 353.028L203.329 351.966C202.753 352.542 202.051 352.794 201.349 352.794C199.963 352.794 198.955 351.696 198.829 350.004H205.057C205.093 349.644 205.111 349.248 205.111 348.96C205.111 345.936 203.383 344.586 201.313 344.586C198.865 344.586 197.227 346.35 197.227 349.392C197.227 352.2 198.793 354.216 201.313 354.216ZM198.811 348.672C198.901 346.782 199.981 345.972 201.313 345.972C202.285 345.972 203.509 346.584 203.527 348.672H198.811ZM210.729 354.216C212.421 354.216 213.645 353.37 214.095 351.858L212.637 351.372C212.367 352.236 211.683 352.74 210.765 352.74C209.289 352.74 208.515 351.498 208.515 349.41C208.515 347.34 209.253 346.044 210.819 346.044C211.719 346.044 212.277 346.566 212.547 347.268L214.023 346.728C213.501 345.288 212.331 344.586 210.801 344.586C208.389 344.586 206.913 346.386 206.913 349.41C206.913 352.452 208.389 354.216 210.729 354.216ZM218.761 354.216C219.481 354.216 220.039 354.054 220.525 353.802L220.705 352.272C220.309 352.524 219.859 352.758 219.337 352.758C218.527 352.758 218.383 352.2 218.383 351.498V346.17H220.651V344.802H218.383V341.004L216.817 341.76V344.802H215.323V346.17H216.817V352.02C216.817 353.316 217.375 354.216 218.761 354.216ZM223.802 343.128C224.36 343.128 224.792 342.696 224.792 342.156C224.792 341.598 224.36 341.148 223.802 341.148C223.262 341.148 222.83 341.598 222.83 342.156C222.83 342.696 223.262 343.128 223.802 343.128ZM223.028 354H224.594V344.802H223.028V354ZM231.108 354.216C233.574 354.216 235.176 352.416 235.176 349.392C235.176 346.35 233.574 344.586 231.108 344.586C228.642 344.586 227.04 346.386 227.04 349.41C227.04 352.452 228.642 354.216 231.108 354.216ZM231.108 352.758C229.542 352.758 228.624 351.498 228.624 349.41C228.624 347.268 229.542 346.026 231.108 346.026C232.674 346.026 233.592 347.304 233.592 349.392C233.592 351.498 232.656 352.758 231.108 352.758ZM243.287 354H244.853V348.708C244.853 345.738 243.647 344.586 241.559 344.586C240.569 344.586 239.759 344.946 239.183 345.738V344.802H237.617V354H239.183V348.402C239.183 346.62 240.101 346.026 241.307 346.026C242.441 346.026 243.287 346.692 243.287 348.438V354ZM254.48 354.216C255.2 354.216 255.758 354.054 256.244 353.802L256.424 352.272C256.028 352.524 255.578 352.758 255.056 352.758C254.246 352.758 254.102 352.2 254.102 351.498V346.17H256.37V344.802H254.102V341.004L252.536 341.76V344.802H251.042V346.17H252.536V352.02C252.536 353.316 253.094 354.216 254.48 354.216ZM259.52 343.128C260.078 343.128 260.51 342.696 260.51 342.156C260.51 341.598 260.078 341.148 259.52 341.148C258.98 341.148 258.548 341.598 258.548 342.156C258.548 342.696 258.98 343.128 259.52 343.128ZM258.746 354H260.312V344.802H258.746V354ZM265.783 354.216C266.503 354.216 267.061 354.054 267.547 353.802L267.727 352.272C267.331 352.524 266.881 352.758 266.359 352.758C265.549 352.758 265.405 352.2 265.405 351.498V346.17H267.673V344.802H265.405V341.004L263.839 341.76V344.802H262.345V346.17H263.839V352.02C263.839 353.316 264.397 354.216 265.783 354.216ZM270.121 354H271.687V341.004L270.121 341.742V354ZM278.288 354.216C279.53 354.216 280.574 353.712 281.258 353.028L280.304 351.966C279.728 352.542 279.026 352.794 278.324 352.794C276.938 352.794 275.93 351.696 275.804 350.004H282.032C282.068 349.644 282.086 349.248 282.086 348.96C282.086 345.936 280.358 344.586 278.288 344.586C275.84 344.586 274.202 346.35 274.202 349.392C274.202 352.2 275.768 354.216 278.288 354.216ZM275.786 348.672C275.876 346.782 276.956 345.972 278.288 345.972C279.26 345.972 280.484 346.584 280.502 348.672H275.786Z" fill="#212B36"/>
<path d="M56.608 116H60.28V115.464H57.2C57.328 114.76 57.928 114.36 58.568 113.944C59.376 113.424 60.232 112.904 60.232 111.88C60.232 110.928 59.584 110.304 58.48 110.304C57.528 110.304 56.856 110.832 56.688 111.488L57.184 111.712C57.32 111.176 57.672 110.808 58.432 110.808C59.208 110.808 59.648 111.272 59.648 111.88C59.648 112.6 59 113.024 58.304 113.496C57.496 114.04 56.608 114.6 56.608 116ZM63.8047 116H64.3647V114.488H65.2127V114.008H64.3647V110.4H64.0287L61.0847 114.192V114.488H63.8047V116ZM63.8047 114.008H61.8127L63.8047 111.368V114.008ZM67.9781 116.096C68.9621 116.096 69.6661 115.32 69.6661 113.952C69.6661 112.664 69.0261 111.816 67.9781 111.816C67.4261 111.816 67.1221 112.04 66.8581 112.28V111.912H66.2981V117.624L66.8581 117.344V115.584C67.0901 115.856 67.4021 116.096 67.9781 116.096ZM67.9141 115.592C67.4741 115.592 67.1381 115.32 66.8581 114.96V112.952C67.0821 112.552 67.4741 112.32 67.9141 112.32C68.6421 112.32 69.0821 112.96 69.0821 113.952C69.0821 115.008 68.6581 115.592 67.9141 115.592ZM70.1481 116H70.7561L71.5801 114.736C71.6681 114.6 71.7481 114.472 71.8361 114.328L72.0921 114.736L72.9161 116H73.5241L72.1401 113.88L73.4281 111.912H72.8201L72.1001 113.016C72.0041 113.16 71.9241 113.288 71.8361 113.432C71.7481 113.288 71.6681 113.16 71.5721 113.016L70.8521 111.912H70.2441L71.5321 113.88L70.1481 116Z" fill="#FF0303"/>
<rect x="53.5" y="170.5" width="47" height="47" stroke="#FF0000"/>
<path d="M71 196H71.56V194.488H72.408V194.008H71.56V190.4H71.224L68.28 194.192V194.488H71V196ZM71 194.008H69.008L71 191.368V194.008ZM75.2054 196.096C76.2614 196.096 77.0374 195.368 77.0374 194.424C77.0374 193.728 76.6294 193.128 76.0374 192.904C76.5414 192.696 76.7814 192.224 76.7814 191.752C76.7814 190.976 76.1094 190.304 75.2054 190.304C74.3014 190.304 73.6294 190.976 73.6294 191.752C73.6294 192.224 73.8934 192.696 74.3654 192.904C73.7894 193.12 73.3734 193.728 73.3734 194.424C73.3734 195.368 74.1494 196.096 75.2054 196.096ZM75.2054 192.736C74.5894 192.736 74.1974 192.352 74.1974 191.824C74.1974 191.2 74.6294 190.808 75.2054 190.808C75.7814 190.808 76.2134 191.2 76.2134 191.824C76.2134 192.352 75.8214 192.736 75.2054 192.736ZM75.2054 195.592C74.4934 195.592 73.9574 195.128 73.9574 194.344C73.9574 193.68 74.4534 193.104 75.2054 193.104C75.9574 193.104 76.4534 193.68 76.4534 194.344C76.4534 195.128 75.9174 195.592 75.2054 195.592ZM80.0406 196.096C81.0246 196.096 81.7286 195.32 81.7286 193.952C81.7286 192.664 81.0886 191.816 80.0406 191.816C79.4886 191.816 79.1846 192.04 78.9206 192.28V191.912H78.3606V197.624L78.9206 197.344V195.584C79.1526 195.856 79.4646 196.096 80.0406 196.096ZM79.9766 195.592C79.5366 195.592 79.2006 195.32 78.9206 194.96V192.952C79.1446 192.552 79.5366 192.32 79.9766 192.32C80.7046 192.32 81.1446 192.96 81.1446 193.952C81.1446 195.008 80.7206 195.592 79.9766 195.592ZM82.2106 196H82.8186L83.6426 194.736C83.7306 194.6 83.8106 194.472 83.8986 194.328L84.1546 194.736L84.9786 196H85.5866L84.2026 193.88L85.4906 191.912H84.8826L84.1626 193.016C84.0666 193.16 83.9866 193.288 83.8986 193.432C83.8106 193.288 83.7306 193.16 83.6346 193.016L82.9146 191.912H82.3066L83.5946 193.88L82.2106 196Z" fill="#FF0303"/>
<rect x="53.5" y="280.5" width="23" height="23" stroke="#FF0000"/>
<path d="M56.608 295H60.28V294.464H57.2C57.328 293.76 57.928 293.36 58.568 292.944C59.376 292.424 60.232 291.904 60.232 290.88C60.232 289.928 59.584 289.304 58.48 289.304C57.528 289.304 56.856 289.832 56.688 290.488L57.184 290.712C57.32 290.176 57.672 289.808 58.432 289.808C59.208 289.808 59.648 290.272 59.648 290.88C59.648 291.6 59 292.024 58.304 292.496C57.496 293.04 56.608 293.6 56.608 295ZM63.8047 295H64.3647V293.488H65.2127V293.008H64.3647V289.4H64.0287L61.0847 293.192V293.488H63.8047V295ZM63.8047 293.008H61.8127L63.8047 290.368V293.008ZM67.9781 295.096C68.9621 295.096 69.6661 294.32 69.6661 292.952C69.6661 291.664 69.0261 290.816 67.9781 290.816C67.4261 290.816 67.1221 291.04 66.8581 291.28V290.912H66.2981V296.624L66.8581 296.344V294.584C67.0901 294.856 67.4021 295.096 67.9781 295.096ZM67.9141 294.592C67.4741 294.592 67.1381 294.32 66.8581 293.96V291.952C67.0821 291.552 67.4741 291.32 67.9141 291.32C68.6421 291.32 69.0821 291.96 69.0821 292.952C69.0821 294.008 68.6581 294.592 67.9141 294.592ZM70.1481 295H70.7561L71.5801 293.736C71.6681 293.6 71.7481 293.472 71.8361 293.328L72.0921 293.736L72.9161 295H73.5241L72.1401 292.88L73.4281 290.912H72.8201L72.1001 292.016C72.0041 292.16 71.9241 292.288 71.8361 292.432C71.7481 292.288 71.6681 292.16 71.5721 292.016L70.8521 290.912H70.2441L71.5321 292.88L70.1481 295Z" fill="#FF0303"/>
<rect x="53.5" y="366.5" width="23" height="23" stroke="#FF0000"/>
<path d="M56.608 381H60.28V380.464H57.2C57.328 379.76 57.928 379.36 58.568 378.944C59.376 378.424 60.232 377.904 60.232 376.88C60.232 375.928 59.584 375.304 58.48 375.304C57.528 375.304 56.856 375.832 56.688 376.488L57.184 376.712C57.32 376.176 57.672 375.808 58.432 375.808C59.208 375.808 59.648 376.272 59.648 376.88C59.648 377.6 59 378.024 58.304 378.496C57.496 379.04 56.608 379.6 56.608 381ZM63.8047 381H64.3647V379.488H65.2127V379.008H64.3647V375.4H64.0287L61.0847 379.192V379.488H63.8047V381ZM63.8047 379.008H61.8127L63.8047 376.368V379.008ZM67.9781 381.096C68.9621 381.096 69.6661 380.32 69.6661 378.952C69.6661 377.664 69.0261 376.816 67.9781 376.816C67.4261 376.816 67.1221 377.04 66.8581 377.28V376.912H66.2981V382.624L66.8581 382.344V380.584C67.0901 380.856 67.4021 381.096 67.9781 381.096ZM67.9141 380.592C67.4741 380.592 67.1381 380.32 66.8581 379.96V377.952C67.0821 377.552 67.4741 377.32 67.9141 377.32C68.6421 377.32 69.0821 377.96 69.0821 378.952C69.0821 380.008 68.6581 380.592 67.9141 380.592ZM70.1481 381H70.7561L71.5801 379.736C71.6681 379.6 71.7481 379.472 71.8361 379.328L72.0921 379.736L72.9161 381H73.5241L72.1401 378.88L73.4281 376.912H72.8201L72.1001 378.016C72.0041 378.16 71.9241 378.288 71.8361 378.432C71.7481 378.288 71.6681 378.16 71.5721 378.016L70.8521 376.912H70.2441L71.5321 378.88L70.1481 381Z" fill="#FF0303"/>
<rect x="53.5" y="452.5" width="23" height="23" stroke="#FF0000"/>
<path d="M56.608 467H60.28V466.464H57.2C57.328 465.76 57.928 465.36 58.568 464.944C59.376 464.424 60.232 463.904 60.232 462.88C60.232 461.928 59.584 461.304 58.48 461.304C57.528 461.304 56.856 461.832 56.688 462.488L57.184 462.712C57.32 462.176 57.672 461.808 58.432 461.808C59.208 461.808 59.648 462.272 59.648 462.88C59.648 463.6 59 464.024 58.304 464.496C57.496 465.04 56.608 465.6 56.608 467ZM63.8047 467H64.3647V465.488H65.2127V465.008H64.3647V461.4H64.0287L61.0847 465.192V465.488H63.8047V467ZM63.8047 465.008H61.8127L63.8047 462.368V465.008ZM67.9781 467.096C68.9621 467.096 69.6661 466.32 69.6661 464.952C69.6661 463.664 69.0261 462.816 67.9781 462.816C67.4261 462.816 67.1221 463.04 66.8581 463.28V462.912H66.2981V468.624L66.8581 468.344V466.584C67.0901 466.856 67.4021 467.096 67.9781 467.096ZM67.9141 466.592C67.4741 466.592 67.1381 466.32 66.8581 465.96V463.952C67.0821 463.552 67.4741 463.32 67.9141 463.32C68.6421 463.32 69.0821 463.96 69.0821 464.952C69.0821 466.008 68.6581 466.592 67.9141 466.592ZM70.1481 467H70.7561L71.5801 465.736C71.6681 465.6 71.7481 465.472 71.8361 465.328L72.0921 465.736L72.9161 467H73.5241L72.1401 464.88L73.4281 462.912H72.8201L72.1001 464.016C72.0041 464.16 71.9241 464.288 71.8361 464.432C71.7481 464.288 71.6681 464.16 71.5721 464.016L70.8521 462.912H70.2441L71.5321 464.88L70.1481 467Z" fill="#FF0303"/>
<rect x="53.5" y="538.5" width="23" height="23" stroke="#FF0000"/>
<path d="M56.608 553H60.28V552.464H57.2C57.328 551.76 57.928 551.36 58.568 550.944C59.376 550.424 60.232 549.904 60.232 548.88C60.232 547.928 59.584 547.304 58.48 547.304C57.528 547.304 56.856 547.832 56.688 548.488L57.184 548.712C57.32 548.176 57.672 547.808 58.432 547.808C59.208 547.808 59.648 548.272 59.648 548.88C59.648 549.6 59 550.024 58.304 550.496C57.496 551.04 56.608 551.6 56.608 553ZM63.8047 553H64.3647V551.488H65.2127V551.008H64.3647V547.4H64.0287L61.0847 551.192V551.488H63.8047V553ZM63.8047 551.008H61.8127L63.8047 548.368V551.008ZM67.9781 553.096C68.9621 553.096 69.6661 552.32 69.6661 550.952C69.6661 549.664 69.0261 548.816 67.9781 548.816C67.4261 548.816 67.1221 549.04 66.8581 549.28V548.912H66.2981V554.624L66.8581 554.344V552.584C67.0901 552.856 67.4021 553.096 67.9781 553.096ZM67.9141 552.592C67.4741 552.592 67.1381 552.32 66.8581 551.96V549.952C67.0821 549.552 67.4741 549.32 67.9141 549.32C68.6421 549.32 69.0821 549.96 69.0821 550.952C69.0821 552.008 68.6581 552.592 67.9141 552.592ZM70.1481 553H70.7561L71.5801 551.736C71.6681 551.6 71.7481 551.472 71.8361 551.328L72.0921 551.736L72.9161 553H73.5241L72.1401 550.88L73.4281 548.912H72.8201L72.1001 550.016C72.0041 550.16 71.9241 550.288 71.8361 550.432C71.7481 550.288 71.6681 550.16 71.5721 550.016L70.8521 548.912H70.2441L71.5321 550.88L70.1481 553Z" fill="#FF0303"/>
<rect x="53.5" y="229.5" width="9" height="9" stroke="#FF0000"/>
<rect x="12.5" y="12.5" width="734" height="673" stroke="#E5E5E5"/>
<g filter="url(#filter0_i)">
<rect x="53" y="240" width="653" height="40" rx="4" fill="white"/>
</g>
<rect x="53" y="240" width="653" height="40" rx="4" stroke="#D6D6D9" stroke-width="0.5"/>
<path d="M56.624 228.144C58.208 228.144 59.384 227.268 59.384 225.72C59.384 224.064 58.016 223.452 56.84 223.008C55.892 222.66 55.028 222.312 55.028 221.532C55.028 220.848 55.568 220.428 56.456 220.428C57.284 220.428 57.824 220.812 58.028 221.28L58.988 220.956C58.736 220.092 57.86 219.456 56.528 219.456C54.896 219.456 53.948 220.404 53.948 221.532C53.948 222.996 55.232 223.536 56.408 223.968C57.392 224.328 58.304 224.772 58.304 225.744C58.304 226.668 57.656 227.16 56.648 227.16C55.724 227.16 55.016 226.656 54.68 225.912L53.696 226.272C54.068 227.352 55.16 228.144 56.624 228.144ZM64.4796 228.144C65.9556 228.144 66.8316 227.388 67.2636 226.452L66.3036 226.092C65.9196 226.728 65.4036 227.16 64.4796 227.16C62.7996 227.16 62.0796 225.468 62.0796 223.8C62.0796 222.264 62.6796 220.428 64.4796 220.428C65.4036 220.428 65.8596 220.86 66.2556 221.448L67.1916 220.968C66.8196 220.212 66.0276 219.456 64.4796 219.456C61.9836 219.456 60.9996 221.688 60.9996 223.8C60.9996 225.936 61.9356 228.144 64.4796 228.144ZM69.1291 228H70.1731V224.4H72.0331L73.7611 228H74.9371L73.1371 224.328C74.5411 224.04 75.0931 222.984 75.0931 221.988C75.0931 220.8 74.4571 219.6 72.4411 219.6H69.1291V228ZM70.1731 223.428V220.572H72.4651C73.7011 220.572 74.0371 221.388 74.0371 222.012C74.0371 222.708 73.6411 223.428 72.4651 223.428H70.1731ZM77.1096 228H82.3656V227.004H78.1536V224.148H80.7576V223.164H78.1536V220.584H82.1016V219.6H77.1096V228ZM84.2932 228H89.5492V227.004H85.3372V224.148H87.9412V223.164H85.3372V220.584H89.2852V219.6H84.2932V228ZM97.6208 228V219.6H96.5768V225.588C96.5768 225.78 96.5888 225.984 96.6008 226.2C96.4808 225.972 96.3728 225.78 96.2528 225.576L92.5328 219.6H91.4768V228H92.5208V222C92.5208 221.808 92.5088 221.592 92.4968 221.412C92.6048 221.616 92.7248 221.82 92.8328 222L96.6128 228H97.6208ZM108.941 228V219.6H107.897V225.588C107.897 225.78 107.909 225.984 107.921 226.2C107.801 225.972 107.693 225.78 107.573 225.576L103.853 219.6H102.797V228H103.841V222C103.841 221.808 103.829 221.592 103.817 221.412C103.925 221.616 104.045 221.82 104.153 222L107.933 228H108.941ZM116.351 228H117.419L114.443 219.6H113.471L110.495 228H111.587L112.295 225.948H115.631L116.351 228ZM115.307 225.024H112.607L113.699 221.916C113.783 221.676 113.903 221.28 113.963 221.064C114.011 221.28 114.143 221.676 114.227 221.916L115.307 225.024ZM126.265 228V219.6H125.269L122.821 225.252C122.749 225.432 122.665 225.636 122.605 225.816L122.389 225.252L119.953 219.6H118.969V228H120.013V222.84C120.013 222.552 120.001 222.144 119.977 221.928C120.073 222.204 120.229 222.576 120.337 222.84L122.569 228.144L124.873 222.864C124.993 222.576 125.149 222.192 125.245 221.916C125.233 222.132 125.221 222.552 125.221 222.84V228H126.265ZM128.602 228H133.858V227.004H129.646V224.148H132.25V223.164H129.646V220.584H133.594V219.6H128.602V228Z" fill="#7F8196"/>
<path d="M140.95 223.32L141.778 224.436L142.558 223.848L141.766 222.756L141.058 222.168L141.934 222.144L143.182 221.736L142.87 220.8L141.658 221.196L140.89 221.724L141.118 220.836V219.48H140.146V220.836L140.35 221.724L139.594 221.196L138.394 220.8L138.082 221.736L139.318 222.144L140.182 222.168L139.498 222.756L138.706 223.848L139.486 224.436L140.302 223.32L140.626 222.432L140.95 223.32Z" fill="#08BEE5"/>
<g filter="url(#filter1_i)">
<rect x="53" y="326" width="653" height="40" rx="4" fill="white"/>
</g>
<rect x="53" y="326" width="653" height="40" rx="4" stroke="#D6D6D9" stroke-width="0.5"/>
<path d="M54.176 314H59.432V313.004H55.22V310.148H57.824V309.164H55.22V306.584H59.168V305.6H54.176V314ZM68.6556 314V305.6H67.6596L65.2116 311.252C65.1396 311.432 65.0556 311.636 64.9956 311.816L64.7796 311.252L62.3436 305.6H61.3596V314H62.4036V308.84C62.4036 308.552 62.3916 308.144 62.3676 307.928C62.4636 308.204 62.6196 308.576 62.7276 308.84L64.9596 314.144L67.2636 308.864C67.3836 308.576 67.5396 308.192 67.6356 307.916C67.6236 308.132 67.6116 308.552 67.6116 308.84V314H68.6556ZM76.05 314H77.118L74.142 305.6H73.17L70.194 314H71.286L71.994 311.948H75.33L76.05 314ZM75.006 311.024H72.306L73.398 307.916C73.482 307.676 73.602 307.28 73.662 307.064C73.71 307.28 73.842 307.676 73.926 307.916L75.006 311.024ZM78.6922 314H79.7362V305.6H78.6922V314ZM82.1135 314H87.2855V312.992H83.1575V305.6H82.1135V314ZM96.3352 314H97.4032L94.4272 305.6H93.4552L90.4792 314H91.5712L92.2792 311.948H95.6152L96.3352 314ZM95.2912 311.024H92.5912L93.6832 307.916C93.7672 307.676 93.8872 307.28 93.9472 307.064C93.9952 307.28 94.1272 307.676 94.2112 307.916L95.2912 311.024ZM98.9533 305.6V314H101.197C104.245 314 105.145 311.732 105.145 309.8C105.145 307.724 104.125 305.6 101.245 305.6H98.9533ZM101.329 313.028H99.9973V306.56H101.461C103.309 306.56 104.065 308.168 104.065 309.8C104.065 311.324 103.417 313.028 101.329 313.028ZM107.133 305.6V314H109.377C112.425 314 113.325 311.732 113.325 309.8C113.325 307.724 112.305 305.6 109.425 305.6H107.133ZM109.509 313.028H108.177V306.56H109.641C111.489 306.56 112.245 308.168 112.245 309.8C112.245 311.324 111.597 313.028 109.509 313.028ZM115.313 314H116.357V310.4H118.217L119.945 314H121.121L119.321 310.328C120.725 310.04 121.277 308.984 121.277 307.988C121.277 306.8 120.641 305.6 118.625 305.6H115.313V314ZM116.357 309.428V306.572H118.649C119.885 306.572 120.221 307.388 120.221 308.012C120.221 308.708 119.825 309.428 118.649 309.428H116.357ZM123.293 314H128.549V313.004H124.337V310.148H126.941V309.164H124.337V306.584H128.285V305.6H123.293V314ZM132.925 314.144C134.509 314.144 135.685 313.268 135.685 311.72C135.685 310.064 134.317 309.452 133.141 309.008C132.193 308.66 131.329 308.312 131.329 307.532C131.329 306.848 131.869 306.428 132.757 306.428C133.585 306.428 134.125 306.812 134.329 307.28L135.289 306.956C135.037 306.092 134.161 305.456 132.829 305.456C131.197 305.456 130.249 306.404 130.249 307.532C130.249 308.996 131.533 309.536 132.709 309.968C133.693 310.328 134.605 310.772 134.605 311.744C134.605 312.668 133.957 313.16 132.949 313.16C132.025 313.16 131.317 312.656 130.981 311.912L129.997 312.272C130.369 313.352 131.461 314.144 132.925 314.144ZM140.108 314.144C141.692 314.144 142.868 313.268 142.868 311.72C142.868 310.064 141.5 309.452 140.324 309.008C139.376 308.66 138.512 308.312 138.512 307.532C138.512 306.848 139.052 306.428 139.94 306.428C140.768 306.428 141.308 306.812 141.512 307.28L142.472 306.956C142.22 306.092 141.344 305.456 140.012 305.456C138.38 305.456 137.432 306.404 137.432 307.532C137.432 308.996 138.716 309.536 139.892 309.968C140.876 310.328 141.788 310.772 141.788 311.744C141.788 312.668 141.14 313.16 140.132 313.16C139.208 313.16 138.5 312.656 138.164 311.912L137.18 312.272C137.552 313.352 138.644 314.144 140.108 314.144Z" fill="#7F8196"/>
<path d="M150.008 309.32L150.836 310.436L151.616 309.848L150.824 308.756L150.116 308.168L150.992 308.144L152.24 307.736L151.928 306.8L150.716 307.196L149.948 307.724L150.176 306.836V305.48H149.204V306.836L149.408 307.724L148.652 307.196L147.452 306.8L147.14 307.736L148.376 308.144L149.24 308.168L148.556 308.756L147.764 309.848L148.544 310.436L149.36 309.32L149.684 308.432L150.008 309.32Z" fill="#08BEE5"/>
<g filter="url(#filter2_i)">
<rect x="53" y="412" width="653" height="40" rx="4" fill="white"/>
</g>
<rect x="53" y="412" width="653" height="40" rx="4" stroke="#D6D6D9" stroke-width="0.5"/>
<path d="M60.32 400V391.6H59.276V397.588C59.276 397.78 59.288 397.984 59.3 398.2C59.18 397.972 59.072 397.78 58.952 397.576L55.232 391.6H54.176V400H55.22V394C55.22 393.808 55.208 393.592 55.196 393.412C55.304 393.616 55.424 393.82 55.532 394L59.312 400H60.32ZM67.7297 400H68.7977L65.8217 391.6H64.8497L61.8737 400H62.9657L63.6737 397.948H67.0097L67.7297 400ZM66.6857 397.024H63.9857L65.0777 393.916C65.1617 393.676 65.2817 393.28 65.3417 393.064C65.3897 393.28 65.5217 393.676 65.6057 393.916L66.6857 397.024ZM77.6439 400V391.6H76.6479L74.1999 397.252C74.1279 397.432 74.0439 397.636 73.9839 397.816L73.7679 397.252L71.3319 391.6H70.3479V400H71.3919V394.84C71.3919 394.552 71.3799 394.144 71.3559 393.928C71.4519 394.204 71.6079 394.576 71.7159 394.84L73.9479 400.144L76.2519 394.864C76.3719 394.576 76.5279 394.192 76.6239 393.916C76.6119 394.132 76.5999 394.552 76.5999 394.84V400H77.6439ZM79.9807 400H85.2367V399.004H81.0247V396.148H83.6287V395.164H81.0247V392.584H84.9727V391.6H79.9807V400Z" fill="#7F8196"/>
<path d="M92.3285 395.32L93.1565 396.436L93.9365 395.848L93.1445 394.756L92.4365 394.168L93.3125 394.144L94.5605 393.736L94.2485 392.8L93.0365 393.196L92.2685 393.724L92.4965 392.836V391.48H91.5245V392.836L91.7285 393.724L90.9725 393.196L89.7725 392.8L89.4605 393.736L90.6965 394.144L91.5605 394.168L90.8765 394.756L90.0845 395.848L90.8645 396.436L91.6805 395.32L92.0045 394.432L92.3285 395.32Z" fill="#08BEE5"/>
<g filter="url(#filter3_i)">
<rect x="53" y="584" width="272" height="40" rx="4" fill="white"/>
</g>
<rect x="53" y="584" width="272" height="40" rx="4" stroke="#D6D6D9" stroke-width="0.5"/>
<path d="M57.38 572.144C59.06 572.144 60.356 571.016 60.356 568.928V567.92H57.74V568.88H59.264V569.216C59.264 570.356 58.52 571.148 57.38 571.148C55.628 571.148 54.896 569.528 54.896 567.8C54.896 566.264 55.508 564.44 57.38 564.44C58.304 564.44 58.784 564.92 59.168 565.472L60.104 564.932C59.636 564.176 58.94 563.456 57.38 563.456C54.92 563.456 53.816 565.628 53.816 567.8C53.816 569.996 54.836 572.144 57.38 572.144ZM62.4377 572H67.6937V571.004H63.4817V568.148H66.0857V567.164H63.4817V564.584H67.4297V563.6H62.4377V572ZM75.7653 572V563.6H74.7213V569.588C74.7213 569.78 74.7333 569.984 74.7453 570.2C74.6253 569.972 74.5173 569.78 74.3973 569.576L70.6773 563.6H69.6213V572H70.6653V566C70.6653 565.808 70.6533 565.592 70.6413 565.412C70.7493 565.616 70.8693 565.82 70.9773 566L74.7573 572H75.7653ZM78.1174 563.6V572H80.3614C83.4094 572 84.3094 569.732 84.3094 567.8C84.3094 565.724 83.2894 563.6 80.4094 563.6H78.1174ZM80.4934 571.028H79.1614V564.56H80.6254C82.4734 564.56 83.2294 566.168 83.2294 567.8C83.2294 569.324 82.5814 571.028 80.4934 571.028ZM86.2971 572H91.5531V571.004H87.3411V568.148H89.9451V567.164H87.3411V564.584H91.2891V563.6H86.2971V572ZM93.4807 572H94.5247V568.4H96.3847L98.1127 572H99.2887L97.4887 568.328C98.8927 568.04 99.4447 566.984 99.4447 565.988C99.4447 564.8 98.8087 563.6 96.7927 563.6H93.4807V572ZM94.5247 567.428V564.572H96.8167C98.0527 564.572 98.3887 565.388 98.3887 566.012C98.3887 566.708 97.9927 567.428 96.8167 567.428H94.5247Z" fill="#7F8196"/>
<g filter="url(#filter4_i)">
<rect x="357" y="584" width="272" height="40" rx="4" fill="white"/>
</g>
<rect x="357" y="584" width="272" height="40" rx="4" stroke="#D6D6D9" stroke-width="0.5"/>
<path d="M359.76 572.144C360.936 572.144 362.412 571.556 362.412 569.24V563.6H361.368V569.276C361.368 570.812 360.564 571.16 359.772 571.16C358.908 571.16 358.524 570.836 358.2 570.188L357.336 570.632C357.756 571.604 358.548 572.144 359.76 572.144ZM367.931 572.144C370.583 572.144 371.507 569.876 371.507 567.8C371.507 565.724 370.583 563.456 367.931 563.456C365.291 563.456 364.367 565.724 364.367 567.8C364.367 569.876 365.291 572.144 367.931 572.144ZM367.931 571.16C366.095 571.16 365.447 569.444 365.447 567.8C365.447 566.276 366.095 564.428 367.931 564.428C369.779 564.428 370.415 566.156 370.415 567.8C370.415 569.312 369.779 571.16 367.931 571.16ZM373.492 563.6V572H376.66C378.712 572 379.384 570.728 379.384 569.588C379.384 568.628 378.82 567.872 377.848 567.572C378.628 567.236 379.084 566.588 379.084 565.82C379.084 564.704 378.46 563.6 376.468 563.6H373.492ZM376.264 567.164H374.536V564.548H376.528C377.788 564.548 378.052 565.22 378.052 565.832C378.052 566.636 377.452 567.164 376.264 567.164ZM376.78 571.04H374.536V568.112H376.396C377.968 568.112 378.352 568.856 378.352 569.66C378.352 570.332 378.016 571.04 376.78 571.04ZM386.555 564.596H388.895V563.6H383.171V564.596H385.511V572H386.555V564.596ZM390.731 572H391.775V563.6H390.731V572ZM396.997 564.596H399.337V563.6H393.613V564.596H395.953V572H396.997V564.596ZM401.149 572H406.321V570.992H402.193V563.6H401.149V572ZM407.852 572H413.108V571.004H408.896V568.148H411.5V567.164H408.896V564.584H412.844V563.6H407.852V572Z" fill="#7F8196"/>
<g filter="url(#filter5_i)">
<rect x="53" y="498" width="140" height="40" rx="4" fill="white"/>
</g>
<rect x="53" y="498" width="140" height="40" rx="4" stroke="#D6D6D9" stroke-width="0.5"/>
<path d="M54.176 477.6V486H57.344C59.396 486 60.068 484.728 60.068 483.588C60.068 482.628 59.504 481.872 58.532 481.572C59.312 481.236 59.768 480.588 59.768 479.82C59.768 478.704 59.144 477.6 57.152 477.6H54.176ZM56.948 481.164H55.22V478.548H57.212C58.472 478.548 58.736 479.22 58.736 479.832C58.736 480.636 58.136 481.164 56.948 481.164ZM57.464 485.04H55.22V482.112H57.08C58.652 482.112 59.036 482.856 59.036 483.66C59.036 484.332 58.7 485.04 57.464 485.04ZM62.075 486H63.119V477.6H62.075V486ZM65.4963 486H66.5403V482.4H68.4003L70.1283 486H71.3043L69.5043 482.328C70.9083 482.04 71.4603 480.984 71.4603 479.988C71.4603 478.8 70.8243 477.6 68.8083 477.6H65.4963V486ZM66.5403 481.428V478.572H68.8323C70.0683 478.572 70.4043 479.388 70.4043 480.012C70.4043 480.708 70.0083 481.428 68.8323 481.428H66.5403ZM76.0864 478.596H78.4264V477.6H72.7024V478.596H75.0424V486H76.0864V478.596ZM85.2425 486H86.2865V477.6H85.2425V481.152H81.2825V477.6H80.2385V486H81.2825V482.136H85.2425V486ZM88.6408 477.6V486H90.8848C93.9328 486 94.8328 483.732 94.8328 481.8C94.8328 479.724 93.8128 477.6 90.9328 477.6H88.6408ZM91.0168 485.028H89.6848V478.56H91.1488C92.9968 478.56 93.7528 480.168 93.7528 481.8C93.7528 483.324 93.1048 485.028 91.0168 485.028ZM101.597 486H102.665L99.6889 477.6H98.7169L95.7409 486H96.8329L97.5409 483.948H100.877L101.597 486ZM100.553 483.024H97.8529L98.9449 479.916C99.0289 479.676 99.1489 479.28 99.2089 479.064C99.2569 479.28 99.3889 479.676 99.4729 479.916L100.553 483.024ZM105.531 486H106.575V482.676L109.407 477.6H108.267L106.047 481.68L103.851 477.6H102.675L105.531 482.7V486Z" fill="#7F8196"/>
<path d="M67.014 98H69.328L62.88 79.8H60.774L54.326 98H56.692L58.226 93.554H65.454L67.014 98ZM64.752 91.552H58.902L61.268 84.818C61.45 84.298 61.71 83.44 61.84 82.972C61.944 83.44 62.23 84.298 62.412 84.818L64.752 91.552ZM76.6035 98.312C79.4895 98.312 81.3355 96.934 81.3355 94.542C81.3355 92.02 79.4375 90.98 77.0195 90.122C75.5375 89.524 74.2115 89.03 74.2115 87.912C74.2115 86.976 75.0695 86.43 76.4215 86.43C77.8515 86.43 78.7875 87.106 79.3595 87.704L80.9195 86.404C79.9575 85.26 78.4755 84.402 76.4475 84.402C73.8995 84.402 71.9755 85.728 71.9755 87.912C71.9755 90.096 73.6395 91.162 76.0835 92.072C77.6435 92.67 79.1255 93.268 79.1255 94.594C79.1255 95.764 78.0595 96.284 76.6555 96.284C75.2255 96.284 74.0815 95.426 73.4055 94.698L71.7935 96.076C72.8335 97.402 74.6535 98.312 76.6035 98.312ZM88.791 98.312C91.677 98.312 93.523 96.934 93.523 94.542C93.523 92.02 91.625 90.98 89.207 90.122C87.725 89.524 86.399 89.03 86.399 87.912C86.399 86.976 87.257 86.43 88.609 86.43C90.039 86.43 90.975 87.106 91.547 87.704L93.107 86.404C92.145 85.26 90.663 84.402 88.635 84.402C86.087 84.402 84.163 85.728 84.163 87.912C84.163 90.096 85.827 91.162 88.271 92.072C89.831 92.67 91.313 93.268 91.313 94.594C91.313 95.764 90.247 96.284 88.843 96.284C87.413 96.284 86.269 95.426 85.593 94.698L83.981 96.076C85.021 97.402 86.841 98.312 88.791 98.312ZM98.1965 82.296C99.0025 82.296 99.6265 81.672 99.6265 80.892C99.6265 80.086 99.0025 79.436 98.1965 79.436C97.4165 79.436 96.7925 80.086 96.7925 80.892C96.7925 81.672 97.4165 82.296 98.1965 82.296ZM97.0785 98H99.3405V84.714H97.0785V98ZM107.736 103.382C111.428 103.174 114.002 101.77 114.002 97.454V84.714H111.74V85.806C111.22 85.234 110.18 84.402 108.386 84.402C105.136 84.402 102.874 86.976 102.874 91.344C102.874 95.972 105.37 98.312 108.308 98.312C109.92 98.312 110.986 97.74 111.74 96.7V98.312C111.74 100.054 110.752 101.38 106.644 101.614L107.736 103.382ZM108.776 96.206C106.644 96.206 105.162 94.386 105.162 91.344C105.162 88.224 106.41 86.482 108.776 86.482C109.79 86.482 111.09 87.158 111.74 88.25V94.334C111.064 95.504 109.868 96.206 108.776 96.206ZM126.494 98H128.756V90.356C128.756 86.066 127.014 84.402 123.998 84.402C122.568 84.402 121.398 84.922 120.566 86.066V84.714H118.304V98H120.566V89.914C120.566 87.34 121.892 86.482 123.634 86.482C125.272 86.482 126.494 87.444 126.494 89.966V98ZM144.585 81.958H149.655V79.8H137.253V81.958H142.323V98H144.585V81.958ZM156.078 98.312C159.64 98.312 161.954 95.712 161.954 91.344C161.954 86.95 159.64 84.402 156.078 84.402C152.516 84.402 150.202 87.002 150.202 91.37C150.202 95.764 152.516 98.312 156.078 98.312ZM156.078 96.206C153.816 96.206 152.49 94.386 152.49 91.37C152.49 88.276 153.816 86.482 156.078 86.482C158.34 86.482 159.666 88.328 159.666 91.344C159.666 94.386 158.314 96.206 156.078 96.206ZM176.27 98L171.278 88.328L174.762 84.714H172.058L167.742 89.29V79.228L165.48 80.294V98H167.742V91.994L169.692 89.966L173.8 98H176.27ZM184.034 98.312C185.828 98.312 187.336 97.584 188.324 96.596L186.946 95.062C186.114 95.894 185.1 96.258 184.086 96.258C182.084 96.258 180.628 94.672 180.446 92.228H189.442C189.494 91.708 189.52 91.136 189.52 90.72C189.52 86.352 187.024 84.402 184.034 84.402C180.498 84.402 178.132 86.95 178.132 91.344C178.132 95.4 180.394 98.312 184.034 98.312ZM180.42 90.304C180.55 87.574 182.11 86.404 184.034 86.404C185.438 86.404 187.206 87.288 187.232 90.304H180.42ZM201.092 98H203.354V90.356C203.354 86.066 201.612 84.402 198.596 84.402C197.166 84.402 195.996 84.922 195.164 86.066V84.714H192.902V98H195.164V89.914C195.164 87.34 196.49 86.482 198.232 86.482C199.87 86.482 201.092 87.444 201.092 89.966V98ZM211.479 98.312C214.365 98.312 216.211 96.934 216.211 94.542C216.211 92.02 214.313 90.98 211.895 90.122C210.413 89.524 209.087 89.03 209.087 87.912C209.087 86.976 209.945 86.43 211.297 86.43C212.727 86.43 213.663 87.106 214.235 87.704L215.795 86.404C214.833 85.26 213.351 84.402 211.323 84.402C208.775 84.402 206.851 85.728 206.851 87.912C206.851 90.096 208.515 91.162 210.959 92.072C212.519 92.67 214.001 93.268 214.001 94.594C214.001 95.764 212.935 96.284 211.531 96.284C210.101 96.284 208.957 95.426 208.281 94.698L206.669 96.076C207.709 97.402 209.529 98.312 211.479 98.312Z" fill="#212B36"/>
<path d="M54.68 140H55.8V128.8H54.68V140ZM60.6364 132.832H62.6044V131.824H60.6364V130.608C60.6364 130.16 60.6524 129.648 61.4364 129.648C61.9004 129.648 62.2684 129.792 62.6044 129.968V128.992C62.2524 128.8 61.8204 128.608 61.2124 128.608C60.3644 128.608 59.5164 129.088 59.5164 130.432V131.824H58.2044V132.832H59.5164V140H60.6364V132.832ZM69.5891 143.104H70.6931L74.8691 131.824H73.6691L71.5731 137.632L71.2851 138.464C71.1891 138.176 71.1091 137.904 71.0131 137.632L68.9491 131.824H67.8131L70.8051 139.744L69.5891 143.104ZM80.1409 140.192C82.2369 140.192 83.6449 138.592 83.6449 135.904C83.6449 133.184 82.2369 131.632 80.1409 131.632C78.0449 131.632 76.6369 133.232 76.6369 135.92C76.6369 138.64 78.0449 140.192 80.1409 140.192ZM80.1409 139.184C78.6209 139.184 77.8049 137.952 77.8049 135.92C77.8049 133.792 78.6209 132.64 80.1409 132.64C81.6609 132.64 82.4769 133.872 82.4769 135.904C82.4769 137.952 81.6289 139.184 80.1409 139.184ZM91.1625 140H92.2825V131.824H91.1625V136.848C91.1625 138.624 90.2825 139.184 89.1305 139.184C88.0425 139.184 87.2425 138.528 87.2425 136.816V131.824H86.1225V136.384C86.1225 139.072 87.0185 140.192 89.1305 140.192C89.9785 140.192 90.5865 139.968 91.1625 139.216V140ZM95.3956 140H96.5156V135.376C96.5156 133.36 97.6836 132.752 98.4996 132.752C99.0276 132.752 99.3476 132.928 99.5556 133.056L99.7316 131.968C99.5076 131.808 99.0916 131.632 98.5796 131.632C97.5716 131.632 96.8836 132.192 96.5156 132.976V131.824H95.3956V140ZM109.049 140.192C111.097 140.192 112.329 138.672 112.329 135.904C112.329 133.216 111.001 131.632 108.953 131.632C108.153 131.632 107.305 132.048 106.777 132.624V128.448L105.657 129.008V140H106.777V139.264C107.305 139.712 107.897 140.192 109.049 140.192ZM108.873 139.184C108.057 139.184 107.225 138.672 106.777 137.904V133.888C107.081 133.36 107.865 132.64 108.873 132.64C110.393 132.64 111.161 133.808 111.161 135.904C111.161 137.92 110.409 139.184 108.873 139.184ZM114.881 140H116.001V135.376C116.001 133.36 117.169 132.752 117.985 132.752C118.513 132.752 118.833 132.928 119.041 133.056L119.217 131.968C118.993 131.808 118.577 131.632 118.065 131.632C117.057 131.632 116.369 132.192 116.001 132.976V131.824H114.881V140ZM124.159 140.192C126.255 140.192 127.663 138.592 127.663 135.904C127.663 133.184 126.255 131.632 124.159 131.632C122.063 131.632 120.655 133.232 120.655 135.92C120.655 138.64 122.063 140.192 124.159 140.192ZM124.159 139.184C122.639 139.184 121.823 137.952 121.823 135.92C121.823 133.792 122.639 132.64 124.159 132.64C125.679 132.64 126.495 133.872 126.495 135.904C126.495 137.952 125.647 139.184 124.159 139.184ZM131.437 140H132.461L134.061 135.04C134.141 134.784 134.269 134.384 134.397 133.952C134.525 134.384 134.669 134.8 134.749 135.056L136.381 140H137.389L139.405 131.824H138.285L136.989 137.712C136.925 138.032 136.845 138.352 136.781 138.688C136.685 138.352 136.605 138.032 136.509 137.712L134.797 131.824H134.029L132.317 137.712C132.237 138.016 132.157 138.288 132.077 138.608L131.885 137.712L130.541 131.824H129.421L131.437 140ZM143.874 140.192C145.57 140.192 146.626 139.312 146.626 137.952C146.626 136.304 145.234 135.744 144.018 135.264C143.058 134.88 142.146 134.528 142.146 133.696C142.146 133.04 142.754 132.624 143.698 132.624C144.594 132.624 145.234 133.088 145.65 133.504L146.386 132.88C145.73 132.096 144.834 131.632 143.73 131.632C142.194 131.632 141.09 132.464 141.09 133.712C141.09 135.088 142.242 135.664 143.538 136.192C144.53 136.592 145.57 137.024 145.57 138.016C145.57 138.784 144.866 139.2 143.97 139.2C143.122 139.2 142.338 138.672 141.842 138.08L141.058 138.768C141.746 139.584 142.77 140.192 143.874 140.192ZM152.208 140.192C153.152 140.192 154.064 139.792 154.704 139.264L154.096 138.512C153.472 138.976 152.848 139.152 152.256 139.152C150.864 139.152 150.032 138.032 149.84 136.368H155.408C155.44 136.016 155.44 135.76 155.44 135.584C155.44 132.832 153.952 131.632 152.208 131.632C150.112 131.632 148.656 133.184 148.656 135.904C148.656 138.208 150 140.192 152.208 140.192ZM149.808 135.36C149.904 133.504 150.896 132.64 152.208 132.64C153.072 132.64 154.288 133.152 154.304 135.36H149.808ZM157.925 140H159.045V135.376C159.045 133.36 160.213 132.752 161.029 132.752C161.557 132.752 161.877 132.928 162.085 133.056L162.261 131.968C162.037 131.808 161.621 131.632 161.109 131.632C160.101 131.632 159.413 132.192 159.045 132.976V131.824H157.925V140ZM170.858 140.192C172.25 140.192 173.338 139.472 173.722 138.32L172.714 137.936C172.442 138.704 171.786 139.184 170.906 139.184C169.466 139.184 168.794 137.984 168.794 135.92C168.794 133.904 169.418 132.64 170.938 132.64C171.834 132.64 172.33 133.12 172.586 133.744L173.61 133.344C173.162 132.24 172.202 131.632 170.986 131.632C168.89 131.632 167.626 133.232 167.626 135.92C167.626 138.64 168.89 140.192 170.858 140.192ZM176.209 140H177.329V128.448L176.209 128.992V140ZM183.47 140.192C185.566 140.192 186.974 138.592 186.974 135.904C186.974 133.184 185.566 131.632 183.47 131.632C181.374 131.632 179.966 133.232 179.966 135.92C179.966 138.64 181.374 140.192 183.47 140.192ZM183.47 139.184C181.95 139.184 181.134 137.952 181.134 135.92C181.134 133.792 181.95 132.64 183.47 132.64C184.99 132.64 185.806 133.872 185.806 135.904C185.806 137.952 184.958 139.184 183.47 139.184ZM191.835 140.192C193.531 140.192 194.587 139.312 194.587 137.952C194.587 136.304 193.195 135.744 191.979 135.264C191.019 134.88 190.107 134.528 190.107 133.696C190.107 133.04 190.715 132.624 191.659 132.624C192.555 132.624 193.195 133.088 193.611 133.504L194.347 132.88C193.691 132.096 192.795 131.632 191.691 131.632C190.155 131.632 189.051 132.464 189.051 133.712C189.051 135.088 190.203 135.664 191.499 136.192C192.491 136.592 193.531 137.024 193.531 138.016C193.531 138.784 192.827 139.2 191.931 139.2C191.083 139.2 190.299 138.672 189.803 138.08L189.019 138.768C189.707 139.584 190.731 140.192 191.835 140.192ZM200.17 140.192C201.114 140.192 202.026 139.792 202.666 139.264L202.058 138.512C201.434 138.976 200.81 139.152 200.218 139.152C198.826 139.152 197.994 138.032 197.802 136.368H203.37C203.402 136.016 203.402 135.76 203.402 135.584C203.402 132.832 201.914 131.632 200.17 131.632C198.074 131.632 196.618 133.184 196.618 135.904C196.618 138.208 197.962 140.192 200.17 140.192ZM197.77 135.36C197.866 133.504 198.858 132.64 200.17 132.64C201.034 132.64 202.25 133.152 202.266 135.36H197.77ZM208.19 140.192C209.886 140.192 210.942 139.312 210.942 137.952C210.942 136.304 209.55 135.744 208.334 135.264C207.374 134.88 206.462 134.528 206.462 133.696C206.462 133.04 207.07 132.624 208.014 132.624C208.91 132.624 209.55 133.088 209.966 133.504L210.702 132.88C210.046 132.096 209.15 131.632 208.046 131.632C206.51 131.632 205.406 132.464 205.406 133.712C205.406 135.088 206.558 135.664 207.854 136.192C208.846 136.592 209.886 137.024 209.886 138.016C209.886 138.784 209.182 139.2 208.286 139.2C207.438 139.2 206.654 138.672 206.158 138.08L205.374 138.768C206.062 139.584 207.086 140.192 208.19 140.192ZM222.164 140H223.204V134.464C223.204 132.144 221.652 131.632 220.484 131.632C219.364 131.632 218.276 132.112 217.62 132.528L217.94 133.488C218.548 133.072 219.556 132.608 220.372 132.608C221.284 132.608 222.164 132.96 222.164 134.608V135.296C221.364 134.864 220.644 134.72 219.956 134.72C218.404 134.72 216.98 135.536 216.98 137.424C216.98 139.264 218.116 140.192 219.764 140.192C220.644 140.192 221.508 139.792 222.164 139.2V140ZM219.876 139.216C218.692 139.216 218.02 138.496 218.02 137.424C218.02 136.24 218.964 135.696 220.068 135.696C220.772 135.696 221.636 136.016 222.164 136.368V137.952C221.668 138.56 220.868 139.216 219.876 139.216ZM227.469 132.832H229.437V131.824H227.469V130.608C227.469 130.16 227.485 129.648 228.269 129.648C228.733 129.648 229.101 129.792 229.437 129.968V128.992C229.085 128.8 228.653 128.608 228.045 128.608C227.197 128.608 226.349 129.088 226.349 130.432V131.824H225.037V132.832H226.349V140H227.469V132.832ZM233.801 140.192C234.424 140.192 234.873 140.048 235.289 139.824L235.417 138.656C235.113 138.864 234.729 139.136 234.185 139.136C233.401 139.136 233.305 138.544 233.305 137.84V132.832H235.385V131.824H233.305V128.448L232.185 129.008V131.824H230.793V132.832H232.185V138.32C232.185 139.392 232.633 140.192 233.801 140.192ZM240.735 140.192C241.679 140.192 242.591 139.792 243.231 139.264L242.623 138.512C241.999 138.976 241.375 139.152 240.783 139.152C239.391 139.152 238.559 138.032 238.367 136.368H243.935C243.967 136.016 243.967 135.76 243.967 135.584C243.967 132.832 242.479 131.632 240.735 131.632C238.639 131.632 237.183 133.184 237.183 135.904C237.183 138.208 238.527 140.192 240.735 140.192ZM238.335 135.36C238.431 133.504 239.423 132.64 240.735 132.64C241.599 132.64 242.815 133.152 242.831 135.36H238.335ZM246.451 140H247.571V135.376C247.571 133.36 248.739 132.752 249.555 132.752C250.083 132.752 250.403 132.928 250.611 133.056L250.787 131.968C250.563 131.808 250.147 131.632 249.635 131.632C248.627 131.632 247.939 132.192 247.571 132.976V131.824H246.451V140ZM259.017 140.192C260.713 140.192 261.769 139.312 261.769 137.952C261.769 136.304 260.377 135.744 259.161 135.264C258.201 134.88 257.289 134.528 257.289 133.696C257.289 133.04 257.897 132.624 258.841 132.624C259.737 132.624 260.377 133.088 260.793 133.504L261.529 132.88C260.873 132.096 259.977 131.632 258.873 131.632C257.337 131.632 256.233 132.464 256.233 133.712C256.233 135.088 257.385 135.664 258.681 136.192C259.673 136.592 260.713 137.024 260.713 138.016C260.713 138.784 260.009 139.2 259.113 139.2C258.265 139.2 257.481 138.672 256.985 138.08L256.201 138.768C256.889 139.584 257.913 140.192 259.017 140.192ZM264.935 130.144C265.367 130.144 265.671 129.824 265.671 129.408C265.671 128.976 265.367 128.64 264.935 128.64C264.519 128.64 264.199 128.976 264.199 129.408C264.199 129.824 264.519 130.144 264.935 130.144ZM264.375 140H265.495V131.824H264.375V140ZM270.934 143.408C272.934 143.328 274.774 142.56 274.774 139.872V131.824H273.654V132.592C273.382 132.272 272.726 131.632 271.478 131.632C269.478 131.632 268.07 133.216 268.07 135.904C268.07 138.752 269.654 140.192 271.414 140.192C272.534 140.192 273.19 139.76 273.654 139.072V140.32C273.654 141.44 273.078 142.384 270.422 142.528L270.934 143.408ZM271.67 139.184C270.278 139.184 269.238 138 269.238 135.904C269.238 133.808 270.054 132.64 271.67 132.64C272.262 132.64 273.19 133.072 273.654 133.888V137.824C273.206 138.672 272.342 139.184 271.67 139.184ZM282.941 140H284.061V135.472C284.061 132.768 283.133 131.632 281.133 131.632C280.269 131.632 279.533 131.984 279.021 132.72V131.824H277.901V140H279.021V134.976C279.021 133.2 279.885 132.64 281.037 132.64C282.125 132.64 282.941 133.28 282.941 135.008V140ZM287.67 130.144C288.102 130.144 288.406 129.824 288.406 129.408C288.406 128.976 288.102 128.64 287.67 128.64C287.254 128.64 286.934 128.976 286.934 129.408C286.934 129.824 287.254 130.144 287.67 130.144ZM287.11 140H288.23V131.824H287.11V140ZM296.406 140H297.526V135.472C297.526 132.768 296.598 131.632 294.598 131.632C293.734 131.632 292.998 131.984 292.486 132.72V131.824H291.366V140H292.486V134.976C292.486 133.2 293.35 132.64 294.502 132.64C295.59 132.64 296.406 133.28 296.406 135.008V140ZM302.863 143.408C304.863 143.328 306.703 142.56 306.703 139.872V131.824H305.583V132.592C305.311 132.272 304.655 131.632 303.407 131.632C301.407 131.632 299.999 133.216 299.999 135.904C299.999 138.752 301.583 140.192 303.343 140.192C304.463 140.192 305.119 139.76 305.583 139.072V140.32C305.583 141.44 305.007 142.384 302.351 142.528L302.863 143.408ZM303.599 139.184C302.207 139.184 301.167 138 301.167 135.904C301.167 133.808 301.983 132.64 303.599 132.64C304.191 132.64 305.119 133.072 305.583 133.888V137.824C305.135 138.672 304.271 139.184 303.599 139.184ZM315.806 140.192C316.43 140.192 316.878 140.048 317.294 139.824L317.422 138.656C317.118 138.864 316.734 139.136 316.19 139.136C315.406 139.136 315.31 138.544 315.31 137.84V132.832H317.39V131.824H315.31V128.448L314.19 129.008V131.824H312.798V132.832H314.19V138.32C314.19 139.392 314.638 140.192 315.806 140.192ZM319.904 140H321.024V134.976C321.024 133.2 321.888 132.64 323.04 132.64C324.128 132.64 324.944 133.28 324.944 135.008V140H326.064V135.472C326.064 132.768 325.136 131.632 323.136 131.632C322.272 131.632 321.52 132 321.024 132.736V128.448L319.904 128.976V140ZM332.089 140.192C333.033 140.192 333.945 139.792 334.585 139.264L333.977 138.512C333.353 138.976 332.729 139.152 332.137 139.152C330.745 139.152 329.913 138.032 329.721 136.368H335.289C335.321 136.016 335.321 135.76 335.321 135.584C335.321 132.832 333.833 131.632 332.089 131.632C329.993 131.632 328.537 133.184 328.537 135.904C328.537 138.208 329.881 140.192 332.089 140.192ZM329.689 135.36C329.785 133.504 330.777 132.64 332.089 132.64C332.953 132.64 334.169 133.152 334.185 135.36H329.689ZM343.205 132.832H345.173V131.824H343.205V130.608C343.205 130.16 343.221 129.648 344.005 129.648C344.469 129.648 344.837 129.792 345.173 129.968V128.992C344.821 128.8 344.389 128.608 343.781 128.608C342.933 128.608 342.085 129.088 342.085 130.432V131.824H340.773V132.832H342.085V140H343.205V132.832ZM347.589 130.144C348.021 130.144 348.325 129.824 348.325 129.408C348.325 128.976 348.021 128.64 347.589 128.64C347.173 128.64 346.853 128.976 346.853 129.408C346.853 129.824 347.173 130.144 347.589 130.144ZM347.029 140H348.149V131.824H347.029V140ZM351.286 140H352.406V135.376C352.406 133.36 353.574 132.752 354.39 132.752C354.918 132.752 355.238 132.928 355.446 133.056L355.622 131.968C355.398 131.808 354.982 131.632 354.47 131.632C353.462 131.632 352.774 132.192 352.406 132.976V131.824H351.286V140ZM359.923 140.192C361.619 140.192 362.675 139.312 362.675 137.952C362.675 136.304 361.283 135.744 360.067 135.264C359.107 134.88 358.195 134.528 358.195 133.696C358.195 133.04 358.803 132.624 359.747 132.624C360.643 132.624 361.283 133.088 361.699 133.504L362.435 132.88C361.779 132.096 360.883 131.632 359.779 131.632C358.243 131.632 357.139 132.464 357.139 133.712C357.139 135.088 358.291 135.664 359.587 136.192C360.579 136.592 361.619 137.024 361.619 138.016C361.619 138.784 360.915 139.2 360.019 139.2C359.171 139.2 358.387 138.672 357.891 138.08L357.107 138.768C357.795 139.584 358.819 140.192 359.923 140.192ZM367.314 140.192C367.938 140.192 368.386 140.048 368.802 139.824L368.93 138.656C368.626 138.864 368.242 139.136 367.698 139.136C366.914 139.136 366.818 138.544 366.818 137.84V132.832H368.898V131.824H366.818V128.448L365.698 129.008V131.824H364.306V132.832H365.698V138.32C365.698 139.392 366.146 140.192 367.314 140.192ZM377.387 140.192C378.011 140.192 378.459 140.048 378.875 139.824L379.003 138.656C378.699 138.864 378.315 139.136 377.771 139.136C376.987 139.136 376.891 138.544 376.891 137.84V132.832H378.971V131.824H376.891V128.448L375.771 129.008V131.824H374.379V132.832H375.771V138.32C375.771 139.392 376.219 140.192 377.387 140.192ZM381.486 140H382.606V135.376C382.606 133.36 383.774 132.752 384.59 132.752C385.118 132.752 385.438 132.928 385.646 133.056L385.822 131.968C385.598 131.808 385.182 131.632 384.67 131.632C383.662 131.632 382.974 132.192 382.606 132.976V131.824H381.486V140ZM392.211 140H393.251V134.464C393.251 132.144 391.699 131.632 390.531 131.632C389.411 131.632 388.323 132.112 387.667 132.528L387.987 133.488C388.595 133.072 389.603 132.608 390.419 132.608C391.331 132.608 392.211 132.96 392.211 134.608V135.296C391.411 134.864 390.691 134.72 390.003 134.72C388.451 134.72 387.027 135.536 387.027 137.424C387.027 139.264 388.163 140.192 389.811 140.192C390.691 140.192 391.555 139.792 392.211 139.2V140ZM389.923 139.216C388.739 139.216 388.067 138.496 388.067 137.424C388.067 136.24 389.011 135.696 390.115 135.696C390.819 135.696 391.683 136.016 392.211 136.368V137.952C391.715 138.56 390.915 139.216 389.923 139.216ZM401.084 140H402.204V135.472C402.204 132.768 401.276 131.632 399.276 131.632C398.412 131.632 397.676 131.984 397.164 132.72V131.824H396.044V140H397.164V134.976C397.164 133.2 398.028 132.64 399.18 132.64C400.268 132.64 401.084 133.28 401.084 135.008V140ZM407.541 140.192C409.237 140.192 410.293 139.312 410.293 137.952C410.293 136.304 408.901 135.744 407.685 135.264C406.725 134.88 405.813 134.528 405.813 133.696C405.813 133.04 406.421 132.624 407.365 132.624C408.261 132.624 408.901 133.088 409.317 133.504L410.053 132.88C409.397 132.096 408.501 131.632 407.397 131.632C405.861 131.632 404.757 132.464 404.757 133.712C404.757 135.088 405.909 135.664 407.205 136.192C408.197 136.592 409.237 137.024 409.237 138.016C409.237 138.784 408.533 139.2 407.637 139.2C406.789 139.2 406.005 138.672 405.509 138.08L404.725 138.768C405.413 139.584 406.437 140.192 407.541 140.192ZM417.587 140H418.627V134.464C418.627 132.144 417.075 131.632 415.907 131.632C414.787 131.632 413.699 132.112 413.043 132.528L413.363 133.488C413.971 133.072 414.979 132.608 415.795 132.608C416.707 132.608 417.587 132.96 417.587 134.608V135.296C416.787 134.864 416.067 134.72 415.379 134.72C413.827 134.72 412.403 135.536 412.403 137.424C412.403 139.264 413.539 140.192 415.187 140.192C416.067 140.192 416.931 139.792 417.587 139.2V140ZM415.299 139.216C414.115 139.216 413.443 138.496 413.443 137.424C413.443 136.24 414.387 135.696 415.491 135.696C416.195 135.696 417.059 136.016 417.587 136.368V137.952C417.091 138.56 416.291 139.216 415.299 139.216ZM424.092 140.192C425.484 140.192 426.572 139.472 426.956 138.32L425.948 137.936C425.676 138.704 425.02 139.184 424.14 139.184C422.7 139.184 422.028 137.984 422.028 135.92C422.028 133.904 422.652 132.64 424.172 132.64C425.068 132.64 425.564 133.12 425.82 133.744L426.844 133.344C426.396 132.24 425.436 131.632 424.22 131.632C422.124 131.632 420.86 133.232 420.86 135.92C420.86 138.64 422.124 140.192 424.092 140.192ZM431.255 140.192C431.879 140.192 432.327 140.048 432.743 139.824L432.871 138.656C432.567 138.864 432.183 139.136 431.639 139.136C430.855 139.136 430.759 138.544 430.759 137.84V132.832H432.839V131.824H430.759V128.448L429.639 129.008V131.824H428.247V132.832H429.639V138.32C429.639 139.392 430.087 140.192 431.255 140.192ZM435.929 130.144C436.361 130.144 436.665 129.824 436.665 129.408C436.665 128.976 436.361 128.64 435.929 128.64C435.513 128.64 435.193 128.976 435.193 129.408C435.193 129.824 435.513 130.144 435.929 130.144ZM435.369 140H436.489V131.824H435.369V140ZM442.568 140.192C444.664 140.192 446.072 138.592 446.072 135.904C446.072 133.184 444.664 131.632 442.568 131.632C440.472 131.632 439.064 133.232 439.064 135.92C439.064 138.64 440.472 140.192 442.568 140.192ZM442.568 139.184C441.048 139.184 440.232 137.952 440.232 135.92C440.232 133.792 441.048 132.64 442.568 132.64C444.088 132.64 444.904 133.872 444.904 135.904C444.904 137.952 444.056 139.184 442.568 139.184ZM453.67 140H454.79V135.472C454.79 132.768 453.862 131.632 451.862 131.632C450.998 131.632 450.262 131.984 449.75 132.72V131.824H448.63V140H449.75V134.976C449.75 133.2 450.614 132.64 451.766 132.64C452.854 132.64 453.67 133.28 453.67 135.008V140ZM463.799 140.192C464.423 140.192 464.871 140.048 465.287 139.824L465.415 138.656C465.111 138.864 464.727 139.136 464.183 139.136C463.399 139.136 463.303 138.544 463.303 137.84V132.832H465.383V131.824H463.303V128.448L462.183 129.008V131.824H460.791V132.832H462.183V138.32C462.183 139.392 462.631 140.192 463.799 140.192ZM470.685 140.192C472.781 140.192 474.189 138.592 474.189 135.904C474.189 133.184 472.781 131.632 470.685 131.632C468.589 131.632 467.181 133.232 467.181 135.92C467.181 138.64 468.589 140.192 470.685 140.192ZM470.685 139.184C469.165 139.184 468.349 137.952 468.349 135.92C468.349 133.792 469.165 132.64 470.685 132.64C472.205 132.64 473.021 133.872 473.021 135.904C473.021 137.952 472.173 139.184 470.685 139.184ZM483.346 140.192C484.738 140.192 485.826 139.472 486.21 138.32L485.202 137.936C484.93 138.704 484.274 139.184 483.394 139.184C481.954 139.184 481.282 137.984 481.282 135.92C481.282 133.904 481.906 132.64 483.426 132.64C484.322 132.64 484.818 133.12 485.074 133.744L486.098 133.344C485.65 132.24 484.69 131.632 483.474 131.632C481.378 131.632 480.114 133.232 480.114 135.92C480.114 138.64 481.378 140.192 483.346 140.192ZM488.617 140H489.737V135.376C489.737 133.36 490.905 132.752 491.721 132.752C492.249 132.752 492.569 132.928 492.777 133.056L492.953 131.968C492.729 131.808 492.313 131.632 491.801 131.632C490.793 131.632 490.105 132.192 489.737 132.976V131.824H488.617V140ZM497.943 140.192C498.887 140.192 499.799 139.792 500.439 139.264L499.831 138.512C499.207 138.976 498.583 139.152 497.991 139.152C496.599 139.152 495.767 138.032 495.575 136.368H501.143C501.175 136.016 501.175 135.76 501.175 135.584C501.175 132.832 499.687 131.632 497.943 131.632C495.847 131.632 494.391 133.184 494.391 135.904C494.391 138.208 495.735 140.192 497.943 140.192ZM495.543 135.36C495.639 133.504 496.631 132.64 497.943 132.64C498.807 132.64 500.023 133.152 500.039 135.36H495.543ZM508.363 140H509.403V134.464C509.403 132.144 507.851 131.632 506.683 131.632C505.563 131.632 504.475 132.112 503.819 132.528L504.139 133.488C504.747 133.072 505.755 132.608 506.571 132.608C507.483 132.608 508.363 132.96 508.363 134.608V135.296C507.563 134.864 506.843 134.72 506.155 134.72C504.603 134.72 503.179 135.536 503.179 137.424C503.179 139.264 504.315 140.192 505.963 140.192C506.843 140.192 507.707 139.792 508.363 139.2V140ZM506.075 139.216C504.891 139.216 504.219 138.496 504.219 137.424C504.219 136.24 505.163 135.696 506.267 135.696C506.971 135.696 507.835 136.016 508.363 136.368V137.952C507.867 138.56 507.067 139.216 506.075 139.216ZM514.244 140.192C514.868 140.192 515.316 140.048 515.732 139.824L515.86 138.656C515.556 138.864 515.172 139.136 514.628 139.136C513.844 139.136 513.748 138.544 513.748 137.84V132.832H515.828V131.824H513.748V128.448L512.628 129.008V131.824H511.236V132.832H512.628V138.32C512.628 139.392 513.076 140.192 514.244 140.192ZM521.178 140.192C522.122 140.192 523.034 139.792 523.674 139.264L523.066 138.512C522.442 138.976 521.818 139.152 521.226 139.152C519.834 139.152 519.002 138.032 518.81 136.368H524.378C524.41 136.016 524.41 135.76 524.41 135.584C524.41 132.832 522.922 131.632 521.178 131.632C519.082 131.632 517.626 133.184 517.626 135.904C517.626 138.208 518.97 140.192 521.178 140.192ZM518.778 135.36C518.874 133.504 519.866 132.64 521.178 132.64C522.042 132.64 523.258 133.152 523.274 135.36H518.778ZM531.799 143.104H532.903L537.079 131.824H535.879L533.783 137.632L533.495 138.464C533.399 138.176 533.319 137.904 533.223 137.632L531.159 131.824H530.023L533.015 139.744L531.799 143.104ZM542.35 140.192C544.446 140.192 545.854 138.592 545.854 135.904C545.854 133.184 544.446 131.632 542.35 131.632C540.254 131.632 538.846 133.232 538.846 135.92C538.846 138.64 540.254 140.192 542.35 140.192ZM542.35 139.184C540.83 139.184 540.014 137.952 540.014 135.92C540.014 133.792 540.83 132.64 542.35 132.64C543.87 132.64 544.686 133.872 544.686 135.904C544.686 137.952 543.838 139.184 542.35 139.184ZM553.372 140H554.492V131.824H553.372V136.848C553.372 138.624 552.492 139.184 551.34 139.184C550.252 139.184 549.452 138.528 549.452 136.816V131.824H548.332V136.384C548.332 139.072 549.228 140.192 551.34 140.192C552.188 140.192 552.796 139.968 553.372 139.216V140ZM557.605 140H558.725V135.376C558.725 133.36 559.893 132.752 560.709 132.752C561.237 132.752 561.557 132.928 561.765 133.056L561.941 131.968C561.717 131.808 561.301 131.632 560.789 131.632C559.781 131.632 559.093 132.192 558.725 132.976V131.824H557.605V140ZM570.81 140.192C572.906 140.192 574.314 138.592 574.314 135.904C574.314 133.184 572.906 131.632 570.81 131.632C568.714 131.632 567.306 133.232 567.306 135.92C567.306 138.64 568.714 140.192 570.81 140.192ZM570.81 139.184C569.29 139.184 568.474 137.952 568.474 135.92C568.474 133.792 569.29 132.64 570.81 132.64C572.33 132.64 573.146 133.872 573.146 135.904C573.146 137.952 572.298 139.184 570.81 139.184ZM576.872 140H577.992V135.376C577.992 133.36 579.16 132.752 579.976 132.752C580.504 132.752 580.824 132.928 581.032 133.056L581.208 131.968C580.984 131.808 580.568 131.632 580.056 131.632C579.048 131.632 578.36 132.192 577.992 132.976V131.824H576.872V140ZM585.51 143.408C587.51 143.328 589.35 142.56 589.35 139.872V131.824H588.23V132.592C587.958 132.272 587.302 131.632 586.054 131.632C584.054 131.632 582.646 133.216 582.646 135.904C582.646 138.752 584.23 140.192 585.99 140.192C587.11 140.192 587.766 139.76 588.23 139.072V140.32C588.23 141.44 587.654 142.384 584.998 142.528L585.51 143.408ZM586.246 139.184C584.854 139.184 583.814 138 583.814 135.904C583.814 133.808 584.63 132.64 586.246 132.64C586.838 132.64 587.766 133.072 588.23 133.888V137.824C587.782 138.672 586.918 139.184 586.246 139.184ZM597.181 140H598.221V134.464C598.221 132.144 596.669 131.632 595.501 131.632C594.381 131.632 593.293 132.112 592.637 132.528L592.957 133.488C593.565 133.072 594.573 132.608 595.389 132.608C596.301 132.608 597.181 132.96 597.181 134.608V135.296C596.381 134.864 595.661 134.72 594.973 134.72C593.421 134.72 591.997 135.536 591.997 137.424C591.997 139.264 593.133 140.192 594.781 140.192C595.661 140.192 596.525 139.792 597.181 139.2V140ZM594.893 139.216C593.709 139.216 593.037 138.496 593.037 137.424C593.037 136.24 593.981 135.696 595.085 135.696C595.789 135.696 596.653 136.016 597.181 136.368V137.952C596.685 138.56 595.885 139.216 594.893 139.216ZM606.054 140H607.174V135.472C607.174 132.768 606.246 131.632 604.246 131.632C603.382 131.632 602.646 131.984 602.134 132.72V131.824H601.014V140H602.134V134.976C602.134 133.2 602.998 132.64 604.15 132.64C605.238 132.64 606.054 133.28 606.054 135.008V140ZM610.783 130.144C611.215 130.144 611.519 129.824 611.519 129.408C611.519 128.976 611.215 128.64 610.783 128.64C610.367 128.64 610.047 128.976 610.047 129.408C610.047 129.824 610.367 130.144 610.783 130.144ZM610.223 140H611.343V131.824H610.223V140ZM614.158 140H619.806V138.992H615.614L619.822 132.496V131.824H614.478V132.832H618.334L614.158 139.312V140ZM627.407 140H628.447V134.464C628.447 132.144 626.895 131.632 625.727 131.632C624.607 131.632 623.519 132.112 622.863 132.528L623.183 133.488C623.791 133.072 624.799 132.608 625.615 132.608C626.527 132.608 627.407 132.96 627.407 134.608V135.296C626.607 134.864 625.887 134.72 625.199 134.72C623.647 134.72 622.223 135.536 622.223 137.424C622.223 139.264 623.359 140.192 625.007 140.192C625.887 140.192 626.751 139.792 627.407 139.2V140ZM625.119 139.216C623.935 139.216 623.263 138.496 623.263 137.424C623.263 136.24 624.207 135.696 625.311 135.696C626.015 135.696 626.879 136.016 627.407 136.368V137.952C626.911 138.56 626.111 139.216 625.119 139.216ZM633.287 140.192C633.911 140.192 634.359 140.048 634.775 139.824L634.903 138.656C634.599 138.864 634.215 139.136 633.671 139.136C632.887 139.136 632.791 138.544 632.791 137.84V132.832H634.871V131.824H632.791V128.448L631.671 129.008V131.824H630.279V132.832H631.671V138.32C631.671 139.392 632.119 140.192 633.287 140.192ZM637.962 130.144C638.394 130.144 638.698 129.824 638.698 129.408C638.698 128.976 638.394 128.64 637.962 128.64C637.546 128.64 637.226 128.976 637.226 129.408C637.226 129.824 637.546 130.144 637.962 130.144ZM637.402 140H638.522V131.824H637.402V140ZM644.601 140.192C646.697 140.192 648.105 138.592 648.105 135.904C648.105 133.184 646.697 131.632 644.601 131.632C642.505 131.632 641.097 133.232 641.097 135.92C641.097 138.64 642.505 140.192 644.601 140.192ZM644.601 139.184C643.081 139.184 642.265 137.952 642.265 135.92C642.265 133.792 643.081 132.64 644.601 132.64C646.121 132.64 646.937 133.872 646.937 135.904C646.937 137.952 646.089 139.184 644.601 139.184ZM655.702 140H656.822V135.472C656.822 132.768 655.894 131.632 653.894 131.632C653.03 131.632 652.294 131.984 651.782 132.72V131.824H650.662V140H651.782V134.976C651.782 133.2 652.646 132.64 653.798 132.64C654.886 132.64 655.702 133.28 655.702 135.008V140ZM57.832 168.192C59.88 168.192 61.112 166.672 61.112 163.904C61.112 161.216 59.784 159.632 57.736 159.632C56.936 159.632 56.088 160.048 55.56 160.624V156.448L54.44 157.008V168H55.56V167.264C56.088 167.712 56.68 168.192 57.832 168.192ZM57.656 167.184C56.84 167.184 56.008 166.672 55.56 165.904V161.888C55.864 161.36 56.648 160.64 57.656 160.64C59.176 160.64 59.944 161.808 59.944 163.904C59.944 165.92 59.192 167.184 57.656 167.184ZM68.6244 168H69.7444V159.824H68.6244V164.848C68.6244 166.624 67.7444 167.184 66.5924 167.184C65.5044 167.184 64.7044 166.528 64.7044 164.816V159.824H63.5844V164.384C63.5844 167.072 64.4804 168.192 66.5924 168.192C67.4404 168.192 68.0484 167.968 68.6244 167.216V168ZM74.9055 168.192C75.5295 168.192 75.9775 168.048 76.3935 167.824L76.5215 166.656C76.2175 166.864 75.8335 167.136 75.2895 167.136C74.5055 167.136 74.4095 166.544 74.4095 165.84V160.832H76.4895V159.824H74.4095V156.448L73.2895 157.008V159.824H71.8975V160.832H73.2895V166.32C73.2895 167.392 73.7375 168.192 74.9055 168.192ZM86.3232 168.192C88.3712 168.192 89.6032 166.672 89.6032 163.904C89.6032 161.216 88.2752 159.632 86.2272 159.632C85.4272 159.632 84.5792 160.048 84.0512 160.624V156.448L82.9312 157.008V168H84.0512V167.264C84.5792 167.712 85.1712 168.192 86.3232 168.192ZM86.1472 167.184C85.3312 167.184 84.4992 166.672 84.0512 165.904V161.888C84.3552 161.36 85.1392 160.64 86.1472 160.64C87.6672 160.64 88.4352 161.808 88.4352 163.904C88.4352 165.92 87.6832 167.184 86.1472 167.184ZM95.1476 168.192C96.0916 168.192 97.0036 167.792 97.6436 167.264L97.0356 166.512C96.4116 166.976 95.7876 167.152 95.1956 167.152C93.8036 167.152 92.9716 166.032 92.7796 164.368H98.3476C98.3796 164.016 98.3796 163.76 98.3796 163.584C98.3796 160.832 96.8916 159.632 95.1476 159.632C93.0516 159.632 91.5956 161.184 91.5956 163.904C91.5956 166.208 92.9396 168.192 95.1476 168.192ZM92.7476 163.36C92.8436 161.504 93.8356 160.64 95.1476 160.64C96.0116 160.64 97.2276 161.152 97.2436 163.36H92.7476ZM102.336 160.832H104.304V159.824H102.336V158.608C102.336 158.16 102.352 157.648 103.136 157.648C103.6 157.648 103.968 157.792 104.304 157.968V156.992C103.952 156.8 103.52 156.608 102.912 156.608C102.064 156.608 101.216 157.088 101.216 158.432V159.824H99.9044V160.832H101.216V168H102.336V160.832ZM108.923 168.192C111.019 168.192 112.427 166.592 112.427 163.904C112.427 161.184 111.019 159.632 108.923 159.632C106.827 159.632 105.419 161.232 105.419 163.92C105.419 166.64 106.827 168.192 108.923 168.192ZM108.923 167.184C107.403 167.184 106.587 165.952 106.587 163.92C106.587 161.792 107.403 160.64 108.923 160.64C110.443 160.64 111.259 161.872 111.259 163.904C111.259 165.952 110.411 167.184 108.923 167.184ZM114.985 168H116.105V163.376C116.105 161.36 117.273 160.752 118.089 160.752C118.617 160.752 118.937 160.928 119.145 161.056L119.321 159.968C119.097 159.808 118.681 159.632 118.169 159.632C117.161 159.632 116.473 160.192 116.105 160.976V159.824H114.985V168ZM124.311 168.192C125.255 168.192 126.167 167.792 126.807 167.264L126.199 166.512C125.575 166.976 124.951 167.152 124.359 167.152C122.967 167.152 122.135 166.032 121.943 164.368H127.511C127.543 164.016 127.543 163.76 127.543 163.584C127.543 160.832 126.055 159.632 124.311 159.632C122.215 159.632 120.759 161.184 120.759 163.904C120.759 166.208 122.103 168.192 124.311 168.192ZM121.911 163.36C122.007 161.504 122.999 160.64 124.311 160.64C125.175 160.64 126.391 161.152 126.407 163.36H121.911ZM136.003 168.192C136.627 168.192 137.075 168.048 137.491 167.824L137.619 166.656C137.315 166.864 136.931 167.136 136.387 167.136C135.603 167.136 135.507 166.544 135.507 165.84V160.832H137.587V159.824H135.507V156.448L134.387 157.008V159.824H132.995V160.832H134.387V166.32C134.387 167.392 134.835 168.192 136.003 168.192ZM140.101 168H141.221V162.976C141.221 161.2 142.085 160.64 143.237 160.64C144.325 160.64 145.141 161.28 145.141 163.008V168H146.261V163.472C146.261 160.768 145.333 159.632 143.333 159.632C142.469 159.632 141.717 160 141.221 160.736V156.448L140.101 156.976V168ZM152.286 168.192C153.23 168.192 154.142 167.792 154.782 167.264L154.174 166.512C153.55 166.976 152.926 167.152 152.334 167.152C150.942 167.152 150.11 166.032 149.918 164.368H155.486C155.518 164.016 155.518 163.76 155.518 163.584C155.518 160.832 154.03 159.632 152.286 159.632C150.19 159.632 148.734 161.184 148.734 163.904C148.734 166.208 150.078 168.192 152.286 168.192ZM149.886 163.36C149.982 161.504 150.974 160.64 152.286 160.64C153.15 160.64 154.366 161.152 154.382 163.36H149.886ZM164.235 168.192C165.931 168.192 166.987 167.312 166.987 165.952C166.987 164.304 165.595 163.744 164.379 163.264C163.419 162.88 162.507 162.528 162.507 161.696C162.507 161.04 163.115 160.624 164.059 160.624C164.955 160.624 165.595 161.088 166.011 161.504L166.747 160.88C166.091 160.096 165.195 159.632 164.091 159.632C162.555 159.632 161.451 160.464 161.451 161.712C161.451 163.088 162.603 163.664 163.899 164.192C164.891 164.592 165.931 165.024 165.931 166.016C165.931 166.784 165.227 167.2 164.331 167.2C163.483 167.2 162.699 166.672 162.203 166.08L161.419 166.768C162.107 167.584 163.131 168.192 164.235 168.192ZM172.569 168.192C173.513 168.192 174.425 167.792 175.065 167.264L174.457 166.512C173.833 166.976 173.209 167.152 172.617 167.152C171.225 167.152 170.393 166.032 170.201 164.368H175.769C175.801 164.016 175.801 163.76 175.801 163.584C175.801 160.832 174.313 159.632 172.569 159.632C170.473 159.632 169.017 161.184 169.017 163.904C169.017 166.208 170.361 168.192 172.569 168.192ZM170.169 163.36C170.265 161.504 171.257 160.64 172.569 160.64C173.433 160.64 174.649 161.152 174.665 163.36H170.169ZM180.958 168.192C182.35 168.192 183.438 167.472 183.822 166.32L182.814 165.936C182.542 166.704 181.886 167.184 181.006 167.184C179.566 167.184 178.894 165.984 178.894 163.92C178.894 161.904 179.518 160.64 181.038 160.64C181.934 160.64 182.43 161.12 182.686 161.744L183.71 161.344C183.262 160.24 182.302 159.632 181.086 159.632C178.99 159.632 177.726 161.232 177.726 163.92C177.726 166.64 178.99 168.192 180.958 168.192ZM189.173 168.192C191.269 168.192 192.677 166.592 192.677 163.904C192.677 161.184 191.269 159.632 189.173 159.632C187.077 159.632 185.669 161.232 185.669 163.92C185.669 166.64 187.077 168.192 189.173 168.192ZM189.173 167.184C187.653 167.184 186.837 165.952 186.837 163.92C186.837 161.792 187.653 160.64 189.173 160.64C190.693 160.64 191.509 161.872 191.509 163.904C191.509 165.952 190.661 167.184 189.173 167.184ZM200.274 168H201.394V163.472C201.394 160.768 200.466 159.632 198.466 159.632C197.602 159.632 196.866 159.984 196.354 160.72V159.824H195.234V168H196.354V162.976C196.354 161.2 197.218 160.64 198.37 160.64C199.458 160.64 200.274 161.28 200.274 163.008V168ZM207.244 168.192C208.268 168.192 208.924 167.792 209.42 167.296V168H210.54V156.448L209.42 157.008V160.4C208.924 160 208.252 159.632 207.244 159.632C205.164 159.632 203.868 161.216 203.868 163.904C203.868 166.512 205.148 168.192 207.244 168.192ZM207.372 167.184C205.932 167.184 205.036 165.728 205.036 163.904C205.036 161.808 205.868 160.64 207.372 160.64C208.412 160.64 209.084 161.28 209.42 161.824V165.904C208.972 166.72 208.188 167.184 207.372 167.184ZM219.627 168.192C220.251 168.192 220.699 168.048 221.115 167.824L221.243 166.656C220.939 166.864 220.555 167.136 220.011 167.136C219.227 167.136 219.131 166.544 219.131 165.84V160.832H221.211V159.824H219.131V156.448L218.011 157.008V159.824H216.619V160.832H218.011V166.32C218.011 167.392 218.459 168.192 219.627 168.192ZM223.726 168H224.846V163.376C224.846 161.36 226.014 160.752 226.83 160.752C227.358 160.752 227.678 160.928 227.886 161.056L228.062 159.968C227.838 159.808 227.422 159.632 226.91 159.632C225.902 159.632 225.214 160.192 224.846 160.976V159.824H223.726V168ZM234.451 168H235.491V162.464C235.491 160.144 233.939 159.632 232.771 159.632C231.651 159.632 230.563 160.112 229.907 160.528L230.227 161.488C230.835 161.072 231.843 160.608 232.659 160.608C233.571 160.608 234.451 160.96 234.451 162.608V163.296C233.651 162.864 232.931 162.72 232.243 162.72C230.691 162.72 229.267 163.536 229.267 165.424C229.267 167.264 230.403 168.192 232.051 168.192C232.931 168.192 233.795 167.792 234.451 167.2V168ZM232.163 167.216C230.979 167.216 230.307 166.496 230.307 165.424C230.307 164.24 231.251 163.696 232.355 163.696C233.059 163.696 233.923 164.016 234.451 164.368V165.952C233.955 166.56 233.155 167.216 232.163 167.216ZM243.324 168H244.444V163.472C244.444 160.768 243.516 159.632 241.516 159.632C240.652 159.632 239.916 159.984 239.404 160.72V159.824H238.284V168H239.404V162.976C239.404 161.2 240.268 160.64 241.42 160.64C242.508 160.64 243.324 161.28 243.324 163.008V168ZM249.781 168.192C251.477 168.192 252.533 167.312 252.533 165.952C252.533 164.304 251.141 163.744 249.925 163.264C248.965 162.88 248.053 162.528 248.053 161.696C248.053 161.04 248.661 160.624 249.605 160.624C250.501 160.624 251.141 161.088 251.557 161.504L252.293 160.88C251.637 160.096 250.741 159.632 249.637 159.632C248.101 159.632 246.997 160.464 246.997 161.712C246.997 163.088 248.149 163.664 249.445 164.192C250.437 164.592 251.477 165.024 251.477 166.016C251.477 166.784 250.773 167.2 249.877 167.2C249.029 167.2 248.245 166.672 247.749 166.08L246.965 166.768C247.653 167.584 248.677 168.192 249.781 168.192ZM259.827 168H260.867V162.464C260.867 160.144 259.315 159.632 258.147 159.632C257.027 159.632 255.939 160.112 255.283 160.528L255.603 161.488C256.211 161.072 257.219 160.608 258.035 160.608C258.947 160.608 259.827 160.96 259.827 162.608V163.296C259.027 162.864 258.307 162.72 257.619 162.72C256.067 162.72 254.643 163.536 254.643 165.424C254.643 167.264 255.779 168.192 257.427 168.192C258.307 168.192 259.171 167.792 259.827 167.2V168ZM257.539 167.216C256.355 167.216 255.683 166.496 255.683 165.424C255.683 164.24 256.627 163.696 257.731 163.696C258.435 163.696 259.299 164.016 259.827 164.368V165.952C259.331 166.56 258.531 167.216 257.539 167.216ZM266.332 168.192C267.724 168.192 268.812 167.472 269.196 166.32L268.188 165.936C267.916 166.704 267.26 167.184 266.38 167.184C264.94 167.184 264.268 165.984 264.268 163.92C264.268 161.904 264.892 160.64 266.412 160.64C267.308 160.64 267.804 161.12 268.06 161.744L269.084 161.344C268.636 160.24 267.676 159.632 266.46 159.632C264.364 159.632 263.1 161.232 263.1 163.92C263.1 166.64 264.364 168.192 266.332 168.192ZM273.495 168.192C274.119 168.192 274.567 168.048 274.983 167.824L275.111 166.656C274.807 166.864 274.423 167.136 273.879 167.136C273.095 167.136 272.999 166.544 272.999 165.84V160.832H275.079V159.824H272.999V156.448L271.879 157.008V159.824H270.487V160.832H271.879V166.32C271.879 167.392 272.327 168.192 273.495 168.192ZM278.169 158.144C278.601 158.144 278.905 157.824 278.905 157.408C278.905 156.976 278.601 156.64 278.169 156.64C277.753 156.64 277.433 156.976 277.433 157.408C277.433 157.824 277.753 158.144 278.169 158.144ZM277.609 168H278.729V159.824H277.609V168ZM284.808 168.192C286.904 168.192 288.312 166.592 288.312 163.904C288.312 161.184 286.904 159.632 284.808 159.632C282.712 159.632 281.304 161.232 281.304 163.92C281.304 166.64 282.712 168.192 284.808 168.192ZM284.808 167.184C283.288 167.184 282.472 165.952 282.472 163.92C282.472 161.792 283.288 160.64 284.808 160.64C286.328 160.64 287.144 161.872 287.144 163.904C287.144 165.952 286.296 167.184 284.808 167.184ZM295.91 168H297.03V163.472C297.03 160.768 296.102 159.632 294.102 159.632C293.238 159.632 292.502 159.984 291.99 160.72V159.824H290.87V168H291.99V162.976C291.99 161.2 292.854 160.64 294.006 160.64C295.094 160.64 295.91 161.28 295.91 163.008V168ZM308.695 168H309.735V162.464C309.735 160.144 308.183 159.632 307.015 159.632C305.895 159.632 304.807 160.112 304.151 160.528L304.471 161.488C305.079 161.072 306.087 160.608 306.903 160.608C307.815 160.608 308.695 160.96 308.695 162.608V163.296C307.895 162.864 307.175 162.72 306.487 162.72C304.935 162.72 303.511 163.536 303.511 165.424C303.511 167.264 304.647 168.192 306.295 168.192C307.175 168.192 308.039 167.792 308.695 167.2V168ZM306.407 167.216C305.223 167.216 304.551 166.496 304.551 165.424C304.551 164.24 305.495 163.696 306.599 163.696C307.303 163.696 308.167 164.016 308.695 164.368V165.952C308.199 166.56 307.399 167.216 306.407 167.216ZM315.887 168.192C317.855 168.192 319.263 166.64 319.263 163.904C319.263 161.328 317.983 159.632 315.887 159.632C314.783 159.632 314.175 160.08 313.647 160.56V159.824H312.527V171.248L313.647 170.688V167.168C314.111 167.712 314.735 168.192 315.887 168.192ZM315.759 167.184C314.879 167.184 314.207 166.64 313.647 165.92V161.904C314.095 161.104 314.879 160.64 315.759 160.64C317.215 160.64 318.095 161.92 318.095 163.904C318.095 166.016 317.247 167.184 315.759 167.184ZM325.19 168.192C327.158 168.192 328.566 166.64 328.566 163.904C328.566 161.328 327.286 159.632 325.19 159.632C324.086 159.632 323.478 160.08 322.95 160.56V159.824H321.83V171.248L322.95 170.688V167.168C323.414 167.712 324.038 168.192 325.19 168.192ZM325.062 167.184C324.182 167.184 323.51 166.64 322.95 165.92V161.904C323.398 161.104 324.182 160.64 325.062 160.64C326.518 160.64 327.398 161.92 327.398 163.904C327.398 166.016 326.55 167.184 325.062 167.184ZM334.125 168.192C335.069 168.192 335.981 167.792 336.621 167.264L336.013 166.512C335.389 166.976 334.765 167.152 334.173 167.152C332.781 167.152 331.949 166.032 331.757 164.368H337.325C337.357 164.016 337.357 163.76 337.357 163.584C337.357 160.832 335.869 159.632 334.125 159.632C332.029 159.632 330.573 161.184 330.573 163.904C330.573 166.208 331.917 168.192 334.125 168.192ZM331.725 163.36C331.821 161.504 332.813 160.64 334.125 160.64C334.989 160.64 336.205 161.152 336.221 163.36H331.725ZM344.545 168H345.585V162.464C345.585 160.144 344.033 159.632 342.865 159.632C341.745 159.632 340.657 160.112 340.001 160.528L340.321 161.488C340.929 161.072 341.937 160.608 342.753 160.608C343.665 160.608 344.545 160.96 344.545 162.608V163.296C343.745 162.864 343.025 162.72 342.337 162.72C340.785 162.72 339.361 163.536 339.361 165.424C339.361 167.264 340.497 168.192 342.145 168.192C343.025 168.192 343.889 167.792 344.545 167.2V168ZM342.257 167.216C341.073 167.216 340.401 166.496 340.401 165.424C340.401 164.24 341.345 163.696 342.449 163.696C343.153 163.696 344.017 164.016 344.545 164.368V165.952C344.049 166.56 343.249 167.216 342.257 167.216ZM348.378 168H349.498V163.376C349.498 161.36 350.666 160.752 351.482 160.752C352.01 160.752 352.33 160.928 352.538 161.056L352.714 159.968C352.49 159.808 352.074 159.632 351.562 159.632C350.554 159.632 349.866 160.192 349.498 160.976V159.824H348.378V168ZM357.016 168.192C358.712 168.192 359.768 167.312 359.768 165.952C359.768 164.304 358.376 163.744 357.16 163.264C356.2 162.88 355.288 162.528 355.288 161.696C355.288 161.04 355.896 160.624 356.84 160.624C357.736 160.624 358.376 161.088 358.792 161.504L359.528 160.88C358.872 160.096 357.976 159.632 356.872 159.632C355.336 159.632 354.232 160.464 354.232 161.712C354.232 163.088 355.384 163.664 356.68 164.192C357.672 164.592 358.712 165.024 358.712 166.016C358.712 166.784 358.008 167.2 357.112 167.2C356.264 167.2 355.48 166.672 354.984 166.08L354.2 166.768C354.888 167.584 355.912 168.192 357.016 168.192ZM362.726 168.224C363.302 168.224 363.734 167.728 363.734 167.216C363.734 166.704 363.302 166.208 362.726 166.208C362.15 166.208 361.718 166.704 361.718 167.216C361.718 167.728 362.15 168.224 362.726 168.224Z" fill="#7F8196"/>
<rect x="53.5" y="239.5" width="652" height="40" fill="#08BEE5" fill-opacity="0.2" stroke="#08BEE5"/>
<rect x="53.5" y="304.5" width="652" height="10" fill="#08BEE5" fill-opacity="0.2" stroke="#08BEE5"/>
<rect x="53.5" y="315.5" width="9" height="9" stroke="#FF0000"/>
<rect x="53.5" y="325.5" width="652" height="40" fill="#08BEE5" fill-opacity="0.2" stroke="#08BEE5"/>
<rect x="53.5" y="390.5" width="652" height="10" fill="#08BEE5" fill-opacity="0.2" stroke="#08BEE5"/>
<rect x="53.5" y="401.5" width="9" height="9" stroke="#FF0000"/>
<rect x="53.5" y="411.5" width="652" height="40" fill="#08BEE5" fill-opacity="0.2" stroke="#08BEE5"/>
<rect x="53.5" y="476.5" width="652" height="10" fill="#08BEE5" fill-opacity="0.2" stroke="#08BEE5"/>
<rect x="53.5" y="487.5" width="9" height="9" stroke="#FF0000"/>
<rect x="53.5" y="497.5" width="652" height="40" fill="#08BEE5" fill-opacity="0.2" stroke="#08BEE5"/>
<rect x="53.5" y="562.5" width="652" height="10" fill="#08BEE5" fill-opacity="0.2" stroke="#08BEE5"/>
<rect x="53.5" y="573.5" width="9" height="9" stroke="#FF0000"/>
<rect x="53.5" y="583.5" width="652" height="40" fill="#08BEE5" fill-opacity="0.2" stroke="#08BEE5"/>
<defs>
<filter id="filter0_i" x="52.75" y="239.75" width="653.5" height="41.5" filterUnits="userSpaceOnUse" color-interpolation-filters="sRGB">
<feFlood flood-opacity="0" result="BackgroundImageFix"/>
<feBlend mode="normal" in="SourceGraphic" in2="BackgroundImageFix" result="shape"/>
<feColorMatrix in="SourceAlpha" type="matrix" values="0 0 0 0 0 0 0 0 0 0 0 0 0 0 0 0 0 0 127 0" result="hardAlpha"/>
<feOffset dy="1"/>
<feGaussianBlur stdDeviation="1.5"/>
<feComposite in2="hardAlpha" operator="arithmetic" k2="-1" k3="1"/>
<feColorMatrix type="matrix" values="0 0 0 0 0 0 0 0 0 0 0 0 0 0 0 0 0 0 0.25 0"/>
<feBlend mode="normal" in2="shape" result="effect1_innerShadow"/>
</filter>
<filter id="filter1_i" x="52.75" y="325.75" width="653.5" height="41.5" filterUnits="userSpaceOnUse" color-interpolation-filters="sRGB">
<feFlood flood-opacity="0" result="BackgroundImageFix"/>
<feBlend mode="normal" in="SourceGraphic" in2="BackgroundImageFix" result="shape"/>
<feColorMatrix in="SourceAlpha" type="matrix" values="0 0 0 0 0 0 0 0 0 0 0 0 0 0 0 0 0 0 127 0" result="hardAlpha"/>
<feOffset dy="1"/>
<feGaussianBlur stdDeviation="1.5"/>
<feComposite in2="hardAlpha" operator="arithmetic" k2="-1" k3="1"/>
<feColorMatrix type="matrix" values="0 0 0 0 0 0 0 0 0 0 0 0 0 0 0 0 0 0 0.25 0"/>
<feBlend mode="normal" in2="shape" result="effect1_innerShadow"/>
</filter>
<filter id="filter2_i" x="52.75" y="411.75" width="653.5" height="41.5" filterUnits="userSpaceOnUse" color-interpolation-filters="sRGB">
<feFlood flood-opacity="0" result="BackgroundImageFix"/>
<feBlend mode="normal" in="SourceGraphic" in2="BackgroundImageFix" result="shape"/>
<feColorMatrix in="SourceAlpha" type="matrix" values="0 0 0 0 0 0 0 0 0 0 0 0 0 0 0 0 0 0 127 0" result="hardAlpha"/>
<feOffset dy="1"/>
<feGaussianBlur stdDeviation="1.5"/>
<feComposite in2="hardAlpha" operator="arithmetic" k2="-1" k3="1"/>
<feColorMatrix type="matrix" values="0 0 0 0 0 0 0 0 0 0 0 0 0 0 0 0 0 0 0.25 0"/>
<feBlend mode="normal" in2="shape" result="effect1_innerShadow"/>
</filter>
<filter id="filter3_i" x="52.75" y="583.75" width="272.5" height="41.5" filterUnits="userSpaceOnUse" color-interpolation-filters="sRGB">
<feFlood flood-opacity="0" result="BackgroundImageFix"/>
<feBlend mode="normal" in="SourceGraphic" in2="BackgroundImageFix" result="shape"/>
<feColorMatrix in="SourceAlpha" type="matrix" values="0 0 0 0 0 0 0 0 0 0 0 0 0 0 0 0 0 0 127 0" result="hardAlpha"/>
<feOffset dy="1"/>
<feGaussianBlur stdDeviation="1.5"/>
<feComposite in2="hardAlpha" operator="arithmetic" k2="-1" k3="1"/>
<feColorMatrix type="matrix" values="0 0 0 0 0 0 0 0 0 0 0 0 0 0 0 0 0 0 0.25 0"/>
<feBlend mode="normal" in2="shape" result="effect1_innerShadow"/>
</filter>
<filter id="filter4_i" x="356.75" y="583.75" width="272.5" height="41.5" filterUnits="userSpaceOnUse" color-interpolation-filters="sRGB">
<feFlood flood-opacity="0" result="BackgroundImageFix"/>
<feBlend mode="normal" in="SourceGraphic" in2="BackgroundImageFix" result="shape"/>
<feColorMatrix in="SourceAlpha" type="matrix" values="0 0 0 0 0 0 0 0 0 0 0 0 0 0 0 0 0 0 127 0" result="hardAlpha"/>
<feOffset dy="1"/>
<feGaussianBlur stdDeviation="1.5"/>
<feComposite in2="hardAlpha" operator="arithmetic" k2="-1" k3="1"/>
<feColorMatrix type="matrix" values="0 0 0 0 0 0 0 0 0 0 0 0 0 0 0 0 0 0 0.25 0"/>
<feBlend mode="normal" in2="shape" result="effect1_innerShadow"/>
</filter>
<filter id="filter5_i" x="52.75" y="497.75" width="140.5" height="41.5" filterUnits="userSpaceOnUse" color-interpolation-filters="sRGB">
<feFlood flood-opacity="0" result="BackgroundImageFix"/>
<feBlend mode="normal" in="SourceGraphic" in2="BackgroundImageFix" result="shape"/>
<feColorMatrix in="SourceAlpha" type="matrix" values="0 0 0 0 0 0 0 0 0 0 0 0 0 0 0 0 0 0 127 0" result="hardAlpha"/>
<feOffset dy="1"/>
<feGaussianBlur stdDeviation="1.5"/>
<feComposite in2="hardAlpha" operator="arithmetic" k2="-1" k3="1"/>
<feColorMatrix type="matrix" values="0 0 0 0 0 0 0 0 0 0 0 0 0 0 0 0 0 0 0.25 0"/>
<feBlend mode="normal" in2="shape" result="effect1_innerShadow"/>
</filter>
</defs>
</svg>
