<svg width="760" height="413" viewBox="0 0 760 413" fill="none" xmlns="http://www.w3.org/2000/svg">
<rect opacity="0.2" width="760" height="413" rx="4" fill="#F5F5F5"/>
<g filter="url(#filter0_d)">
<rect width="143" height="143" transform="translate(176 135)" fill="white"/>
<path d="M291.316 202.648H203.684C201.557 202.648 199.833 204.372 199.833 206.499C199.833 208.626 201.557 210.35 203.684 210.35H291.316C293.443 210.35 295.167 208.626 295.167 206.499C295.167 204.372 293.443 202.648 291.316 202.648Z" fill="#212B36"/>
<path d="M209.132 206.5L239.27 176.361C240.774 174.857 240.774 172.419 239.27 170.915C237.767 169.411 235.328 169.411 233.824 170.915L200.963 203.777C199.459 205.281 199.459 207.719 200.963 209.223L233.824 242.084C234.576 242.836 235.562 243.212 236.548 243.212C237.533 243.212 238.519 242.836 239.271 242.084C240.775 240.58 240.775 238.142 239.271 236.638L209.132 206.5Z" fill="#212B36"/>
</g>
<circle cx="463" cy="195" r="174" fill="white" stroke="#FF0000" stroke-width="2"/>
<circle r="45" transform="matrix(-1 0 0 1 222 195)" stroke="#FF0000" stroke-width="2"/>
<mask id="mask0" mask-type="alpha" maskUnits="userSpaceOnUse" x="288" y="20" width="350" height="350">
<circle cx="463" cy="195" r="174" fill="white" stroke="#FF0000" stroke-width="2"/>
</mask>
<g mask="url(#mask0)">
<path d="M819.572 235.712H318.998C306.849 235.712 297 245.561 297 257.709C297 269.859 306.849 279.707 318.998 279.707H819.572C831.722 279.707 841.57 269.859 841.57 257.709C841.57 245.561 831.722 235.712 819.572 235.712Z" fill="#E9E9E9"/>
<path d="M350.117 257.713L522.276 85.5519C530.867 76.9611 530.867 63.0331 522.276 54.4423C513.685 45.8526 499.757 45.8526 491.167 54.4423L303.452 242.157C294.861 250.748 294.861 264.676 303.452 273.267L491.167 460.982C495.462 465.278 501.092 467.425 506.722 467.425C512.352 467.425 517.982 465.278 522.277 460.982C530.868 452.391 530.868 438.463 522.277 429.872L350.117 257.713Z" fill="#E9E9E9"/>
</g>
<path d="M472.172 199.168C473.978 199.168 475.266 198.188 475.266 196.452C475.266 194.618 473.768 193.778 472.438 193.26C471.276 192.812 470.184 192.336 470.184 191.3C470.184 190.46 470.87 189.914 472.018 189.914C472.998 189.914 473.642 190.376 473.88 190.894L474.79 190.586C474.524 189.69 473.502 189.032 472.06 189.032C470.24 189.032 469.176 190.068 469.176 191.314C469.176 192.938 470.674 193.68 472.046 194.198C473.194 194.632 474.258 195.276 474.258 196.48C474.258 197.656 473.46 198.286 472.186 198.286C471.066 198.286 470.226 197.698 469.834 196.844L468.91 197.18C469.302 198.244 470.52 199.168 472.172 199.168ZM479.365 199.168C479.91 199.168 480.303 199.042 480.667 198.846L480.779 197.824C480.513 198.006 480.177 198.244 479.701 198.244C479.015 198.244 478.931 197.726 478.931 197.11V192.728H480.751V191.846H478.931V188.892L477.951 189.382V191.846H476.733V192.728H477.951V197.53C477.951 198.468 478.343 199.168 479.365 199.168ZM482.74 199H483.72V194.954C483.72 193.19 484.742 192.658 485.456 192.658C485.918 192.658 486.198 192.812 486.38 192.924L486.534 191.972C486.338 191.832 485.974 191.678 485.526 191.678C484.644 191.678 484.042 192.168 483.72 192.854V191.846H482.74V199ZM490.649 199.168C492.483 199.168 493.715 197.768 493.715 195.416C493.715 193.036 492.483 191.678 490.649 191.678C488.815 191.678 487.583 193.078 487.583 195.43C487.583 197.81 488.815 199.168 490.649 199.168ZM490.649 198.286C489.319 198.286 488.605 197.208 488.605 195.43C488.605 193.568 489.319 192.56 490.649 192.56C491.979 192.56 492.693 193.638 492.693 195.416C492.693 197.208 491.951 198.286 490.649 198.286ZM501.286 199L498.598 193.75L500.39 191.846H499.256L496.722 194.576V188.892L495.742 189.368V199H496.722V195.738L497.912 194.464L500.208 199H501.286ZM505.087 199.168C505.913 199.168 506.711 198.818 507.271 198.356L506.739 197.698C506.193 198.104 505.647 198.258 505.129 198.258C503.911 198.258 503.183 197.278 503.015 195.822H507.887C507.915 195.514 507.915 195.29 507.915 195.136C507.915 192.728 506.613 191.678 505.087 191.678C503.253 191.678 501.979 193.036 501.979 195.416C501.979 197.432 503.155 199.168 505.087 199.168ZM502.987 194.94C503.071 193.316 503.939 192.56 505.087 192.56C505.843 192.56 506.907 193.008 506.921 194.94H502.987ZM510.201 194.002C510.705 194.002 511.083 193.568 511.083 193.12C511.083 192.672 510.705 192.238 510.201 192.238C509.697 192.238 509.319 192.672 509.319 193.12C509.319 193.568 509.697 194.002 510.201 194.002ZM510.201 199.196C510.705 199.196 511.083 198.762 511.083 198.314C511.083 197.866 510.705 197.432 510.201 197.432C509.697 197.432 509.319 197.866 509.319 198.314C509.319 198.762 509.697 199.196 510.201 199.196ZM517.3 199H518.28V189.2H517.65C517.342 190.124 516.614 190.418 515.634 190.418V190.978H517.3V199ZM527.243 199.168C528.965 199.168 530.197 197.81 530.197 195.416C530.197 193.162 529.077 191.678 527.243 191.678C526.277 191.678 525.745 192.07 525.283 192.49V191.846H524.303V201.842L525.283 201.352V198.272C525.689 198.748 526.235 199.168 527.243 199.168ZM527.131 198.286C526.361 198.286 525.773 197.81 525.283 197.18V193.666C525.675 192.966 526.361 192.56 527.131 192.56C528.405 192.56 529.175 193.68 529.175 195.416C529.175 197.264 528.433 198.286 527.131 198.286ZM531.04 199H532.104L533.546 196.788C533.7 196.55 533.84 196.326 533.994 196.074L534.442 196.788L535.884 199H536.948L534.526 195.29L536.78 191.846H535.716L534.456 193.778C534.288 194.03 534.148 194.254 533.994 194.506C533.84 194.254 533.7 194.03 533.532 193.778L532.272 191.846H531.208L533.462 195.29L531.04 199Z" fill="#FF0303"/>
<path d="M628 259H319.5L499.5 77.5" stroke="#FF0000" stroke-dasharray="3 3"/>
<defs>
<filter id="filter0_d" x="170" y="132" width="155" height="155" filterUnits="userSpaceOnUse" color-interpolation-filters="sRGB">
<feFlood flood-opacity="0" result="BackgroundImageFix"/>
<feColorMatrix in="SourceAlpha" type="matrix" values="0 0 0 0 0 0 0 0 0 0 0 0 0 0 0 0 0 0 127 0"/>
<feOffset dy="3"/>
<feGaussianBlur stdDeviation="3"/>
<feColorMatrix type="matrix" values="0 0 0 0 0 0 0 0 0 0 0 0 0 0 0 0 0 0 0.15 0"/>
<feBlend mode="normal" in2="BackgroundImageFix" result="effect1_dropShadow"/>
<feBlend mode="normal" in="SourceGraphic" in2="effect1_dropShadow" result="shape"/>
</filter>
</defs>
</svg>
