<?xml version="1.0" encoding="UTF-8"?>
<svg width="136px" height="116px" viewBox="0 0 136 116" version="1.1" xmlns="http://www.w3.org/2000/svg" xmlns:xlink="http://www.w3.org/1999/xlink">
    <!-- Generator: Sketch 52.6 (67491) - http://www.bohemiancoding.com/sketch -->
    <title>Group 31 Copy</title>
    <desc>Created with Sketch.</desc>
    <defs>
        <linearGradient x1="0%" y1="100%" x2="100%" y2="3.74939946e-31%" id="linearGradient-1">
            <stop stop-color="#F19F73" offset="0%"></stop>
            <stop stop-color="#A74EB5" offset="100%"></stop>
        </linearGradient>
        <linearGradient x1="0%" y1="100%" x2="100%" y2="3.74939946e-31%" id="linearGradient-2">
            <stop stop-color="#FFCF71" offset="0%"></stop>
            <stop stop-color="#24CFDD" offset="100%"></stop>
        </linearGradient>
        <linearGradient x1="94.1412997%" y1="-39.1726835%" x2="12.4111148%" y2="139.940619%" id="linearGradient-3">
            <stop stop-color="#FFCF71" offset="0%"></stop>
            <stop stop-color="#0D9DA8" offset="100%"></stop>
        </linearGradient>
        <linearGradient x1="50%" y1="95.917328%" x2="50%" y2="0%" id="linearGradient-4">
            <stop stop-color="#5FB8A7" offset="0%"></stop>
            <stop stop-color="#8EC19A" offset="100%"></stop>
        </linearGradient>
        <linearGradient x1="50%" y1="-46.8881893%" x2="50%" y2="81.2773087%" id="linearGradient-5">
            <stop stop-color="#FDFEFD" offset="0%"></stop>
            <stop stop-color="#9CCBB1" offset="100%"></stop>
        </linearGradient>
    </defs>
    <g id="Page-1" stroke="none" stroke-width="1" fill="none" fill-rule="evenodd">
        <g id="Group-31-Copy">
            <path d="M135.996547,59.140226 C136.074906,55.1494904 133.446016,51.1408933 128.113062,48.09603 L86.7223125,24.4649809 C76.2540312,18.4884649 59.3385,18.4884649 48.9382187,24.4652436 L7.81628125,48.096818 C2.63260937,51.0752259 0.04728125,54.9761286 0.052859375,58.8801833 C0.052859375,58.8675752 0.0520625,58.8549671 0.052328125,58.8423589 L-2.21583819e-17,76.9492087 C-0.011421875,80.8908251 2.61959375,84.838483 7.88720312,87.8457845 L49.2782187,111.477096 C59.7451719,117.452824 76.6620312,117.453612 87.0623125,111.476834 L128.18425,87.8452592 C133.350656,84.8763074 135.936516,80.9906395 135.947937,77.0997182 L136,58.9926058 C135.999734,59.041725 135.997609,59.0911068 135.996547,59.140226 Z" id="Path" fill="url(#linearGradient-1)"></path>
            <path d="M128.236312,69.7384094 L87.114375,93.3699838 C76.7140937,99.3467625 59.7972344,99.3459745 49.3302812,93.3702465 L7.93926562,69.7389347 C2.67165625,66.7313705 0.040640625,62.7839754 0.0520625,58.8423589 L-2.21583819e-17,76.9492087 C-0.011421875,80.8908251 2.61959375,84.838483 7.88720312,87.8457845 L49.2782187,111.477096 C59.7451719,117.452824 76.6620312,117.453612 87.0623125,111.476834 L128.18425,87.8452592 C133.350656,84.8763074 135.936516,80.9906395 135.947937,77.0997182 L136,58.9926058 C135.988844,62.8840524 133.402719,66.7694576 128.236312,69.7384094 Z" id="Path" fill="url(#linearGradient-2)"></path>
            <path d="M128.113063,48.09603 C138.580016,54.0720207 138.636328,63.7616307 128.236312,69.7384094 L87.114375,93.3702465 C76.7140937,99.3470252 59.7972344,99.3462371 49.3302812,93.3705092 L7.93926562,69.7389347 C-2.52901563,63.7624187 -2.584,54.073334 7.81601562,48.0965554 L48.9379531,24.4649809 C59.3382344,18.4882023 76.2537656,18.4882023 86.7220469,24.4647182 L128.113063,48.09603 Z" id="Path" fill="url(#linearGradient-3)"></path>
            <path d="M44.3407744,21.386496 C44.1694497,21.4723013 43.9994497,21.5611711 43.8307744,21.6544187 C43.8312159,21.6544187 43.8312159,21.6539809 43.8316575,21.6539809 C43.9998912,21.5607333 44.1694497,21.4723013 44.3407744,21.386496 Z" id="Path" fill="#E0E0E2"></path>
            <path d="M135.996547,39.2772123 C136.074906,35.2864767 133.446016,31.2778796 128.113062,28.2330163 L86.7223125,4.60196721 C76.2540312,-1.37454877 59.3385,-1.37454877 48.9382187,4.60222988 L7.81628125,28.2338043 C2.63260937,31.2122122 0.04728125,35.1131149 0.052859375,39.0171696 C0.052859375,39.0045615 0.0520625,38.9919534 0.052328125,38.9793452 L-2.21583819e-17,57.086195 C-0.011421875,61.0278114 2.61959375,64.9754693 7.88720312,67.9827708 L49.2782187,91.6140826 C59.7451719,97.5898105 76.6620312,97.5905985 87.0623125,91.6138199 L128.18425,67.9822455 C133.350656,65.0132937 135.936516,61.1276258 135.947937,57.2367045 L136,39.1295921 C135.999734,39.1787113 135.997609,39.2280931 135.996547,39.2772123 Z" id="Path" fill="url(#linearGradient-4)"></path>
            <path d="M128.113062,28.2330163 C138.580016,34.209007 138.636328,43.898617 128.236312,49.8753957 L87.114375,73.5072328 C76.7140937,79.4840115 59.7972344,79.4832234 49.3302812,73.5074955 L7.93926562,49.875921 C-2.52901563,43.899405 -2.584,34.2103203 7.81601562,28.2335417 L48.9379531,4.60196721 C59.3382344,-1.37481144 76.2537656,-1.37481144 86.7220469,4.60170454 L128.113062,28.2330163 Z" id="Path" fill="url(#linearGradient-5)"></path>
            <path d="M44.3407744,1.52348228 C44.1694497,1.6092876 43.9994497,1.6981574 43.8307744,1.79140502 C43.8312159,1.79140502 43.8312159,1.79096723 43.8316575,1.79096723 C43.9998912,1.69771961 44.1694497,1.6092876 44.3407744,1.52348228 Z" id="Path" fill="#E0E0E2"></path>
            <path d="M75.2033482,21.4520548 L55.1120912,21.4520548 L55.1120912,24.2302994 L75.2033482,24.2302994 C82.460174,24.2302994 88.3417648,28.1657457 88.3417648,33.0188632 C88.3417648,37.8714924 82.4606608,41.804904 75.2033482,41.804904 L55.1120912,41.804904 L55.1120912,44.5831485 L75.2033482,44.5831485 C84.7541794,44.5831485 92.4957021,39.405448 92.4957021,33.0188632 C92.4957021,26.6313831 84.7541794,21.4520548 75.2033482,21.4520548 Z" id="Path" stroke="#FFFFFF"></path>
            <path d="M59.9432414,34.4365127 L80.0344985,34.4365127 L80.0344985,31.6582681 L59.9432414,31.6582681 C50.3924103,31.6582681 42.6508876,36.8359686 42.6508876,43.2225534 C42.6508876,49.6100335 50.3924103,54.7893618 59.9432414,54.7893618 L80.0344985,54.7893618 L80.0344985,52.0111173 L59.9432414,52.0111173 C52.6864157,52.0111173 46.8048249,48.0747757 46.8048249,43.2225534 C46.8048249,38.3699242 52.6859289,34.4365127 59.9432414,34.4365127 Z" id="Path" stroke="#FFFFFF"></path>
        </g>
    </g>
</svg>