<svg width="202" height="217" viewBox="0 0 202 217" fill="none" xmlns="http://www.w3.org/2000/svg">
<path fill-rule="evenodd" clip-rule="evenodd" d="M99.7931 58.6817L142.994 83.6415L99.7931 108.601L56.5918 83.6415L99.7931 58.6817Z" fill="url(#paint0_linear)"/>
<path fill-rule="evenodd" clip-rule="evenodd" d="M100.019 108.339L100.014 158.252L56.8089 133.299L56.8132 83.387L100.019 108.339Z" fill="url(#paint1_linear)"/>
<path fill-rule="evenodd" clip-rule="evenodd" d="M99.7931 0L142.994 24.9598L99.7931 49.9197L56.5918 24.9598L99.7931 0Z" fill="url(#paint2_linear)"/>
<path fill-rule="evenodd" clip-rule="evenodd" d="M99.7931 166.876L142.994 191.836L99.7931 216.796L56.5918 191.836L99.7931 166.876Z" fill="url(#paint3_linear)"/>
<path fill-rule="evenodd" clip-rule="evenodd" d="M158.228 108.339L201.434 83.387L201.438 133.299L158.232 158.252L158.228 108.339Z" fill="url(#paint4_linear)"/>
<path fill-rule="evenodd" clip-rule="evenodd" d="M43.8105 108.339L43.8063 158.252L0.600647 133.299L0.604932 83.387L43.8105 108.339Z" fill="url(#paint5_linear)"/>
<path fill-rule="evenodd" clip-rule="evenodd" d="M99.576 108.339L142.782 83.387L142.786 133.299L99.5803 158.252L99.576 108.339Z" fill="url(#paint6_linear)"/>
<defs>
<linearGradient id="paint0_linear" x1="142.994" y1="108.601" x2="142.994" y2="58.6817" gradientUnits="userSpaceOnUse">
<stop stop-color="#E6E9F0"/>
<stop offset="1" stop-color="#EEF1F5"/>
</linearGradient>
<linearGradient id="paint1_linear" x1="41.0981" y1="274.422" x2="158.503" y2="226.415" gradientUnits="userSpaceOnUse">
<stop stop-color="#FFCF71"/>
<stop offset="1" stop-color="#24CFDD"/>
</linearGradient>
<linearGradient id="paint2_linear" x1="142.994" y1="49.9197" x2="142.994" y2="0" gradientUnits="userSpaceOnUse">
<stop stop-color="#E6E9F0"/>
<stop offset="1" stop-color="#EEF1F5"/>
</linearGradient>
<linearGradient id="paint3_linear" x1="142.994" y1="216.796" x2="142.994" y2="166.876" gradientUnits="userSpaceOnUse">
<stop stop-color="#E6E9F0"/>
<stop offset="1" stop-color="#EEF1F5"/>
</linearGradient>
<linearGradient id="paint4_linear" x1="179.833" y1="195.684" x2="244.658" y2="158.269" gradientUnits="userSpaceOnUse">
<stop stop-color="#FFCF71"/>
<stop offset="1" stop-color="#24CFDD"/>
</linearGradient>
<linearGradient id="paint5_linear" x1="22.2056" y1="195.684" x2="87.0304" y2="158.269" gradientUnits="userSpaceOnUse">
<stop stop-color="#FFCF71"/>
<stop offset="1" stop-color="#24CFDD"/>
</linearGradient>
<linearGradient id="paint6_linear" x1="121.181" y1="195.684" x2="186.006" y2="158.269" gradientUnits="userSpaceOnUse">
<stop stop-color="#FFCF71"/>
<stop offset="1" stop-color="#24CFDD"/>
</linearGradient>
</defs>
</svg>
