<?xml version="1.0" encoding="UTF-8"?>
<svg width="207px" height="193px" viewBox="0 0 207 193" version="1.1" xmlns="http://www.w3.org/2000/svg" xmlns:xlink="http://www.w3.org/1999/xlink">
    <!-- Generator: sketchtool 52.6 (67491) - http://www.bohemiancoding.com/sketch -->
    <title>4A7A891D-C14B-4E05-948D-B6DAE545FE24</title>
    <desc>Created with sketchtool.</desc>
    <defs>
        <ellipse id="path-1" cx="59.8082638" cy="59.9237004" rx="59.5936072" ry="59.4631001"></ellipse>
        <linearGradient x1="84.3520221%" y1="0%" x2="50%" y2="105.026425%" id="linearGradient-3">
            <stop stop-color="#5BCFE8" stop-opacity="0" offset="0%"></stop>
            <stop stop-color="#2CB2E1" offset="100%"></stop>
        </linearGradient>
        <linearGradient x1="-6.45380435%" y1="89.9201766%" x2="100%" y2="0%" id="linearGradient-4">
            <stop stop-color="#5BCFE8" stop-opacity="0" offset="0%"></stop>
            <stop stop-color="#2CB2E1" offset="100%"></stop>
        </linearGradient>
        <linearGradient x1="197.851562%" y1="50%" x2="-49.1861979%" y2="50%" id="linearGradient-5">
            <stop stop-color="#5BCFE8" stop-opacity="0" offset="0%"></stop>
            <stop stop-color="#2CB2E1" offset="100%"></stop>
        </linearGradient>
    </defs>
    <g id="Page-1" stroke="none" stroke-width="1" fill="none" fill-rule="evenodd">
        <g id="Developers@2x" transform="translate(-181.000000, -3387.000000)">
            <g id="Group-60" transform="translate(0.000000, 3336.000000)">
                <g transform="translate(181.000000, 52.000000)" id="Group-59">
                    <g>
                        <g id="Group-58">
                            <g id="Group-31">
                                <g id="concrete-wall" transform="translate(50.574603, 14.636522)">
                                    <mask id="mask-2" fill="white">
                                        <use xlink:href="#path-1"></use>
                                    </mask>
                                    <use id="Mask" fill="#494D5B" fill-rule="nonzero" xlink:href="#path-1"></use>
                                </g>
                                <path d="M152.23637,56.7278482 C156.507136,62.4971456 158.741075,69.3154063 158.741075,76.3959077 C158.741075,84.9842937 155.193054,92.9170778 149.148278,99.3419772 L152.827707,113.044059 L163.997402,113.044059 L175.758434,99.7353384 L178.91223,80.2639594 L179.569271,68.6598043 L167.939647,55.5477646 L152.23637,56.7278482 Z" id="Shape" fill="#373B47" fill-rule="nonzero"></path>
                                <path d="M22.7993183,114.617504 L24.836145,122.681408 C24.836145,122.681408 48.883841,171.917117 103.024009,190.208412 C103.024009,190.208412 152.279707,169.229149 174.159168,133.629961 L143.957655,107.340321 C143.957655,107.340321 129.502756,118.813356 108.01752,118.813356 C86.5322831,118.813356 57.3596683,106.029117 57.3596683,79.6739177 C57.3596683,53.3187178 87.5835484,43.6813686 87.5835484,43.6813686 L74.7055473,40.5344791 L41.7877996,40.5344791 L20.8938998,90.7535912 L22.7993183,114.617504 Z" id="Shape" fill="#373B47" fill-rule="nonzero"></path>
                                <path d="M204.733936,59.270779 C203.814079,58.3529362 180.371104,31.2453703 107.242455,6.1358142 C104.736777,5.16162887 103.483938,4.46531581 103.483938,4.046875 C35.5585038,21.3298791 2.23393897,57 2.23393897,59.270779 C2.23393897,61.5415581 11.9581439,95.6706061 18.2657363,109.569368 C18.791369,110.749452 27.2014922,125.566057 33.4433805,133.629961 C29.7639516,125.566057 25.7560022,118.551115 25.7560022,106.488039 C25.7560022,72.4622958 52.1690454,44.795892 85.2182013,43.6158084 C86.0066504,43.6158084 86.8608035,43.6158084 87.6492525,43.6813686 L79.7647621,35.8141448 C79.7647621,35.8141448 111.499836,30.5037687 152.23637,55.0888432 C152.23637,55.0888432 152.827707,56.334487 152.23637,60.0058581 C152.23637,60.0058581 171.421964,68.2664431 173.064566,84.3286918 C174.707168,100.39094 164.523035,109.569368 156.310024,110.880572 C156.310024,110.880572 160.58079,104.258992 154.010381,100.718741 C152.630595,99.932019 150.987993,99.604218 149.345391,99.6697782 C136.79591,99.6697782 135.35042,113.961902 135.35042,113.961902 C135.219012,114.683064 135.219012,115.404226 135.219012,116.125388 C135.219012,116.125388 133.116481,137.039091 170.436403,136.64573 C170.436403,136.64573 189.35918,115.273105 194.35269,96.0639673 C196.192405,88.9834659 197.506487,83.6730898 198.36064,79.7394779 C200.463171,74.166861 202.499997,65.9579193 204.47112,59.9919412 L204.733936,59.270779 Z" id="Shape" fill="#262831" fill-rule="nonzero"></path>
                                <path d="M136.007461,61.4481824 C136.533094,61.1859417 138.2414,60.3336591 140.212522,58.3012929 C144.154768,58.8257745 148.031309,60.0714183 148.031309,60.0714183 C140.869563,55.7444452 131.079654,53.1875974 120.23848,53.2531576 C120.23848,53.2531576 124.377837,59.1535755 135.876053,61.5793028 C135.876053,61.5793028 135.941757,61.5137426 136.007461,61.4481824 Z" id="Shape" fill="#262831" fill-rule="nonzero" opacity="0.895424107"></path>
                                <path d="M205.456681,56.0411545 C165.902821,21.9452977 115.90201,4.22882309 105.520764,0.819237404 L104.535203,0.484964298 L103.221121,0.0838365711 L100.921478,0.819237404 C90.5402324,4.22882309 40.5394219,21.9452977 0.98556131,56.0411545 L0.131408175,56.7765554 L0.328520437,57.9130839 C0.394224524,58.1805024 4.6649902,84.0532408 19.2512976,113.26871 C27.858533,130.450348 38.3054829,145.358928 50.2636268,157.727033 C64.9156383,172.836178 81.998701,184.0009 100.987182,190.95378 L102.104152,191.354908 L103.221121,191.756036 L104.403795,191.288053 L105.520764,190.886926 C124.509246,183.934045 141.526604,172.769323 156.24432,157.660179 C168.202464,145.358928 178.649414,130.383493 187.256649,113.201856 C201.842956,84.0532408 206.179426,58.1136478 206.179426,57.8462293 L206.376538,56.7097007 L205.456681,56.0411545 Z M183.642924,111.396781 C175.232801,128.177291 165.048667,142.818453 153.35334,154.852285 C138.832737,169.760865 122.01249,180.725023 103.221121,187.47734 C84.4297523,180.725023 67.6095059,169.82772 53.0889026,154.919139 C41.393575,142.885307 31.2094415,128.311 22.7993183,111.53049 C10.1184295,86.2594433 5.38773516,63.5957267 4.40217385,58.3810663 C44.9415958,23.8172271 96.1907839,6.56873483 103.221121,4.29567771 C110.185754,6.56873483 161.500647,23.8172271 202.040069,58.3810663 C201.054507,63.5288721 196.258109,86.1925887 183.642924,111.396781 Z" id="Shape" fill="#262831" fill-rule="nonzero"></path>
                                <path d="M205.846684,55.957318 C166.292823,21.8614611 116.292013,4.14498651 105.910767,0.735400833 L104.925205,0.401127727 L103.611124,0 L101.311481,0.735400833 C90.9302348,4.14498651 40.9294243,21.8614611 1.37556371,55.957318 L0.521410579,56.6927188 L0.718522841,57.8292473 C0.784226929,58.0966658 5.05499261,83.9694042 19.6413,113.184874 C28.2485354,130.366511 38.6954853,145.275092 50.6536292,157.643197 C65.3056407,172.752341 82.3887034,183.917063 101.377185,190.869944 L102.494154,191.271071 L103.611124,191.672199 L104.793797,191.204217 L105.910767,190.803089 C124.899248,183.850208 141.916607,172.685487 156.634322,157.576342 C168.592466,145.275092 179.039416,130.299657 187.646651,113.118019 C202.232959,83.9694042 206.569429,58.0298112 206.569429,57.7623927 L206.766541,56.6258642 L205.846684,55.957318 Z M184.032927,111.312944 C175.622803,128.093454 165.43867,142.734616 153.743342,154.768448 C139.222739,169.677029 122.402493,180.641187 103.611124,187.393503 C84.8197547,180.641187 67.9995083,169.743883 53.478905,154.835303 C41.7835774,142.801471 31.5994439,128.227163 23.1893207,111.446654 C10.5084319,86.1756067 5.77773757,63.5118901 4.79217626,58.2972297 C45.3315982,23.7333905 96.5807863,6.48489826 103.611124,4.21184114 C110.575757,6.48489826 161.890649,23.7333905 202.430071,58.2972297 C201.44451,63.4450355 196.648111,86.1087521 184.032927,111.312944 Z" id="Shape-Copy" stroke="#44C0D3" stroke-width="0.5" stroke-linecap="round" stroke-dasharray="0.8560000547170645" fill-rule="nonzero"></path>
                            </g>
                            <path d="M102.572148,183.914146 C120.633589,183.914146 135.275279,169.300721 135.275279,151.274146 C135.275279,133.247572 120.633589,118.634146 102.572148,118.634146 C84.5107079,118.634146 69.8690176,133.247572 69.8690176,151.274146 C69.8690176,169.300721 84.5107079,183.914146 102.572148,183.914146 Z" id="Oval" stroke="url(#linearGradient-3)" stroke-width="0.5" stroke-dasharray="0.9844001916706588" fill-rule="nonzero"></path>
                        </g>
                        <path d="M102.661113,36.3128172 C111.268772,36.3128172 118.246659,29.3487039 118.246659,20.7580346 C118.246659,12.1673654 111.268772,5.20325203 102.661113,5.20325203 C94.0534534,5.20325203 87.0755668,12.1673654 87.0755668,20.7580346 C87.0755668,29.3487039 94.0534534,36.3128172 102.661113,36.3128172 Z" id="Oval-Copy" stroke="url(#linearGradient-4)" stroke-width="0.5" stroke-dasharray="0.9844001916706588" fill-rule="nonzero"></path>
                        <path d="M21.6466355,80.700928 C30.1297292,80.700928 37.0066355,73.8107208 37.0066355,65.3112195 C37.0066355,56.8117182 30.1297292,49.921511 21.6466355,49.921511 C13.1635417,49.921511 6.28663548,56.8117182 6.28663548,65.3112195 C6.28663548,73.8107208 13.1635417,80.700928 21.6466355,80.700928 Z" id="Oval-Copy-2" stroke="url(#linearGradient-5)" stroke-width="0.5" stroke-dasharray="0.9844001916706588" fill-rule="nonzero" transform="translate(21.646635, 65.311220) rotate(90.000000) translate(-21.646635, -65.311220) "></path>
                        <path d="M183.362831,81.3962438 C192.460642,81.3962438 199.835875,74.0063414 199.835875,64.8904348 C199.835875,55.7745282 192.460642,48.3846258 183.362831,48.3846258 C174.265021,48.3846258 166.889788,55.7745282 166.889788,64.8904348 C166.889788,74.0063414 174.265021,81.3962438 183.362831,81.3962438 Z" id="Oval-Copy-3" stroke="url(#linearGradient-5)" stroke-width="0.5" stroke-dasharray="0.9844001916706588" fill-rule="nonzero" transform="translate(183.362831, 64.890435) rotate(90.000000) translate(-183.362831, -64.890435) "></path>
                    </g>
                </g>
            </g>
        </g>
    </g>
</svg>