<svg width="90" height="213" viewBox="0 0 90 213" fill="none" xmlns="http://www.w3.org/2000/svg">
<path fill-rule="evenodd" clip-rule="evenodd" d="M0.437934 120.273V186.313C0.437934 186.313 0.533145 187.975 2.49459 189.241C4.45604 190.506 6.85204 191.818 6.85204 191.818L40.1683 211.275C40.1683 211.275 42.6454 212.899 45.0389 212.908C47.4325 212.918 49.8234 211.313 49.8234 211.313L83.0629 191.819C83.0629 191.819 86.3146 189.824 87.7764 189.055C89.2381 188.286 89.6399 186.918 89.6399 186.918V121.283C89.6399 121.283 89.4772 122.008 87.8509 122.957C86.5579 123.712 60.132 139.131 49.3545 145.42C46.5542 147.054 43.1256 147.047 40.3312 145.403C29.5626 139.067 3.138 123.519 1.92011 122.799C0.38871 121.893 0.437934 120.273 0.437934 120.273Z" fill="url(#paint0_linear)"/>
<path fill-rule="evenodd" clip-rule="evenodd" d="M40.0955 96.4616C42.8418 94.858 46.2349 94.8407 48.9974 96.4164L87.8834 118.597C90.0616 119.839 90.0616 122.98 87.8834 124.222L48.9974 146.402C46.2349 147.978 42.8418 147.961 40.0955 146.357L2.16011 124.206C0.019841 122.956 0.0198463 119.863 2.16011 118.613L40.0955 96.4616Z" fill="url(#paint1_linear)"/>
<path fill-rule="evenodd" clip-rule="evenodd" d="M0.437934 57.9033V95.2252C0.437934 95.2252 0.533145 96.8859 2.49459 98.1502C4.45604 99.4145 6.85204 100.725 6.85204 100.725L40.1683 120.16C40.1683 120.16 42.6454 121.783 45.0389 121.792C47.4325 121.802 49.8234 120.199 49.8234 120.199L83.0629 100.726C83.0629 100.726 86.3146 98.7326 87.7764 97.9647C89.2381 97.1968 89.6399 95.83 89.6399 95.83V58.9113C89.6399 58.9113 89.4772 59.6356 87.8509 60.5839C86.5577 61.3379 60.1259 76.744 49.3508 83.0244C46.5524 84.6556 43.1274 84.6494 40.3349 83.0081C29.5686 76.6802 3.13813 61.1454 1.92011 60.426C0.38871 59.5216 0.437934 57.9033 0.437934 57.9033Z" fill="url(#paint2_linear)"/>
<path fill-rule="evenodd" clip-rule="evenodd" d="M40.0991 34.1151C42.8436 32.5142 46.2331 32.497 48.9937 34.0699L87.8767 56.2247C90.0567 57.4668 90.0567 60.6092 87.8767 61.8513L48.9937 84.0061C46.2331 85.579 42.8436 85.5618 40.0991 83.9609L2.16661 61.8349C0.0245844 60.5855 0.0245904 57.4905 2.16661 56.2411L40.0991 34.1151Z" fill="url(#paint3_linear)"/>
<path fill-rule="evenodd" clip-rule="evenodd" d="M0.437934 25.8798V34.5377C0.437934 34.5377 0.533145 36.1949 2.49459 37.4565C4.45604 38.7181 6.85204 40.0259 6.85204 40.0259L40.1683 59.4204C40.1683 59.4204 42.6454 61.0393 45.0389 61.0488C47.4325 61.0583 49.8234 59.4588 49.8234 59.4588L83.0629 40.027C83.0629 40.027 86.3146 38.0377 87.7764 37.2714C89.2381 36.5052 89.6399 35.1412 89.6399 35.1412V26.8857C89.6399 26.8857 89.4772 27.6085 87.8509 28.5548C86.5574 29.3073 60.1142 44.6878 49.3437 50.9523C46.5488 52.578 43.131 52.5718 40.342 50.936C29.5802 44.6241 3.1384 29.1153 1.92011 28.3973C0.38871 27.4947 0.437934 25.8798 0.437934 25.8798Z" fill="url(#paint4_linear)"/>
<path fill-rule="evenodd" clip-rule="evenodd" d="M40.106 2.13755C42.847 0.542098 46.2297 0.524952 48.9867 2.09253L87.8638 24.1974C90.0471 25.4388 90.0471 28.5855 87.8638 29.827L48.9867 51.9318C46.2297 53.4994 42.847 53.4822 40.106 51.8868L2.17927 29.8106C0.0338386 28.5618 0.0338344 25.4625 2.17927 24.2137L40.106 2.13755Z" fill="url(#paint5_linear)"/>
<defs>
<linearGradient id="paint0_linear" x1="46.1758" y1="259.226" x2="138.833" y2="167.725" gradientUnits="userSpaceOnUse">
<stop stop-color="#00DBE2"/>
<stop offset="1" stop-color="#01BFE3"/>
</linearGradient>
<linearGradient id="paint1_linear" x1="-13.6549" y1="222.753" x2="85.1605" y2="90.4965" gradientUnits="userSpaceOnUse">
<stop stop-color="#3BF9FF"/>
<stop offset="1" stop-color="#05A1BF"/>
</linearGradient>
<linearGradient id="paint2_linear" x1="46.1758" y1="153.737" x2="106.178" y2="67.8236" gradientUnits="userSpaceOnUse">
<stop stop-color="#00DBE2"/>
<stop offset="1" stop-color="#01BFE3"/>
</linearGradient>
<linearGradient id="paint3_linear" x1="-61.948" y1="224.516" x2="83.1995" y2="26.7742" gradientUnits="userSpaceOnUse">
<stop stop-color="#3BF9FF"/>
<stop offset="1" stop-color="#05A1BF"/>
</linearGradient>
<linearGradient id="paint4_linear" x1="46.1758" y1="78.6333" x2="69.7426" y2="17.3333" gradientUnits="userSpaceOnUse">
<stop stop-color="#00DBE2"/>
<stop offset="1" stop-color="#01BFE3"/>
</linearGradient>
<linearGradient id="paint5_linear" x1="46.1758" y1="79.3017" x2="91.2466" y2="0.452045" gradientUnits="userSpaceOnUse">
<stop stop-color="#3BF9FF"/>
<stop offset="1" stop-color="#05A1BF"/>
</linearGradient>
</defs>
</svg>
