<svg width="241" height="277" viewBox="0 0 241 277" fill="none" xmlns="http://www.w3.org/2000/svg">
<g clip-path="url(#clip0)">
<path fill-rule="evenodd" clip-rule="evenodd" d="M195.09 182.07V233.883L239.81 207.973V156.163L195.09 182.07Z" fill="url(#paint0_linear)"/>
<path fill-rule="evenodd" clip-rule="evenodd" d="M195.09 182.069L239.807 156.165L165.374 112.946L120.656 138.852L195.09 182.069Z" fill="url(#paint1_linear)"/>
<path fill-rule="evenodd" clip-rule="evenodd" d="M120.736 52.5538L165.456 26.6477L120.736 0.740112L76.0229 26.6506L120.736 52.5538Z" fill="url(#paint2_linear)"/>
<path fill-rule="evenodd" clip-rule="evenodd" d="M120.737 52.5538L76.0261 26.6506L75.9458 112.95L120.659 138.855L120.737 52.5538Z" fill="url(#paint3_linear)"/>
<path fill-rule="evenodd" clip-rule="evenodd" d="M120.737 52.5538L165.456 26.6477L165.376 112.95L120.656 138.852L120.737 52.5538Z" fill="url(#paint4_linear)"/>
<path fill-rule="evenodd" clip-rule="evenodd" d="M75.7806 113.038L75.8712 61.1833L46.0544 43.9155L1.33936 69.8202L75.7806 113.038Z" fill="url(#paint5_linear)"/>
<path fill-rule="evenodd" clip-rule="evenodd" d="M195.09 182.07V233.883L120.656 190.661L120.659 138.85L195.09 182.07ZM1.34228 69.8201L1.33936 121.632L31.1474 138.899L75.7806 113.038L1.34228 69.8201Z" fill="url(#paint6_linear)"/>
<path fill-rule="evenodd" clip-rule="evenodd" d="M165.533 113.038L165.446 61.1832L195.122 43.9169L239.836 69.8215L165.533 113.038Z" fill="url(#paint7_linear)"/>
<path fill-rule="evenodd" clip-rule="evenodd" d="M165.533 113.038L210.168 138.899L239.836 121.635L239.834 69.8215L165.533 113.038Z" fill="url(#paint8_linear)"/>
<path fill-rule="evenodd" clip-rule="evenodd" d="M120.74 277.041L165.374 251.186L165.379 216.567L120.656 190.661L120.74 277.041Z" fill="url(#paint9_linear)"/>
<path fill-rule="evenodd" clip-rule="evenodd" d="M46.0631 182.059V233.873L1.34229 207.965L1.34375 156.153L46.0631 182.059Z" fill="url(#paint10_linear)"/>
<path fill-rule="evenodd" clip-rule="evenodd" d="M46.0631 182.059L1.34668 156.156L75.9457 112.947L120.659 138.855L46.0631 182.059Z" fill="url(#paint11_linear)"/>
<path fill-rule="evenodd" clip-rule="evenodd" d="M120.74 277.041L75.937 251.192L75.9487 216.564L120.659 190.661L120.74 277.041Z" fill="url(#paint12_linear)"/>
<path fill-rule="evenodd" clip-rule="evenodd" d="M46.063 182.059V233.873L120.659 190.664L120.656 138.852L46.063 182.059Z" fill="url(#paint13_linear)"/>
</g>
<defs>
<linearGradient id="paint0_linear" x1="177.626" y1="118.573" x2="277.784" y2="181.104" gradientUnits="userSpaceOnUse">
<stop stop-color="#8CBFFF"/>
<stop offset="1" stop-color="#8D53FF"/>
</linearGradient>
<linearGradient id="paint1_linear" x1="74.1253" y1="79.5131" x2="156.578" y2="233.725" gradientUnits="userSpaceOnUse">
<stop stop-color="#65AAFF"/>
<stop offset="1" stop-color="#5D21D4"/>
</linearGradient>
<linearGradient id="paint2_linear" x1="41.0974" y1="-24.3201" x2="102.856" y2="91.3429" gradientUnits="userSpaceOnUse">
<stop stop-color="#65AAFF"/>
<stop offset="1" stop-color="#5D21D4"/>
</linearGradient>
<linearGradient id="paint3_linear" x1="58.4539" y1="-27.618" x2="175.849" y2="23.2306" gradientUnits="userSpaceOnUse">
<stop stop-color="#65AAFF"/>
<stop offset="1" stop-color="#5D21D4"/>
</linearGradient>
<linearGradient id="paint4_linear" x1="103.161" y1="-27.6209" x2="220.572" y2="23.2444" gradientUnits="userSpaceOnUse">
<stop stop-color="#8CBFFF"/>
<stop offset="1" stop-color="#8D53FF"/>
</linearGradient>
<linearGradient id="paint5_linear" x1="-27.767" y1="10.4837" x2="70.1705" y2="125.066" gradientUnits="userSpaceOnUse">
<stop stop-color="#65AAFF"/>
<stop offset="1" stop-color="#440EB0"/>
</linearGradient>
<linearGradient id="paint6_linear" x1="-74.3248" y1="-9.53073" x2="153.948" y2="282.974" gradientUnits="userSpaceOnUse">
<stop stop-color="#65AAFF"/>
<stop offset="1" stop-color="#5D21D4"/>
</linearGradient>
<linearGradient id="paint7_linear" x1="136.395" y1="10.4858" x2="234.359" y2="124.884" gradientUnits="userSpaceOnUse">
<stop stop-color="#65AAFF"/>
<stop offset="1" stop-color="#5D21D4"/>
</linearGradient>
<linearGradient id="paint8_linear" x1="136.516" y1="36.4117" x2="234.426" y2="150.684" gradientUnits="userSpaceOnUse">
<stop stop-color="#8CBFFF"/>
<stop offset="1" stop-color="#8D53FF"/>
</linearGradient>
<linearGradient id="paint9_linear" x1="103.191" y1="148.882" x2="209.004" y2="208.325" gradientUnits="userSpaceOnUse">
<stop stop-color="#8CBFFF"/>
<stop offset="1" stop-color="#8D53FF"/>
</linearGradient>
<linearGradient id="paint10_linear" x1="-16.1222" y1="118.563" x2="84.0367" y2="181.097" gradientUnits="userSpaceOnUse">
<stop stop-color="#65AAFF"/>
<stop offset="1" stop-color="#5D21D4"/>
</linearGradient>
<linearGradient id="paint11_linear" x1="-45.2476" y1="79.5202" x2="37.1211" y2="233.811" gradientUnits="userSpaceOnUse">
<stop stop-color="#65AAFF"/>
<stop offset="1" stop-color="#5D21D4"/>
</linearGradient>
<linearGradient id="paint12_linear" x1="58.4406" y1="148.882" x2="164.353" y2="208.487" gradientUnits="userSpaceOnUse">
<stop stop-color="#65AAFF"/>
<stop offset="1" stop-color="#5D21D4"/>
</linearGradient>
<linearGradient id="paint13_linear" x1="16.9315" y1="92.8937" x2="151.492" y2="207.513" gradientUnits="userSpaceOnUse">
<stop stop-color="#8CBFFF"/>
<stop offset="1" stop-color="#8D53FF"/>
</linearGradient>
<clipPath id="clip0">
<rect width="241" height="277" fill="white"/>
</clipPath>
</defs>
</svg>
