<svg width="197" height="215" viewBox="0 0 197 215" fill="none" xmlns="http://www.w3.org/2000/svg">
<path fill-rule="evenodd" clip-rule="evenodd" d="M115.423 146.083C115.365 151.061 106.621 155.088 95.8432 155.088C85.0654 155.088 76.3215 151.061 76.2631 146.083H76.2628V205.054H76.2638C76.2631 205.084 76.2628 205.114 76.2628 205.144C76.2628 210.145 85.0293 214.199 95.8432 214.199C106.657 214.199 115.424 210.145 115.424 205.144C115.424 205.114 115.423 205.084 115.423 205.054H115.424V146.083H115.423Z" fill="url(#paint0_linear)"/>
<path fill-rule="evenodd" clip-rule="evenodd" d="M95.8432 155.789C106.657 155.789 115.424 151.734 115.424 146.734C115.424 141.733 106.657 137.678 95.8432 137.678C85.0293 137.678 76.2628 141.733 76.2628 146.734C76.2628 151.734 85.0293 155.789 95.8432 155.789Z" fill="#EE4D75"/>
<path fill-rule="evenodd" clip-rule="evenodd" d="M127.844 68.5712C126.322 69.4975 125.515 69.9889 124.183 71.9823C122.722 74.1688 122.5 75.6131 122.372 80.4208C122.245 85.2285 125.366 91.847 125.366 91.847C125.366 91.847 127.357 96.6017 132.843 100.439C138.329 104.277 145.173 102.029 145.173 102.029L181.174 81.6575C181.174 81.6575 181.101 81.679 180.96 81.7086C187.54 79.5856 190.347 70.9701 187.224 61.7347C183.919 51.9622 175.225 45.1963 167.806 46.6226C166.154 46.94 164.705 47.6366 163.487 48.6354C163.699 48.4163 163.828 48.3128 163.828 48.3128C163.828 48.3128 130.14 67.1598 128.307 68.2881C128.145 68.3877 127.991 68.4815 127.844 68.5712Z" fill="url(#paint1_linear)"/>
<path fill-rule="evenodd" clip-rule="evenodd" d="M149.827 82.7191C153.126 92.4972 149.788 101.584 142.373 103.014C134.958 104.444 126.274 97.6772 122.975 87.8991C119.677 78.1209 123.014 69.0346 130.429 67.6042C137.844 66.1737 146.529 72.9409 149.827 82.7191Z" fill="url(#paint2_linear)"/>
<path fill-rule="evenodd" clip-rule="evenodd" d="M15.9299 81.7466C15.8113 81.7176 15.6937 81.686 15.5771 81.6518L51.5611 102.052C56.1209 103.554 60.2277 103.026 63.8815 100.467C67.5353 97.9082 70.0249 95.0431 71.3502 91.8716C73.4276 87.457 74.423 83.6459 74.3366 80.4384C74.207 75.6273 73.9849 74.1818 72.5237 71.9932C71.0626 69.8045 70.2335 69.4245 68.4014 68.2946C67.1799 67.5414 55.3453 60.8733 32.8976 48.2904C33.1123 48.4635 33.3192 48.6507 33.5182 48.8518C32.2441 47.724 30.7002 46.9404 28.9217 46.5973C21.5067 45.1669 12.8218 51.9341 9.5234 61.7123C6.38455 71.0174 9.25477 79.696 15.9299 81.7466Z" fill="url(#paint3_linear)"/>
<path fill-rule="evenodd" clip-rule="evenodd" d="M46.9029 82.7191C43.6045 92.4973 46.9416 101.584 54.3566 103.014C61.7716 104.444 70.4565 97.6773 73.7549 87.8991C77.0533 78.121 73.7162 69.0346 66.3012 67.6042C58.8862 66.1738 50.2013 72.941 46.9029 82.7191Z" fill="url(#paint4_linear)"/>
<path fill-rule="evenodd" clip-rule="evenodd" d="M97.2777 65.1954L134.698 86.8205L97.2777 108.446L59.8576 86.8205L97.2777 65.1954Z" fill="url(#paint5_linear)"/>
<path fill-rule="evenodd" clip-rule="evenodd" d="M97.0884 108.219L134.513 86.6022L134.518 129.844L97.0934 151.46L97.0884 108.219Z" fill="url(#paint6_linear)"/>
<path fill-rule="evenodd" clip-rule="evenodd" d="M97.4744 108.219L97.4695 151.46L60.0444 129.844L60.0494 86.6021L97.4744 108.219Z" fill="url(#paint7_linear)"/>
<path fill-rule="evenodd" clip-rule="evenodd" d="M12.9072 161.593C19.718 169.341 29.2481 170.991 34.1932 165.279C39.1383 159.566 37.6258 148.654 30.8149 140.906C24.0041 133.158 14.474 131.507 9.52889 137.22C4.5838 142.932 6.0963 153.844 12.9072 161.593Z" fill="url(#paint8_linear)"/>
<path fill-rule="evenodd" clip-rule="evenodd" d="M51.3077 112.984L35.4373 122.028L12.9817 134.62C12.9817 134.62 16.7372 133.165 22.8265 135.653C28.9159 138.14 32.8424 143.712 32.8424 143.712C32.8424 143.712 36.4575 149.087 36.4575 156.137C36.4575 163.188 33.1857 166.315 33.1857 166.315L69.9145 144.835C69.9145 144.835 73.0876 140.585 73.0876 134.767C73.0876 128.949 69.9145 123.078 69.9145 123.078C69.9145 123.078 65.7431 117.066 61.5157 114.772C57.2882 112.479 53.4757 112.301 51.3077 112.984Z" fill="url(#paint9_linear)"/>
<path fill-rule="evenodd" clip-rule="evenodd" d="M181.954 160.534C175.144 168.282 165.613 169.932 160.668 164.22C155.723 158.507 157.236 147.595 164.047 139.847C170.858 132.098 180.388 130.448 185.333 136.161C190.278 141.873 188.765 152.785 181.954 160.534Z" fill="url(#paint10_linear)"/>
<path fill-rule="evenodd" clip-rule="evenodd" d="M143.554 111.925L159.424 120.968L181.88 133.561C181.88 133.561 178.124 132.106 172.035 134.593C165.946 137.081 162.019 142.653 162.019 142.653C162.019 142.653 158.404 148.028 158.404 155.078C158.404 162.128 161.676 165.256 161.676 165.256L124.947 143.776C124.947 143.776 121.774 139.526 121.774 133.708C121.774 127.889 124.947 122.019 124.947 122.019C124.947 122.019 129.118 116.006 133.346 113.713C137.573 111.42 141.386 111.242 143.554 111.925Z" fill="url(#paint11_linear)"/>
<path fill-rule="evenodd" clip-rule="evenodd" d="M115.423 8.40485C115.365 13.3827 106.621 17.4098 95.8432 17.4098C85.0654 17.4098 76.3215 13.3827 76.2631 8.40485H76.2628V67.3759H76.2638C76.2631 67.4059 76.2628 67.4359 76.2628 67.4659C76.2628 72.4669 85.0293 76.5209 95.8432 76.5209C106.657 76.5209 115.424 72.4669 115.424 67.4659C115.424 67.4359 115.423 67.4059 115.423 67.3759H115.424V8.40485H115.423Z" fill="url(#paint12_linear)"/>
<path fill-rule="evenodd" clip-rule="evenodd" d="M95.8432 18.8104C106.657 18.8104 115.424 14.7563 115.424 9.75536C115.424 4.7544 106.657 0.700317 95.8432 0.700317C85.0293 0.700317 76.2628 4.7544 76.2628 9.75536C76.2628 14.7563 85.0293 18.8104 95.8432 18.8104Z" fill="#EE4D75"/>
<defs>
<linearGradient id="paint0_linear" x1="76.2628" y1="215.085" x2="115.424" y2="215.085" gradientUnits="userSpaceOnUse">
<stop stop-color="#F5576C"/>
<stop offset="1" stop-color="#F093FB"/>
</linearGradient>
<linearGradient id="paint1_linear" x1="163.616" y1="118.272" x2="197.143" y2="60.2017" gradientUnits="userSpaceOnUse">
<stop stop-color="#F5576C"/>
<stop offset="1" stop-color="#F093FB"/>
</linearGradient>
<linearGradient id="paint2_linear" x1="114.079" y1="90.0355" x2="144.253" y2="107.456" gradientUnits="userSpaceOnUse">
<stop stop-color="#F5576C"/>
<stop offset="1" stop-color="#BD5AC8"/>
</linearGradient>
<linearGradient id="paint3_linear" x1="33.1475" y1="118.277" x2="-0.40093" y2="60.1697" gradientUnits="userSpaceOnUse">
<stop stop-color="#F5576C"/>
<stop offset="1" stop-color="#F093FB"/>
</linearGradient>
<linearGradient id="paint4_linear" x1="30.3816" y1="93.7923" x2="-8.303" y2="53.99" gradientUnits="userSpaceOnUse">
<stop stop-color="#E45165"/>
<stop offset="1" stop-color="#F093FB"/>
</linearGradient>
<linearGradient id="paint5_linear" x1="134.698" y1="108.446" x2="134.698" y2="65.1954" gradientUnits="userSpaceOnUse">
<stop stop-color="#F183D5"/>
<stop offset="1" stop-color="#EEF1F5"/>
</linearGradient>
<linearGradient id="paint6_linear" x1="79.366" y1="141.225" x2="115.775" y2="162.246" gradientUnits="userSpaceOnUse">
<stop stop-color="#F5576C"/>
<stop offset="1" stop-color="#CE75D8"/>
</linearGradient>
<linearGradient id="paint7_linear" x1="78.2713" y1="76.0817" x2="40.8349" y2="97.6956" gradientUnits="userSpaceOnUse">
<stop stop-color="#F5576C"/>
<stop offset="1" stop-color="#BD5AC8"/>
</linearGradient>
<linearGradient id="paint8_linear" x1="37.102" y1="134.271" x2="37.102" y2="169.134" gradientUnits="userSpaceOnUse">
<stop stop-color="#F5576C"/>
<stop offset="1" stop-color="#BD5AC8"/>
</linearGradient>
<linearGradient id="paint9_linear" x1="73.0876" y1="167.013" x2="12.9817" y2="167.013" gradientUnits="userSpaceOnUse">
<stop stop-color="#F5576C"/>
<stop offset="1" stop-color="#F093FB"/>
</linearGradient>
<linearGradient id="paint10_linear" x1="163.819" y1="179.866" x2="215.57" y2="169.135" gradientUnits="userSpaceOnUse">
<stop stop-color="#F5576C"/>
<stop offset="1" stop-color="#F093FB"/>
</linearGradient>
<linearGradient id="paint11_linear" x1="121.774" y1="165.953" x2="181.88" y2="165.953" gradientUnits="userSpaceOnUse">
<stop stop-color="#F5576C"/>
<stop offset="1" stop-color="#F093FB"/>
</linearGradient>
<linearGradient id="paint12_linear" x1="76.2628" y1="77.4063" x2="115.424" y2="77.4063" gradientUnits="userSpaceOnUse">
<stop stop-color="#F5576C"/>
<stop offset="1" stop-color="#F093FB"/>
</linearGradient>
</defs>
</svg>
