<?xml version="1.0" encoding="UTF-8"?>
<svg width="260px" height="305px" viewBox="0 0 260 305" version="1.1" xmlns="http://www.w3.org/2000/svg" xmlns:xlink="http://www.w3.org/1999/xlink">
    <!-- Generator: sketchtool 52.6 (67491) - http://www.bohemiancoding.com/sketch -->
    <title>85640E7F-14CC-4F75-9651-CE696C5DA69C</title>
    <desc>Created with sketchtool.</desc>
    <defs>
        <linearGradient x1="0%" y1="51.2998402%" x2="100%" y2="51.2998402%" id="linearGradient-1">
            <stop stop-color="#F5576C" offset="0%"></stop>
            <stop stop-color="#F093FB" offset="100%"></stop>
        </linearGradient>
        <linearGradient x1="50%" y1="1.29984021%" x2="50%" y2="101.29984%" id="linearGradient-2">
            <stop stop-color="#F5576C" offset="0%"></stop>
            <stop stop-color="#BD5AC8" offset="100%"></stop>
        </linearGradient>
        <linearGradient x1="100%" y1="50%" x2="273.221514%" y2="100%" id="linearGradient-3">
            <stop stop-color="#E45165" offset="0%"></stop>
            <stop stop-color="#F093FB" offset="100%"></stop>
        </linearGradient>
        <linearGradient x1="50%" y1="100%" x2="50%" y2="0%" id="linearGradient-4">
            <stop stop-color="#F183D5" offset="0%"></stop>
            <stop stop-color="#EEF1F5" offset="100%"></stop>
        </linearGradient>
        <linearGradient x1="48.6271676%" y1="2.67267258%" x2="48.6271676%" y2="99.9270078%" id="linearGradient-5">
            <stop stop-color="#F5576C" offset="0%"></stop>
            <stop stop-color="#CE75D8" offset="100%"></stop>
        </linearGradient>
        <linearGradient x1="0%" y1="51.2998402%" x2="167.64516%" y2="11.5412665%" id="linearGradient-6">
            <stop stop-color="#F5576C" offset="0%"></stop>
            <stop stop-color="#F093FB" offset="100%"></stop>
        </linearGradient>
        <linearGradient x1="50%" y1="0%" x2="50%" y2="107.159048%" id="linearGradient-7">
            <stop stop-color="#FFFFFF" stop-opacity="0.334352355" offset="0%"></stop>
            <stop stop-color="#FFFFFF" stop-opacity="0" offset="100%"></stop>
        </linearGradient>
    </defs>
    <g id="Page-1" stroke="none" stroke-width="1" fill="none" fill-rule="evenodd">
        <g id="Developers@2x" transform="translate(-278.000000, -1528.000000)">
            <g id="Group-2" transform="translate(268.000000, 1527.000000)">
                <g id="cylinder" transform="translate(0.547954, 0.592040)">
                    <g id="Group-40">
                        <g id="Group-56">
                            <path d="M164.971278,208.001351 L164.971278,292.206589 C164.970827,292.249351 164.971278,292.292163 164.971278,292.335023 C164.971278,299.475935 152.441681,305.264787 136.985639,305.264787 C121.529597,305.264787 109,299.475935 109,292.335023 C109,292.292163 109.000451,292.249351 109.001352,292.206589 L109,208.001351 C109.083824,215.109324 121.581278,220.859528 136.985639,220.859528 C152.39,220.859528 164.887454,215.109324 164.970858,208.001351 Z" id="Combined-Shape" fill="url(#linearGradient-1)"></path>
                            <path d="M136.985639,221.859528 C152.441681,221.859528 164.971278,216.070676 164.971278,208.929764 C164.971278,201.788853 152.441681,196 136.985639,196 C121.529597,196 109,201.788853 109,208.929764 C109,216.070676 121.529597,221.859528 136.985639,221.859528 Z" id="Oval-2" fill="#EE4D75"></path>
                            <path d="M181.449913,184.071462 C181.498312,181.659803 179.874585,179.23735 176.580703,177.397295 L151.015835,163.116711 C144.550134,159.505017 134.102309,159.505017 127.678607,163.11687 L102.279771,177.397771 C99.0780918,179.197666 97.4812719,181.555038 97.4847172,183.914315 C97.4847172,183.906695 97.484225,183.899076 97.4843891,183.891457 L97.4520688,194.833687 C97.4450141,197.215663 99.0700527,199.601289 102.323575,201.418645 L127.888607,215.699388 C134.353488,219.310606 144.802134,219.311082 151.225835,215.699229 L176.624672,201.418328 C179.815687,199.624147 181.412835,197.275982 181.41989,194.924642 L181.452046,183.982253 C181.451882,184.011937 181.450569,184.041779 181.449913,184.071462 Z" id="Path-Copy-9" fill-opacity="0.05" fill="#FFFFFF"></path>
                            <path d="M231.45782,142.758327 C231.5784,142.884373 231.701513,143.007387 231.827157,143.127367 L180.884417,113.151926 C175.76865,108.580161 173.487277,103.119563 174.040296,96.7701303 C174.593316,90.4206978 176.357177,85.2935778 179.331879,81.3887702 C183.306548,75.6656276 187.307931,71.7125419 191.336028,69.5295129 C197.378174,66.2549694 199.324329,65.4979667 203.075017,65.7439735 C206.825705,65.9899802 207.888165,66.7447677 210.594664,68.2059167 C212.398996,69.180016 229.102163,79.0680047 260.704165,97.8698827 C260.336651,97.7276359 259.957408,97.6051833 259.566437,97.5025248 C261.871618,98.274239 263.943852,99.6258582 265.63909,101.582305 C272.706949,109.739205 270.545177,125.320712 260.810637,136.384575 C251.547035,146.913191 238.763883,149.556608 231.45782,142.758327 Z" id="base" fill="url(#linearGradient-1)" transform="translate(221.877967, 106.103395) rotate(-60.000000) translate(-221.877967, -106.103395) "></path>
                            <path d="M207.751379,135.990768 C198.016839,147.054631 184.395804,149.41119 177.327945,141.25429 C170.260086,133.09739 172.421858,117.515883 182.156398,106.45202 C191.890938,95.3881567 205.511973,93.0315974 212.579832,101.188497 C219.64769,109.345397 217.485918,124.926905 207.751379,135.990768 Z" id="circle" fill="url(#linearGradient-2)" transform="translate(194.953888, 121.221394) rotate(-60.000000) translate(-194.953888, -121.221394) "></path>
                            <path d="M68.8819558,142.758361 C69.0025364,142.884407 69.1256488,143.00742 69.2512932,143.1274 L18.3085533,113.15196 C13.1927866,108.580195 10.9114129,103.119596 11.4644324,96.7701637 C12.0174518,90.4207312 13.7813128,85.2936112 16.7560153,81.3888037 C20.730684,75.6656611 24.732067,71.7125753 28.7601643,69.5295463 C34.8023101,66.2550028 36.7484647,65.4980002 40.4991528,65.7440069 C44.2498409,65.9900137 45.3123014,66.7448012 48.0187997,68.2059501 C49.8231319,69.1800494 66.5262992,79.0680381 98.1283015,97.8699161 C97.7607868,97.7276694 97.3815441,97.6052168 96.9905733,97.5025583 C99.2957539,98.2742724 101.367988,99.6258917 103.063226,101.582338 C110.131085,109.739238 107.969313,125.320745 98.2347735,136.384609 C88.9711712,146.913224 76.188019,149.556641 68.8819558,142.758361 Z" id="base" fill="url(#linearGradient-1)" transform="translate(59.302103, 106.103429) scale(-1, 1) rotate(-60.000000) translate(-59.302103, -106.103429) "></path>
                            <path d="M99.0236723,135.990801 C89.2891326,147.054665 75.6680974,149.411224 68.6002386,141.254324 C61.5323798,133.097424 63.6941518,117.515917 73.4286915,106.452053 C83.1632312,95.3881901 96.7842664,93.0316308 103.852125,101.188531 C110.919984,109.345431 108.758212,124.926938 99.0236723,135.990801 Z" id="circle" fill="url(#linearGradient-3)" transform="translate(86.226182, 121.221427) scale(-1, 1) rotate(-60.000000) translate(-86.226182, -121.221427) "></path>
                            <polygon id="top" fill="url(#linearGradient-4)" points="139.035911 92.5009708 192.519249 123.379602 139.035911 154.258233 85.5525727 123.379602"></polygon>
                            <polygon id="right" fill="url(#linearGradient-5)" transform="translate(165.514117, 169.373426) rotate(-60.000000) translate(-165.514117, -169.373426) " points="165.510575 138.488659 218.986831 169.37956 165.517659 200.258192 112.041403 169.367292"></polygon>
                            <polygon id="left" fill="url(#linearGradient-2)" transform="translate(112.568313, 169.373426) rotate(60.000000) translate(-112.568313, -169.373426) " points="112.571856 138.488659 166.041028 169.367292 112.564771 200.258192 59.0955992 169.37956"></polygon>
                            <path d="M44.0427966,230.147341 C34.3082569,241.211204 20.6872217,243.567763 13.6193629,235.410863 C6.55150409,227.253963 8.71327608,211.672456 18.4478158,200.608593 C28.1823555,189.544729 41.8033907,187.18817 48.8712495,195.34507 C55.9391083,203.50197 53.7773363,219.083477 44.0427966,230.147341 Z" id="circle" fill="url(#linearGradient-2)" transform="translate(31.245306, 215.377967) scale(-1, 1) translate(-31.245306, -215.377967) "></path>
                            <path d="M49.6835191,160.738897 C49.6835191,160.738897 57.2445561,165.043245 72.3666301,173.651941 L104.461788,191.632648 C100.883358,190.247615 96.1930394,190.739183 90.3908322,193.107354 C84.5886249,195.475524 79.8168099,199.311392 76.0753873,204.614959 C72.6307775,209.731602 70.9084726,215.645709 70.9084726,222.357281 C70.9084726,229.068853 72.4672417,233.913136 75.58478,236.890132 L23.0895021,206.219255 C20.0660259,202.173605 18.5542878,197.381422 18.5542878,191.842705 C18.5542878,186.303989 20.0660259,180.740265 23.0895021,175.151536 C27.0641708,169.428393 31.0655538,165.475307 35.0936511,163.292278 C41.1357969,160.017735 46.5849345,159.763232 49.6835191,160.738897 Z" id="base" fill="url(#linearGradient-1)" transform="translate(61.508038, 198.564469) scale(-1, 1) translate(-61.508038, -198.564469) "></path>
                            <path d="M260.061674,228.634903 C250.327134,239.698766 236.706099,242.055325 229.63824,233.898425 C222.570381,225.741525 224.732153,210.160018 234.466693,199.096155 C244.201233,188.032292 257.822268,185.675732 264.890127,193.832632 C271.957986,201.989532 269.796214,217.57104 260.061674,228.634903 Z" id="circle" fill="url(#linearGradient-6)"></path>
                            <path d="M205.176933,159.226459 C205.176933,159.226459 212.73797,163.530807 227.860044,172.139503 L259.955202,190.12021 C256.376772,188.735177 251.686453,189.226746 245.884246,191.594916 C240.082039,193.963086 235.310224,197.798954 231.568801,203.102521 C228.124191,208.219164 226.401886,214.133271 226.401886,220.844843 C226.401886,227.556415 227.960655,232.400699 231.078194,235.377694 L178.582916,204.706817 C175.55944,200.661168 174.047702,195.868984 174.047702,190.330268 C174.047702,184.791551 175.55944,179.227828 178.582916,173.639098 C182.557585,167.915955 186.558968,163.96287 190.587065,161.779841 C196.629211,158.505297 202.078348,158.250794 205.176933,159.226459 Z" id="base" fill="url(#linearGradient-1)"></path>
                            <path d="M181.449913,110.071462 C181.498312,107.659803 179.874585,105.23735 176.580703,103.397295 L151.015835,89.1167115 C144.550134,85.5050167 134.102309,85.5050167 127.678607,89.1168702 L102.279771,103.397771 C99.0780918,105.197666 97.4812719,107.555038 97.4847172,109.914315 C97.4847172,109.906695 97.484225,109.899076 97.4843891,109.891457 L97.4520688,120.833687 C97.4450141,123.215663 99.0700527,125.601289 102.323575,127.418645 L127.888607,141.699388 C134.353488,145.310606 144.802134,145.311082 151.225835,141.699229 L176.624672,127.418328 C179.815687,125.624147 181.412835,123.275982 181.41989,120.924642 L181.452046,109.982253 C181.451882,110.011937 181.450569,110.041779 181.449913,110.071462 Z" id="Path" fill-opacity="0.05" fill="#FFFFFF"></path>
                            <path d="M176.578875,103.376483 C183.046227,106.983402 183.081022,112.831745 176.655029,116.439141 L151.246481,130.702572 C144.820324,134.309968 134.367683,134.309492 127.90033,130.702731 L102.325524,116.439458 C95.8573502,112.832221 95.8233763,106.984195 102.24937,103.3768 L127.657917,89.1135264 C134.084075,85.5061312 144.535895,85.5061312 151.004068,89.1133679 L176.578875,103.376483 Z" id="Path" fill="url(#linearGradient-7)"></path>
                            <path d="M164.971278,11.4093108 L164.971278,95.6145491 C164.970827,95.6573112 164.971278,95.700123 164.971278,95.7429835 C164.971278,102.883895 152.441681,108.672748 136.985639,108.672748 C121.529597,108.672748 109,102.883895 109,95.7429835 C109,95.700123 109.000451,95.6573112 109.001352,95.6145491 L109,11.4093108 C109.083824,18.517284 121.581278,24.2674885 136.985639,24.2674885 C152.39,24.2674885 164.887454,18.517284 164.970858,11.4093108 Z" id="Combined-Shape" fill="url(#linearGradient-1)"></path>
                            <path d="M136.985639,26.2674885 C152.441681,26.2674885 164.971278,20.4786359 164.971278,13.3377244 C164.971278,6.1968128 152.441681,0.407960199 136.985639,0.407960199 C121.529597,0.407960199 109,6.1968128 109,13.3377244 C109,20.4786359 121.529597,26.2674885 136.985639,26.2674885 Z" id="Oval-2" fill="#EE4D75"></path>
                        </g>
                    </g>
                </g>
            </g>
        </g>
    </g>
</svg>