<svg width="246" height="283" viewBox="0 0 246 283" fill="none" xmlns="http://www.w3.org/2000/svg">
<g clip-path="url(#clip0)">
<path fill-rule="evenodd" clip-rule="evenodd" d="M0.318382 71.0715L122.331 141.428L122.291 282.096L0.216797 211.678L0.318382 71.0715ZM91.7826 158.982L30.7641 123.907L30.8119 194.258L91.8871 229.4L91.7826 158.982Z" fill="url(#paint0_linear)"/>
<path fill-rule="evenodd" clip-rule="evenodd" d="M61.3504 176.65L30.812 194.258L91.8872 229.4V194.24L61.3504 176.65Z" fill="url(#paint1_linear)"/>
<path fill-rule="evenodd" clip-rule="evenodd" d="M61.2844 141.351L30.749 123.741L30.8626 194.232L61.3501 176.65L61.2844 141.351Z" fill="url(#paint2_linear)"/>
<path fill-rule="evenodd" clip-rule="evenodd" d="M244.446 211.678L122.37 282.096L122.332 141.428L244.343 71.0715L244.446 211.678ZM152.774 229.4L213.85 194.258L213.897 123.907L152.879 158.982L152.774 229.4Z" fill="url(#paint3_linear)"/>
<path fill-rule="evenodd" clip-rule="evenodd" d="M183.313 176.65L213.85 194.258L152.774 229.4V194.24L183.313 176.65Z" fill="url(#paint4_linear)"/>
<path fill-rule="evenodd" clip-rule="evenodd" d="M183.377 141.351L213.912 123.741L213.8 194.232L183.312 176.65L183.377 141.351Z" fill="url(#paint5_linear)"/>
<path fill-rule="evenodd" clip-rule="evenodd" d="M122.192 0.68042L244.286 71.0611L122.331 141.428L0.318359 71.0745L122.192 0.68042ZM183.392 71.1133L122.381 35.8558L61.3577 70.9894L122.281 106.228L183.392 71.1133Z" fill="url(#paint6_linear)"/>
<path fill-rule="evenodd" clip-rule="evenodd" d="M122.381 71.0745V35.8558L183.392 71.1133L152.903 88.6928L122.381 71.0745Z" fill="url(#paint7_linear)"/>
<path fill-rule="evenodd" clip-rule="evenodd" d="M91.7439 88.6644L61.2085 71.0551L122.385 35.9095L122.381 71.0745L91.7439 88.6644Z" fill="url(#paint8_linear)"/>
</g>
<defs>
<linearGradient id="paint0_linear" x1="217.908" y1="564.151" x2="-132.877" y2="245.599" gradientUnits="userSpaceOnUse">
<stop stop-color="#FFF886"/>
<stop offset="1" stop-color="#E3305B"/>
</linearGradient>
<linearGradient id="paint1_linear" x1="139.69" y1="299.907" x2="65.2639" y2="164.679" gradientUnits="userSpaceOnUse">
<stop stop-color="#FFF886"/>
<stop offset="1" stop-color="#FF6D90"/>
</linearGradient>
<linearGradient id="paint2_linear" x1="85.301" y1="288.451" x2="-24.2517" y2="213.818" gradientUnits="userSpaceOnUse">
<stop stop-color="#FFF886"/>
<stop offset="1" stop-color="#FF4E78"/>
</linearGradient>
<linearGradient id="paint3_linear" x1="340.023" y1="564.151" x2="-10.7627" y2="245.599" gradientUnits="userSpaceOnUse">
<stop stop-color="#FFF886"/>
<stop offset="1" stop-color="#E3305B"/>
</linearGradient>
<linearGradient id="paint4_linear" x1="261.652" y1="299.907" x2="187.226" y2="164.679" gradientUnits="userSpaceOnUse">
<stop stop-color="#FFF886"/>
<stop offset="1" stop-color="#FF4E78"/>
</linearGradient>
<linearGradient id="paint5_linear" x1="237.862" y1="288.451" x2="128.311" y2="213.823" gradientUnits="userSpaceOnUse">
<stop stop-color="#FFF886"/>
<stop offset="1" stop-color="#E3305B"/>
</linearGradient>
<linearGradient id="paint6_linear" x1="435.235" y1="329.552" x2="282.988" y2="-84.5839" gradientUnits="userSpaceOnUse">
<stop stop-color="#FFF886"/>
<stop offset="1" stop-color="#FF6D90"/>
</linearGradient>
<linearGradient id="paint7_linear" x1="217" y1="118" x2="150.571" y2="25.1816" gradientUnits="userSpaceOnUse">
<stop offset="0.25864" stop-color="#FFF886"/>
<stop offset="1" stop-color="#E3305B"/>
</linearGradient>
<linearGradient id="paint8_linear" x1="170.267" y1="159.177" x2="95.898" y2="23.8386" gradientUnits="userSpaceOnUse">
<stop stop-color="#FFF886"/>
<stop offset="1" stop-color="#FF4E78"/>
</linearGradient>
<clipPath id="clip0">
<rect width="245" height="282" fill="white"/>
</clipPath>
</defs>
</svg>
