<?xml version="1.0" encoding="UTF-8"?>
<svg width="666px" height="439px" viewBox="0 0 666 439" version="1.1" xmlns="http://www.w3.org/2000/svg" xmlns:xlink="http://www.w3.org/1999/xlink">
    <!-- Generator: sketchtool 52.6 (67491) - http://www.bohemiancoding.com/sketch -->
    <title>9AF23516-4142-43FF-A10D-728D7479A322</title>
    <desc>Created with sketchtool.</desc>
    <defs>
        <linearGradient x1="0%" y1="100%" x2="100%" y2="-2.55055147%" id="linearGradient-1">
            <stop stop-color="#00DBE2" offset="0%"></stop>
            <stop stop-color="#01BFE3" offset="100%"></stop>
        </linearGradient>
        <linearGradient x1="0%" y1="100%" x2="100%" y2="-2.55055147%" id="linearGradient-2">
            <stop stop-color="#3BF9FF" offset="0%"></stop>
            <stop stop-color="#05A1BF" offset="100%"></stop>
        </linearGradient>
        <linearGradient x1="50%" y1="0%" x2="50%" y2="107.159048%" id="linearGradient-3">
            <stop stop-color="#FFFFFF" stop-opacity="0.334352355" offset="0%"></stop>
            <stop stop-color="#FFFFFF" stop-opacity="0" offset="100%"></stop>
        </linearGradient>
        <linearGradient x1="-90.9363709%" y1="147.728654%" x2="100%" y2="-2.55055147%" id="linearGradient-4">
            <stop stop-color="#3BF9FF" offset="0%"></stop>
            <stop stop-color="#05A1BF" offset="100%"></stop>
        </linearGradient>
        <linearGradient x1="-183.287794%" y1="224.155247%" x2="100%" y2="-2.55055147%" id="linearGradient-5">
            <stop stop-color="#3BF9FF" offset="0%"></stop>
            <stop stop-color="#05A1BF" offset="100%"></stop>
        </linearGradient>
    </defs>
    <g id="Page-1" stroke="none" stroke-width="1" fill="none" fill-rule="evenodd">
        <g id="Developers@2x" transform="translate(-607.000000, -1930.000000)">
            <g id="Group-9-Copy" transform="translate(165.000000, 1930.000000)">
                <g id="Group-41-Copy">
                    <g id="Group-61" transform="translate(442.000000, -32.000000)">
                        <g id="Group-57">
                            <path d="M0.54987885,31.8861574 L0.54987885,42.7183665 C0.629573658,44.1006585 1.49032375,45.3179514 3.13212913,46.3702449 C4.77393451,47.4225384 6.59760537,48.4940808 8.60314172,49.584872 L50.4335319,73.8502307 C52.5069489,75.2004732 54.5454104,75.8795608 56.5489165,75.8874935 C58.5524225,75.8954262 60.5548184,75.2323379 62.5561043,73.8982287 L104.290055,49.586231 C107.011891,47.9269886 108.984584,46.7778019 110.208134,46.1386709 C111.431683,45.49954 112.211624,44.6111394 112.547954,43.4734694 L112.547954,33.1446623 C112.411778,33.7475639 111.663031,34.4436414 110.301715,35.2328948 C109.016306,35.9781391 92.8945423,45.3223381 61.9364248,63.2654917 L61.9364232,63.2654889 C58.4503063,65.2860229 54.1475314,65.2782294 50.6687569,63.2450801 C19.7073242,45.1498526 3.62135054,35.7467711 2.41083601,35.0358357 C1.12899495,34.2830101 0.508675897,33.2331173 0.54987885,31.8861574 Z" id="Path-16" fill="url(#linearGradient-1)"></path>
                            <path d="M61.4659666,2.10248416 L110.318231,29.781372 C112.263103,30.8833047 112.946441,33.3532281 111.844508,35.2981005 C111.483289,35.9356399 110.95577,36.4631586 110.318231,36.8243779 L61.4659666,64.5032658 C58.0272778,66.4515702 53.8133143,66.4302497 50.394516,64.4472499 L2.73607958,36.8040085 C0.802456933,35.6824526 0.144146713,33.2057411 1.26570255,31.2721185 C1.61941201,30.6623043 2.12626544,30.1554509 2.73607958,29.8017414 L50.394516,2.15850005 C53.8133143,0.175500278 58.0272778,0.154179773 61.4659666,2.10248416 Z" id="Rectangle-3" fill="url(#linearGradient-2)"></path>
                            <path d="M564.549879,248.886157 L564.549879,259.718366 C564.629574,261.100659 565.490324,262.317951 567.132129,263.370245 C568.773935,264.422538 570.597605,265.494081 572.603142,266.584872 L614.433532,290.850231 C616.506949,292.200473 618.54541,292.879561 620.548916,292.887493 C622.552423,292.895426 624.554818,292.232338 626.556104,290.898229 L668.290055,266.586231 C671.011891,264.926989 672.984584,263.777802 674.208134,263.138671 C675.431683,262.49954 676.211624,261.611139 676.547954,260.473469 L676.547954,250.144662 C676.411778,250.747564 675.663031,251.443641 674.301715,252.232895 C673.016306,252.978139 656.894542,262.322338 625.936425,280.265492 L625.936423,280.265489 C622.450306,282.286023 618.147531,282.278229 614.668757,280.24508 C583.707324,262.149853 567.621351,252.746771 566.410836,252.035836 C565.128995,251.28301 564.508676,250.233117 564.549879,248.886157 Z" id="Path-16" fill="url(#linearGradient-1)"></path>
                            <path d="M625.465967,219.102484 L674.318231,246.781372 C676.263103,247.883305 676.946441,250.353228 675.844508,252.298101 C675.483289,252.93564 674.95577,253.463159 674.318231,253.824378 L625.465967,281.503266 C622.027278,283.45157 617.813314,283.43025 614.394516,281.44725 L566.73608,253.804008 C564.802457,252.682453 564.144147,250.205741 565.265703,248.272118 C565.619412,247.662304 566.126265,247.155451 566.73608,246.801741 L614.394516,219.1585 C617.813314,217.1755 622.027278,217.15418 625.465967,219.102484 Z" id="Rectangle-3" fill="url(#linearGradient-2)"></path>
                            <path d="M665.545618,228.70349 C665.598626,226.042349 663.820259,223.369297 660.212674,221.338892 L632.213057,205.581007 C625.131574,201.595688 613.688718,201.595688 606.653236,205.581182 L578.835462,221.339418 C575.328861,223.325509 573.579964,225.926746 573.583737,228.530086 C573.583737,228.521679 573.583198,228.513271 573.583378,228.504864 L573.547979,240.579049 C573.540253,243.207436 575.320057,245.839851 578.883439,247.845209 L606.883236,263.60327 C613.96382,267.588063 625.407574,267.588588 632.443057,263.603095 L660.260831,247.844859 C663.755751,245.865074 665.505009,243.273995 665.512735,240.679413 L665.547954,228.605053 C665.547774,228.637807 665.546337,228.670736 665.545618,228.70349 Z" id="Path" fill-opacity="0.05" fill="#FFFFFF"></path>
                            <path d="M660.210671,221.365724 C667.293962,225.356359 667.332071,231.826866 660.294078,235.818027 L632.465669,251.598845 C625.427496,255.590005 613.979366,255.589479 606.896075,251.59902 L578.885573,235.818377 C571.801383,231.827392 571.764173,225.357236 578.802166,221.366075 L606.630575,205.585432 C613.668748,201.594272 625.115979,201.594272 632.200169,205.585257 L660.210671,221.365724 Z" id="Path" fill="url(#linearGradient-3)"></path>
                            <path d="M276.465967,450.102484 L325.318231,477.781372 C327.263103,478.883305 327.946441,481.353228 326.844508,483.298101 C326.483289,483.93564 325.95577,484.463159 325.318231,484.824378 L276.465967,512.503266 C273.027278,514.45157 268.813314,514.43025 265.394516,512.44725 L217.73608,484.804008 C215.802457,483.682453 215.144147,481.205741 216.265703,479.272118 C216.619412,478.662304 217.126265,478.155451 217.73608,477.801741 L265.394516,450.1585 C268.813314,448.1755 273.027278,448.15418 276.465967,450.102484 Z" id="Rectangle-3" fill="url(#linearGradient-2)"></path>
                            <path d="M408.490291,286.117741 L459.507132,315.523411 C461.447262,316.641686 462.113508,319.121014 460.995233,321.061144 C460.638816,321.679504 460.125492,322.192829 459.507132,322.549246 L408.490291,351.954917 C405.008643,353.96171 400.71649,353.939807 397.255503,351.897586 L347.483037,322.528399 C345.55442,321.390382 344.913512,318.904384 346.051529,316.975767 C346.399984,316.385235 346.892504,315.892714 347.483037,315.544259 L397.255503,286.175072 C400.71649,284.132851 405.008643,284.110948 408.490291,286.117741 Z" id="Rectangle-3" fill="url(#linearGradient-2)"></path>
                            <path d="M345.549946,318.505083 L345.549946,405.224518 C345.63243,406.679949 346.523301,407.961649 348.222561,409.06962 C349.92182,410.177592 351.809309,411.30583 353.885027,412.454336 L397.179243,438.003593 C399.325218,439.425277 401.435014,440.140296 403.508632,440.148648 C405.582249,440.157001 407.654717,439.458828 409.726037,438.05413 L452.920439,412.455767 C455.737523,410.708732 457.779249,409.498741 459.045616,408.825794 C460.311983,408.152846 461.119217,407.217439 461.467317,406.019574 L461.467317,319.830177 C461.326375,320.464978 460.551427,321.197886 459.142472,322.028899 C457.733517,322.859912 455.659167,324.082279 452.919424,325.695998 L409.726447,351.148624 C407.578106,352.381764 405.418476,352.984726 403.247556,352.957509 C401.076636,352.930293 398.991586,352.274116 396.992404,350.988979 L353.836582,325.665549 C350.92291,323.89545 348.802724,322.614071 347.476026,321.821413 C346.149328,321.028755 345.507301,319.923312 345.549946,318.505083 Z" id="Path-16" fill="url(#linearGradient-1)"></path>
                            <path d="M347.549879,211.985979 L347.549879,294.610316 C347.629574,295.997018 348.490324,297.218194 350.132129,298.273844 C351.773935,299.329494 353.597605,300.404454 355.603142,301.498725 L397.433532,325.841485 C399.506949,327.196034 401.54541,327.877288 403.548916,327.885246 C405.552423,327.893204 407.554818,327.228001 409.556104,325.889636 L451.290055,301.500088 C454.011891,299.835553 455.984584,298.682701 457.208134,298.041531 C458.431683,297.400361 459.211624,296.509127 459.547954,295.367828 L459.547954,213.248498 C459.411778,213.853323 458.663031,214.551621 457.301715,215.343392 C456.016492,216.090905 439.899212,225.462303 408.949875,243.457586 L408.949874,243.457584 C405.456957,245.488517 401.140917,245.480687 397.655392,243.437095 C366.702695,225.289268 350.621176,215.858805 349.410836,215.145704 C348.128995,214.390477 347.508676,213.337236 347.549879,211.985979 Z" id="Path-16" fill="url(#linearGradient-1)"></path>
                            <path d="M408.479356,182.114912 L457.342798,209.888444 C459.286162,210.993034 459.966122,213.463889 458.861532,215.407253 C458.501298,216.041033 457.976577,216.565754 457.342798,216.925988 L408.479356,244.699519 C405.033831,246.657923 400.806857,246.636503 397.381358,244.643279 L349.712053,216.905537 C347.779984,215.781307 347.1251,213.303687 348.24933,211.371618 C348.601974,210.765575 349.10601,210.261538 349.712053,209.908895 L397.381358,182.171153 C400.806857,180.177929 405.033831,180.156508 408.479356,182.114912 Z" id="Rectangle-3" fill="url(#linearGradient-4)"></path>
                            <path d="M448.997664,197.11145 C449.050672,194.450309 447.272305,191.777258 443.66472,189.746852 L415.665103,173.988967 C408.58362,170.003649 397.140764,170.003649 390.105282,173.989142 L362.287508,189.747378 C358.780907,191.733469 357.032009,194.334707 357.035783,196.938046 C357.035783,196.929639 357.035244,196.921231 357.035423,196.912824 L357.000025,208.987009 C356.992298,211.615396 358.772103,214.247811 362.335485,216.253169 L390.335282,232.01123 C397.415866,235.996023 408.85962,235.996549 415.895103,232.011055 L443.712876,216.252819 C447.207797,214.273034 448.957055,211.681955 448.964781,209.087373 L449,197.013013 C448.99982,197.045767 448.998383,197.078696 448.997664,197.11145 Z" id="Path-Copy" fill-opacity="0.05" fill="#FFFFFF"></path>
                            <path d="M443.662717,189.773684 C450.746008,193.764319 450.784117,200.234826 443.746124,204.225987 L415.917715,220.006805 C408.879542,223.997966 397.431412,223.997439 390.348121,220.00698 L362.337618,204.226338 C355.253429,200.235352 355.216219,193.765196 362.254212,189.774035 L390.082621,173.993392 C397.120793,170.002232 408.568025,170.002232 415.652215,173.993217 L443.662717,189.773684 Z" id="Path-Copy-2" fill="url(#linearGradient-3)"></path>
                            <path d="M347.549879,133.95204 L347.549879,180.647053 C347.629574,182.032256 348.490324,183.252111 350.132129,184.30662 C351.773935,185.361129 353.597605,186.434927 355.603142,187.528015 L397.433532,211.844458 C399.506949,213.197544 401.54541,213.878061 403.548916,213.88601 C405.552423,213.89396 407.554818,213.229475 409.556104,211.892558 L451.290055,187.529377 C454.011891,185.866641 455.984584,184.715035 457.208134,184.074559 C458.431683,183.434082 459.211624,182.543811 459.547954,181.403746 L459.547954,135.213194 C459.411778,135.817365 458.663031,136.514908 457.301715,137.305823 C456.016429,138.052565 439.897626,147.414716 408.945307,165.392277 L408.945307,165.392276 C405.454698,167.419672 401.143167,167.411855 397.659934,165.371814 C366.704268,147.241868 350.621236,137.820713 349.410836,137.108349 C348.128995,136.353938 347.508676,135.301835 347.549879,133.95204 Z" id="Path-16" fill="url(#linearGradient-1)"></path>
                            <path d="M408.474807,104.110683 L457.334462,131.852039 C459.278339,132.955726 459.959447,135.426266 458.85576,137.370143 C458.49519,138.005199 457.969519,138.530871 457.334462,138.891441 L408.474807,166.632796 C405.031603,168.587766 400.809052,168.566379 397.385828,166.576632 L349.720205,138.871017 C347.787608,137.747696 347.13156,135.270385 348.254881,133.337787 C348.607888,132.730463 349.112881,132.225469 349.720205,131.872462 L397.385828,104.166847 C400.809052,102.177101 405.031603,102.155714 408.474807,104.110683 Z" id="Rectangle-3" fill="url(#linearGradient-5)"></path>
                            <path d="M448.997664,119.11145 C449.050672,116.450309 447.272305,113.777258 443.66472,111.746852 L415.665103,95.9889669 C408.58362,92.0036485 397.140764,92.0036485 390.105282,95.9891421 L362.287508,111.747378 C358.780907,113.733469 357.032009,116.334707 357.035783,118.938046 C357.035783,118.929639 357.035244,118.921231 357.035423,118.912824 L357.000025,130.987009 C356.992298,133.615396 358.772103,136.247811 362.335485,138.253169 L390.335282,154.01123 C397.415866,157.996023 408.85962,157.996549 415.895103,154.011055 L443.712876,138.252819 C447.207797,136.273034 448.957055,133.681955 448.964781,131.087373 L449,119.013013 C448.99982,119.045767 448.998383,119.078696 448.997664,119.11145 Z" id="Path-Copy" fill-opacity="0.05" fill="#FFFFFF"></path>
                            <path d="M443.662717,111.773684 C450.746008,115.764319 450.784117,122.234826 443.746124,126.225987 L415.917715,142.006805 C408.879542,145.997966 397.431412,145.997439 390.348121,142.00698 L362.337618,126.226338 C355.253429,122.235352 355.216219,115.765196 362.254212,111.774035 L390.082621,95.9933924 C397.120793,92.0022318 408.568025,92.0022318 415.652215,95.993217 L443.662717,111.773684 Z" id="Path-Copy-2" fill="url(#linearGradient-3)"></path>
                            <path d="M347.549879,93.8861574 L347.549879,104.718366 C347.629574,106.100659 348.490324,107.317951 350.132129,108.370245 C351.773935,109.422538 353.597605,110.494081 355.603142,111.584872 L397.433532,135.850231 C399.506949,137.200473 401.54541,137.879561 403.548916,137.887493 C405.552423,137.895426 407.554818,137.232338 409.556104,135.898229 L451.290055,111.586231 C454.011891,109.926989 455.984584,108.777802 457.208134,108.138671 C458.431683,107.49954 459.211624,106.611139 459.547954,105.473469 L459.547954,95.1446623 C459.411778,95.7475639 458.663031,96.4436414 457.301715,97.2328948 C456.016306,97.9781391 439.894542,107.322338 408.936425,125.265492 L408.936423,125.265489 C405.450306,127.286023 401.147531,127.278229 397.668757,125.24508 C366.707324,107.149853 350.621351,97.7467711 349.410836,97.0358357 C348.128995,96.2830101 347.508676,95.2331173 347.549879,93.8861574 Z" id="Path-16" fill="url(#linearGradient-1)"></path>
                            <path d="M408.465967,64.1024842 L457.318231,91.781372 C459.263103,92.8833047 459.946441,95.3532281 458.844508,97.2981005 C458.483289,97.9356399 457.95577,98.4631586 457.318231,98.8243779 L408.465967,126.503266 C405.027278,128.45157 400.813314,128.43025 397.394516,126.44725 L349.73608,98.8040085 C347.802457,97.6824526 347.144147,95.2057411 348.265703,93.2721185 C348.619412,92.6623043 349.126265,92.1554509 349.73608,91.8017414 L397.394516,64.1585 C400.813314,62.1755003 405.027278,62.1541798 408.465967,64.1024842 Z" id="Rectangle-3" fill="url(#linearGradient-2)"></path>
                            <path d="M448.997664,80.1114504 C449.050672,77.4503093 447.272305,74.7772577 443.66472,72.7468524 L415.665103,56.9889669 C408.58362,53.0036485 397.140764,53.0036485 390.105282,56.9891421 L362.287508,72.7473779 C358.780907,74.7334687 357.032009,77.3347065 357.035783,79.9380462 C357.035783,79.9296387 357.035244,79.9212312 357.035423,79.9128238 L357.000025,91.9870091 C356.992298,94.615396 358.772103,97.2478115 362.335485,99.2531695 L390.335282,115.01123 C397.415866,118.996023 408.85962,118.996549 415.895103,115.011055 L443.712876,99.2528192 C447.207797,97.2730339 448.957055,94.6819552 448.964781,92.0873733 L449,80.0130128 C448.99982,80.045767 448.998383,80.0786962 448.997664,80.1114504 Z" id="Path-Copy" fill-opacity="0.05" fill="#FFFFFF"></path>
                            <path d="M443.662717,72.7736844 C450.746008,76.7643188 450.784117,83.2348261 443.746124,87.2259867 L415.917715,103.006805 C408.879542,106.997966 397.431412,106.997439 390.348121,103.00698 L362.337618,87.2263375 C355.253429,83.2353523 355.216219,76.7651958 362.254212,72.7740352 L390.082621,56.9933924 C397.120793,53.0022318 408.568025,53.0022318 415.652215,56.993217 L443.662717,72.7736844 Z" id="Path-Copy-2" fill="url(#linearGradient-3)"></path>
                        </g>
                    </g>
                </g>
            </g>
        </g>
    </g>
</svg>