<?xml version="1.0" encoding="UTF-8"?>
<svg width="397px" height="371px" viewBox="0 0 397 371" version="1.1" xmlns="http://www.w3.org/2000/svg" xmlns:xlink="http://www.w3.org/1999/xlink">
    <!-- Generator: sketchtool 52.6 (67491) - http://www.bohemiancoding.com/sketch -->
    <title>FA696963-3150-423D-98E5-497CEF24FCD8</title>
    <desc>Created with sketchtool.</desc>
    <defs>
        <ellipse id="path-1" cx="114.704738" cy="115.165862" rx="114.293053" ry="114.280646"></ellipse>
        <linearGradient x1="84.3520221%" y1="0%" x2="50%" y2="105.026425%" id="linearGradient-3">
            <stop stop-color="#5BCFE8" stop-opacity="0" offset="0%"></stop>
            <stop stop-color="#2CB2E1" offset="100%"></stop>
        </linearGradient>
        <linearGradient x1="-6.45380435%" y1="89.9201766%" x2="100%" y2="0%" id="linearGradient-4">
            <stop stop-color="#5BCFE8" stop-opacity="0" offset="0%"></stop>
            <stop stop-color="#2CB2E1" offset="100%"></stop>
        </linearGradient>
        <linearGradient x1="197.851562%" y1="50%" x2="-49.1861979%" y2="50%" id="linearGradient-5">
            <stop stop-color="#5BCFE8" stop-opacity="0" offset="0%"></stop>
            <stop stop-color="#2CB2E1" offset="100%"></stop>
        </linearGradient>
    </defs>
    <g id="Page-1" stroke="none" stroke-width="1" fill="none" fill-rule="evenodd">
        <g id="Developers@2x" transform="translate(-855.000000, -234.000000)">
            <g id="Group-55" transform="translate(0.000000, 58.000000)">
                <g id="Group-60" transform="translate(855.000000, 177.000000)">
                    <g id="Group-59">
                        <g id="Group-58">
                            <g id="Group-31">
                                <g id="concrete-wall" transform="translate(96.995736, 28.129565)">
                                    <mask id="mask-2" fill="white">
                                        <use xlink:href="#path-1"></use>
                                    </mask>
                                    <use id="Mask" fill="#40444F" fill-rule="nonzero" xlink:href="#path-1"></use>
                                </g>
                                <path d="M291.970237,109.023833 C300.161029,120.111702 304.445443,133.215546 304.445443,146.823385 C304.445443,163.32919 297.640785,178.575009 286.047664,190.922862 L293.104347,217.25655 L314.526418,217.25655 L337.0826,191.678854 L343.131185,154.257297 L344.391307,131.955561 L322.08715,106.75586 L291.970237,109.023833 Z" id="Shape" fill="#2B2E37" fill-rule="nonzero"></path>
                                <path d="M43.7262288,220.280515 L47.6326066,235.778331 C47.6326066,235.778331 93.753067,330.403209 197.587109,365.556793 C197.587109,365.556793 292.053351,325.237271 334.01541,256.820081 L276.092701,206.29468 C276.092701,206.29468 248.37002,228.344419 207.164035,228.344419 C165.95805,228.344419 110.008639,203.77471 110.008639,153.12331 C110.008639,102.471911 167.974245,83.9501303 167.974245,83.9501303 L143.275856,77.902202 L80.1437508,77.902202 L40.0718754,174.417058 L43.7262288,220.280515 Z" id="Shape" fill="#2B2E37" fill-rule="nonzero"></path>
                                <path d="M392.653974,113.911028 C390.889804,112.147049 345.929122,60.049696 205.677559,11.7922679 C200.871982,9.92000549 198.469194,8.58177882 198.469194,7.77758789 C68.196744,40.9933614 4.28441435,109.546875 4.28441435,113.911028 C4.28441435,118.275182 22.934218,183.866946 35.0313879,210.57863 C36.0394854,212.846603 52.1690454,241.322265 64.1402031,256.820081 C57.0835206,241.322265 49.3967773,227.840425 49.3967773,204.6567 C49.3967773,139.263475 100.053676,86.092105 163.437806,83.8241318 C164.949953,83.8241318 166.588111,83.8241318 168.100257,83.9501303 L152.978795,68.8303095 C152.978795,68.8303095 213.842681,58.6244305 291.970237,105.87387 C291.970237,105.87387 293.104347,108.267842 291.970237,115.323758 C291.970237,115.323758 328.765796,131.19957 331.9161,162.069204 C335.066405,192.938839 315.534516,210.57863 299.782993,213.0986 C299.782993,213.0986 307.973785,200.37275 295.372566,193.568831 C292.72631,192.056849 289.576005,191.426857 286.425701,191.552855 C262.357373,191.552855 259.585105,219.020529 259.585105,219.020529 C259.333081,220.406513 259.333081,221.792497 259.333081,223.17848 C259.333081,223.17848 255.300691,263.372004 326.875613,262.616013 C326.875613,262.616013 363.167123,221.5405 372.744049,184.622937 C376.27239,171.015098 378.792634,160.809219 380.430792,153.249309 C384.463182,142.539436 388.36956,126.762876 392.149926,115.297012 L392.653974,113.911028 Z" id="Shape" fill="#17181D" fill-rule="nonzero"></path>
                                <path d="M260.845227,118.095726 C261.853324,117.591732 265.129641,115.953751 268.910007,112.047797 C276.470738,113.055785 283.905457,115.449757 283.905457,115.449757 C270.170129,107.133856 251.394313,102.219914 230.602302,102.345912 C230.602302,102.345912 238.54107,113.685778 260.593202,118.347723 C260.593202,118.347723 260.719215,118.221724 260.845227,118.095726 Z" id="Shape" fill="#17181D" fill-rule="nonzero" opacity="0.895424107"></path>
                                <path d="M394.040108,107.704094 C318.180772,42.176119 222.285498,8.12726937 202.375572,1.57447189 L200.485389,0.932040761 L197.965146,0.16112341 L193.554719,1.57447189 C173.644794,8.12726937 77.7495193,42.176119 1.8901828,107.704094 L0.252024374,109.117442 L0.630060934,111.301708 C0.756073121,111.815653 8.94686527,161.539822 36.9215708,217.688303 C53.4291672,250.709262 73.4651049,279.361691 96.399323,303.131642 C124.500041,332.169529 157.263209,353.626729 193.680731,366.989296 L195.822938,367.760214 L197.965146,368.531131 L200.233365,367.631727 L202.375572,366.86081 C238.793094,353.498243 271.430251,332.041043 299.65698,303.003156 C322.591198,279.361691 342.627136,250.580776 359.134733,217.559816 C387.109438,161.539822 395.426242,111.687167 395.426242,111.173222 L395.804279,108.988956 L394.040108,107.704094 Z M352.204062,214.090688 C336.074502,246.340731 316.542613,274.479214 294.112444,297.606735 C266.263751,326.259163 234.004631,347.330904 197.965146,360.308012 C161.92566,347.330904 129.66654,326.387649 101.817847,297.735221 C79.3876777,274.6077 59.8557888,246.597703 43.7262288,214.347661 C19.4058768,165.779868 10.3329993,122.223037 8.44281652,112.201112 C86.1923358,45.7737333 184.481842,12.6242872 197.965146,8.25575559 C211.322437,12.6242872 309.737955,45.7737333 387.487475,112.201112 C385.597292,122.094551 376.398402,165.651381 352.204062,214.090688 Z" id="Shape" fill="#0E0F12" fill-rule="nonzero"></path>
                                <path d="M394.040108,107.704094 C318.180772,42.176119 222.285498,8.12726937 202.375572,1.57447189 L200.485389,0.932040761 L197.965146,0.16112341 L193.554719,1.57447189 C173.644794,8.12726937 77.7495193,42.176119 1.8901828,107.704094 L0.252024374,109.117442 L0.630060934,111.301708 C0.756073121,111.815653 8.94686527,161.539822 36.9215708,217.688303 C53.4291672,250.709262 73.4651049,279.361691 96.399323,303.131642 C124.500041,332.169529 157.263209,353.626729 193.680731,366.989296 L195.822938,367.760214 L197.965146,368.531131 L200.233365,367.631727 L202.375572,366.86081 C238.793094,353.498243 271.430251,332.041043 299.65698,303.003156 C322.591198,279.361691 342.627136,250.580776 359.134733,217.559816 C387.109438,161.539822 395.426242,111.687167 395.426242,111.173222 L395.804279,108.988956 L394.040108,107.704094 Z M352.204062,214.090688 C336.074502,246.340731 316.542613,274.479214 294.112444,297.606735 C266.263751,326.259163 234.004631,347.330904 197.965146,360.308012 C161.92566,347.330904 129.66654,326.387649 101.817847,297.735221 C79.3876777,274.6077 59.8557888,246.597703 43.7262288,214.347661 C19.4058768,165.779868 10.3329993,122.223037 8.44281652,112.201112 C86.1923358,45.7737333 184.481842,12.6242872 197.965146,8.25575559 C211.322437,12.6242872 309.737955,45.7737333 387.487475,112.201112 C385.597292,122.094551 376.398402,165.651381 352.204062,214.090688 Z" id="Shape-Copy" stroke="#44C0D3" stroke-width="1.07000005" stroke-linecap="round" stroke-dasharray="2.140000104904175" fill-rule="nonzero"></path>
                            </g>
                            <path d="M196.720497,353.46 C231.360071,353.46 259.440994,325.374822 259.440994,290.73 C259.440994,256.085178 231.360071,228 196.720497,228 C162.080923,228 134,256.085178 134,290.73 C134,325.374822 162.080923,353.46 196.720497,353.46 Z" id="Oval" stroke="url(#linearGradient-3)" stroke-width="1.07000005" stroke-dasharray="2.461000324726115" fill-rule="nonzero"></path>
                        </g>
                        <path d="M196.89112,69.7886957 C213.399529,69.7886957 226.782239,56.4045402 226.782239,39.8943478 C226.782239,23.3841554 213.399529,10 196.89112,10 C180.38271,10 167,23.3841554 167,39.8943478 C167,56.4045402 180.38271,69.7886957 196.89112,69.7886957 Z" id="Oval-Copy" stroke="url(#linearGradient-4)" stroke-width="1.07000005" stroke-dasharray="2.461000324726115" fill-rule="nonzero"></path>
                        <path d="M41.515528,155.035528 C57.8189738,155.035528 71.035528,141.820976 71.035528,125.52 C71.035528,109.219024 57.8189738,96.004472 41.515528,96.004472 C25.2120821,96.004472 11.995528,109.219024 11.995528,125.52 C11.995528,141.820976 25.2120821,155.035528 41.515528,155.035528 Z" id="Oval-Copy-2" stroke="url(#linearGradient-5)" stroke-width="1.07000005" stroke-dasharray="2.461000324726115" fill-rule="nonzero" transform="translate(41.515528, 125.520000) rotate(90.000000) translate(-41.515528, -125.520000) "></path>
                        <path d="M351.666879,156.367373 C369.151734,156.367373 383.32601,142.194468 383.32601,124.711304 C383.32601,107.22814 369.151734,93.0552359 351.666879,93.0552359 C334.182024,93.0552359 320.007749,107.22814 320.007749,124.711304 C320.007749,142.194468 334.182024,156.367373 351.666879,156.367373 Z" id="Oval-Copy-3" stroke="url(#linearGradient-5)" stroke-width="1.07000005" stroke-dasharray="2.461000324726115" fill-rule="nonzero" transform="translate(351.666879, 124.711304) rotate(90.000000) translate(-351.666879, -124.711304) "></path>
                    </g>
                </g>
            </g>
        </g>
    </g>
</svg>