<?xml version="1.0" encoding="UTF-8"?>
<svg width="38px" height="21px" viewBox="0 0 38 21" version="1.1" xmlns="http://www.w3.org/2000/svg" xmlns:xlink="http://www.w3.org/1999/xlink">
    <!-- Generator: Sketch 53 (72520) - https://sketchapp.com -->
    <title>menu-button-of-three-lines 2</title>
    <desc>Created with Sketch.</desc>
    <g id="Page-1" stroke="none" stroke-width="1" fill="none" fill-rule="evenodd">
        <g id="Group-2" transform="translate(0.000000, -11.000000)" fill="#000000" fill-rule="nonzero">
            <g id="menu-button-of-three-lines-2" transform="translate(0.000000, 11.000000)">
                <g id="menu-button-of-three-lines">
                    <g id="Group-3" transform="translate(0.000000, 0.005784)">
                        <path d="M37.5198464,3.49800898 C37.7841699,3.49800898 38,3.26889521 38,3.0118024 L38,0.486206587 C38,0.218613772 37.7961536,0 37.5198464,0 L0.480153595,0 C0.215892157,0 -3.55271368e-15,0.229113772 -3.55271368e-15,0.486206587 L-3.55271368e-15,3.0118024 C-3.55271368e-15,3.27939521 0.203846405,3.49800898 0.480153595,3.49800898 L37.5198464,3.49800898 L37.5198464,3.49800898 Z" id="Path"></path>
                        <path d="M-3.55271368e-15,11.756982 C-3.55271368e-15,12.0245749 0.203846405,12.2431886 0.480153595,12.2431886 L37.5197843,12.2431886 C37.7840458,12.2431886 37.9999379,12.014012 37.9999379,11.756982 L37.9999379,9.23138623 C37.9999379,8.96203293 37.7960915,8.74517964 37.5197843,8.74517964 L0.480153595,8.74517964 C0.215892157,8.74517964 -3.55271368e-15,8.97435629 -3.55271368e-15,9.23138623 L-3.55271368e-15,11.756982 Z" id="Path"></path>
                        <path d="M-3.55271368e-15,20.5022246 C-3.55271368e-15,20.7698174 0.203846405,20.9884311 0.480153595,20.9884311 L37.5197843,20.9884311 C37.7840458,20.9884311 37.9999379,20.7592545 37.9999379,20.5022246 L37.9999379,17.9766287 C37.9999379,17.7090359 37.7960915,17.490485 37.5197843,17.490485 L0.480153595,17.490485 C0.215892157,17.490485 -3.55271368e-15,17.7195988 -3.55271368e-15,17.9766287 L-3.55271368e-15,20.5022246 Z" id="Path"></path>
                    </g>
                </g>
            </g>
        </g>
    </g>
</svg>