<?xml version="1.0" encoding="UTF-8"?>
<svg width="68px" height="58px" viewBox="0 0 68 58" version="1.1" xmlns="http://www.w3.org/2000/svg" xmlns:xlink="http://www.w3.org/1999/xlink">
    <!-- Generator: sketchtool 52.6 (67491) - http://www.bohemiancoding.com/sketch -->
    <title>2FE697BB-3681-4283-92E0-EABEC8470E5E</title>
    <desc>Created with sketchtool.</desc>
    <defs>
        <linearGradient x1="0%" y1="100%" x2="100%" y2="3.74939946e-31%" id="linearGradient-1">
            <stop stop-color="#F19F73" offset="0%"></stop>
            <stop stop-color="#A74EB5" offset="100%"></stop>
        </linearGradient>
        <linearGradient x1="0%" y1="100%" x2="100%" y2="3.74939946e-31%" id="linearGradient-2">
            <stop stop-color="#FFCF71" offset="0%"></stop>
            <stop stop-color="#24CFDD" offset="100%"></stop>
        </linearGradient>
        <linearGradient x1="137.565237%" y1="-50.8580887%" x2="12.4111148%" y2="139.940619%" id="linearGradient-3">
            <stop stop-color="#FFCF71" offset="0%"></stop>
            <stop stop-color="#10ABB7" offset="100%"></stop>
        </linearGradient>
        <linearGradient x1="50%" y1="0%" x2="50%" y2="107.159048%" id="linearGradient-4">
            <stop stop-color="#FFFFFF" stop-opacity="0.334352355" offset="0%"></stop>
            <stop stop-color="#FFFFFF" stop-opacity="0" offset="100%"></stop>
        </linearGradient>
        <filter x="-14.2%" y="-22.9%" width="128.4%" height="145.8%" filterUnits="objectBoundingBox" id="filter-5">
            <feGaussianBlur stdDeviation="0.8" in="SourceGraphic"></feGaussianBlur>
        </filter>
        <filter x="-17.1%" y="-27.7%" width="134.3%" height="155.3%" filterUnits="objectBoundingBox" id="filter-6">
            <feGaussianBlur stdDeviation="0.8" in="SourceGraphic"></feGaussianBlur>
        </filter>
    </defs>
    <g id="Page-1" stroke="none" stroke-width="1" fill="none" fill-rule="evenodd">
        <g id="Developers@2x" transform="translate(-686.000000, -70.000000)">
            <g id="Group-32" transform="translate(0.000000, 58.000000)">
                <g id="Group-15">
                    <g id="Group-18">
                        <g id="Group-31" transform="translate(686.000000, 12.000000)">
                            <path d="M67.9982734,29.570113 C68.0374531,27.5747452 66.7230078,25.5704466 64.0565312,24.048015 L43.3611562,12.2324905 C38.1270156,9.24423247 29.66925,9.24423247 24.4691094,12.2326218 L3.90814062,24.048409 C1.31630469,25.537613 0.023640625,27.4880643 0.0264296875,29.4400917 C0.0264296875,29.4337876 0.02603125,29.4274835 0.0261640625,29.4211795 L-1.10758028e-17,38.4746043 C-0.0057109375,40.4454126 1.30979687,42.4192415 3.94360156,43.9228922 L24.6391094,55.7385481 C29.8725859,58.7264121 38.3310156,58.7268061 43.5311562,55.7384168 L64.092125,43.9226296 C66.6753281,42.4381537 67.9682578,40.4953197 67.9739687,38.5498591 L68,29.4963029 C67.9998672,29.5208625 67.9988047,29.5455534 67.9982734,29.570113 Z" id="Path" fill="url(#linearGradient-1)"></path>
                            <path d="M64.1181562,34.8692047 L43.5571875,46.6849919 C38.3570469,49.6733812 29.8986172,49.6729872 24.6651406,46.6851233 L3.96963281,34.8694674 C1.33582812,33.3656853 0.0203203125,31.3919877 0.02603125,29.4211795 L-1.10758028e-17,38.4746043 C-0.0057109375,40.4454126 1.30979687,42.4192415 3.94360156,43.9228922 L24.6391094,55.7385481 C29.8725859,58.7264121 38.3310156,58.7268061 43.5311562,55.7384168 L64.092125,43.9226296 C66.6753281,42.4381537 67.9682578,40.4953197 67.9739687,38.5498591 L68,29.4963029 C67.9944219,31.4420262 66.7013594,33.3847288 64.1181562,34.8692047 Z" id="Path" fill="url(#linearGradient-2)"></path>
                            <path d="M64.0565312,24.048015 C69.2900078,27.0360103 69.3181641,31.8808154 64.1181562,34.8692047 L43.5571875,46.6851233 C38.3570469,49.6735126 29.8986172,49.6731186 24.6651406,46.6852546 L3.96963281,34.8694674 C-1.26450781,31.8812094 -1.292,27.036667 3.90800781,24.0482777 L24.4689766,12.2324905 C29.6691172,9.24410113 38.1268828,9.24410113 43.3610234,12.2323591 L64.0565312,24.048015 Z" id="Path" fill="url(#linearGradient-3)"></path>
                            <path d="M22.1703872,10.693248 C22.0847248,10.7361506 21.9997248,10.7805855 21.9153872,10.8272094 C21.915608,10.8272094 21.915608,10.8269905 21.9158287,10.8269905 C21.9999456,10.7803667 22.0847248,10.7361506 22.1703872,10.693248 Z" id="Path" fill="#E0E0E2"></path>
                            <path d="M67.9982734,19.6386061 C68.0374531,17.6432383 66.7230078,15.6389398 64.0565312,14.1165082 L43.3611562,2.30098361 C38.1270156,-0.687274384 29.66925,-0.687274384 24.4691094,2.30111494 L3.90814062,14.1169022 C1.31630469,15.6061061 0.023640625,17.5565575 0.0264296875,19.5085848 C0.0264296875,19.5022807 0.02603125,19.4959767 0.0261640625,19.4896726 L-1.10758028e-17,28.5430975 C-0.0057109375,30.5139057 1.30979687,32.4877346 3.94360156,33.9913854 L24.6391094,45.8070413 C29.8725859,48.7949053 38.3310156,48.7952993 43.5311562,45.8069099 L64.092125,33.9911227 C66.6753281,32.5066468 67.9682578,30.5638129 67.9739687,28.6183523 L68,19.5647961 C67.9998672,19.5893556 67.9988047,19.6140466 67.9982734,19.6386061 Z" id="Path" fill-opacity="0.05" fill="#FFFFFF"></path>
                            <path d="M64.0565312,14.1165082 C69.2900078,17.1045035 69.3181641,21.9493085 64.1181562,24.9376978 L43.5571875,36.7536164 C38.3570469,39.7420057 29.8986172,39.7416117 24.6651406,36.7537477 L3.96963281,24.9379605 C-1.26450781,21.9497025 -1.292,17.1051602 3.90800781,14.1167708 L24.4689766,2.30098361 C29.6691172,-0.687405719 38.1268828,-0.687405719 43.3610234,2.30085227 L64.0565312,14.1165082 Z" id="Path" fill="url(#linearGradient-4)"></path>
                            <path d="M22.1703872,0.761741139 C22.0847248,0.8046438 21.9997248,0.849078698 21.9153872,0.895702508 C21.915608,0.895702508 21.915608,0.895483617 21.9158287,0.895483617 C21.9999456,0.848859807 22.0847248,0.8046438 22.1703872,0.761741139 Z" id="Path" fill="#E0E0E2"></path>
                            <path d="M37.6016741,10.7260274 L27.5560456,10.7260274 L27.5560456,12.1151497 L37.6016741,12.1151497 C41.230087,12.1151497 44.1708824,14.0828728 44.1708824,16.5094316 C44.1708824,18.9357462 41.2303304,20.902452 37.6016741,20.902452 L27.5560456,20.902452 L27.5560456,22.2915743 L37.6016741,22.2915743 C42.3770897,22.2915743 46.2478511,19.702724 46.2478511,16.5094316 C46.2478511,13.3156915 42.3770897,10.7260274 37.6016741,10.7260274 Z" id="Path" stroke="#FFFFFF" stroke-width="0.5"></path>
                            <path d="M29.9716207,17.2182563 L40.0172492,17.2182563 L40.0172492,15.829134 L29.9716207,15.829134 C25.1962052,15.829134 21.3254438,18.4179843 21.3254438,21.6112767 C21.3254438,24.8050168 25.1962052,27.3946809 29.9716207,27.3946809 L40.0172492,27.3946809 L40.0172492,26.0055586 L29.9716207,26.0055586 C26.3432079,26.0055586 23.4024125,24.0373878 23.4024125,21.6112767 C23.4024125,19.1849621 26.3429645,17.2182563 29.9716207,17.2182563 Z" id="Path" stroke="#FFFFFF" stroke-width="0.5"></path>
                            <path d="M37.6016741,10.7260274 L27.5560456,10.7260274 L27.5560456,12.1151497 L37.6016741,12.1151497 C41.230087,12.1151497 44.1708824,14.0828728 44.1708824,16.5094316 C44.1708824,18.9357462 41.2303304,20.902452 37.6016741,20.902452 L27.5560456,20.902452 L27.5560456,22.2915743 L37.6016741,22.2915743 C42.3770897,22.2915743 46.2478511,19.702724 46.2478511,16.5094316 C46.2478511,13.3156915 42.3770897,10.7260274 37.6016741,10.7260274 Z" id="Path" stroke="#FFFFFF" stroke-width="0.5" filter="url(#filter-5)"></path>
                            <path d="M30.0921212,18.9659857 L38.4077818,18.9659857 L38.4077818,17.8154354 L30.0921212,17.8154354 C26.1390849,17.8154354 22.9349112,19.9596688 22.9349112,22.6045357 C22.9349112,25.2497734 26.1390849,27.3946809 30.0921212,27.3946809 L38.4077818,27.3946809 L38.4077818,26.2441306 L30.0921212,26.2441306 C27.088561,26.2441306 24.654203,24.6139793 24.654203,22.6045357 C24.654203,20.5949236 27.0883596,18.9659857 30.0921212,18.9659857 Z" id="Path" stroke="#FFFFFF" stroke-width="0.5" filter="url(#filter-6)"></path>
                        </g>
                    </g>
                </g>
            </g>
        </g>
    </g>
</svg>