<?xml version="1.0" encoding="UTF-8"?>
<svg width="68px" height="58px" viewBox="0 0 68 58" version="1.1" xmlns="http://www.w3.org/2000/svg" xmlns:xlink="http://www.w3.org/1999/xlink">
    <!-- Generator: sketchtool 52.6 (67491) - http://www.bohemiancoding.com/sketch -->
    <title>043ECE7E-5D6C-43FA-ADA8-809F00F8398A</title>
    <desc>Created with sketchtool.</desc>
    <defs>
        <linearGradient x1="0%" y1="100%" x2="100%" y2="3.74939946e-31%" id="linearGradient-1">
            <stop stop-color="#F19F73" offset="0%"></stop>
            <stop stop-color="#A74EB5" offset="100%"></stop>
        </linearGradient>
        <linearGradient x1="122.248641%" y1="-11.8903883%" x2="-4.84884511%" y2="111.606297%" id="linearGradient-2">
            <stop stop-color="#02F0E4" offset="0%"></stop>
            <stop stop-color="#02D5EB" offset="100%"></stop>
        </linearGradient>
        <linearGradient x1="122.248641%" y1="-11.8903883%" x2="-4.84884511%" y2="111.606297%" id="linearGradient-3">
            <stop stop-color="#02F0E4" offset="0%"></stop>
            <stop stop-color="#009BAB" offset="100%"></stop>
        </linearGradient>
        <linearGradient x1="50%" y1="0%" x2="50%" y2="107.159048%" id="linearGradient-4">
            <stop stop-color="#FFFFFF" stop-opacity="0.334352355" offset="0%"></stop>
            <stop stop-color="#FFFFFF" stop-opacity="0" offset="100%"></stop>
        </linearGradient>
        <filter x="-9.2%" y="-19.9%" width="118.4%" height="139.9%" filterUnits="objectBoundingBox" id="filter-5">
            <feGaussianBlur stdDeviation="0.611520042" in="SourceGraphic"></feGaussianBlur>
        </filter>
        <filter x="-9.2%" y="-19.9%" width="118.4%" height="139.9%" filterUnits="objectBoundingBox" id="filter-6">
            <feGaussianBlur stdDeviation="0.611520042" in="SourceGraphic"></feGaussianBlur>
        </filter>
        <filter x="-9.2%" y="-19.9%" width="118.4%" height="139.9%" filterUnits="objectBoundingBox" id="filter-7">
            <feGaussianBlur stdDeviation="0.611520042" in="SourceGraphic"></feGaussianBlur>
        </filter>
    </defs>
    <g id="Page-1" stroke="none" stroke-width="1" fill="none" fill-rule="evenodd">
        <g id="Developers@2x" transform="translate(-495.000000, -70.000000)">
            <g id="Group-32" transform="translate(0.000000, 58.000000)">
                <g id="Group-15">
                    <g id="Group-18">
                        <g id="Group-13" transform="translate(495.000000, 12.000000)">
                            <path d="M67.9982734,29.570113 C68.0374531,27.5747452 66.7230078,25.5704466 64.0565312,24.048015 L43.3611562,12.2324905 C38.1270156,9.24423247 29.66925,9.24423247 24.4691094,12.2326218 L3.90814062,24.048409 C1.31630469,25.537613 0.023640625,27.4880643 0.0264296875,29.4400917 C0.0264296875,29.4337876 0.02603125,29.4274835 0.0261640625,29.4211795 L-1.10758028e-17,38.4746043 C-0.0057109375,40.4454126 1.30979687,42.4192415 3.94360156,43.9228922 L24.6391094,55.7385481 C29.8725859,58.7264121 38.3310156,58.7268061 43.5311562,55.7384168 L64.092125,43.9226296 C66.6753281,42.4381537 67.9682578,40.4953197 67.9739687,38.5498591 L68,29.4963029 C67.9998672,29.5208625 67.9988047,29.5455534 67.9982734,29.570113 Z" id="Path" fill="url(#linearGradient-1)"></path>
                            <path d="M64.1181562,34.8692047 L43.5571875,46.6849919 C38.3570469,49.6733812 29.8986172,49.6729872 24.6651406,46.6851233 L3.96963281,34.8694674 C1.33582812,33.3656853 0.0203203125,31.3919877 0.02603125,29.4211795 L-1.10758028e-17,38.4746043 C-0.0057109375,40.4454126 1.30979687,42.4192415 3.94360156,43.9228922 L24.6391094,55.7385481 C29.8725859,58.7264121 38.3310156,58.7268061 43.5311562,55.7384168 L64.092125,43.9226296 C66.6753281,42.4381537 67.9682578,40.4953197 67.9739687,38.5498591 L68,29.4963029 C67.9944219,31.4420262 66.7013594,33.3847288 64.1181562,34.8692047 Z" id="Path" fill="url(#linearGradient-2)"></path>
                            <path d="M64.0565312,24.048015 C69.2900078,27.0360103 69.3181641,31.8808154 64.1181562,34.8692047 L43.5571875,46.6851233 C38.3570469,49.6735126 29.8986172,49.6731186 24.6651406,46.6852546 L3.96963281,34.8694674 C-1.26450781,31.8812094 -1.292,27.036667 3.90800781,24.0482777 L24.4689766,12.2324905 C29.6691172,9.24410113 38.1268828,9.24410113 43.3610234,12.2323591 L64.0565312,24.048015 Z" id="Path" fill="url(#linearGradient-3)"></path>
                            <path d="M22.1703872,10.693248 C22.0847248,10.7361506 21.9997248,10.7805855 21.9153872,10.8272094 C21.915608,10.8272094 21.915608,10.8269905 21.9158287,10.8269905 C21.9999456,10.7803667 22.0847248,10.7361506 22.1703872,10.693248 Z" id="Path" fill="#E0E0E2"></path>
                            <path d="M67.9982734,19.6386061 C68.0374531,17.6432383 66.7230078,15.6389398 64.0565312,14.1165082 L43.3611562,2.30098361 C38.1270156,-0.687274384 29.66925,-0.687274384 24.4691094,2.30111494 L3.90814062,14.1169022 C1.31630469,15.6061061 0.023640625,17.5565575 0.0264296875,19.5085848 C0.0264296875,19.5022807 0.02603125,19.4959767 0.0261640625,19.4896726 L-1.10758028e-17,28.5430975 C-0.0057109375,30.5139057 1.30979687,32.4877346 3.94360156,33.9913854 L24.6391094,45.8070413 C29.8725859,48.7949053 38.3310156,48.7952993 43.5311562,45.8069099 L64.092125,33.9911227 C66.6753281,32.5066468 67.9682578,30.5638129 67.9739687,28.6183523 L68,19.5647961 C67.9998672,19.5893556 67.9988047,19.6140466 67.9982734,19.6386061 Z" id="Path" fill-opacity="0.05" fill="#FFFFFF"></path>
                            <path d="M64.0565312,14.1165082 C69.2900078,17.1045035 69.3181641,21.9493085 64.1181562,24.9376978 L43.5571875,36.7536164 C38.3570469,39.7420057 29.8986172,39.7416117 24.6651406,36.7537477 L3.96963281,24.9379605 C-1.26450781,21.9497025 -1.292,17.1051602 3.90800781,14.1167708 L24.4689766,2.30098361 C29.6691172,-0.687405719 38.1268828,-0.687405719 43.3610234,2.30085227 L64.0565312,14.1165082 Z" id="Path" fill="url(#linearGradient-4)"></path>
                            <path d="M22.1703872,0.761741139 C22.0847248,0.8046438 21.9997248,0.849078698 21.9153872,0.895702508 C21.915608,0.895702508 21.915608,0.895483617 21.9158287,0.895483617 C21.9999456,0.848859807 22.0847248,0.8046438 22.1703872,0.761741139 Z" id="Path" fill="#E0E0E2"></path>
                            <path d="M28.7582757,20.1387234 L22.6187074,23.6449073 C22.0565124,23.9659655 21.3667183,23.9669332 20.8036248,23.6474535 L14.614857,20.1361627 C14.3211096,19.9695007 14.2180866,19.5962652 14.3847486,19.3025179 C14.4389717,19.2069477 14.5179437,19.1277531 14.6133609,19.0732611 L20.7528698,15.5670343 C21.3150685,15.2459669 22.0048719,15.2449969 22.5679714,15.5644818 L28.756786,19.0758197 C29.0505329,19.2424824 29.153555,19.6157182 28.9868922,19.9094651 C28.9326681,20.0050363 28.8536946,20.0842316 28.7582757,20.1387234 Z" id="Path-Copy-3" stroke="#FFFFFF" stroke-width="0.611520042"></path>
                            <path d="M38.8427919,14.5256063 L45.7653377,18.4627044 C46.2367744,18.7308272 46.3986516,19.3252561 46.1269005,19.7903984 C46.0407694,19.9378247 45.916925,20.0603613 45.7677478,20.1457587 L44.6878947,20.7639271 M35.9837505,25.7466664 C35.0690264,26.2703057 33.9404553,26.2718803 33.0242339,25.7507956 L26.3388611,21.9486085 M25.4649773,17.1388307 C26.6484044,16.461356 28.423545,15.4451439 30.7903991,14.0901944" id="Shape" stroke="#FFFFFF" stroke-width="0.52" opacity="0.229027158" stroke-linecap="round"></path>
                            <path d="M41.9978949,12.2402544 L35.8583266,15.7464383 C35.2961316,16.0674965 34.6063376,16.0684642 34.043244,15.7489846 L27.8544762,12.2376937 C27.5607289,12.0710317 27.4577058,11.6977962 27.6243678,11.4040489 C27.678591,11.3084787 27.757563,11.2292841 27.8529801,11.1747921 L33.9924891,7.66856537 C34.5546878,7.34749797 35.2444911,7.3465279 35.8075906,7.66601278 L41.9964052,11.1773507 C42.2901521,11.3440134 42.3931742,11.7172492 42.2265115,12.0109961 C42.1722874,12.1065673 42.0933138,12.1857626 41.9978949,12.2402544 Z" id="Path-Copy-5" stroke="#FFFFFF" stroke-width="0.52"></path>
                            <path d="M48.1558574,23.7841706 L42.016289,27.2903545 C41.4540941,27.6114127 40.7643,27.6123804 40.2012065,27.2929008 L34.0124386,23.7816099 C33.7186913,23.6149479 33.6156683,23.2417124 33.7823303,22.9479651 C33.8365534,22.8523949 33.9155254,22.7732003 34.0109425,22.7187083 L40.1504515,19.2124816 C40.7126502,18.8914142 41.4024536,18.8904441 41.9655531,19.209929 L48.1543676,22.7212669 C48.4481145,22.8879296 48.5511366,23.2611654 48.3844739,23.5549123 C48.3302498,23.6504835 48.2512763,23.7296788 48.1558574,23.7841706 Z" id="Path-Copy-6" stroke="#FFFFFF" stroke-width="0.52"></path>
                            <path d="M28.7582757,20.1387234 L22.6187074,23.6449073 C22.0565124,23.9659655 21.3667183,23.9669332 20.8036248,23.6474535 L14.614857,20.1361627 C14.3211096,19.9695007 14.2180866,19.5962652 14.3847486,19.3025179 C14.4389717,19.2069477 14.5179437,19.1277531 14.6133609,19.0732611 L20.7528698,15.5670343 C21.3150685,15.2459669 22.0048719,15.2449969 22.5679714,15.5644818 L28.756786,19.0758197 C29.0505329,19.2424824 29.153555,19.6157182 28.9868922,19.9094651 C28.9326681,20.0050363 28.8536946,20.0842316 28.7582757,20.1387234 Z" id="Path-Copy-4" stroke="#FFFFFF" stroke-width="0.52" filter="url(#filter-5)"></path>
                            <path d="M41.9978949,12.2402544 L35.8583266,15.7464383 C35.2961316,16.0674965 34.6063376,16.0684642 34.043244,15.7489846 L27.8544762,12.2376937 C27.5607289,12.0710317 27.4577058,11.6977962 27.6243678,11.4040489 C27.678591,11.3084787 27.757563,11.2292841 27.8529801,11.1747921 L33.9924891,7.66856537 C34.5546878,7.34749797 35.2444911,7.3465279 35.8075906,7.66601278 L41.9964052,11.1773507 C42.2901521,11.3440134 42.3931742,11.7172492 42.2265115,12.0109961 C42.1722874,12.1065673 42.0933138,12.1857626 41.9978949,12.2402544 Z" id="Path-Copy-8" stroke="#FFFFFF" stroke-width="0.52" filter="url(#filter-6)"></path>
                            <path d="M48.1558574,23.7841706 L42.016289,27.2903545 C41.4540941,27.6114127 40.7643,27.6123804 40.2012065,27.2929008 L34.0124386,23.7816099 C33.7186913,23.6149479 33.6156683,23.2417124 33.7823303,22.9479651 C33.8365534,22.8523949 33.9155254,22.7732003 34.0109425,22.7187083 L40.1504515,19.2124816 C40.7126502,18.8914142 41.4024536,18.8904441 41.9655531,19.209929 L48.1543676,22.7212669 C48.4481145,22.8879296 48.5511366,23.2611654 48.3844739,23.5549123 C48.3302498,23.6504835 48.2512763,23.7296788 48.1558574,23.7841706 Z" id="Path-Copy-7" stroke="#FFFFFF" stroke-width="0.52" filter="url(#filter-7)"></path>
                        </g>
                    </g>
                </g>
            </g>
        </g>
    </g>
</svg>