<?xml version="1.0" encoding="UTF-8"?>
<svg width="68px" height="58px" viewBox="0 0 68 58" version="1.1" xmlns="http://www.w3.org/2000/svg" xmlns:xlink="http://www.w3.org/1999/xlink">
    <!-- Generator: sketchtool 52.6 (67491) - http://www.bohemiancoding.com/sketch -->
    <title>991CB947-9F70-4234-B550-F79153D415F2</title>
    <desc>Created with sketchtool.</desc>
    <defs>
        <linearGradient x1="97.3152999%" y1="2.68470014%" x2="0%" y2="100%" id="linearGradient-1">
            <stop stop-color="#FF6056" offset="0%"></stop>
            <stop stop-color="#FF5D5D" offset="100%"></stop>
        </linearGradient>
        <linearGradient x1="3.08887283%" y1="96.9111272%" x2="126.685049%" y2="0%" id="linearGradient-2">
            <stop stop-color="#FEDB5A" offset="0%"></stop>
            <stop stop-color="#FFA8A8" offset="100%"></stop>
        </linearGradient>
        <linearGradient x1="115.230986%" y1="12.0386862%" x2="-5.1575403%" y2="96.9111272%" id="linearGradient-3">
            <stop stop-color="#CAA418" offset="0%"></stop>
            <stop stop-color="#FFA8A8" offset="100%"></stop>
        </linearGradient>
        <linearGradient x1="50%" y1="0%" x2="50%" y2="107.159048%" id="linearGradient-4">
            <stop stop-color="#FFFFFF" stop-opacity="0.334352355" offset="0%"></stop>
            <stop stop-color="#FFFFFF" stop-opacity="0" offset="100%"></stop>
        </linearGradient>
        <filter x="-5.5%" y="-8.9%" width="110.9%" height="117.8%" filterUnits="objectBoundingBox" id="filter-5">
            <feGaussianBlur stdDeviation="0.4" in="SourceGraphic"></feGaussianBlur>
        </filter>
    </defs>
    <g id="Page-1" stroke="none" stroke-width="1" fill="none" fill-rule="evenodd">
        <g id="Developers@2x" transform="translate(-1058.000000, -70.000000)">
            <g id="Group-32" transform="translate(0.000000, 58.000000)">
                <g id="Group-15">
                    <g id="Group-18">
                        <g id="Group-33" transform="translate(1058.000000, 12.000000)">
                            <path d="M67.9982734,29.570113 C68.0374531,27.5747452 66.7230078,25.5704466 64.0565312,24.048015 L43.3611562,12.2324905 C38.1270156,9.24423247 29.66925,9.24423247 24.4691094,12.2326218 L3.90814062,24.048409 C1.31630469,25.537613 0.023640625,27.4880643 0.0264296875,29.4400917 C0.0264296875,29.4337876 0.02603125,29.4274835 0.0261640625,29.4211795 L-1.10758028e-17,38.4746043 C-0.0057109375,40.4454126 1.30979687,42.4192415 3.94360156,43.9228922 L24.6391094,55.7385481 C29.8725859,58.7264121 38.3310156,58.7268061 43.5311562,55.7384168 L64.092125,43.9226296 C66.6753281,42.4381537 67.9682578,40.4953197 67.9739687,38.5498591 L68,29.4963029 C67.9998672,29.5208625 67.9988047,29.5455534 67.9982734,29.570113 Z" id="Path" fill="url(#linearGradient-1)"></path>
                            <path d="M64.1181562,34.8692047 L43.5571875,46.6849919 C38.3570469,49.6733812 29.8986172,49.6729872 24.6651406,46.6851233 L3.96963281,34.8694674 C1.33582812,33.3656853 0.0203203125,31.3919877 0.02603125,29.4211795 L-1.10758028e-17,38.4746043 C-0.0057109375,40.4454126 1.30979687,42.4192415 3.94360156,43.9228922 L24.6391094,55.7385481 C29.8725859,58.7264121 38.3310156,58.7268061 43.5311562,55.7384168 L64.092125,43.9226296 C66.6753281,42.4381537 67.9682578,40.4953197 67.9739687,38.5498591 L68,29.4963029 C67.9944219,31.4420262 66.7013594,33.3847288 64.1181562,34.8692047 Z" id="Path" fill="url(#linearGradient-2)"></path>
                            <path d="M64.0565312,24.048015 C69.2900078,27.0360103 69.3181641,31.8808154 64.1181562,34.8692047 L43.5571875,46.6851233 C38.3570469,49.6735126 29.8986172,49.6731186 24.6651406,46.6852546 L3.96963281,34.8694674 C-1.26450781,31.8812094 -1.292,27.036667 3.90800781,24.0482777 L24.4689766,12.2324905 C29.6691172,9.24410113 38.1268828,9.24410113 43.3610234,12.2323591 L64.0565312,24.048015 Z" id="Path" fill="url(#linearGradient-3)"></path>
                            <path d="M22.1703872,10.693248 C22.0847248,10.7361506 21.9997248,10.7805855 21.9153872,10.8272094 C21.915608,10.8272094 21.915608,10.8269905 21.9158287,10.8269905 C21.9999456,10.7803667 22.0847248,10.7361506 22.1703872,10.693248 Z" id="Path" fill="#E0E0E2"></path>
                            <path d="M67.9982734,19.6386061 C68.0374531,17.6432383 66.7230078,15.6389398 64.0565312,14.1165082 L43.3611562,2.30098361 C38.1270156,-0.687274384 29.66925,-0.687274384 24.4691094,2.30111494 L3.90814062,14.1169022 C1.31630469,15.6061061 0.023640625,17.5565575 0.0264296875,19.5085848 C0.0264296875,19.5022807 0.02603125,19.4959767 0.0261640625,19.4896726 L-1.10758028e-17,28.5430975 C-0.0057109375,30.5139057 1.30979687,32.4877346 3.94360156,33.9913854 L24.6391094,45.8070413 C29.8725859,48.7949053 38.3310156,48.7952993 43.5311562,45.8069099 L64.092125,33.9911227 C66.6753281,32.5066468 67.9682578,30.5638129 67.9739687,28.6183523 L68,19.5647961 C67.9998672,19.5893556 67.9988047,19.6140466 67.9982734,19.6386061 Z" id="Path" fill-opacity="0.05" fill="#FFFFFF"></path>
                            <path d="M64.0565312,14.1165082 C69.2900078,17.1045035 69.3181641,21.9493085 64.1181562,24.9376978 L43.5571875,36.7536164 C38.3570469,39.7420057 29.8986172,39.7416117 24.6651406,36.7537477 L3.96963281,24.9379605 C-1.26450781,21.9497025 -1.292,17.1051602 3.90800781,14.1167708 L24.4689766,2.30098361 C29.6691172,-0.687405719 38.1268828,-0.687405719 43.3610234,2.30085227 L64.0565312,14.1165082 Z" id="Path" fill="url(#linearGradient-4)"></path>
                            <path d="M22.1703872,0.761741139 C22.0847248,0.8046438 21.9997248,0.849078698 21.9153872,0.895702508 C21.915608,0.895702508 21.915608,0.895483617 21.9158287,0.895483617 C21.9999456,0.848859807 22.0847248,0.8046438 22.1703872,0.761741139 Z" id="Path" fill="#E0E0E2"></path>
                            <path d="M47.0769231,15.6463277 C47.0769231,12.928919 43.4852212,10.7260274 39.0546257,10.7260274 C37.041644,10.7260274 35.206633,11.1839193 33.7988166,11.9349973 C32.3897034,11.1839193 30.5559892,10.7260274 28.5430075,10.7260274 C24.1124119,10.7260274 20.5207101,12.928919 20.5207101,15.6463277 C20.5207101,16.8809459 21.2672794,18.0064097 22.4918735,18.869863 C21.2672794,19.7333164 20.5207101,20.8587801 20.5207101,22.0933983 C20.5207101,24.810807 24.1124119,27.0136986 28.5430075,27.0136986 C30.5559892,27.0136986 32.3897034,26.5558067 33.7988166,25.8047287 C35.206633,26.5558067 37.041644,27.0136986 39.0546257,27.0136986 C43.4852212,27.0136986 47.0769231,24.810807 47.0769231,22.0933983 C47.0769231,20.8588199 46.3304186,19.7333561 45.1058893,18.8699425 C46.3306779,18.0065687 47.0769231,16.8806675 47.0769231,15.6463277 Z M32.3312227,24.7714796 C31.3114408,25.315701 29.9972454,25.6563264 28.5430075,25.6563264 C25.3403126,25.6563264 22.7338359,24.057701 22.7338359,22.0933983 C22.7338359,20.1290956 25.3403126,18.5304703 28.5430075,18.5304703 C29.9996443,18.5304703 31.3164979,18.8725273 32.3379007,19.4179416 C31.5176794,20.1885441 31.0326524,21.1045267 31.0326524,22.0933983 C31.0326524,23.0822699 31.5122981,24.0008771 32.3312227,24.7714796 Z M28.5430075,17.1732969 C26.930703,17.1732969 25.4329611,17.467477 24.1751717,17.9697465 C23.2892082,17.3442856 22.7338359,16.5376562 22.7338359,15.6463277 C22.7338359,13.682025 25.3403126,12.0833996 28.5430075,12.0833996 C31.7457023,12.0833996 34.3521791,13.682025 34.3521791,15.6463277 C34.3521791,16.539724 33.7944727,17.3473873 32.9064993,17.9738423 C31.6497472,17.4707377 30.1553119,17.1732969 28.5430075,17.1732969 Z M39.0546257,25.6563264 C35.8519308,25.6563264 33.2454541,24.057701 33.2454541,22.0933983 C33.2454541,21.2000021 33.8031605,20.3923388 34.6911339,19.7658838 C35.9478859,20.2689485 37.4423212,20.5664292 39.0546257,20.5664292 C40.6669301,20.5664292 42.164672,20.272249 43.4224614,19.7699795 C44.3084249,20.3954404 44.8637973,21.2020698 44.8637973,22.0933983 C44.8637973,24.057701 42.2573205,25.6563264 39.0546257,25.6563264 Z M39.0546257,19.2092558 C37.5979889,19.2092558 36.2811352,18.8671988 35.2607698,18.321188 C36.0800186,17.551182 36.5650455,16.6351993 36.5650455,15.6463277 C36.5650455,14.6574561 36.0853999,13.7388489 35.2674478,12.9682067 C36.2861923,12.4239853 37.6014251,12.0833598 39.0546905,12.0833598 C42.2573854,12.0833598 44.8638621,13.6819852 44.8638621,15.6462879 C44.8637973,17.6106304 42.2573205,19.2092558 39.0546257,19.2092558 Z" id="Shape" stroke="#FFFFFF" stroke-width="0.5" fill-rule="nonzero"></path>
                            <path d="M47.0769231,15.6463277 C47.0769231,12.928919 43.4852212,10.7260274 39.0546257,10.7260274 C37.041644,10.7260274 35.206633,11.1839193 33.7988166,11.9349973 C32.3897034,11.1839193 30.5559892,10.7260274 28.5430075,10.7260274 C24.1124119,10.7260274 20.5207101,12.928919 20.5207101,15.6463277 C20.5207101,16.8809459 21.2672794,18.0064097 22.4918735,18.869863 C21.2672794,19.7333164 20.5207101,20.8587801 20.5207101,22.0933983 C20.5207101,24.810807 24.1124119,27.0136986 28.5430075,27.0136986 C30.5559892,27.0136986 32.3897034,26.5558067 33.7988166,25.8047287 C35.206633,26.5558067 37.041644,27.0136986 39.0546257,27.0136986 C43.4852212,27.0136986 47.0769231,24.810807 47.0769231,22.0933983 C47.0769231,20.8588199 46.3304186,19.7333561 45.1058893,18.8699425 C46.3306779,18.0065687 47.0769231,16.8806675 47.0769231,15.6463277 Z M32.3312227,24.7714796 C31.3114408,25.315701 29.9972454,25.6563264 28.5430075,25.6563264 C25.3403126,25.6563264 22.7338359,24.057701 22.7338359,22.0933983 C22.7338359,20.1290956 25.3403126,18.5304703 28.5430075,18.5304703 C29.9996443,18.5304703 31.3164979,18.8725273 32.3379007,19.4179416 C31.5176794,20.1885441 31.0326524,21.1045267 31.0326524,22.0933983 C31.0326524,23.0822699 31.5122981,24.0008771 32.3312227,24.7714796 Z M28.5430075,17.1732969 C26.930703,17.1732969 25.4329611,17.467477 24.1751717,17.9697465 C23.2892082,17.3442856 22.7338359,16.5376562 22.7338359,15.6463277 C22.7338359,13.682025 25.3403126,12.0833996 28.5430075,12.0833996 C31.7457023,12.0833996 34.3521791,13.682025 34.3521791,15.6463277 C34.3521791,16.539724 33.7944727,17.3473873 32.9064993,17.9738423 C31.6497472,17.4707377 30.1553119,17.1732969 28.5430075,17.1732969 Z M39.0546257,25.6563264 C35.8519308,25.6563264 33.2454541,24.057701 33.2454541,22.0933983 C33.2454541,21.2000021 33.8031605,20.3923388 34.6911339,19.7658838 C35.9478859,20.2689485 37.4423212,20.5664292 39.0546257,20.5664292 C40.6669301,20.5664292 42.164672,20.272249 43.4224614,19.7699795 C44.3084249,20.3954404 44.8637973,21.2020698 44.8637973,22.0933983 C44.8637973,24.057701 42.2573205,25.6563264 39.0546257,25.6563264 Z M39.0546257,19.2092558 C37.5979889,19.2092558 36.2811352,18.8671988 35.2607698,18.321188 C36.0800186,17.551182 36.5650455,16.6351993 36.5650455,15.6463277 C36.5650455,14.6574561 36.0853999,13.7388489 35.2674478,12.9682067 C36.2861923,12.4239853 37.6014251,12.0833598 39.0546905,12.0833598 C42.2573854,12.0833598 44.8638621,13.6819852 44.8638621,15.6462879 C44.8637973,17.6106304 42.2573205,19.2092558 39.0546257,19.2092558 Z" id="Shape-Copy-2" stroke="#FFFFFF" stroke-width="0.5" fill-rule="nonzero" filter="url(#filter-5)"></path>
                        </g>
                    </g>
                </g>
            </g>
        </g>
    </g>
</svg>