<?xml version="1.0" encoding="UTF-8"?>
<svg width="68px" height="58px" viewBox="0 0 68 58" version="1.1" xmlns="http://www.w3.org/2000/svg" xmlns:xlink="http://www.w3.org/1999/xlink">
    <!-- Generator: sketchtool 52.6 (67491) - http://www.bohemiancoding.com/sketch -->
    <title>9F9B1EAD-7199-4C01-89BA-46605DFE5D5B</title>
    <desc>Created with sketchtool.</desc>
    <defs>
        <linearGradient x1="0%" y1="100%" x2="100%" y2="3.74939946e-31%" id="linearGradient-1">
            <stop stop-color="#F19F73" offset="0%"></stop>
            <stop stop-color="#A74EB5" offset="100%"></stop>
        </linearGradient>
        <linearGradient x1="0%" y1="94.7478854%" x2="100%" y2="3.74939946e-31%" id="linearGradient-2">
            <stop stop-color="#E87233" offset="0%"></stop>
            <stop stop-color="#A74EB5" offset="100%"></stop>
        </linearGradient>
        <linearGradient x1="50%" y1="0%" x2="50%" y2="107.159048%" id="linearGradient-3">
            <stop stop-color="#FFFFFF" stop-opacity="0.334352355" offset="0%"></stop>
            <stop stop-color="#FFFFFF" stop-opacity="0" offset="100%"></stop>
        </linearGradient>
        <filter x="-7.8%" y="-13.1%" width="115.6%" height="127.4%" filterUnits="objectBoundingBox" id="filter-4">
            <feGaussianBlur stdDeviation="0.629200058" in="SourceGraphic"></feGaussianBlur>
        </filter>
    </defs>
    <g id="Page-1" stroke="none" stroke-width="1" fill="none" fill-rule="evenodd">
        <g id="Developers@2x" transform="translate(-872.000000, -70.000000)">
            <g id="Group-32" transform="translate(0.000000, 58.000000)">
                <g id="Group-15">
                    <g id="Group-18">
                        <g id="Group-32" transform="translate(872.000000, 12.000000)">
                            <path d="M67.9982734,29.570113 C68.0374531,27.5747452 66.7230078,25.5704466 64.0565312,24.048015 L43.3611562,12.2324905 C38.1270156,9.24423247 29.66925,9.24423247 24.4691094,12.2326218 L3.90814062,24.048409 C1.31630469,25.537613 0.023640625,27.4880643 0.0264296875,29.4400917 C0.0264296875,29.4337876 0.02603125,29.4274835 0.0261640625,29.4211795 L-1.10758028e-17,38.4746043 C-0.0057109375,40.4454126 1.30979687,42.4192415 3.94360156,43.9228922 L24.6391094,55.7385481 C29.8725859,58.7264121 38.3310156,58.7268061 43.5311562,55.7384168 L64.092125,43.9226296 C66.6753281,42.4381537 67.9682578,40.4953197 67.9739687,38.5498591 L68,29.4963029 C67.9998672,29.5208625 67.9988047,29.5455534 67.9982734,29.570113 Z" id="Path" fill="url(#linearGradient-1)"></path>
                            <path d="M64.1181562,34.8692047 L43.5571875,46.6849919 C38.3570469,49.6733812 29.8986172,49.6729872 24.6651406,46.6851233 L3.96963281,34.8694674 C1.33582812,33.3656853 0.0203203125,31.3919877 0.02603125,29.4211795 L-1.10758028e-17,38.4746043 C-0.0057109375,40.4454126 1.30979687,42.4192415 3.94360156,43.9228922 L24.6391094,55.7385481 C29.8725859,58.7264121 38.3310156,58.7268061 43.5311562,55.7384168 L64.092125,43.9226296 C66.6753281,42.4381537 67.9682578,40.4953197 67.9739687,38.5498591 L68,29.4963029 C67.9944219,31.4420262 66.7013594,33.3847288 64.1181562,34.8692047 Z" id="Path" fill="url(#linearGradient-1)"></path>
                            <path d="M64.0565312,24.048015 C69.2900078,27.0360103 69.3181641,31.8808154 64.1181562,34.8692047 L43.5571875,46.6851233 C38.3570469,49.6735126 29.8986172,49.6731186 24.6651406,46.6852546 L3.96963281,34.8694674 C-1.26450781,31.8812094 -1.292,27.036667 3.90800781,24.0482777 L24.4689766,12.2324905 C29.6691172,9.24410113 38.1268828,9.24410113 43.3610234,12.2323591 L64.0565312,24.048015 Z" id="Path" fill="url(#linearGradient-2)"></path>
                            <path d="M22.1703872,10.693248 C22.0847248,10.7361506 21.9997248,10.7805855 21.9153872,10.8272094 C21.915608,10.8272094 21.915608,10.8269905 21.9158287,10.8269905 C21.9999456,10.7803667 22.0847248,10.7361506 22.1703872,10.693248 Z" id="Path" fill="#E0E0E2"></path>
                            <g id="Group-50">
                                <path d="M67.9982734,19.6386061 C68.0374531,17.6432383 66.7230078,15.6389398 64.0565313,14.1165082 L43.3611563,2.30098361 C38.1270156,-0.687274384 29.66925,-0.687274384 24.4691094,2.30111494 L3.90814063,14.1169022 C1.31630469,15.6061061 0.023640625,17.5565575 0.0264296875,19.5085848 C0.0264296875,19.5022807 0.02603125,19.4959767 0.0261640625,19.4896726 L8.31660275e-13,28.5430975 C-0.0057109375,30.5139057 1.30979688,32.4877346 3.94360156,33.9913854 L24.6391094,45.8070413 C29.8725859,48.7949053 38.3310156,48.7952993 43.5311563,45.8069099 L64.092125,33.9911227 C66.6753281,32.5066468 67.9682578,30.5638129 67.9739688,28.6183523 L68,19.5647961 C67.9998672,19.5893556 67.9988047,19.6140466 67.9982734,19.6386061 Z" id="Path" fill-opacity="0.05" fill="#FFFFFF"></path>
                                <path d="M64.0565313,14.1165082 C69.2900078,17.1045035 69.3181641,21.9493085 64.1181563,24.9376978 L43.5571875,36.7536164 C38.3570469,39.7420057 29.8986172,39.7416117 24.6651406,36.7537477 L3.96963281,24.9379605 C-1.26450781,21.9497025 -1.292,17.1051602 3.90800781,14.1167708 L24.4689766,2.30098361 C29.6691172,-0.687405719 38.1268828,-0.687405719 43.3610234,2.30085227 L64.0565313,14.1165082 Z" id="Path" fill="url(#linearGradient-3)"></path>
                            </g>
                            <path d="M22.1703872,0.761741139 C22.0847248,0.8046438 21.9997248,0.849078698 21.9153872,0.895702508 C21.915608,0.895702508 21.915608,0.895483617 21.9158287,0.895483617 C21.9999456,0.848859807 22.0847248,0.8046438 22.1703872,0.761741139 Z" id="Path" fill="#E0E0E2"></path>
                            <path d="M38.493208,10.7260274 C32.1961155,10.7260274 27.0925908,13.7646961 27.0925908,17.5124908 L22.5325444,17.5124908 L22.5325444,27.0136986 L30.4316818,22.3114289 C32.4947078,23.5395256 35.3446951,24.299153 38.493208,24.299153 C44.7889645,24.299153 49.8934911,21.2602855 49.8934911,17.5124908 C49.8934911,13.7646961 44.7889645,10.7260274 38.493208,10.7260274 Z M24.8127346,23.7370375 L24.8127346,18.869863 L32.9888882,18.869863 L24.8127346,23.7370375 Z M38.493208,22.9417808 C35.979087,22.9417808 33.6988968,22.3328223 32.0469529,21.3498757 L38.493208,17.5124908 L29.3727811,17.5124908 C29.3727811,14.5190347 33.464298,12.0832008 38.493208,12.0832008 C43.5217839,12.0832008 47.6133009,14.5188359 47.6133009,17.5124908 C47.6133009,20.5061457 43.5217839,22.9417808 38.493208,22.9417808 Z" id="Shape" stroke="#FFFFFF" stroke-width="0.5" fill-rule="nonzero"></path>
                            <path d="M38.493208,10.7260274 C32.1961155,10.7260274 27.0925908,13.7646961 27.0925908,17.5124908 L22.5325444,17.5124908 L22.5325444,27.0136986 L30.4316818,22.3114289 C32.4947078,23.5395256 35.3446951,24.299153 38.493208,24.299153 C44.7889645,24.299153 49.8934911,21.2602855 49.8934911,17.5124908 C49.8934911,13.7646961 44.7889645,10.7260274 38.493208,10.7260274 Z M24.8127346,23.7370375 L24.8127346,18.869863 L32.9888882,18.869863 L24.8127346,23.7370375 Z M38.493208,22.9417808 C35.979087,22.9417808 33.6988968,22.3328223 32.0469529,21.3498757 L38.493208,17.5124908 L29.3727811,17.5124908 C29.3727811,14.5190347 33.464298,12.0832008 38.493208,12.0832008 C43.5217839,12.0832008 47.6133009,14.5188359 47.6133009,17.5124908 C47.6133009,20.5061457 43.5217839,22.9417808 38.493208,22.9417808 Z" id="Shape-Copy" stroke="#FFFFFF" stroke-width="0.5" fill-rule="nonzero" filter="url(#filter-4)"></path>
                        </g>
                    </g>
                </g>
            </g>
        </g>
    </g>
</svg>