<?xml version="1.0" encoding="UTF-8"?>
<svg width="48px" height="45px" viewBox="0 0 48 45" version="1.1" xmlns="http://www.w3.org/2000/svg" xmlns:xlink="http://www.w3.org/1999/xlink">
    <!-- Generator: Sketch 53 (72520) - https://sketchapp.com -->
    <title>Group 33</title>
    <desc>Created with Sketch.</desc>
    <defs>
        <linearGradient x1="33.9636867%" y1="62.3350424%" x2="50%" y2="45.4632218%" id="linearGradient-1">
            <stop stop-color="#FFFFFF" offset="0%"></stop>
            <stop stop-color="#FFFFFF" offset="100%"></stop>
        </linearGradient>
        <linearGradient x1="50%" y1="0%" x2="15.0427453%" y2="120.489101%" id="linearGradient-2">
            <stop stop-color="#FFFFFF" offset="0%"></stop>
            <stop stop-color="#FFFFFF" offset="100%"></stop>
        </linearGradient>
        <linearGradient x1="50%" y1="-9.6984053%" x2="50%" y2="100%" id="linearGradient-3">
            <stop stop-color="#FFFFFF" stop-opacity="0" offset="0%"></stop>
            <stop stop-color="#FFFFFF" offset="100%"></stop>
        </linearGradient>
    </defs>
    <g id="Page-1" stroke="none" stroke-width="1" fill="none" fill-rule="evenodd">
        <g id="Developers@2x" transform="translate(-696.000000, -7.000000)">
            <g id="Group-33" transform="translate(697.000000, 8.000000)">
                <g id="Group">
                    <path d="M33.5423608,13.2327881 C32.9216522,13.0719501 32.3361804,12.9457094 31.7859453,12.8540661 C31.5527746,13.1160551 31.2052995,13.3575102 30.7435198,13.5784313 C29.2702542,13.2067741 28.0715442,12.5764621 27.1473898,11.6874954 C29.5186962,11.5062555 31.6503533,12.0213531 33.5423608,13.2327881 Z" id="Path-2" fill="url(#linearGradient-1)" fill-rule="nonzero"></path>
                    <path d="M37.7445618,31.5291406 C37.4281692,31.4785736 37.0582538,31.4187348 36.7260243,31.363978 C35.9830388,31.2415219 35.4749414,31.1526477 35.2922189,31.1103047 C31.8449665,30.3114581 30.1591024,28.6467606 30.3484809,26.1422761 C30.5084144,24.0271957 31.4853439,22.6835095 32.9104835,22.2470125 C34.1188817,21.8768999 35.4572486,22.2744189 35.9095641,23.1516577 C36.1327065,23.6427809 36.1942374,24.1789533 36.0977014,24.7544937 C38.1732064,23.6050271 39.1927749,22.0401154 39.1927866,20.0395781 C39.1677122,17.3222366 37.632444,15.1706598 34.5438512,13.5615365 L34.3824641,13.4774556 L34.3824641,12.2881559 C28.8015577,9.02501623 23.5032161,7.55532249 18.4837771,7.87141018 C19.1102476,8.51394881 19.5503147,8.95774844 19.8028098,9.20168354 L20.3082545,9.68999283 L19.6059873,9.71721616 C14.6640712,9.90878916 10.9059661,11.8474282 8.30361528,15.541133 C5.69745597,19.2402435 4.99139495,23.4426733 6.15232325,28.0920289 C8.83656821,32.5851819 10.9524197,35.4823726 12.4807545,36.7698264 C16.4957216,40.1519942 21.8768977,42.9256939 22.9053378,42.677957 C29.7021047,40.4178353 34.6440032,36.7023728 37.7445618,31.5291406 Z" id="Path-3" stroke="url(#linearGradient-2)" stroke-width="0.6"></path>
                    <path d="M35.4998138,14.2126309 C35.5889787,14.4021457 35.4269457,14.0557996 35.4998138,14.244884 C36.4906573,16.816011 35.9833591,19.3514646 34.2089552,21.9632027 C34.1511579,22.0482744 34.0815062,22.0440151 34,21.9504251 C35.9163509,19.1776003 36.3298352,16.5861396 35.2077446,14 L35.4998138,14.2126309 Z M35.5088863,14.2689813 C36.4829597,16.8242674 35.98265,19.3447094 34.2336793,21.9398719 C34.1393467,22.0798447 34.3352414,21.8595753 34.2336793,22 L34,21.9636416 C35.9163509,19.1862074 36.3298352,16.5904387 35.2077446,14 C35.3583706,14.0478015 35.4587512,14.1374619 35.5088863,14.2689813 Z" id="Path-4" stroke="#FFFFFF" stroke-width="0.5" fill="url(#linearGradient-3)" fill-rule="nonzero"></path>
                    <path d="M30.5866017,25.2335878 L30.7019565,25.4009066 C28.4920773,26.7473399 25.8498556,27.2505229 22.7752915,26.9104557 C15.9666029,26.1573694 12.7363928,22.2970593 12.7363928,17.2411603 C12.7363928,13.8705609 15.05177,11.2626876 19.6825245,9.41754035 L19.7577823,9.60593053 C15.1968504,11.4232567 12.9394833,13.9657916 12.9394833,17.2411603 C12.9394833,22.4729055 16.399865,26.0012208 22.7976468,26.708858 C25.8250064,27.0437042 28.4190383,26.5510403 30.5866017,25.2335878 Z M30.7019565,25.4009066 C28.4920773,26.7473399 25.8498556,27.2505229 22.7752915,26.9104557 C15.9666029,26.1573694 12.7363928,22.2970593 12.7363928,17.2411603 C12.7363928,13.8705609 15.05177,11.2626876 19.6825245,9.41754035 L19.7577823,9.60593053 C15.1968504,11.4232567 12.9394833,13.9657916 12.9394833,17.2411603 C12.9394833,22.4729055 16.399865,26.0012208 22.7976468,26.708858 C25.8250064,27.0437042 28.4190383,26.5510403 30.5866017,25.2335878 L30.7019565,25.4009066 Z" id="Path-5" stroke="#FFFFFF" stroke-width="0.4" fill-rule="nonzero" transform="translate(21.719175, 18.215427) rotate(3.000000) translate(-21.719175, -18.215427) "></path>
                    <g id="Group-34" fill="#FFFFFF" fill-rule="nonzero" stroke="#FFFFFF" stroke-width="0.5">
                        <path d="M23.1563556,42.6229936 L22.9654657,42.9532416 C22.8330924,42.8859699 22.9290577,42.9247833 22.8672112,42.9055622 C11.5834484,39.3987102 3.97201363,29.2914579 0.030137828,12.6106918 L0.0879689726,12.4347262 C6.59753079,6.90606887 14.2526386,2.77223839 23.0518437,0.0333920398 L23.1575934,0.372268338 C14.4405598,3.08553795 6.85553615,7.17301744 0.401092321,12.6348621 C4.34516056,29.2314836 11.9311807,39.2184749 23.1563556,42.6229936 Z" id="Path-6"></path>
                        <path d="M45.9790724,42.6229936 L45.8757982,42.9626306 C34.4897121,39.5093086 26.8163359,29.3828853 22.8528546,12.6106918 L22.9106858,12.4347262 C29.4202476,6.90606887 36.9845878,2.77204889 45.7837929,0.0332025492 L45.9803102,0.372268338 C37.2632766,3.08553795 29.6782529,7.17301744 23.2238091,12.6348621 C27.1678773,29.2314836 34.7538975,39.2184749 45.9790724,42.6229936 Z" id="Path-6-Copy" transform="translate(34.416582, 21.497917) scale(-1, 1) translate(-34.416582, -21.497917) "></path>
                    </g>
                </g>
            </g>
        </g>
    </g>
</svg>