<?xml version="1.0" encoding="UTF-8"?>
<svg width="52px" height="49px" viewBox="0 0 52 49" version="1.1" xmlns="http://www.w3.org/2000/svg" xmlns:xlink="http://www.w3.org/1999/xlink">
    <!-- Generator: sketchtool 52.6 (67491) - http://www.bohemiancoding.com/sketch -->
    <title>CA1952A5-0BF8-499C-B0DA-0650D5C94494</title>
    <desc>Created with sketchtool.</desc>
    <defs>
        <linearGradient x1="33.9636867%" y1="185.944956%" x2="50%" y2="0%" id="linearGradient-1">
            <stop stop-color="#FFFFFF" offset="0%"></stop>
            <stop stop-color="#FFFFFF" offset="100%"></stop>
        </linearGradient>
        <linearGradient x1="50%" y1="0%" x2="12.3792587%" y2="120.489101%" id="linearGradient-2">
            <stop stop-color="#FFFFFF" offset="0%"></stop>
            <stop stop-color="#FFFFFF" offset="100%"></stop>
        </linearGradient>
        <linearGradient x1="50%" y1="-9.6984053%" x2="50%" y2="100%" id="linearGradient-3">
            <stop stop-color="#FFFFFF" stop-opacity="0" offset="0%"></stop>
            <stop stop-color="#FFFFFF" offset="100%"></stop>
        </linearGradient>
        <linearGradient x1="50%" y1="0%" x2="50%" y2="100%" id="linearGradient-4">
            <stop stop-color="#FFFFFF" stop-opacity="0.124773551" offset="0%"></stop>
            <stop stop-color="#FFFFFF" offset="100%"></stop>
        </linearGradient>
        <filter x="-10.9%" y="-11.6%" width="121.7%" height="123.3%" filterUnits="objectBoundingBox" id="filter-5">
            <feOffset dx="0" dy="0" in="SourceAlpha" result="shadowOffsetOuter1"></feOffset>
            <feGaussianBlur stdDeviation="1" in="shadowOffsetOuter1" result="shadowBlurOuter1"></feGaussianBlur>
            <feColorMatrix values="0 0 0 0 1   0 0 0 0 1   0 0 0 0 1  0 0 0 0.698935688 0" type="matrix" in="shadowBlurOuter1" result="shadowMatrixOuter1"></feColorMatrix>
            <feMerge>
                <feMergeNode in="shadowMatrixOuter1"></feMergeNode>
                <feMergeNode in="SourceGraphic"></feMergeNode>
            </feMerge>
        </filter>
    </defs>
    <g id="Page-1" stroke="none" stroke-width="1" fill="none" fill-rule="evenodd">
        <g id="Developers@2x-Copy" transform="translate(-694.000000, -5.000000)">
            <g id="Group-33" transform="translate(697.000000, 8.000000)">
                <g id="Group">
                    <path d="M30.7165154,13.3133833 C30.6900041,13.3266198 30.6630417,13.339796 30.6356281,13.3529111 L30.8046709,13.3360256 C30.77517,13.3285835 30.7457849,13.321036 30.7165154,13.3133833 Z M27.7765117,11.9056831 C27.6174717,11.7794342 27.4655418,11.6466458 27.3207031,11.5073219 L27.1664418,11.9367684 C27.3716813,11.9210818 27.575036,11.91072 27.7765117,11.9056831 Z M31.7722733,12.5983452 C32.3363544,12.8247684 32.881383,13.1064257 33.407554,13.4433281 L33.6050698,12.9907807 C32.9774505,12.828152 32.3847992,12.7003633 31.8270177,12.6074631 L31.7722733,12.5983452 Z" id="Path-2" stroke="url(#linearGradient-1)" stroke-width="0.5"></path>
                    <path d="M33.2545497,30.4489973 C31.1877581,29.5293337 30.2012268,28.0896756 30.3484809,26.1422761 C30.5084144,24.0271957 31.4853439,22.6835095 32.9104835,22.2470125 C34.1188817,21.8768999 35.4572486,22.2744189 35.9095641,23.1516577 C36.1327065,23.6427809 36.1942374,24.1789533 36.0977014,24.7544937 C38.1732064,23.6050271 39.1927749,22.0401154 39.1927866,20.0395781 C39.1677122,17.3222366 37.632444,15.1706598 34.5438512,13.5615365 L34.3824641,13.4774556 L34.3824641,12.2881559 C28.8015577,9.02501623 23.5032161,7.55532249 18.4837771,7.87141018 C19.1102476,8.51394881 19.5503147,8.95774844 19.8028098,9.20168354 L20.3082545,9.68999283 L19.6059873,9.71721616 C14.6640712,9.90878916 10.9059661,11.8474282 8.30361528,15.541133 C5.73532408,19.1864945 5.01231458,23.320655 6.1347974,27.9666021 L33.2545497,30.4489973 Z" id="Path-3" stroke="url(#linearGradient-2)" stroke-width="0.6"></path>
                    <path d="M35.4998138,14.2126309 C35.5889787,14.4021457 35.4269457,14.0557996 35.4998138,14.244884 C36.4906573,16.816011 35.9833591,19.3514646 34.2089552,21.9632027 C34.1511579,22.0482744 34.0815062,22.0440151 34,21.9504251 C35.9163509,19.1776003 36.3298352,16.5861396 35.2077446,14 L35.4998138,14.2126309 Z M35.5088863,14.2689813 C36.4829597,16.8242674 35.98265,19.3447094 34.2336793,21.9398719 C34.1393467,22.0798447 34.3352414,21.8595753 34.2336793,22 L34,21.9636416 C35.9163509,19.1862074 36.3298352,16.5904387 35.2077446,14 C35.3583706,14.0478015 35.4587512,14.1374619 35.5088863,14.2689813 Z" id="Path-4" stroke="#FFFFFF" stroke-width="0.5" fill="url(#linearGradient-3)" fill-rule="nonzero"></path>
                    <path d="M30.5866017,25.2335878 L30.7019565,25.4009066 C28.4920773,26.7473399 25.8498556,27.2505229 22.7752915,26.9104557 C15.9666029,26.1573694 12.7363928,22.2970593 12.7363928,17.2411603 C12.7363928,13.8705609 15.05177,11.2626876 19.6825245,9.41754035 L19.7577823,9.60593053 C15.1968504,11.4232567 12.9394833,13.9657916 12.9394833,17.2411603 C12.9394833,22.4729055 16.399865,26.0012208 22.7976468,26.708858 C25.8250064,27.0437042 28.4190383,26.5510403 30.5866017,25.2335878 Z M30.7019565,25.4009066 C28.4920773,26.7473399 25.8498556,27.2505229 22.7752915,26.9104557 C15.9666029,26.1573694 12.7363928,22.2970593 12.7363928,17.2411603 C12.7363928,13.8705609 15.05177,11.2626876 19.6825245,9.41754035 L19.7577823,9.60593053 C15.1968504,11.4232567 12.9394833,13.9657916 12.9394833,17.2411603 C12.9394833,22.4729055 16.399865,26.0012208 22.7976468,26.708858 C25.8250064,27.0437042 28.4190383,26.5510403 30.5866017,25.2335878 L30.7019565,25.4009066 Z" id="Path-5" stroke="#FFFFFF" stroke-width="0.5" fill="url(#linearGradient-4)" fill-rule="nonzero"></path>
                    <g id="Group-34" fill="#FFFFFF" fill-rule="nonzero" stroke="#FFFFFF" stroke-width="0.5">
                        <path d="M23.1563556,42.6229936 L22.9654657,42.9532416 C22.8330924,42.8859699 22.9290577,42.9247833 22.8672112,42.9055622 C11.5834484,39.3987102 3.97201363,29.2914579 0.030137828,12.6106918 L0.0879689726,12.4347262 C6.59753079,6.90606887 14.2526386,2.77223839 23.0518437,0.0333920398 L23.1575934,0.372268338 C14.4405598,3.08553795 6.85553615,7.17301744 0.401092321,12.6348621 C4.34516056,29.2314836 11.9311807,39.2184749 23.1563556,42.6229936 Z" id="Path-6"></path>
                        <path d="M45.9790724,42.6229936 L45.8757982,42.9626306 C34.4897121,39.5093086 26.8163359,29.3828853 22.8528546,12.6106918 L22.9106858,12.4347262 C29.4202476,6.90606887 36.9845878,2.77204889 45.7837929,0.0332025492 L45.9803102,0.372268338 C37.2632766,3.08553795 29.6782529,7.17301744 23.2238091,12.6348621 C27.1678773,29.2314836 34.7538975,39.2184749 45.9790724,42.6229936 Z" id="Path-6-Copy" transform="translate(34.416582, 21.497917) scale(-1, 1) translate(-34.416582, -21.497917) "></path>
                    </g>
                    <g id="Group-34" filter="url(#filter-5)" fill="#FFFFFF" fill-rule="nonzero" stroke="#FFFFFF" stroke-width="0.5">
                        <path d="M23.1563556,42.6229936 L22.9654657,42.9532416 C22.8330924,42.8859699 22.9290577,42.9247833 22.8672112,42.9055622 C11.5834484,39.3987102 3.97201363,29.2914579 0.030137828,12.6106918 L0.0879689726,12.4347262 C6.59753079,6.90606887 14.2526386,2.77223839 23.0518437,0.0333920398 L23.1575934,0.372268338 C14.4405598,3.08553795 6.85553615,7.17301744 0.401092321,12.6348621 C4.34516056,29.2314836 11.9311807,39.2184749 23.1563556,42.6229936 Z" id="Path-6"></path>
                        <path d="M45.9790724,42.6229936 L45.8757982,42.9626306 C34.4897121,39.5093086 26.8163359,29.3828853 22.8528546,12.6106918 L22.9106858,12.4347262 C29.4202476,6.90606887 36.9845878,2.77204889 45.7837929,0.0332025492 L45.9803102,0.372268338 C37.2632766,3.08553795 29.6782529,7.17301744 23.2238091,12.6348621 C27.1678773,29.2314836 34.7538975,39.2184749 45.9790724,42.6229936 Z" id="Path-6-Copy" transform="translate(34.416582, 21.497917) scale(-1, 1) translate(-34.416582, -21.497917) "></path>
                    </g>
                    <path d="M34.2715232,30.678066 C34.2715232,30.678066 35.6885951,31.1702363 38.1392669,31.3017094" id="Path-7" stroke="#FFFFFF" stroke-width="0.5"></path>
                </g>
            </g>
        </g>
    </g>
</svg>