<svg width="14" height="13" viewBox="0 0 20 18" fill="none" xmlns="http://www.w3.org/2000/svg">
<path d="M11.539 17.7293C11.1733 18.0902 10.5977 18.0902 10.232 17.7293C9.87869 17.3805 9.87869 16.8001 10.232 16.4521L16.8592 9.91012L0.928151 9.91012C0.418368 9.91012 7.42207e-07 9.51014 7.86201e-07 9.00691C8.30195e-07 8.50368 0.41837 8.09069 0.928151 8.09069L16.8592 8.09069L10.232 1.56091C9.87869 1.19995 9.87869 0.618671 10.232 0.270719C10.5977 -0.0902394 11.1733 -0.0902393 11.539 0.270719L19.735 8.36141C20.0883 8.71018 20.0883 9.29064 19.735 9.63859L11.539 17.7293Z" fill="#08BEE5"/>
</svg>
