<?xml version="1.0" encoding="UTF-8"?>
<svg width="136px" height="116px" viewBox="0 0 136 116" version="1.1" xmlns="http://www.w3.org/2000/svg" xmlns:xlink="http://www.w3.org/1999/xlink">
    <!-- Generator: Sketch 52.6 (67491) - http://www.bohemiancoding.com/sketch -->
    <title>Group 13 Copy 2</title>
    <desc>Created with Sketch.</desc>
    <defs>
        <linearGradient x1="0%" y1="100%" x2="100%" y2="3.74939946e-31%" id="linearGradient-1">
            <stop stop-color="#F19F73" offset="0%"></stop>
            <stop stop-color="#A74EB5" offset="100%"></stop>
        </linearGradient>
        <linearGradient x1="122.248641%" y1="-11.8903883%" x2="-4.84884511%" y2="111.606297%" id="linearGradient-2">
            <stop stop-color="#02F0E4" offset="0%"></stop>
            <stop stop-color="#02D5EB" offset="100%"></stop>
        </linearGradient>
        <linearGradient x1="122.248641%" y1="-11.8903883%" x2="-4.84884511%" y2="111.606297%" id="linearGradient-3">
            <stop stop-color="#02F0E4" offset="0%"></stop>
            <stop stop-color="#009BAB" offset="100%"></stop>
        </linearGradient>
        <linearGradient x1="50%" y1="12.1851043%" x2="50%" y2="107.159048%" id="linearGradient-4">
            <stop stop-color="#0DD0D0" offset="0%"></stop>
            <stop stop-color="#0EBEC4" offset="100%"></stop>
        </linearGradient>
        <linearGradient x1="50%" y1="-46.8881893%" x2="50%" y2="107.159048%" id="linearGradient-5">
            <stop stop-color="#FFFFFF" offset="0%"></stop>
            <stop stop-color="#38CED1" offset="100%"></stop>
        </linearGradient>
    </defs>
    <g id="Page-1" stroke="none" stroke-width="1" fill="none" fill-rule="evenodd">
        <g id="Group-13-Copy-2">
            <path d="M135.996547,59.140226 C136.074906,55.1494904 133.446016,51.1408933 128.113063,48.09603 L86.7223125,24.4649809 C76.2540313,18.4884649 59.3385,18.4884649 48.9382188,24.4652436 L7.81628125,48.096818 C2.63260938,51.0752259 0.04728125,54.9761286 0.052859375,58.8801833 C0.052859375,58.8675752 0.0520625,58.8549671 0.052328125,58.8423589 L2.20702772e-12,76.9492087 C-0.011421875,80.8908251 2.61959375,84.838483 7.88720313,87.8457845 L49.2782188,111.477096 C59.7451719,117.452824 76.6620313,117.453612 87.0623125,111.476834 L128.18425,87.8452592 C133.350656,84.8763074 135.936516,80.9906395 135.947938,77.0997182 L136,58.9926058 C135.999734,59.041725 135.997609,59.0911068 135.996547,59.140226 Z" id="Path" fill="url(#linearGradient-1)"></path>
            <path d="M128.236313,69.7384094 L87.114375,93.3699838 C76.7140938,99.3467625 59.7972344,99.3459745 49.3302813,93.3702465 L7.93926563,69.7389347 C2.67165625,66.7313705 0.040640625,62.7839754 0.0520625,58.8423589 L2.20702772e-12,76.9492087 C-0.011421875,80.8908251 2.61959375,84.838483 7.88720313,87.8457845 L49.2782188,111.477096 C59.7451719,117.452824 76.6620313,117.453612 87.0623125,111.476834 L128.18425,87.8452592 C133.350656,84.8763074 135.936516,80.9906395 135.947938,77.0997182 L136,58.9926058 C135.988844,62.8840524 133.402719,66.7694576 128.236313,69.7384094 Z" id="Path" fill="url(#linearGradient-2)"></path>
            <path d="M128.113063,48.09603 C138.580016,54.0720207 138.636328,63.7616307 128.236312,69.7384094 L87.114375,93.3702465 C76.7140937,99.3470252 59.7972344,99.3462371 49.3302812,93.3705092 L7.93926562,69.7389347 C-2.52901563,63.7624187 -2.584,54.073334 7.81601562,48.0965554 L48.9379531,24.4649809 C59.3382344,18.4882023 76.2537656,18.4882023 86.7220469,24.4647182 L128.113063,48.09603 Z" id="Path" fill="url(#linearGradient-3)"></path>
            <path d="M44.3407744,21.386496 C44.1694497,21.4723013 43.9994497,21.5611711 43.8307744,21.6544187 C43.8312159,21.6544187 43.8312159,21.6539809 43.8316575,21.6539809 C43.9998912,21.5607333 44.1694497,21.4723013 44.3407744,21.386496 Z" id="Path" fill="#E0E0E2"></path>
            <path d="M135.996547,39.2772123 C136.074906,35.2864767 133.446016,31.2778796 128.113063,28.2330163 L86.7223125,4.60196721 C76.2540313,-1.37454877 59.3385,-1.37454877 48.9382188,4.60222988 L7.81628125,28.2338043 C2.63260938,31.2122122 0.04728125,35.1131149 0.052859375,39.0171696 C0.052859375,39.0045615 0.0520625,38.9919534 0.052328125,38.9793452 L2.20702772e-12,57.086195 C-0.011421875,61.0278114 2.61959375,64.9754693 7.88720313,67.9827708 L49.2782188,91.6140826 C59.7451719,97.5898105 76.6620313,97.5905985 87.0623125,91.6138199 L128.18425,67.9822455 C133.350656,65.0132937 135.936516,61.1276258 135.947938,57.2367045 L136,39.1295921 C135.999734,39.1787113 135.997609,39.2280931 135.996547,39.2772123 Z" id="Path" fill="url(#linearGradient-4)"></path>
            <path d="M128.113062,28.2330163 C138.580016,34.209007 138.636328,43.898617 128.236312,49.8753957 L87.114375,73.5072328 C76.7140937,79.4840115 59.7972344,79.4832234 49.3302812,73.5074955 L7.93926562,49.875921 C-2.52901563,43.899405 -2.584,34.2103203 7.81601562,28.2335417 L48.9379531,4.60196721 C59.3382344,-1.37481144 76.2537656,-1.37481144 86.7220469,4.60170454 L128.113062,28.2330163 Z" id="Path" fill="url(#linearGradient-5)"></path>
            <path d="M44.3407744,1.52348228 C44.1694497,1.6092876 43.9994497,1.6981574 43.8307744,1.79140502 C43.8312159,1.79140502 43.8312159,1.79096723 43.8316575,1.79096723 C43.9998912,1.69771961 44.1694497,1.6092876 44.3407744,1.52348228 Z" id="Path" fill="#E0E0E2"></path>
            <path d="M57.5165515,40.2774466 L45.2374146,47.2898146 C44.1130248,47.931931 42.7334367,47.9338663 41.6072497,47.2949071 L29.2297138,40.2723253 C28.6422192,39.9390013 28.4361731,39.1925304 28.7694971,38.6050357 C28.8779434,38.4138955 29.0358874,38.2555062 29.2267216,38.1465223 L41.5057397,31.1340686 C42.6301371,30.4919339 44.0097437,30.4899937 45.1359427,31.1289635 L57.513572,38.1516394 C58.1010658,38.4849649 58.30711,39.2314363 57.9737845,39.8189301 C57.8653363,40.0100726 57.7073892,40.1684631 57.5165515,40.2774466 Z" id="Path-Copy-3" stroke="#FFFFFF" stroke-width="1.22304001"></path>
            <path d="M77.6855839,29.0512127 L91.5306754,36.9254087 C92.4735488,37.4616543 92.7973032,38.6505121 92.2538011,39.5807969 C92.0815388,39.8756493 91.83385,40.1207227 91.5354956,40.2915175 L89.3757894,41.5278541 M71.967501,51.4933328 C70.1380527,52.5406113 67.8809107,52.5437606 66.0484677,51.5015912 L52.6777221,43.897217 M50.9299546,34.2776614 C53.2968087,32.922712 56.84709,30.8902878 61.5807983,28.1803889" id="Shape" stroke="#FFFFFF" stroke-width="1.03999994" opacity="0.229027158" stroke-linecap="round"></path>
            <path d="M83.99579,24.4805087 L71.7166531,31.4928766 C70.5922632,32.134993 69.2126752,32.1369284 68.0864882,31.4979692 L55.7089523,24.4753873 C55.1214577,24.1420634 54.9154116,23.3955924 55.2487356,22.8080978 C55.3571819,22.6169575 55.5151259,22.4585683 55.7059601,22.3495843 L67.9849782,15.3371307 C69.1093756,14.6949959 70.4889822,14.6930558 71.6151812,15.3320255 L83.9928105,22.3547015 C84.5803043,22.6880269 84.7863485,23.4344984 84.453023,24.0219922 C84.3445748,24.2131346 84.1866277,24.3715251 83.99579,24.4805087 Z" id="Path-Copy-5" stroke="#FFFFFF" stroke-width="1.03999994"></path>
            <path d="M96.3117149,47.5683411 L84.032578,54.580709 C82.9081881,55.2228254 81.5286001,55.2247608 80.4024131,54.5858016 L68.0248772,47.5632197 C67.4373825,47.2298957 67.2313365,46.4834248 67.5646604,45.8959302 C67.6731067,45.7047899 67.8310508,45.5464007 68.021885,45.4374167 L80.3009031,38.4249631 C81.4253005,37.7828283 82.8049071,37.7808882 83.9311061,38.4198579 L96.3087354,45.4425339 C96.8962292,45.7758593 97.1022733,46.5223308 96.7689479,47.1098245 C96.6604997,47.300967 96.5025526,47.4593575 96.3117149,47.5683411 Z" id="Path-Copy-6" stroke="#FFFFFF" stroke-width="1.03999994"></path>
        </g>
    </g>
</svg>