<?xml version="1.0" encoding="UTF-8"?>
<svg width="136px" height="116px" viewBox="0 0 136 116" version="1.1" xmlns="http://www.w3.org/2000/svg" xmlns:xlink="http://www.w3.org/1999/xlink">
    <!-- Generator: Sketch 52.6 (67491) - http://www.bohemiancoding.com/sketch -->
    <title>Group 32 Copy 3</title>
    <desc>Created with Sketch.</desc>
    <defs>
        <linearGradient x1="0%" y1="100%" x2="100%" y2="3.74939946e-31%" id="linearGradient-1">
            <stop stop-color="#F19F73" offset="0%"></stop>
            <stop stop-color="#A74EB5" offset="100%"></stop>
        </linearGradient>
        <linearGradient x1="0%" y1="94.7478854%" x2="100%" y2="3.74939946e-31%" id="linearGradient-2">
            <stop stop-color="#BF5F2C" offset="0%"></stop>
            <stop stop-color="#A74EB5" offset="100%"></stop>
        </linearGradient>
        <linearGradient x1="57.7723001%" y1="-3.63907718%" x2="90.8045177%" y2="244.905985%" id="linearGradient-3">
            <stop stop-color="#D9715B" offset="0%"></stop>
            <stop stop-color="#B760A4" offset="100%"></stop>
        </linearGradient>
        <linearGradient x1="50%" y1="-45.8492755%" x2="82.0948216%" y2="55.5458884%" id="linearGradient-4">
            <stop stop-color="#D798B1" offset="0%"></stop>
            <stop stop-color="#CF7E93" offset="100%"></stop>
        </linearGradient>
    </defs>
    <g id="Page-1" stroke="none" stroke-width="1" fill="none" fill-rule="evenodd">
        <g id="Group-32-Copy-3">
            <g id="Group-32-Copy-2">
                <g id="Group-32-Copy">
                    <path d="M135.996547,59.140226 C136.074906,55.1494904 133.446016,51.1408933 128.113062,48.09603 L86.7223125,24.4649809 C76.2540312,18.4884649 59.3385,18.4884649 48.9382187,24.4652436 L7.81628125,48.096818 C2.63260937,51.0752259 0.04728125,54.9761286 0.052859375,58.8801833 C0.052859375,58.8675752 0.0520625,58.8549671 0.052328125,58.8423589 L-2.21583819e-17,76.9492087 C-0.011421875,80.8908251 2.61959375,84.838483 7.88720312,87.8457845 L49.2782187,111.477096 C59.7451719,117.452824 76.6620312,117.453612 87.0623125,111.476834 L128.18425,87.8452592 C133.350656,84.8763074 135.936516,80.9906395 135.947937,77.0997182 L136,58.9926058 C135.999734,59.041725 135.997609,59.0911068 135.996547,59.140226 Z" id="Path" fill="url(#linearGradient-1)"></path>
                    <path d="M128.236312,69.7384094 L87.114375,93.3699838 C76.7140937,99.3467625 59.7972344,99.3459745 49.3302812,93.3702465 L7.93926562,69.7389347 C2.67165625,66.7313705 0.040640625,62.7839754 0.0520625,58.8423589 L-2.21583819e-17,76.9492087 C-0.011421875,80.8908251 2.61959375,84.838483 7.88720312,87.8457845 L49.2782187,111.477096 C59.7451719,117.452824 76.6620312,117.453612 87.0623125,111.476834 L128.18425,87.8452592 C133.350656,84.8763074 135.936516,80.9906395 135.947937,77.0997182 L136,58.9926058 C135.988844,62.8840524 133.402719,66.7694576 128.236312,69.7384094 Z" id="Path" fill="url(#linearGradient-1)"></path>
                    <path d="M128.113063,48.09603 C138.580016,54.0720207 138.636328,63.7616307 128.236312,69.7384094 L87.114375,93.3702465 C76.7140937,99.3470252 59.7972344,99.3462371 49.3302812,93.3705092 L7.93926562,69.7389347 C-2.52901563,63.7624187 -2.584,54.073334 7.81601562,48.0965554 L48.9379531,24.4649809 C59.3382344,18.4882023 76.2537656,18.4882023 86.7220469,24.4647182 L128.113063,48.09603 Z" id="Path" fill="url(#linearGradient-2)"></path>
                    <path d="M44.3407744,21.386496 C44.1694497,21.4723013 43.9994497,21.5611711 43.8307744,21.6544187 C43.8312159,21.6544187 43.8312159,21.6539809 43.8316575,21.6539809 C43.9998912,21.5607333 44.1694497,21.4723013 44.3407744,21.386496 Z" id="Path" fill="#E0E0E2"></path>
                    <path d="M135.996547,39.2772123 C136.074906,35.2864767 133.446016,31.2778796 128.113062,28.2330163 L86.7223125,4.60196721 C76.2540312,-1.37454877 59.3385,-1.37454877 48.9382187,4.60222988 L7.81628125,28.2338043 C2.63260937,31.2122122 0.04728125,35.1131149 0.052859375,39.0171696 C0.052859375,39.0045615 0.0520625,38.9919534 0.052328125,38.9793452 L-2.21583819e-17,57.086195 C-0.011421875,61.0278114 2.61959375,64.9754693 7.88720312,67.9827708 L49.2782187,91.6140826 C59.7451719,97.5898105 76.6620312,97.5905985 87.0623125,91.6138199 L128.18425,67.9822455 C133.350656,65.0132937 135.936516,61.1276258 135.947937,57.2367045 L136,39.1295921 C135.999734,39.1787113 135.997609,39.2280931 135.996547,39.2772123 Z" id="Path" fill="url(#linearGradient-3)"></path>
                    <path d="M128.113062,28.2330163 C138.580016,34.209007 138.636328,43.898617 128.236312,49.8753957 L87.114375,73.5072328 C76.7140937,79.4840115 59.7972344,79.4832234 49.3302812,73.5074955 L7.93926562,49.875921 C-2.52901563,43.899405 -2.584,34.2103203 7.81601562,28.2335417 L48.9379531,4.60196721 C59.3382344,-1.37481144 76.2537656,-1.37481144 86.7220469,4.60170454 L128.113062,28.2330163 Z" id="Path" fill="url(#linearGradient-4)"></path>
                    <path d="M44.3407744,1.52348228 C44.1694497,1.6092876 43.9994497,1.6981574 43.8307744,1.79140502 C43.8312159,1.79140502 43.8312159,1.79096723 43.8316575,1.79096723 C43.9998912,1.69771961 44.1694497,1.6092876 44.3407744,1.52348228 Z" id="Path" fill="#E0E0E2"></path>
                    <path d="M76.986416,21.4520548 C64.392231,21.4520548 54.1851817,27.5293921 54.1851817,35.0249816 L45.0650888,35.0249816 L45.0650888,54.0273973 L60.8633635,44.6228577 C64.9894157,47.0790513 70.6893903,48.5983061 76.986416,48.5983061 C89.577929,48.5983061 99.7869822,42.5205711 99.7869822,35.0249816 C99.7869822,27.5293921 89.577929,21.4520548 76.986416,21.4520548 Z M49.6254692,47.474075 L49.6254692,37.739726 L65.9777764,37.739726 L49.6254692,47.474075 Z M76.986416,45.8835616 C71.958174,45.8835616 67.3977935,44.6656447 64.0939058,42.6997514 L76.986416,35.0249816 L58.7455621,35.0249816 C58.7455621,29.0380695 66.9285961,24.1664016 76.986416,24.1664016 C87.0435679,24.1664016 95.2266018,29.0376718 95.2266018,35.0249816 C95.2266018,41.0122914 87.0435679,45.8835616 76.986416,45.8835616 Z" id="Shape" stroke="#FFFFFF" fill-rule="nonzero"></path>
                </g>
            </g>
        </g>
    </g>
</svg>