<svg width="310" height="335" viewBox="0 0 286 335" fill="none" xmlns="http://www.w3.org/2000/svg">
<path d="M2.64062 262H5.4165C8.81494 262 10.7119 260.14 10.7119 256.902C10.7119 253.533 8.85889 251.651 5.43115 251.651H2.64062V262ZM3.64404 261.07V252.581H5.4165C8.31689 252.581 9.7085 253.98 9.7085 256.866C9.7085 259.737 8.08252 261.07 5.32861 261.07H3.64404ZM15.8901 262.11C17.9775 262.11 19.4497 260.425 19.4497 258.323C19.4497 256.236 17.9775 254.566 15.8901 254.566C13.8101 254.566 12.3599 256.236 12.3599 258.323C12.3599 260.433 13.8101 262.11 15.8901 262.11ZM15.8901 261.268C14.3081 261.268 13.3633 259.949 13.3633 258.323C13.3633 256.705 14.3081 255.416 15.8901 255.416C17.4868 255.416 18.4463 256.712 18.4463 258.323C18.4463 259.942 17.4868 261.268 15.8901 261.268Z" fill="#4EDDA4"/>
<path d="M1.75 293H2.82031V289.914L5.60938 287.031L9.46875 293H10.7969L6.35156 286.312L10.5781 281.961H9.13281L2.82031 288.594V281.961H1.75V293ZM15.3806 293.117C16.6384 293.117 17.5212 292.734 18.3962 291.82L17.6775 291.188C16.9744 291.922 16.3259 292.18 15.3884 292.18C13.8181 292.18 12.9119 291.117 12.8337 289.375H18.5837C18.615 289.258 18.6384 288.945 18.6384 288.68C18.6384 287.133 17.8025 285.07 15.2556 285.07C12.9822 285.07 11.74 286.93 11.74 289.133C11.74 291.375 13.0291 293.117 15.3806 293.117ZM12.8337 288.609C12.9666 287.047 13.8259 285.953 15.2478 285.953C16.7947 285.953 17.4978 287.062 17.5916 288.117C17.615 288.273 17.615 288.445 17.6072 288.609H12.8337ZM24.0112 293.117C25.2691 293.117 26.1519 292.734 27.0269 291.82L26.3081 291.188C25.605 291.922 24.9566 292.18 24.0191 292.18C22.4487 292.18 21.5425 291.117 21.4644 289.375H27.2144C27.2456 289.258 27.2691 288.945 27.2691 288.68C27.2691 287.133 26.4331 285.07 23.8862 285.07C21.6128 285.07 20.3706 286.93 20.3706 289.133C20.3706 291.375 21.6597 293.117 24.0112 293.117ZM21.4644 288.609C21.5972 287.047 22.4566 285.953 23.8784 285.953C25.4253 285.953 26.1284 287.062 26.2222 288.117C26.2456 288.273 26.2456 288.445 26.2378 288.609H21.4644ZM29.6497 296.234H30.7122V291.281C31.2044 292.422 32.2591 293.117 33.5012 293.117C35.6106 293.117 36.8216 291.32 36.8216 289.102C36.8216 286.891 35.6106 285.07 33.5169 285.07C32.2825 285.07 31.2044 285.766 30.7122 286.922V285.195H29.6497V296.234ZM33.2747 292.18C31.6497 292.18 30.6262 290.852 30.6262 289.102C30.6262 287.352 31.6497 286.031 33.2747 286.031C34.9075 286.031 35.7825 287.367 35.7825 289.102C35.7825 290.828 34.9075 292.18 33.2747 292.18ZM45.9578 293.117C46.3953 293.117 46.8172 293.039 47.0594 292.961L47.0437 292.016C46.825 292.102 46.4734 292.203 46.1297 292.203C45.3016 292.203 44.8641 291.75 44.8641 290.648V286.07H47.0516V285.195H44.8641V282.18L43.8484 282.938V285.195H42.5359V286.07H43.8328V290.812C43.8328 292.305 44.575 293.117 45.9578 293.117ZM49.1353 293H50.1822V288.547C50.1822 287.055 50.9869 286.016 52.3775 286.016C53.7447 286.016 54.2916 286.906 54.2916 288.297V293H55.3384V288.055C55.3072 286.367 54.4322 285.07 52.6119 285.07C51.5806 285.07 50.6744 285.57 50.1822 286.523V281.961H49.1353V293ZM61.18 293.117C62.4378 293.117 63.3206 292.734 64.1956 291.82L63.4769 291.188C62.7738 291.922 62.1253 292.18 61.1878 292.18C59.6175 292.18 58.7113 291.117 58.6331 289.375H64.3831C64.4144 289.258 64.4378 288.945 64.4378 288.68C64.4378 287.133 63.6019 285.07 61.055 285.07C58.7816 285.07 57.5394 286.93 57.5394 289.133C57.5394 291.375 58.8284 293.117 61.18 293.117ZM58.6331 288.609C58.7659 287.047 59.6253 285.953 61.0472 285.953C62.5941 285.953 63.2972 287.062 63.3909 288.117C63.4144 288.273 63.4144 288.445 63.4066 288.609H58.6331ZM71.1131 283.562H72.1912V281.961H71.1131V283.562ZM71.1366 293H72.16V285.195H71.1366V293ZM78.0797 293.117C79.5172 293.117 80.65 292.328 81.1266 290.969L80.1812 290.609C79.8687 291.578 79.0875 292.18 78.0719 292.18C76.3844 292.18 75.6109 290.719 75.6109 289.109C75.6109 287.523 76.3844 286.016 78.0641 286.016C79.0641 286.016 79.8531 286.625 80.2203 287.602L81.2047 287.219C80.6266 285.812 79.4859 285.07 78.0641 285.07C75.7203 285.07 74.5641 287.062 74.5641 289.109C74.5641 291.32 75.8375 293.117 78.0797 293.117ZM86.3822 293.117C88.6087 293.117 90.1791 291.32 90.1791 289.078C90.1791 286.852 88.6087 285.07 86.3822 285.07C84.1634 285.07 82.6166 286.852 82.6166 289.078C82.6166 291.328 84.1634 293.117 86.3822 293.117ZM86.3822 292.219C84.6947 292.219 83.6869 290.812 83.6869 289.078C83.6869 287.352 84.6947 285.977 86.3822 285.977C88.0853 285.977 89.1087 287.359 89.1087 289.078C89.1087 290.805 88.0853 292.219 86.3822 292.219ZM92.5441 293H93.5753V288.383C93.5753 286.867 94.4269 286.031 95.7472 286.031C97.0284 286.031 97.7003 286.875 97.7003 288.297V293H98.7316V288.055C98.7003 286.367 97.8409 285.07 96.0206 285.07C94.9894 285.07 94.0675 285.57 93.5753 286.523V285.195H92.5441V293ZM108.219 293.117C109.743 293.117 110.993 292.328 110.993 290.766C110.993 287.773 106.438 289.023 106.438 287.086C106.438 286.391 107.079 285.906 108.087 285.906C109.04 285.906 109.688 286.43 110.063 287.133L110.86 286.703C110.313 285.672 109.352 285.07 108.118 285.07C106.626 285.07 105.446 285.828 105.446 287.219C105.446 290.039 109.977 288.695 109.977 290.812C109.977 291.633 109.352 292.25 108.173 292.25C106.962 292.25 106.188 291.531 105.891 290.695L105.055 291.062C105.454 292.25 106.68 293.117 108.219 293.117ZM113.366 283.562H114.444V281.961H113.366V283.562ZM113.389 293H114.412V285.195H113.389V293ZM117.465 293H118.496V288.375C118.496 287.016 119.317 286.039 120.621 286.039C121.902 286.039 122.457 286.898 122.457 288.281V293H123.488V288.375C123.488 287.016 124.309 286.039 125.606 286.039C126.934 286.039 127.449 286.945 127.449 288.562V293H128.481V288.438C128.481 286.438 127.668 285.07 125.793 285.07C124.637 285.07 123.676 285.656 123.215 286.797C122.863 285.602 121.957 285.07 120.809 285.07C119.762 285.07 118.887 285.555 118.457 286.555V285.195H117.457L117.465 293ZM131.338 296.234H132.4V291.281C132.893 292.422 133.947 293.117 135.189 293.117C137.299 293.117 138.51 291.32 138.51 289.102C138.51 286.891 137.299 285.07 135.205 285.07C133.971 285.07 132.893 285.766 132.4 286.922V285.195H131.338V296.234ZM134.963 292.18C133.338 292.18 132.314 290.852 132.314 289.102C132.314 287.352 133.338 286.031 134.963 286.031C136.596 286.031 137.471 287.367 137.471 289.102C137.471 290.828 136.596 292.18 134.963 292.18ZM142.336 293.117C142.672 293.117 143.093 293.062 143.437 292.992L143.422 292.109C143.187 292.156 142.953 292.188 142.789 292.188C142.007 292.188 141.929 291.688 141.929 291.086V281.961H140.898V291.352C140.898 292.453 141.226 293.117 142.336 293.117ZM148.482 293.117C149.74 293.117 150.622 292.734 151.497 291.82L150.779 291.188C150.076 291.922 149.427 292.18 148.49 292.18C146.919 292.18 146.013 291.117 145.935 289.375H151.685C151.716 289.258 151.74 288.945 151.74 288.68C151.74 287.133 150.904 285.07 148.357 285.07C146.083 285.07 144.841 286.93 144.841 289.133C144.841 291.375 146.13 293.117 148.482 293.117ZM145.935 288.609C146.068 287.047 146.927 285.953 148.349 285.953C149.896 285.953 150.599 287.062 150.693 288.117C150.716 288.273 150.716 288.445 150.708 288.609H145.935ZM161.071 285.07C159.688 285.07 158.782 285.633 158.024 286.68L158.813 287.258C159.352 286.453 160.04 285.984 161.079 285.984C162.642 285.984 163.243 286.766 163.243 288.414V288.508H160.993C158.977 288.508 157.72 289.148 157.72 290.734C157.72 292.234 158.829 293.117 160.415 293.117C161.579 293.117 162.665 292.547 163.251 291.414L163.321 293H164.181V288.234C164.181 286.273 163.071 285.07 161.071 285.07ZM160.61 292.234C159.438 292.234 158.774 291.656 158.774 290.766C158.774 289.828 159.509 289.273 161.048 289.273H163.243V290.07C162.884 291.352 161.97 292.234 160.61 292.234ZM167.007 293H168.038V288.383C168.038 286.867 168.889 286.031 170.21 286.031C171.491 286.031 172.163 286.875 172.163 288.297V293H173.194V288.055C173.163 286.367 172.303 285.07 170.483 285.07C169.452 285.07 168.53 285.57 168.038 286.523V285.195H167.007V293ZM178.872 293.117C180.122 293.117 181.207 292.406 181.692 291.227L181.731 293H182.7V281.961H181.653V286.914C181.168 285.766 180.082 285.07 178.856 285.07C176.754 285.07 175.387 286.883 175.387 289.086C175.387 291.312 176.754 293.117 178.872 293.117ZM179.098 292.18C177.473 292.18 176.434 290.828 176.434 289.086C176.434 287.359 177.473 286.016 179.098 286.016C180.723 286.016 181.731 287.344 181.731 289.086C181.731 290.852 180.723 292.18 179.098 292.18ZM192.961 293.117C194.398 293.117 195.531 292.328 196.008 290.969L195.062 290.609C194.75 291.578 193.969 292.18 192.953 292.18C191.266 292.18 190.492 290.719 190.492 289.109C190.492 287.523 191.266 286.016 192.945 286.016C193.945 286.016 194.734 286.625 195.102 287.602L196.086 287.219C195.508 285.812 194.367 285.07 192.945 285.07C190.602 285.07 189.445 287.062 189.445 289.109C189.445 291.32 190.719 293.117 192.961 293.117ZM199.662 293.117C199.998 293.117 200.42 293.062 200.763 292.992L200.748 292.109C200.513 292.156 200.279 292.188 200.115 292.188C199.334 292.188 199.256 291.688 199.256 291.086V281.961H198.224V291.352C198.224 292.453 198.552 293.117 199.662 293.117ZM205.808 293.117C207.066 293.117 207.949 292.734 208.824 291.82L208.105 291.188C207.402 291.922 206.753 292.18 205.816 292.18C204.246 292.18 203.339 291.117 203.261 289.375H209.011C209.042 289.258 209.066 288.945 209.066 288.68C209.066 287.133 208.23 285.07 205.683 285.07C203.41 285.07 202.167 286.93 202.167 289.133C202.167 291.375 203.457 293.117 205.808 293.117ZM203.261 288.609C203.394 287.047 204.253 285.953 205.675 285.953C207.222 285.953 207.925 287.062 208.019 288.117C208.042 288.273 208.042 288.445 208.035 288.609H203.261ZM214.064 285.07C212.681 285.07 211.775 285.633 211.017 286.68L211.806 287.258C212.345 286.453 213.033 285.984 214.072 285.984C215.634 285.984 216.236 286.766 216.236 288.414V288.508H213.986C211.97 288.508 210.712 289.148 210.712 290.734C210.712 292.234 211.822 293.117 213.408 293.117C214.572 293.117 215.658 292.547 216.243 291.414L216.314 293H217.173V288.234C217.173 286.273 216.064 285.07 214.064 285.07ZM213.603 292.234C212.431 292.234 211.767 291.656 211.767 290.766C211.767 289.828 212.501 289.273 214.04 289.273H216.236V290.07C215.876 291.352 214.962 292.234 213.603 292.234ZM219.999 293H220.999V289.016C220.999 286.898 222.233 286.078 223.272 286.078C223.585 286.078 223.89 286.156 224.163 286.305L224.632 285.445C224.296 285.195 223.851 285.07 223.413 285.07C222.483 285.07 221.397 285.625 221.007 286.828V285.195H219.999V293ZM227.872 293.117C228.208 293.117 228.63 293.062 228.973 292.992L228.958 292.109C228.723 292.156 228.489 292.188 228.325 292.188C227.544 292.188 227.466 291.688 227.466 291.086V281.961H226.434V291.352C226.434 292.453 226.762 293.117 227.872 293.117ZM231.877 296.344H233.002L237.284 285.195H236.159L233.752 291.695L231.018 285.195H229.885L233.206 292.906L231.877 296.344ZM3.46875 321H4.35156L7.54688 313.195H6.41406L3.91406 319.688L1.40625 313.195H0.28125L3.46875 321ZM9.44312 311.562H10.5212V309.961H9.44312V311.562ZM9.46656 321H10.49V313.195H9.46656V321ZM15.855 321.117C17.3784 321.117 18.6284 320.328 18.6284 318.766C18.6284 315.773 14.0737 317.023 14.0737 315.086C14.0737 314.391 14.7144 313.906 15.7222 313.906C16.6753 313.906 17.3237 314.43 17.6987 315.133L18.4956 314.703C17.9487 313.672 16.9878 313.07 15.7534 313.07C14.2612 313.07 13.0816 313.828 13.0816 315.219C13.0816 318.039 17.6128 316.695 17.6128 318.812C17.6128 319.633 16.9878 320.25 15.8081 320.25C14.5972 320.25 13.8237 319.531 13.5269 318.695L12.6909 319.062C13.0894 320.25 14.3159 321.117 15.855 321.117ZM21.0012 311.562H22.0794V309.961H21.0012V311.562ZM21.0247 321H22.0481V313.195H21.0247V321ZM28.9756 321.117C31.0694 321.117 32.2803 319.305 32.2803 317.086C32.2803 314.875 31.0694 313.07 28.96 313.07C27.7178 313.07 26.6631 313.766 26.1709 314.914V309.961H25.1084V321H26.1709V319.273C26.6631 320.422 27.7412 321.117 28.9756 321.117ZM28.7334 320.156C27.1084 320.156 26.085 318.844 26.085 317.086C26.085 315.344 27.1084 314.016 28.7334 314.016C30.3662 314.016 31.2412 315.359 31.2412 317.086C31.2412 318.82 30.3662 320.156 28.7334 320.156ZM36.1062 321.117C36.4422 321.117 36.8641 321.062 37.2078 320.992L37.1922 320.109C36.9578 320.156 36.7234 320.188 36.5594 320.188C35.7781 320.188 35.7 319.688 35.7 319.086V309.961H34.6687V319.352C34.6687 320.453 34.9969 321.117 36.1062 321.117ZM42.2525 321.117C43.5103 321.117 44.3931 320.734 45.2681 319.82L44.5494 319.188C43.8462 319.922 43.1978 320.18 42.2603 320.18C40.69 320.18 39.7837 319.117 39.7056 317.375H45.4556C45.4869 317.258 45.5103 316.945 45.5103 316.68C45.5103 315.133 44.6744 313.07 42.1275 313.07C39.8541 313.07 38.6119 314.93 38.6119 317.133C38.6119 319.375 39.9009 321.117 42.2525 321.117ZM39.7056 316.609C39.8384 315.047 40.6978 313.953 42.1197 313.953C43.6666 313.953 44.3697 315.062 44.4634 316.117C44.4869 316.273 44.4869 316.445 44.4791 316.609H39.7056ZM54.8419 313.07C53.4591 313.07 52.5528 313.633 51.795 314.68L52.5841 315.258C53.1231 314.453 53.8106 313.984 54.8497 313.984C56.4122 313.984 57.0137 314.766 57.0137 316.414V316.508H54.7637C52.7481 316.508 51.4903 317.148 51.4903 318.734C51.4903 320.234 52.5997 321.117 54.1856 321.117C55.3497 321.117 56.4356 320.547 57.0216 319.414L57.0919 321H57.9512V316.234C57.9512 314.273 56.8419 313.07 54.8419 313.07ZM54.3809 320.234C53.2091 320.234 52.545 319.656 52.545 318.766C52.545 317.828 53.2794 317.273 54.8184 317.273H57.0137V318.07C56.6544 319.352 55.7403 320.234 54.3809 320.234ZM63.1209 321.117C63.5584 321.117 63.9803 321.039 64.2225 320.961L64.2069 320.016C63.9881 320.102 63.6366 320.203 63.2928 320.203C62.4647 320.203 62.0272 319.75 62.0272 318.648V314.07H64.2147V313.195H62.0272V310.18L61.0116 310.938V313.195H59.6991V314.07H60.9959V318.812C60.9959 320.305 61.7381 321.117 63.1209 321.117ZM73.1244 321.117C74.6478 321.117 75.8978 320.328 75.8978 318.766C75.8978 315.773 71.3431 317.023 71.3431 315.086C71.3431 314.391 71.9837 313.906 72.9916 313.906C73.9447 313.906 74.5931 314.43 74.9681 315.133L75.765 314.703C75.2181 313.672 74.2572 313.07 73.0228 313.07C71.5306 313.07 70.3509 313.828 70.3509 315.219C70.3509 318.039 74.8822 316.695 74.8822 318.812C74.8822 319.633 74.2572 320.25 73.0775 320.25C71.8666 320.25 71.0931 319.531 70.7962 318.695L69.9603 319.062C70.3587 320.25 71.5853 321.117 73.1244 321.117ZM78.3019 321H79.3331V316.375C79.3331 315.016 80.1534 314.039 81.4581 314.039C82.7394 314.039 83.2941 314.898 83.2941 316.281V321H84.3253V316.375C84.3253 315.016 85.1456 314.039 86.4425 314.039C87.7706 314.039 88.2862 314.945 88.2862 316.562V321H89.3175V316.438C89.3175 314.438 88.505 313.07 86.63 313.07C85.4737 313.07 84.5128 313.656 84.0519 314.797C83.7003 313.602 82.7941 313.07 81.6456 313.07C80.5987 313.07 79.7237 313.555 79.2941 314.555V313.195H78.2941L78.3019 321ZM94.7919 313.07C93.4091 313.07 92.5028 313.633 91.745 314.68L92.5341 315.258C93.0731 314.453 93.7606 313.984 94.7997 313.984C96.3622 313.984 96.9637 314.766 96.9637 316.414V316.508H94.7137C92.6981 316.508 91.4403 317.148 91.4403 318.734C91.4403 320.234 92.5497 321.117 94.1356 321.117C95.2997 321.117 96.3856 320.547 96.9716 319.414L97.0419 321H97.9012V316.234C97.9012 314.273 96.7919 313.07 94.7919 313.07ZM94.3309 320.234C93.1591 320.234 92.495 319.656 92.495 318.766C92.495 317.828 93.2294 317.273 94.7684 317.273H96.9637V318.07C96.6044 319.352 95.6903 320.234 94.3309 320.234ZM102.126 321.117C102.462 321.117 102.883 321.062 103.227 320.992L103.212 320.109C102.977 320.156 102.743 320.188 102.579 320.188C101.798 320.188 101.719 319.688 101.719 319.086V309.961H100.688V319.352C100.688 320.453 101.016 321.117 102.126 321.117ZM106.662 321.117C106.998 321.117 107.42 321.062 107.764 320.992L107.748 320.109C107.514 320.156 107.28 320.188 107.116 320.188C106.334 320.188 106.256 319.688 106.256 319.086V309.961H105.225V319.352C105.225 320.453 105.553 321.117 106.662 321.117ZM116.455 321.117C117.978 321.117 119.228 320.328 119.228 318.766C119.228 315.773 114.674 317.023 114.674 315.086C114.674 314.391 115.314 313.906 116.322 313.906C117.275 313.906 117.924 314.43 118.299 315.133L119.096 314.703C118.549 313.672 117.588 313.07 116.353 313.07C114.861 313.07 113.682 313.828 113.682 315.219C113.682 318.039 118.213 316.695 118.213 318.812C118.213 319.633 117.588 320.25 116.408 320.25C115.197 320.25 114.424 319.531 114.127 318.695L113.291 319.062C113.689 320.25 114.916 321.117 116.455 321.117ZM121.601 311.562H122.679V309.961H121.601V311.562ZM121.625 321H122.648V313.195H121.625V321ZM131.318 313.195H125.083V314.07H130.052L124.826 320.242V321H131.279V320.117H126.201L131.318 314.023V313.195ZM136.566 321.117C137.823 321.117 138.706 320.734 139.581 319.82L138.862 319.188C138.159 319.922 137.511 320.18 136.573 320.18C135.003 320.18 134.097 319.117 134.019 317.375H139.769C139.8 317.258 139.823 316.945 139.823 316.68C139.823 315.133 138.987 313.07 136.441 313.07C134.167 313.07 132.925 314.93 132.925 317.133C132.925 319.375 134.214 321.117 136.566 321.117ZM134.019 316.609C134.152 315.047 135.011 313.953 136.433 313.953C137.98 313.953 138.683 315.062 138.777 316.117C138.8 316.273 138.8 316.445 138.792 316.609H134.019ZM144.509 321.117C146.032 321.117 147.282 320.328 147.282 318.766C147.282 315.773 142.727 317.023 142.727 315.086C142.727 314.391 143.368 313.906 144.376 313.906C145.329 313.906 145.977 314.43 146.352 315.133L147.149 314.703C146.602 313.672 145.642 313.07 144.407 313.07C142.915 313.07 141.735 313.828 141.735 315.219C141.735 318.039 146.267 316.695 146.267 318.812C146.267 319.633 145.642 320.25 144.462 320.25C143.251 320.25 142.477 319.531 142.181 318.695L141.345 319.062C141.743 320.25 142.97 321.117 144.509 321.117Z" fill="#363641"/>
<path fill-rule="evenodd" clip-rule="evenodd" d="M1 3C1 1.34315 2.34315 0 4 0H280C281.657 0 283 1.34315 283 3V234C283 235.657 281.657 237 280 237H4C2.34315 237 1 235.657 1 234V3Z" fill="white"/>
<path d="M1.5 3C1.5 1.61929 2.61929 0.5 4 0.5H280C281.381 0.5 282.5 1.61929 282.5 3V234C282.5 235.381 281.381 236.5 280 236.5H4C2.61929 236.5 1.5 235.381 1.5 234V3Z" stroke="#D1D1D1" stroke-opacity="0.5"/>
<mask id="mask0" mask-type="alpha" maskUnits="userSpaceOnUse" x="1" y="0" width="282" height="237">
<path fill-rule="evenodd" clip-rule="evenodd" d="M1 3C1 1.34315 2.34315 0 4 0H280C281.657 0 283 1.34315 283 3V234C283 235.657 281.657 237 280 237H4C2.34315 237 1 235.657 1 234V3Z" fill="white"/>
<path d="M1.5 3C1.5 1.61929 2.61929 0.5 4 0.5H280C281.381 0.5 282.5 1.61929 282.5 3V234C282.5 235.381 281.381 236.5 280 236.5H4C2.61929 236.5 1.5 235.381 1.5 234V3Z" stroke="white"/>
</mask>
<g mask="url(#mask0)">
<path fill-rule="evenodd" clip-rule="evenodd" d="M79 110C79 108.343 80.3431 107 82 107L201 107C202.657 107 204 108.343 204 110V127C204 128.657 202.657 130 201 130H82C80.3431 130 79 128.657 79 127V110Z" fill="#E3EEF1"/>
<mask id="mask1" mask-type="alpha" maskUnits="userSpaceOnUse" x="79" y="107" width="125" height="23">
<path fill-rule="evenodd" clip-rule="evenodd" d="M79 110C79 108.343 80.3431 107 82 107L201 107C202.657 107 204 108.343 204 110V127C204 128.657 202.657 130 201 130H82C80.3431 130 79 128.657 79 127V110Z" fill="white"/>
</mask>
<g mask="url(#mask1)">
<path opacity="0.5" fill-rule="evenodd" clip-rule="evenodd" d="M163 102C163 101.448 163.448 101 164 101H237C237.552 101 238 101.448 238 102V134C238 134.552 237.552 135 237 135H164C163.448 135 163 134.552 163 134V102Z" fill="#DCCDFF"/>
<path d="M178.552 124L177.88 122.068H174.484L173.8 124H172.504L175.54 115.6H176.824L179.848 124H178.552ZM177.496 120.964L176.476 118.108C176.332 117.716 176.236 117.4 176.188 117.16C176.116 117.448 176.02 117.764 175.9 118.108L174.868 120.964H177.496ZM187.561 124H186.385L182.749 118.3C182.637 118.124 182.525 117.916 182.413 117.676C182.437 118.06 182.449 118.268 182.449 118.3V124H181.201V115.6H182.461L186.001 121.204C186.089 121.348 186.205 121.564 186.349 121.852C186.325 121.612 186.313 121.4 186.313 121.216V115.6H187.561V124ZM192.805 116.8V124H191.557V116.8H189.181V115.6H195.181V116.8H192.805Z" fill="#A683F5"/>
<path opacity="0.75" d="M116.32 125L112.72 114.5H114.115L116.62 122.09C116.8 122.7 116.905 123.055 116.935 123.155C116.975 122.965 117.075 122.61 117.235 122.09L119.665 114.5H121.06L117.475 125H116.32ZM127.317 124.115C126.707 124.825 125.882 125.18 124.842 125.18C123.802 125.18 122.977 124.825 122.367 124.115C121.757 123.405 121.452 122.425 121.452 121.175C121.452 119.925 121.757 118.945 122.367 118.235C122.977 117.515 123.802 117.155 124.842 117.155C125.882 117.155 126.707 117.51 127.317 118.22C127.927 118.93 128.232 119.91 128.232 121.16C128.232 122.41 127.927 123.395 127.317 124.115ZM123.312 123.23C123.682 123.72 124.192 123.965 124.842 123.965C125.492 123.965 125.997 123.72 126.357 123.23C126.727 122.73 126.912 122.04 126.912 121.16C126.912 120.29 126.727 119.605 126.357 119.105C125.997 118.605 125.492 118.355 124.842 118.355C124.192 118.355 123.682 118.605 123.312 119.105C122.952 119.595 122.772 120.285 122.772 121.175C122.772 122.045 122.952 122.73 123.312 123.23ZM132.336 125.18C131.256 125.18 130.716 124.57 130.716 123.35V118.475H129.471V117.335H130.716V114.8L132.021 114.17V117.335H133.911V118.475H132.021V122.915C132.021 123.255 132.076 123.515 132.186 123.695C132.296 123.875 132.506 123.965 132.816 123.965C133.156 123.965 133.536 123.83 133.956 123.56L133.806 124.835C133.366 125.065 132.876 125.18 132.336 125.18ZM137.122 115.715C136.962 115.865 136.767 115.94 136.537 115.94C136.307 115.94 136.112 115.86 135.952 115.7C135.802 115.54 135.727 115.35 135.727 115.13C135.727 114.9 135.807 114.705 135.967 114.545C136.127 114.375 136.317 114.29 136.537 114.29C136.767 114.29 136.962 114.375 137.122 114.545C137.282 114.705 137.362 114.9 137.362 115.13C137.362 115.36 137.282 115.555 137.122 115.715ZM135.892 125V117.335H137.197V125H135.892ZM144.41 125V120.365C144.41 119.675 144.26 119.17 143.96 118.85C143.67 118.52 143.27 118.355 142.76 118.355C141.58 118.355 140.99 119.015 140.99 120.335V125H139.685V117.335H140.99V118.115C141.46 117.475 142.12 117.155 142.97 117.155C143.87 117.155 144.55 117.43 145.01 117.98C145.48 118.52 145.715 119.39 145.715 120.59V125H144.41ZM150.493 128.105L149.863 127.085C150.973 127.025 151.738 126.83 152.158 126.5C152.588 126.18 152.803 125.74 152.803 125.18V124.25C152.353 124.87 151.693 125.18 150.823 125.18C149.923 125.18 149.173 124.83 148.573 124.13C147.983 123.43 147.688 122.44 147.688 121.16C147.688 119.92 147.978 118.945 148.558 118.235C149.148 117.515 149.918 117.155 150.868 117.155C151.668 117.155 152.313 117.425 152.803 117.965V117.335H154.108V124.685C154.108 125.855 153.793 126.7 153.163 127.22C152.543 127.74 151.653 128.035 150.493 128.105ZM151.093 123.965C151.413 123.965 151.728 123.87 152.038 123.68C152.358 123.48 152.613 123.215 152.803 122.885V119.375C152.623 119.075 152.368 118.83 152.038 118.64C151.708 118.45 151.393 118.355 151.093 118.355C150.413 118.355 149.893 118.6 149.533 119.09C149.183 119.57 149.008 120.26 149.008 121.16C149.008 122.03 149.198 122.715 149.578 123.215C149.968 123.715 150.473 123.965 151.093 123.965Z" fill="black"/>
<rect x="78" y="105" width="27" height="27" fill="url(#paint0_linear)"/>
<g filter="url(#filter0_d)">
<path fill-rule="evenodd" clip-rule="evenodd" d="M98.379 122.973L98.379 122.973C98.3729 122.973 98.3678 122.974 98.364 122.976C98.3619 122.977 98.3598 122.978 98.3577 122.98C98.1372 123.333 97.7119 123.657 97.2699 123.994C96.95 124.237 96.6209 124.488 96.368 124.754C96.04 125.099 96.0269 125.201 95.9724 125.624L95.9659 125.675C95.9433 125.848 95.8591 126 95.7373 126.109C95.6148 126.218 95.455 126.283 95.282 126.283C95.2794 126.283 95.2692 126.283 95.2517 126.282C95.067 126.274 94.9017 126.192 94.7827 126.066C94.6643 125.941 94.5917 125.771 94.5917 125.585C94.5917 125.582 94.5921 125.572 94.5929 125.554C94.6405 124.465 94.7722 124.291 95.4475 123.43L92.8411 123.437V123.438C92.8339 123.438 92.8268 123.437 92.8198 123.436C92.5979 123.426 92.4446 123.347 92.3399 123.242C92.1851 123.086 92.1457 122.877 92.1457 122.738C92.1457 122.732 92.1459 122.726 92.1465 122.721C92.1491 122.593 92.1756 122.442 92.2698 122.306C92.2918 122.274 92.3172 122.244 92.3465 122.215C91.6867 122.104 91.6865 121.606 91.6865 121.489C91.6865 121.271 91.769 121.089 91.9053 120.957C92.013 120.852 92.1536 120.78 92.3122 120.747C92.2943 120.73 92.2773 120.712 92.2612 120.692C92.1553 120.566 92.0897 120.404 92.0897 120.238C92.0897 120.049 92.1648 119.871 92.2859 119.735C92.407 119.599 92.5754 119.505 92.7618 119.486L92.797 119.483C92.7612 119.442 92.7305 119.396 92.7055 119.348C92.6533 119.248 92.6258 119.133 92.6283 119.014C92.6314 118.861 92.6808 118.718 92.7648 118.6C92.8491 118.481 92.9685 118.388 93.1112 118.336L93.1798 118.312L93.1795 118.311C93.203 118.303 93.2271 118.3 93.2504 118.302C93.9197 118.301 94.4204 118.286 94.8204 118.275C96.233 118.233 96.4133 118.228 98.4227 118.96C98.4405 118.966 98.458 118.971 98.4751 118.974C98.4929 118.977 98.5109 118.979 98.5287 118.979L99.3301 118.984C99.4192 118.984 99.4993 119.021 99.557 119.08C99.6146 119.139 99.6502 119.219 99.6502 119.308V122.648C99.6502 122.737 99.6144 122.818 99.5566 122.877C99.498 122.936 99.4173 122.973 99.3285 122.973H98.379Z" fill="#FFFFFE"/>
</g>
<g filter="url(#filter1_d)">
<path fill-rule="evenodd" clip-rule="evenodd" d="M84.5747 114.864L84.5747 114.864C84.5808 114.864 84.5859 114.863 84.5897 114.861C84.5918 114.86 84.5939 114.859 84.596 114.857C84.8165 114.503 85.2418 114.18 85.6838 113.843C86.0037 113.6 86.3328 113.349 86.5856 113.083C86.9137 112.738 86.9268 112.636 86.9813 112.213L86.9878 112.162C87.0103 111.988 87.0946 111.837 87.2164 111.728C87.3388 111.619 87.4987 111.554 87.6717 111.554C87.6743 111.554 87.6845 111.554 87.7019 111.555C87.8867 111.563 88.052 111.644 88.171 111.771C88.2894 111.896 88.362 112.066 88.362 112.252C88.362 112.255 88.3616 112.265 88.3608 112.283C88.3132 113.372 88.1815 113.546 87.5062 114.406L90.1126 114.4V114.399C90.1198 114.399 90.1269 114.4 90.1338 114.401C90.3558 114.411 90.5091 114.49 90.6138 114.595C90.7686 114.751 90.808 114.96 90.808 115.099C90.808 115.105 90.8077 115.11 90.8072 115.116C90.8046 115.244 90.7781 115.395 90.6839 115.531C90.6619 115.562 90.6365 115.593 90.6072 115.622C91.267 115.733 91.2672 116.231 91.2672 116.348C91.2672 116.566 91.1847 116.748 91.0484 116.88C90.9407 116.985 90.8001 117.057 90.6414 117.089C90.6594 117.107 90.6764 117.125 90.6925 117.145C90.7983 117.271 90.864 117.432 90.864 117.599C90.864 117.787 90.7889 117.966 90.6678 118.102C90.5467 118.238 90.3783 118.332 90.1919 118.35L90.1567 118.354C90.1925 118.395 90.2232 118.44 90.2481 118.489C90.3004 118.589 90.3278 118.704 90.3254 118.823C90.3223 118.975 90.2729 119.119 90.1889 119.237C90.1046 119.356 89.9852 119.449 89.8425 119.5L89.7739 119.525L89.7742 119.526C89.7507 119.534 89.7266 119.537 89.7033 119.535C89.034 119.536 88.5333 119.551 88.1333 119.562C86.7207 119.604 86.5404 119.609 84.531 118.877C84.5132 118.871 84.4956 118.866 84.4786 118.863C84.4608 118.86 84.4428 118.858 84.425 118.858L83.6235 118.853C83.5345 118.852 83.4543 118.816 83.3967 118.757C83.3391 118.698 83.3035 118.617 83.3035 118.529V115.188C83.3035 115.1 83.3392 115.019 83.397 114.96C83.4557 114.901 83.5363 114.864 83.6251 114.864H84.5747Z" fill="#FFFFFE"/>
</g>
</g>
<path fill-rule="evenodd" clip-rule="evenodd" d="M1 237H283V227H1V237Z" fill="#4EDDA4"/>
</g>
<defs>
<filter id="filter0_d" x="89.6865" y="116.26" width="11.9637" height="12.0234" filterUnits="userSpaceOnUse" color-interpolation-filters="sRGB">
<feFlood flood-opacity="0" result="BackgroundImageFix"/>
<feColorMatrix in="SourceAlpha" type="matrix" values="0 0 0 0 0 0 0 0 0 0 0 0 0 0 0 0 0 0 127 0"/>
<feOffset/>
<feGaussianBlur stdDeviation="1"/>
<feColorMatrix type="matrix" values="0 0 0 0 1 0 0 0 0 1 0 0 0 0 1 0 0 0 0.5 0"/>
<feBlend mode="normal" in2="BackgroundImageFix" result="effect1_dropShadow"/>
<feBlend mode="normal" in="SourceGraphic" in2="effect1_dropShadow" result="shape"/>
</filter>
<filter id="filter1_d" x="81.3035" y="109.554" width="11.9637" height="12.0234" filterUnits="userSpaceOnUse" color-interpolation-filters="sRGB">
<feFlood flood-opacity="0" result="BackgroundImageFix"/>
<feColorMatrix in="SourceAlpha" type="matrix" values="0 0 0 0 0 0 0 0 0 0 0 0 0 0 0 0 0 0 127 0"/>
<feOffset/>
<feGaussianBlur stdDeviation="1"/>
<feColorMatrix type="matrix" values="0 0 0 0 1 0 0 0 0 1 0 0 0 0 1 0 0 0 0.5 0"/>
<feBlend mode="normal" in2="BackgroundImageFix" result="effect1_dropShadow"/>
<feBlend mode="normal" in="SourceGraphic" in2="effect1_dropShadow" result="shape"/>
</filter>
<linearGradient id="paint0_linear" x1="78" y1="100.498" x2="68.9953" y2="127.498" gradientUnits="userSpaceOnUse">
<stop stop-color="#A8ED2F"/>
<stop offset="1" stop-color="#68DFB1"/>
</linearGradient>
</defs>
</svg>
