<svg width="310" height="336" viewBox="0 0 282 336" fill="none" xmlns="http://www.w3.org/2000/svg">
<path d="M1.64062 262H4.4165C7.81494 262 9.71191 260.14 9.71191 256.902C9.71191 253.533 7.85889 251.651 4.43115 251.651H1.64062V262ZM2.64404 261.07V252.581H4.4165C7.31689 252.581 8.7085 253.98 8.7085 256.866C8.7085 259.737 7.08252 261.07 4.32861 261.07H2.64404ZM14.8901 262.11C16.9775 262.11 18.4497 260.425 18.4497 258.323C18.4497 256.236 16.9775 254.566 14.8901 254.566C12.8101 254.566 11.3599 256.236 11.3599 258.323C11.3599 260.433 12.8101 262.11 14.8901 262.11ZM14.8901 261.268C13.3081 261.268 12.3633 259.949 12.3633 258.323C12.3633 256.705 13.3081 255.416 14.8901 255.416C16.4868 255.416 17.4463 256.712 17.4463 258.323C17.4463 259.942 16.4868 261.268 14.8901 261.268ZM20.4419 262H21.4087V257.671C21.4087 256.25 22.207 255.467 23.4448 255.467C24.646 255.467 25.2759 256.258 25.2759 257.591V262H26.2427V257.364C26.2134 255.782 25.4077 254.566 23.7012 254.566C22.7344 254.566 21.8701 255.035 21.4087 255.928V254.683H20.4419V262ZM27.561 255.877H28.2349L30.1978 251.651H29.0918L27.561 255.877ZM34.4604 262.11C34.8706 262.11 35.2661 262.037 35.4932 261.963L35.4785 261.077C35.2734 261.158 34.9438 261.253 34.6216 261.253C33.8452 261.253 33.4351 260.828 33.4351 259.795V255.503H35.4858V254.683H33.4351V251.856L32.4829 252.566V254.683H31.2524V255.503H32.4683V259.949C32.4683 261.348 33.1641 262.11 34.4604 262.11Z" fill="#FB7372"/>
<path d="M1.75 294H4.71094C8.33594 294 10.3594 292.016 10.3594 288.562C10.3594 284.969 8.38281 282.961 4.72656 282.961H1.75V294ZM2.82031 293.008V283.953H4.71094C7.80469 283.953 9.28906 285.445 9.28906 288.523C9.28906 291.586 7.55469 293.008 4.61719 293.008H2.82031ZM16.1228 294.117C18.3494 294.117 19.9197 292.32 19.9197 290.078C19.9197 287.852 18.3494 286.07 16.1228 286.07C13.9041 286.07 12.3572 287.852 12.3572 290.078C12.3572 292.328 13.9041 294.117 16.1228 294.117ZM16.1228 293.219C14.4353 293.219 13.4275 291.812 13.4275 290.078C13.4275 288.352 14.4353 286.977 16.1228 286.977C17.8259 286.977 18.8494 288.359 18.8494 290.078C18.8494 291.805 17.8259 293.219 16.1228 293.219ZM22.2847 294H23.3159V289.383C23.3159 287.867 24.1675 287.031 25.4878 287.031C26.7691 287.031 27.4409 287.875 27.4409 289.297V294H28.4722V289.055C28.4409 287.367 27.5816 286.07 25.7612 286.07C24.73 286.07 23.8081 286.57 23.3159 287.523V286.195H22.2847V294ZM30.1184 287.469H30.8372L32.9309 282.961H31.7512L30.1184 287.469ZM37.7178 294.117C38.1553 294.117 38.5772 294.039 38.8194 293.961L38.8037 293.016C38.585 293.102 38.2334 293.203 37.8897 293.203C37.0616 293.203 36.6241 292.75 36.6241 291.648V287.07H38.8116V286.195H36.6241V283.18L35.6084 283.938V286.195H34.2959V287.07H35.5928V291.812C35.5928 293.305 36.335 294.117 37.7178 294.117ZM47.9087 294.117C48.94 294.117 49.8697 293.625 50.3541 292.672V294H51.3775V286.195H50.3541V290.805C50.3541 292.328 49.4947 293.156 48.1822 293.156C46.9009 293.156 46.2291 292.32 46.2291 290.898V286.195H45.2056V291.133C45.2369 292.82 46.0806 294.117 47.9087 294.117ZM56.7425 294.117C58.2659 294.117 59.5159 293.328 59.5159 291.766C59.5159 288.773 54.9613 290.023 54.9613 288.086C54.9613 287.391 55.6019 286.906 56.6097 286.906C57.5628 286.906 58.2113 287.43 58.5863 288.133L59.3831 287.703C58.8363 286.672 57.8753 286.07 56.6409 286.07C55.1488 286.07 53.9691 286.828 53.9691 288.219C53.9691 291.039 58.5003 289.695 58.5003 291.812C58.5003 292.633 57.8753 293.25 56.6956 293.25C55.4847 293.25 54.7113 292.531 54.4144 291.695L53.5784 292.062C53.9769 293.25 55.2034 294.117 56.7425 294.117ZM64.8575 294.117C66.1153 294.117 66.9981 293.734 67.8731 292.82L67.1544 292.188C66.4512 292.922 65.8028 293.18 64.8653 293.18C63.295 293.18 62.3887 292.117 62.3106 290.375H68.0606C68.0919 290.258 68.1153 289.945 68.1153 289.68C68.1153 288.133 67.2794 286.07 64.7325 286.07C62.4591 286.07 61.2169 287.93 61.2169 290.133C61.2169 292.375 62.5059 294.117 64.8575 294.117ZM62.3106 289.609C62.4434 288.047 63.3028 286.953 64.7247 286.953C66.2716 286.953 66.9747 288.062 67.0684 289.117C67.0919 289.273 67.0919 289.445 67.0841 289.609H62.3106ZM77.1891 294.117C77.6266 294.117 78.0484 294.039 78.2906 293.961L78.275 293.016C78.0562 293.102 77.7047 293.203 77.3609 293.203C76.5328 293.203 76.0953 292.75 76.0953 291.648V287.07H78.2828V286.195H76.0953V283.18L75.0797 283.938V286.195H73.7672V287.07H75.0641V291.812C75.0641 293.305 75.8062 294.117 77.1891 294.117ZM83.5541 294.117C85.7806 294.117 87.3509 292.32 87.3509 290.078C87.3509 287.852 85.7806 286.07 83.5541 286.07C81.3353 286.07 79.7884 287.852 79.7884 290.078C79.7884 292.328 81.3353 294.117 83.5541 294.117ZM83.5541 293.219C81.8666 293.219 80.8587 291.812 80.8587 290.078C80.8587 288.352 81.8666 286.977 83.5541 286.977C85.2572 286.977 86.2806 288.359 86.2806 290.078C86.2806 291.805 85.2572 293.219 83.5541 293.219ZM92.7941 294.117C95.0206 294.117 96.5909 292.32 96.5909 290.078C96.5909 287.852 95.0206 286.07 92.7941 286.07C90.5753 286.07 89.0284 287.852 89.0284 290.078C89.0284 292.328 90.5753 294.117 92.7941 294.117ZM92.7941 293.219C91.1066 293.219 90.0987 291.812 90.0987 290.078C90.0987 288.352 91.1066 286.977 92.7941 286.977C94.4972 286.977 95.5206 288.359 95.5206 290.078C95.5206 291.805 94.4972 293.219 92.7941 293.219ZM103.298 294H104.329V289.375C104.329 288.016 105.149 287.039 106.454 287.039C107.735 287.039 108.29 287.898 108.29 289.281V294H109.321V289.375C109.321 288.016 110.141 287.039 111.438 287.039C112.766 287.039 113.282 287.945 113.282 289.562V294H114.313V289.438C114.313 287.438 113.501 286.07 111.626 286.07C110.469 286.07 109.508 286.656 109.048 287.797C108.696 286.602 107.79 286.07 106.641 286.07C105.594 286.07 104.719 286.555 104.29 287.555V286.195H103.29L103.298 294ZM119.553 294.117C120.584 294.117 121.514 293.625 121.998 292.672V294H123.022V286.195H121.998V290.805C121.998 292.328 121.139 293.156 119.827 293.156C118.545 293.156 117.873 292.32 117.873 290.898V286.195H116.85V291.133C116.881 292.82 117.725 294.117 119.553 294.117ZM128.879 294.117C130.317 294.117 131.449 293.328 131.926 291.969L130.981 291.609C130.668 292.578 129.887 293.18 128.871 293.18C127.184 293.18 126.41 291.719 126.41 290.109C126.41 288.523 127.184 287.016 128.863 287.016C129.863 287.016 130.652 287.625 131.02 288.602L132.004 288.219C131.426 286.812 130.285 286.07 128.863 286.07C126.52 286.07 125.363 288.062 125.363 290.109C125.363 292.32 126.637 294.117 128.879 294.117ZM134.197 294H135.244V289.547C135.244 288.055 136.049 287.016 137.439 287.016C138.807 287.016 139.353 287.906 139.353 289.297V294H140.4V289.055C140.369 287.367 139.494 286.07 137.674 286.07C136.643 286.07 135.736 286.57 135.244 287.523V282.961H134.197V294ZM150.412 294.117C151.662 294.117 152.747 293.406 153.232 292.227L153.271 294H154.24V282.961H153.193V287.914C152.708 286.766 151.622 286.07 150.396 286.07C148.294 286.07 146.927 287.883 146.927 290.086C146.927 292.312 148.294 294.117 150.412 294.117ZM150.638 293.18C149.013 293.18 147.974 291.828 147.974 290.086C147.974 288.359 149.013 287.016 150.638 287.016C152.263 287.016 153.271 288.344 153.271 290.086C153.271 291.852 152.263 293.18 150.638 293.18ZM160.3 294.117C161.558 294.117 162.441 293.734 163.316 292.82L162.597 292.188C161.894 292.922 161.245 293.18 160.308 293.18C158.737 293.18 157.831 292.117 157.753 290.375H163.503C163.534 290.258 163.558 289.945 163.558 289.68C163.558 288.133 162.722 286.07 160.175 286.07C157.902 286.07 156.659 287.93 156.659 290.133C156.659 292.375 157.948 294.117 160.3 294.117ZM157.753 289.609C157.886 288.047 158.745 286.953 160.167 286.953C161.714 286.953 162.417 288.062 162.511 289.117C162.534 289.273 162.534 289.445 162.527 289.609H157.753ZM168.298 294.117C168.735 294.117 169.157 294.039 169.399 293.961L169.384 293.016C169.165 293.102 168.813 293.203 168.47 293.203C167.642 293.203 167.204 292.75 167.204 291.648V287.07H169.392V286.195H167.204V283.18L166.188 283.938V286.195H164.876V287.07H166.173V291.812C166.173 293.305 166.915 294.117 168.298 294.117ZM174.327 286.07C172.944 286.07 172.038 286.633 171.28 287.68L172.069 288.258C172.608 287.453 173.296 286.984 174.335 286.984C175.897 286.984 176.499 287.766 176.499 289.414V289.508H174.249C172.233 289.508 170.975 290.148 170.975 291.734C170.975 293.234 172.085 294.117 173.671 294.117C174.835 294.117 175.921 293.547 176.507 292.414L176.577 294H177.436V289.234C177.436 287.273 176.327 286.07 174.327 286.07ZM173.866 293.234C172.694 293.234 172.03 292.656 172.03 291.766C172.03 290.828 172.764 290.273 174.303 290.273H176.499V291.07C176.139 292.352 175.225 293.234 173.866 293.234ZM180.239 284.562H181.317V282.961H180.239V284.562ZM180.262 294H181.286V286.195H180.262V294ZM185.729 294.117C186.065 294.117 186.487 294.062 186.83 293.992L186.815 293.109C186.58 293.156 186.346 293.188 186.182 293.188C185.401 293.188 185.322 292.688 185.322 292.086V282.961H184.291V292.352C184.291 293.453 184.619 294.117 185.729 294.117ZM187.57 297.336H188.555L194.203 282.961H193.219L187.57 297.336ZM198.279 294.117C198.717 294.117 199.138 294.039 199.381 293.961L199.365 293.016C199.146 293.102 198.795 293.203 198.451 293.203C197.623 293.203 197.185 292.75 197.185 291.648V287.07H199.373V286.195H197.185V283.18L196.17 283.938V286.195H194.857V287.07H196.154V291.812C196.154 293.305 196.896 294.117 198.279 294.117ZM201.457 294H202.503V289.547C202.503 288.055 203.308 287.016 204.699 287.016C206.066 287.016 206.613 287.906 206.613 289.297V294H207.66V289.055C207.628 287.367 206.753 286.07 204.933 286.07C203.902 286.07 202.996 286.57 202.503 287.523V282.961H201.457V294ZM210.47 284.562H211.548V282.961H210.47V284.562ZM210.493 294H211.517V286.195H210.493V294ZM214.562 294H215.593V289.383C215.593 287.867 216.444 287.031 217.765 287.031C219.046 287.031 219.718 287.875 219.718 289.297V294H220.749V289.055C220.718 287.367 219.858 286.07 218.038 286.07C217.007 286.07 216.085 286.57 215.593 287.523V286.195H214.562V294ZM229.315 294.117C229.651 294.117 230.073 294.062 230.417 293.992L230.401 293.109C230.167 293.156 229.932 293.188 229.768 293.188C228.987 293.188 228.909 292.688 228.909 292.086V282.961H227.877V292.352C227.877 293.453 228.206 294.117 229.315 294.117ZM232.43 284.562H233.508V282.961H232.43V284.562ZM232.453 294H233.477V286.195H232.453V294ZM236.522 294H237.553V289.383C237.553 287.867 238.404 287.031 239.725 287.031C241.006 287.031 241.678 287.875 241.678 289.297V294H242.709V289.055C242.678 287.367 241.818 286.07 239.998 286.07C238.967 286.07 238.045 286.57 237.553 287.523V286.195H236.522V294ZM248.551 294.117C249.808 294.117 250.691 293.734 251.566 292.82L250.847 292.188C250.144 292.922 249.496 293.18 248.558 293.18C246.988 293.18 246.082 292.117 246.004 290.375H251.754C251.785 290.258 251.808 289.945 251.808 289.68C251.808 288.133 250.972 286.07 248.426 286.07C246.152 286.07 244.91 287.93 244.91 290.133C244.91 292.375 246.199 294.117 248.551 294.117ZM246.004 289.609C246.137 288.047 246.996 286.953 248.418 286.953C249.965 286.953 250.668 288.062 250.762 289.117C250.785 289.273 250.785 289.445 250.777 289.609H246.004ZM256.494 294.117C258.017 294.117 259.267 293.328 259.267 291.766C259.267 288.773 254.712 290.023 254.712 288.086C254.712 287.391 255.353 286.906 256.361 286.906C257.314 286.906 257.962 287.43 258.337 288.133L259.134 287.703C258.587 286.672 257.627 286.07 256.392 286.07C254.9 286.07 253.72 286.828 253.72 288.219C253.72 291.039 258.252 289.695 258.252 291.812C258.252 292.633 257.627 293.25 256.447 293.25C255.236 293.25 254.462 292.531 254.166 291.695L253.33 292.062C253.728 293.25 254.955 294.117 256.494 294.117ZM265.13 289.539H269.349V288.734H265.13V289.539ZM1.375 312.562H2.45312V310.961H1.375V312.562ZM1.39844 322H2.42188V314.195H1.39844V322ZM7.84156 322.117C8.27906 322.117 8.70094 322.039 8.94312 321.961L8.9275 321.016C8.70875 321.102 8.35719 321.203 8.01344 321.203C7.18531 321.203 6.74781 320.75 6.74781 319.648V315.07H8.93531V314.195H6.74781V311.18L5.73219 311.938V314.195H4.41969V315.07H5.71656V319.812C5.71656 321.305 6.45875 322.117 7.84156 322.117ZM16.8216 322H17.7981L19.9309 315.617L22.0637 322H23.0403L25.3216 314.195H24.2122L22.4934 320.438L20.4075 314.195H19.4622L17.3684 320.445L15.6575 314.195H14.5481L16.8216 322ZM30.2491 322.117C32.4756 322.117 34.0459 320.32 34.0459 318.078C34.0459 315.852 32.4756 314.07 30.2491 314.07C28.0303 314.07 26.4834 315.852 26.4834 318.078C26.4834 320.328 28.0303 322.117 30.2491 322.117ZM30.2491 321.219C28.5616 321.219 27.5537 319.812 27.5537 318.078C27.5537 316.352 28.5616 314.977 30.2491 314.977C31.9522 314.977 32.9756 316.359 32.9756 318.078C32.9756 319.805 31.9522 321.219 30.2491 321.219ZM36.4109 322H37.4422V317.383C37.4422 315.867 38.2937 315.031 39.6141 315.031C40.8953 315.031 41.5672 315.875 41.5672 317.297V322H42.5984V317.055C42.5672 315.367 41.7078 314.07 39.8875 314.07C38.8562 314.07 37.9344 314.57 37.4422 315.523V314.195H36.4109V322ZM44.2447 315.469H44.9634L47.0572 310.961H45.8775L44.2447 315.469ZM51.8441 322.117C52.2816 322.117 52.7034 322.039 52.9456 321.961L52.93 321.016C52.7113 321.102 52.3597 321.203 52.0159 321.203C51.1878 321.203 50.7503 320.75 50.7503 319.648V315.07H52.9378V314.195H50.7503V311.18L49.7347 311.938V314.195H48.4222V315.07H49.7191V319.812C49.7191 321.305 50.4613 322.117 51.8441 322.117ZM61.8475 322.117C63.3709 322.117 64.6209 321.328 64.6209 319.766C64.6209 316.773 60.0662 318.023 60.0662 316.086C60.0662 315.391 60.7069 314.906 61.7147 314.906C62.6678 314.906 63.3162 315.43 63.6912 316.133L64.4881 315.703C63.9412 314.672 62.9803 314.07 61.7459 314.07C60.2537 314.07 59.0741 314.828 59.0741 316.219C59.0741 319.039 63.6053 317.695 63.6053 319.812C63.6053 320.633 62.9803 321.25 61.8006 321.25C60.5897 321.25 59.8162 320.531 59.5194 319.695L58.6834 320.062C59.0819 321.25 60.3084 322.117 61.8475 322.117ZM67.0328 322H68.0797V317.547C68.0797 316.055 68.8844 315.016 70.275 315.016C71.6422 315.016 72.1891 315.906 72.1891 317.297V322H73.2359V317.055C73.2047 315.367 72.3297 314.07 70.5094 314.07C69.4781 314.07 68.5719 314.57 68.0797 315.523V310.961H67.0328V322ZM79.1478 322.117C81.3744 322.117 82.9447 320.32 82.9447 318.078C82.9447 315.852 81.3744 314.07 79.1478 314.07C76.9291 314.07 75.3822 315.852 75.3822 318.078C75.3822 320.328 76.9291 322.117 79.1478 322.117ZM79.1478 321.219C77.4603 321.219 76.4525 319.812 76.4525 318.078C76.4525 316.352 77.4603 314.977 79.1478 314.977C80.8509 314.977 81.8744 316.359 81.8744 318.078C81.8744 319.805 80.8509 321.219 79.1478 321.219ZM86.4034 322H87.38L89.5128 315.617L91.6456 322H92.6222L94.9034 314.195H93.7941L92.0753 320.438L89.9894 314.195H89.0441L86.9503 320.445L85.2394 314.195H84.13L86.4034 322Z" fill="#363641"/>
<path fill-rule="evenodd" clip-rule="evenodd" d="M0 3C0 1.34315 1.34315 0 3 0H279C280.657 0 282 1.34315 282 3V234C282 235.657 280.657 237 279 237H3C1.34315 237 0 235.657 0 234V3Z" fill="white"/>
<path d="M0.5 3C0.5 1.61929 1.61929 0.5 3 0.5H279C280.381 0.5 281.5 1.61929 281.5 3V234C281.5 235.381 280.381 236.5 279 236.5H3C1.61929 236.5 0.5 235.381 0.5 234V3Z" stroke="#D1D1D1" stroke-opacity="0.5"/>
<mask id="mask0" mask-type="alpha" maskUnits="userSpaceOnUse" x="0" y="0" width="282" height="237">
<path fill-rule="evenodd" clip-rule="evenodd" d="M0 3C0 1.34315 1.34315 0 3 0H279C280.657 0 282 1.34315 282 3V234C282 235.657 280.657 237 279 237H3C1.34315 237 0 235.657 0 234V3Z" fill="white"/>
<path d="M0.5 3C0.5 1.61929 1.61929 0.5 3 0.5H279C280.381 0.5 281.5 1.61929 281.5 3V234C281.5 235.381 280.381 236.5 279 236.5H3C1.61929 236.5 0.5 235.381 0.5 234V3Z" stroke="white"/>
</mask>
<g mask="url(#mask0)">
<path fill-rule="evenodd" clip-rule="evenodd" d="M79 110C79 108.343 80.3431 107 82 107L201 107C202.657 107 204 108.343 204 110V127C204 128.657 202.657 130 201 130H82C80.3431 130 79 128.657 79 127V110Z" fill="#E3EEF1"/>
<mask id="mask1" mask-type="alpha" maskUnits="userSpaceOnUse" x="79" y="107" width="125" height="23">
<path fill-rule="evenodd" clip-rule="evenodd" d="M79 110C79 108.343 80.3431 107 82 107L201 107C202.657 107 204 108.343 204 110V127C204 128.657 202.657 130 201 130H82C80.3431 130 79 128.657 79 127V110Z" fill="white"/>
</mask>
<g mask="url(#mask1)">
<path opacity="0.5" fill-rule="evenodd" clip-rule="evenodd" d="M163 102C163 101.448 163.448 101 164 101H237C237.552 101 238 101.448 238 102V134C238 134.552 237.552 135 237 135H164C163.448 135 163 134.552 163 134V102Z" fill="#DCCDFF"/>
<path d="M178.552 124L177.88 122.068H174.484L173.8 124H172.504L175.54 115.6H176.824L179.848 124H178.552ZM177.496 120.964L176.476 118.108C176.332 117.716 176.236 117.4 176.188 117.16C176.116 117.448 176.02 117.764 175.9 118.108L174.868 120.964H177.496ZM187.561 124H186.385L182.749 118.3C182.637 118.124 182.525 117.916 182.413 117.676C182.437 118.06 182.449 118.268 182.449 118.3V124H181.201V115.6H182.461L186.001 121.204C186.089 121.348 186.205 121.564 186.349 121.852C186.325 121.612 186.313 121.4 186.313 121.216V115.6H187.561V124ZM192.805 116.8V124H191.557V116.8H189.181V115.6H195.181V116.8H192.805Z" fill="#A683F5"/>
<path opacity="0.75" d="M116.32 125L112.72 114.5H114.115L116.62 122.09C116.8 122.7 116.905 123.055 116.935 123.155C116.975 122.965 117.075 122.61 117.235 122.09L119.665 114.5H121.06L117.475 125H116.32ZM127.317 124.115C126.707 124.825 125.882 125.18 124.842 125.18C123.802 125.18 122.977 124.825 122.367 124.115C121.757 123.405 121.452 122.425 121.452 121.175C121.452 119.925 121.757 118.945 122.367 118.235C122.977 117.515 123.802 117.155 124.842 117.155C125.882 117.155 126.707 117.51 127.317 118.22C127.927 118.93 128.232 119.91 128.232 121.16C128.232 122.41 127.927 123.395 127.317 124.115ZM123.312 123.23C123.682 123.72 124.192 123.965 124.842 123.965C125.492 123.965 125.997 123.72 126.357 123.23C126.727 122.73 126.912 122.04 126.912 121.16C126.912 120.29 126.727 119.605 126.357 119.105C125.997 118.605 125.492 118.355 124.842 118.355C124.192 118.355 123.682 118.605 123.312 119.105C122.952 119.595 122.772 120.285 122.772 121.175C122.772 122.045 122.952 122.73 123.312 123.23ZM132.336 125.18C131.256 125.18 130.716 124.57 130.716 123.35V118.475H129.471V117.335H130.716V114.8L132.021 114.17V117.335H133.911V118.475H132.021V122.915C132.021 123.255 132.076 123.515 132.186 123.695C132.296 123.875 132.506 123.965 132.816 123.965C133.156 123.965 133.536 123.83 133.956 123.56L133.806 124.835C133.366 125.065 132.876 125.18 132.336 125.18ZM137.122 115.715C136.962 115.865 136.767 115.94 136.537 115.94C136.307 115.94 136.112 115.86 135.952 115.7C135.802 115.54 135.727 115.35 135.727 115.13C135.727 114.9 135.807 114.705 135.967 114.545C136.127 114.375 136.317 114.29 136.537 114.29C136.767 114.29 136.962 114.375 137.122 114.545C137.282 114.705 137.362 114.9 137.362 115.13C137.362 115.36 137.282 115.555 137.122 115.715ZM135.892 125V117.335H137.197V125H135.892ZM144.41 125V120.365C144.41 119.675 144.26 119.17 143.96 118.85C143.67 118.52 143.27 118.355 142.76 118.355C141.58 118.355 140.99 119.015 140.99 120.335V125H139.685V117.335H140.99V118.115C141.46 117.475 142.12 117.155 142.97 117.155C143.87 117.155 144.55 117.43 145.01 117.98C145.48 118.52 145.715 119.39 145.715 120.59V125H144.41ZM150.493 128.105L149.863 127.085C150.973 127.025 151.738 126.83 152.158 126.5C152.588 126.18 152.803 125.74 152.803 125.18V124.25C152.353 124.87 151.693 125.18 150.823 125.18C149.923 125.18 149.173 124.83 148.573 124.13C147.983 123.43 147.688 122.44 147.688 121.16C147.688 119.92 147.978 118.945 148.558 118.235C149.148 117.515 149.918 117.155 150.868 117.155C151.668 117.155 152.313 117.425 152.803 117.965V117.335H154.108V124.685C154.108 125.855 153.793 126.7 153.163 127.22C152.543 127.74 151.653 128.035 150.493 128.105ZM151.093 123.965C151.413 123.965 151.728 123.87 152.038 123.68C152.358 123.48 152.613 123.215 152.803 122.885V119.375C152.623 119.075 152.368 118.83 152.038 118.64C151.708 118.45 151.393 118.355 151.093 118.355C150.413 118.355 149.893 118.6 149.533 119.09C149.183 119.57 149.008 120.26 149.008 121.16C149.008 122.03 149.198 122.715 149.578 123.215C149.968 123.715 150.473 123.965 151.093 123.965Z" fill="black"/>
<rect x="78" y="105" width="27" height="27" fill="url(#paint0_linear)"/>
<g clip-path="url(#clip0)">
<path d="M98 113.538L97.7886 113.15L96.8721 113.711L95.3576 110.928L96.2389 110.388L96.0275 110L94.78 110.764L95.033 111.229C94.8307 111.244 94.6484 111.253 94.481 111.253C93.9789 111.253 93.5793 111.175 92.9246 111.012C92.8503 110.994 92.7743 110.985 92.6989 110.985C92.047 110.985 91.6111 111.651 91.4539 111.938C91.1526 112.488 91.0563 112.666 90.9603 112.844C90.8761 113 90.7923 113.156 90.57 113.561L90.262 113.368L88.2761 116.55H86.9224L85.0017 118.143L85.0021 118.143H85V119.966H85.7792V125H86.202V119.966H94.2628V125H94.6857V119.966H95.4655V118.143H95.4636L95.4657 118.14L93.5362 116.55H93.215L93.7805 115.581L93.3376 115.302L93.3608 115.292C93.6213 115.18 93.8612 115.144 94.1362 115.17C94.1881 115.175 94.241 115.178 94.2947 115.178C94.6823 115.178 95.0534 115.04 95.3128 114.799C95.3837 114.733 95.4478 114.682 95.5271 114.628L96.5158 113.953L96.7176 114.324L98 113.538ZM95.0427 119.517H85.4229V118.592H95.0427V119.517ZM93.3912 116.998L94.78 118.143H85.6876L87.068 116.998H87.9962L87.8085 117.299H87.3773V117.748H93.0881V117.299H92.7776L92.9532 116.998H93.3912ZM93.1941 115.733L92.292 117.279L88.33 117.276L90.3928 113.971L90.6432 114.129L91.0219 114.403C90.7501 114.648 90.643 115.059 90.784 115.428C90.9145 115.77 91.224 115.99 91.5726 115.99C91.6815 115.99 91.7882 115.968 91.8897 115.925L92.8451 115.514L93.1941 115.733ZM95.2982 114.25C95.2006 114.317 95.1216 114.38 95.0342 114.461C94.8509 114.632 94.5812 114.729 94.2947 114.729C94.2539 114.729 94.2137 114.727 94.1744 114.723C93.827 114.69 93.5259 114.737 93.202 114.876L91.7309 115.509C91.5186 115.6 91.2607 115.481 91.1758 115.26C91.0876 115.029 91.193 114.764 91.4106 114.671L91.972 114.429L93.3962 113.737C93.452 113.71 93.4939 113.659 93.5111 113.596C93.5282 113.533 93.519 113.466 93.4854 113.411L93.4454 113.346C93.3128 113.128 93.1053 112.995 92.8616 112.973C92.8372 112.97 92.813 112.97 92.7891 112.97C92.571 112.97 92.376 113.061 92.2255 113.233C92.0933 113.384 91.9757 113.605 91.8813 113.783C91.837 113.866 91.7912 113.952 91.7596 114C91.6961 114.041 91.5259 114.122 91.4316 114.156L90.9314 113.795C91.1575 113.382 91.2422 113.225 91.3273 113.068C91.423 112.89 91.519 112.712 91.8195 112.164C92.0702 111.706 92.399 111.433 92.6989 111.433C92.7419 111.433 92.7852 111.439 92.8281 111.449C93.5005 111.616 93.9407 111.702 94.481 111.702C94.7141 111.702 94.9731 111.685 95.2672 111.66L96.3038 113.564L95.2982 114.25ZM92.4035 113.726C92.4472 113.654 92.492 113.588 92.5357 113.538C92.6052 113.458 92.6906 113.418 92.7894 113.418C92.8011 113.418 92.813 113.418 92.8251 113.42C92.8733 113.424 92.917 113.437 92.9562 113.458L92.4035 113.726Z" fill="white"/>
</g>
</g>
<path fill-rule="evenodd" clip-rule="evenodd" d="M0 237H282V227H0V237Z" fill="#FB7372"/>
</g>
<defs>
<linearGradient id="paint0_linear" x1="78" y1="100.498" x2="68.9953" y2="127.498" gradientUnits="userSpaceOnUse">
<stop stop-color="#A8ED2F"/>
<stop offset="1" stop-color="#68DFB1"/>
</linearGradient>
<clipPath id="clip0">
<rect width="16" height="20" fill="white" transform="matrix(-1 0 0 1 100 110)"/>
</clipPath>
</defs>
</svg>
