<svg width="310" height="336" viewBox="0 0 286 336" fill="none" xmlns="http://www.w3.org/2000/svg">
<path d="M1.64062 262H4.4165C7.81494 262 9.71191 260.14 9.71191 256.902C9.71191 253.533 7.85889 251.651 4.43115 251.651H1.64062V262ZM2.64404 261.07V252.581H4.4165C7.31689 252.581 8.7085 253.98 8.7085 256.866C8.7085 259.737 7.08252 261.07 4.32861 261.07H2.64404ZM14.8901 262.11C16.9775 262.11 18.4497 260.425 18.4497 258.323C18.4497 256.236 16.9775 254.566 14.8901 254.566C12.8101 254.566 11.3599 256.236 11.3599 258.323C11.3599 260.433 12.8101 262.11 14.8901 262.11ZM14.8901 261.268C13.3081 261.268 12.3633 259.949 12.3633 258.323C12.3633 256.705 13.3081 255.416 14.8901 255.416C16.4868 255.416 17.4463 256.712 17.4463 258.323C17.4463 259.942 16.4868 261.268 14.8901 261.268Z" fill="#4EDDA4"/>
<path d="M1.75 293H8.96875V291.984H2.82031V287.953H8.35156V286.961H2.82031V282.953H8.96875V281.961H1.75V293ZM10.5681 293H11.8337L14.115 289.797L16.4041 293H17.6697L14.7947 289.078L17.6619 285.195H16.3962L14.115 288.367L11.8259 285.195H10.5681L13.4353 289.078L10.5681 293ZM19.7066 296.234H20.7691V291.281C21.2612 292.422 22.3159 293.117 23.5581 293.117C25.6675 293.117 26.8784 291.32 26.8784 289.102C26.8784 286.891 25.6675 285.07 23.5737 285.07C22.3394 285.07 21.2612 285.766 20.7691 286.922V285.195H19.7066V296.234ZM23.3316 292.18C21.7066 292.18 20.6831 290.852 20.6831 289.102C20.6831 287.352 21.7066 286.031 23.3316 286.031C24.9644 286.031 25.8394 287.367 25.8394 289.102C25.8394 290.828 24.9644 292.18 23.3316 292.18ZM32.3841 293.117C34.6106 293.117 36.1809 291.32 36.1809 289.078C36.1809 286.852 34.6106 285.07 32.3841 285.07C30.1653 285.07 28.6184 286.852 28.6184 289.078C28.6184 291.328 30.1653 293.117 32.3841 293.117ZM32.3841 292.219C30.6966 292.219 29.6887 290.812 29.6887 289.078C29.6887 287.352 30.6966 285.977 32.3841 285.977C34.0872 285.977 35.1106 287.359 35.1106 289.078C35.1106 290.805 34.0872 292.219 32.3841 292.219ZM38.5459 293H39.5459V289.016C39.5459 286.898 40.7803 286.078 41.8194 286.078C42.1319 286.078 42.4366 286.156 42.71 286.305L43.1787 285.445C42.8428 285.195 42.3975 285.07 41.96 285.07C41.0303 285.07 39.9444 285.625 39.5537 286.828V285.195H38.5459V293ZM47.7547 293.117C48.1922 293.117 48.6141 293.039 48.8562 292.961L48.8406 292.016C48.6219 292.102 48.2703 292.203 47.9266 292.203C47.0984 292.203 46.6609 291.75 46.6609 290.648V286.07H48.8484V285.195H46.6609V282.18L45.6453 282.938V285.195H44.3328V286.07H45.6297V290.812C45.6297 292.305 46.3719 293.117 47.7547 293.117ZM58.0706 285.07C56.6878 285.07 55.7816 285.633 55.0238 286.68L55.8128 287.258C56.3519 286.453 57.0394 285.984 58.0784 285.984C59.6409 285.984 60.2425 286.766 60.2425 288.414V288.508H57.9925C55.9769 288.508 54.7191 289.148 54.7191 290.734C54.7191 292.234 55.8284 293.117 57.4144 293.117C58.5784 293.117 59.6644 292.547 60.2503 291.414L60.3206 293H61.18V288.234C61.18 286.273 60.0706 285.07 58.0706 285.07ZM57.6097 292.234C56.4378 292.234 55.7738 291.656 55.7738 290.766C55.7738 289.828 56.5081 289.273 58.0472 289.273H60.2425V290.07C59.8831 291.352 58.9691 292.234 57.6097 292.234ZM66.3262 293.117C67.8497 293.117 69.0997 292.328 69.0997 290.766C69.0997 287.773 64.545 289.023 64.545 287.086C64.545 286.391 65.1856 285.906 66.1934 285.906C67.1466 285.906 67.795 286.43 68.17 287.133L68.9669 286.703C68.42 285.672 67.4591 285.07 66.2247 285.07C64.7325 285.07 63.5528 285.828 63.5528 287.219C63.5528 290.039 68.0841 288.695 68.0841 290.812C68.0841 291.633 67.4591 292.25 66.2794 292.25C65.0684 292.25 64.295 291.531 63.9981 290.695L63.1622 291.062C63.5606 292.25 64.7872 293.117 66.3262 293.117ZM78.4625 285.07C77.0797 285.07 76.1734 285.633 75.4156 286.68L76.2047 287.258C76.7437 286.453 77.4312 285.984 78.4703 285.984C80.0328 285.984 80.6344 286.766 80.6344 288.414V288.508H78.3844C76.3687 288.508 75.1109 289.148 75.1109 290.734C75.1109 292.234 76.2203 293.117 77.8062 293.117C78.9703 293.117 80.0562 292.547 80.6422 291.414L80.7125 293H81.5719V288.234C81.5719 286.273 80.4625 285.07 78.4625 285.07ZM78.0016 292.234C76.8297 292.234 76.1656 291.656 76.1656 290.766C76.1656 289.828 76.9 289.273 78.4391 289.273H80.6344V290.07C80.275 291.352 79.3609 292.234 78.0016 292.234ZM91.0519 293.117C92.5753 293.117 93.8253 292.328 93.8253 290.766C93.8253 287.773 89.2706 289.023 89.2706 287.086C89.2706 286.391 89.9112 285.906 90.9191 285.906C91.8722 285.906 92.5206 286.43 92.8956 287.133L93.6925 286.703C93.1456 285.672 92.1847 285.07 90.9503 285.07C89.4581 285.07 88.2784 285.828 88.2784 287.219C88.2784 290.039 92.8097 288.695 92.8097 290.812C92.8097 291.633 92.1847 292.25 91.005 292.25C89.7941 292.25 89.0206 291.531 88.7237 290.695L87.8878 291.062C88.2862 292.25 89.5128 293.117 91.0519 293.117ZM102.714 296.234V285.195H101.651V286.922C101.159 285.766 100.081 285.07 98.8466 285.07C96.7528 285.07 95.5419 286.891 95.5419 289.102C95.5419 291.32 96.7528 293.117 98.8622 293.117C100.104 293.117 101.159 292.422 101.651 291.281V296.234H102.714ZM99.0887 292.18C97.4559 292.18 96.5809 290.828 96.5809 289.102C96.5809 287.367 97.4559 286.031 99.0887 286.031C100.714 286.031 101.737 287.352 101.737 289.102C101.737 290.852 100.714 292.18 99.0887 292.18ZM108.282 293.117C109.313 293.117 110.243 292.625 110.727 291.672V293H111.751V285.195H110.727V289.805C110.727 291.328 109.868 292.156 108.555 292.156C107.274 292.156 106.602 291.32 106.602 289.898V285.195H105.579V290.133C105.61 291.82 106.454 293.117 108.282 293.117ZM117.428 285.07C116.045 285.07 115.139 285.633 114.381 286.68L115.17 287.258C115.709 286.453 116.397 285.984 117.436 285.984C118.998 285.984 119.6 286.766 119.6 288.414V288.508H117.35C115.334 288.508 114.077 289.148 114.077 290.734C114.077 292.234 115.186 293.117 116.772 293.117C117.936 293.117 119.022 292.547 119.608 291.414L119.678 293H120.537V288.234C120.537 286.273 119.428 285.07 117.428 285.07ZM116.967 292.234C115.795 292.234 115.131 291.656 115.131 290.766C115.131 289.828 115.866 289.273 117.405 289.273H119.6V290.07C119.241 291.352 118.327 292.234 116.967 292.234ZM123.363 293H124.363V289.016C124.363 286.898 125.598 286.078 126.637 286.078C126.949 286.078 127.254 286.156 127.527 286.305L127.996 285.445C127.66 285.195 127.215 285.07 126.777 285.07C125.848 285.07 124.762 285.625 124.371 286.828V285.195H123.363V293ZM132.267 293.117C133.525 293.117 134.408 292.734 135.283 291.82L134.564 291.188C133.861 291.922 133.213 292.18 132.275 292.18C130.705 292.18 129.799 291.117 129.721 289.375H135.471C135.502 289.258 135.525 288.945 135.525 288.68C135.525 287.133 134.689 285.07 132.142 285.07C129.869 285.07 128.627 286.93 128.627 289.133C128.627 291.375 129.916 293.117 132.267 293.117ZM129.721 288.609C129.853 287.047 130.713 285.953 132.135 285.953C133.682 285.953 134.385 287.062 134.478 288.117C134.502 288.273 134.502 288.445 134.494 288.609H129.721ZM144.857 285.07C143.474 285.07 142.568 285.633 141.81 286.68L142.599 287.258C143.138 286.453 143.826 285.984 144.865 285.984C146.427 285.984 147.029 286.766 147.029 288.414V288.508H144.779C142.763 288.508 141.505 289.148 141.505 290.734C141.505 292.234 142.615 293.117 144.201 293.117C145.365 293.117 146.451 292.547 147.037 291.414L147.107 293H147.966V288.234C147.966 286.273 146.857 285.07 144.857 285.07ZM144.396 292.234C143.224 292.234 142.56 291.656 142.56 290.766C142.56 289.828 143.294 289.273 144.833 289.273H147.029V290.07C146.669 291.352 145.755 292.234 144.396 292.234ZM153.112 293.117C154.636 293.117 155.886 292.328 155.886 290.766C155.886 287.773 151.331 289.023 151.331 287.086C151.331 286.391 151.972 285.906 152.98 285.906C153.933 285.906 154.581 286.43 154.956 287.133L155.753 286.703C155.206 285.672 154.245 285.07 153.011 285.07C151.519 285.07 150.339 285.828 150.339 287.219C150.339 290.039 154.87 288.695 154.87 290.812C154.87 291.633 154.245 292.25 153.066 292.25C151.855 292.25 151.081 291.531 150.784 290.695L149.948 291.062C150.347 292.25 151.573 293.117 153.112 293.117ZM160.602 293.117C162.126 293.117 163.376 292.328 163.376 290.766C163.376 287.773 158.821 289.023 158.821 287.086C158.821 286.391 159.462 285.906 160.47 285.906C161.423 285.906 162.071 286.43 162.446 287.133L163.243 286.703C162.696 285.672 161.735 285.07 160.501 285.07C159.009 285.07 157.829 285.828 157.829 287.219C157.829 290.039 162.36 288.695 162.36 290.812C162.36 291.633 161.735 292.25 160.556 292.25C159.345 292.25 158.571 291.531 158.274 290.695L157.438 291.062C157.837 292.25 159.063 293.117 160.602 293.117ZM168.717 293.117C169.975 293.117 170.858 292.734 171.733 291.82L171.014 291.188C170.311 291.922 169.663 292.18 168.725 292.18C167.155 292.18 166.249 291.117 166.171 289.375H171.921C171.952 289.258 171.975 288.945 171.975 288.68C171.975 287.133 171.139 285.07 168.592 285.07C166.319 285.07 165.077 286.93 165.077 289.133C165.077 291.375 166.366 293.117 168.717 293.117ZM166.171 288.609C166.303 287.047 167.163 285.953 168.585 285.953C170.132 285.953 170.835 287.062 170.928 288.117C170.952 288.273 170.952 288.445 170.944 288.609H166.171ZM176.715 293.117C177.153 293.117 177.575 293.039 177.817 292.961L177.801 292.016C177.582 292.102 177.231 292.203 176.887 292.203C176.059 292.203 175.622 291.75 175.622 290.648V286.07H177.809V285.195H175.622V282.18L174.606 282.938V285.195H173.293V286.07H174.59V290.812C174.59 292.305 175.332 293.117 176.715 293.117ZM183.531 288.539H187.75V287.734H183.531V288.539ZM195.55 293H196.527L198.66 286.617L200.792 293H201.769L204.05 285.195H202.941L201.222 291.438L199.136 285.195H198.191L196.097 291.445L194.386 285.195H193.277L195.55 293ZM208.908 293.117C210.165 293.117 211.048 292.734 211.923 291.82L211.204 291.188C210.501 291.922 209.853 292.18 208.915 292.18C207.345 292.18 206.439 291.117 206.361 289.375H212.111C212.142 289.258 212.165 288.945 212.165 288.68C212.165 287.133 211.329 285.07 208.783 285.07C206.509 285.07 205.267 286.93 205.267 289.133C205.267 291.375 206.556 293.117 208.908 293.117ZM206.361 288.609C206.493 287.047 207.353 285.953 208.775 285.953C210.322 285.953 211.025 287.062 211.118 288.117C211.142 288.273 211.142 288.445 211.134 288.609H206.361ZM220.161 293H221.137L223.27 286.617L225.403 293H226.38L228.661 285.195H227.552L225.833 291.438L223.747 285.195H222.802L220.708 291.445L218.997 285.195H217.887L220.161 293ZM230.69 283.562H231.768V281.961H230.69V283.562ZM230.713 293H231.737V285.195H230.713V293ZM236.18 293.117C236.516 293.117 236.938 293.062 237.282 292.992L237.266 292.109C237.032 292.156 236.797 292.188 236.633 292.188C235.852 292.188 235.774 291.688 235.774 291.086V281.961H234.742V291.352C234.742 292.453 235.071 293.117 236.18 293.117ZM240.717 293.117C241.053 293.117 241.475 293.062 241.818 292.992L241.803 292.109C241.568 292.156 241.334 292.188 241.17 292.188C240.389 292.188 240.311 291.688 240.311 291.086V281.961H239.279V291.352C239.279 292.453 239.607 293.117 240.717 293.117ZM248.197 293H249.228V288.375C249.228 287.016 250.048 286.039 251.353 286.039C252.634 286.039 253.189 286.898 253.189 288.281V293H254.22V288.375C254.22 287.016 255.041 286.039 256.337 286.039C257.666 286.039 258.181 286.945 258.181 288.562V293H259.212V288.438C259.212 286.438 258.4 285.07 256.525 285.07C255.369 285.07 254.408 285.656 253.947 286.797C253.595 285.602 252.689 285.07 251.541 285.07C250.494 285.07 249.619 285.555 249.189 286.555V285.195H248.189L248.197 293ZM264.687 285.07C263.304 285.07 262.398 285.633 261.64 286.68L262.429 287.258C262.968 286.453 263.656 285.984 264.695 285.984C266.257 285.984 266.859 286.766 266.859 288.414V288.508H264.609C262.593 288.508 261.335 289.148 261.335 290.734C261.335 292.234 262.445 293.117 264.031 293.117C265.195 293.117 266.281 292.547 266.867 291.414L266.937 293H267.796V288.234C267.796 286.273 266.687 285.07 264.687 285.07ZM264.226 292.234C263.054 292.234 262.39 291.656 262.39 290.766C262.39 289.828 263.124 289.273 264.663 289.273H266.859V290.07C266.499 291.352 265.585 292.234 264.226 292.234ZM272.943 293.117C274.466 293.117 275.716 292.328 275.716 290.766C275.716 287.773 271.161 289.023 271.161 287.086C271.161 286.391 271.802 285.906 272.81 285.906C273.763 285.906 274.411 286.43 274.786 287.133L275.583 286.703C275.036 285.672 274.075 285.07 272.841 285.07C271.349 285.07 270.169 285.828 270.169 287.219C270.169 290.039 274.7 288.695 274.7 290.812C274.7 291.633 274.075 292.25 272.896 292.25C271.685 292.25 270.911 291.531 270.614 290.695L269.778 291.062C270.177 292.25 271.403 293.117 272.943 293.117ZM278.128 293H279.159V290.688L280.995 288.758L283.761 293H284.987L281.698 288.109L284.526 285.195H283.175L279.159 289.438V281.961H278.128V293ZM3.77344 322.117C4.21094 322.117 4.63281 322.039 4.875 321.961L4.85938 321.016C4.64062 321.102 4.28906 321.203 3.94531 321.203C3.11719 321.203 2.67969 320.75 2.67969 319.648V315.07H4.86719V314.195H2.67969V311.18L1.66406 311.938V314.195H0.351562V315.07H1.64844V319.812C1.64844 321.305 2.39062 322.117 3.77344 322.117ZM6.95094 322H7.99781V317.547C7.99781 316.055 8.8025 315.016 10.1931 315.016C11.5603 315.016 12.1072 315.906 12.1072 317.297V322H13.1541V317.055C13.1228 315.367 12.2478 314.07 10.4275 314.07C9.39625 314.07 8.49 314.57 7.99781 315.523V310.961H6.95094V322ZM18.9956 322.117C20.2534 322.117 21.1362 321.734 22.0112 320.82L21.2925 320.188C20.5894 320.922 19.9409 321.18 19.0034 321.18C17.4331 321.18 16.5269 320.117 16.4487 318.375H22.1987C22.23 318.258 22.2534 317.945 22.2534 317.68C22.2534 316.133 21.4175 314.07 18.8706 314.07C16.5972 314.07 15.355 315.93 15.355 318.133C15.355 320.375 16.6441 322.117 18.9956 322.117ZM16.4487 317.609C16.5816 316.047 17.4409 314.953 18.8628 314.953C20.4097 314.953 21.1128 316.062 21.2066 317.117C21.23 317.273 21.23 317.445 21.2222 317.609H16.4487ZM28.9522 322H29.9522V318.016C29.9522 315.898 31.1866 315.078 32.2256 315.078C32.5381 315.078 32.8428 315.156 33.1162 315.305L33.585 314.445C33.2491 314.195 32.8037 314.07 32.3662 314.07C31.4366 314.07 30.3506 314.625 29.96 315.828V314.195H28.9522V322ZM37.9266 322.117C40.1531 322.117 41.7234 320.32 41.7234 318.078C41.7234 315.852 40.1531 314.07 37.9266 314.07C35.7078 314.07 34.1609 315.852 34.1609 318.078C34.1609 320.328 35.7078 322.117 37.9266 322.117ZM37.9266 321.219C36.2391 321.219 35.2312 319.812 35.2312 318.078C35.2312 316.352 36.2391 314.977 37.9266 314.977C39.6297 314.977 40.6531 316.359 40.6531 318.078C40.6531 319.805 39.6297 321.219 37.9266 321.219ZM46.5337 322.117C47.565 322.117 48.4947 321.625 48.9791 320.672V322H50.0025V314.195H48.9791V318.805C48.9791 320.328 48.1197 321.156 46.8072 321.156C45.5259 321.156 44.8541 320.32 44.8541 318.898V314.195H43.8306V319.133C43.8619 320.82 44.7056 322.117 46.5337 322.117ZM53.0472 322H54.0784V317.383C54.0784 315.867 54.93 315.031 56.2503 315.031C57.5316 315.031 58.2034 315.875 58.2034 317.297V322H59.2347V317.055C59.2034 315.367 58.3441 314.07 56.5238 314.07C55.4925 314.07 54.5706 314.57 54.0784 315.523V314.195H53.0472V322ZM64.9122 322.117C66.1622 322.117 67.2481 321.406 67.7325 320.227L67.7716 322H68.7403V310.961H67.6934V315.914C67.2091 314.766 66.1231 314.07 64.8966 314.07C62.795 314.07 61.4278 315.883 61.4278 318.086C61.4278 320.312 62.795 322.117 64.9122 322.117ZM65.1387 321.18C63.5137 321.18 62.4747 319.828 62.4747 318.086C62.4747 316.359 63.5137 315.016 65.1387 315.016C66.7637 315.016 67.7716 316.344 67.7716 318.086C67.7716 319.852 66.7637 321.18 65.1387 321.18ZM74.8006 322.117C76.0584 322.117 76.9412 321.734 77.8162 320.82L77.0975 320.188C76.3944 320.922 75.7459 321.18 74.8084 321.18C73.2381 321.18 72.3319 320.117 72.2537 318.375H78.0037C78.035 318.258 78.0584 317.945 78.0584 317.68C78.0584 316.133 77.2225 314.07 74.6756 314.07C72.4022 314.07 71.16 315.93 71.16 318.133C71.16 320.375 72.4491 322.117 74.8006 322.117ZM72.2537 317.609C72.3866 316.047 73.2459 314.953 74.6678 314.953C76.2147 314.953 76.9178 316.062 77.0116 317.117C77.035 317.273 77.035 317.445 77.0272 317.609H72.2537ZM83.2672 322.117C84.5172 322.117 85.6031 321.406 86.0875 320.227L86.1266 322H87.0953V310.961H86.0484V315.914C85.5641 314.766 84.4781 314.07 83.2516 314.07C81.15 314.07 79.7828 315.883 79.7828 318.086C79.7828 320.312 81.15 322.117 83.2672 322.117ZM83.4937 321.18C81.8687 321.18 80.8297 319.828 80.8297 318.086C80.8297 316.359 81.8687 315.016 83.4937 315.016C85.1187 315.016 86.1266 316.344 86.1266 318.086C86.1266 319.852 85.1187 321.18 83.4937 321.18ZM97.4894 322.117C98.7472 322.117 99.63 321.734 100.505 320.82L99.7862 320.188C99.0831 320.922 98.4347 321.18 97.4972 321.18C95.9269 321.18 95.0206 320.117 94.9425 318.375H100.692C100.724 318.258 100.747 317.945 100.747 317.68C100.747 316.133 99.9112 314.07 97.3644 314.07C95.0909 314.07 93.8487 315.93 93.8487 318.133C93.8487 320.375 95.1378 322.117 97.4894 322.117ZM94.9425 317.609C95.0753 316.047 95.9347 314.953 97.3566 314.953C98.9034 314.953 99.6066 316.062 99.7003 317.117C99.7237 317.273 99.7237 317.445 99.7159 317.609H94.9425ZM105.956 322.117C107.206 322.117 108.292 321.406 108.776 320.227L108.815 322H109.784V310.961H108.737V315.914C108.253 314.766 107.167 314.07 105.94 314.07C103.839 314.07 102.472 315.883 102.472 318.086C102.472 320.312 103.839 322.117 105.956 322.117ZM106.182 321.18C104.557 321.18 103.518 319.828 103.518 318.086C103.518 316.359 104.557 315.016 106.182 315.016C107.807 315.016 108.815 316.344 108.815 318.086C108.815 319.852 107.807 321.18 106.182 321.18ZM115.735 321.062C114.344 320.859 113.266 320.734 113.266 319.875C113.266 319.508 113.462 319.242 113.883 319.055C114.344 319.312 114.907 319.461 115.524 319.461C117.173 319.461 118.454 318.414 118.454 316.812C118.454 316.25 118.298 315.75 118.032 315.336L119.079 314.453L118.532 313.781L117.469 314.719C116.954 314.305 116.266 314.07 115.501 314.07C113.837 314.07 112.54 315.18 112.54 316.758C112.54 317.461 112.79 318.07 113.219 318.531C112.665 318.914 112.376 319.383 112.376 320.039C112.376 320.828 112.805 321.266 113.399 321.531L112.219 322.609C112.204 322.711 112.196 322.812 112.196 322.953C112.196 324.492 113.493 325.586 115.712 325.586C117.61 325.586 118.969 324.742 118.969 323.219C118.969 321.547 117.313 321.305 115.735 321.062ZM115.532 314.891C116.696 314.891 117.43 315.664 117.43 316.773C117.43 317.859 116.704 318.609 115.524 318.609C114.344 318.609 113.61 317.852 113.61 316.766C113.61 315.672 114.376 314.891 115.532 314.891ZM115.704 324.766C114.29 324.766 113.258 324.172 113.149 323.078C113.141 323 113.133 322.922 113.133 322.828L114.04 321.742C114.477 321.844 114.946 321.906 115.383 321.969C116.868 322.18 117.985 322.328 117.985 323.32C117.985 324.234 117.087 324.766 115.704 324.766ZM124.209 322.117C125.467 322.117 126.35 321.734 127.225 320.82L126.506 320.188C125.803 320.922 125.155 321.18 124.217 321.18C122.647 321.18 121.741 320.117 121.662 318.375H127.412C127.444 318.258 127.467 317.945 127.467 317.68C127.467 316.133 126.631 314.07 124.084 314.07C121.811 314.07 120.569 315.93 120.569 318.133C120.569 320.375 121.858 322.117 124.209 322.117ZM121.662 317.609C121.795 316.047 122.655 314.953 124.077 314.953C125.623 314.953 126.327 316.062 126.42 317.117C126.444 317.273 126.444 317.445 126.436 317.609H121.662ZM132.152 322.117C133.676 322.117 134.926 321.328 134.926 319.766C134.926 316.773 130.371 318.023 130.371 316.086C130.371 315.391 131.012 314.906 132.02 314.906C132.973 314.906 133.621 315.43 133.996 316.133L134.793 315.703C134.246 314.672 133.285 314.07 132.051 314.07C130.559 314.07 129.379 314.828 129.379 316.219C129.379 319.039 133.91 317.695 133.91 319.812C133.91 320.633 133.285 321.25 132.106 321.25C130.895 321.25 130.121 320.531 129.824 319.695L128.988 320.062C129.387 321.25 130.613 322.117 132.152 322.117ZM142.195 322H143.257V315.07H145.547V314.195H143.257V313.078C143.257 312.18 143.711 311.766 144.507 311.766C144.742 311.766 144.984 311.852 145.234 311.984L145.578 311.133C145.218 310.953 144.828 310.844 144.414 310.844C143.117 310.844 142.203 311.578 142.203 312.984V314.195H140.57V315.07H142.195V322ZM150.24 322.117C152.466 322.117 154.037 320.32 154.037 318.078C154.037 315.852 152.466 314.07 150.24 314.07C148.021 314.07 146.474 315.852 146.474 318.078C146.474 320.328 148.021 322.117 150.24 322.117ZM150.24 321.219C148.552 321.219 147.544 319.812 147.544 318.078C147.544 316.352 148.552 314.977 150.24 314.977C151.943 314.977 152.966 316.359 152.966 318.078C152.966 319.805 151.943 321.219 150.24 321.219ZM156.402 322H157.402V318.016C157.402 315.898 158.636 315.078 159.675 315.078C159.987 315.078 160.292 315.156 160.566 315.305L161.034 314.445C160.698 314.195 160.253 314.07 159.816 314.07C158.886 314.07 157.8 314.625 157.409 315.828V314.195H156.402V322ZM168.046 325.344H169.171L173.452 314.195H172.327L169.921 320.695L167.186 314.195H166.053L169.374 321.906L168.046 325.344ZM178.106 322.117C180.332 322.117 181.903 320.32 181.903 318.078C181.903 315.852 180.332 314.07 178.106 314.07C175.887 314.07 174.34 315.852 174.34 318.078C174.34 320.328 175.887 322.117 178.106 322.117ZM178.106 321.219C176.418 321.219 175.411 319.812 175.411 318.078C175.411 316.352 176.418 314.977 178.106 314.977C179.809 314.977 180.832 316.359 180.832 318.078C180.832 319.805 179.809 321.219 178.106 321.219ZM186.713 322.117C187.744 322.117 188.674 321.625 189.158 320.672V322H190.182V314.195H189.158V318.805C189.158 320.328 188.299 321.156 186.987 321.156C185.705 321.156 185.033 320.32 185.033 318.898V314.195H184.01V319.133C184.041 320.82 184.885 322.117 186.713 322.117Z" fill="#363641"/>
<path fill-rule="evenodd" clip-rule="evenodd" d="M0 3C0 1.34315 1.34315 0 3 0H279C280.657 0 282 1.34315 282 3V234C282 235.657 280.657 237 279 237H3C1.34315 237 0 235.657 0 234V3Z" fill="white"/>
<path d="M0.5 3C0.5 1.61929 1.61929 0.5 3 0.5H279C280.381 0.5 281.5 1.61929 281.5 3V234C281.5 235.381 280.381 236.5 279 236.5H3C1.61929 236.5 0.5 235.381 0.5 234V3Z" stroke="#D1D1D1" stroke-opacity="0.5"/>
<mask id="mask0" mask-type="alpha" maskUnits="userSpaceOnUse" x="0" y="0" width="282" height="237">
<path fill-rule="evenodd" clip-rule="evenodd" d="M0 3C0 1.34315 1.34315 0 3 0H279C280.657 0 282 1.34315 282 3V234C282 235.657 280.657 237 279 237H3C1.34315 237 0 235.657 0 234V3Z" fill="white"/>
<path d="M0.5 3C0.5 1.61929 1.61929 0.5 3 0.5H279C280.381 0.5 281.5 1.61929 281.5 3V234C281.5 235.381 280.381 236.5 279 236.5H3C1.61929 236.5 0.5 235.381 0.5 234V3Z" stroke="white"/>
</mask>
<g mask="url(#mask0)">
<rect x="101" y="78" width="80" height="80" fill="url(#paint0_linear)"/>
<rect x="101" y="78" width="80" height="80" rx="23" stroke="#979797" stroke-dasharray="4 4"/>
<g filter="url(#filter0_d)">
<path fill-rule="evenodd" clip-rule="evenodd" d="M161.382 131.253L161.382 131.253C161.364 131.253 161.349 131.256 161.337 131.261C161.331 131.264 161.325 131.268 161.319 131.273C160.665 132.321 159.405 133.281 158.095 134.277C157.148 134.999 156.173 135.741 155.423 136.529C154.452 137.552 154.413 137.854 154.251 139.107L154.232 139.258C154.165 139.773 153.915 140.223 153.554 140.544C153.192 140.867 152.718 141.061 152.206 141.061C152.198 141.061 152.168 141.06 152.116 141.058C151.568 141.034 151.079 140.792 150.726 140.419C150.375 140.046 150.16 139.543 150.16 138.992C150.16 138.983 150.161 138.953 150.164 138.899C150.305 135.675 150.695 135.158 152.696 132.609L144.973 132.628V132.63C144.952 132.63 144.931 132.629 144.91 132.626C144.253 132.594 143.798 132.362 143.488 132.049C143.029 131.587 142.913 130.968 142.913 130.556C142.913 130.539 142.913 130.523 142.915 130.506C142.923 130.128 143.001 129.679 143.28 129.277C143.346 129.183 143.421 129.093 143.508 129.007C141.553 128.678 141.552 127.204 141.552 126.856C141.552 126.211 141.797 125.672 142.2 125.279C142.52 124.968 142.936 124.755 143.406 124.659C143.353 124.607 143.303 124.553 143.255 124.496C142.941 124.122 142.747 123.642 142.747 123.149C142.747 122.591 142.969 122.062 143.328 121.659C143.687 121.257 144.186 120.979 144.738 120.923L144.843 120.912C144.736 120.79 144.645 120.656 144.572 120.514C144.417 120.215 144.335 119.875 144.343 119.524C144.352 119.071 144.498 118.645 144.747 118.295C144.997 117.944 145.351 117.668 145.773 117.515L145.977 117.442L145.976 117.44C146.045 117.415 146.117 117.407 146.186 117.413C148.169 117.41 149.653 117.367 150.838 117.332C155.023 117.21 155.558 117.194 161.511 119.362C161.564 119.381 161.616 119.395 161.667 119.404C161.719 119.414 161.772 119.419 161.825 119.419L164.2 119.434C164.464 119.435 164.701 119.544 164.872 119.718C165.043 119.893 165.148 120.132 165.148 120.393V130.291C165.148 130.554 165.042 130.794 164.871 130.967C164.697 131.144 164.458 131.253 164.195 131.253H161.382Z" fill="#FFFFFE"/>
</g>
<g filter="url(#filter1_d)">
<path fill-rule="evenodd" clip-rule="evenodd" d="M120.481 107.225L120.481 107.225C120.499 107.225 120.514 107.222 120.526 107.217C120.532 107.214 120.538 107.21 120.544 107.205C121.197 106.157 122.458 105.198 123.767 104.201C124.715 103.479 125.69 102.737 126.439 101.949C127.411 100.926 127.45 100.625 127.612 99.3706L127.631 99.2202C127.698 98.7052 127.947 98.2551 128.308 97.9337C128.671 97.6106 129.145 97.417 129.657 97.417C129.665 97.417 129.695 97.4181 129.747 97.4204C130.294 97.4445 130.784 97.6856 131.137 98.0595C131.488 98.4317 131.703 98.9353 131.703 99.4863C131.703 99.4952 131.701 99.5255 131.699 99.5789C131.558 102.803 131.168 103.32 129.167 105.869L136.89 105.85V105.848C136.911 105.848 136.932 105.849 136.953 105.852C137.61 105.884 138.064 106.116 138.375 106.429C138.833 106.891 138.95 107.51 138.95 107.922C138.95 107.939 138.949 107.956 138.948 107.972C138.94 108.35 138.861 108.799 138.582 109.201C138.517 109.295 138.442 109.385 138.355 109.471C140.31 109.8 140.31 111.274 140.31 111.622C140.31 112.268 140.066 112.806 139.662 113.199C139.343 113.51 138.926 113.723 138.456 113.819C138.51 113.871 138.56 113.926 138.608 113.982C138.921 114.356 139.116 114.836 139.116 115.33C139.116 115.887 138.893 116.416 138.535 116.819C138.176 117.221 137.677 117.499 137.125 117.555L137.02 117.566C137.126 117.688 137.217 117.822 137.291 117.965C137.446 118.263 137.527 118.603 137.52 118.954C137.511 119.407 137.364 119.833 137.116 120.183C136.866 120.534 136.512 120.811 136.089 120.963L135.886 121.036L135.887 121.038C135.817 121.063 135.746 121.072 135.677 121.065C133.694 121.068 132.21 121.111 131.025 121.146C126.84 121.268 126.305 121.284 120.351 119.116C120.299 119.097 120.247 119.083 120.196 119.074C120.143 119.064 120.09 119.059 120.037 119.059L117.663 119.044C117.399 119.043 117.161 118.934 116.991 118.76C116.82 118.585 116.714 118.347 116.714 118.085V108.187C116.714 107.924 116.82 107.685 116.992 107.511C117.165 107.334 117.404 107.225 117.667 107.225H120.481Z" fill="#FFFFFE"/>
</g>
<path fill-rule="evenodd" clip-rule="evenodd" d="M0 237H282V227H0V237Z" fill="#4EDDA4"/>
</g>
<defs>
<filter id="filter0_d" x="135.552" y="111.288" width="35.5961" height="35.773" filterUnits="userSpaceOnUse" color-interpolation-filters="sRGB">
<feFlood flood-opacity="0" result="BackgroundImageFix"/>
<feColorMatrix in="SourceAlpha" type="matrix" values="0 0 0 0 0 0 0 0 0 0 0 0 0 0 0 0 0 0 127 0"/>
<feOffset/>
<feGaussianBlur stdDeviation="3"/>
<feColorMatrix type="matrix" values="0 0 0 0 1 0 0 0 0 1 0 0 0 0 1 0 0 0 0.5 0"/>
<feBlend mode="normal" in2="BackgroundImageFix" result="effect1_dropShadow"/>
<feBlend mode="normal" in="SourceGraphic" in2="effect1_dropShadow" result="shape"/>
</filter>
<filter id="filter1_d" x="110.714" y="91.417" width="35.5961" height="35.773" filterUnits="userSpaceOnUse" color-interpolation-filters="sRGB">
<feFlood flood-opacity="0" result="BackgroundImageFix"/>
<feColorMatrix in="SourceAlpha" type="matrix" values="0 0 0 0 0 0 0 0 0 0 0 0 0 0 0 0 0 0 127 0"/>
<feOffset/>
<feGaussianBlur stdDeviation="3"/>
<feColorMatrix type="matrix" values="0 0 0 0 1 0 0 0 0 1 0 0 0 0 1 0 0 0 0.5 0"/>
<feBlend mode="normal" in2="BackgroundImageFix" result="effect1_dropShadow"/>
<feBlend mode="normal" in="SourceGraphic" in2="effect1_dropShadow" result="shape"/>
</filter>
<linearGradient id="paint0_linear" x1="101" y1="64.6597" x2="74.3194" y2="144.66" gradientUnits="userSpaceOnUse">
<stop stop-color="#A8ED2F"/>
<stop offset="1" stop-color="#68DFB1"/>
</linearGradient>
</defs>
</svg>
