<svg width="252" height="252" viewBox="0 0 252 252" fill="none" xmlns="http://www.w3.org/2000/svg">
<g filter="url(#filter0_d)">
<rect x="3" y="2" width="246" height="246" rx="3" fill="white"/>
<rect x="3.5" y="2.5" width="245" height="245" rx="2.5" stroke="#DFE3E8" stroke-opacity="0.75"/>
</g>
<path d="M32.168 36.5811H33.3984L38.127 49H36.4482L35.4111 46.0996H30.1816L29.127 49H27.4395L32.168 36.5811ZM34.9277 44.7725L32.792 38.7959L30.665 44.7725H34.9277ZM41.6865 49.1494C41.1006 49.1494 40.6699 48.9912 40.3945 48.6748C40.125 48.3525 39.9902 47.8545 39.9902 47.1807V36.5811H41.4844V46.7852C41.4844 47.1133 41.5459 47.3652 41.6689 47.541C41.792 47.7168 42.0205 47.8047 42.3545 47.8047C42.5361 47.8047 42.7617 47.7812 43.0312 47.7344L43.04 48.9912C42.5537 49.0967 42.1025 49.1494 41.6865 49.1494ZM48.4277 49.1494C47.5312 49.1494 46.7666 48.9502 46.1338 48.5518C45.501 48.1533 45.0234 47.6143 44.7012 46.9346C44.3789 46.249 44.2178 45.4873 44.2178 44.6494C44.2178 43.8232 44.373 43.0615 44.6836 42.3643C44.9941 41.667 45.4541 41.1104 46.0635 40.6943C46.6787 40.2783 47.417 40.0703 48.2783 40.0703C49.1982 40.0703 49.9482 40.2812 50.5283 40.7031C51.1143 41.125 51.5361 41.6553 51.7939 42.2939C52.0518 42.9268 52.1807 43.5771 52.1807 44.2451C52.1807 44.4033 52.1719 44.5615 52.1543 44.7197C52.1426 44.8721 52.1279 44.9834 52.1104 45.0537H45.791C45.8496 45.915 46.1016 46.5889 46.5469 47.0752C46.998 47.5557 47.6279 47.7959 48.4365 47.7959C48.9287 47.7959 49.3652 47.7168 49.7461 47.5586C50.127 47.3945 50.4961 47.1221 50.8535 46.7412L51.8906 47.6465C51.4043 48.168 50.8828 48.5488 50.3262 48.7891C49.7754 49.0293 49.1426 49.1494 48.4277 49.1494ZM50.7041 43.9639C50.7041 43.7119 50.6924 43.5273 50.6689 43.4102C50.6162 43.0293 50.4902 42.6836 50.291 42.373C50.0977 42.0566 49.8281 41.8047 49.4824 41.6172C49.1426 41.4238 48.7383 41.3271 48.2695 41.3271C47.5488 41.3271 46.9775 41.5674 46.5557 42.0479C46.1338 42.5225 45.8789 43.1611 45.791 43.9639H50.7041ZM54.3691 40.2197H55.8193V41.9424C55.9541 41.5381 56.1592 41.1953 56.4346 40.9141C56.71 40.6328 57.0176 40.4219 57.3574 40.2812C57.7031 40.1406 58.0547 40.0703 58.4121 40.0703C58.6816 40.0703 58.9424 40.1113 59.1943 40.1934C59.4463 40.2695 59.6689 40.3896 59.8623 40.5537L59.1768 41.7842C58.8604 41.6084 58.5322 41.5205 58.1924 41.5205C57.7939 41.5205 57.4131 41.6348 57.0498 41.8633C56.6865 42.0918 56.3877 42.4521 56.1533 42.9443C55.9248 43.4307 55.8105 44.04 55.8105 44.7725V49H54.3691V40.2197ZM64.6348 49.1494C63.832 49.1494 63.2139 48.9238 62.7803 48.4727C62.3467 48.0156 62.1299 47.374 62.1299 46.5479V41.4766H60.6797V40.2197H62.1475V37.7939L63.6152 36.7217V40.2197H65.9883V41.4766H63.6152V46.3018C63.6152 46.8408 63.7207 47.2305 63.9316 47.4707C64.1484 47.7109 64.4678 47.8311 64.8896 47.8311C65.0771 47.8311 65.2676 47.8076 65.4609 47.7607C65.6602 47.708 65.833 47.6494 65.9795 47.585L65.9883 48.9385C65.8359 48.9971 65.6367 49.0469 65.3906 49.0879C65.1445 49.1289 64.8926 49.1494 64.6348 49.1494Z" fill="#30404F"/>
<path d="M27 123C27 120.791 28.7909 119 31 119H247V167H31C28.7909 167 27 165.209 27 163V123Z" fill="#F1FBFF"/>
<path d="M51.508 139.138H54.21V138.2H47.84V139.138H50.528V148H51.508V139.138ZM56.1127 148H57.0927V143.604C57.0927 142.05 57.8487 141.56 58.8567 141.56C59.8087 141.56 60.5227 142.12 60.5227 143.632V148H61.5027V144.038C61.5027 141.672 60.6907 140.678 58.9407 140.678C58.1847 140.678 57.5267 141 57.0927 141.644V137.892L56.1127 138.354V148ZM64.2507 139.376C64.6287 139.376 64.8947 139.096 64.8947 138.732C64.8947 138.354 64.6287 138.06 64.2507 138.06C63.8867 138.06 63.6067 138.354 63.6067 138.732C63.6067 139.096 63.8867 139.376 64.2507 139.376ZM63.7607 148H64.7407V140.846H63.7607V148ZM69.0901 148.168C70.5741 148.168 71.4981 147.398 71.4981 146.208C71.4981 144.766 70.2801 144.276 69.2161 143.856C68.3761 143.52 67.5781 143.212 67.5781 142.484C67.5781 141.91 68.1101 141.546 68.9361 141.546C69.7201 141.546 70.2801 141.952 70.6441 142.316L71.2881 141.77C70.7141 141.084 69.9301 140.678 68.9641 140.678C67.6201 140.678 66.6541 141.406 66.6541 142.498C66.6541 143.702 67.6621 144.206 68.7961 144.668C69.6641 145.018 70.5741 145.396 70.5741 146.264C70.5741 146.936 69.9581 147.3 69.1741 147.3C68.4321 147.3 67.7461 146.838 67.3121 146.32L66.6261 146.922C67.2281 147.636 68.1241 148.168 69.0901 148.168ZM76.8851 139.376C77.2631 139.376 77.5291 139.096 77.5291 138.732C77.5291 138.354 77.2631 138.06 76.8851 138.06C76.5211 138.06 76.2411 138.354 76.2411 138.732C76.2411 139.096 76.5211 139.376 76.8851 139.376ZM76.3951 148H77.3751V140.846H76.3951V148ZM81.7244 148.168C83.2084 148.168 84.1324 147.398 84.1324 146.208C84.1324 144.766 82.9144 144.276 81.8504 143.856C81.0104 143.52 80.2124 143.212 80.2124 142.484C80.2124 141.91 80.7444 141.546 81.5704 141.546C82.3544 141.546 82.9144 141.952 83.2784 142.316L83.9224 141.77C83.3484 141.084 82.5644 140.678 81.5984 140.678C80.2544 140.678 79.2884 141.406 79.2884 142.498C79.2884 143.702 80.2964 144.206 81.4304 144.668C82.2984 145.018 83.2084 145.396 83.2084 146.264C83.2084 146.936 82.5924 147.3 81.8084 147.3C81.0664 147.3 80.3804 146.838 79.9464 146.32L79.2604 146.922C79.8624 147.636 80.7584 148.168 81.7244 148.168ZM93.1315 148H94.0415V143.156C94.0415 141.126 92.6835 140.678 91.6615 140.678C90.6815 140.678 89.7295 141.098 89.1555 141.462L89.4355 142.302C89.9675 141.938 90.8495 141.532 91.5635 141.532C92.3615 141.532 93.1315 141.84 93.1315 143.282V143.884C92.4315 143.506 91.8015 143.38 91.1995 143.38C89.8415 143.38 88.5955 144.094 88.5955 145.746C88.5955 147.356 89.5895 148.168 91.0315 148.168C91.8015 148.168 92.5575 147.818 93.1315 147.3V148ZM91.1295 147.314C90.0935 147.314 89.5055 146.684 89.5055 145.746C89.5055 144.71 90.3315 144.234 91.2975 144.234C91.9135 144.234 92.6695 144.514 93.1315 144.822V146.208C92.6975 146.74 91.9975 147.314 91.1295 147.314ZM99.3118 148H100.292V138.2H99.3118V148ZM107.236 148H108.216V144.038C108.216 141.672 107.404 140.678 105.654 140.678C104.898 140.678 104.254 140.986 103.806 141.63V140.846H102.826V148H103.806V143.604C103.806 142.05 104.562 141.56 105.57 141.56C106.522 141.56 107.236 142.12 107.236 143.632V148ZM111.748 141.728H113.47V140.846H111.748V139.782C111.748 139.39 111.762 138.942 112.448 138.942C112.854 138.942 113.176 139.068 113.47 139.222V138.368C113.162 138.2 112.784 138.032 112.252 138.032C111.51 138.032 110.768 138.452 110.768 139.628V140.846H109.62V141.728H110.768V148H111.748V141.728ZM117.101 148.168C118.935 148.168 120.167 146.768 120.167 144.416C120.167 142.036 118.935 140.678 117.101 140.678C115.267 140.678 114.035 142.078 114.035 144.43C114.035 146.81 115.267 148.168 117.101 148.168ZM117.101 147.286C115.771 147.286 115.057 146.208 115.057 144.43C115.057 142.568 115.771 141.56 117.101 141.56C118.431 141.56 119.145 142.638 119.145 144.416C119.145 146.208 118.403 147.286 117.101 147.286ZM129.138 148H130.048V143.156C130.048 141.126 128.69 140.678 127.668 140.678C126.688 140.678 125.736 141.098 125.162 141.462L125.442 142.302C125.974 141.938 126.856 141.532 127.57 141.532C128.368 141.532 129.138 141.84 129.138 143.282V143.884C128.438 143.506 127.808 143.38 127.206 143.38C125.848 143.38 124.602 144.094 124.602 145.746C124.602 147.356 125.596 148.168 127.038 148.168C127.808 148.168 128.564 147.818 129.138 147.3V148ZM127.136 147.314C126.1 147.314 125.512 146.684 125.512 145.746C125.512 144.71 126.338 144.234 127.304 144.234C127.92 144.234 128.676 144.514 129.138 144.822V146.208C128.704 146.74 128.004 147.314 127.136 147.314ZM132.151 148H133.131V137.892L132.151 138.368V148ZM138.136 148.168C138.962 148.168 139.76 147.818 140.32 147.356L139.788 146.698C139.242 147.104 138.696 147.258 138.178 147.258C136.96 147.258 136.232 146.278 136.064 144.822H140.936C140.964 144.514 140.964 144.29 140.964 144.136C140.964 141.728 139.662 140.678 138.136 140.678C136.302 140.678 135.028 142.036 135.028 144.416C135.028 146.432 136.204 148.168 138.136 148.168ZM136.036 143.94C136.12 142.316 136.988 141.56 138.136 141.56C138.892 141.56 139.956 142.008 139.97 143.94H136.036ZM142.728 148H143.708V143.954C143.708 142.19 144.73 141.658 145.444 141.658C145.906 141.658 146.186 141.812 146.368 141.924L146.522 140.972C146.326 140.832 145.962 140.678 145.514 140.678C144.632 140.678 144.03 141.168 143.708 141.854V140.846H142.728V148ZM149.857 148.168C150.403 148.168 150.795 148.042 151.159 147.846L151.271 146.824C151.005 147.006 150.669 147.244 150.193 147.244C149.507 147.244 149.423 146.726 149.423 146.11V141.728H151.243V140.846H149.423V137.892L148.443 138.382V140.846H147.225V141.728H148.443V146.53C148.443 147.468 148.835 148.168 149.857 148.168Z" fill="#0893C0"/>
<mask id="mask0" mask-type="alpha" maskUnits="userSpaceOnUse" x="27" y="119" width="12" height="48">
<rect x="27" y="119" width="12" height="48" rx="4" fill="#F7FDFF"/>
</mask>
<g mask="url(#mask0)">
<rect x="27" y="118" width="2" height="102" fill="#0AB0E5"/>
</g>
<defs>
<filter id="filter0_d" x="0" y="0" width="252" height="252" filterUnits="userSpaceOnUse" color-interpolation-filters="sRGB">
<feFlood flood-opacity="0" result="BackgroundImageFix"/>
<feColorMatrix in="SourceAlpha" type="matrix" values="0 0 0 0 0 0 0 0 0 0 0 0 0 0 0 0 0 0 127 0"/>
<feOffset dy="1"/>
<feGaussianBlur stdDeviation="1.5"/>
<feColorMatrix type="matrix" values="0 0 0 0 0 0 0 0 0 0 0 0 0 0 0 0 0 0 0.1 0"/>
<feBlend mode="normal" in2="BackgroundImageFix" result="effect1_dropShadow"/>
<feBlend mode="normal" in="SourceGraphic" in2="effect1_dropShadow" result="shape"/>
</filter>
</defs>
</svg>
