<svg width="252" height="252" viewBox="0 0 252 252" fill="none" xmlns="http://www.w3.org/2000/svg">
<g filter="url(#filter0_d)">
<rect x="3" y="2" width="246" height="246" rx="3" fill="white"/>
<rect x="3.5" y="2.5" width="245" height="245" rx="2.5" stroke="#DFE3E8" stroke-opacity="0.75"/>
</g>
<path d="M32.168 36.5811H33.3984L38.127 49H36.4482L35.4111 46.0996H30.1816L29.127 49H27.4395L32.168 36.5811ZM34.9277 44.7725L32.792 38.7959L30.665 44.7725H34.9277ZM40.0078 40.2197H41.5459V41.8018C41.8271 41.2568 42.2285 40.832 42.75 40.5273C43.2773 40.2227 43.8545 40.0703 44.4814 40.0703C45.249 40.0703 45.9141 40.2754 46.4766 40.6855C47.0391 41.0898 47.4668 41.6377 47.7598 42.3291C48.0586 43.0146 48.208 43.7764 48.208 44.6143C48.208 45.4521 48.0586 46.2168 47.7598 46.9082C47.4668 47.5938 47.0361 48.1387 46.4678 48.543C45.9053 48.9473 45.2344 49.1494 44.4551 49.1494C43.8281 49.1494 43.2568 49 42.7412 48.7012C42.2256 48.3965 41.8271 47.9688 41.5459 47.418V52.6387H40.0078V40.2197ZM44.1211 47.7959C44.6777 47.7959 45.1494 47.6582 45.5361 47.3828C45.9287 47.1016 46.2217 46.7207 46.415 46.2402C46.6143 45.7598 46.7139 45.2178 46.7139 44.6143C46.7139 44.0107 46.6143 43.4717 46.415 42.9971C46.2217 42.5166 45.9287 42.1387 45.5361 41.8633C45.1494 41.5879 44.6777 41.4502 44.1211 41.4502C43.5645 41.4502 43.0811 41.5879 42.6709 41.8633C42.2607 42.1328 41.9473 42.5078 41.7305 42.9883C41.5195 43.4629 41.4141 44.0049 41.4141 44.6143C41.4141 45.2178 41.5225 45.7627 41.7393 46.249C41.9561 46.7295 42.2666 47.1074 42.6709 47.3828C43.0811 47.6582 43.5645 47.7959 44.1211 47.7959ZM50.4844 40.2197H52.0225V41.8018C52.3037 41.2568 52.7051 40.832 53.2266 40.5273C53.7539 40.2227 54.3311 40.0703 54.958 40.0703C55.7256 40.0703 56.3906 40.2754 56.9531 40.6855C57.5156 41.0898 57.9434 41.6377 58.2363 42.3291C58.5352 43.0146 58.6846 43.7764 58.6846 44.6143C58.6846 45.4521 58.5352 46.2168 58.2363 46.9082C57.9434 47.5938 57.5127 48.1387 56.9443 48.543C56.3818 48.9473 55.7109 49.1494 54.9316 49.1494C54.3047 49.1494 53.7334 49 53.2178 48.7012C52.7021 48.3965 52.3037 47.9688 52.0225 47.418V52.6387H50.4844V40.2197ZM54.5977 47.7959C55.1543 47.7959 55.626 47.6582 56.0127 47.3828C56.4053 47.1016 56.6982 46.7207 56.8916 46.2402C57.0908 45.7598 57.1904 45.2178 57.1904 44.6143C57.1904 44.0107 57.0908 43.4717 56.8916 42.9971C56.6982 42.5166 56.4053 42.1387 56.0127 41.8633C55.626 41.5879 55.1543 41.4502 54.5977 41.4502C54.041 41.4502 53.5576 41.5879 53.1475 41.8633C52.7373 42.1328 52.4238 42.5078 52.207 42.9883C51.9961 43.4629 51.8906 44.0049 51.8906 44.6143C51.8906 45.2178 51.999 45.7627 52.2158 46.249C52.4326 46.7295 52.7432 47.1074 53.1475 47.3828C53.5576 47.6582 54.041 47.7959 54.5977 47.7959ZM65.4258 36.5811H66.9814V38.4443H65.4258V36.5811ZM65.4609 40.2197H66.9463V49H65.4609V40.2197ZM73.2041 49.1494C72.3545 49.1494 71.625 48.9473 71.0156 48.543C70.4062 48.1328 69.9434 47.585 69.627 46.8994C69.3105 46.208 69.1523 45.4492 69.1523 44.623C69.1523 43.8262 69.3047 43.082 69.6094 42.3906C69.9141 41.6934 70.3682 41.1338 70.9717 40.7119C71.5811 40.2842 72.3193 40.0703 73.1865 40.0703C74.0186 40.0703 74.748 40.2812 75.375 40.7031C76.0078 41.1191 76.4854 41.7314 76.8076 42.54L75.3926 43.0938C75.2168 42.5781 74.9326 42.1709 74.54 41.8721C74.1533 41.5732 73.7021 41.4238 73.1865 41.4238C72.6299 41.4238 72.1611 41.5732 71.7803 41.8721C71.3994 42.165 71.1182 42.5547 70.9365 43.041C70.7549 43.5273 70.6641 44.0547 70.6641 44.623C70.6641 45.1973 70.7549 45.7246 70.9365 46.2051C71.1182 46.6855 71.3965 47.0723 71.7715 47.3652C72.1523 47.6523 72.624 47.7959 73.1865 47.7959C73.708 47.7959 74.1621 47.6494 74.5488 47.3564C74.9355 47.0576 75.208 46.6562 75.3662 46.1523L76.7197 46.6621C76.4443 47.4473 75.9961 48.0596 75.375 48.499C74.7598 48.9326 74.0361 49.1494 73.2041 49.1494ZM82.2305 49.1494C81.3926 49.1494 80.6455 48.9473 79.9893 48.543C79.333 48.1328 78.8203 47.582 78.4512 46.8906C78.0879 46.1934 77.9062 45.4258 77.9062 44.5879C77.9062 43.7559 78.0879 42.9971 78.4512 42.3115C78.8203 41.6201 79.333 41.0752 79.9893 40.6768C80.6455 40.2725 81.3926 40.0703 82.2305 40.0703C83.0684 40.0703 83.8154 40.2725 84.4717 40.6768C85.1338 41.0752 85.6494 41.6201 86.0186 42.3115C86.3877 43.0029 86.5723 43.7617 86.5723 44.5879C86.5723 45.4258 86.3877 46.1934 86.0186 46.8906C85.6494 47.582 85.1338 48.1328 84.4717 48.543C83.8154 48.9473 83.0684 49.1494 82.2305 49.1494ZM82.2305 47.8574C82.8164 47.8574 83.3203 47.7109 83.7422 47.418C84.1641 47.125 84.4834 46.7324 84.7002 46.2402C84.917 45.7422 85.0254 45.1914 85.0254 44.5879C85.0254 43.9902 84.917 43.4482 84.7002 42.9619C84.4834 42.4697 84.1641 42.0801 83.7422 41.793C83.3203 41.5059 82.8164 41.3623 82.2305 41.3623C81.6504 41.3623 81.1494 41.5059 80.7275 41.793C80.3115 42.0742 79.9951 42.4609 79.7783 42.9531C79.5615 43.4395 79.4531 43.9844 79.4531 44.5879C79.4531 45.1914 79.5615 45.7422 79.7783 46.2402C79.9951 46.7383 80.3115 47.1338 80.7275 47.4268C81.1494 47.7139 81.6504 47.8574 82.2305 47.8574ZM88.752 40.2197H90.2373V41.5557C90.5303 41.0693 90.9141 40.7002 91.3887 40.4482C91.8633 40.1963 92.376 40.0703 92.9268 40.0703C93.6123 40.0703 94.1836 40.2256 94.6406 40.5361C95.1035 40.8408 95.4463 41.2539 95.6689 41.7754C95.8975 42.2969 96.0176 42.8828 96.0293 43.5332V49H94.5439V43.8057C94.5439 43.0674 94.3711 42.4902 94.0254 42.0742C93.6797 41.6582 93.1787 41.4502 92.5225 41.4502C91.8076 41.4502 91.248 41.6641 90.8438 42.0918C90.4395 42.5137 90.2373 43.1289 90.2373 43.9375V49H88.752V40.2197ZM101.373 49.1494C100.793 49.1494 100.257 49.0469 99.7646 48.8418C99.2725 48.6367 98.8535 48.3555 98.5078 47.998C98.1621 47.6348 97.916 47.2305 97.7695 46.7852L98.9736 46.2578C99.1436 46.7266 99.4248 47.1191 99.8174 47.4355C100.21 47.7461 100.705 47.9014 101.303 47.9014C101.695 47.9014 102.029 47.8398 102.305 47.7168C102.58 47.5879 102.785 47.415 102.92 47.1982C103.061 46.9814 103.131 46.7412 103.131 46.4775C103.131 46.1846 103.04 45.9502 102.858 45.7744C102.683 45.5928 102.46 45.4521 102.19 45.3525C101.921 45.2529 101.549 45.1445 101.074 45.0273C100.471 44.875 99.9814 44.7256 99.6064 44.5791C99.2373 44.4268 98.9209 44.1924 98.6572 43.876C98.3936 43.5537 98.2617 43.123 98.2617 42.584C98.2617 42.0508 98.3994 41.5967 98.6748 41.2217C98.9502 40.8408 99.3223 40.5537 99.791 40.3604C100.26 40.167 100.781 40.0703 101.355 40.0703C102.059 40.0703 102.68 40.2314 103.219 40.5537C103.764 40.876 104.197 41.333 104.52 41.9248L103.368 42.5488C103.157 42.1621 102.879 41.8516 102.533 41.6172C102.193 41.377 101.783 41.2568 101.303 41.2568C100.811 41.2568 100.418 41.3623 100.125 41.5732C99.832 41.7842 99.6855 42.0566 99.6855 42.3906C99.6855 42.6484 99.7705 42.8594 99.9404 43.0234C100.11 43.1816 100.324 43.3105 100.582 43.4102C100.84 43.5039 101.191 43.6094 101.637 43.7266C102.264 43.8965 102.773 44.0664 103.166 44.2363C103.559 44.4004 103.896 44.6582 104.177 45.0098C104.458 45.3555 104.599 45.8213 104.599 46.4072C104.599 46.999 104.452 47.5029 104.159 47.9189C103.866 48.3291 103.474 48.6367 102.981 48.8418C102.495 49.0469 101.959 49.1494 101.373 49.1494Z" fill="#30404F"/>
<g filter="url(#filter1_d)">
<rect x="83" y="98" width="85" height="85" rx="8" fill="url(#paint0_linear)"/>
</g>
<path d="M150.292 152.323V128.677C150.292 127.002 149.412 125.455 147.983 124.618L127.809 112.794C126.38 111.957 124.62 111.957 123.192 112.794L103.017 124.618C101.589 125.455 100.708 127.002 100.708 128.677V152.323C100.708 153.997 101.589 155.545 103.017 156.382L123.192 168.205C124.62 169.042 126.38 169.042 127.809 168.205L147.983 156.382C149.412 155.545 150.292 153.997 150.292 152.323Z" fill="#7D80F2"/>
<path d="M147.984 156.382C148.701 155.961 149.279 155.362 149.677 154.658L125.5 140.489V168.833C126.298 168.833 127.095 168.623 127.809 168.205L147.984 156.382Z" fill="#7370DB"/>
<path d="M125.501 140.5L149.674 126.333C149.275 125.632 148.698 125.036 147.984 124.618L127.809 112.794C126.381 111.957 124.621 111.957 123.192 112.794L103.018 124.618C102.303 125.036 101.726 125.632 101.328 126.333L125.501 140.5Z" fill="url(#paint1_linear)"/>
<path d="M103.019 156.382C102.302 155.961 101.723 155.363 101.324 154.659L125.502 140.489V168.833C124.705 168.833 123.907 168.623 123.193 168.205L103.019 156.382Z" fill="#8BB3EA" fill-opacity="0.1"/>
<defs>
<filter id="filter0_d" x="0" y="0" width="252" height="252" filterUnits="userSpaceOnUse" color-interpolation-filters="sRGB">
<feFlood flood-opacity="0" result="BackgroundImageFix"/>
<feColorMatrix in="SourceAlpha" type="matrix" values="0 0 0 0 0 0 0 0 0 0 0 0 0 0 0 0 0 0 127 0"/>
<feOffset dy="1"/>
<feGaussianBlur stdDeviation="1.5"/>
<feColorMatrix type="matrix" values="0 0 0 0 0 0 0 0 0 0 0 0 0 0 0 0 0 0 0.1 0"/>
<feBlend mode="normal" in2="BackgroundImageFix" result="effect1_dropShadow"/>
<feBlend mode="normal" in="SourceGraphic" in2="effect1_dropShadow" result="shape"/>
</filter>
<filter id="filter1_d" x="79" y="96" width="93" height="93" filterUnits="userSpaceOnUse" color-interpolation-filters="sRGB">
<feFlood flood-opacity="0" result="BackgroundImageFix"/>
<feColorMatrix in="SourceAlpha" type="matrix" values="0 0 0 0 0 0 0 0 0 0 0 0 0 0 0 0 0 0 127 0"/>
<feOffset dy="2"/>
<feGaussianBlur stdDeviation="2"/>
<feColorMatrix type="matrix" values="0 0 0 0 0 0 0 0 0 0 0 0 0 0 0 0 0 0 0.15 0"/>
<feBlend mode="normal" in2="BackgroundImageFix" result="effect1_dropShadow"/>
<feBlend mode="normal" in="SourceGraphic" in2="effect1_dropShadow" result="shape"/>
</filter>
<linearGradient id="paint0_linear" x1="87.5536" y1="107.866" x2="162.688" y2="193.625" gradientUnits="userSpaceOnUse">
<stop stop-color="#65AAFF"/>
<stop offset="1" stop-color="#5D21D4"/>
</linearGradient>
<linearGradient id="paint1_linear" x1="125.501" y1="112.167" x2="161.537" y2="154.134" gradientUnits="userSpaceOnUse">
<stop stop-color="white"/>
<stop offset="1" stop-color="#DBEAFF" stop-opacity="0"/>
</linearGradient>
</defs>
</svg>
