<svg width="252" height="252" viewBox="0 0 252 252" fill="none" xmlns="http://www.w3.org/2000/svg">
<g filter="url(#filter0_d)">
<rect x="3" y="2" width="246" height="246" rx="3" fill="white"/>
<rect x="3.5" y="2.5" width="245" height="245" rx="2.5" stroke="#DFE3E8" stroke-opacity="0.75"/>
</g>
<path d="M28.8457 36.5811H32.792C33.4951 36.5811 34.1338 36.6953 34.708 36.9238C35.2822 37.1465 35.7393 37.501 36.0791 37.9873C36.4248 38.4736 36.5977 39.0859 36.5977 39.8242C36.5977 40.2168 36.5244 40.5889 36.3779 40.9404C36.2373 41.2861 36.0469 41.585 35.8066 41.8369C35.5664 42.0889 35.2998 42.2793 35.0068 42.4082C35.4346 42.5312 35.8154 42.7451 36.1494 43.0498C36.4834 43.3545 36.7412 43.7207 36.9229 44.1484C37.1104 44.5762 37.2041 45.0303 37.2041 45.5107C37.2041 46.2432 37.0312 46.873 36.6855 47.4004C36.3398 47.9219 35.8652 48.3203 35.2617 48.5957C34.6582 48.8652 33.9756 49 33.2139 49H28.8457V36.5811ZM33.1172 41.8809C33.498 41.8809 33.8408 41.8105 34.1455 41.6699C34.4561 41.5234 34.7021 41.3037 34.8838 41.0107C35.0713 40.7119 35.165 40.3457 35.165 39.9121C35.165 39.2852 34.957 38.8076 34.541 38.4795C34.125 38.1514 33.5508 37.9873 32.8184 37.9873H30.3926V41.8809H33.1172ZM33.2314 47.5234C34.0283 47.5234 34.6348 47.3418 35.0508 46.9785C35.4668 46.6094 35.6748 46.0645 35.6748 45.3438C35.6748 44.9336 35.584 44.5674 35.4023 44.2451C35.2207 43.9229 34.96 43.6738 34.6201 43.498C34.2803 43.3164 33.8789 43.2256 33.416 43.2256H30.3926V47.5234H33.2314ZM42.2842 49.1494C41.5986 49.1494 41.0244 48.9971 40.5615 48.6924C40.1045 48.3818 39.7646 47.9658 39.542 47.4443C39.3193 46.917 39.2021 46.3281 39.1904 45.6777V40.2197H40.667V45.4141C40.667 46.1523 40.8398 46.7295 41.1855 47.1455C41.5312 47.5615 42.0322 47.7695 42.6885 47.7695C43.4033 47.7695 43.9629 47.5586 44.3672 47.1367C44.7773 46.709 44.9824 46.0908 44.9824 45.2822V40.2197H46.459V49H44.9824V47.6641C44.6953 48.1504 44.3115 48.5195 43.8311 48.7715C43.3506 49.0234 42.835 49.1494 42.2842 49.1494ZM52.2246 49.1494C51.4219 49.1494 50.8037 48.9238 50.3701 48.4727C49.9365 48.0156 49.7197 47.374 49.7197 46.5479V41.4766H48.2695V40.2197H49.7373V37.7939L51.2051 36.7217V40.2197H53.5781V41.4766H51.2051V46.3018C51.2051 46.8408 51.3105 47.2305 51.5215 47.4707C51.7383 47.7109 52.0576 47.8311 52.4795 47.8311C52.667 47.8311 52.8574 47.8076 53.0508 47.7607C53.25 47.708 53.4229 47.6494 53.5693 47.585L53.5781 48.9385C53.4258 48.9971 53.2266 49.0469 52.9805 49.0879C52.7344 49.1289 52.4824 49.1494 52.2246 49.1494ZM58.5527 49.1494C57.75 49.1494 57.1318 48.9238 56.6982 48.4727C56.2646 48.0156 56.0479 47.374 56.0479 46.5479V41.4766H54.5977V40.2197H56.0654V37.7939L57.5332 36.7217V40.2197H59.9062V41.4766H57.5332V46.3018C57.5332 46.8408 57.6387 47.2305 57.8496 47.4707C58.0664 47.7109 58.3857 47.8311 58.8076 47.8311C58.9951 47.8311 59.1855 47.8076 59.3789 47.7607C59.5781 47.708 59.751 47.6494 59.8975 47.585L59.9062 48.9385C59.7539 48.9971 59.5547 49.0469 59.3086 49.0879C59.0625 49.1289 58.8105 49.1494 58.5527 49.1494ZM65.5488 49.1494C64.7109 49.1494 63.9639 48.9473 63.3076 48.543C62.6514 48.1328 62.1387 47.582 61.7695 46.8906C61.4062 46.1934 61.2246 45.4258 61.2246 44.5879C61.2246 43.7559 61.4062 42.9971 61.7695 42.3115C62.1387 41.6201 62.6514 41.0752 63.3076 40.6768C63.9639 40.2725 64.7109 40.0703 65.5488 40.0703C66.3867 40.0703 67.1338 40.2725 67.79 40.6768C68.4521 41.0752 68.9678 41.6201 69.3369 42.3115C69.7061 43.0029 69.8906 43.7617 69.8906 44.5879C69.8906 45.4258 69.7061 46.1934 69.3369 46.8906C68.9678 47.582 68.4521 48.1328 67.79 48.543C67.1338 48.9473 66.3867 49.1494 65.5488 49.1494ZM65.5488 47.8574C66.1348 47.8574 66.6387 47.7109 67.0605 47.418C67.4824 47.125 67.8018 46.7324 68.0186 46.2402C68.2354 45.7422 68.3438 45.1914 68.3438 44.5879C68.3438 43.9902 68.2354 43.4482 68.0186 42.9619C67.8018 42.4697 67.4824 42.0801 67.0605 41.793C66.6387 41.5059 66.1348 41.3623 65.5488 41.3623C64.9688 41.3623 64.4678 41.5059 64.0459 41.793C63.6299 42.0742 63.3135 42.4609 63.0967 42.9531C62.8799 43.4395 62.7715 43.9844 62.7715 44.5879C62.7715 45.1914 62.8799 45.7422 63.0967 46.2402C63.3135 46.7383 63.6299 47.1338 64.0459 47.4268C64.4678 47.7139 64.9688 47.8574 65.5488 47.8574ZM72.0703 40.2197H73.5557V41.5557C73.8486 41.0693 74.2324 40.7002 74.707 40.4482C75.1816 40.1963 75.6943 40.0703 76.2451 40.0703C76.9307 40.0703 77.502 40.2256 77.959 40.5361C78.4219 40.8408 78.7646 41.2539 78.9873 41.7754C79.2158 42.2969 79.3359 42.8828 79.3477 43.5332V49H77.8623V43.8057C77.8623 43.0674 77.6895 42.4902 77.3438 42.0742C76.998 41.6582 76.4971 41.4502 75.8408 41.4502C75.126 41.4502 74.5664 41.6641 74.1621 42.0918C73.7578 42.5137 73.5557 43.1289 73.5557 43.9375V49H72.0703V40.2197ZM84.6914 49.1494C84.1113 49.1494 83.5752 49.0469 83.083 48.8418C82.5908 48.6367 82.1719 48.3555 81.8262 47.998C81.4805 47.6348 81.2344 47.2305 81.0879 46.7852L82.292 46.2578C82.4619 46.7266 82.7432 47.1191 83.1357 47.4355C83.5283 47.7461 84.0234 47.9014 84.6211 47.9014C85.0137 47.9014 85.3477 47.8398 85.623 47.7168C85.8984 47.5879 86.1035 47.415 86.2383 47.1982C86.3789 46.9814 86.4492 46.7412 86.4492 46.4775C86.4492 46.1846 86.3584 45.9502 86.1768 45.7744C86.001 45.5928 85.7783 45.4521 85.5088 45.3525C85.2393 45.2529 84.8672 45.1445 84.3926 45.0273C83.7891 44.875 83.2998 44.7256 82.9248 44.5791C82.5557 44.4268 82.2393 44.1924 81.9756 43.876C81.7119 43.5537 81.5801 43.123 81.5801 42.584C81.5801 42.0508 81.7178 41.5967 81.9932 41.2217C82.2686 40.8408 82.6406 40.5537 83.1094 40.3604C83.5781 40.167 84.0996 40.0703 84.6738 40.0703C85.377 40.0703 85.998 40.2314 86.5371 40.5537C87.082 40.876 87.5156 41.333 87.8379 41.9248L86.6865 42.5488C86.4756 42.1621 86.1973 41.8516 85.8516 41.6172C85.5117 41.377 85.1016 41.2568 84.6211 41.2568C84.1289 41.2568 83.7363 41.3623 83.4434 41.5732C83.1504 41.7842 83.0039 42.0566 83.0039 42.3906C83.0039 42.6484 83.0889 42.8594 83.2588 43.0234C83.4287 43.1816 83.6426 43.3105 83.9004 43.4102C84.1582 43.5039 84.5098 43.6094 84.9551 43.7266C85.582 43.8965 86.0918 44.0664 86.4844 44.2363C86.877 44.4004 87.2139 44.6582 87.4951 45.0098C87.7764 45.3555 87.917 45.8213 87.917 46.4072C87.917 46.999 87.7705 47.5029 87.4775 47.9189C87.1846 48.3291 86.792 48.6367 86.2998 48.8418C85.8135 49.0469 85.2773 49.1494 84.6914 49.1494Z" fill="#30404F"/>
<g filter="url(#filter1_d)">
<rect x="62" y="123" width="128" height="40" rx="4" fill="url(#paint0_linear)"/>
</g>
<path d="M114.311 148H115.543L119.367 136.8H117.879L115.287 144.896C115.191 145.216 115.063 145.616 114.967 146.032C114.855 145.616 114.727 145.216 114.631 144.896L111.959 136.8H110.471L114.311 148ZM123.402 148.192C125.594 148.192 127.017 146.592 127.017 143.904C127.017 141.2 125.594 139.632 123.402 139.632C121.21 139.632 119.786 141.232 119.786 143.92C119.786 146.624 121.21 148.192 123.402 148.192ZM123.402 146.896C122.01 146.896 121.194 145.776 121.194 143.92C121.194 142.016 122.01 140.912 123.402 140.912C124.794 140.912 125.61 142.048 125.61 143.904C125.61 145.776 124.778 146.896 123.402 146.896ZM131.395 148.192C132.035 148.192 132.531 148.048 132.963 147.824L133.123 146.464C132.771 146.688 132.371 146.896 131.907 146.896C131.187 146.896 131.059 146.4 131.059 145.776V141.04H133.075V139.824H131.059V136.448L129.667 137.12V139.824H128.339V141.04H129.667V146.24C129.667 147.392 130.163 148.192 131.395 148.192ZM138.168 148.192C139.272 148.192 140.2 147.744 140.808 147.136L139.96 146.192C139.448 146.704 138.824 146.928 138.2 146.928C136.968 146.928 136.072 145.952 135.96 144.448H141.496C141.528 144.128 141.544 143.776 141.544 143.52C141.544 140.832 140.008 139.632 138.168 139.632C135.992 139.632 134.536 141.2 134.536 143.904C134.536 146.4 135.928 148.192 138.168 148.192ZM135.944 143.264C136.024 141.584 136.984 140.864 138.168 140.864C139.032 140.864 140.12 141.408 140.136 143.264H135.944Z" fill="white"/>
<defs>
<filter id="filter0_d" x="0" y="0" width="252" height="252" filterUnits="userSpaceOnUse" color-interpolation-filters="sRGB">
<feFlood flood-opacity="0" result="BackgroundImageFix"/>
<feColorMatrix in="SourceAlpha" type="matrix" values="0 0 0 0 0 0 0 0 0 0 0 0 0 0 0 0 0 0 127 0"/>
<feOffset dy="1"/>
<feGaussianBlur stdDeviation="1.5"/>
<feColorMatrix type="matrix" values="0 0 0 0 0 0 0 0 0 0 0 0 0 0 0 0 0 0 0.1 0"/>
<feBlend mode="normal" in2="BackgroundImageFix" result="effect1_dropShadow"/>
<feBlend mode="normal" in="SourceGraphic" in2="effect1_dropShadow" result="shape"/>
</filter>
<filter id="filter1_d" x="59" y="121" width="134" height="46" filterUnits="userSpaceOnUse" color-interpolation-filters="sRGB">
<feFlood flood-opacity="0" result="BackgroundImageFix"/>
<feColorMatrix in="SourceAlpha" type="matrix" values="0 0 0 0 0 0 0 0 0 0 0 0 0 0 0 0 0 0 127 0"/>
<feOffset dy="1"/>
<feGaussianBlur stdDeviation="1.5"/>
<feColorMatrix type="matrix" values="0 0 0 0 0 0 0 0 0 0 0 0 0 0 0 0 0 0 0.25 0"/>
<feBlend mode="normal" in2="BackgroundImageFix" result="effect1_dropShadow"/>
<feBlend mode="normal" in="SourceGraphic" in2="effect1_dropShadow" result="shape"/>
</filter>
<linearGradient id="paint0_linear" x1="190" y1="123" x2="59.5983" y2="133.682" gradientUnits="userSpaceOnUse">
<stop stop-color="#3FE8E0"/>
<stop offset="1" stop-color="#08BEE5"/>
</linearGradient>
</defs>
</svg>
