<svg width="252" height="252" viewBox="0 0 252 252" fill="none" xmlns="http://www.w3.org/2000/svg">
<g filter="url(#filter0_d)">
<rect x="3" y="2" width="246" height="246" rx="3" fill="white"/>
<rect x="3.5" y="2.5" width="245" height="245" rx="2.5" stroke="#DFE3E8" stroke-opacity="0.75"/>
</g>
<path d="M33.7764 49.1494C32.54 49.1494 31.4883 48.874 30.6211 48.3232C29.7539 47.7666 29.1035 47.0078 28.6699 46.0469C28.2363 45.0859 28.0195 43.9961 28.0195 42.7773C28.0195 41.5527 28.2363 40.4629 28.6699 39.5078C29.1094 38.5469 29.7627 37.791 30.6299 37.2402C31.5029 36.6895 32.5664 36.4141 33.8203 36.4141C35.0449 36.4141 36.0967 36.7041 36.9756 37.2842C37.8545 37.8643 38.5283 38.7168 38.9971 39.8418L37.5469 40.4219C37.2656 39.5488 36.8086 38.9102 36.1758 38.5059C35.5488 38.0957 34.7578 37.8906 33.8027 37.8906C32.8711 37.8906 32.0859 38.0928 31.4473 38.4971C30.8145 38.9014 30.3398 39.4668 30.0234 40.1934C29.7129 40.9141 29.5576 41.7549 29.5576 42.7158C29.5576 43.6826 29.707 44.5381 30.0059 45.2822C30.3047 46.0205 30.7676 46.6035 31.3945 47.0312C32.0273 47.459 32.8213 47.6729 33.7764 47.6729C34.708 47.6729 35.4814 47.4678 36.0967 47.0576C36.7178 46.6475 37.2129 46 37.582 45.1152L39.0146 45.7041C38.5283 46.8291 37.8369 47.6846 36.9404 48.2705C36.0498 48.8564 34.9951 49.1494 33.7764 49.1494ZM43.9541 40.0703C44.71 40.0703 45.3574 40.2168 45.8965 40.5098C46.4414 40.7969 46.8545 41.21 47.1357 41.749C47.417 42.2881 47.5576 42.9209 47.5576 43.6475V49H46.3184L46.2217 47.4355C45.9229 47.9863 45.498 48.4111 44.9473 48.71C44.3965 49.0029 43.8076 49.1494 43.1807 49.1494C42.583 49.1494 42.0498 49.041 41.5811 48.8242C41.1182 48.6016 40.7549 48.2852 40.4912 47.875C40.2275 47.459 40.0957 46.9668 40.0957 46.3984C40.0957 45.5254 40.4121 44.8896 41.0449 44.4912C41.6836 44.0869 42.5742 43.8848 43.7168 43.8848H46.2041C46.1982 43.2988 46.125 42.8242 45.9844 42.4609C45.8438 42.0918 45.6094 41.8193 45.2812 41.6436C44.959 41.4619 44.5225 41.3711 43.9717 41.3711C42.9697 41.3711 42.1729 41.8281 41.5811 42.7422L40.4385 41.916C40.8838 41.3066 41.3877 40.8467 41.9502 40.5361C42.5127 40.2256 43.1807 40.0703 43.9541 40.0703ZM43.4707 47.875C44.1855 47.875 44.7803 47.6611 45.2549 47.2334C45.7354 46.7998 46.0518 46.2373 46.2041 45.5459V44.9746H43.8047C43.084 44.9746 42.5391 45.1064 42.1699 45.3701C41.8066 45.6338 41.625 45.9941 41.625 46.4512C41.625 46.8848 41.7861 47.2305 42.1084 47.4883C42.4307 47.7461 42.8848 47.875 43.4707 47.875ZM50.2559 40.2197H51.7061V41.9424C51.8408 41.5381 52.0459 41.1953 52.3213 40.9141C52.5967 40.6328 52.9043 40.4219 53.2441 40.2812C53.5898 40.1406 53.9414 40.0703 54.2988 40.0703C54.5684 40.0703 54.8291 40.1113 55.0811 40.1934C55.333 40.2695 55.5557 40.3896 55.749 40.5537L55.0635 41.7842C54.7471 41.6084 54.4189 41.5205 54.0791 41.5205C53.6807 41.5205 53.2998 41.6348 52.9365 41.8633C52.5732 42.0918 52.2744 42.4521 52.04 42.9443C51.8115 43.4307 51.6973 44.04 51.6973 44.7725V49H50.2559V40.2197ZM59.8975 49.1494C59.1182 49.1494 58.4355 48.9473 57.8496 48.543C57.2637 48.1328 56.8125 47.582 56.4961 46.8906C56.1797 46.1992 56.0215 45.4375 56.0215 44.6055C56.0215 43.7793 56.1768 43.0205 56.4873 42.3291C56.8037 41.6377 57.252 41.0898 57.832 40.6855C58.418 40.2754 59.0977 40.0703 59.8711 40.0703C60.498 40.0703 61.0723 40.2227 61.5938 40.5273C62.1211 40.832 62.5254 41.2568 62.8066 41.8018V36.5811H64.3184V49H62.9297L62.8682 47.3389C62.5869 47.9131 62.1797 48.3584 61.6465 48.6748C61.1191 48.9912 60.5361 49.1494 59.8975 49.1494ZM60.249 47.7959C60.8057 47.7959 61.2861 47.6582 61.6904 47.3828C62.0947 47.1074 62.4023 46.7295 62.6133 46.249C62.8242 45.7627 62.9297 45.2148 62.9297 44.6055C62.9297 44.002 62.8242 43.46 62.6133 42.9795C62.4023 42.4932 62.0947 42.1123 61.6904 41.8369C61.2861 41.5615 60.8057 41.4238 60.249 41.4238C59.6924 41.4238 59.209 41.5645 58.7988 41.8457C58.3887 42.1211 58.0752 42.502 57.8584 42.9883C57.6416 43.4688 57.5332 44.0078 57.5332 44.6055C57.5332 45.209 57.6416 45.7539 57.8584 46.2402C58.0752 46.7207 58.3887 47.1016 58.7988 47.3828C59.209 47.6582 59.6924 47.7959 60.249 47.7959ZM69.9082 49.1494C69.3281 49.1494 68.792 49.0469 68.2998 48.8418C67.8076 48.6367 67.3887 48.3555 67.043 47.998C66.6973 47.6348 66.4512 47.2305 66.3047 46.7852L67.5088 46.2578C67.6787 46.7266 67.96 47.1191 68.3525 47.4355C68.7451 47.7461 69.2402 47.9014 69.8379 47.9014C70.2305 47.9014 70.5645 47.8398 70.8398 47.7168C71.1152 47.5879 71.3203 47.415 71.4551 47.1982C71.5957 46.9814 71.666 46.7412 71.666 46.4775C71.666 46.1846 71.5752 45.9502 71.3936 45.7744C71.2178 45.5928 70.9951 45.4521 70.7256 45.3525C70.4561 45.2529 70.084 45.1445 69.6094 45.0273C69.0059 44.875 68.5166 44.7256 68.1416 44.5791C67.7725 44.4268 67.4561 44.1924 67.1924 43.876C66.9287 43.5537 66.7969 43.123 66.7969 42.584C66.7969 42.0508 66.9346 41.5967 67.21 41.2217C67.4854 40.8408 67.8574 40.5537 68.3262 40.3604C68.7949 40.167 69.3164 40.0703 69.8906 40.0703C70.5938 40.0703 71.2148 40.2314 71.7539 40.5537C72.2988 40.876 72.7324 41.333 73.0547 41.9248L71.9033 42.5488C71.6924 42.1621 71.4141 41.8516 71.0684 41.6172C70.7285 41.377 70.3184 41.2568 69.8379 41.2568C69.3457 41.2568 68.9531 41.3623 68.6602 41.5732C68.3672 41.7842 68.2207 42.0566 68.2207 42.3906C68.2207 42.6484 68.3057 42.8594 68.4756 43.0234C68.6455 43.1816 68.8594 43.3105 69.1172 43.4102C69.375 43.5039 69.7266 43.6094 70.1719 43.7266C70.7988 43.8965 71.3086 44.0664 71.7012 44.2363C72.0938 44.4004 72.4307 44.6582 72.7119 45.0098C72.9932 45.3555 73.1338 45.8213 73.1338 46.4072C73.1338 46.999 72.9873 47.5029 72.6943 47.9189C72.4014 48.3291 72.0088 48.6367 71.5166 48.8418C71.0303 49.0469 70.4941 49.1494 69.9082 49.1494Z" fill="#30404F"/>
<rect x="88" y="131" width="63" height="6" fill="url(#paint0_linear)"/>
<g filter="url(#filter1_d)">
<rect x="67" y="83" width="112" height="112" rx="12" fill="white"/>
</g>
<rect x="77" y="147" width="89" height="6" fill="url(#paint1_linear)" fill-opacity="0.9"/>
<rect x="103" y="100" width="37" height="34" rx="8" fill="url(#paint2_linear)" fill-opacity="0.9"/>
<rect x="77" y="159" width="89" height="6" fill="url(#paint3_linear)" fill-opacity="0.8"/>
<rect x="77" y="171" width="89" height="6" fill="url(#paint4_linear)" fill-opacity="0.6"/>
<defs>
<filter id="filter0_d" x="0" y="0" width="252" height="252" filterUnits="userSpaceOnUse" color-interpolation-filters="sRGB">
<feFlood flood-opacity="0" result="BackgroundImageFix"/>
<feColorMatrix in="SourceAlpha" type="matrix" values="0 0 0 0 0 0 0 0 0 0 0 0 0 0 0 0 0 0 127 0"/>
<feOffset dy="1"/>
<feGaussianBlur stdDeviation="1.5"/>
<feColorMatrix type="matrix" values="0 0 0 0 0 0 0 0 0 0 0 0 0 0 0 0 0 0 0.1 0"/>
<feBlend mode="normal" in2="BackgroundImageFix" result="effect1_dropShadow"/>
<feBlend mode="normal" in="SourceGraphic" in2="effect1_dropShadow" result="shape"/>
</filter>
<filter id="filter1_d" x="53" y="75" width="140" height="140" filterUnits="userSpaceOnUse" color-interpolation-filters="sRGB">
<feFlood flood-opacity="0" result="BackgroundImageFix"/>
<feColorMatrix in="SourceAlpha" type="matrix" values="0 0 0 0 0 0 0 0 0 0 0 0 0 0 0 0 0 0 127 0"/>
<feOffset dy="6"/>
<feGaussianBlur stdDeviation="7"/>
<feColorMatrix type="matrix" values="0 0 0 0 0 0 0 0 0 0 0 0 0 0 0 0 0 0 0.15 0"/>
<feBlend mode="normal" in2="BackgroundImageFix" result="effect1_dropShadow"/>
<feBlend mode="normal" in="SourceGraphic" in2="effect1_dropShadow" result="shape"/>
</filter>
<linearGradient id="paint0_linear" x1="90.3049" y1="134" x2="147.159" y2="134" gradientUnits="userSpaceOnUse">
<stop stop-color="#C4C4C4" stop-opacity="0.26"/>
<stop offset="1" stop-color="#C4C4C4" stop-opacity="0.18"/>
</linearGradient>
<linearGradient id="paint1_linear" x1="80.2561" y1="150" x2="160.573" y2="150" gradientUnits="userSpaceOnUse">
<stop stop-color="#C4C4C4" stop-opacity="0.26"/>
<stop offset="1" stop-color="#C4C4C4" stop-opacity="0.18"/>
</linearGradient>
<linearGradient id="paint2_linear" x1="104.354" y1="117" x2="137.744" y2="117" gradientUnits="userSpaceOnUse">
<stop stop-color="#C4C4C4" stop-opacity="0.26"/>
<stop offset="1" stop-color="#C4C4C4" stop-opacity="0.18"/>
</linearGradient>
<linearGradient id="paint3_linear" x1="80.2561" y1="162" x2="160.573" y2="162" gradientUnits="userSpaceOnUse">
<stop stop-color="#C4C4C4" stop-opacity="0.26"/>
<stop offset="1" stop-color="#C4C4C4" stop-opacity="0.18"/>
</linearGradient>
<linearGradient id="paint4_linear" x1="80.2561" y1="174" x2="160.573" y2="174" gradientUnits="userSpaceOnUse">
<stop stop-color="#C4C4C4" stop-opacity="0.26"/>
<stop offset="1" stop-color="#C4C4C4" stop-opacity="0.18"/>
</linearGradient>
</defs>
</svg>
