<svg width="252" height="252" viewBox="0 0 252 252" fill="none" xmlns="http://www.w3.org/2000/svg">
<g filter="url(#filter0_d)">
<rect x="3" y="2" width="246" height="246" rx="3" fill="white"/>
<rect x="3.5" y="2.5" width="245" height="245" rx="2.5" stroke="#DFE3E8" stroke-opacity="0.75"/>
</g>
<path d="M33.7764 49.1494C32.54 49.1494 31.4883 48.874 30.6211 48.3232C29.7539 47.7666 29.1035 47.0078 28.6699 46.0469C28.2363 45.0859 28.0195 43.9961 28.0195 42.7773C28.0195 41.5527 28.2363 40.4629 28.6699 39.5078C29.1094 38.5469 29.7627 37.791 30.6299 37.2402C31.5029 36.6895 32.5664 36.4141 33.8203 36.4141C35.0449 36.4141 36.0967 36.7041 36.9756 37.2842C37.8545 37.8643 38.5283 38.7168 38.9971 39.8418L37.5469 40.4219C37.2656 39.5488 36.8086 38.9102 36.1758 38.5059C35.5488 38.0957 34.7578 37.8906 33.8027 37.8906C32.8711 37.8906 32.0859 38.0928 31.4473 38.4971C30.8145 38.9014 30.3398 39.4668 30.0234 40.1934C29.7129 40.9141 29.5576 41.7549 29.5576 42.7158C29.5576 43.6826 29.707 44.5381 30.0059 45.2822C30.3047 46.0205 30.7676 46.6035 31.3945 47.0312C32.0273 47.459 32.8213 47.6729 33.7764 47.6729C34.708 47.6729 35.4814 47.4678 36.0967 47.0576C36.7178 46.6475 37.2129 46 37.582 45.1152L39.0146 45.7041C38.5283 46.8291 37.8369 47.6846 36.9404 48.2705C36.0498 48.8564 34.9951 49.1494 33.7764 49.1494ZM41.0449 36.5811H42.5566V41.5557C42.8496 41.0693 43.2275 40.7002 43.6904 40.4482C44.1592 40.1963 44.6689 40.0703 45.2197 40.0703C45.9053 40.0703 46.4795 40.2256 46.9424 40.5361C47.4111 40.8408 47.7598 41.2539 47.9883 41.7754C48.2168 42.2969 48.3369 42.8828 48.3486 43.5332V49H46.8369V43.8057C46.8369 42.2178 46.1836 41.4238 44.877 41.4238C44.3848 41.4238 43.9629 41.541 43.6113 41.7754C43.2656 42.0098 43.002 42.335 42.8203 42.751C42.6445 43.1611 42.5566 43.6357 42.5566 44.1748V49H41.0449V36.5811ZM54.1143 40.0703C54.8701 40.0703 55.5176 40.2168 56.0566 40.5098C56.6016 40.7969 57.0146 41.21 57.2959 41.749C57.5771 42.2881 57.7178 42.9209 57.7178 43.6475V49H56.4785L56.3818 47.4355C56.083 47.9863 55.6582 48.4111 55.1074 48.71C54.5566 49.0029 53.9678 49.1494 53.3408 49.1494C52.7432 49.1494 52.21 49.041 51.7412 48.8242C51.2783 48.6016 50.915 48.2852 50.6514 47.875C50.3877 47.459 50.2559 46.9668 50.2559 46.3984C50.2559 45.5254 50.5723 44.8896 51.2051 44.4912C51.8438 44.0869 52.7344 43.8848 53.877 43.8848H56.3643C56.3584 43.2988 56.2852 42.8242 56.1445 42.4609C56.0039 42.0918 55.7695 41.8193 55.4414 41.6436C55.1191 41.4619 54.6826 41.3711 54.1318 41.3711C53.1299 41.3711 52.333 41.8281 51.7412 42.7422L50.5986 41.916C51.0439 41.3066 51.5479 40.8467 52.1104 40.5361C52.6729 40.2256 53.3408 40.0703 54.1143 40.0703ZM53.6309 47.875C54.3457 47.875 54.9404 47.6611 55.415 47.2334C55.8955 46.7998 56.2119 46.2373 56.3643 45.5459V44.9746H53.9648C53.2441 44.9746 52.6992 45.1064 52.3301 45.3701C51.9668 45.6338 51.7852 45.9941 51.7852 46.4512C51.7852 46.8848 51.9463 47.2305 52.2686 47.4883C52.5908 47.7461 53.0449 47.875 53.6309 47.875ZM60.416 40.2197H61.8662V41.9424C62.001 41.5381 62.2061 41.1953 62.4814 40.9141C62.7568 40.6328 63.0645 40.4219 63.4043 40.2812C63.75 40.1406 64.1016 40.0703 64.459 40.0703C64.7285 40.0703 64.9893 40.1113 65.2412 40.1934C65.4932 40.2695 65.7158 40.3896 65.9092 40.5537L65.2236 41.7842C64.9072 41.6084 64.5791 41.5205 64.2393 41.5205C63.8408 41.5205 63.46 41.6348 63.0967 41.8633C62.7334 42.0918 62.4346 42.4521 62.2002 42.9443C61.9717 43.4307 61.8574 44.04 61.8574 44.7725V49H60.416V40.2197ZM70.6816 49.1494C69.8789 49.1494 69.2607 48.9238 68.8271 48.4727C68.3936 48.0156 68.1768 47.374 68.1768 46.5479V41.4766H66.7266V40.2197H68.1943V37.7939L69.6621 36.7217V40.2197H72.0352V41.4766H69.6621V46.3018C69.6621 46.8408 69.7676 47.2305 69.9785 47.4707C70.1953 47.7109 70.5146 47.8311 70.9365 47.8311C71.124 47.8311 71.3145 47.8076 71.5078 47.7607C71.707 47.708 71.8799 47.6494 72.0264 47.585L72.0352 48.9385C71.8828 48.9971 71.6836 49.0469 71.4375 49.0879C71.1914 49.1289 70.9395 49.1494 70.6816 49.1494ZM77.0273 49.1494C76.4473 49.1494 75.9111 49.0469 75.4189 48.8418C74.9268 48.6367 74.5078 48.3555 74.1621 47.998C73.8164 47.6348 73.5703 47.2305 73.4238 46.7852L74.6279 46.2578C74.7979 46.7266 75.0791 47.1191 75.4717 47.4355C75.8643 47.7461 76.3594 47.9014 76.957 47.9014C77.3496 47.9014 77.6836 47.8398 77.959 47.7168C78.2344 47.5879 78.4395 47.415 78.5742 47.1982C78.7148 46.9814 78.7852 46.7412 78.7852 46.4775C78.7852 46.1846 78.6943 45.9502 78.5127 45.7744C78.3369 45.5928 78.1143 45.4521 77.8447 45.3525C77.5752 45.2529 77.2031 45.1445 76.7285 45.0273C76.125 44.875 75.6357 44.7256 75.2607 44.5791C74.8916 44.4268 74.5752 44.1924 74.3115 43.876C74.0479 43.5537 73.916 43.123 73.916 42.584C73.916 42.0508 74.0537 41.5967 74.3291 41.2217C74.6045 40.8408 74.9766 40.5537 75.4453 40.3604C75.9141 40.167 76.4355 40.0703 77.0098 40.0703C77.7129 40.0703 78.334 40.2314 78.873 40.5537C79.418 40.876 79.8516 41.333 80.1738 41.9248L79.0225 42.5488C78.8115 42.1621 78.5332 41.8516 78.1875 41.6172C77.8477 41.377 77.4375 41.2568 76.957 41.2568C76.4648 41.2568 76.0723 41.3623 75.7793 41.5732C75.4863 41.7842 75.3398 42.0566 75.3398 42.3906C75.3398 42.6484 75.4248 42.8594 75.5947 43.0234C75.7646 43.1816 75.9785 43.3105 76.2363 43.4102C76.4941 43.5039 76.8457 43.6094 77.291 43.7266C77.918 43.8965 78.4277 44.0664 78.8203 44.2363C79.2129 44.4004 79.5498 44.6582 79.8311 45.0098C80.1123 45.3555 80.2529 45.8213 80.2529 46.4072C80.2529 46.999 80.1064 47.5029 79.8135 47.9189C79.5205 48.3291 79.1279 48.6367 78.6357 48.8418C78.1494 49.0469 77.6133 49.1494 77.0273 49.1494Z" fill="#30404F"/>
<circle cx="89.7714" cy="174.277" r="2.93719" fill="#08BEE5"/>
<circle cx="143.48" cy="89.9372" r="2.93719" fill="#08BEE5"/>
<circle cx="203.063" cy="186.864" r="2.93719" fill="#08BEE5"/>
<circle cx="41.9372" cy="190.221" r="2.93719" fill="#08BEE5"/>
<path d="M41.9373 190.221L89.7714 174.276L143.48 89.937L203.063 186.864" stroke="#08BEE5" stroke-width="1.5" stroke-linecap="round" stroke-linejoin="round" stroke-dasharray="4 4"/>
<path d="M41.9373 116.791L89.7714 150.779L143.48 113.435L203.063 152.877" stroke="#7546F2" stroke-width="1.5" stroke-linejoin="round" stroke-dasharray="3 3"/>
<rect x="39" y="114.693" width="5.87437" height="5.87437" fill="#7546F2"/>
<rect x="86.8342" y="146.583" width="5.87437" height="5.87437" fill="#7546F2"/>
<rect x="140.543" y="112.176" width="5.87437" height="5.87437" fill="#7546F2"/>
<rect x="200.125" y="149.939" width="5.87437" height="5.87437" fill="#7546F2"/>
<defs>
<filter id="filter0_d" x="0" y="0" width="252" height="252" filterUnits="userSpaceOnUse" color-interpolation-filters="sRGB">
<feFlood flood-opacity="0" result="BackgroundImageFix"/>
<feColorMatrix in="SourceAlpha" type="matrix" values="0 0 0 0 0 0 0 0 0 0 0 0 0 0 0 0 0 0 127 0"/>
<feOffset dy="1"/>
<feGaussianBlur stdDeviation="1.5"/>
<feColorMatrix type="matrix" values="0 0 0 0 0 0 0 0 0 0 0 0 0 0 0 0 0 0 0.1 0"/>
<feBlend mode="normal" in2="BackgroundImageFix" result="effect1_dropShadow"/>
<feBlend mode="normal" in="SourceGraphic" in2="effect1_dropShadow" result="shape"/>
</filter>
</defs>
</svg>
