<svg width="252" height="252" viewBox="0 0 252 252" fill="none" xmlns="http://www.w3.org/2000/svg">
<g filter="url(#filter0_d)">
<rect x="3" y="2" width="246" height="246" rx="3" fill="white"/>
<rect x="3.5" y="2.5" width="245" height="245" rx="2.5" stroke="#DFE3E8" stroke-opacity="0.75"/>
</g>
<path d="M28.8457 36.5811H32.2822C33.6592 36.5811 34.8223 36.8242 35.7715 37.3105C36.7207 37.7969 37.4385 38.5117 37.9248 39.4551C38.4111 40.3926 38.6543 41.5352 38.6543 42.8828C38.6543 44.1719 38.4053 45.2734 37.9072 46.1875C37.415 47.1016 36.6914 47.7988 35.7363 48.2793C34.7812 48.7598 33.624 49 32.2646 49H28.8457V36.5811ZM32.1152 47.5762C33.7266 47.5762 34.96 47.1895 35.8154 46.416C36.6768 45.6426 37.1074 44.4443 37.1074 42.8213C37.1074 41.1748 36.7148 39.9619 35.9297 39.1826C35.1445 38.3975 33.9199 38.0049 32.2559 38.0049H30.3926V47.5762H32.1152ZM44.1826 40.0703C44.9385 40.0703 45.5859 40.2168 46.125 40.5098C46.6699 40.7969 47.083 41.21 47.3643 41.749C47.6455 42.2881 47.7861 42.9209 47.7861 43.6475V49H46.5469L46.4502 47.4355C46.1514 47.9863 45.7266 48.4111 45.1758 48.71C44.625 49.0029 44.0361 49.1494 43.4092 49.1494C42.8115 49.1494 42.2783 49.041 41.8096 48.8242C41.3467 48.6016 40.9834 48.2852 40.7197 47.875C40.4561 47.459 40.3242 46.9668 40.3242 46.3984C40.3242 45.5254 40.6406 44.8896 41.2734 44.4912C41.9121 44.0869 42.8027 43.8848 43.9453 43.8848H46.4326C46.4268 43.2988 46.3535 42.8242 46.2129 42.4609C46.0723 42.0918 45.8379 41.8193 45.5098 41.6436C45.1875 41.4619 44.751 41.3711 44.2002 41.3711C43.1982 41.3711 42.4014 41.8281 41.8096 42.7422L40.667 41.916C41.1123 41.3066 41.6162 40.8467 42.1787 40.5361C42.7412 40.2256 43.4092 40.0703 44.1826 40.0703ZM43.6992 47.875C44.4141 47.875 45.0088 47.6611 45.4834 47.2334C45.9639 46.7998 46.2803 46.2373 46.4326 45.5459V44.9746H44.0332C43.3125 44.9746 42.7676 45.1064 42.3984 45.3701C42.0352 45.6338 41.8535 45.9941 41.8535 46.4512C41.8535 46.8848 42.0146 47.2305 42.3369 47.4883C42.6592 47.7461 43.1133 47.875 43.6992 47.875ZM53.2617 49.1494C52.459 49.1494 51.8408 48.9238 51.4072 48.4727C50.9736 48.0156 50.7568 47.374 50.7568 46.5479V41.4766H49.3066V40.2197H50.7744V37.7939L52.2422 36.7217V40.2197H54.6152V41.4766H52.2422V46.3018C52.2422 46.8408 52.3477 47.2305 52.5586 47.4707C52.7754 47.7109 53.0947 47.8311 53.5166 47.8311C53.7041 47.8311 53.8945 47.8076 54.0879 47.7607C54.2871 47.708 54.46 47.6494 54.6064 47.585L54.6152 48.9385C54.4629 48.9971 54.2637 49.0469 54.0176 49.0879C53.7715 49.1289 53.5195 49.1494 53.2617 49.1494ZM60.2051 49.1494C59.3086 49.1494 58.5439 48.9502 57.9111 48.5518C57.2783 48.1533 56.8008 47.6143 56.4785 46.9346C56.1562 46.249 55.9951 45.4873 55.9951 44.6494C55.9951 43.8232 56.1504 43.0615 56.4609 42.3643C56.7715 41.667 57.2314 41.1104 57.8408 40.6943C58.4561 40.2783 59.1943 40.0703 60.0557 40.0703C60.9756 40.0703 61.7256 40.2812 62.3057 40.7031C62.8916 41.125 63.3135 41.6553 63.5713 42.2939C63.8291 42.9268 63.958 43.5771 63.958 44.2451C63.958 44.4033 63.9492 44.5615 63.9316 44.7197C63.9199 44.8721 63.9053 44.9834 63.8877 45.0537H57.5684C57.627 45.915 57.8789 46.5889 58.3242 47.0752C58.7754 47.5557 59.4053 47.7959 60.2139 47.7959C60.7061 47.7959 61.1426 47.7168 61.5234 47.5586C61.9043 47.3945 62.2734 47.1221 62.6309 46.7412L63.668 47.6465C63.1816 48.168 62.6602 48.5488 62.1035 48.7891C61.5527 49.0293 60.9199 49.1494 60.2051 49.1494ZM62.4814 43.9639C62.4814 43.7119 62.4697 43.5273 62.4463 43.4102C62.3936 43.0293 62.2676 42.6836 62.0684 42.373C61.875 42.0566 61.6055 41.8047 61.2598 41.6172C60.9199 41.4238 60.5156 41.3271 60.0469 41.3271C59.3262 41.3271 58.7549 41.5674 58.333 42.0479C57.9111 42.5225 57.6562 43.1611 57.5684 43.9639H62.4814ZM66.1641 40.2197H67.7021V41.8018C67.9834 41.2568 68.3848 40.832 68.9062 40.5273C69.4336 40.2227 70.0107 40.0703 70.6377 40.0703C71.4053 40.0703 72.0703 40.2754 72.6328 40.6855C73.1953 41.0898 73.623 41.6377 73.916 42.3291C74.2148 43.0146 74.3643 43.7764 74.3643 44.6143C74.3643 45.4521 74.2148 46.2168 73.916 46.9082C73.623 47.5938 73.1924 48.1387 72.624 48.543C72.0615 48.9473 71.3906 49.1494 70.6113 49.1494C69.9844 49.1494 69.4131 49 68.8975 48.7012C68.3818 48.3965 67.9834 47.9688 67.7021 47.418V52.6387H66.1641V40.2197ZM70.2773 47.7959C70.834 47.7959 71.3057 47.6582 71.6924 47.3828C72.085 47.1016 72.3779 46.7207 72.5713 46.2402C72.7705 45.7598 72.8701 45.2178 72.8701 44.6143C72.8701 44.0107 72.7705 43.4717 72.5713 42.9971C72.3779 42.5166 72.085 42.1387 71.6924 41.8633C71.3057 41.5879 70.834 41.4502 70.2773 41.4502C69.7207 41.4502 69.2373 41.5879 68.8271 41.8633C68.417 42.1328 68.1035 42.5078 67.8867 42.9883C67.6758 43.4629 67.5703 44.0049 67.5703 44.6143C67.5703 45.2178 67.6787 45.7627 67.8955 46.249C68.1123 46.7295 68.4229 47.1074 68.8271 47.3828C69.2373 47.6582 69.7207 47.7959 70.2773 47.7959ZM76.5879 36.5811H78.1436V38.4443H76.5879V36.5811ZM76.623 40.2197H78.1084V49H76.623V40.2197ZM84.3662 49.1494C83.5166 49.1494 82.7871 48.9473 82.1777 48.543C81.5684 48.1328 81.1055 47.585 80.7891 46.8994C80.4727 46.208 80.3145 45.4492 80.3145 44.623C80.3145 43.8262 80.4668 43.082 80.7715 42.3906C81.0762 41.6934 81.5303 41.1338 82.1338 40.7119C82.7432 40.2842 83.4814 40.0703 84.3486 40.0703C85.1807 40.0703 85.9102 40.2812 86.5371 40.7031C87.1699 41.1191 87.6475 41.7314 87.9697 42.54L86.5547 43.0938C86.3789 42.5781 86.0947 42.1709 85.7021 41.8721C85.3154 41.5732 84.8643 41.4238 84.3486 41.4238C83.792 41.4238 83.3232 41.5732 82.9424 41.8721C82.5615 42.165 82.2803 42.5547 82.0986 43.041C81.917 43.5273 81.8262 44.0547 81.8262 44.623C81.8262 45.1973 81.917 45.7246 82.0986 46.2051C82.2803 46.6855 82.5586 47.0723 82.9336 47.3652C83.3145 47.6523 83.7861 47.7959 84.3486 47.7959C84.8701 47.7959 85.3242 47.6494 85.7109 47.3564C86.0977 47.0576 86.3701 46.6562 86.5283 46.1523L87.8818 46.6621C87.6064 47.4473 87.1582 48.0596 86.5371 48.499C85.9219 48.9326 85.1982 49.1494 84.3662 49.1494ZM89.9648 36.5811H91.4502V44.623L95.5723 40.2197H97.5146L94.2891 43.542L97.9717 49H96.2139L93.2783 44.4648L91.4502 46.4072V49H89.9648V36.5811ZM102.674 49.1494C101.777 49.1494 101.013 48.9502 100.38 48.5518C99.7471 48.1533 99.2695 47.6143 98.9473 46.9346C98.625 46.249 98.4639 45.4873 98.4639 44.6494C98.4639 43.8232 98.6191 43.0615 98.9297 42.3643C99.2402 41.667 99.7002 41.1104 100.31 40.6943C100.925 40.2783 101.663 40.0703 102.524 40.0703C103.444 40.0703 104.194 40.2812 104.774 40.7031C105.36 41.125 105.782 41.6553 106.04 42.2939C106.298 42.9268 106.427 43.5771 106.427 44.2451C106.427 44.4033 106.418 44.5615 106.4 44.7197C106.389 44.8721 106.374 44.9834 106.356 45.0537H100.037C100.096 45.915 100.348 46.5889 100.793 47.0752C101.244 47.5557 101.874 47.7959 102.683 47.7959C103.175 47.7959 103.611 47.7168 103.992 47.5586C104.373 47.3945 104.742 47.1221 105.1 46.7412L106.137 47.6465C105.65 48.168 105.129 48.5488 104.572 48.7891C104.021 49.0293 103.389 49.1494 102.674 49.1494ZM104.95 43.9639C104.95 43.7119 104.938 43.5273 104.915 43.4102C104.862 43.0293 104.736 42.6836 104.537 42.373C104.344 42.0566 104.074 41.8047 103.729 41.6172C103.389 41.4238 102.984 41.3271 102.516 41.3271C101.795 41.3271 101.224 41.5674 100.802 42.0479C100.38 42.5225 100.125 43.1611 100.037 43.9639H104.95ZM108.615 40.2197H110.065V41.9424C110.2 41.5381 110.405 41.1953 110.681 40.9141C110.956 40.6328 111.264 40.4219 111.604 40.2812C111.949 40.1406 112.301 40.0703 112.658 40.0703C112.928 40.0703 113.188 40.1113 113.44 40.1934C113.692 40.2695 113.915 40.3896 114.108 40.5537L113.423 41.7842C113.106 41.6084 112.778 41.5205 112.438 41.5205C112.04 41.5205 111.659 41.6348 111.296 41.8633C110.933 42.0918 110.634 42.4521 110.399 42.9443C110.171 43.4307 110.057 44.04 110.057 44.7725V49H108.615V40.2197Z" fill="#30404F"/>
<g filter="url(#filter1_i)">
<rect x="16" y="118" width="219" height="32" rx="3" fill="white"/>
</g>
<rect x="16.5" y="118.5" width="218" height="31" rx="2.5" stroke="#D1D1D1" stroke-opacity="0.75"/>
<path d="M104.209 143.914H105.34V125.194H104.209V143.914Z" fill="#D8D8D8"/>
<path d="M127.41 139.168C130.112 139.168 130.77 136.172 130.77 134.1C130.77 131.706 129.972 129.032 127.41 129.032C124.68 129.032 124.05 132.056 124.05 134.1C124.05 136.55 124.848 139.168 127.41 139.168ZM127.41 138.286C125.534 138.286 125.072 136.158 125.072 134.1C125.072 132.322 125.45 129.914 127.41 129.914C129.258 129.914 129.72 132.07 129.72 134.1C129.72 135.906 129.37 138.286 127.41 138.286ZM137.068 139H138.048V136.354H139.532V135.514H138.048V129.2H137.46L132.308 135.836V136.354H137.068V139ZM137.068 135.514H133.582L137.068 130.894V135.514ZM140.172 140.82H141.124L146.626 129.032H145.674L140.172 140.82ZM148.044 139H154.47V138.062H149.08C149.304 136.83 150.354 136.13 151.474 135.402C152.888 134.492 154.386 133.582 154.386 131.79C154.386 130.124 153.252 129.032 151.32 129.032C149.654 129.032 148.478 129.956 148.184 131.104L149.052 131.496C149.29 130.558 149.906 129.914 151.236 129.914C152.594 129.914 153.364 130.726 153.364 131.79C153.364 133.05 152.23 133.792 151.012 134.618C149.598 135.57 148.044 136.55 148.044 139ZM160.639 139H161.619V136.354H163.103V135.514H161.619V129.2H161.031L155.879 135.836V136.354H160.639V139ZM160.639 135.514H157.153L160.639 130.894V135.514ZM163.742 140.82H164.694L170.196 129.032H169.244L163.742 140.82ZM172.847 139H173.827V129.2H173.197C172.889 130.124 172.161 130.418 171.181 130.418V130.978H172.847V139ZM177.841 139.168C180.669 138.454 182.657 135.612 182.657 132.826C182.657 130.684 181.635 129.032 179.521 129.032C177.701 129.032 176.273 130.446 176.273 132.28C176.273 133.862 177.533 135.248 179.143 135.248C180.165 135.248 180.991 134.912 181.467 134.296C181.229 135.99 179.731 137.852 177.841 138.398V139.168ZM179.451 134.464C178.065 134.464 177.211 133.484 177.211 132.168C177.211 130.908 178.107 129.914 179.451 129.914C180.711 129.914 181.691 130.908 181.691 132.168C181.691 133.484 180.753 134.464 179.451 134.464Z" fill="black"/>
<path d="M37.26 135.304H40.382V134.352H37.26V135.304ZM42.9065 135.304H46.0285V134.352H42.9065V135.304ZM47.293 140.82H48.245L53.747 129.032H52.795L47.293 140.82ZM55.3616 135.304H58.4836V134.352H55.3616V135.304ZM61.008 135.304H64.13V134.352H61.008V135.304ZM65.3945 140.82H66.3465L71.8485 129.032H70.8965L65.3945 140.82ZM73.4631 135.304H76.5851V134.352H73.4631V135.304ZM79.1096 135.304H82.2316V134.352H79.1096V135.304Z" fill="black"/>
<rect x="203" y="128.444" width="16.5185" height="13.5556" stroke="#08BEE5" stroke-linecap="round" stroke-linejoin="round"/>
<rect x="203" y="128.444" width="16.5185" height="4.14815" stroke="#08BEE5" stroke-linecap="round" stroke-linejoin="round"/>
<line x1="206.389" y1="126.5" x2="206.389" y2="129.648" stroke="#08BEE5" stroke-linecap="round"/>
<line x1="215.871" y1="126.5" x2="215.871" y2="129.648" stroke="#08BEE5" stroke-linecap="round"/>
<defs>
<filter id="filter0_d" x="0" y="0" width="252" height="252" filterUnits="userSpaceOnUse" color-interpolation-filters="sRGB">
<feFlood flood-opacity="0" result="BackgroundImageFix"/>
<feColorMatrix in="SourceAlpha" type="matrix" values="0 0 0 0 0 0 0 0 0 0 0 0 0 0 0 0 0 0 127 0"/>
<feOffset dy="1"/>
<feGaussianBlur stdDeviation="1.5"/>
<feColorMatrix type="matrix" values="0 0 0 0 0 0 0 0 0 0 0 0 0 0 0 0 0 0 0.1 0"/>
<feBlend mode="normal" in2="BackgroundImageFix" result="effect1_dropShadow"/>
<feBlend mode="normal" in="SourceGraphic" in2="effect1_dropShadow" result="shape"/>
</filter>
<filter id="filter1_i" x="16" y="118" width="219" height="34" filterUnits="userSpaceOnUse" color-interpolation-filters="sRGB">
<feFlood flood-opacity="0" result="BackgroundImageFix"/>
<feBlend mode="normal" in="SourceGraphic" in2="BackgroundImageFix" result="shape"/>
<feColorMatrix in="SourceAlpha" type="matrix" values="0 0 0 0 0 0 0 0 0 0 0 0 0 0 0 0 0 0 127 0" result="hardAlpha"/>
<feOffset dy="2"/>
<feGaussianBlur stdDeviation="1.5"/>
<feComposite in2="hardAlpha" operator="arithmetic" k2="-1" k3="1"/>
<feColorMatrix type="matrix" values="0 0 0 0 0 0 0 0 0 0 0 0 0 0 0 0 0 0 0.06 0"/>
<feBlend mode="normal" in2="shape" result="effect1_innerShadow"/>
</filter>
</defs>
</svg>
