<svg width="252" height="252" viewBox="0 0 252 252" fill="none" xmlns="http://www.w3.org/2000/svg">
<g filter="url(#filter0_d)">
<rect x="3" y="2" width="246" height="246" rx="3" fill="white"/>
<rect x="3.5" y="2.5" width="245" height="245" rx="2.5" stroke="#DFE3E8" stroke-opacity="0.75"/>
</g>
<path d="M35 112C35 109.791 36.7909 108 39 108H249V172H39C36.7909 172 35 170.209 35 168V112Z" fill="white"/>
<path d="M35.5 112C35.5 110.067 37.067 108.5 39 108.5H248.5V171.5H39C37.067 171.5 35.5 169.933 35.5 168V112Z" stroke="#DDE4E9" stroke-opacity="0.5"/>
<rect x="59.5" y="120.5" width="127" height="39" rx="3.5" fill="white" stroke="#DDE4E9"/>
<path fill-rule="evenodd" clip-rule="evenodd" d="M166 138H174.36L170.18 142.18L166 138Z" fill="#A6B9C7"/>
<path d="M83.496 145H84.632L80.712 133.8H79.848L75.96 145H77.128L78.104 142.104H82.472L83.496 145ZM82.136 141.112H78.44L79.976 136.632C80.072 136.36 80.216 135.832 80.28 135.624C80.328 135.832 80.504 136.36 80.6 136.632L82.136 141.112ZM87.1138 145H88.2338V133.448L87.1138 133.992V145ZM91.27 145H92.39V133.448L91.27 133.992V145Z" fill="#30404F"/>
<rect x="98" y="133" width="23" height="14" rx="7" fill="#EAFAFD"/>
<path d="M106.05 143.12C107.44 143.12 108.41 142.21 108.41 140.99C108.41 140.12 107.92 139.46 107.2 139.15C107.79 138.86 108.1 138.33 108.1 137.7C108.1 136.69 107.26 135.88 106.05 135.88C104.85 135.88 104.01 136.69 104.01 137.7C104.01 138.33 104.33 138.86 104.9 139.15C104.2 139.45 103.7 140.12 103.7 140.99C103.7 142.21 104.67 143.12 106.05 143.12ZM106.05 138.8C105.35 138.8 104.89 138.35 104.89 137.77C104.89 137.11 105.38 136.69 106.05 136.69C106.73 136.69 107.22 137.11 107.22 137.77C107.22 138.35 106.75 138.8 106.05 138.8ZM106.05 142.3C105.21 142.3 104.6 141.77 104.6 140.92C104.6 140.17 105.19 139.53 106.05 139.53C106.91 139.53 107.51 140.17 107.51 140.92C107.51 141.77 106.89 142.3 106.05 142.3ZM112.323 143.12C113.913 143.12 114.933 142.02 114.933 140.69C114.933 139.45 114.063 138.44 112.693 138.44C112.123 138.44 111.583 138.63 111.223 138.92L111.493 136.81H114.473V136H110.733L110.323 139.54L111.183 139.84C111.453 139.54 111.933 139.27 112.593 139.27C113.453 139.27 114.023 139.87 114.023 140.75C114.023 141.63 113.313 142.32 112.313 142.32C111.453 142.32 110.993 142.02 110.603 141.68L110.083 142.35C110.423 142.71 111.193 143.12 112.323 143.12Z" fill="#15A0BF"/>
<path d="M28.8457 36.5811H37.3711V38.0049H30.3926V42.0566H36.5361V43.4893H30.3926V49H28.8457V36.5811ZM39.3926 36.5811H40.9482V38.4443H39.3926V36.5811ZM39.4277 40.2197H40.9131V49H39.4277V40.2197ZM45.501 49.1494C44.915 49.1494 44.4844 48.9912 44.209 48.6748C43.9395 48.3525 43.8047 47.8545 43.8047 47.1807V36.5811H45.2988V46.7852C45.2988 47.1133 45.3604 47.3652 45.4834 47.541C45.6064 47.7168 45.835 47.8047 46.1689 47.8047C46.3506 47.8047 46.5762 47.7812 46.8457 47.7344L46.8545 48.9912C46.3682 49.0967 45.917 49.1494 45.501 49.1494ZM51.5742 49.1494C50.7715 49.1494 50.1533 48.9238 49.7197 48.4727C49.2861 48.0156 49.0693 47.374 49.0693 46.5479V41.4766H47.6191V40.2197H49.0869V37.7939L50.5547 36.7217V40.2197H52.9277V41.4766H50.5547V46.3018C50.5547 46.8408 50.6602 47.2305 50.8711 47.4707C51.0879 47.7109 51.4072 47.8311 51.8291 47.8311C52.0166 47.8311 52.207 47.8076 52.4004 47.7607C52.5996 47.708 52.7725 47.6494 52.9189 47.585L52.9277 48.9385C52.7754 48.9971 52.5762 49.0469 52.3301 49.0879C52.084 49.1289 51.832 49.1494 51.5742 49.1494ZM58.5176 49.1494C57.6211 49.1494 56.8564 48.9502 56.2236 48.5518C55.5908 48.1533 55.1133 47.6143 54.791 46.9346C54.4688 46.249 54.3076 45.4873 54.3076 44.6494C54.3076 43.8232 54.4629 43.0615 54.7734 42.3643C55.084 41.667 55.5439 41.1104 56.1533 40.6943C56.7686 40.2783 57.5068 40.0703 58.3682 40.0703C59.2881 40.0703 60.0381 40.2812 60.6182 40.7031C61.2041 41.125 61.626 41.6553 61.8838 42.2939C62.1416 42.9268 62.2705 43.5771 62.2705 44.2451C62.2705 44.4033 62.2617 44.5615 62.2441 44.7197C62.2324 44.8721 62.2178 44.9834 62.2002 45.0537H55.8809C55.9395 45.915 56.1914 46.5889 56.6367 47.0752C57.0879 47.5557 57.7178 47.7959 58.5264 47.7959C59.0186 47.7959 59.4551 47.7168 59.8359 47.5586C60.2168 47.3945 60.5859 47.1221 60.9434 46.7412L61.9805 47.6465C61.4941 48.168 60.9727 48.5488 60.416 48.7891C59.8652 49.0293 59.2324 49.1494 58.5176 49.1494ZM60.7939 43.9639C60.7939 43.7119 60.7822 43.5273 60.7588 43.4102C60.7061 43.0293 60.5801 42.6836 60.3809 42.373C60.1875 42.0566 59.918 41.8047 59.5723 41.6172C59.2324 41.4238 58.8281 41.3271 58.3594 41.3271C57.6387 41.3271 57.0674 41.5674 56.6455 42.0479C56.2236 42.5225 55.9688 43.1611 55.8809 43.9639H60.7939ZM64.459 40.2197H65.9092V41.9424C66.0439 41.5381 66.249 41.1953 66.5244 40.9141C66.7998 40.6328 67.1074 40.4219 67.4473 40.2812C67.793 40.1406 68.1445 40.0703 68.502 40.0703C68.7715 40.0703 69.0322 40.1113 69.2842 40.1934C69.5361 40.2695 69.7588 40.3896 69.9521 40.5537L69.2666 41.7842C68.9502 41.6084 68.6221 41.5205 68.2822 41.5205C67.8838 41.5205 67.5029 41.6348 67.1396 41.8633C66.7764 42.0918 66.4775 42.4521 66.2432 42.9443C66.0146 43.4307 65.9004 44.04 65.9004 44.7725V49H64.459V40.2197ZM73.7578 49.1494C73.1777 49.1494 72.6416 49.0469 72.1494 48.8418C71.6572 48.6367 71.2383 48.3555 70.8926 47.998C70.5469 47.6348 70.3008 47.2305 70.1543 46.7852L71.3584 46.2578C71.5283 46.7266 71.8096 47.1191 72.2021 47.4355C72.5947 47.7461 73.0898 47.9014 73.6875 47.9014C74.0801 47.9014 74.4141 47.8398 74.6895 47.7168C74.9648 47.5879 75.1699 47.415 75.3047 47.1982C75.4453 46.9814 75.5156 46.7412 75.5156 46.4775C75.5156 46.1846 75.4248 45.9502 75.2432 45.7744C75.0674 45.5928 74.8447 45.4521 74.5752 45.3525C74.3057 45.2529 73.9336 45.1445 73.459 45.0273C72.8555 44.875 72.3662 44.7256 71.9912 44.5791C71.6221 44.4268 71.3057 44.1924 71.042 43.876C70.7783 43.5537 70.6465 43.123 70.6465 42.584C70.6465 42.0508 70.7842 41.5967 71.0596 41.2217C71.335 40.8408 71.707 40.5537 72.1758 40.3604C72.6445 40.167 73.166 40.0703 73.7402 40.0703C74.4434 40.0703 75.0645 40.2314 75.6035 40.5537C76.1484 40.876 76.582 41.333 76.9043 41.9248L75.7529 42.5488C75.542 42.1621 75.2637 41.8516 74.918 41.6172C74.5781 41.377 74.168 41.2568 73.6875 41.2568C73.1953 41.2568 72.8027 41.3623 72.5098 41.5732C72.2168 41.7842 72.0703 42.0566 72.0703 42.3906C72.0703 42.6484 72.1553 42.8594 72.3252 43.0234C72.4951 43.1816 72.709 43.3105 72.9668 43.4102C73.2246 43.5039 73.5762 43.6094 74.0215 43.7266C74.6484 43.8965 75.1582 44.0664 75.5508 44.2363C75.9434 44.4004 76.2803 44.6582 76.5615 45.0098C76.8428 45.3555 76.9834 45.8213 76.9834 46.4072C76.9834 46.999 76.8369 47.5029 76.5439 47.9189C76.251 48.3291 75.8584 48.6367 75.3662 48.8418C74.8799 49.0469 74.3438 49.1494 73.7578 49.1494Z" fill="#30404F"/>
<defs>
<filter id="filter0_d" x="0" y="0" width="252" height="252" filterUnits="userSpaceOnUse" color-interpolation-filters="sRGB">
<feFlood flood-opacity="0" result="BackgroundImageFix"/>
<feColorMatrix in="SourceAlpha" type="matrix" values="0 0 0 0 0 0 0 0 0 0 0 0 0 0 0 0 0 0 127 0"/>
<feOffset dy="1"/>
<feGaussianBlur stdDeviation="1.5"/>
<feColorMatrix type="matrix" values="0 0 0 0 0 0 0 0 0 0 0 0 0 0 0 0 0 0 0.1 0"/>
<feBlend mode="normal" in2="BackgroundImageFix" result="effect1_dropShadow"/>
<feBlend mode="normal" in="SourceGraphic" in2="effect1_dropShadow" result="shape"/>
</filter>
</defs>
</svg>
