<svg width="252" height="252" viewBox="0 0 252 252" fill="none" xmlns="http://www.w3.org/2000/svg">
<g filter="url(#filter0_d)">
<rect x="3" y="2" width="246" height="246" rx="3" fill="white"/>
<rect x="3.5" y="2.5" width="245" height="245" rx="2.5" stroke="#DFE3E8" stroke-opacity="0.75"/>
</g>
<path d="M28.8457 36.5811H37.3711V38.0049H30.3926V42.0566H36.5361V43.4893H30.3926V49H28.8457V36.5811ZM42.416 49.1494C41.5781 49.1494 40.8311 48.9473 40.1748 48.543C39.5186 48.1328 39.0059 47.582 38.6367 46.8906C38.2734 46.1934 38.0918 45.4258 38.0918 44.5879C38.0918 43.7559 38.2734 42.9971 38.6367 42.3115C39.0059 41.6201 39.5186 41.0752 40.1748 40.6768C40.8311 40.2725 41.5781 40.0703 42.416 40.0703C43.2539 40.0703 44.001 40.2725 44.6572 40.6768C45.3193 41.0752 45.835 41.6201 46.2041 42.3115C46.5732 43.0029 46.7578 43.7617 46.7578 44.5879C46.7578 45.4258 46.5732 46.1934 46.2041 46.8906C45.835 47.582 45.3193 48.1328 44.6572 48.543C44.001 48.9473 43.2539 49.1494 42.416 49.1494ZM42.416 47.8574C43.002 47.8574 43.5059 47.7109 43.9277 47.418C44.3496 47.125 44.6689 46.7324 44.8857 46.2402C45.1025 45.7422 45.2109 45.1914 45.2109 44.5879C45.2109 43.9902 45.1025 43.4482 44.8857 42.9619C44.6689 42.4697 44.3496 42.0801 43.9277 41.793C43.5059 41.5059 43.002 41.3623 42.416 41.3623C41.8359 41.3623 41.335 41.5059 40.9131 41.793C40.4971 42.0742 40.1807 42.4609 39.9639 42.9531C39.7471 43.4395 39.6387 43.9844 39.6387 44.5879C39.6387 45.1914 39.7471 45.7422 39.9639 46.2402C40.1807 46.7383 40.4971 47.1338 40.9131 47.4268C41.335 47.7139 41.8359 47.8574 42.416 47.8574ZM48.9375 40.2197H50.3877V41.9424C50.5225 41.5381 50.7275 41.1953 51.0029 40.9141C51.2783 40.6328 51.5859 40.4219 51.9258 40.2812C52.2715 40.1406 52.623 40.0703 52.9805 40.0703C53.25 40.0703 53.5107 40.1113 53.7627 40.1934C54.0146 40.2695 54.2373 40.3896 54.4307 40.5537L53.7451 41.7842C53.4287 41.6084 53.1006 41.5205 52.7607 41.5205C52.3623 41.5205 51.9814 41.6348 51.6182 41.8633C51.2549 42.0918 50.9561 42.4521 50.7217 42.9443C50.4932 43.4307 50.3789 44.04 50.3789 44.7725V49H48.9375V40.2197ZM56.0039 40.2197H57.4453V41.5996C57.6914 41.084 58.0371 40.7002 58.4824 40.4482C58.9277 40.1963 59.4346 40.0703 60.0029 40.0703C60.6357 40.0703 61.1865 40.2197 61.6553 40.5186C62.124 40.8115 62.4609 41.2656 62.666 41.8809C62.9473 41.2773 63.3369 40.8262 63.835 40.5273C64.3389 40.2227 64.9072 40.0703 65.54 40.0703C66.2314 40.0703 66.8057 40.2314 67.2627 40.5537C67.7197 40.876 68.0566 41.3184 68.2734 41.8809C68.4961 42.4434 68.6074 43.0908 68.6074 43.8232V49H67.1133V43.999C67.1133 43.1729 66.9668 42.543 66.6738 42.1094C66.3867 41.6758 65.9121 41.459 65.25 41.459C64.8105 41.459 64.4238 41.5674 64.0898 41.7842C63.7559 41.9951 63.498 42.2881 63.3164 42.6631C63.1406 43.0322 63.0527 43.4512 63.0527 43.9199V49H61.5674V43.7793C61.5674 43.0469 61.418 42.4785 61.1191 42.0742C60.8203 41.6641 60.3516 41.459 59.7129 41.459C59.2676 41.459 58.8779 41.5674 58.5439 41.7842C58.21 41.9951 57.9521 42.2881 57.7705 42.6631C57.5947 43.0322 57.5068 43.4512 57.5068 43.9199V49H56.0127L56.0039 40.2197ZM79.3125 49.1494C78.416 49.1494 77.6514 48.9502 77.0186 48.5518C76.3857 48.1533 75.9082 47.6143 75.5859 46.9346C75.2637 46.249 75.1025 45.4873 75.1025 44.6494C75.1025 43.8232 75.2578 43.0615 75.5684 42.3643C75.8789 41.667 76.3389 41.1104 76.9482 40.6943C77.5635 40.2783 78.3018 40.0703 79.1631 40.0703C80.083 40.0703 80.833 40.2812 81.4131 40.7031C81.999 41.125 82.4209 41.6553 82.6787 42.2939C82.9365 42.9268 83.0654 43.5771 83.0654 44.2451C83.0654 44.4033 83.0566 44.5615 83.0391 44.7197C83.0273 44.8721 83.0127 44.9834 82.9951 45.0537H76.6758C76.7344 45.915 76.9863 46.5889 77.4316 47.0752C77.8828 47.5557 78.5127 47.7959 79.3213 47.7959C79.8135 47.7959 80.25 47.7168 80.6309 47.5586C81.0117 47.3945 81.3809 47.1221 81.7383 46.7412L82.7754 47.6465C82.2891 48.168 81.7676 48.5488 81.2109 48.7891C80.6602 49.0293 80.0273 49.1494 79.3125 49.1494ZM81.5889 43.9639C81.5889 43.7119 81.5771 43.5273 81.5537 43.4102C81.501 43.0293 81.375 42.6836 81.1758 42.373C80.9824 42.0566 80.7129 41.8047 80.3672 41.6172C80.0273 41.4238 79.623 41.3271 79.1543 41.3271C78.4336 41.3271 77.8623 41.5674 77.4404 42.0479C77.0186 42.5225 76.7637 43.1611 76.6758 43.9639H81.5889ZM86.8975 49.1494C86.3115 49.1494 85.8809 48.9912 85.6055 48.6748C85.3359 48.3525 85.2012 47.8545 85.2012 47.1807V36.5811H86.6953V46.7852C86.6953 47.1133 86.7568 47.3652 86.8799 47.541C87.0029 47.7168 87.2314 47.8047 87.5654 47.8047C87.7471 47.8047 87.9727 47.7812 88.2422 47.7344L88.251 48.9912C87.7646 49.0967 87.3135 49.1494 86.8975 49.1494ZM93.6387 49.1494C92.7422 49.1494 91.9775 48.9502 91.3447 48.5518C90.7119 48.1533 90.2344 47.6143 89.9121 46.9346C89.5898 46.249 89.4287 45.4873 89.4287 44.6494C89.4287 43.8232 89.584 43.0615 89.8945 42.3643C90.2051 41.667 90.665 41.1104 91.2744 40.6943C91.8896 40.2783 92.6279 40.0703 93.4893 40.0703C94.4092 40.0703 95.1592 40.2812 95.7393 40.7031C96.3252 41.125 96.7471 41.6553 97.0049 42.2939C97.2627 42.9268 97.3916 43.5771 97.3916 44.2451C97.3916 44.4033 97.3828 44.5615 97.3652 44.7197C97.3535 44.8721 97.3389 44.9834 97.3213 45.0537H91.002C91.0605 45.915 91.3125 46.5889 91.7578 47.0752C92.209 47.5557 92.8389 47.7959 93.6475 47.7959C94.1396 47.7959 94.5762 47.7168 94.957 47.5586C95.3379 47.3945 95.707 47.1221 96.0645 46.7412L97.1016 47.6465C96.6152 48.168 96.0938 48.5488 95.5371 48.7891C94.9863 49.0293 94.3535 49.1494 93.6387 49.1494ZM95.915 43.9639C95.915 43.7119 95.9033 43.5273 95.8799 43.4102C95.8271 43.0293 95.7012 42.6836 95.502 42.373C95.3086 42.0566 95.0391 41.8047 94.6934 41.6172C94.3535 41.4238 93.9492 41.3271 93.4805 41.3271C92.7598 41.3271 92.1885 41.5674 91.7666 42.0479C91.3447 42.5225 91.0898 43.1611 91.002 43.9639H95.915ZM99.5801 40.2197H101.021V41.5996C101.268 41.084 101.613 40.7002 102.059 40.4482C102.504 40.1963 103.011 40.0703 103.579 40.0703C104.212 40.0703 104.763 40.2197 105.231 40.5186C105.7 40.8115 106.037 41.2656 106.242 41.8809C106.523 41.2773 106.913 40.8262 107.411 40.5273C107.915 40.2227 108.483 40.0703 109.116 40.0703C109.808 40.0703 110.382 40.2314 110.839 40.5537C111.296 40.876 111.633 41.3184 111.85 41.8809C112.072 42.4434 112.184 43.0908 112.184 43.8232V49H110.689V43.999C110.689 43.1729 110.543 42.543 110.25 42.1094C109.963 41.6758 109.488 41.459 108.826 41.459C108.387 41.459 108 41.5674 107.666 41.7842C107.332 41.9951 107.074 42.2881 106.893 42.6631C106.717 43.0322 106.629 43.4512 106.629 43.9199V49H105.144V43.7793C105.144 43.0469 104.994 42.4785 104.695 42.0742C104.396 41.6641 103.928 41.459 103.289 41.459C102.844 41.459 102.454 41.5674 102.12 41.7842C101.786 41.9951 101.528 42.2881 101.347 42.6631C101.171 43.0322 101.083 43.4512 101.083 43.9199V49H99.5889L99.5801 40.2197ZM118.371 49.1494C117.475 49.1494 116.71 48.9502 116.077 48.5518C115.444 48.1533 114.967 47.6143 114.645 46.9346C114.322 46.249 114.161 45.4873 114.161 44.6494C114.161 43.8232 114.316 43.0615 114.627 42.3643C114.938 41.667 115.397 41.1104 116.007 40.6943C116.622 40.2783 117.36 40.0703 118.222 40.0703C119.142 40.0703 119.892 40.2812 120.472 40.7031C121.058 41.125 121.479 41.6553 121.737 42.2939C121.995 42.9268 122.124 43.5771 122.124 44.2451C122.124 44.4033 122.115 44.5615 122.098 44.7197C122.086 44.8721 122.071 44.9834 122.054 45.0537H115.734C115.793 45.915 116.045 46.5889 116.49 47.0752C116.941 47.5557 117.571 47.7959 118.38 47.7959C118.872 47.7959 119.309 47.7168 119.689 47.5586C120.07 47.3945 120.439 47.1221 120.797 46.7412L121.834 47.6465C121.348 48.168 120.826 48.5488 120.27 48.7891C119.719 49.0293 119.086 49.1494 118.371 49.1494ZM120.647 43.9639C120.647 43.7119 120.636 43.5273 120.612 43.4102C120.56 43.0293 120.434 42.6836 120.234 42.373C120.041 42.0566 119.771 41.8047 119.426 41.6172C119.086 41.4238 118.682 41.3271 118.213 41.3271C117.492 41.3271 116.921 41.5674 116.499 42.0479C116.077 42.5225 115.822 43.1611 115.734 43.9639H120.647ZM124.312 40.2197H125.798V41.5557C126.091 41.0693 126.475 40.7002 126.949 40.4482C127.424 40.1963 127.937 40.0703 128.487 40.0703C129.173 40.0703 129.744 40.2256 130.201 40.5361C130.664 40.8408 131.007 41.2539 131.229 41.7754C131.458 42.2969 131.578 42.8828 131.59 43.5332V49H130.104V43.8057C130.104 43.0674 129.932 42.4902 129.586 42.0742C129.24 41.6582 128.739 41.4502 128.083 41.4502C127.368 41.4502 126.809 41.6641 126.404 42.0918C126 42.5137 125.798 43.1289 125.798 43.9375V49H124.312V40.2197ZM137.127 49.1494C136.324 49.1494 135.706 48.9238 135.272 48.4727C134.839 48.0156 134.622 47.374 134.622 46.5479V41.4766H133.172V40.2197H134.64V37.7939L136.107 36.7217V40.2197H138.48V41.4766H136.107V46.3018C136.107 46.8408 136.213 47.2305 136.424 47.4707C136.641 47.7109 136.96 47.8311 137.382 47.8311C137.569 47.8311 137.76 47.8076 137.953 47.7607C138.152 47.708 138.325 47.6494 138.472 47.585L138.48 48.9385C138.328 48.9971 138.129 49.0469 137.883 49.0879C137.637 49.1289 137.385 49.1494 137.127 49.1494ZM143.473 49.1494C142.893 49.1494 142.356 49.0469 141.864 48.8418C141.372 48.6367 140.953 48.3555 140.607 47.998C140.262 47.6348 140.016 47.2305 139.869 46.7852L141.073 46.2578C141.243 46.7266 141.524 47.1191 141.917 47.4355C142.31 47.7461 142.805 47.9014 143.402 47.9014C143.795 47.9014 144.129 47.8398 144.404 47.7168C144.68 47.5879 144.885 47.415 145.02 47.1982C145.16 46.9814 145.23 46.7412 145.23 46.4775C145.23 46.1846 145.14 45.9502 144.958 45.7744C144.782 45.5928 144.56 45.4521 144.29 45.3525C144.021 45.2529 143.648 45.1445 143.174 45.0273C142.57 44.875 142.081 44.7256 141.706 44.5791C141.337 44.4268 141.021 44.1924 140.757 43.876C140.493 43.5537 140.361 43.123 140.361 42.584C140.361 42.0508 140.499 41.5967 140.774 41.2217C141.05 40.8408 141.422 40.5537 141.891 40.3604C142.359 40.167 142.881 40.0703 143.455 40.0703C144.158 40.0703 144.779 40.2314 145.318 40.5537C145.863 40.876 146.297 41.333 146.619 41.9248L145.468 42.5488C145.257 42.1621 144.979 41.8516 144.633 41.6172C144.293 41.377 143.883 41.2568 143.402 41.2568C142.91 41.2568 142.518 41.3623 142.225 41.5732C141.932 41.7842 141.785 42.0566 141.785 42.3906C141.785 42.6484 141.87 42.8594 142.04 43.0234C142.21 43.1816 142.424 43.3105 142.682 43.4102C142.939 43.5039 143.291 43.6094 143.736 43.7266C144.363 43.8965 144.873 44.0664 145.266 44.2363C145.658 44.4004 145.995 44.6582 146.276 45.0098C146.558 45.3555 146.698 45.8213 146.698 46.4072C146.698 46.999 146.552 47.5029 146.259 47.9189C145.966 48.3291 145.573 48.6367 145.081 48.8418C144.595 49.0469 144.059 49.1494 143.473 49.1494Z" fill="#30404F"/>
<rect x="47.5" y="109.5" width="155" height="11" rx="1.5" fill="white" stroke="#DFE3E8"/>
<rect x="47" y="97" width="53" height="6" fill="url(#paint0_linear)"/>
<rect x="47.5" y="143.5" width="155" height="11" rx="1.5" fill="white" stroke="#DFE3E8"/>
<rect x="47" y="131" width="53" height="6" fill="url(#paint1_linear)"/>
<rect x="47.5" y="177.5" width="155" height="11" rx="1.5" fill="white" stroke="#DFE3E8"/>
<rect x="47" y="165" width="53" height="6" fill="url(#paint2_linear)"/>
<defs>
<filter id="filter0_d" x="0" y="0" width="252" height="252" filterUnits="userSpaceOnUse" color-interpolation-filters="sRGB">
<feFlood flood-opacity="0" result="BackgroundImageFix"/>
<feColorMatrix in="SourceAlpha" type="matrix" values="0 0 0 0 0 0 0 0 0 0 0 0 0 0 0 0 0 0 127 0"/>
<feOffset dy="1"/>
<feGaussianBlur stdDeviation="1.5"/>
<feColorMatrix type="matrix" values="0 0 0 0 0 0 0 0 0 0 0 0 0 0 0 0 0 0 0.1 0"/>
<feBlend mode="normal" in2="BackgroundImageFix" result="effect1_dropShadow"/>
<feBlend mode="normal" in="SourceGraphic" in2="effect1_dropShadow" result="shape"/>
</filter>
<linearGradient id="paint0_linear" x1="48.939" y1="100" x2="96.7683" y2="100" gradientUnits="userSpaceOnUse">
<stop stop-color="#C4C4C4" stop-opacity="0.49"/>
<stop offset="1" stop-color="#C4C4C4" stop-opacity="0.18"/>
</linearGradient>
<linearGradient id="paint1_linear" x1="48.939" y1="134" x2="96.7683" y2="134" gradientUnits="userSpaceOnUse">
<stop stop-color="#C4C4C4" stop-opacity="0.49"/>
<stop offset="1" stop-color="#C4C4C4" stop-opacity="0.18"/>
</linearGradient>
<linearGradient id="paint2_linear" x1="48.939" y1="168" x2="96.7683" y2="168" gradientUnits="userSpaceOnUse">
<stop stop-color="#C4C4C4" stop-opacity="0.49"/>
<stop offset="1" stop-color="#C4C4C4" stop-opacity="0.18"/>
</linearGradient>
</defs>
</svg>
