<svg width="252" height="252" viewBox="0 0 252 252" fill="none" xmlns="http://www.w3.org/2000/svg">
<g filter="url(#filter0_d)">
<rect x="3" y="2" width="246" height="246" rx="3" fill="white"/>
<rect x="3.5" y="2.5" width="245" height="245" rx="2.5" stroke="#DFE3E8" stroke-opacity="0.75"/>
</g>
<path d="M28.8457 36.5811H30.3926V47.5322H35.9561V49H28.8457V36.5811ZM41.001 40.0703C41.7568 40.0703 42.4043 40.2168 42.9434 40.5098C43.4883 40.7969 43.9014 41.21 44.1826 41.749C44.4639 42.2881 44.6045 42.9209 44.6045 43.6475V49H43.3652L43.2686 47.4355C42.9697 47.9863 42.5449 48.4111 41.9941 48.71C41.4434 49.0029 40.8545 49.1494 40.2275 49.1494C39.6299 49.1494 39.0967 49.041 38.6279 48.8242C38.165 48.6016 37.8018 48.2852 37.5381 47.875C37.2744 47.459 37.1426 46.9668 37.1426 46.3984C37.1426 45.5254 37.459 44.8896 38.0918 44.4912C38.7305 44.0869 39.6211 43.8848 40.7637 43.8848H43.251C43.2451 43.2988 43.1719 42.8242 43.0312 42.4609C42.8906 42.0918 42.6562 41.8193 42.3281 41.6436C42.0059 41.4619 41.5693 41.3711 41.0186 41.3711C40.0166 41.3711 39.2197 41.8281 38.6279 42.7422L37.4854 41.916C37.9307 41.3066 38.4346 40.8467 38.9971 40.5361C39.5596 40.2256 40.2275 40.0703 41.001 40.0703ZM40.5176 47.875C41.2324 47.875 41.8271 47.6611 42.3018 47.2334C42.7822 46.7998 43.0986 46.2373 43.251 45.5459V44.9746H40.8516C40.1309 44.9746 39.5859 45.1064 39.2168 45.3701C38.8535 45.6338 38.6719 45.9941 38.6719 46.4512C38.6719 46.8848 38.833 47.2305 39.1553 47.4883C39.4775 47.7461 39.9316 47.875 40.5176 47.875ZM49.4209 48.8506L45.7822 40.2197H47.4258L50.2119 47.1279L52.7607 40.2197H54.3955L49.5088 52.7705H47.8828L49.4209 48.8506ZM59.2031 49.1494C58.3652 49.1494 57.6182 48.9473 56.9619 48.543C56.3057 48.1328 55.793 47.582 55.4238 46.8906C55.0605 46.1934 54.8789 45.4258 54.8789 44.5879C54.8789 43.7559 55.0605 42.9971 55.4238 42.3115C55.793 41.6201 56.3057 41.0752 56.9619 40.6768C57.6182 40.2725 58.3652 40.0703 59.2031 40.0703C60.041 40.0703 60.7881 40.2725 61.4443 40.6768C62.1064 41.0752 62.6221 41.6201 62.9912 42.3115C63.3604 43.0029 63.5449 43.7617 63.5449 44.5879C63.5449 45.4258 63.3604 46.1934 62.9912 46.8906C62.6221 47.582 62.1064 48.1328 61.4443 48.543C60.7881 48.9473 60.041 49.1494 59.2031 49.1494ZM59.2031 47.8574C59.7891 47.8574 60.293 47.7109 60.7148 47.418C61.1367 47.125 61.4561 46.7324 61.6729 46.2402C61.8896 45.7422 61.998 45.1914 61.998 44.5879C61.998 43.9902 61.8896 43.4482 61.6729 42.9619C61.4561 42.4697 61.1367 42.0801 60.7148 41.793C60.293 41.5059 59.7891 41.3623 59.2031 41.3623C58.623 41.3623 58.1221 41.5059 57.7002 41.793C57.2842 42.0742 56.9678 42.4609 56.751 42.9531C56.5342 43.4395 56.4258 43.9844 56.4258 44.5879C56.4258 45.1914 56.5342 45.7422 56.751 46.2402C56.9678 46.7383 57.2842 47.1338 57.7002 47.4268C58.1221 47.7139 58.623 47.8574 59.2031 47.8574ZM68.5283 49.1494C67.8428 49.1494 67.2686 48.9971 66.8057 48.6924C66.3486 48.3818 66.0088 47.9658 65.7861 47.4443C65.5635 46.917 65.4463 46.3281 65.4346 45.6777V40.2197H66.9111V45.4141C66.9111 46.1523 67.084 46.7295 67.4297 47.1455C67.7754 47.5615 68.2764 47.7695 68.9326 47.7695C69.6475 47.7695 70.207 47.5586 70.6113 47.1367C71.0215 46.709 71.2266 46.0908 71.2266 45.2822V40.2197H72.7031V49H71.2266V47.6641C70.9395 48.1504 70.5557 48.5195 70.0752 48.7715C69.5947 49.0234 69.0791 49.1494 68.5283 49.1494ZM78.4688 49.1494C77.666 49.1494 77.0479 48.9238 76.6143 48.4727C76.1807 48.0156 75.9639 47.374 75.9639 46.5479V41.4766H74.5137V40.2197H75.9814V37.7939L77.4492 36.7217V40.2197H79.8223V41.4766H77.4492V46.3018C77.4492 46.8408 77.5547 47.2305 77.7656 47.4707C77.9824 47.7109 78.3018 47.8311 78.7236 47.8311C78.9111 47.8311 79.1016 47.8076 79.2949 47.7607C79.4941 47.708 79.667 47.6494 79.8135 47.585L79.8223 48.9385C79.6699 48.9971 79.4707 49.0469 79.2246 49.0879C78.9785 49.1289 78.7266 49.1494 78.4688 49.1494Z" fill="#30404F"/>
<rect x="34.5" y="206.5" width="126" height="179" rx="1.5" transform="rotate(-90 34.5 206.5)" fill="white" stroke="#DFE3E8"/>
<rect x="34" y="207" width="127" height="12" rx="2" transform="rotate(-90 34 207)" fill="#FC5050" fill-opacity="0.11"/>
<rect x="58" y="207" width="127" height="12" rx="2" transform="rotate(-90 58 207)" fill="#FC5050" fill-opacity="0.11"/>
<rect x="82" y="207" width="127" height="12" rx="2" transform="rotate(-90 82 207)" fill="#FC5050" fill-opacity="0.11"/>
<rect x="106" y="207" width="127" height="12" rx="2" transform="rotate(-90 106 207)" fill="#FC5050" fill-opacity="0.11"/>
<rect x="130" y="207" width="127" height="12" rx="2" transform="rotate(-90 130 207)" fill="#FC5050" fill-opacity="0.11"/>
<rect x="154" y="207" width="127" height="12" rx="2" transform="rotate(-90 154 207)" fill="#FC5050" fill-opacity="0.11"/>
<rect x="178" y="207" width="127" height="12" rx="2" transform="rotate(-90 178 207)" fill="#FC5050" fill-opacity="0.11"/>
<rect x="202" y="207" width="127" height="12" rx="2" transform="rotate(-90 202 207)" fill="#FC5050" fill-opacity="0.11"/>
<defs>
<filter id="filter0_d" x="0" y="0" width="252" height="252" filterUnits="userSpaceOnUse" color-interpolation-filters="sRGB">
<feFlood flood-opacity="0" result="BackgroundImageFix"/>
<feColorMatrix in="SourceAlpha" type="matrix" values="0 0 0 0 0 0 0 0 0 0 0 0 0 0 0 0 0 0 127 0"/>
<feOffset dy="1"/>
<feGaussianBlur stdDeviation="1.5"/>
<feColorMatrix type="matrix" values="0 0 0 0 0 0 0 0 0 0 0 0 0 0 0 0 0 0 0.1 0"/>
<feBlend mode="normal" in2="BackgroundImageFix" result="effect1_dropShadow"/>
<feBlend mode="normal" in="SourceGraphic" in2="effect1_dropShadow" result="shape"/>
</filter>
</defs>
</svg>
