<svg width="252" height="252" viewBox="0 0 252 252" fill="none" xmlns="http://www.w3.org/2000/svg">
<g filter="url(#filter0_d)">
<rect x="3" y="2" width="246" height="246" rx="3" fill="white"/>
<rect x="3.5" y="2.5" width="245" height="245" rx="2.5" stroke="#DFE3E8" stroke-opacity="0.75"/>
</g>
<path d="M28.8457 36.5811H30.3926V47.5322H35.9561V49H28.8457V36.5811ZM41.3965 49.1494C40.5586 49.1494 39.8115 48.9473 39.1553 48.543C38.499 48.1328 37.9863 47.582 37.6172 46.8906C37.2539 46.1934 37.0723 45.4258 37.0723 44.5879C37.0723 43.7559 37.2539 42.9971 37.6172 42.3115C37.9863 41.6201 38.499 41.0752 39.1553 40.6768C39.8115 40.2725 40.5586 40.0703 41.3965 40.0703C42.2344 40.0703 42.9814 40.2725 43.6377 40.6768C44.2998 41.0752 44.8154 41.6201 45.1846 42.3115C45.5537 43.0029 45.7383 43.7617 45.7383 44.5879C45.7383 45.4258 45.5537 46.1934 45.1846 46.8906C44.8154 47.582 44.2998 48.1328 43.6377 48.543C42.9814 48.9473 42.2344 49.1494 41.3965 49.1494ZM41.3965 47.8574C41.9824 47.8574 42.4863 47.7109 42.9082 47.418C43.3301 47.125 43.6494 46.7324 43.8662 46.2402C44.083 45.7422 44.1914 45.1914 44.1914 44.5879C44.1914 43.9902 44.083 43.4482 43.8662 42.9619C43.6494 42.4697 43.3301 42.0801 42.9082 41.793C42.4863 41.5059 41.9824 41.3623 41.3965 41.3623C40.8164 41.3623 40.3154 41.5059 39.8936 41.793C39.4775 42.0742 39.1611 42.4609 38.9443 42.9531C38.7275 43.4395 38.6191 43.9844 38.6191 44.5879C38.6191 45.1914 38.7275 45.7422 38.9443 46.2402C39.1611 46.7383 39.4775 47.1338 39.8936 47.4268C40.3154 47.7139 40.8164 47.8574 41.3965 47.8574ZM50.9678 40.0703C51.7236 40.0703 52.3711 40.2168 52.9102 40.5098C53.4551 40.7969 53.8682 41.21 54.1494 41.749C54.4307 42.2881 54.5713 42.9209 54.5713 43.6475V49H53.332L53.2354 47.4355C52.9365 47.9863 52.5117 48.4111 51.9609 48.71C51.4102 49.0029 50.8213 49.1494 50.1943 49.1494C49.5967 49.1494 49.0635 49.041 48.5947 48.8242C48.1318 48.6016 47.7686 48.2852 47.5049 47.875C47.2412 47.459 47.1094 46.9668 47.1094 46.3984C47.1094 45.5254 47.4258 44.8896 48.0586 44.4912C48.6973 44.0869 49.5879 43.8848 50.7305 43.8848H53.2178C53.2119 43.2988 53.1387 42.8242 52.998 42.4609C52.8574 42.0918 52.623 41.8193 52.2949 41.6436C51.9727 41.4619 51.5361 41.3711 50.9854 41.3711C49.9834 41.3711 49.1865 41.8281 48.5947 42.7422L47.4521 41.916C47.8975 41.3066 48.4014 40.8467 48.9639 40.5361C49.5264 40.2256 50.1943 40.0703 50.9678 40.0703ZM50.4844 47.875C51.1992 47.875 51.7939 47.6611 52.2686 47.2334C52.749 46.7998 53.0654 46.2373 53.2178 45.5459V44.9746H50.8184C50.0977 44.9746 49.5527 45.1064 49.1836 45.3701C48.8203 45.6338 48.6387 45.9941 48.6387 46.4512C48.6387 46.8848 48.7998 47.2305 49.1221 47.4883C49.4443 47.7461 49.8984 47.875 50.4844 47.875ZM60.4072 49.1494C59.6279 49.1494 58.9453 48.9473 58.3594 48.543C57.7734 48.1328 57.3223 47.582 57.0059 46.8906C56.6895 46.1992 56.5312 45.4375 56.5312 44.6055C56.5312 43.7793 56.6865 43.0205 56.9971 42.3291C57.3135 41.6377 57.7617 41.0898 58.3418 40.6855C58.9277 40.2754 59.6074 40.0703 60.3809 40.0703C61.0078 40.0703 61.582 40.2227 62.1035 40.5273C62.6309 40.832 63.0352 41.2568 63.3164 41.8018V36.5811H64.8281V49H63.4395L63.3779 47.3389C63.0967 47.9131 62.6895 48.3584 62.1562 48.6748C61.6289 48.9912 61.0459 49.1494 60.4072 49.1494ZM60.7588 47.7959C61.3154 47.7959 61.7959 47.6582 62.2002 47.3828C62.6045 47.1074 62.9121 46.7295 63.123 46.249C63.334 45.7627 63.4395 45.2148 63.4395 44.6055C63.4395 44.002 63.334 43.46 63.123 42.9795C62.9121 42.4932 62.6045 42.1123 62.2002 41.8369C61.7959 41.5615 61.3154 41.4238 60.7588 41.4238C60.2021 41.4238 59.7188 41.5645 59.3086 41.8457C58.8984 42.1211 58.585 42.502 58.3682 42.9883C58.1514 43.4688 58.043 44.0078 58.043 44.6055C58.043 45.209 58.1514 45.7539 58.3682 46.2402C58.585 46.7207 58.8984 47.1016 59.3086 47.3828C59.7188 47.6582 60.2021 47.7959 60.7588 47.7959ZM71.2793 49.1494C70.3828 49.1494 69.6182 48.9502 68.9854 48.5518C68.3525 48.1533 67.875 47.6143 67.5527 46.9346C67.2305 46.249 67.0693 45.4873 67.0693 44.6494C67.0693 43.8232 67.2246 43.0615 67.5352 42.3643C67.8457 41.667 68.3057 41.1104 68.915 40.6943C69.5303 40.2783 70.2686 40.0703 71.1299 40.0703C72.0498 40.0703 72.7998 40.2812 73.3799 40.7031C73.9658 41.125 74.3877 41.6553 74.6455 42.2939C74.9033 42.9268 75.0322 43.5771 75.0322 44.2451C75.0322 44.4033 75.0234 44.5615 75.0059 44.7197C74.9941 44.8721 74.9795 44.9834 74.9619 45.0537H68.6426C68.7012 45.915 68.9531 46.5889 69.3984 47.0752C69.8496 47.5557 70.4795 47.7959 71.2881 47.7959C71.7803 47.7959 72.2168 47.7168 72.5977 47.5586C72.9785 47.3945 73.3477 47.1221 73.7051 46.7412L74.7422 47.6465C74.2559 48.168 73.7344 48.5488 73.1777 48.7891C72.627 49.0293 71.9941 49.1494 71.2793 49.1494ZM73.5557 43.9639C73.5557 43.7119 73.5439 43.5273 73.5205 43.4102C73.4678 43.0293 73.3418 42.6836 73.1426 42.373C72.9492 42.0566 72.6797 41.8047 72.334 41.6172C71.9941 41.4238 71.5898 41.3271 71.1211 41.3271C70.4004 41.3271 69.8291 41.5674 69.4072 42.0479C68.9854 42.5225 68.7305 43.1611 68.6426 43.9639H73.5557ZM77.2207 40.2197H78.6709V41.9424C78.8057 41.5381 79.0107 41.1953 79.2861 40.9141C79.5615 40.6328 79.8691 40.4219 80.209 40.2812C80.5547 40.1406 80.9062 40.0703 81.2637 40.0703C81.5332 40.0703 81.7939 40.1113 82.0459 40.1934C82.2979 40.2695 82.5205 40.3896 82.7139 40.5537L82.0283 41.7842C81.7119 41.6084 81.3838 41.5205 81.0439 41.5205C80.6455 41.5205 80.2646 41.6348 79.9014 41.8633C79.5381 42.0918 79.2393 42.4521 79.0049 42.9443C78.7764 43.4307 78.6621 44.04 78.6621 44.7725V49H77.2207V40.2197ZM86.5195 49.1494C85.9395 49.1494 85.4033 49.0469 84.9111 48.8418C84.4189 48.6367 84 48.3555 83.6543 47.998C83.3086 47.6348 83.0625 47.2305 82.916 46.7852L84.1201 46.2578C84.29 46.7266 84.5713 47.1191 84.9639 47.4355C85.3564 47.7461 85.8516 47.9014 86.4492 47.9014C86.8418 47.9014 87.1758 47.8398 87.4512 47.7168C87.7266 47.5879 87.9316 47.415 88.0664 47.1982C88.207 46.9814 88.2773 46.7412 88.2773 46.4775C88.2773 46.1846 88.1865 45.9502 88.0049 45.7744C87.8291 45.5928 87.6064 45.4521 87.3369 45.3525C87.0674 45.2529 86.6953 45.1445 86.2207 45.0273C85.6172 44.875 85.1279 44.7256 84.7529 44.5791C84.3838 44.4268 84.0674 44.1924 83.8037 43.876C83.54 43.5537 83.4082 43.123 83.4082 42.584C83.4082 42.0508 83.5459 41.5967 83.8213 41.2217C84.0967 40.8408 84.4688 40.5537 84.9375 40.3604C85.4062 40.167 85.9277 40.0703 86.502 40.0703C87.2051 40.0703 87.8262 40.2314 88.3652 40.5537C88.9102 40.876 89.3438 41.333 89.666 41.9248L88.5146 42.5488C88.3037 42.1621 88.0254 41.8516 87.6797 41.6172C87.3398 41.377 86.9297 41.2568 86.4492 41.2568C85.957 41.2568 85.5645 41.3623 85.2715 41.5732C84.9785 41.7842 84.832 42.0566 84.832 42.3906C84.832 42.6484 84.917 42.8594 85.0869 43.0234C85.2568 43.1816 85.4707 43.3105 85.7285 43.4102C85.9863 43.5039 86.3379 43.6094 86.7832 43.7266C87.4102 43.8965 87.9199 44.0664 88.3125 44.2363C88.7051 44.4004 89.042 44.6582 89.3232 45.0098C89.6045 45.3555 89.7451 45.8213 89.7451 46.4072C89.7451 46.999 89.5986 47.5029 89.3057 47.9189C89.0127 48.3291 88.6201 48.6367 88.1279 48.8418C87.6416 49.0469 87.1055 49.1494 86.5195 49.1494Z" fill="#30404F"/>
<path d="M69 117.15C79.64 166.55 111.433 187.766 126 192.2C140.725 188.4 173.025 164.175 183 117.15C164.38 101.19 137.242 89.5998 126 85.7998C115.867 89.2831 90.28 100.43 69 117.15Z" stroke="#E6E6E6" stroke-width="3"/>
<path d="M126 192.2C128.31 191.603 131.053 190.504 134.075 188.893C150.311 180.236 174.59 156.796 183 117.15C171.057 106.913 155.609 98.4736 143.1 92.7349" stroke="url(#paint0_linear)" stroke-width="3"/>
<defs>
<filter id="filter0_d" x="0" y="0" width="252" height="252" filterUnits="userSpaceOnUse" color-interpolation-filters="sRGB">
<feFlood flood-opacity="0" result="BackgroundImageFix"/>
<feColorMatrix in="SourceAlpha" type="matrix" values="0 0 0 0 0 0 0 0 0 0 0 0 0 0 0 0 0 0 127 0"/>
<feOffset dy="1"/>
<feGaussianBlur stdDeviation="1.5"/>
<feColorMatrix type="matrix" values="0 0 0 0 0 0 0 0 0 0 0 0 0 0 0 0 0 0 0.1 0"/>
<feBlend mode="normal" in2="BackgroundImageFix" result="effect1_dropShadow"/>
<feBlend mode="normal" in="SourceGraphic" in2="effect1_dropShadow" result="shape"/>
</filter>
<linearGradient id="paint0_linear" x1="126" y1="85.7996" x2="126" y2="192.2" gradientUnits="userSpaceOnUse">
<stop stop-color="#41BFF4"/>
<stop offset="1" stop-color="#68D3DF"/>
</linearGradient>
</defs>
</svg>
