<svg width="252" height="252" viewBox="0 0 252 252" fill="none" xmlns="http://www.w3.org/2000/svg">
<g filter="url(#filter0_d)">
<rect x="3" y="2" width="246" height="246" rx="3" fill="white"/>
<rect x="3.5" y="2.5" width="245" height="245" rx="2.5" stroke="#DFE3E8" stroke-opacity="0.75"/>
</g>
<mask id="mask0" mask-type="alpha" maskUnits="userSpaceOnUse" x="3" y="2" width="246" height="246">
<rect x="3" y="2" width="246" height="246" rx="3" fill="white"/>
<rect x="3.5" y="2.5" width="245" height="245" rx="2.5" stroke="#DFE3E8" stroke-opacity="0.75"/>
</mask>
<g mask="url(#mask0)">
<rect x="77" y="147" width="24" height="24" rx="4" fill="url(#paint0_linear)"/>
<path d="M91.2857 155.304C91.2857 154.817 90.9 154.42 90.4286 154.42H85.9843L86.5543 151.613C86.5671 151.547 86.5757 151.476 86.5757 151.405C86.5757 151.131 86.4685 150.884 86.2928 150.703L85.6114 150L81.3772 154.367C81.1457 154.605 81 154.937 81 155.304V161.049C81 161.783 81.5743 162.375 82.2857 162.375H88.0714C88.6029 162.375 89.0614 162.044 89.2543 161.566L91.1957 156.89C91.2514 156.74 91.2857 156.581 91.2857 156.408V155.304Z" fill="white"/>
<path d="M86.7143 162.696C86.7143 163.183 87.1 163.58 87.5714 163.58L92.0157 163.58L91.4457 166.387C91.4329 166.453 91.4243 166.524 91.4243 166.595C91.4243 166.869 91.5315 167.116 91.7072 167.297L92.3886 168L96.6228 163.633C96.8543 163.395 97 163.063 97 162.696L97 156.951C97 156.217 96.4257 155.625 95.7143 155.625L89.9286 155.625C89.3971 155.625 88.9386 155.956 88.7457 156.434L86.8043 161.11C86.7486 161.26 86.7143 161.419 86.7143 161.592L86.7143 162.696Z" fill="white" fill-opacity="0.6"/>
<rect x="77" y="187" width="24" height="24" rx="4" fill="url(#paint1_linear)"/>
<path d="M94.5858 190.882H83.5963C83.1916 190.882 82.8638 191.211 82.8638 191.615V206.267C82.8638 206.672 83.192 207 83.5963 207H94.5858C94.9905 207 95.3183 206.672 95.3183 206.267V191.615C95.3183 191.211 94.9905 190.882 94.5858 190.882ZM93.853 192.347V194.545H84.3288V192.347H93.853ZM84.3288 205.535V196.01H93.853V205.534H84.3288V205.535Z" fill="url(#paint2_linear)"/>
<path d="M86.9487 196.659H85.4278C85.2254 196.659 85.0615 196.823 85.0615 197.025V198.547C85.0615 198.749 85.2258 198.913 85.4278 198.913H86.9487C87.151 198.913 87.3149 198.749 87.3149 198.547V197.025C87.3153 196.822 87.1517 196.659 86.9487 196.659Z" fill="white" fill-opacity="0.9"/>
<path d="M89.8512 196.659H88.3306C88.1283 196.659 87.9644 196.823 87.9644 197.025V198.547C87.9644 198.749 88.1283 198.913 88.3306 198.913H89.8512C90.0535 198.913 90.2174 198.749 90.2174 198.547V197.025C90.2178 196.822 90.0535 196.659 89.8512 196.659Z" fill="white" fill-opacity="0.8"/>
<path d="M92.754 196.659H91.2331C91.0308 196.659 90.8672 196.823 90.8672 197.025V198.547C90.8672 198.749 91.0311 198.913 91.2331 198.913H92.754C92.9563 198.913 93.1202 198.749 93.1202 198.547V197.025C93.1202 196.822 92.9563 196.659 92.754 196.659Z" fill="white" fill-opacity="0.7"/>
<path d="M86.9487 199.646H85.4278C85.2254 199.646 85.0615 199.809 85.0615 200.011V201.533C85.0615 201.736 85.2258 201.899 85.4278 201.899H86.9487C87.151 201.899 87.3149 201.735 87.3149 201.533V200.011C87.3153 199.809 87.1517 199.646 86.9487 199.646Z" fill="white" fill-opacity="0.8"/>
<path d="M89.8512 199.646H88.3306C88.1283 199.646 87.9644 199.809 87.9644 200.011V201.533C87.9644 201.736 88.1283 201.899 88.3306 201.899H89.8512C90.0535 201.899 90.2174 201.735 90.2174 201.533V200.011C90.2178 199.809 90.0535 199.646 89.8512 199.646Z" fill="white" fill-opacity="0.7"/>
<path d="M86.9487 202.633H85.4278C85.2254 202.633 85.0615 202.797 85.0615 202.998V204.52C85.0615 204.723 85.2258 204.887 85.4278 204.887H86.9487C87.151 204.887 87.3149 204.722 87.3149 204.52V202.998C87.3153 202.796 87.1517 202.633 86.9487 202.633Z" fill="white" fill-opacity="0.6"/>
<path d="M89.8512 202.633H88.3306C88.1283 202.633 87.9644 202.797 87.9644 202.998V204.52C87.9644 204.723 88.1283 204.887 88.3306 204.887H89.8512C90.0535 204.887 90.2174 204.722 90.2174 204.52V202.998C90.2178 202.796 90.0535 202.633 89.8512 202.633Z" fill="white" fill-opacity="0.4"/>
<path d="M92.754 199.646H91.2331C91.0308 199.646 90.8672 199.809 90.8672 200.011V204.52C90.8672 204.723 91.0311 204.886 91.2331 204.886H92.754C92.9563 204.886 93.1202 204.722 93.1202 204.52V200.011C93.1202 199.809 92.9563 199.646 92.754 199.646Z" fill="white" fill-opacity="0.2"/>
<rect x="77" y="107" width="24" height="24" rx="4" fill="url(#paint3_linear)"/>
<path d="M93.8312 125H90.4649C90.4649 125 90.4649 121.099 90.4649 121.054C90.4649 121.008 90.387 120.978 90.387 120.978H87.613C87.5662 120.978 87.5351 121.008 87.5351 121.054V125H84.1688C83.5299 125 83 124.484 83 123.862V117.457C83 117.062 83.1714 116.682 83.4519 116.394L83.4675 116.379L88.1273 112.342C88.6104 111.886 89.4052 111.886 89.8883 112.342L94.5481 116.394C94.8442 116.667 95 117.062 95 117.457V123.862C95 124.499 94.4857 125 93.8312 125Z" fill="white"/>
<path d="M83.468 87H84.536L81.56 78.6H80.588L77.612 87H78.704L79.412 84.948H82.748L83.468 87ZM82.424 84.024H79.724L80.816 80.916C80.9 80.676 81.02 80.28 81.08 80.064C81.128 80.28 81.26 80.676 81.344 80.916L82.424 84.024ZM86.0862 87H87.1302V83.628H89.3022C91.2702 83.628 92.0142 82.272 92.0142 81.12C92.0142 79.872 91.3422 78.6 89.3022 78.6H86.0862V87ZM89.3742 82.656H87.1302V79.572H89.3742C90.6342 79.572 90.9702 80.46 90.9702 81.12C90.9702 81.84 90.5622 82.656 89.3742 82.656ZM93.6448 87H94.6888V83.628H96.8608C98.8288 83.628 99.5728 82.272 99.5728 81.12C99.5728 79.872 98.9008 78.6 96.8608 78.6H93.6448V87ZM96.9328 82.656H94.6888V79.572H96.9328C98.1928 79.572 98.5287 80.46 98.5287 81.12C98.5287 81.84 98.1208 82.656 96.9328 82.656ZM103.417 87.144C105.001 87.144 106.177 86.268 106.177 84.72C106.177 83.064 104.809 82.452 103.633 82.008C102.685 81.66 101.821 81.312 101.821 80.532C101.821 79.848 102.361 79.428 103.249 79.428C104.077 79.428 104.617 79.812 104.821 80.28L105.781 79.956C105.529 79.092 104.653 78.456 103.321 78.456C101.689 78.456 100.741 79.404 100.741 80.532C100.741 81.996 102.025 82.536 103.201 82.968C104.185 83.328 105.097 83.772 105.097 84.744C105.097 85.668 104.449 86.16 103.441 86.16C102.517 86.16 101.809 85.656 101.473 84.912L100.489 85.272C100.861 86.352 101.953 87.144 103.417 87.144Z" fill="#637381"/>
<path d="M117.272 124H118.392V112.8H117.272V117.648H111.8V112.8H110.68V124H111.8V118.704H117.272V124ZM124.462 124.192C126.558 124.192 127.966 122.592 127.966 119.904C127.966 117.184 126.558 115.632 124.462 115.632C122.366 115.632 120.958 117.232 120.958 119.92C120.958 122.64 122.366 124.192 124.462 124.192ZM124.462 123.184C122.942 123.184 122.126 121.952 122.126 119.92C122.126 117.792 122.942 116.64 124.462 116.64C125.982 116.64 126.798 117.872 126.798 119.904C126.798 121.952 125.95 123.184 124.462 123.184ZM139.852 124H140.972V118.56C140.972 116.768 139.756 115.632 138.172 115.632C137.116 115.632 136.284 116.192 135.836 116.88C135.372 116.096 134.492 115.632 133.628 115.632C132.732 115.632 131.948 115.984 131.404 116.624V115.824H130.284V124H131.404V118.864C131.404 117.6 132.028 116.64 133.292 116.64C134.828 116.64 135.068 117.968 135.068 118.992V124H136.188V118.992C136.188 117.728 136.844 116.64 138.076 116.64C139.612 116.64 139.852 117.968 139.852 118.992V124ZM146.76 124.192C147.704 124.192 148.616 123.792 149.256 123.264L148.648 122.512C148.024 122.976 147.4 123.152 146.808 123.152C145.416 123.152 144.584 122.032 144.392 120.368H149.96C149.992 120.016 149.992 119.76 149.992 119.584C149.992 116.832 148.504 115.632 146.76 115.632C144.664 115.632 143.208 117.184 143.208 119.904C143.208 122.208 144.552 124.192 146.76 124.192ZM144.36 119.36C144.456 117.504 145.448 116.64 146.76 116.64C147.624 116.64 148.84 117.152 148.856 119.36H144.36Z" fill="#26324E"/>
<path d="M113.72 164H114.536L118.36 152.8H117.16L114.488 161.2C114.392 161.52 114.28 161.856 114.184 162.192C114.072 161.856 113.976 161.52 113.864 161.2L111.064 152.8H109.88L113.72 164ZM122.415 164.192C124.511 164.192 125.919 162.592 125.919 159.904C125.919 157.184 124.511 155.632 122.415 155.632C120.319 155.632 118.911 157.232 118.911 159.92C118.911 162.64 120.319 164.192 122.415 164.192ZM122.415 163.184C120.895 163.184 120.079 161.952 120.079 159.92C120.079 157.792 120.895 156.64 122.415 156.64C123.935 156.64 124.751 157.872 124.751 159.904C124.751 161.952 123.903 163.184 122.415 163.184ZM130.285 164.192C130.909 164.192 131.357 164.048 131.773 163.824L131.901 162.656C131.597 162.864 131.213 163.136 130.669 163.136C129.885 163.136 129.789 162.544 129.789 161.84V156.832H131.869V155.824H129.789V152.448L128.669 153.008V155.824H127.277V156.832H128.669V162.32C128.669 163.392 129.117 164.192 130.285 164.192ZM134.719 154.144C135.151 154.144 135.455 153.824 135.455 153.408C135.455 152.976 135.151 152.64 134.719 152.64C134.303 152.64 133.983 152.976 133.983 153.408C133.983 153.824 134.303 154.144 134.719 154.144ZM134.159 164H135.279V155.824H134.159V164ZM143.214 164H144.334V159.472C144.334 156.768 143.406 155.632 141.406 155.632C140.542 155.632 139.806 155.984 139.294 156.72V155.824H138.174V164H139.294V158.976C139.294 157.2 140.158 156.64 141.31 156.64C142.398 156.64 143.214 157.28 143.214 159.008V164ZM149.432 167.408C151.432 167.328 153.272 166.56 153.272 163.872V155.824H152.152V156.592C151.88 156.272 151.224 155.632 149.976 155.632C147.976 155.632 146.568 157.216 146.568 159.904C146.568 162.752 148.152 164.192 149.911 164.192C151.032 164.192 151.688 163.76 152.152 163.072V164.32C152.152 165.44 151.576 166.384 148.92 166.528L149.432 167.408ZM150.168 163.184C148.776 163.184 147.736 162 147.736 159.904C147.736 157.808 148.552 156.64 150.168 156.64C150.76 156.64 151.688 157.072 152.152 157.888V161.824C151.704 162.672 150.84 163.184 150.168 163.184Z" fill="#26324E"/>
<path d="M110.68 204H111.8V198.736H115.464V197.68H111.8V193.872H117.224V192.8H110.68V204ZM120.047 194.144C120.479 194.144 120.783 193.824 120.783 193.408C120.783 192.976 120.479 192.64 120.047 192.64C119.631 192.64 119.311 192.976 119.311 193.408C119.311 193.824 119.631 194.144 120.047 194.144ZM119.487 204H120.607V195.824H119.487V204ZM128.543 204H129.663V199.472C129.663 196.768 128.735 195.632 126.735 195.632C125.871 195.632 125.135 195.984 124.623 196.72V195.824H123.503V204H124.623V198.976C124.623 197.2 125.487 196.64 126.639 196.64C127.727 196.64 128.543 197.28 128.543 199.008V204ZM137.16 204H138.2V198.464C138.2 196.144 136.648 195.632 135.48 195.632C134.36 195.632 133.272 196.112 132.616 196.528L132.936 197.488C133.544 197.072 134.552 196.608 135.368 196.608C136.28 196.608 137.16 196.96 137.16 198.608V199.296C136.36 198.864 135.64 198.72 134.952 198.72C133.4 198.72 131.976 199.536 131.976 201.424C131.976 203.264 133.112 204.192 134.76 204.192C135.64 204.192 136.504 203.792 137.16 203.2V204ZM134.872 203.216C133.688 203.216 133.016 202.496 133.016 201.424C133.016 200.24 133.96 199.696 135.064 199.696C135.768 199.696 136.632 200.016 137.16 200.368V201.952C136.664 202.56 135.864 203.216 134.872 203.216ZM145.793 204H146.913V199.472C146.913 196.768 145.985 195.632 143.985 195.632C143.121 195.632 142.385 195.984 141.873 196.72V195.824H140.753V204H141.873V198.976C141.873 197.2 142.737 196.64 143.889 196.64C144.977 196.64 145.793 197.28 145.793 199.008V204ZM152.378 204.192C153.77 204.192 154.858 203.472 155.242 202.32L154.234 201.936C153.962 202.704 153.306 203.184 152.426 203.184C150.986 203.184 150.314 201.984 150.314 199.92C150.314 197.904 150.938 196.64 152.458 196.64C153.354 196.64 153.85 197.12 154.106 197.744L155.13 197.344C154.682 196.24 153.722 195.632 152.506 195.632C150.41 195.632 149.146 197.232 149.146 199.92C149.146 202.64 150.41 204.192 152.378 204.192ZM160.401 204.192C161.345 204.192 162.257 203.792 162.897 203.264L162.289 202.512C161.665 202.976 161.041 203.152 160.449 203.152C159.057 203.152 158.225 202.032 158.033 200.368H163.601C163.633 200.016 163.633 199.76 163.633 199.584C163.633 196.832 162.145 195.632 160.401 195.632C158.305 195.632 156.849 197.184 156.849 199.904C156.849 202.208 158.193 204.192 160.401 204.192ZM158.001 199.36C158.097 197.504 159.089 196.64 160.401 196.64C161.265 196.64 162.481 197.152 162.497 199.36H158.001Z" fill="#26324E"/>
<path d="M40.834 36.5811V49H39.3398V38.6729L35.5957 47.9629H34.084L30.3398 38.6729V49H28.8457V36.5811H30.9639L34.8398 46.2314L38.7158 36.5811H40.834ZM47.6016 49.1494C46.7051 49.1494 45.9404 48.9502 45.3076 48.5518C44.6748 48.1533 44.1973 47.6143 43.875 46.9346C43.5527 46.249 43.3916 45.4873 43.3916 44.6494C43.3916 43.8232 43.5469 43.0615 43.8574 42.3643C44.168 41.667 44.6279 41.1104 45.2373 40.6943C45.8525 40.2783 46.5908 40.0703 47.4521 40.0703C48.3721 40.0703 49.1221 40.2812 49.7021 40.7031C50.2881 41.125 50.71 41.6553 50.9678 42.2939C51.2256 42.9268 51.3545 43.5771 51.3545 44.2451C51.3545 44.4033 51.3457 44.5615 51.3281 44.7197C51.3164 44.8721 51.3018 44.9834 51.2842 45.0537H44.9648C45.0234 45.915 45.2754 46.5889 45.7207 47.0752C46.1719 47.5557 46.8018 47.7959 47.6104 47.7959C48.1025 47.7959 48.5391 47.7168 48.9199 47.5586C49.3008 47.3945 49.6699 47.1221 50.0273 46.7412L51.0645 47.6465C50.5781 48.168 50.0566 48.5488 49.5 48.7891C48.9492 49.0293 48.3164 49.1494 47.6016 49.1494ZM49.8779 43.9639C49.8779 43.7119 49.8662 43.5273 49.8428 43.4102C49.79 43.0293 49.6641 42.6836 49.4648 42.373C49.2715 42.0566 49.002 41.8047 48.6562 41.6172C48.3164 41.4238 47.9121 41.3271 47.4434 41.3271C46.7227 41.3271 46.1514 41.5674 45.7295 42.0479C45.3076 42.5225 45.0527 43.1611 44.9648 43.9639H49.8779ZM53.543 40.2197H55.0283V41.5557C55.3213 41.0693 55.7051 40.7002 56.1797 40.4482C56.6543 40.1963 57.167 40.0703 57.7178 40.0703C58.4033 40.0703 58.9746 40.2256 59.4316 40.5361C59.8945 40.8408 60.2373 41.2539 60.46 41.7754C60.6885 42.2969 60.8086 42.8828 60.8203 43.5332V49H59.335V43.8057C59.335 43.0674 59.1621 42.4902 58.8164 42.0742C58.4707 41.6582 57.9697 41.4502 57.3135 41.4502C56.5986 41.4502 56.0391 41.6641 55.6348 42.0918C55.2305 42.5137 55.0283 43.1289 55.0283 43.9375V49H53.543V40.2197ZM66.2959 49.1494C65.6104 49.1494 65.0361 48.9971 64.5732 48.6924C64.1162 48.3818 63.7764 47.9658 63.5537 47.4443C63.3311 46.917 63.2139 46.3281 63.2021 45.6777V40.2197H64.6787V45.4141C64.6787 46.1523 64.8516 46.7295 65.1973 47.1455C65.543 47.5615 66.0439 47.7695 66.7002 47.7695C67.415 47.7695 67.9746 47.5586 68.3789 47.1367C68.7891 46.709 68.9941 46.0908 68.9941 45.2822V40.2197H70.4707V49H68.9941V47.6641C68.707 48.1504 68.3232 48.5195 67.8428 48.7715C67.3623 49.0234 66.8467 49.1494 66.2959 49.1494Z" fill="#30404F"/>
</g>
<defs>
<filter id="filter0_d" x="0" y="0" width="252" height="252" filterUnits="userSpaceOnUse" color-interpolation-filters="sRGB">
<feFlood flood-opacity="0" result="BackgroundImageFix"/>
<feColorMatrix in="SourceAlpha" type="matrix" values="0 0 0 0 0 0 0 0 0 0 0 0 0 0 0 0 0 0 127 0"/>
<feOffset dy="1"/>
<feGaussianBlur stdDeviation="1.5"/>
<feColorMatrix type="matrix" values="0 0 0 0 0 0 0 0 0 0 0 0 0 0 0 0 0 0 0.1 0"/>
<feBlend mode="normal" in2="BackgroundImageFix" result="effect1_dropShadow"/>
<feBlend mode="normal" in="SourceGraphic" in2="effect1_dropShadow" result="shape"/>
</filter>
<linearGradient id="paint0_linear" x1="77" y1="142.998" x2="97.1429" y2="171" gradientUnits="userSpaceOnUse">
<stop stop-color="#A8ED2F"/>
<stop offset="1" stop-color="#68DFB1"/>
</linearGradient>
<linearGradient id="paint1_linear" x1="101" y1="211" x2="85.0722" y2="177.939" gradientUnits="userSpaceOnUse">
<stop stop-color="#46C4E6"/>
<stop offset="1" stop-color="#4A80E4"/>
</linearGradient>
<linearGradient id="paint2_linear" x1="89.091" y1="190.882" x2="104.589" y2="218.985" gradientUnits="userSpaceOnUse">
<stop stop-color="white"/>
<stop offset="1" stop-color="white" stop-opacity="0"/>
</linearGradient>
<linearGradient id="paint3_linear" x1="101" y1="131" x2="72.5" y2="104" gradientUnits="userSpaceOnUse">
<stop stop-color="#43D8F8"/>
<stop offset="1" stop-color="#68DFD8"/>
</linearGradient>
</defs>
</svg>
