<svg width="252" height="252" viewBox="0 0 252 252" fill="none" xmlns="http://www.w3.org/2000/svg">
<g filter="url(#filter0_d)">
<rect x="3" y="2" width="246" height="246" rx="3" fill="white"/>
<rect x="3.5" y="2.5" width="245" height="245" rx="2.5" stroke="#DFE3E8" stroke-opacity="0.75"/>
</g>
<path d="M28.8457 36.5811H32.4141C33.252 36.5811 33.9902 36.7217 34.6289 37.0029C35.2734 37.2842 35.7744 37.6943 36.1318 38.2334C36.4893 38.7725 36.668 39.4111 36.668 40.1494C36.668 40.8877 36.4922 41.5205 36.1406 42.0479C35.7891 42.5752 35.291 42.9766 34.6465 43.252C34.0078 43.5215 33.2637 43.6562 32.4141 43.6562H30.3838V49H28.8457V36.5811ZM32.4141 42.2061C33.3223 42.2061 34.002 42.0332 34.4531 41.6875C34.9043 41.3359 35.1299 40.8232 35.1299 40.1494C35.1299 39.4756 34.8984 38.9541 34.4355 38.585C33.9785 38.2158 33.3047 38.0312 32.4141 38.0312H30.3838V42.2061H32.4141ZM41.4756 40.0703C42.2314 40.0703 42.8789 40.2168 43.418 40.5098C43.9629 40.7969 44.376 41.21 44.6572 41.749C44.9385 42.2881 45.0791 42.9209 45.0791 43.6475V49H43.8398L43.7432 47.4355C43.4443 47.9863 43.0195 48.4111 42.4688 48.71C41.918 49.0029 41.3291 49.1494 40.7021 49.1494C40.1045 49.1494 39.5713 49.041 39.1025 48.8242C38.6396 48.6016 38.2764 48.2852 38.0127 47.875C37.749 47.459 37.6172 46.9668 37.6172 46.3984C37.6172 45.5254 37.9336 44.8896 38.5664 44.4912C39.2051 44.0869 40.0957 43.8848 41.2383 43.8848H43.7256C43.7197 43.2988 43.6465 42.8242 43.5059 42.4609C43.3652 42.0918 43.1309 41.8193 42.8027 41.6436C42.4805 41.4619 42.0439 41.3711 41.4932 41.3711C40.4912 41.3711 39.6943 41.8281 39.1025 42.7422L37.96 41.916C38.4053 41.3066 38.9092 40.8467 39.4717 40.5361C40.0342 40.2256 40.7021 40.0703 41.4756 40.0703ZM40.9922 47.875C41.707 47.875 42.3018 47.6611 42.7764 47.2334C43.2568 46.7998 43.5732 46.2373 43.7256 45.5459V44.9746H41.3262C40.6055 44.9746 40.0605 45.1064 39.6914 45.3701C39.3281 45.6338 39.1465 45.9941 39.1465 46.4512C39.1465 46.8848 39.3076 47.2305 39.6299 47.4883C39.9521 47.7461 40.4062 47.875 40.9922 47.875ZM51.2754 47.8398C52.0371 47.9512 52.6553 48.0771 53.1299 48.2178C53.6104 48.3525 54.0146 48.5869 54.3428 48.9209C54.6709 49.2549 54.835 49.7207 54.835 50.3184C54.835 50.9043 54.6738 51.4053 54.3516 51.8213C54.0352 52.2373 53.5957 52.5508 53.0332 52.7617C52.4707 52.9727 51.8262 53.0781 51.0996 53.0781C50.2559 53.0781 49.5293 52.9492 48.9199 52.6914C48.3164 52.4336 47.8564 52.0762 47.54 51.6191C47.2236 51.168 47.0654 50.6465 47.0654 50.0547C47.0654 49.9141 47.0742 49.7852 47.0918 49.668L48.3047 48.5869C47.6074 48.2236 47.2588 47.6582 47.2588 46.8906C47.2588 46.5215 47.335 46.1963 47.4873 45.915C47.6396 45.6338 47.8652 45.3818 48.1641 45.1592C47.9238 44.8896 47.7393 44.585 47.6104 44.2451C47.4814 43.9053 47.417 43.542 47.417 43.1553C47.417 42.5635 47.5693 42.0332 47.874 41.5645C48.1787 41.0957 48.5918 40.7295 49.1133 40.4658C49.6348 40.2021 50.209 40.0703 50.8359 40.0703C51.2461 40.0703 51.6357 40.1289 52.0049 40.2461C52.374 40.3574 52.708 40.5186 53.0068 40.7295L54.2549 39.6484L55.0283 40.6152L53.8242 41.6172C54.1172 42.0918 54.2637 42.6309 54.2637 43.2344C54.2637 43.8379 54.1143 44.3711 53.8154 44.834C53.5166 45.2969 53.1094 45.6543 52.5938 45.9062C52.0781 46.1582 51.5068 46.2842 50.8799 46.2842C50.2236 46.2842 49.626 46.1465 49.0869 45.8711C48.7236 46.0469 48.542 46.3018 48.542 46.6357C48.542 46.8936 48.6387 47.0957 48.832 47.2422C49.0312 47.3887 49.2861 47.4971 49.5967 47.5674C49.9131 47.6377 50.3701 47.7139 50.9678 47.7959L51.2754 47.8398ZM50.8887 41.2305C50.502 41.2305 50.1621 41.3125 49.8691 41.4766C49.5762 41.6406 49.3506 41.8691 49.1924 42.1621C49.0342 42.4551 48.9551 42.7891 48.9551 43.1641C48.9551 43.5391 49.0312 43.8701 49.1836 44.1572C49.3418 44.4385 49.5645 44.6611 49.8516 44.8252C50.1445 44.9834 50.4873 45.0625 50.8799 45.0625C51.2725 45.0625 51.6123 44.9834 51.8994 44.8252C52.1865 44.667 52.4062 44.4443 52.5586 44.1572C52.7109 43.8701 52.7871 43.542 52.7871 43.1729C52.7871 42.792 52.7109 42.4551 52.5586 42.1621C52.4062 41.8691 52.1865 41.6406 51.8994 41.4766C51.6123 41.3125 51.2754 41.2305 50.8887 41.2305ZM51.0908 51.9092C51.8057 51.9092 52.3711 51.7832 52.7871 51.5312C53.209 51.2793 53.4199 50.9277 53.4199 50.4766C53.4199 50.1719 53.3145 49.9346 53.1035 49.7646C52.8984 49.5947 52.6172 49.4688 52.2598 49.3867C51.9082 49.3047 51.4072 49.2227 50.7568 49.1406C50.7041 49.1348 50.5107 49.1113 50.1768 49.0703C49.8486 49.0293 49.5322 48.9736 49.2275 48.9033L48.4014 49.9844L48.4277 50.248C48.5156 50.7871 48.7969 51.1973 49.2715 51.4785C49.752 51.7656 50.3584 51.9092 51.0908 51.9092ZM56.9004 36.5811H58.4561V38.4443H56.9004V36.5811ZM56.9355 40.2197H58.4209V49H56.9355V40.2197ZM61.3652 40.2197H62.8506V41.5557C63.1436 41.0693 63.5273 40.7002 64.002 40.4482C64.4766 40.1963 64.9893 40.0703 65.54 40.0703C66.2256 40.0703 66.7969 40.2256 67.2539 40.5361C67.7168 40.8408 68.0596 41.2539 68.2822 41.7754C68.5107 42.2969 68.6309 42.8828 68.6426 43.5332V49H67.1572V43.8057C67.1572 43.0674 66.9844 42.4902 66.6387 42.0742C66.293 41.6582 65.792 41.4502 65.1357 41.4502C64.4209 41.4502 63.8613 41.6641 63.457 42.0918C63.0527 42.5137 62.8506 43.1289 62.8506 43.9375V49H61.3652V40.2197ZM74.417 40.0703C75.1729 40.0703 75.8203 40.2168 76.3594 40.5098C76.9043 40.7969 77.3174 41.21 77.5986 41.749C77.8799 42.2881 78.0205 42.9209 78.0205 43.6475V49H76.7812L76.6846 47.4355C76.3857 47.9863 75.9609 48.4111 75.4102 48.71C74.8594 49.0029 74.2705 49.1494 73.6436 49.1494C73.0459 49.1494 72.5127 49.041 72.0439 48.8242C71.5811 48.6016 71.2178 48.2852 70.9541 47.875C70.6904 47.459 70.5586 46.9668 70.5586 46.3984C70.5586 45.5254 70.875 44.8896 71.5078 44.4912C72.1465 44.0869 73.0371 43.8848 74.1797 43.8848H76.667C76.6611 43.2988 76.5879 42.8242 76.4473 42.4609C76.3066 42.0918 76.0723 41.8193 75.7441 41.6436C75.4219 41.4619 74.9854 41.3711 74.4346 41.3711C73.4326 41.3711 72.6357 41.8281 72.0439 42.7422L70.9014 41.916C71.3467 41.3066 71.8506 40.8467 72.4131 40.5361C72.9756 40.2256 73.6436 40.0703 74.417 40.0703ZM73.9336 47.875C74.6484 47.875 75.2432 47.6611 75.7178 47.2334C76.1982 46.7998 76.5146 46.2373 76.667 45.5459V44.9746H74.2676C73.5469 44.9746 73.002 45.1064 72.6328 45.3701C72.2695 45.6338 72.0879 45.9941 72.0879 46.4512C72.0879 46.8848 72.249 47.2305 72.5713 47.4883C72.8936 47.7461 73.3477 47.875 73.9336 47.875ZM83.4961 49.1494C82.6934 49.1494 82.0752 48.9238 81.6416 48.4727C81.208 48.0156 80.9912 47.374 80.9912 46.5479V41.4766H79.541V40.2197H81.0088V37.7939L82.4766 36.7217V40.2197H84.8496V41.4766H82.4766V46.3018C82.4766 46.8408 82.582 47.2305 82.793 47.4707C83.0098 47.7109 83.3291 47.8311 83.751 47.8311C83.9385 47.8311 84.1289 47.8076 84.3223 47.7607C84.5215 47.708 84.6943 47.6494 84.8408 47.585L84.8496 48.9385C84.6973 48.9971 84.498 49.0469 84.252 49.0879C84.0059 49.1289 83.7539 49.1494 83.4961 49.1494ZM87.0117 36.5811H88.5674V38.4443H87.0117V36.5811ZM87.0469 40.2197H88.5322V49H87.0469V40.2197ZM95.0098 49.1494C94.1719 49.1494 93.4248 48.9473 92.7686 48.543C92.1123 48.1328 91.5996 47.582 91.2305 46.8906C90.8672 46.1934 90.6855 45.4258 90.6855 44.5879C90.6855 43.7559 90.8672 42.9971 91.2305 42.3115C91.5996 41.6201 92.1123 41.0752 92.7686 40.6768C93.4248 40.2725 94.1719 40.0703 95.0098 40.0703C95.8477 40.0703 96.5947 40.2725 97.251 40.6768C97.9131 41.0752 98.4287 41.6201 98.7979 42.3115C99.167 43.0029 99.3516 43.7617 99.3516 44.5879C99.3516 45.4258 99.167 46.1934 98.7979 46.8906C98.4287 47.582 97.9131 48.1328 97.251 48.543C96.5947 48.9473 95.8477 49.1494 95.0098 49.1494ZM95.0098 47.8574C95.5957 47.8574 96.0996 47.7109 96.5215 47.418C96.9434 47.125 97.2627 46.7324 97.4795 46.2402C97.6963 45.7422 97.8047 45.1914 97.8047 44.5879C97.8047 43.9902 97.6963 43.4482 97.4795 42.9619C97.2627 42.4697 96.9434 42.0801 96.5215 41.793C96.0996 41.5059 95.5957 41.3623 95.0098 41.3623C94.4297 41.3623 93.9287 41.5059 93.5068 41.793C93.0908 42.0742 92.7744 42.4609 92.5576 42.9531C92.3408 43.4395 92.2324 43.9844 92.2324 44.5879C92.2324 45.1914 92.3408 45.7422 92.5576 46.2402C92.7744 46.7383 93.0908 47.1338 93.5068 47.4268C93.9287 47.7139 94.4297 47.8574 95.0098 47.8574ZM101.531 40.2197H103.017V41.5557C103.31 41.0693 103.693 40.7002 104.168 40.4482C104.643 40.1963 105.155 40.0703 105.706 40.0703C106.392 40.0703 106.963 40.2256 107.42 40.5361C107.883 40.8408 108.226 41.2539 108.448 41.7754C108.677 42.2969 108.797 42.8828 108.809 43.5332V49H107.323V43.8057C107.323 43.0674 107.15 42.4902 106.805 42.0742C106.459 41.6582 105.958 41.4502 105.302 41.4502C104.587 41.4502 104.027 41.6641 103.623 42.0918C103.219 42.5137 103.017 43.1289 103.017 43.9375V49H101.531V40.2197Z" fill="#30404F"/>
<rect x="99" y="125" width="24" height="24" rx="4" fill="#08BEE5"/>
<path d="M166.118 142.196C166.622 142.196 167 141.762 167 141.314C167 140.866 166.622 140.432 166.118 140.432C165.614 140.432 165.236 140.866 165.236 141.314C165.236 141.762 165.614 142.196 166.118 142.196ZM169.003 142.196C169.507 142.196 169.885 141.762 169.885 141.314C169.885 140.866 169.507 140.432 169.003 140.432C168.499 140.432 168.121 140.866 168.121 141.314C168.121 141.762 168.499 142.196 169.003 142.196ZM171.888 142.196C172.392 142.196 172.77 141.762 172.77 141.314C172.77 140.866 172.392 140.432 171.888 140.432C171.384 140.432 171.006 140.866 171.006 141.314C171.006 141.762 171.384 142.196 171.888 142.196Z" fill="#C4C4C4"/>
<path d="M46.8898 142.395H47.8698V132.595H47.2398C46.9318 133.519 46.2038 133.813 45.2238 133.813V134.373H46.8898V142.395Z" fill="#26324E"/>
<path d="M75.7915 142H82.2175V141.062H76.8275C77.0515 139.83 78.1015 139.13 79.2215 138.402C80.6355 137.492 82.1335 136.582 82.1335 134.79C82.1335 133.124 80.9995 132.032 79.0675 132.032C77.4015 132.032 76.2255 132.956 75.9315 134.104L76.7995 134.496C77.0375 133.558 77.6535 132.914 78.9835 132.914C80.3415 132.914 81.1115 133.726 81.1115 134.79C81.1115 136.05 79.9775 136.792 78.7595 137.618C77.3455 138.57 75.7915 139.55 75.7915 142Z" fill="#26324E"/>
<path d="M110.863 142.168C112.739 142.168 114.237 141.02 114.237 139.214C114.237 138.01 113.607 137.17 112.599 136.764C113.411 136.344 113.859 135.518 113.859 134.636C113.859 133.138 112.613 132.032 110.905 132.032C109.295 132.032 108.259 132.942 107.825 134.062L108.959 134.496C109.253 133.866 109.827 133.18 110.905 133.18C111.885 133.18 112.585 133.782 112.585 134.776C112.585 135.7 111.899 136.33 110.863 136.33H110.233V137.478H110.933C112.305 137.478 112.963 138.22 112.963 139.256C112.963 140.46 112.011 141.006 110.863 141.006C109.869 141.006 109.113 140.544 108.651 139.424L107.517 139.886C108.021 141.216 109.043 142.168 110.863 142.168Z" fill="white"/>
<path d="M144.073 142H145.053V139.354H146.537V138.514H145.053V132.2H144.465L139.313 138.836V139.354H144.073V142ZM144.073 138.514H140.587L144.073 133.894V138.514Z" fill="#26324E"/>
<path d="M190.617 142H191.597V132.2H190.967C190.659 133.124 189.931 133.418 188.951 133.418V133.978H190.617V142ZM194.198 142H200.624V141.062H195.234C195.458 139.83 196.508 139.13 197.628 138.402C199.042 137.492 200.54 136.582 200.54 134.79C200.54 133.124 199.406 132.032 197.474 132.032C195.808 132.032 194.632 132.956 194.338 134.104L195.206 134.496C195.444 133.558 196.06 132.914 197.39 132.914C198.748 132.914 199.518 133.726 199.518 134.79C199.518 136.05 198.384 136.792 197.166 137.618C195.752 138.57 194.198 139.55 194.198 142Z" fill="#26324E"/>
<defs>
<filter id="filter0_d" x="0" y="0" width="252" height="252" filterUnits="userSpaceOnUse" color-interpolation-filters="sRGB">
<feFlood flood-opacity="0" result="BackgroundImageFix"/>
<feColorMatrix in="SourceAlpha" type="matrix" values="0 0 0 0 0 0 0 0 0 0 0 0 0 0 0 0 0 0 127 0"/>
<feOffset dy="1"/>
<feGaussianBlur stdDeviation="1.5"/>
<feColorMatrix type="matrix" values="0 0 0 0 0 0 0 0 0 0 0 0 0 0 0 0 0 0 0.1 0"/>
<feBlend mode="normal" in2="BackgroundImageFix" result="effect1_dropShadow"/>
<feBlend mode="normal" in="SourceGraphic" in2="effect1_dropShadow" result="shape"/>
</filter>
</defs>
</svg>
