<svg width="252" height="252" viewBox="0 0 252 252" fill="none" xmlns="http://www.w3.org/2000/svg">
<g filter="url(#filter0_d)">
<rect x="3" y="2" width="246" height="246" rx="3" fill="white"/>
<rect x="3.5" y="2.5" width="245" height="245" rx="2.5" stroke="#DFE3E8" stroke-opacity="0.75"/>
</g>
<path d="M28.8457 36.5811H32.4141C33.252 36.5811 33.9902 36.7217 34.6289 37.0029C35.2734 37.2842 35.7744 37.6943 36.1318 38.2334C36.4893 38.7725 36.668 39.4111 36.668 40.1494C36.668 40.8877 36.4922 41.5205 36.1406 42.0479C35.7891 42.5752 35.291 42.9766 34.6465 43.252C34.0078 43.5215 33.2637 43.6562 32.4141 43.6562H30.3838V49H28.8457V36.5811ZM32.4141 42.2061C33.3223 42.2061 34.002 42.0332 34.4531 41.6875C34.9043 41.3359 35.1299 40.8232 35.1299 40.1494C35.1299 39.4756 34.8984 38.9541 34.4355 38.585C33.9785 38.2158 33.3047 38.0312 32.4141 38.0312H30.3838V42.2061H32.4141ZM41.748 49.1494C40.9102 49.1494 40.1631 48.9473 39.5068 48.543C38.8506 48.1328 38.3379 47.582 37.9688 46.8906C37.6055 46.1934 37.4238 45.4258 37.4238 44.5879C37.4238 43.7559 37.6055 42.9971 37.9688 42.3115C38.3379 41.6201 38.8506 41.0752 39.5068 40.6768C40.1631 40.2725 40.9102 40.0703 41.748 40.0703C42.5859 40.0703 43.333 40.2725 43.9893 40.6768C44.6514 41.0752 45.167 41.6201 45.5361 42.3115C45.9053 43.0029 46.0898 43.7617 46.0898 44.5879C46.0898 45.4258 45.9053 46.1934 45.5361 46.8906C45.167 47.582 44.6514 48.1328 43.9893 48.543C43.333 48.9473 42.5859 49.1494 41.748 49.1494ZM41.748 47.8574C42.334 47.8574 42.8379 47.7109 43.2598 47.418C43.6816 47.125 44.001 46.7324 44.2178 46.2402C44.4346 45.7422 44.543 45.1914 44.543 44.5879C44.543 43.9902 44.4346 43.4482 44.2178 42.9619C44.001 42.4697 43.6816 42.0801 43.2598 41.793C42.8379 41.5059 42.334 41.3623 41.748 41.3623C41.168 41.3623 40.667 41.5059 40.2451 41.793C39.8291 42.0742 39.5127 42.4609 39.2959 42.9531C39.0791 43.4395 38.9707 43.9844 38.9707 44.5879C38.9707 45.1914 39.0791 45.7422 39.2959 46.2402C39.5127 46.7383 39.8291 47.1338 40.2451 47.4268C40.667 47.7139 41.168 47.8574 41.748 47.8574ZM48.2871 40.2197H49.8252V41.8018C50.1064 41.2568 50.5078 40.832 51.0293 40.5273C51.5566 40.2227 52.1338 40.0703 52.7607 40.0703C53.5283 40.0703 54.1934 40.2754 54.7559 40.6855C55.3184 41.0898 55.7461 41.6377 56.0391 42.3291C56.3379 43.0146 56.4873 43.7764 56.4873 44.6143C56.4873 45.4521 56.3379 46.2168 56.0391 46.9082C55.7461 47.5938 55.3154 48.1387 54.7471 48.543C54.1846 48.9473 53.5137 49.1494 52.7344 49.1494C52.1074 49.1494 51.5361 49 51.0205 48.7012C50.5049 48.3965 50.1064 47.9688 49.8252 47.418V52.6387H48.2871V40.2197ZM52.4004 47.7959C52.957 47.7959 53.4287 47.6582 53.8154 47.3828C54.208 47.1016 54.501 46.7207 54.6943 46.2402C54.8936 45.7598 54.9932 45.2178 54.9932 44.6143C54.9932 44.0107 54.8936 43.4717 54.6943 42.9971C54.501 42.5166 54.208 42.1387 53.8154 41.8633C53.4287 41.5879 52.957 41.4502 52.4004 41.4502C51.8438 41.4502 51.3604 41.5879 50.9502 41.8633C50.54 42.1328 50.2266 42.5078 50.0098 42.9883C49.7988 43.4629 49.6934 44.0049 49.6934 44.6143C49.6934 45.2178 49.8018 45.7627 50.0186 46.249C50.2354 46.7295 50.5459 47.1074 50.9502 47.3828C51.3604 47.6582 51.8438 47.7959 52.4004 47.7959ZM58.6758 43.0234H63.5537V44.166H58.6758V43.0234ZM69.9785 49.1494C69.1406 49.1494 68.3936 48.9473 67.7373 48.543C67.0811 48.1328 66.5684 47.582 66.1992 46.8906C65.8359 46.1934 65.6543 45.4258 65.6543 44.5879C65.6543 43.7559 65.8359 42.9971 66.1992 42.3115C66.5684 41.6201 67.0811 41.0752 67.7373 40.6768C68.3936 40.2725 69.1406 40.0703 69.9785 40.0703C70.8164 40.0703 71.5635 40.2725 72.2197 40.6768C72.8818 41.0752 73.3975 41.6201 73.7666 42.3115C74.1357 43.0029 74.3203 43.7617 74.3203 44.5879C74.3203 45.4258 74.1357 46.1934 73.7666 46.8906C73.3975 47.582 72.8818 48.1328 72.2197 48.543C71.5635 48.9473 70.8164 49.1494 69.9785 49.1494ZM69.9785 47.8574C70.5645 47.8574 71.0684 47.7109 71.4902 47.418C71.9121 47.125 72.2314 46.7324 72.4482 46.2402C72.665 45.7422 72.7734 45.1914 72.7734 44.5879C72.7734 43.9902 72.665 43.4482 72.4482 42.9619C72.2314 42.4697 71.9121 42.0801 71.4902 41.793C71.0684 41.5059 70.5645 41.3623 69.9785 41.3623C69.3984 41.3623 68.8975 41.5059 68.4756 41.793C68.0596 42.0742 67.7432 42.4609 67.5264 42.9531C67.3096 43.4395 67.2012 43.9844 67.2012 44.5879C67.2012 45.1914 67.3096 45.7422 67.5264 46.2402C67.7432 46.7383 68.0596 47.1338 68.4756 47.4268C68.8975 47.7139 69.3984 47.8574 69.9785 47.8574ZM74.9268 40.2197H76.5527L79.1367 47.0928L81.7295 40.2197H83.3555L79.7607 49H78.5127L74.9268 40.2197ZM88.2246 49.1494C87.3281 49.1494 86.5635 48.9502 85.9307 48.5518C85.2979 48.1533 84.8203 47.6143 84.498 46.9346C84.1758 46.249 84.0146 45.4873 84.0146 44.6494C84.0146 43.8232 84.1699 43.0615 84.4805 42.3643C84.791 41.667 85.251 41.1104 85.8604 40.6943C86.4756 40.2783 87.2139 40.0703 88.0752 40.0703C88.9951 40.0703 89.7451 40.2812 90.3252 40.7031C90.9111 41.125 91.333 41.6553 91.5908 42.2939C91.8486 42.9268 91.9775 43.5771 91.9775 44.2451C91.9775 44.4033 91.9688 44.5615 91.9512 44.7197C91.9395 44.8721 91.9248 44.9834 91.9072 45.0537H85.5879C85.6465 45.915 85.8984 46.5889 86.3438 47.0752C86.7949 47.5557 87.4248 47.7959 88.2334 47.7959C88.7256 47.7959 89.1621 47.7168 89.543 47.5586C89.9238 47.3945 90.293 47.1221 90.6504 46.7412L91.6875 47.6465C91.2012 48.168 90.6797 48.5488 90.123 48.7891C89.5723 49.0293 88.9395 49.1494 88.2246 49.1494ZM90.501 43.9639C90.501 43.7119 90.4893 43.5273 90.4658 43.4102C90.4131 43.0293 90.2871 42.6836 90.0879 42.373C89.8945 42.0566 89.625 41.8047 89.2793 41.6172C88.9395 41.4238 88.5352 41.3271 88.0664 41.3271C87.3457 41.3271 86.7744 41.5674 86.3525 42.0479C85.9307 42.5225 85.6758 43.1611 85.5879 43.9639H90.501ZM94.166 40.2197H95.6162V41.9424C95.751 41.5381 95.9561 41.1953 96.2314 40.9141C96.5068 40.6328 96.8145 40.4219 97.1543 40.2812C97.5 40.1406 97.8516 40.0703 98.209 40.0703C98.4785 40.0703 98.7393 40.1113 98.9912 40.1934C99.2432 40.2695 99.4658 40.3896 99.6592 40.5537L98.9736 41.7842C98.6572 41.6084 98.3291 41.5205 97.9893 41.5205C97.5908 41.5205 97.21 41.6348 96.8467 41.8633C96.4834 42.0918 96.1846 42.4521 95.9502 42.9443C95.7217 43.4307 95.6074 44.04 95.6074 44.7725V49H94.166V40.2197ZM103.465 49.1494C102.885 49.1494 102.349 49.0469 101.856 48.8418C101.364 48.6367 100.945 48.3555 100.6 47.998C100.254 47.6348 100.008 47.2305 99.8613 46.7852L101.065 46.2578C101.235 46.7266 101.517 47.1191 101.909 47.4355C102.302 47.7461 102.797 47.9014 103.395 47.9014C103.787 47.9014 104.121 47.8398 104.396 47.7168C104.672 47.5879 104.877 47.415 105.012 47.1982C105.152 46.9814 105.223 46.7412 105.223 46.4775C105.223 46.1846 105.132 45.9502 104.95 45.7744C104.774 45.5928 104.552 45.4521 104.282 45.3525C104.013 45.2529 103.641 45.1445 103.166 45.0273C102.562 44.875 102.073 44.7256 101.698 44.5791C101.329 44.4268 101.013 44.1924 100.749 43.876C100.485 43.5537 100.354 43.123 100.354 42.584C100.354 42.0508 100.491 41.5967 100.767 41.2217C101.042 40.8408 101.414 40.5537 101.883 40.3604C102.352 40.167 102.873 40.0703 103.447 40.0703C104.15 40.0703 104.771 40.2314 105.311 40.5537C105.855 40.876 106.289 41.333 106.611 41.9248L105.46 42.5488C105.249 42.1621 104.971 41.8516 104.625 41.6172C104.285 41.377 103.875 41.2568 103.395 41.2568C102.902 41.2568 102.51 41.3623 102.217 41.5732C101.924 41.7842 101.777 42.0566 101.777 42.3906C101.777 42.6484 101.862 42.8594 102.032 43.0234C102.202 43.1816 102.416 43.3105 102.674 43.4102C102.932 43.5039 103.283 43.6094 103.729 43.7266C104.355 43.8965 104.865 44.0664 105.258 44.2363C105.65 44.4004 105.987 44.6582 106.269 45.0098C106.55 45.3555 106.69 45.8213 106.69 46.4072C106.69 46.999 106.544 47.5029 106.251 47.9189C105.958 48.3291 105.565 48.6367 105.073 48.8418C104.587 49.0469 104.051 49.1494 103.465 49.1494Z" fill="#30404F"/>
<g filter="url(#filter1_d)">
<rect x="67" y="84" width="112" height="112" rx="8" fill="white"/>
</g>
<rect width="20" height="20" transform="translate(150 94)" fill="white"/>
<path d="M166.509 97.4913C166.299 97.2809 165.958 97.2809 165.747 97.4913L153.491 109.748C153.281 109.958 153.281 110.299 153.491 110.509C153.596 110.614 153.734 110.667 153.872 110.667C154.01 110.667 154.148 110.614 154.253 110.509L166.509 98.2529C166.719 98.0426 166.719 97.7016 166.509 97.4913Z" fill="#212B36"/>
<path d="M166.509 109.747L154.253 97.4913C154.042 97.2809 153.701 97.2809 153.491 97.4913C153.281 97.7016 153.281 98.0426 153.491 98.2529L165.747 110.509C165.852 110.614 165.99 110.667 166.128 110.667C166.266 110.667 166.404 110.614 166.509 110.509C166.719 110.299 166.719 109.958 166.509 109.747Z" fill="#212B36"/>
<rect x="77" y="124" width="89" height="6" fill="url(#paint0_linear)"/>
<rect x="77" y="136" width="89" height="6" fill="url(#paint1_linear)"/>
<rect x="77" y="148" width="89" height="6" fill="url(#paint2_linear)" fill-opacity="0.9"/>
<rect x="77" y="160" width="89" height="6" fill="url(#paint3_linear)" fill-opacity="0.8"/>
<rect x="77" y="172" width="89" height="6" fill="url(#paint4_linear)" fill-opacity="0.6"/>
<defs>
<filter id="filter0_d" x="0" y="0" width="252" height="252" filterUnits="userSpaceOnUse" color-interpolation-filters="sRGB">
<feFlood flood-opacity="0" result="BackgroundImageFix"/>
<feColorMatrix in="SourceAlpha" type="matrix" values="0 0 0 0 0 0 0 0 0 0 0 0 0 0 0 0 0 0 127 0"/>
<feOffset dy="1"/>
<feGaussianBlur stdDeviation="1.5"/>
<feColorMatrix type="matrix" values="0 0 0 0 0 0 0 0 0 0 0 0 0 0 0 0 0 0 0.1 0"/>
<feBlend mode="normal" in2="BackgroundImageFix" result="effect1_dropShadow"/>
<feBlend mode="normal" in="SourceGraphic" in2="effect1_dropShadow" result="shape"/>
</filter>
<filter id="filter1_d" x="61" y="80" width="124" height="124" filterUnits="userSpaceOnUse" color-interpolation-filters="sRGB">
<feFlood flood-opacity="0" result="BackgroundImageFix"/>
<feColorMatrix in="SourceAlpha" type="matrix" values="0 0 0 0 0 0 0 0 0 0 0 0 0 0 0 0 0 0 127 0"/>
<feOffset dy="2"/>
<feGaussianBlur stdDeviation="3"/>
<feColorMatrix type="matrix" values="0 0 0 0 0 0 0 0 0 0 0 0 0 0 0 0 0 0 0.15 0"/>
<feBlend mode="normal" in2="BackgroundImageFix" result="effect1_dropShadow"/>
<feBlend mode="normal" in="SourceGraphic" in2="effect1_dropShadow" result="shape"/>
</filter>
<linearGradient id="paint0_linear" x1="80.2561" y1="127" x2="160.573" y2="127" gradientUnits="userSpaceOnUse">
<stop stop-color="#C4C4C4" stop-opacity="0.26"/>
<stop offset="1" stop-color="#C4C4C4" stop-opacity="0.18"/>
</linearGradient>
<linearGradient id="paint1_linear" x1="80.2561" y1="139" x2="160.573" y2="139" gradientUnits="userSpaceOnUse">
<stop stop-color="#C4C4C4" stop-opacity="0.26"/>
<stop offset="1" stop-color="#C4C4C4" stop-opacity="0.18"/>
</linearGradient>
<linearGradient id="paint2_linear" x1="80.2561" y1="151" x2="160.573" y2="151" gradientUnits="userSpaceOnUse">
<stop stop-color="#C4C4C4" stop-opacity="0.26"/>
<stop offset="1" stop-color="#C4C4C4" stop-opacity="0.18"/>
</linearGradient>
<linearGradient id="paint3_linear" x1="80.2561" y1="163" x2="160.573" y2="163" gradientUnits="userSpaceOnUse">
<stop stop-color="#C4C4C4" stop-opacity="0.26"/>
<stop offset="1" stop-color="#C4C4C4" stop-opacity="0.18"/>
</linearGradient>
<linearGradient id="paint4_linear" x1="80.2561" y1="175" x2="160.573" y2="175" gradientUnits="userSpaceOnUse">
<stop stop-color="#C4C4C4" stop-opacity="0.26"/>
<stop offset="1" stop-color="#C4C4C4" stop-opacity="0.18"/>
</linearGradient>
</defs>
</svg>
