<svg width="252" height="252" viewBox="0 0 252 252" fill="none" xmlns="http://www.w3.org/2000/svg">
<g filter="url(#filter0_d)">
<rect x="3" y="2" width="246" height="246" rx="3" fill="white"/>
<rect x="3.5" y="2.5" width="245" height="245" rx="2.5" stroke="#DFE3E8" stroke-opacity="0.75"/>
</g>
<path d="M28.8457 36.5811H32.4141C33.252 36.5811 33.9902 36.7217 34.6289 37.0029C35.2734 37.2842 35.7744 37.6943 36.1318 38.2334C36.4893 38.7725 36.668 39.4111 36.668 40.1494C36.668 40.8877 36.4922 41.5205 36.1406 42.0479C35.7891 42.5752 35.291 42.9766 34.6465 43.252C34.0078 43.5215 33.2637 43.6562 32.4141 43.6562H30.3838V49H28.8457V36.5811ZM32.4141 42.2061C33.3223 42.2061 34.002 42.0332 34.4531 41.6875C34.9043 41.3359 35.1299 40.8232 35.1299 40.1494C35.1299 39.4756 34.8984 38.9541 34.4355 38.585C33.9785 38.2158 33.3047 38.0312 32.4141 38.0312H30.3838V42.2061H32.4141ZM38.584 40.2197H40.0342V41.9424C40.1689 41.5381 40.374 41.1953 40.6494 40.9141C40.9248 40.6328 41.2324 40.4219 41.5723 40.2812C41.918 40.1406 42.2695 40.0703 42.627 40.0703C42.8965 40.0703 43.1572 40.1113 43.4092 40.1934C43.6611 40.2695 43.8838 40.3896 44.0771 40.5537L43.3916 41.7842C43.0752 41.6084 42.7471 41.5205 42.4072 41.5205C42.0088 41.5205 41.6279 41.6348 41.2646 41.8633C40.9014 42.0918 40.6025 42.4521 40.3682 42.9443C40.1396 43.4307 40.0254 44.04 40.0254 44.7725V49H38.584V40.2197ZM48.6035 49.1494C47.7656 49.1494 47.0186 48.9473 46.3623 48.543C45.7061 48.1328 45.1934 47.582 44.8242 46.8906C44.4609 46.1934 44.2793 45.4258 44.2793 44.5879C44.2793 43.7559 44.4609 42.9971 44.8242 42.3115C45.1934 41.6201 45.7061 41.0752 46.3623 40.6768C47.0186 40.2725 47.7656 40.0703 48.6035 40.0703C49.4414 40.0703 50.1885 40.2725 50.8447 40.6768C51.5068 41.0752 52.0225 41.6201 52.3916 42.3115C52.7607 43.0029 52.9453 43.7617 52.9453 44.5879C52.9453 45.4258 52.7607 46.1934 52.3916 46.8906C52.0225 47.582 51.5068 48.1328 50.8447 48.543C50.1885 48.9473 49.4414 49.1494 48.6035 49.1494ZM48.6035 47.8574C49.1895 47.8574 49.6934 47.7109 50.1152 47.418C50.5371 47.125 50.8564 46.7324 51.0732 46.2402C51.29 45.7422 51.3984 45.1914 51.3984 44.5879C51.3984 43.9902 51.29 43.4482 51.0732 42.9619C50.8564 42.4697 50.5371 42.0801 50.1152 41.793C49.6934 41.5059 49.1895 41.3623 48.6035 41.3623C48.0234 41.3623 47.5225 41.5059 47.1006 41.793C46.6846 42.0742 46.3682 42.4609 46.1514 42.9531C45.9346 43.4395 45.8262 43.9844 45.8262 44.5879C45.8262 45.1914 45.9346 45.7422 46.1514 46.2402C46.3682 46.7383 46.6846 47.1338 47.1006 47.4268C47.5225 47.7139 48.0234 47.8574 48.6035 47.8574ZM58.6406 47.8398C59.4023 47.9512 60.0205 48.0771 60.4951 48.2178C60.9756 48.3525 61.3799 48.5869 61.708 48.9209C62.0361 49.2549 62.2002 49.7207 62.2002 50.3184C62.2002 50.9043 62.0391 51.4053 61.7168 51.8213C61.4004 52.2373 60.9609 52.5508 60.3984 52.7617C59.8359 52.9727 59.1914 53.0781 58.4648 53.0781C57.6211 53.0781 56.8945 52.9492 56.2852 52.6914C55.6816 52.4336 55.2217 52.0762 54.9053 51.6191C54.5889 51.168 54.4307 50.6465 54.4307 50.0547C54.4307 49.9141 54.4395 49.7852 54.457 49.668L55.6699 48.5869C54.9727 48.2236 54.624 47.6582 54.624 46.8906C54.624 46.5215 54.7002 46.1963 54.8525 45.915C55.0049 45.6338 55.2305 45.3818 55.5293 45.1592C55.2891 44.8896 55.1045 44.585 54.9756 44.2451C54.8467 43.9053 54.7822 43.542 54.7822 43.1553C54.7822 42.5635 54.9346 42.0332 55.2393 41.5645C55.5439 41.0957 55.957 40.7295 56.4785 40.4658C57 40.2021 57.5742 40.0703 58.2012 40.0703C58.6113 40.0703 59.001 40.1289 59.3701 40.2461C59.7393 40.3574 60.0732 40.5186 60.3721 40.7295L61.6201 39.6484L62.3936 40.6152L61.1895 41.6172C61.4824 42.0918 61.6289 42.6309 61.6289 43.2344C61.6289 43.8379 61.4795 44.3711 61.1807 44.834C60.8818 45.2969 60.4746 45.6543 59.959 45.9062C59.4434 46.1582 58.8721 46.2842 58.2451 46.2842C57.5889 46.2842 56.9912 46.1465 56.4521 45.8711C56.0889 46.0469 55.9072 46.3018 55.9072 46.6357C55.9072 46.8936 56.0039 47.0957 56.1973 47.2422C56.3965 47.3887 56.6514 47.4971 56.9619 47.5674C57.2783 47.6377 57.7354 47.7139 58.333 47.7959L58.6406 47.8398ZM58.2539 41.2305C57.8672 41.2305 57.5273 41.3125 57.2344 41.4766C56.9414 41.6406 56.7158 41.8691 56.5576 42.1621C56.3994 42.4551 56.3203 42.7891 56.3203 43.1641C56.3203 43.5391 56.3965 43.8701 56.5488 44.1572C56.707 44.4385 56.9297 44.6611 57.2168 44.8252C57.5098 44.9834 57.8525 45.0625 58.2451 45.0625C58.6377 45.0625 58.9775 44.9834 59.2646 44.8252C59.5518 44.667 59.7715 44.4443 59.9238 44.1572C60.0762 43.8701 60.1523 43.542 60.1523 43.1729C60.1523 42.792 60.0762 42.4551 59.9238 42.1621C59.7715 41.8691 59.5518 41.6406 59.2646 41.4766C58.9775 41.3125 58.6406 41.2305 58.2539 41.2305ZM58.4561 51.9092C59.1709 51.9092 59.7363 51.7832 60.1523 51.5312C60.5742 51.2793 60.7852 50.9277 60.7852 50.4766C60.7852 50.1719 60.6797 49.9346 60.4688 49.7646C60.2637 49.5947 59.9824 49.4688 59.625 49.3867C59.2734 49.3047 58.7725 49.2227 58.1221 49.1406C58.0693 49.1348 57.876 49.1113 57.542 49.0703C57.2139 49.0293 56.8975 48.9736 56.5928 48.9033L55.7666 49.9844L55.793 50.248C55.8809 50.7871 56.1621 51.1973 56.6367 51.4785C57.1172 51.7656 57.7236 51.9092 58.4561 51.9092ZM64.3008 40.2197H65.751V41.9424C65.8857 41.5381 66.0908 41.1953 66.3662 40.9141C66.6416 40.6328 66.9492 40.4219 67.2891 40.2812C67.6348 40.1406 67.9863 40.0703 68.3438 40.0703C68.6133 40.0703 68.874 40.1113 69.126 40.1934C69.3779 40.2695 69.6006 40.3896 69.7939 40.5537L69.1084 41.7842C68.792 41.6084 68.4639 41.5205 68.124 41.5205C67.7256 41.5205 67.3447 41.6348 66.9814 41.8633C66.6182 42.0918 66.3193 42.4521 66.085 42.9443C65.8564 43.4307 65.7422 44.04 65.7422 44.7725V49H64.3008V40.2197ZM74.2676 49.1494C73.3711 49.1494 72.6064 48.9502 71.9736 48.5518C71.3408 48.1533 70.8633 47.6143 70.541 46.9346C70.2188 46.249 70.0576 45.4873 70.0576 44.6494C70.0576 43.8232 70.2129 43.0615 70.5234 42.3643C70.834 41.667 71.2939 41.1104 71.9033 40.6943C72.5186 40.2783 73.2568 40.0703 74.1182 40.0703C75.0381 40.0703 75.7881 40.2812 76.3682 40.7031C76.9541 41.125 77.376 41.6553 77.6338 42.2939C77.8916 42.9268 78.0205 43.5771 78.0205 44.2451C78.0205 44.4033 78.0117 44.5615 77.9941 44.7197C77.9824 44.8721 77.9678 44.9834 77.9502 45.0537H71.6309C71.6895 45.915 71.9414 46.5889 72.3867 47.0752C72.8379 47.5557 73.4678 47.7959 74.2764 47.7959C74.7686 47.7959 75.2051 47.7168 75.5859 47.5586C75.9668 47.3945 76.3359 47.1221 76.6934 46.7412L77.7305 47.6465C77.2441 48.168 76.7227 48.5488 76.166 48.7891C75.6152 49.0293 74.9824 49.1494 74.2676 49.1494ZM76.5439 43.9639C76.5439 43.7119 76.5322 43.5273 76.5088 43.4102C76.4561 43.0293 76.3301 42.6836 76.1309 42.373C75.9375 42.0566 75.668 41.8047 75.3223 41.6172C74.9824 41.4238 74.5781 41.3271 74.1094 41.3271C73.3887 41.3271 72.8174 41.5674 72.3955 42.0479C71.9736 42.5225 71.7188 43.1611 71.6309 43.9639H76.5439ZM82.8281 49.1494C82.248 49.1494 81.7119 49.0469 81.2197 48.8418C80.7275 48.6367 80.3086 48.3555 79.9629 47.998C79.6172 47.6348 79.3711 47.2305 79.2246 46.7852L80.4287 46.2578C80.5986 46.7266 80.8799 47.1191 81.2725 47.4355C81.665 47.7461 82.1602 47.9014 82.7578 47.9014C83.1504 47.9014 83.4844 47.8398 83.7598 47.7168C84.0352 47.5879 84.2402 47.415 84.375 47.1982C84.5156 46.9814 84.5859 46.7412 84.5859 46.4775C84.5859 46.1846 84.4951 45.9502 84.3135 45.7744C84.1377 45.5928 83.915 45.4521 83.6455 45.3525C83.376 45.2529 83.0039 45.1445 82.5293 45.0273C81.9258 44.875 81.4365 44.7256 81.0615 44.5791C80.6924 44.4268 80.376 44.1924 80.1123 43.876C79.8486 43.5537 79.7168 43.123 79.7168 42.584C79.7168 42.0508 79.8545 41.5967 80.1299 41.2217C80.4053 40.8408 80.7773 40.5537 81.2461 40.3604C81.7148 40.167 82.2363 40.0703 82.8105 40.0703C83.5137 40.0703 84.1348 40.2314 84.6738 40.5537C85.2188 40.876 85.6523 41.333 85.9746 41.9248L84.8232 42.5488C84.6123 42.1621 84.334 41.8516 83.9883 41.6172C83.6484 41.377 83.2383 41.2568 82.7578 41.2568C82.2656 41.2568 81.873 41.3623 81.5801 41.5732C81.2871 41.7842 81.1406 42.0566 81.1406 42.3906C81.1406 42.6484 81.2256 42.8594 81.3955 43.0234C81.5654 43.1816 81.7793 43.3105 82.0371 43.4102C82.2949 43.5039 82.6465 43.6094 83.0918 43.7266C83.7188 43.8965 84.2285 44.0664 84.6211 44.2363C85.0137 44.4004 85.3506 44.6582 85.6318 45.0098C85.9131 45.3555 86.0537 45.8213 86.0537 46.4072C86.0537 46.999 85.9072 47.5029 85.6143 47.9189C85.3213 48.3291 84.9287 48.6367 84.4365 48.8418C83.9502 49.0469 83.4141 49.1494 82.8281 49.1494ZM90.9316 49.1494C90.3516 49.1494 89.8154 49.0469 89.3232 48.8418C88.8311 48.6367 88.4121 48.3555 88.0664 47.998C87.7207 47.6348 87.4746 47.2305 87.3281 46.7852L88.5322 46.2578C88.7021 46.7266 88.9834 47.1191 89.376 47.4355C89.7686 47.7461 90.2637 47.9014 90.8613 47.9014C91.2539 47.9014 91.5879 47.8398 91.8633 47.7168C92.1387 47.5879 92.3438 47.415 92.4785 47.1982C92.6191 46.9814 92.6895 46.7412 92.6895 46.4775C92.6895 46.1846 92.5986 45.9502 92.417 45.7744C92.2412 45.5928 92.0186 45.4521 91.749 45.3525C91.4795 45.2529 91.1074 45.1445 90.6328 45.0273C90.0293 44.875 89.54 44.7256 89.165 44.5791C88.7959 44.4268 88.4795 44.1924 88.2158 43.876C87.9521 43.5537 87.8203 43.123 87.8203 42.584C87.8203 42.0508 87.958 41.5967 88.2334 41.2217C88.5088 40.8408 88.8809 40.5537 89.3496 40.3604C89.8184 40.167 90.3398 40.0703 90.9141 40.0703C91.6172 40.0703 92.2383 40.2314 92.7773 40.5537C93.3223 40.876 93.7559 41.333 94.0781 41.9248L92.9268 42.5488C92.7158 42.1621 92.4375 41.8516 92.0918 41.6172C91.752 41.377 91.3418 41.2568 90.8613 41.2568C90.3691 41.2568 89.9766 41.3623 89.6836 41.5732C89.3906 41.7842 89.2441 42.0566 89.2441 42.3906C89.2441 42.6484 89.3291 42.8594 89.499 43.0234C89.6689 43.1816 89.8828 43.3105 90.1406 43.4102C90.3984 43.5039 90.75 43.6094 91.1953 43.7266C91.8223 43.8965 92.332 44.0664 92.7246 44.2363C93.1172 44.4004 93.4541 44.6582 93.7354 45.0098C94.0166 45.3555 94.1572 45.8213 94.1572 46.4072C94.1572 46.999 94.0107 47.5029 93.7178 47.9189C93.4248 48.3291 93.0322 48.6367 92.54 48.8418C92.0537 49.0469 91.5176 49.1494 90.9316 49.1494ZM105.425 49.1494C104.798 49.1494 104.221 48.9971 103.693 48.6924C103.172 48.3877 102.771 47.96 102.489 47.4092V49H100.951V36.5811H102.489V41.8018C102.771 41.251 103.169 40.8262 103.685 40.5273C104.2 40.2227 104.771 40.0703 105.398 40.0703C106.178 40.0703 106.849 40.2725 107.411 40.6768C107.979 41.0811 108.41 41.6289 108.703 42.3203C109.002 43.0059 109.151 43.7676 109.151 44.6055C109.151 45.4434 109.002 46.208 108.703 46.8994C108.41 47.585 107.982 48.1328 107.42 48.543C106.857 48.9473 106.192 49.1494 105.425 49.1494ZM105.064 47.7695C105.621 47.7695 106.093 47.6318 106.479 47.3564C106.872 47.0811 107.165 46.7061 107.358 46.2314C107.558 45.751 107.657 45.209 107.657 44.6055C107.657 44.002 107.558 43.46 107.358 42.9795C107.165 42.499 106.872 42.1211 106.479 41.8457C106.093 41.5645 105.621 41.4238 105.064 41.4238C104.508 41.4238 104.024 41.5615 103.614 41.8369C103.21 42.1123 102.899 42.4932 102.683 42.9795C102.466 43.46 102.357 44.002 102.357 44.6055C102.357 45.209 102.463 45.751 102.674 46.2314C102.891 46.7119 103.204 47.0898 103.614 47.3652C104.024 47.6348 104.508 47.7695 105.064 47.7695ZM114.46 40.0703C115.216 40.0703 115.863 40.2168 116.402 40.5098C116.947 40.7969 117.36 41.21 117.642 41.749C117.923 42.2881 118.063 42.9209 118.063 43.6475V49H116.824L116.728 47.4355C116.429 47.9863 116.004 48.4111 115.453 48.71C114.902 49.0029 114.313 49.1494 113.687 49.1494C113.089 49.1494 112.556 49.041 112.087 48.8242C111.624 48.6016 111.261 48.2852 110.997 47.875C110.733 47.459 110.602 46.9668 110.602 46.3984C110.602 45.5254 110.918 44.8896 111.551 44.4912C112.189 44.0869 113.08 43.8848 114.223 43.8848H116.71C116.704 43.2988 116.631 42.8242 116.49 42.4609C116.35 42.0918 116.115 41.8193 115.787 41.6436C115.465 41.4619 115.028 41.3711 114.478 41.3711C113.476 41.3711 112.679 41.8281 112.087 42.7422L110.944 41.916C111.39 41.3066 111.894 40.8467 112.456 40.5361C113.019 40.2256 113.687 40.0703 114.46 40.0703ZM113.977 47.875C114.691 47.875 115.286 47.6611 115.761 47.2334C116.241 46.7998 116.558 46.2373 116.71 45.5459V44.9746H114.311C113.59 44.9746 113.045 45.1064 112.676 45.3701C112.312 45.6338 112.131 45.9941 112.131 46.4512C112.131 46.8848 112.292 47.2305 112.614 47.4883C112.937 47.7461 113.391 47.875 113.977 47.875ZM120.762 40.2197H122.212V41.9424C122.347 41.5381 122.552 41.1953 122.827 40.9141C123.103 40.6328 123.41 40.4219 123.75 40.2812C124.096 40.1406 124.447 40.0703 124.805 40.0703C125.074 40.0703 125.335 40.1113 125.587 40.1934C125.839 40.2695 126.062 40.3896 126.255 40.5537L125.569 41.7842C125.253 41.6084 124.925 41.5205 124.585 41.5205C124.187 41.5205 123.806 41.6348 123.442 41.8633C123.079 42.0918 122.78 42.4521 122.546 42.9443C122.317 43.4307 122.203 44.04 122.203 44.7725V49H120.762V40.2197Z" fill="#30404F"/>
<circle cx="122" cy="149" r="65" stroke="#F9FAFC" stroke-width="4"/>
<path d="M187 149C187 113.101 157.899 84 122 84" stroke="#08BDE5" stroke-width="6" stroke-linecap="round"/>
<path d="M105.96 158H119.148V155.62H108.788C109.236 153.352 111.14 151.896 113.548 150.496C116.432 148.788 118.98 147.164 118.98 143.72C118.98 140.36 116.628 138.064 112.708 138.064C109.46 138.064 107.024 139.828 106.268 142.236L108.452 143.216C109.012 141.48 110.216 140.332 112.624 140.332C114.976 140.332 116.46 141.788 116.46 143.664C116.46 145.876 114.528 147.164 112.456 148.424C109.236 150.3 105.96 152.848 105.96 158ZM129.293 158.336C133.745 158.336 136.601 155.256 136.601 151.532C136.601 148.06 134.165 145.232 130.329 145.232C128.733 145.232 127.221 145.764 126.213 146.576L126.969 140.668H135.313V138.4H124.841L123.693 148.312L126.101 149.152C126.857 148.312 128.201 147.556 130.049 147.556C132.457 147.556 134.053 149.236 134.053 151.7C134.053 154.164 132.065 156.096 129.265 156.096C126.857 156.096 125.569 155.256 124.477 154.304L123.021 156.18C123.973 157.188 126.129 158.336 129.293 158.336ZM141.517 153.016C143.197 153.016 143.757 151.602 143.757 150.524C143.757 149.334 143.155 148.032 141.517 148.032C139.851 148.032 139.263 149.446 139.263 150.524C139.263 151.7 139.865 153.016 141.517 153.016ZM141.867 158.168L148.559 148.032H147.383L140.691 158.168H141.867ZM141.517 152.05C140.691 152.05 140.313 151.406 140.313 150.524C140.313 149.684 140.677 148.998 141.517 148.998C142.315 148.998 142.721 149.628 142.721 150.524C142.721 151.336 142.329 152.05 141.517 152.05ZM147.733 158.168C149.427 158.168 149.987 156.754 149.987 155.676C149.987 154.486 149.385 153.184 147.733 153.184C146.081 153.184 145.493 154.598 145.493 155.676C145.493 156.852 146.095 158.168 147.733 158.168ZM147.733 157.202C146.921 157.202 146.529 156.558 146.529 155.676C146.529 154.836 146.907 154.15 147.733 154.15C148.545 154.15 148.937 154.78 148.937 155.676C148.937 156.488 148.559 157.202 147.733 157.202Z" fill="#26324E"/>
<defs>
<filter id="filter0_d" x="0" y="0" width="252" height="252" filterUnits="userSpaceOnUse" color-interpolation-filters="sRGB">
<feFlood flood-opacity="0" result="BackgroundImageFix"/>
<feColorMatrix in="SourceAlpha" type="matrix" values="0 0 0 0 0 0 0 0 0 0 0 0 0 0 0 0 0 0 127 0"/>
<feOffset dy="1"/>
<feGaussianBlur stdDeviation="1.5"/>
<feColorMatrix type="matrix" values="0 0 0 0 0 0 0 0 0 0 0 0 0 0 0 0 0 0 0.1 0"/>
<feBlend mode="normal" in2="BackgroundImageFix" result="effect1_dropShadow"/>
<feBlend mode="normal" in="SourceGraphic" in2="effect1_dropShadow" result="shape"/>
</filter>
</defs>
</svg>
