<svg width="252" height="252" viewBox="0 0 252 252" fill="none" xmlns="http://www.w3.org/2000/svg">
<g filter="url(#filter0_d)">
<rect x="3" y="2" width="246" height="246" rx="3" fill="white"/>
<rect x="3.5" y="2.5" width="245" height="245" rx="2.5" stroke="#DFE3E8" stroke-opacity="0.75"/>
</g>
<path d="M32.1592 49.123C31.4268 49.123 30.7441 48.9883 30.1113 48.7188C29.4785 48.4492 28.9482 48.0537 28.5205 47.5322C28.0928 47.0049 27.8174 46.3721 27.6943 45.6338L29.2236 45.2471C29.3291 46.0557 29.6484 46.6738 30.1816 47.1016C30.7207 47.5293 31.3887 47.7432 32.1855 47.7432C32.6953 47.7432 33.1406 47.6523 33.5215 47.4707C33.9082 47.2891 34.2041 47.04 34.4092 46.7236C34.6143 46.4072 34.7168 46.0498 34.7168 45.6514C34.7168 45.2119 34.5908 44.8398 34.3389 44.5352C34.0869 44.2305 33.7764 43.9844 33.4072 43.7969C33.0381 43.6035 32.5342 43.3809 31.8955 43.1289C31.1455 42.8359 30.5449 42.5664 30.0938 42.3203C29.6426 42.0742 29.2559 41.7373 28.9336 41.3096C28.6172 40.876 28.459 40.334 28.459 39.6836C28.459 39.0273 28.6201 38.4531 28.9424 37.9609C29.2646 37.4688 29.7012 37.0908 30.252 36.8271C30.8086 36.5635 31.4209 36.4316 32.0889 36.4316C32.874 36.4316 33.5713 36.6016 34.1807 36.9414C34.7959 37.2754 35.2998 37.791 35.6924 38.4883L34.4092 39.2793C33.8818 38.3008 33.0908 37.8115 32.0361 37.8115C31.6553 37.8115 31.3096 37.8906 30.999 38.0488C30.6943 38.2012 30.4512 38.415 30.2695 38.6904C30.0938 38.96 30.0059 39.2676 30.0059 39.6133C30.0059 40 30.123 40.3281 30.3574 40.5977C30.5918 40.8613 30.8818 41.0811 31.2275 41.2568C31.5791 41.4326 32.0596 41.6377 32.6689 41.8721C33.4424 42.1709 34.0664 42.4492 34.541 42.707C35.0156 42.9648 35.4199 43.3252 35.7539 43.7881C36.0938 44.2451 36.2637 44.8223 36.2637 45.5195C36.2637 46.2344 36.082 46.8643 35.7188 47.4092C35.3613 47.9541 34.8691 48.376 34.2422 48.6748C33.6211 48.9736 32.9268 49.123 32.1592 49.123ZM41.9238 49.1494C41.0273 49.1494 40.2627 48.9502 39.6299 48.5518C38.9971 48.1533 38.5195 47.6143 38.1973 46.9346C37.875 46.249 37.7139 45.4873 37.7139 44.6494C37.7139 43.8232 37.8691 43.0615 38.1797 42.3643C38.4902 41.667 38.9502 41.1104 39.5596 40.6943C40.1748 40.2783 40.9131 40.0703 41.7744 40.0703C42.6943 40.0703 43.4443 40.2812 44.0244 40.7031C44.6104 41.125 45.0322 41.6553 45.29 42.2939C45.5479 42.9268 45.6768 43.5771 45.6768 44.2451C45.6768 44.4033 45.668 44.5615 45.6504 44.7197C45.6387 44.8721 45.624 44.9834 45.6064 45.0537H39.2871C39.3457 45.915 39.5977 46.5889 40.043 47.0752C40.4941 47.5557 41.124 47.7959 41.9326 47.7959C42.4248 47.7959 42.8613 47.7168 43.2422 47.5586C43.623 47.3945 43.9922 47.1221 44.3496 46.7412L45.3867 47.6465C44.9004 48.168 44.3789 48.5488 43.8223 48.7891C43.2715 49.0293 42.6387 49.1494 41.9238 49.1494ZM44.2002 43.9639C44.2002 43.7119 44.1885 43.5273 44.165 43.4102C44.1123 43.0293 43.9863 42.6836 43.7871 42.373C43.5938 42.0566 43.3242 41.8047 42.9785 41.6172C42.6387 41.4238 42.2344 41.3271 41.7656 41.3271C41.0449 41.3271 40.4736 41.5674 40.0518 42.0479C39.6299 42.5225 39.375 43.1611 39.2871 43.9639H44.2002ZM50.915 40.0703C51.6709 40.0703 52.3184 40.2168 52.8574 40.5098C53.4023 40.7969 53.8154 41.21 54.0967 41.749C54.3779 42.2881 54.5186 42.9209 54.5186 43.6475V49H53.2793L53.1826 47.4355C52.8838 47.9863 52.459 48.4111 51.9082 48.71C51.3574 49.0029 50.7686 49.1494 50.1416 49.1494C49.5439 49.1494 49.0107 49.041 48.542 48.8242C48.0791 48.6016 47.7158 48.2852 47.4521 47.875C47.1885 47.459 47.0566 46.9668 47.0566 46.3984C47.0566 45.5254 47.373 44.8896 48.0059 44.4912C48.6445 44.0869 49.5352 43.8848 50.6777 43.8848H53.165C53.1592 43.2988 53.0859 42.8242 52.9453 42.4609C52.8047 42.0918 52.5703 41.8193 52.2422 41.6436C51.9199 41.4619 51.4834 41.3711 50.9326 41.3711C49.9307 41.3711 49.1338 41.8281 48.542 42.7422L47.3994 41.916C47.8447 41.3066 48.3486 40.8467 48.9111 40.5361C49.4736 40.2256 50.1416 40.0703 50.915 40.0703ZM50.4316 47.875C51.1465 47.875 51.7412 47.6611 52.2158 47.2334C52.6963 46.7998 53.0127 46.2373 53.165 45.5459V44.9746H50.7656C50.0449 44.9746 49.5 45.1064 49.1309 45.3701C48.7676 45.6338 48.5859 45.9941 48.5859 46.4512C48.5859 46.8848 48.7471 47.2305 49.0693 47.4883C49.3916 47.7461 49.8457 47.875 50.4316 47.875ZM57.2168 40.2197H58.667V41.9424C58.8018 41.5381 59.0068 41.1953 59.2822 40.9141C59.5576 40.6328 59.8652 40.4219 60.2051 40.2812C60.5508 40.1406 60.9023 40.0703 61.2598 40.0703C61.5293 40.0703 61.79 40.1113 62.042 40.1934C62.2939 40.2695 62.5166 40.3896 62.71 40.5537L62.0244 41.7842C61.708 41.6084 61.3799 41.5205 61.04 41.5205C60.6416 41.5205 60.2607 41.6348 59.8975 41.8633C59.5342 42.0918 59.2354 42.4521 59.001 42.9443C58.7725 43.4307 58.6582 44.04 58.6582 44.7725V49H57.2168V40.2197ZM67.0166 49.1494C66.167 49.1494 65.4375 48.9473 64.8281 48.543C64.2188 48.1328 63.7559 47.585 63.4395 46.8994C63.123 46.208 62.9648 45.4492 62.9648 44.623C62.9648 43.8262 63.1172 43.082 63.4219 42.3906C63.7266 41.6934 64.1807 41.1338 64.7842 40.7119C65.3936 40.2842 66.1318 40.0703 66.999 40.0703C67.8311 40.0703 68.5605 40.2812 69.1875 40.7031C69.8203 41.1191 70.2979 41.7314 70.6201 42.54L69.2051 43.0938C69.0293 42.5781 68.7451 42.1709 68.3525 41.8721C67.9658 41.5732 67.5146 41.4238 66.999 41.4238C66.4424 41.4238 65.9736 41.5732 65.5928 41.8721C65.2119 42.165 64.9307 42.5547 64.749 43.041C64.5674 43.5273 64.4766 44.0547 64.4766 44.623C64.4766 45.1973 64.5674 45.7246 64.749 46.2051C64.9307 46.6855 65.209 47.0723 65.584 47.3652C65.9648 47.6523 66.4365 47.7959 66.999 47.7959C67.5205 47.7959 67.9746 47.6494 68.3613 47.3564C68.748 47.0576 69.0205 46.6562 69.1787 46.1523L70.5322 46.6621C70.2568 47.4473 69.8086 48.0596 69.1875 48.499C68.5723 48.9326 67.8486 49.1494 67.0166 49.1494ZM72.6152 36.5811H74.127V41.5557C74.4199 41.0693 74.7979 40.7002 75.2607 40.4482C75.7295 40.1963 76.2393 40.0703 76.79 40.0703C77.4756 40.0703 78.0498 40.2256 78.5127 40.5361C78.9814 40.8408 79.3301 41.2539 79.5586 41.7754C79.7871 42.2969 79.9072 42.8828 79.9189 43.5332V49H78.4072V43.8057C78.4072 42.2178 77.7539 41.4238 76.4473 41.4238C75.9551 41.4238 75.5332 41.541 75.1816 41.7754C74.8359 42.0098 74.5723 42.335 74.3906 42.751C74.2148 43.1611 74.127 43.6357 74.127 44.1748V49H72.6152V36.5811Z" fill="#30404F"/>
<g filter="url(#filter1_i)">
<rect x="27" y="110" width="197" height="46" rx="4" fill="white"/>
</g>
<rect x="27" y="110" width="197" height="46" rx="4" stroke="#D6D6D9" stroke-width="0.5"/>
<g opacity="0.5">
<circle cx="197.809" cy="131.687" r="6.75918" stroke="#637381" stroke-width="2" stroke-linejoin="round"/>
<line x1="206.886" y1="141.825" x2="202.456" y2="137.396" stroke="#637381" stroke-width="2" stroke-linecap="round" stroke-linejoin="round"/>
</g>
<path d="M47.768 139.192C49.832 139.192 51.304 138.072 51.304 136.088C51.304 133.992 49.592 133.032 48.072 132.44C46.744 131.928 45.496 131.384 45.496 130.2C45.496 129.24 46.28 128.616 47.592 128.616C48.712 128.616 49.448 129.144 49.72 129.736L50.76 129.384C50.456 128.36 49.288 127.608 47.64 127.608C45.56 127.608 44.344 128.792 44.344 130.216C44.344 132.072 46.056 132.92 47.624 133.512C48.936 134.008 50.152 134.744 50.152 136.12C50.152 137.464 49.24 138.184 47.784 138.184C46.504 138.184 45.544 137.512 45.096 136.536L44.04 136.92C44.488 138.136 45.88 139.192 47.768 139.192ZM56.932 139.192C57.876 139.192 58.788 138.792 59.428 138.264L58.82 137.512C58.196 137.976 57.572 138.152 56.98 138.152C55.588 138.152 54.756 137.032 54.564 135.368H60.132C60.164 135.016 60.164 134.76 60.164 134.584C60.164 131.832 58.676 130.632 56.932 130.632C54.836 130.632 53.38 132.184 53.38 134.904C53.38 137.208 54.724 139.192 56.932 139.192ZM54.532 134.36C54.628 132.504 55.62 131.64 56.932 131.64C57.796 131.64 59.012 132.152 59.028 134.36H54.532ZM67.1128 139H68.1528V133.464C68.1528 131.144 66.6008 130.632 65.4328 130.632C64.3128 130.632 63.2248 131.112 62.5688 131.528L62.8888 132.488C63.4968 132.072 64.5048 131.608 65.3208 131.608C66.2328 131.608 67.1128 131.96 67.1128 133.608V134.296C66.3128 133.864 65.5928 133.72 64.9048 133.72C63.3528 133.72 61.9288 134.536 61.9288 136.424C61.9288 138.264 63.0648 139.192 64.7128 139.192C65.5928 139.192 66.4568 138.792 67.1128 138.2V139ZM64.8248 138.216C63.6408 138.216 62.9688 137.496 62.9688 136.424C62.9688 135.24 63.9128 134.696 65.0168 134.696C65.7208 134.696 66.5848 135.016 67.1128 135.368V136.952C66.6168 137.56 65.8168 138.216 64.8248 138.216ZM70.7056 139H71.8256V134.376C71.8256 132.36 72.9936 131.752 73.8096 131.752C74.3376 131.752 74.6576 131.928 74.8656 132.056L75.0416 130.968C74.8176 130.808 74.4016 130.632 73.8896 130.632C72.8816 130.632 72.1936 131.192 71.8256 131.976V130.824H70.7056V139ZM79.4714 139.192C80.8634 139.192 81.9514 138.472 82.3354 137.32L81.3274 136.936C81.0554 137.704 80.3994 138.184 79.5194 138.184C78.0794 138.184 77.4074 136.984 77.4074 134.92C77.4074 132.904 78.0314 131.64 79.5514 131.64C80.4474 131.64 80.9434 132.12 81.1994 132.744L82.2234 132.344C81.7754 131.24 80.8154 130.632 79.5994 130.632C77.5034 130.632 76.2394 132.232 76.2394 134.92C76.2394 137.64 77.5034 139.192 79.4714 139.192ZM84.5025 139H85.6225V133.976C85.6225 132.2 86.4865 131.64 87.6385 131.64C88.7265 131.64 89.5425 132.28 89.5425 134.008V139H90.6625V134.472C90.6625 131.768 89.7345 130.632 87.7345 130.632C86.8705 130.632 86.1185 131 85.6225 131.736V127.448L84.5025 127.976V139Z" fill="#C1CAD2"/>
<defs>
<filter id="filter0_d" x="0" y="0" width="252" height="252" filterUnits="userSpaceOnUse" color-interpolation-filters="sRGB">
<feFlood flood-opacity="0" result="BackgroundImageFix"/>
<feColorMatrix in="SourceAlpha" type="matrix" values="0 0 0 0 0 0 0 0 0 0 0 0 0 0 0 0 0 0 127 0"/>
<feOffset dy="1"/>
<feGaussianBlur stdDeviation="1.5"/>
<feColorMatrix type="matrix" values="0 0 0 0 0 0 0 0 0 0 0 0 0 0 0 0 0 0 0.1 0"/>
<feBlend mode="normal" in2="BackgroundImageFix" result="effect1_dropShadow"/>
<feBlend mode="normal" in="SourceGraphic" in2="effect1_dropShadow" result="shape"/>
</filter>
<filter id="filter1_i" x="26.75" y="109.75" width="197.5" height="47.5" filterUnits="userSpaceOnUse" color-interpolation-filters="sRGB">
<feFlood flood-opacity="0" result="BackgroundImageFix"/>
<feBlend mode="normal" in="SourceGraphic" in2="BackgroundImageFix" result="shape"/>
<feColorMatrix in="SourceAlpha" type="matrix" values="0 0 0 0 0 0 0 0 0 0 0 0 0 0 0 0 0 0 127 0" result="hardAlpha"/>
<feOffset dy="1"/>
<feGaussianBlur stdDeviation="1.5"/>
<feComposite in2="hardAlpha" operator="arithmetic" k2="-1" k3="1"/>
<feColorMatrix type="matrix" values="0 0 0 0 0 0 0 0 0 0 0 0 0 0 0 0 0 0 0.25 0"/>
<feBlend mode="normal" in2="shape" result="effect1_innerShadow"/>
</filter>
</defs>
</svg>
