<svg width="252" height="252" viewBox="0 0 252 252" fill="none" xmlns="http://www.w3.org/2000/svg">
<g filter="url(#filter0_d)">
<rect x="3" y="2" width="246" height="246" rx="3" fill="white"/>
<rect x="3.5" y="2.5" width="245" height="245" rx="2.5" stroke="#DFE3E8" stroke-opacity="0.75"/>
</g>
<path d="M32.1592 49.123C31.4268 49.123 30.7441 48.9883 30.1113 48.7188C29.4785 48.4492 28.9482 48.0537 28.5205 47.5322C28.0928 47.0049 27.8174 46.3721 27.6943 45.6338L29.2236 45.2471C29.3291 46.0557 29.6484 46.6738 30.1816 47.1016C30.7207 47.5293 31.3887 47.7432 32.1855 47.7432C32.6953 47.7432 33.1406 47.6523 33.5215 47.4707C33.9082 47.2891 34.2041 47.04 34.4092 46.7236C34.6143 46.4072 34.7168 46.0498 34.7168 45.6514C34.7168 45.2119 34.5908 44.8398 34.3389 44.5352C34.0869 44.2305 33.7764 43.9844 33.4072 43.7969C33.0381 43.6035 32.5342 43.3809 31.8955 43.1289C31.1455 42.8359 30.5449 42.5664 30.0938 42.3203C29.6426 42.0742 29.2559 41.7373 28.9336 41.3096C28.6172 40.876 28.459 40.334 28.459 39.6836C28.459 39.0273 28.6201 38.4531 28.9424 37.9609C29.2646 37.4688 29.7012 37.0908 30.252 36.8271C30.8086 36.5635 31.4209 36.4316 32.0889 36.4316C32.874 36.4316 33.5713 36.6016 34.1807 36.9414C34.7959 37.2754 35.2998 37.791 35.6924 38.4883L34.4092 39.2793C33.8818 38.3008 33.0908 37.8115 32.0361 37.8115C31.6553 37.8115 31.3096 37.8906 30.999 38.0488C30.6943 38.2012 30.4512 38.415 30.2695 38.6904C30.0938 38.96 30.0059 39.2676 30.0059 39.6133C30.0059 40 30.123 40.3281 30.3574 40.5977C30.5918 40.8613 30.8818 41.0811 31.2275 41.2568C31.5791 41.4326 32.0596 41.6377 32.6689 41.8721C33.4424 42.1709 34.0664 42.4492 34.541 42.707C35.0156 42.9648 35.4199 43.3252 35.7539 43.7881C36.0938 44.2451 36.2637 44.8223 36.2637 45.5195C36.2637 46.2344 36.082 46.8643 35.7188 47.4092C35.3613 47.9541 34.8691 48.376 34.2422 48.6748C33.6211 48.9736 32.9268 49.123 32.1592 49.123ZM41.9238 49.1494C41.0273 49.1494 40.2627 48.9502 39.6299 48.5518C38.9971 48.1533 38.5195 47.6143 38.1973 46.9346C37.875 46.249 37.7139 45.4873 37.7139 44.6494C37.7139 43.8232 37.8691 43.0615 38.1797 42.3643C38.4902 41.667 38.9502 41.1104 39.5596 40.6943C40.1748 40.2783 40.9131 40.0703 41.7744 40.0703C42.6943 40.0703 43.4443 40.2812 44.0244 40.7031C44.6104 41.125 45.0322 41.6553 45.29 42.2939C45.5479 42.9268 45.6768 43.5771 45.6768 44.2451C45.6768 44.4033 45.668 44.5615 45.6504 44.7197C45.6387 44.8721 45.624 44.9834 45.6064 45.0537H39.2871C39.3457 45.915 39.5977 46.5889 40.043 47.0752C40.4941 47.5557 41.124 47.7959 41.9326 47.7959C42.4248 47.7959 42.8613 47.7168 43.2422 47.5586C43.623 47.3945 43.9922 47.1221 44.3496 46.7412L45.3867 47.6465C44.9004 48.168 44.3789 48.5488 43.8223 48.7891C43.2715 49.0293 42.6387 49.1494 41.9238 49.1494ZM44.2002 43.9639C44.2002 43.7119 44.1885 43.5273 44.165 43.4102C44.1123 43.0293 43.9863 42.6836 43.7871 42.373C43.5938 42.0566 43.3242 41.8047 42.9785 41.6172C42.6387 41.4238 42.2344 41.3271 41.7656 41.3271C41.0449 41.3271 40.4736 41.5674 40.0518 42.0479C39.6299 42.5225 39.375 43.1611 39.2871 43.9639H44.2002ZM51.1787 49.1494C50.3291 49.1494 49.5996 48.9473 48.9902 48.543C48.3809 48.1328 47.918 47.585 47.6016 46.8994C47.2852 46.208 47.127 45.4492 47.127 44.623C47.127 43.8262 47.2793 43.082 47.584 42.3906C47.8887 41.6934 48.3428 41.1338 48.9463 40.7119C49.5557 40.2842 50.2939 40.0703 51.1611 40.0703C51.9932 40.0703 52.7227 40.2812 53.3496 40.7031C53.9824 41.1191 54.46 41.7314 54.7822 42.54L53.3672 43.0938C53.1914 42.5781 52.9072 42.1709 52.5146 41.8721C52.1279 41.5732 51.6768 41.4238 51.1611 41.4238C50.6045 41.4238 50.1357 41.5732 49.7549 41.8721C49.374 42.165 49.0928 42.5547 48.9111 43.041C48.7295 43.5273 48.6387 44.0547 48.6387 44.623C48.6387 45.1973 48.7295 45.7246 48.9111 46.2051C49.0928 46.6855 49.3711 47.0723 49.7461 47.3652C50.127 47.6523 50.5986 47.7959 51.1611 47.7959C51.6826 47.7959 52.1367 47.6494 52.5234 47.3564C52.9102 47.0576 53.1826 46.6562 53.3408 46.1523L54.6943 46.6621C54.4189 47.4473 53.9707 48.0596 53.3496 48.499C52.7344 48.9326 52.0107 49.1494 51.1787 49.1494ZM59.5723 49.1494C58.7695 49.1494 58.1514 48.9238 57.7178 48.4727C57.2842 48.0156 57.0674 47.374 57.0674 46.5479V41.4766H55.6172V40.2197H57.085V37.7939L58.5527 36.7217V40.2197H60.9258V41.4766H58.5527V46.3018C58.5527 46.8408 58.6582 47.2305 58.8691 47.4707C59.0859 47.7109 59.4053 47.8311 59.8271 47.8311C60.0146 47.8311 60.2051 47.8076 60.3984 47.7607C60.5977 47.708 60.7705 47.6494 60.917 47.585L60.9258 48.9385C60.7734 48.9971 60.5742 49.0469 60.3281 49.0879C60.082 49.1289 59.8301 49.1494 59.5723 49.1494ZM63.0879 36.5811H64.6436V38.4443H63.0879V36.5811ZM63.123 40.2197H64.6084V49H63.123V40.2197ZM71.0859 49.1494C70.248 49.1494 69.501 48.9473 68.8447 48.543C68.1885 48.1328 67.6758 47.582 67.3066 46.8906C66.9434 46.1934 66.7617 45.4258 66.7617 44.5879C66.7617 43.7559 66.9434 42.9971 67.3066 42.3115C67.6758 41.6201 68.1885 41.0752 68.8447 40.6768C69.501 40.2725 70.248 40.0703 71.0859 40.0703C71.9238 40.0703 72.6709 40.2725 73.3271 40.6768C73.9893 41.0752 74.5049 41.6201 74.874 42.3115C75.2432 43.0029 75.4277 43.7617 75.4277 44.5879C75.4277 45.4258 75.2432 46.1934 74.874 46.8906C74.5049 47.582 73.9893 48.1328 73.3271 48.543C72.6709 48.9473 71.9238 49.1494 71.0859 49.1494ZM71.0859 47.8574C71.6719 47.8574 72.1758 47.7109 72.5977 47.418C73.0195 47.125 73.3389 46.7324 73.5557 46.2402C73.7725 45.7422 73.8809 45.1914 73.8809 44.5879C73.8809 43.9902 73.7725 43.4482 73.5557 42.9619C73.3389 42.4697 73.0195 42.0801 72.5977 41.793C72.1758 41.5059 71.6719 41.3623 71.0859 41.3623C70.5059 41.3623 70.0049 41.5059 69.583 41.793C69.167 42.0742 68.8506 42.4609 68.6338 42.9531C68.417 43.4395 68.3086 43.9844 68.3086 44.5879C68.3086 45.1914 68.417 45.7422 68.6338 46.2402C68.8506 46.7383 69.167 47.1338 69.583 47.4268C70.0049 47.7139 70.5059 47.8574 71.0859 47.8574ZM77.6074 40.2197H79.0928V41.5557C79.3857 41.0693 79.7695 40.7002 80.2441 40.4482C80.7188 40.1963 81.2314 40.0703 81.7822 40.0703C82.4678 40.0703 83.0391 40.2256 83.4961 40.5361C83.959 40.8408 84.3018 41.2539 84.5244 41.7754C84.7529 42.2969 84.873 42.8828 84.8848 43.5332V49H83.3994V43.8057C83.3994 43.0674 83.2266 42.4902 82.8809 42.0742C82.5352 41.6582 82.0342 41.4502 81.3779 41.4502C80.6631 41.4502 80.1035 41.6641 79.6992 42.0918C79.2949 42.5137 79.0928 43.1289 79.0928 43.9375V49H77.6074V40.2197ZM95.4404 49.1494C94.5908 49.1494 93.8613 48.9473 93.252 48.543C92.6426 48.1328 92.1797 47.585 91.8633 46.8994C91.5469 46.208 91.3887 45.4492 91.3887 44.623C91.3887 43.8262 91.541 43.082 91.8457 42.3906C92.1504 41.6934 92.6045 41.1338 93.208 40.7119C93.8174 40.2842 94.5557 40.0703 95.4229 40.0703C96.2549 40.0703 96.9844 40.2812 97.6113 40.7031C98.2441 41.1191 98.7217 41.7314 99.0439 42.54L97.6289 43.0938C97.4531 42.5781 97.1689 42.1709 96.7764 41.8721C96.3896 41.5732 95.9385 41.4238 95.4229 41.4238C94.8662 41.4238 94.3975 41.5732 94.0166 41.8721C93.6357 42.165 93.3545 42.5547 93.1729 43.041C92.9912 43.5273 92.9004 44.0547 92.9004 44.623C92.9004 45.1973 92.9912 45.7246 93.1729 46.2051C93.3545 46.6855 93.6328 47.0723 94.0078 47.3652C94.3887 47.6523 94.8604 47.7959 95.4229 47.7959C95.9443 47.7959 96.3984 47.6494 96.7852 47.3564C97.1719 47.0576 97.4443 46.6562 97.6025 46.1523L98.9561 46.6621C98.6807 47.4473 98.2324 48.0596 97.6113 48.499C96.9961 48.9326 96.2725 49.1494 95.4404 49.1494ZM104.467 49.1494C103.629 49.1494 102.882 48.9473 102.226 48.543C101.569 48.1328 101.057 47.582 100.688 46.8906C100.324 46.1934 100.143 45.4258 100.143 44.5879C100.143 43.7559 100.324 42.9971 100.688 42.3115C101.057 41.6201 101.569 41.0752 102.226 40.6768C102.882 40.2725 103.629 40.0703 104.467 40.0703C105.305 40.0703 106.052 40.2725 106.708 40.6768C107.37 41.0752 107.886 41.6201 108.255 42.3115C108.624 43.0029 108.809 43.7617 108.809 44.5879C108.809 45.4258 108.624 46.1934 108.255 46.8906C107.886 47.582 107.37 48.1328 106.708 48.543C106.052 48.9473 105.305 49.1494 104.467 49.1494ZM104.467 47.8574C105.053 47.8574 105.557 47.7109 105.979 47.418C106.4 47.125 106.72 46.7324 106.937 46.2402C107.153 45.7422 107.262 45.1914 107.262 44.5879C107.262 43.9902 107.153 43.4482 106.937 42.9619C106.72 42.4697 106.4 42.0801 105.979 41.793C105.557 41.5059 105.053 41.3623 104.467 41.3623C103.887 41.3623 103.386 41.5059 102.964 41.793C102.548 42.0742 102.231 42.4609 102.015 42.9531C101.798 43.4395 101.689 43.9844 101.689 44.5879C101.689 45.1914 101.798 45.7422 102.015 46.2402C102.231 46.7383 102.548 47.1338 102.964 47.4268C103.386 47.7139 103.887 47.8574 104.467 47.8574ZM110.988 40.2197H112.474V41.5557C112.767 41.0693 113.15 40.7002 113.625 40.4482C114.1 40.1963 114.612 40.0703 115.163 40.0703C115.849 40.0703 116.42 40.2256 116.877 40.5361C117.34 40.8408 117.683 41.2539 117.905 41.7754C118.134 42.2969 118.254 42.8828 118.266 43.5332V49H116.78V43.8057C116.78 43.0674 116.607 42.4902 116.262 42.0742C115.916 41.6582 115.415 41.4502 114.759 41.4502C114.044 41.4502 113.484 41.6641 113.08 42.0918C112.676 42.5137 112.474 43.1289 112.474 43.9375V49H110.988V40.2197ZM123.803 49.1494C123 49.1494 122.382 48.9238 121.948 48.4727C121.515 48.0156 121.298 47.374 121.298 46.5479V41.4766H119.848V40.2197H121.315V37.7939L122.783 36.7217V40.2197H125.156V41.4766H122.783V46.3018C122.783 46.8408 122.889 47.2305 123.1 47.4707C123.316 47.7109 123.636 47.8311 124.058 47.8311C124.245 47.8311 124.436 47.8076 124.629 47.7607C124.828 47.708 125.001 47.6494 125.147 47.585L125.156 48.9385C125.004 48.9971 124.805 49.0469 124.559 49.0879C124.312 49.1289 124.061 49.1494 123.803 49.1494ZM127.213 40.2197H128.663V41.9424C128.798 41.5381 129.003 41.1953 129.278 40.9141C129.554 40.6328 129.861 40.4219 130.201 40.2812C130.547 40.1406 130.898 40.0703 131.256 40.0703C131.525 40.0703 131.786 40.1113 132.038 40.1934C132.29 40.2695 132.513 40.3896 132.706 40.5537L132.021 41.7842C131.704 41.6084 131.376 41.5205 131.036 41.5205C130.638 41.5205 130.257 41.6348 129.894 41.8633C129.53 42.0918 129.231 42.4521 128.997 42.9443C128.769 43.4307 128.654 44.04 128.654 44.7725V49H127.213V40.2197ZM137.232 49.1494C136.395 49.1494 135.647 48.9473 134.991 48.543C134.335 48.1328 133.822 47.582 133.453 46.8906C133.09 46.1934 132.908 45.4258 132.908 44.5879C132.908 43.7559 133.09 42.9971 133.453 42.3115C133.822 41.6201 134.335 41.0752 134.991 40.6768C135.647 40.2725 136.395 40.0703 137.232 40.0703C138.07 40.0703 138.817 40.2725 139.474 40.6768C140.136 41.0752 140.651 41.6201 141.021 42.3115C141.39 43.0029 141.574 43.7617 141.574 44.5879C141.574 45.4258 141.39 46.1934 141.021 46.8906C140.651 47.582 140.136 48.1328 139.474 48.543C138.817 48.9473 138.07 49.1494 137.232 49.1494ZM137.232 47.8574C137.818 47.8574 138.322 47.7109 138.744 47.418C139.166 47.125 139.485 46.7324 139.702 46.2402C139.919 45.7422 140.027 45.1914 140.027 44.5879C140.027 43.9902 139.919 43.4482 139.702 42.9619C139.485 42.4697 139.166 42.0801 138.744 41.793C138.322 41.5059 137.818 41.3623 137.232 41.3623C136.652 41.3623 136.151 41.5059 135.729 41.793C135.313 42.0742 134.997 42.4609 134.78 42.9531C134.563 43.4395 134.455 43.9844 134.455 44.5879C134.455 45.1914 134.563 45.7422 134.78 46.2402C134.997 46.7383 135.313 47.1338 135.729 47.4268C136.151 47.7139 136.652 47.8574 137.232 47.8574ZM145.397 49.1494C144.812 49.1494 144.381 48.9912 144.105 48.6748C143.836 48.3525 143.701 47.8545 143.701 47.1807V36.5811H145.195V46.7852C145.195 47.1133 145.257 47.3652 145.38 47.541C145.503 47.7168 145.731 47.8047 146.065 47.8047C146.247 47.8047 146.473 47.7812 146.742 47.7344L146.751 48.9912C146.265 49.0967 145.813 49.1494 145.397 49.1494Z" fill="#30404F"/>
<g filter="url(#filter1_i)">
<rect x="98" y="109.829" width="57" height="25.0244" rx="12.5122" fill="#F3F9FB"/>
</g>
<rect x="98.5" y="110.329" width="56" height="24.0244" rx="12.0122" stroke="#DEEDF1"/>
<circle cx="142.488" cy="162.658" r="12.5122" fill="#C4C4C4"/>
<g filter="url(#filter2_i)">
<rect x="98" y="150.146" width="57" height="25.0244" rx="12.5122" fill="#00CBE6"/>
</g>
<rect x="98.5" y="150.646" width="56" height="24.0244" rx="12.0122" stroke="#DEEDF1"/>
<g filter="url(#filter3_d)">
<circle cx="110.512" cy="122.341" r="9.73171" fill="white"/>
</g>
<g filter="url(#filter4_d)">
<circle cx="142.488" cy="162.658" r="9.73171" fill="white"/>
</g>
<defs>
<filter id="filter0_d" x="0" y="0" width="252" height="252" filterUnits="userSpaceOnUse" color-interpolation-filters="sRGB">
<feFlood flood-opacity="0" result="BackgroundImageFix"/>
<feColorMatrix in="SourceAlpha" type="matrix" values="0 0 0 0 0 0 0 0 0 0 0 0 0 0 0 0 0 0 127 0"/>
<feOffset dy="1"/>
<feGaussianBlur stdDeviation="1.5"/>
<feColorMatrix type="matrix" values="0 0 0 0 0 0 0 0 0 0 0 0 0 0 0 0 0 0 0.1 0"/>
<feBlend mode="normal" in2="BackgroundImageFix" result="effect1_dropShadow"/>
<feBlend mode="normal" in="SourceGraphic" in2="effect1_dropShadow" result="shape"/>
</filter>
<filter id="filter1_i" x="98" y="109.829" width="57" height="26.0244" filterUnits="userSpaceOnUse" color-interpolation-filters="sRGB">
<feFlood flood-opacity="0" result="BackgroundImageFix"/>
<feBlend mode="normal" in="SourceGraphic" in2="BackgroundImageFix" result="shape"/>
<feColorMatrix in="SourceAlpha" type="matrix" values="0 0 0 0 0 0 0 0 0 0 0 0 0 0 0 0 0 0 127 0" result="hardAlpha"/>
<feOffset dy="1"/>
<feGaussianBlur stdDeviation="1"/>
<feComposite in2="hardAlpha" operator="arithmetic" k2="-1" k3="1"/>
<feColorMatrix type="matrix" values="0 0 0 0 0 0 0 0 0 0 0 0 0 0 0 0 0 0 0.15 0"/>
<feBlend mode="normal" in2="shape" result="effect1_innerShadow"/>
</filter>
<filter id="filter2_i" x="98" y="150.146" width="57" height="26.0244" filterUnits="userSpaceOnUse" color-interpolation-filters="sRGB">
<feFlood flood-opacity="0" result="BackgroundImageFix"/>
<feBlend mode="normal" in="SourceGraphic" in2="BackgroundImageFix" result="shape"/>
<feColorMatrix in="SourceAlpha" type="matrix" values="0 0 0 0 0 0 0 0 0 0 0 0 0 0 0 0 0 0 127 0" result="hardAlpha"/>
<feOffset dy="1"/>
<feGaussianBlur stdDeviation="1"/>
<feComposite in2="hardAlpha" operator="arithmetic" k2="-1" k3="1"/>
<feColorMatrix type="matrix" values="0 0 0 0 0 0 0 0 0 0 0 0 0 0 0 0 0 0 0.15 0"/>
<feBlend mode="normal" in2="shape" result="effect1_innerShadow"/>
</filter>
<filter id="filter3_d" x="98.7805" y="111.609" width="23.4634" height="23.4634" filterUnits="userSpaceOnUse" color-interpolation-filters="sRGB">
<feFlood flood-opacity="0" result="BackgroundImageFix"/>
<feColorMatrix in="SourceAlpha" type="matrix" values="0 0 0 0 0 0 0 0 0 0 0 0 0 0 0 0 0 0 127 0"/>
<feOffset dy="1"/>
<feGaussianBlur stdDeviation="1"/>
<feColorMatrix type="matrix" values="0 0 0 0 0 0 0 0 0 0 0 0 0 0 0 0 0 0 0.15 0"/>
<feBlend mode="normal" in2="BackgroundImageFix" result="effect1_dropShadow"/>
<feBlend mode="normal" in="SourceGraphic" in2="effect1_dropShadow" result="shape"/>
</filter>
<filter id="filter4_d" x="130.756" y="151.927" width="23.4634" height="23.4634" filterUnits="userSpaceOnUse" color-interpolation-filters="sRGB">
<feFlood flood-opacity="0" result="BackgroundImageFix"/>
<feColorMatrix in="SourceAlpha" type="matrix" values="0 0 0 0 0 0 0 0 0 0 0 0 0 0 0 0 0 0 127 0"/>
<feOffset dy="1"/>
<feGaussianBlur stdDeviation="1"/>
<feColorMatrix type="matrix" values="0 0 0 0 0 0 0 0 0 0 0 0 0 0 0 0 0 0 0.15 0"/>
<feBlend mode="normal" in2="BackgroundImageFix" result="effect1_dropShadow"/>
<feBlend mode="normal" in="SourceGraphic" in2="effect1_dropShadow" result="shape"/>
</filter>
</defs>
</svg>
