<svg width="252" height="252" viewBox="0 0 252 252" fill="none" xmlns="http://www.w3.org/2000/svg">
<g filter="url(#filter0_d)">
<rect x="3" y="2" width="246" height="246" rx="3" fill="white"/>
<rect x="3.5" y="2.5" width="245" height="245" rx="2.5" stroke="#DFE3E8" stroke-opacity="0.75"/>
</g>
<path d="M31.623 37.9697H27.4395V36.5811H37.3535V37.9697H33.1699V49H31.623V37.9697ZM40.79 40.0703C41.5459 40.0703 42.1934 40.2168 42.7324 40.5098C43.2773 40.7969 43.6904 41.21 43.9717 41.749C44.2529 42.2881 44.3936 42.9209 44.3936 43.6475V49H43.1543L43.0576 47.4355C42.7588 47.9863 42.334 48.4111 41.7832 48.71C41.2324 49.0029 40.6436 49.1494 40.0166 49.1494C39.4189 49.1494 38.8857 49.041 38.417 48.8242C37.9541 48.6016 37.5908 48.2852 37.3271 47.875C37.0635 47.459 36.9316 46.9668 36.9316 46.3984C36.9316 45.5254 37.248 44.8896 37.8809 44.4912C38.5195 44.0869 39.4102 43.8848 40.5527 43.8848H43.04C43.0342 43.2988 42.9609 42.8242 42.8203 42.4609C42.6797 42.0918 42.4453 41.8193 42.1172 41.6436C41.7949 41.4619 41.3584 41.3711 40.8076 41.3711C39.8057 41.3711 39.0088 41.8281 38.417 42.7422L37.2744 41.916C37.7197 41.3066 38.2236 40.8467 38.7861 40.5361C39.3486 40.2256 40.0166 40.0703 40.79 40.0703ZM40.3066 47.875C41.0215 47.875 41.6162 47.6611 42.0908 47.2334C42.5713 46.7998 42.8877 46.2373 43.04 45.5459V44.9746H40.6406C39.9199 44.9746 39.375 45.1064 39.0059 45.3701C38.6426 45.6338 38.4609 45.9941 38.4609 46.4512C38.4609 46.8848 38.6221 47.2305 38.9443 47.4883C39.2666 47.7461 39.7207 47.875 40.3066 47.875ZM51.583 49.1494C50.9561 49.1494 50.3789 48.9971 49.8516 48.6924C49.3301 48.3877 48.9287 47.96 48.6475 47.4092V49H47.1094V36.5811H48.6475V41.8018C48.9287 41.251 49.3271 40.8262 49.8428 40.5273C50.3584 40.2227 50.9297 40.0703 51.5566 40.0703C52.3359 40.0703 53.0068 40.2725 53.5693 40.6768C54.1377 41.0811 54.5684 41.6289 54.8613 42.3203C55.1602 43.0059 55.3096 43.7676 55.3096 44.6055C55.3096 45.4434 55.1602 46.208 54.8613 46.8994C54.5684 47.585 54.1406 48.1328 53.5781 48.543C53.0156 48.9473 52.3506 49.1494 51.583 49.1494ZM51.2227 47.7695C51.7793 47.7695 52.251 47.6318 52.6377 47.3564C53.0303 47.0811 53.3232 46.7061 53.5166 46.2314C53.7158 45.751 53.8154 45.209 53.8154 44.6055C53.8154 44.002 53.7158 43.46 53.5166 42.9795C53.3232 42.499 53.0303 42.1211 52.6377 41.8457C52.251 41.5645 51.7793 41.4238 51.2227 41.4238C50.666 41.4238 50.1826 41.5615 49.7725 41.8369C49.3682 42.1123 49.0576 42.4932 48.8408 42.9795C48.624 43.46 48.5156 44.002 48.5156 44.6055C48.5156 45.209 48.6211 45.751 48.832 46.2314C49.0488 46.7119 49.3623 47.0898 49.7725 47.3652C50.1826 47.6348 50.666 47.7695 51.2227 47.7695ZM59.2119 49.1494C58.626 49.1494 58.1953 48.9912 57.9199 48.6748C57.6504 48.3525 57.5156 47.8545 57.5156 47.1807V36.5811H59.0098V46.7852C59.0098 47.1133 59.0713 47.3652 59.1943 47.541C59.3174 47.7168 59.5459 47.8047 59.8799 47.8047C60.0615 47.8047 60.2871 47.7812 60.5566 47.7344L60.5654 48.9912C60.0791 49.0967 59.6279 49.1494 59.2119 49.1494ZM65.9531 49.1494C65.0566 49.1494 64.292 48.9502 63.6592 48.5518C63.0264 48.1533 62.5488 47.6143 62.2266 46.9346C61.9043 46.249 61.7432 45.4873 61.7432 44.6494C61.7432 43.8232 61.8984 43.0615 62.209 42.3643C62.5195 41.667 62.9795 41.1104 63.5889 40.6943C64.2041 40.2783 64.9424 40.0703 65.8037 40.0703C66.7236 40.0703 67.4736 40.2812 68.0537 40.7031C68.6396 41.125 69.0615 41.6553 69.3193 42.2939C69.5771 42.9268 69.7061 43.5771 69.7061 44.2451C69.7061 44.4033 69.6973 44.5615 69.6797 44.7197C69.668 44.8721 69.6533 44.9834 69.6357 45.0537H63.3164C63.375 45.915 63.627 46.5889 64.0723 47.0752C64.5234 47.5557 65.1533 47.7959 65.9619 47.7959C66.4541 47.7959 66.8906 47.7168 67.2715 47.5586C67.6523 47.3945 68.0215 47.1221 68.3789 46.7412L69.416 47.6465C68.9297 48.168 68.4082 48.5488 67.8516 48.7891C67.3008 49.0293 66.668 49.1494 65.9531 49.1494ZM68.2295 43.9639C68.2295 43.7119 68.2178 43.5273 68.1943 43.4102C68.1416 43.0293 68.0156 42.6836 67.8164 42.373C67.623 42.0566 67.3535 41.8047 67.0078 41.6172C66.668 41.4238 66.2637 41.3271 65.7949 41.3271C65.0742 41.3271 64.5029 41.5674 64.0811 42.0479C63.6592 42.5225 63.4043 43.1611 63.3164 43.9639H68.2295ZM74.5137 49.1494C73.9336 49.1494 73.3975 49.0469 72.9053 48.8418C72.4131 48.6367 71.9941 48.3555 71.6484 47.998C71.3027 47.6348 71.0566 47.2305 70.9102 46.7852L72.1143 46.2578C72.2842 46.7266 72.5654 47.1191 72.958 47.4355C73.3506 47.7461 73.8457 47.9014 74.4434 47.9014C74.8359 47.9014 75.1699 47.8398 75.4453 47.7168C75.7207 47.5879 75.9258 47.415 76.0605 47.1982C76.2012 46.9814 76.2715 46.7412 76.2715 46.4775C76.2715 46.1846 76.1807 45.9502 75.999 45.7744C75.8232 45.5928 75.6006 45.4521 75.3311 45.3525C75.0615 45.2529 74.6895 45.1445 74.2148 45.0273C73.6113 44.875 73.1221 44.7256 72.7471 44.5791C72.3779 44.4268 72.0615 44.1924 71.7979 43.876C71.5342 43.5537 71.4023 43.123 71.4023 42.584C71.4023 42.0508 71.54 41.5967 71.8154 41.2217C72.0908 40.8408 72.4629 40.5537 72.9316 40.3604C73.4004 40.167 73.9219 40.0703 74.4961 40.0703C75.1992 40.0703 75.8203 40.2314 76.3594 40.5537C76.9043 40.876 77.3379 41.333 77.6602 41.9248L76.5088 42.5488C76.2979 42.1621 76.0195 41.8516 75.6738 41.6172C75.334 41.377 74.9238 41.2568 74.4434 41.2568C73.9512 41.2568 73.5586 41.3623 73.2656 41.5732C72.9727 41.7842 72.8262 42.0566 72.8262 42.3906C72.8262 42.6484 72.9111 42.8594 73.0811 43.0234C73.251 43.1816 73.4648 43.3105 73.7227 43.4102C73.9805 43.5039 74.332 43.6094 74.7773 43.7266C75.4043 43.8965 75.9141 44.0664 76.3066 44.2363C76.6992 44.4004 77.0361 44.6582 77.3174 45.0098C77.5986 45.3555 77.7393 45.8213 77.7393 46.4072C77.7393 46.999 77.5928 47.5029 77.2998 47.9189C77.0068 48.3291 76.6143 48.6367 76.1221 48.8418C75.6357 49.0469 75.0996 49.1494 74.5137 49.1494Z" fill="#30404F"/>
<path d="M40.6738 87C40.6738 85.067 42.2408 83.5 44.1738 83.5H207.826C209.759 83.5 211.326 85.067 211.326 87V94.3696H40.6738V87Z" fill="white" stroke="#DFE3E8"/>
<rect x="40.6738" y="94.4565" width="170.652" height="22.7391" fill="#F9F9F9" stroke="#DFE3E8"/>
<rect x="40.6738" y="117.283" width="170.652" height="22.7391" fill="white" stroke="#DFE3E8"/>
<rect x="40.6738" y="140.109" width="170.652" height="22.7391" fill="#F9F9F9" stroke="#DFE3E8"/>
<rect x="40.6738" y="162.935" width="170.652" height="22.7391" fill="white" stroke="#DFE3E8"/>
<path d="M40.6738 185.761H211.326V205C211.326 206.933 209.759 208.5 207.826 208.5H44.1738C42.2408 208.5 40.6738 206.933 40.6738 205V185.761Z" fill="#F9F9F9" stroke="#DFE3E8"/>
<rect x="48" y="103" width="63" height="6" fill="url(#paint0_linear)"/>
<rect x="48" y="126" width="63" height="6" fill="url(#paint1_linear)"/>
<rect x="48" y="149" width="63" height="6" fill="url(#paint2_linear)"/>
<rect x="48" y="172" width="63" height="6" fill="url(#paint3_linear)"/>
<rect x="48" y="195" width="63" height="6" fill="url(#paint4_linear)"/>
<rect x="183" y="103" width="19" height="6" fill="url(#paint5_linear)"/>
<rect x="183" y="126" width="19" height="6" fill="url(#paint6_linear)"/>
<rect x="183" y="149" width="19" height="6" fill="url(#paint7_linear)"/>
<rect x="183" y="172" width="19" height="6" fill="url(#paint8_linear)"/>
<rect x="183" y="195" width="19" height="6" fill="url(#paint9_linear)"/>
<defs>
<filter id="filter0_d" x="0" y="0" width="252" height="252" filterUnits="userSpaceOnUse" color-interpolation-filters="sRGB">
<feFlood flood-opacity="0" result="BackgroundImageFix"/>
<feColorMatrix in="SourceAlpha" type="matrix" values="0 0 0 0 0 0 0 0 0 0 0 0 0 0 0 0 0 0 127 0"/>
<feOffset dy="1"/>
<feGaussianBlur stdDeviation="1.5"/>
<feColorMatrix type="matrix" values="0 0 0 0 0 0 0 0 0 0 0 0 0 0 0 0 0 0 0.1 0"/>
<feBlend mode="normal" in2="BackgroundImageFix" result="effect1_dropShadow"/>
<feBlend mode="normal" in="SourceGraphic" in2="effect1_dropShadow" result="shape"/>
</filter>
<linearGradient id="paint0_linear" x1="50.3049" y1="106" x2="107.159" y2="106" gradientUnits="userSpaceOnUse">
<stop stop-color="#C4C4C4" stop-opacity="0.26"/>
<stop offset="1" stop-color="#C4C4C4" stop-opacity="0.18"/>
</linearGradient>
<linearGradient id="paint1_linear" x1="50.3049" y1="129" x2="107.159" y2="129" gradientUnits="userSpaceOnUse">
<stop stop-color="#C4C4C4" stop-opacity="0.26"/>
<stop offset="1" stop-color="#C4C4C4" stop-opacity="0.18"/>
</linearGradient>
<linearGradient id="paint2_linear" x1="50.3049" y1="152" x2="107.159" y2="152" gradientUnits="userSpaceOnUse">
<stop stop-color="#C4C4C4" stop-opacity="0.26"/>
<stop offset="1" stop-color="#C4C4C4" stop-opacity="0.18"/>
</linearGradient>
<linearGradient id="paint3_linear" x1="50.3049" y1="175" x2="107.159" y2="175" gradientUnits="userSpaceOnUse">
<stop stop-color="#C4C4C4" stop-opacity="0.26"/>
<stop offset="1" stop-color="#C4C4C4" stop-opacity="0.18"/>
</linearGradient>
<linearGradient id="paint4_linear" x1="50.3049" y1="198" x2="107.159" y2="198" gradientUnits="userSpaceOnUse">
<stop stop-color="#C4C4C4" stop-opacity="0.26"/>
<stop offset="1" stop-color="#C4C4C4" stop-opacity="0.18"/>
</linearGradient>
<linearGradient id="paint5_linear" x1="183.695" y1="106" x2="200.841" y2="106" gradientUnits="userSpaceOnUse">
<stop stop-color="#C4C4C4" stop-opacity="0.26"/>
<stop offset="1" stop-color="#C4C4C4" stop-opacity="0.18"/>
</linearGradient>
<linearGradient id="paint6_linear" x1="183.695" y1="129" x2="200.841" y2="129" gradientUnits="userSpaceOnUse">
<stop stop-color="#C4C4C4" stop-opacity="0.26"/>
<stop offset="1" stop-color="#C4C4C4" stop-opacity="0.18"/>
</linearGradient>
<linearGradient id="paint7_linear" x1="183.695" y1="152" x2="200.841" y2="152" gradientUnits="userSpaceOnUse">
<stop stop-color="#C4C4C4" stop-opacity="0.26"/>
<stop offset="1" stop-color="#C4C4C4" stop-opacity="0.18"/>
</linearGradient>
<linearGradient id="paint8_linear" x1="183.695" y1="175" x2="200.841" y2="175" gradientUnits="userSpaceOnUse">
<stop stop-color="#C4C4C4" stop-opacity="0.26"/>
<stop offset="1" stop-color="#C4C4C4" stop-opacity="0.18"/>
</linearGradient>
<linearGradient id="paint9_linear" x1="183.695" y1="198" x2="200.841" y2="198" gradientUnits="userSpaceOnUse">
<stop stop-color="#C4C4C4" stop-opacity="0.26"/>
<stop offset="1" stop-color="#C4C4C4" stop-opacity="0.18"/>
</linearGradient>
</defs>
</svg>
