<svg width="252" height="252" viewBox="0 0 252 252" fill="none" xmlns="http://www.w3.org/2000/svg">
<g filter="url(#filter0_d)">
<rect x="3" y="2" width="246" height="246" rx="3" fill="white"/>
<rect x="3.5" y="2.5" width="245" height="245" rx="2.5" stroke="#DFE3E8" stroke-opacity="0.75"/>
</g>
<path d="M31.623 37.9697H27.4395V36.5811H37.3535V37.9697H33.1699V49H31.623V37.9697ZM40.79 40.0703C41.5459 40.0703 42.1934 40.2168 42.7324 40.5098C43.2773 40.7969 43.6904 41.21 43.9717 41.749C44.2529 42.2881 44.3936 42.9209 44.3936 43.6475V49H43.1543L43.0576 47.4355C42.7588 47.9863 42.334 48.4111 41.7832 48.71C41.2324 49.0029 40.6436 49.1494 40.0166 49.1494C39.4189 49.1494 38.8857 49.041 38.417 48.8242C37.9541 48.6016 37.5908 48.2852 37.3271 47.875C37.0635 47.459 36.9316 46.9668 36.9316 46.3984C36.9316 45.5254 37.248 44.8896 37.8809 44.4912C38.5195 44.0869 39.4102 43.8848 40.5527 43.8848H43.04C43.0342 43.2988 42.9609 42.8242 42.8203 42.4609C42.6797 42.0918 42.4453 41.8193 42.1172 41.6436C41.7949 41.4619 41.3584 41.3711 40.8076 41.3711C39.8057 41.3711 39.0088 41.8281 38.417 42.7422L37.2744 41.916C37.7197 41.3066 38.2236 40.8467 38.7861 40.5361C39.3486 40.2256 40.0166 40.0703 40.79 40.0703ZM40.3066 47.875C41.0215 47.875 41.6162 47.6611 42.0908 47.2334C42.5713 46.7998 42.8877 46.2373 43.04 45.5459V44.9746H40.6406C39.9199 44.9746 39.375 45.1064 39.0059 45.3701C38.6426 45.6338 38.4609 45.9941 38.4609 46.4512C38.4609 46.8848 38.6221 47.2305 38.9443 47.4883C39.2666 47.7461 39.7207 47.875 40.3066 47.875ZM51.583 49.1494C50.9561 49.1494 50.3789 48.9971 49.8516 48.6924C49.3301 48.3877 48.9287 47.96 48.6475 47.4092V49H47.1094V36.5811H48.6475V41.8018C48.9287 41.251 49.3271 40.8262 49.8428 40.5273C50.3584 40.2227 50.9297 40.0703 51.5566 40.0703C52.3359 40.0703 53.0068 40.2725 53.5693 40.6768C54.1377 41.0811 54.5684 41.6289 54.8613 42.3203C55.1602 43.0059 55.3096 43.7676 55.3096 44.6055C55.3096 45.4434 55.1602 46.208 54.8613 46.8994C54.5684 47.585 54.1406 48.1328 53.5781 48.543C53.0156 48.9473 52.3506 49.1494 51.583 49.1494ZM51.2227 47.7695C51.7793 47.7695 52.251 47.6318 52.6377 47.3564C53.0303 47.0811 53.3232 46.7061 53.5166 46.2314C53.7158 45.751 53.8154 45.209 53.8154 44.6055C53.8154 44.002 53.7158 43.46 53.5166 42.9795C53.3232 42.499 53.0303 42.1211 52.6377 41.8457C52.251 41.5645 51.7793 41.4238 51.2227 41.4238C50.666 41.4238 50.1826 41.5615 49.7725 41.8369C49.3682 42.1123 49.0576 42.4932 48.8408 42.9795C48.624 43.46 48.5156 44.002 48.5156 44.6055C48.5156 45.209 48.6211 45.751 48.832 46.2314C49.0488 46.7119 49.3623 47.0898 49.7725 47.3652C50.1826 47.6348 50.666 47.7695 51.2227 47.7695ZM60.1875 49.1494C59.6074 49.1494 59.0713 49.0469 58.5791 48.8418C58.0869 48.6367 57.668 48.3555 57.3223 47.998C56.9766 47.6348 56.7305 47.2305 56.584 46.7852L57.7881 46.2578C57.958 46.7266 58.2393 47.1191 58.6318 47.4355C59.0244 47.7461 59.5195 47.9014 60.1172 47.9014C60.5098 47.9014 60.8438 47.8398 61.1191 47.7168C61.3945 47.5879 61.5996 47.415 61.7344 47.1982C61.875 46.9814 61.9453 46.7412 61.9453 46.4775C61.9453 46.1846 61.8545 45.9502 61.6729 45.7744C61.4971 45.5928 61.2744 45.4521 61.0049 45.3525C60.7354 45.2529 60.3633 45.1445 59.8887 45.0273C59.2852 44.875 58.7959 44.7256 58.4209 44.5791C58.0518 44.4268 57.7354 44.1924 57.4717 43.876C57.208 43.5537 57.0762 43.123 57.0762 42.584C57.0762 42.0508 57.2139 41.5967 57.4893 41.2217C57.7646 40.8408 58.1367 40.5537 58.6055 40.3604C59.0742 40.167 59.5957 40.0703 60.1699 40.0703C60.873 40.0703 61.4941 40.2314 62.0332 40.5537C62.5781 40.876 63.0117 41.333 63.334 41.9248L62.1826 42.5488C61.9717 42.1621 61.6934 41.8516 61.3477 41.6172C61.0078 41.377 60.5977 41.2568 60.1172 41.2568C59.625 41.2568 59.2324 41.3623 58.9395 41.5732C58.6465 41.7842 58.5 42.0566 58.5 42.3906C58.5 42.6484 58.585 42.8594 58.7549 43.0234C58.9248 43.1816 59.1387 43.3105 59.3965 43.4102C59.6543 43.5039 60.0059 43.6094 60.4512 43.7266C61.0781 43.8965 61.5879 44.0664 61.9805 44.2363C62.373 44.4004 62.71 44.6582 62.9912 45.0098C63.2725 45.3555 63.4131 45.8213 63.4131 46.4072C63.4131 46.999 63.2666 47.5029 62.9736 47.9189C62.6807 48.3291 62.2881 48.6367 61.7959 48.8418C61.3096 49.0469 60.7734 49.1494 60.1875 49.1494Z" fill="#30404F"/>
<mask id="mask0" mask-type="alpha" maskUnits="userSpaceOnUse" x="3" y="2" width="246" height="246">
<rect x="3" y="2" width="246" height="246" rx="3" fill="white"/>
<rect x="3.5" y="2.5" width="245" height="245" rx="2.5" stroke="#DFE3E8" stroke-opacity="0.75"/>
</mask>
<g mask="url(#mask0)">
<path d="M33.5 109C33.5 107.067 35.067 105.5 37 105.5H617C618.933 105.5 620.5 107.067 620.5 109V165C620.5 166.933 618.933 168.5 617 168.5H37C35.067 168.5 33.5 166.933 33.5 165V109Z" fill="white" stroke="#DDE4E9"/>
<path d="M205.68 131.8V143H208.592C212.624 143 213.728 139.976 213.728 137.4C213.728 134.632 212.448 131.8 208.656 131.8H205.68ZM208.672 141.992H206.8V132.808H208.848C211.504 132.808 212.56 135.08 212.56 137.4C212.56 139.576 211.68 141.992 208.672 141.992ZM216.86 133.144C217.292 133.144 217.596 132.824 217.596 132.408C217.596 131.976 217.292 131.64 216.86 131.64C216.444 131.64 216.124 131.976 216.124 132.408C216.124 132.824 216.444 133.144 216.86 133.144ZM216.3 143H217.42V134.824H216.3V143ZM222.619 143.192C224.315 143.192 225.371 142.312 225.371 140.952C225.371 139.304 223.979 138.744 222.763 138.264C221.803 137.88 220.891 137.528 220.891 136.696C220.891 136.04 221.499 135.624 222.443 135.624C223.339 135.624 223.979 136.088 224.395 136.504L225.131 135.88C224.475 135.096 223.579 134.632 222.475 134.632C220.939 134.632 219.835 135.464 219.835 136.712C219.835 138.088 220.987 138.664 222.283 139.192C223.275 139.592 224.315 140.024 224.315 141.016C224.315 141.784 223.611 142.2 222.715 142.2C221.867 142.2 221.083 141.672 220.587 141.08L219.803 141.768C220.491 142.584 221.515 143.192 222.619 143.192ZM230.393 143.192C231.785 143.192 232.873 142.472 233.257 141.32L232.249 140.936C231.977 141.704 231.321 142.184 230.441 142.184C229.001 142.184 228.329 140.984 228.329 138.92C228.329 136.904 228.953 135.64 230.473 135.64C231.369 135.64 231.865 136.12 232.121 136.744L233.145 136.344C232.697 135.24 231.737 134.632 230.521 134.632C228.425 134.632 227.161 136.232 227.161 138.92C227.161 141.64 228.425 143.192 230.393 143.192ZM238.368 143.192C240.464 143.192 241.872 141.592 241.872 138.904C241.872 136.184 240.464 134.632 238.368 134.632C236.272 134.632 234.864 136.232 234.864 138.92C234.864 141.64 236.272 143.192 238.368 143.192ZM238.368 142.184C236.848 142.184 236.032 140.952 236.032 138.92C236.032 136.792 236.848 135.64 238.368 135.64C239.888 135.64 240.704 136.872 240.704 138.904C240.704 140.952 239.856 142.184 238.368 142.184ZM246.382 143H247.166L250.158 134.824H249.038L247.102 140.392C247.006 140.68 246.91 140.936 246.814 141.256C246.718 140.936 246.622 140.68 246.526 140.392L244.542 134.824H243.39L246.382 143ZM255.229 143.192C256.173 143.192 257.085 142.792 257.725 142.264L257.117 141.512C256.493 141.976 255.869 142.152 255.277 142.152C253.885 142.152 253.053 141.032 252.861 139.368H258.429C258.461 139.016 258.461 138.76 258.461 138.584C258.461 135.832 256.973 134.632 255.229 134.632C253.133 134.632 251.677 136.184 251.677 138.904C251.677 141.208 253.021 143.192 255.229 143.192ZM252.829 138.36C252.925 136.504 253.917 135.64 255.229 135.64C256.093 135.64 257.309 136.152 257.325 138.36H252.829ZM260.706 143H261.826V138.376C261.826 136.36 262.994 135.752 263.81 135.752C264.338 135.752 264.658 135.928 264.866 136.056L265.042 134.968C264.818 134.808 264.402 134.632 263.89 134.632C262.882 134.632 262.194 135.192 261.826 135.976V134.824H260.706V143ZM276.902 143H278.038L274.118 131.8H273.254L269.366 143H270.534L271.51 140.104H275.878L276.902 143ZM275.542 139.112H271.846L273.382 134.632C273.478 134.36 273.622 133.832 273.686 133.624C273.734 133.832 273.91 134.36 274.006 134.632L275.542 139.112ZM283.8 143.192C285.768 143.192 287.176 141.64 287.176 138.904C287.176 136.328 285.896 134.632 283.8 134.632C282.696 134.632 282.088 135.08 281.56 135.56V134.824H280.44V146.248L281.56 145.688V142.168C282.024 142.712 282.648 143.192 283.8 143.192ZM283.672 142.184C282.792 142.184 282.12 141.64 281.56 140.92V136.904C282.008 136.104 282.792 135.64 283.672 135.64C285.128 135.64 286.008 136.92 286.008 138.904C286.008 141.016 285.16 142.184 283.672 142.184ZM292.863 143.192C294.831 143.192 296.239 141.64 296.239 138.904C296.239 136.328 294.959 134.632 292.863 134.632C291.759 134.632 291.151 135.08 290.623 135.56V134.824H289.503V146.248L290.623 145.688V142.168C291.087 142.712 291.711 143.192 292.863 143.192ZM292.735 142.184C291.855 142.184 291.183 141.64 290.623 140.92V136.904C291.071 136.104 291.855 135.64 292.735 135.64C294.191 135.64 295.071 136.92 295.071 138.904C295.071 141.016 294.223 142.184 292.735 142.184ZM300.869 143.192C302.565 143.192 303.621 142.312 303.621 140.952C303.621 139.304 302.229 138.744 301.013 138.264C300.053 137.88 299.141 137.528 299.141 136.696C299.141 136.04 299.749 135.624 300.693 135.624C301.589 135.624 302.229 136.088 302.645 136.504L303.381 135.88C302.725 135.096 301.829 134.632 300.725 134.632C299.189 134.632 298.085 135.464 298.085 136.712C298.085 138.088 299.237 138.664 300.533 139.192C301.525 139.592 302.565 140.024 302.565 141.016C302.565 141.784 301.861 142.2 300.965 142.2C300.117 142.2 299.333 141.672 298.837 141.08L298.053 141.768C298.741 142.584 299.765 143.192 300.869 143.192Z" fill="#637381"/>
<path d="M58.6625 143H60.0545V131.8H58.6625V143ZM68.0243 143H69.4163V138.296C69.4163 135.656 68.3443 134.632 66.4883 134.632C65.6083 134.632 64.8883 134.952 64.3763 135.656V134.824H62.9843V143H64.3763V138.024C64.3763 136.44 65.1923 135.912 66.2643 135.912C67.2723 135.912 68.0243 136.504 68.0243 138.056V143ZM74.4159 143.192C76.1919 143.192 77.3279 142.344 77.3279 140.872C77.3279 139.32 76.1599 138.68 74.6719 138.152C73.7599 137.784 72.9439 137.48 72.9439 136.792C72.9439 136.216 73.4719 135.88 74.3039 135.88C75.1839 135.88 75.7599 136.296 76.1119 136.664L77.0719 135.864C76.4799 135.16 75.5679 134.632 74.3199 134.632C72.7519 134.632 71.5679 135.448 71.5679 136.792C71.5679 138.136 72.5919 138.792 74.0959 139.352C75.0559 139.72 75.9679 140.088 75.9679 140.904C75.9679 141.624 75.3119 141.944 74.4479 141.944C73.5679 141.944 72.8639 141.416 72.4479 140.968L71.4559 141.816C72.0959 142.632 73.2159 143.192 74.4159 143.192ZM81.7079 143.192C82.3479 143.192 82.8439 143.048 83.2759 142.824L83.4359 141.464C83.0839 141.688 82.6839 141.896 82.2199 141.896C81.4999 141.896 81.3719 141.4 81.3719 140.776V136.04H83.3879V134.824H81.3719V131.448L79.9799 132.12V134.824H78.6519V136.04H79.9799V141.24C79.9799 142.392 80.4759 143.192 81.7079 143.192ZM90.016 143H91.328V137.576C91.328 135.064 89.696 134.632 88.416 134.632C87.184 134.632 86.112 135.064 85.456 135.496L85.856 136.664C86.464 136.232 87.328 135.848 88.24 135.848C89.296 135.848 90.016 136.248 90.016 137.688V138.264C89.344 137.88 88.624 137.736 87.904 137.736C86.32 137.736 84.848 138.552 84.848 140.44C84.848 142.264 86.032 143.192 87.696 143.192C88.672 143.192 89.472 142.76 90.016 142.248V143ZM87.904 141.96C86.784 141.96 86.16 141.352 86.16 140.44C86.16 139.4 87.04 138.936 88.096 138.936C88.768 138.936 89.52 139.176 90.016 139.48V140.888C89.552 141.432 88.816 141.96 87.904 141.96ZM93.8299 143H95.2219V131.448L93.8299 132.104V143ZM98.0174 143H99.4094V131.448L98.0174 132.104V143ZM105.277 143.192C106.381 143.192 107.309 142.744 107.917 142.136L107.069 141.192C106.557 141.704 105.933 141.928 105.309 141.928C104.077 141.928 103.181 140.952 103.069 139.448H108.605C108.637 139.128 108.653 138.776 108.653 138.52C108.653 135.832 107.117 134.632 105.277 134.632C103.101 134.632 101.645 136.2 101.645 138.904C101.645 141.4 103.037 143.192 105.277 143.192ZM103.053 138.264C103.133 136.584 104.093 135.864 105.277 135.864C106.141 135.864 107.229 136.408 107.245 138.264H103.053ZM113.63 143.192C114.606 143.192 115.23 142.84 115.694 142.36V143H117.086V131.448L115.694 132.104V135.4C115.23 134.984 114.59 134.632 113.63 134.632C111.598 134.632 110.254 136.216 110.254 138.904C110.254 141.544 111.55 143.192 113.63 143.192ZM113.822 141.896C112.478 141.896 111.662 140.6 111.662 138.904C111.662 136.984 112.446 135.912 113.822 135.912C114.766 135.912 115.39 136.472 115.694 136.952V140.792C115.278 141.496 114.59 141.896 113.822 141.896ZM130.14 143H131.564L127.596 131.8H126.3L122.332 143H123.788L124.732 140.264H129.18L130.14 143ZM128.748 139.032H125.148L126.604 134.888C126.716 134.568 126.876 134.04 126.956 133.752C127.02 134.04 127.196 134.568 127.308 134.888L128.748 139.032ZM137.191 143.192C139.175 143.192 140.567 141.624 140.567 138.904C140.567 136.28 139.271 134.632 137.191 134.632C136.167 134.632 135.575 135.032 135.095 135.512V134.824H133.703V146.232L135.095 145.576V142.232C135.527 142.744 136.135 143.192 137.191 143.192ZM137.015 141.896C136.183 141.896 135.559 141.4 135.095 140.792V137.016C135.495 136.312 136.183 135.912 137.015 135.912C138.359 135.912 139.143 137.128 139.143 138.904C139.143 140.84 138.375 141.896 137.015 141.896ZM146.222 143.192C148.206 143.192 149.598 141.624 149.598 138.904C149.598 136.28 148.302 134.632 146.222 134.632C145.198 134.632 144.606 135.032 144.126 135.512V134.824H142.734V146.232L144.126 145.576V142.232C144.558 142.744 145.166 143.192 146.222 143.192ZM146.046 141.896C145.214 141.896 144.59 141.4 144.126 140.792V137.016C144.526 136.312 145.214 135.912 146.046 135.912C147.39 135.912 148.174 137.128 148.174 138.904C148.174 140.84 147.406 141.896 146.046 141.896ZM154.182 143.192C155.958 143.192 157.094 142.344 157.094 140.872C157.094 139.32 155.926 138.68 154.438 138.152C153.526 137.784 152.71 137.48 152.71 136.792C152.71 136.216 153.238 135.88 154.07 135.88C154.95 135.88 155.526 136.296 155.878 136.664L156.838 135.864C156.246 135.16 155.334 134.632 154.086 134.632C152.518 134.632 151.334 135.448 151.334 136.792C151.334 138.136 152.358 138.792 153.862 139.352C154.822 139.72 155.734 140.088 155.734 140.904C155.734 141.624 155.078 141.944 154.214 141.944C153.334 141.944 152.63 141.416 152.214 140.968L151.222 141.816C151.862 142.632 152.982 143.192 154.182 143.192Z" fill="#26324E"/>
<path d="M181 166V168H36C34.8954 168 34 167.105 34 166H181Z" fill="#08BEE5"/>
</g>
<defs>
<filter id="filter0_d" x="0" y="0" width="252" height="252" filterUnits="userSpaceOnUse" color-interpolation-filters="sRGB">
<feFlood flood-opacity="0" result="BackgroundImageFix"/>
<feColorMatrix in="SourceAlpha" type="matrix" values="0 0 0 0 0 0 0 0 0 0 0 0 0 0 0 0 0 0 127 0"/>
<feOffset dy="1"/>
<feGaussianBlur stdDeviation="1.5"/>
<feColorMatrix type="matrix" values="0 0 0 0 0 0 0 0 0 0 0 0 0 0 0 0 0 0 0.1 0"/>
<feBlend mode="normal" in2="BackgroundImageFix" result="effect1_dropShadow"/>
<feBlend mode="normal" in="SourceGraphic" in2="effect1_dropShadow" result="shape"/>
</filter>
</defs>
</svg>
