<svg width="252" height="252" viewBox="0 0 252 252" fill="none" xmlns="http://www.w3.org/2000/svg">
<g filter="url(#filter0_d)">
<rect x="3" y="2" width="246" height="246" rx="3" fill="white"/>
<rect x="3.5" y="2.5" width="245" height="245" rx="2.5" stroke="#DFE3E8" stroke-opacity="0.75"/>
</g>
<path d="M31.623 37.9697H27.4395V36.5811H37.3535V37.9697H33.1699V49H31.623V37.9697ZM41.0801 49.1494C40.2422 49.1494 39.4951 48.9473 38.8389 48.543C38.1826 48.1328 37.6699 47.582 37.3008 46.8906C36.9375 46.1934 36.7559 45.4258 36.7559 44.5879C36.7559 43.7559 36.9375 42.9971 37.3008 42.3115C37.6699 41.6201 38.1826 41.0752 38.8389 40.6768C39.4951 40.2725 40.2422 40.0703 41.0801 40.0703C41.918 40.0703 42.665 40.2725 43.3213 40.6768C43.9834 41.0752 44.499 41.6201 44.8682 42.3115C45.2373 43.0029 45.4219 43.7617 45.4219 44.5879C45.4219 45.4258 45.2373 46.1934 44.8682 46.8906C44.499 47.582 43.9834 48.1328 43.3213 48.543C42.665 48.9473 41.918 49.1494 41.0801 49.1494ZM41.0801 47.8574C41.666 47.8574 42.1699 47.7109 42.5918 47.418C43.0137 47.125 43.333 46.7324 43.5498 46.2402C43.7666 45.7422 43.875 45.1914 43.875 44.5879C43.875 43.9902 43.7666 43.4482 43.5498 42.9619C43.333 42.4697 43.0137 42.0801 42.5918 41.793C42.1699 41.5059 41.666 41.3623 41.0801 41.3623C40.5 41.3623 39.999 41.5059 39.5771 41.793C39.1611 42.0742 38.8447 42.4609 38.6279 42.9531C38.4111 43.4395 38.3027 43.9844 38.3027 44.5879C38.3027 45.1914 38.4111 45.7422 38.6279 46.2402C38.8447 46.7383 39.1611 47.1338 39.5771 47.4268C39.999 47.7139 40.5 47.8574 41.0801 47.8574ZM51.1348 49.1494C50.2969 49.1494 49.5498 48.9473 48.8936 48.543C48.2373 48.1328 47.7246 47.582 47.3555 46.8906C46.9922 46.1934 46.8105 45.4258 46.8105 44.5879C46.8105 43.7559 46.9922 42.9971 47.3555 42.3115C47.7246 41.6201 48.2373 41.0752 48.8936 40.6768C49.5498 40.2725 50.2969 40.0703 51.1348 40.0703C51.9727 40.0703 52.7197 40.2725 53.376 40.6768C54.0381 41.0752 54.5537 41.6201 54.9229 42.3115C55.292 43.0029 55.4766 43.7617 55.4766 44.5879C55.4766 45.4258 55.292 46.1934 54.9229 46.8906C54.5537 47.582 54.0381 48.1328 53.376 48.543C52.7197 48.9473 51.9727 49.1494 51.1348 49.1494ZM51.1348 47.8574C51.7207 47.8574 52.2246 47.7109 52.6465 47.418C53.0684 47.125 53.3877 46.7324 53.6045 46.2402C53.8213 45.7422 53.9297 45.1914 53.9297 44.5879C53.9297 43.9902 53.8213 43.4482 53.6045 42.9619C53.3877 42.4697 53.0684 42.0801 52.6465 41.793C52.2246 41.5059 51.7207 41.3623 51.1348 41.3623C50.5547 41.3623 50.0537 41.5059 49.6318 41.793C49.2158 42.0742 48.8994 42.4609 48.6826 42.9531C48.4658 43.4395 48.3574 43.9844 48.3574 44.5879C48.3574 45.1914 48.4658 45.7422 48.6826 46.2402C48.8994 46.7383 49.2158 47.1338 49.6318 47.4268C50.0537 47.7139 50.5547 47.8574 51.1348 47.8574ZM59.2998 49.1494C58.7139 49.1494 58.2832 48.9912 58.0078 48.6748C57.7383 48.3525 57.6035 47.8545 57.6035 47.1807V36.5811H59.0977V46.7852C59.0977 47.1133 59.1592 47.3652 59.2822 47.541C59.4053 47.7168 59.6338 47.8047 59.9678 47.8047C60.1494 47.8047 60.375 47.7812 60.6445 47.7344L60.6533 48.9912C60.167 49.0967 59.7158 49.1494 59.2998 49.1494ZM65.373 49.1494C64.5703 49.1494 63.9521 48.9238 63.5186 48.4727C63.085 48.0156 62.8682 47.374 62.8682 46.5479V41.4766H61.418V40.2197H62.8857V37.7939L64.3535 36.7217V40.2197H66.7266V41.4766H64.3535V46.3018C64.3535 46.8408 64.459 47.2305 64.6699 47.4707C64.8867 47.7109 65.2061 47.8311 65.6279 47.8311C65.8154 47.8311 66.0059 47.8076 66.1992 47.7607C66.3984 47.708 66.5713 47.6494 66.7178 47.585L66.7266 48.9385C66.5742 48.9971 66.375 49.0469 66.1289 49.0879C65.8828 49.1289 65.6309 49.1494 65.373 49.1494ZM68.8887 36.5811H70.4443V38.4443H68.8887V36.5811ZM68.9238 40.2197H70.4092V49H68.9238V40.2197ZM73.3711 40.2197H74.9092V41.8018C75.1904 41.2568 75.5918 40.832 76.1133 40.5273C76.6406 40.2227 77.2178 40.0703 77.8447 40.0703C78.6123 40.0703 79.2773 40.2754 79.8398 40.6855C80.4023 41.0898 80.8301 41.6377 81.123 42.3291C81.4219 43.0146 81.5713 43.7764 81.5713 44.6143C81.5713 45.4521 81.4219 46.2168 81.123 46.9082C80.8301 47.5938 80.3994 48.1387 79.8311 48.543C79.2686 48.9473 78.5977 49.1494 77.8184 49.1494C77.1914 49.1494 76.6201 49 76.1045 48.7012C75.5889 48.3965 75.1904 47.9688 74.9092 47.418V52.6387H73.3711V40.2197ZM77.4844 47.7959C78.041 47.7959 78.5127 47.6582 78.8994 47.3828C79.292 47.1016 79.585 46.7207 79.7783 46.2402C79.9775 45.7598 80.0771 45.2178 80.0771 44.6143C80.0771 44.0107 79.9775 43.4717 79.7783 42.9971C79.585 42.5166 79.292 42.1387 78.8994 41.8633C78.5127 41.5879 78.041 41.4502 77.4844 41.4502C76.9277 41.4502 76.4443 41.5879 76.0342 41.8633C75.624 42.1328 75.3105 42.5078 75.0938 42.9883C74.8828 43.4629 74.7773 44.0049 74.7773 44.6143C74.7773 45.2178 74.8857 45.7627 75.1025 46.249C75.3193 46.7295 75.6299 47.1074 76.0342 47.3828C76.4443 47.6582 76.9277 47.7959 77.4844 47.7959ZM86.4492 49.1494C85.8691 49.1494 85.333 49.0469 84.8408 48.8418C84.3486 48.6367 83.9297 48.3555 83.584 47.998C83.2383 47.6348 82.9922 47.2305 82.8457 46.7852L84.0498 46.2578C84.2197 46.7266 84.501 47.1191 84.8936 47.4355C85.2861 47.7461 85.7812 47.9014 86.3789 47.9014C86.7715 47.9014 87.1055 47.8398 87.3809 47.7168C87.6562 47.5879 87.8613 47.415 87.9961 47.1982C88.1367 46.9814 88.207 46.7412 88.207 46.4775C88.207 46.1846 88.1162 45.9502 87.9346 45.7744C87.7588 45.5928 87.5361 45.4521 87.2666 45.3525C86.9971 45.2529 86.625 45.1445 86.1504 45.0273C85.5469 44.875 85.0576 44.7256 84.6826 44.5791C84.3135 44.4268 83.9971 44.1924 83.7334 43.876C83.4697 43.5537 83.3379 43.123 83.3379 42.584C83.3379 42.0508 83.4756 41.5967 83.751 41.2217C84.0264 40.8408 84.3984 40.5537 84.8672 40.3604C85.3359 40.167 85.8574 40.0703 86.4316 40.0703C87.1348 40.0703 87.7559 40.2314 88.2949 40.5537C88.8398 40.876 89.2734 41.333 89.5957 41.9248L88.4443 42.5488C88.2334 42.1621 87.9551 41.8516 87.6094 41.6172C87.2695 41.377 86.8594 41.2568 86.3789 41.2568C85.8867 41.2568 85.4941 41.3623 85.2012 41.5732C84.9082 41.7842 84.7617 42.0566 84.7617 42.3906C84.7617 42.6484 84.8467 42.8594 85.0166 43.0234C85.1865 43.1816 85.4004 43.3105 85.6582 43.4102C85.916 43.5039 86.2676 43.6094 86.7129 43.7266C87.3398 43.8965 87.8496 44.0664 88.2422 44.2363C88.6348 44.4004 88.9717 44.6582 89.2529 45.0098C89.5342 45.3555 89.6748 45.8213 89.6748 46.4072C89.6748 46.999 89.5283 47.5029 89.2354 47.9189C88.9424 48.3291 88.5498 48.6367 88.0576 48.8418C87.5713 49.0469 87.0352 49.1494 86.4492 49.1494Z" fill="#30404F"/>
<path d="M67 110C67 107.791 68.7909 106 71 106H199C201.209 106 203 107.791 203 110V129.667V173C203 175.209 201.209 177 199 177H71C68.7909 177 67 175.209 67 173V110Z" fill="#F5F5FE"/>
<mask id="mask0" mask-type="alpha" maskUnits="userSpaceOnUse" x="67" y="106" width="12" height="70">
<rect x="67" y="106" width="12" height="70" rx="4" fill="#F7FDFF"/>
</mask>
<g mask="url(#mask0)">
<rect x="67" y="105" width="2" height="152" fill="#7C80F2"/>
</g>
<g filter="url(#filter1_d)">
<circle cx="49.5" cy="115.5" r="9.5" fill="#7C80F2"/>
</g>
<path fill-rule="evenodd" clip-rule="evenodd" d="M50.174 120.887H48.8263V119.541H50.174V120.887ZM50.4098 116.613L50.2919 116.714C50.2244 116.765 50.174 116.883 50.174 116.984V118.211H48.8263V116.984C48.8263 116.462 49.0621 115.974 49.4498 115.654L49.5677 115.553C50.7467 114.611 51.3192 114.123 51.3192 113.282C51.3211 112.8 51.1301 112.337 50.7886 111.996C50.447 111.654 49.9832 111.464 49.5002 111.466C48.4558 111.466 47.6812 112.239 47.6812 113.282H46.3335C46.3335 111.516 47.7316 110.12 49.5002 110.12C50.3403 110.119 51.1464 110.452 51.7405 111.045C52.3345 111.638 52.6678 112.443 52.6668 113.282C52.6668 114.813 51.6225 115.654 50.4098 116.613Z" fill="white"/>
<rect x="83" y="121" width="106" height="6" fill="url(#paint0_linear)" fill-opacity="0.9"/>
<rect x="83" y="133" width="106" height="6" fill="url(#paint1_linear)" fill-opacity="0.9"/>
<rect x="83" y="145" width="106" height="6" fill="url(#paint2_linear)" fill-opacity="0.9"/>
<rect x="83" y="157" width="106" height="6" fill="url(#paint3_linear)" fill-opacity="0.9"/>
<defs>
<filter id="filter0_d" x="0" y="0" width="252" height="252" filterUnits="userSpaceOnUse" color-interpolation-filters="sRGB">
<feFlood flood-opacity="0" result="BackgroundImageFix"/>
<feColorMatrix in="SourceAlpha" type="matrix" values="0 0 0 0 0 0 0 0 0 0 0 0 0 0 0 0 0 0 127 0"/>
<feOffset dy="1"/>
<feGaussianBlur stdDeviation="1.5"/>
<feColorMatrix type="matrix" values="0 0 0 0 0 0 0 0 0 0 0 0 0 0 0 0 0 0 0.1 0"/>
<feBlend mode="normal" in2="BackgroundImageFix" result="effect1_dropShadow"/>
<feBlend mode="normal" in="SourceGraphic" in2="effect1_dropShadow" result="shape"/>
</filter>
<filter id="filter1_d" x="39" y="106" width="21" height="21" filterUnits="userSpaceOnUse" color-interpolation-filters="sRGB">
<feFlood flood-opacity="0" result="BackgroundImageFix"/>
<feColorMatrix in="SourceAlpha" type="matrix" values="0 0 0 0 0 0 0 0 0 0 0 0 0 0 0 0 0 0 127 0"/>
<feOffset dy="1"/>
<feGaussianBlur stdDeviation="0.5"/>
<feColorMatrix type="matrix" values="0 0 0 0 0 0 0 0 0 0 0 0 0 0 0 0 0 0 0.15 0"/>
<feBlend mode="normal" in2="BackgroundImageFix" result="effect1_dropShadow"/>
<feBlend mode="normal" in="SourceGraphic" in2="effect1_dropShadow" result="shape"/>
</filter>
<linearGradient id="paint0_linear" x1="86.878" y1="124" x2="182.537" y2="124" gradientUnits="userSpaceOnUse">
<stop stop-color="white"/>
<stop offset="1" stop-color="white" stop-opacity="0.71"/>
</linearGradient>
<linearGradient id="paint1_linear" x1="86.878" y1="136" x2="182.537" y2="136" gradientUnits="userSpaceOnUse">
<stop stop-color="white"/>
<stop offset="1" stop-color="white" stop-opacity="0.71"/>
</linearGradient>
<linearGradient id="paint2_linear" x1="86.878" y1="148" x2="182.537" y2="148" gradientUnits="userSpaceOnUse">
<stop stop-color="white"/>
<stop offset="1" stop-color="white" stop-opacity="0.71"/>
</linearGradient>
<linearGradient id="paint3_linear" x1="86.878" y1="160" x2="182.537" y2="160" gradientUnits="userSpaceOnUse">
<stop stop-color="white"/>
<stop offset="1" stop-color="white" stop-opacity="0.71"/>
</linearGradient>
</defs>
</svg>
