<svg width="24" height="24" viewBox="0 0 24 24" fill="none" xmlns="http://www.w3.org/2000/svg">
<rect width="24" height="24" fill="white"/>
<path d="M17.6568 6.34316C16.1458 4.83216 14.1369 4 12 4C9.86312 4 7.85416 4.83219 6.34316 6.34316C4.83216 7.85413 4 9.86312 4 12C4 14.1369 4.83216 16.1458 6.34316 17.6568C7.85413 19.1678 9.86312 20 12 20C14.1369 20 16.1458 19.1678 17.6568 17.6568C19.1678 16.1458 20 14.1369 20 12C20 9.86312 19.1678 7.85413 17.6568 6.34316ZM12 18.7074C8.30156 18.7074 5.29262 15.6984 5.29262 12C5.29262 8.30156 8.30156 5.29262 12 5.29262C15.6984 5.29262 18.7074 8.30156 18.7074 12C18.7074 15.6984 15.6984 18.7074 12 18.7074Z" fill="#212B36"/>
<path d="M14.6631 13.7493L12.6463 11.7325V7.58796C12.6463 7.23103 12.357 6.94165 12 6.94165C11.6431 6.94165 11.3537 7.23103 11.3537 7.58796V12.0002C11.3537 12.1716 11.4218 12.336 11.543 12.4572L13.7491 14.6633C13.8753 14.7895 14.0407 14.8526 14.2061 14.8526C14.3715 14.8526 14.5369 14.7895 14.6632 14.6633C14.9155 14.4109 14.9155 14.0017 14.6631 13.7493Z" fill="#212B36"/>
</svg>
