<svg width="24" height="24" viewBox="0 0 24 24" fill="none" xmlns="http://www.w3.org/2000/svg">
<rect width="24" height="24" fill="white"/>
<path d="M6.34316 17.6568C7.85416 19.1678 9.86312 20 12 20C14.1369 20 16.1458 19.1678 17.6568 17.6568C19.1678 16.1459 20 14.1369 20 12C20 9.86312 19.1678 7.85416 17.6568 6.34316C16.1459 4.83216 14.1369 4 12 4C9.86312 4 7.85416 4.83216 6.34316 6.34316C4.83216 7.85416 4 9.86312 4 12C4 14.1369 4.83216 16.1459 6.34316 17.6568ZM12 5.29263C15.6984 5.29263 18.7074 8.30156 18.7074 12C18.7074 15.6984 15.6984 18.7074 12 18.7074C8.30156 18.7074 5.29263 15.6984 5.29263 12C5.29263 8.30156 8.30156 5.29263 12 5.29263Z" fill="#212B36"/>
<path d="M12 12.6462C12.357 12.6462 12.6464 12.3569 12.6464 11.9999V9.05846C12.6464 8.70149 12.357 8.41215 12 8.41215C11.6431 8.41215 11.3537 8.70149 11.3537 9.05846V11.9999C11.3537 12.3569 11.6431 12.6462 12 12.6462Z" fill="#212B36"/>
<path d="M11.543 15.3986C11.6634 15.519 11.83 15.5879 12 15.5879C12.1701 15.5879 12.3367 15.519 12.4571 15.3986C12.5774 15.2782 12.6464 15.1116 12.6464 14.9415C12.6464 14.7715 12.5774 14.6049 12.4571 14.4845C12.3367 14.3642 12.1701 14.2952 12 14.2952C11.83 14.2952 11.6634 14.3641 11.543 14.4845C11.4226 14.6049 11.3537 14.7715 11.3537 14.9415C11.3537 15.1116 11.4227 15.2782 11.543 15.3986Z" fill="#212B36"/>
</svg>
