<svg width="24" height="24" viewBox="0 0 24 24" fill="none" xmlns="http://www.w3.org/2000/svg">
<rect width="24" height="24" fill="white"/>
<path d="M18.3773 5H16.9602C16.226 5 15.6288 5.59726 15.6288 6.33135V17.6686C15.6288 18.4027 16.2261 19 16.9602 19H18.3773C19.1115 19 19.7087 18.4027 19.7087 17.6686V6.33135C19.7087 5.59726 19.1114 5 18.3773 5ZM18.4632 17.6686C18.4632 17.7159 18.4246 17.7544 18.3773 17.7544H16.9602C16.9128 17.7544 16.8744 17.7159 16.8744 17.6686V6.33135C16.8744 6.28405 16.9129 6.24554 16.9602 6.24554H18.3773C18.4246 6.24554 18.4632 6.28405 18.4632 6.33135V17.6686Z" fill="#212B36"/>
<path d="M12.7089 8.54297H11.2917C10.5576 8.54297 9.96033 9.14023 9.96033 9.87432V17.6687C9.96033 18.4028 10.5576 19.0001 11.2917 19.0001H12.7089C13.4429 19.0001 14.0402 18.4028 14.0402 17.6687V9.87432C14.0402 9.1402 13.4429 8.54297 12.7089 8.54297ZM12.7947 17.6687C12.7947 17.716 12.7562 17.7545 12.7089 17.7545H11.2917C11.2444 17.7545 11.2059 17.716 11.2059 17.6687V9.87429C11.2059 9.82699 11.2444 9.78847 11.2917 9.78847H12.7089C12.7562 9.78847 12.7947 9.82699 12.7947 9.87429V17.6687Z" fill="#212B36"/>
<path d="M7.04003 12.0857H5.62286C4.88877 12.0857 4.2915 12.683 4.2915 13.4171V17.6686C4.2915 18.4027 4.88877 18.9999 5.62286 18.9999H7.04003C7.77412 18.9999 8.37138 18.4027 8.37138 17.6686V13.4171C8.37138 12.6829 7.77412 12.0857 7.04003 12.0857ZM7.12582 17.6685C7.12582 17.7159 7.0873 17.7543 7.04 17.7543H5.62286C5.57555 17.7543 5.53704 17.7158 5.53704 17.6685V13.4171C5.53704 13.3697 5.57555 13.3312 5.62286 13.3312H7.04003C7.08733 13.3312 7.12585 13.3697 7.12585 13.4171V17.6685H7.12582Z" fill="#212B36"/>
</svg>
