<svg width="24" height="24" viewBox="0 0 24 24" fill="none" xmlns="http://www.w3.org/2000/svg">
<rect width="24" height="24" fill="white"/>
<path d="M18.6533 10.3562C18.2964 10.3562 18.007 10.6456 18.007 11.0025V11.6535C18.006 13.3515 17.3439 14.9476 16.1425 16.1476C14.9419 17.3467 13.3466 18.007 11.6499 18.007C11.6487 18.007 11.6474 18.007 11.6462 18.007C8.14081 18.005 5.29062 15.1516 5.29262 11.6461C5.29359 9.94812 5.95578 8.35206 7.15722 7.152C8.35775 5.95287 9.95309 5.29262 11.6497 5.29262C11.651 5.29262 11.6522 5.29262 11.6535 5.29262C12.5495 5.29312 13.4188 5.47831 14.2372 5.84297C14.5634 5.98828 14.9453 5.84169 15.0906 5.51565C15.2359 5.18962 15.0894 4.80756 14.7633 4.66225C13.7785 4.22341 12.7324 4.00059 11.6542 4C11.6526 4 11.6513 4 11.6497 4C9.60818 4 7.68825 4.79462 6.24369 6.2375C4.798 7.6815 4.00119 9.60209 4 11.6455C3.99885 13.6888 4.79341 15.6103 6.23747 17.056C7.68153 18.5016 9.60209 19.2985 11.6454 19.2996C11.647 19.2996 11.6483 19.2996 11.6499 19.2996C13.6915 19.2996 15.6114 18.505 17.056 17.0621C18.5016 15.6181 19.2985 13.6975 19.2996 11.6538V11.0025C19.2996 10.6456 19.0103 10.3562 18.6533 10.3562Z" fill="#212B36" stroke="#212B36" stroke-width="0.1"/>
<path d="M19.8107 4.89363C19.5583 4.64125 19.149 4.64125 18.8966 4.89363L11.6498 12.1404L10.0058 10.4964C9.75339 10.244 9.34414 10.244 9.09177 10.4964C8.83936 10.7488 8.83936 11.158 9.09177 11.4104L11.1928 13.5115C11.319 13.6377 11.4845 13.7008 11.6499 13.7008C11.8153 13.7008 11.9807 13.6377 12.1069 13.5115L19.8107 5.80766C20.0631 5.55525 20.0631 5.14603 19.8107 4.89363Z" fill="#212B36" stroke="#212B36" stroke-width="0.1"/>
</svg>
