<svg width="24" height="24" viewBox="0 0 24 24" fill="none" xmlns="http://www.w3.org/2000/svg">
<rect width="24" height="24" fill="white"/>
<path d="M17.1372 7.60076C16.8848 7.34832 16.4756 7.34823 16.2232 7.6006C15.9707 7.85297 15.9706 8.26219 16.223 8.51462C17.3506 9.64258 17.9714 11.1421 17.9711 12.737C17.9709 14.3319 17.3496 15.8312 16.2216 16.9589C15.0575 18.1226 13.5291 18.7043 12.0002 18.7042C10.471 18.7041 8.94138 18.1219 7.77739 16.9575C5.45047 14.6298 5.45047 10.8423 7.77739 8.51462C8.02976 8.26219 8.02967 7.85297 7.77723 7.6006C7.5248 7.34823 7.11555 7.34832 6.86321 7.60076C5.49178 8.97256 4.73657 10.7963 4.73657 12.7361C4.73657 14.6758 5.49185 16.4995 6.86321 17.8714C8.23488 19.2435 10.0588 19.9993 11.999 19.9996C11.9995 19.9996 11.9997 19.9996 12.0002 19.9996C13.9399 19.9996 15.7637 19.2444 17.1355 17.873C18.5077 16.5013 19.2635 14.6774 19.2638 12.7372C19.2641 10.797 18.5089 8.9729 17.1372 7.60076Z" fill="#212B36" stroke="#212B36" stroke-width="0.1"/>
<path d="M12.0036 4C11.6467 4 11.3573 4.28937 11.3573 4.64631V11.9988C11.3573 12.3558 11.6467 12.6451 12.0036 12.6451C12.3606 12.6451 12.6499 12.3558 12.6499 11.9988V4.64631C12.6499 4.28937 12.3606 4 12.0036 4Z" fill="#212B36" stroke="#212B36" stroke-width="0.1"/>
</svg>
