<svg width="24" height="24" viewBox="0 0 24 24" fill="none" xmlns="http://www.w3.org/2000/svg">
<rect width="24" height="24" fill="white"/>
<path d="M18.3399 9.33687L13.1923 4.18931C13.0711 4.06809 12.9068 4 12.7353 4H7.58773C6.42039 4 5.4707 4.94972 5.4707 6.11706V17.8829C5.4707 19.0503 6.42042 20 7.58776 20H16.4122C17.5795 20 18.5292 19.0503 18.5292 17.8829V9.79387C18.5292 9.62249 18.4611 9.45809 18.3399 9.33687ZM17.2366 17.8829C17.2366 18.3375 16.8667 18.7073 16.4122 18.7073H7.58773C7.13314 18.7073 6.76333 18.3375 6.76333 17.8829V6.11706C6.76333 5.66247 7.13317 5.29265 7.58773 5.29265H12.4676L17.2365 10.0616V17.8829H17.2366Z" fill="#212B36"/>
<path d="M17.883 9.14756H13.3817V4.64631C13.3817 4.28937 13.0924 4 12.7354 4C12.3785 4 12.0891 4.28937 12.0891 4.64631V9.79387C12.0891 10.1508 12.3785 10.4402 12.7354 10.4402H17.883C18.2399 10.4402 18.5293 10.1508 18.5293 9.79387C18.5293 9.43693 18.2399 9.14756 17.883 9.14756Z" fill="#212B36"/>
</svg>
