<svg width="24" height="24" viewBox="0 0 24 24" fill="none" xmlns="http://www.w3.org/2000/svg">
<rect width="24" height="24" fill="white"/>
<path d="M17.7195 4H6.28047C5.02303 4 4 5.02303 4 6.28047V17.7195C4 18.977 5.02303 20 6.28047 20H17.7195C18.977 20 20 18.977 20 17.7195V6.28047C20 5.02303 18.977 4 17.7195 4ZM18.7074 17.7195C18.7074 18.2642 18.2642 18.7074 17.7195 18.7074H6.28047C5.73578 18.7074 5.29262 18.2642 5.29262 17.7195V6.28047C5.29262 5.73578 5.73578 5.29262 6.28047 5.29262H17.7195C18.2642 5.29262 18.7074 5.73578 18.7074 6.28047V17.7195Z" fill="#212B36"/>
<path d="M12.0001 8.08545C11.6431 8.08545 11.3538 8.37482 11.3538 8.73176V15.2683C11.3538 15.6253 11.6431 15.9147 12.0001 15.9147C12.357 15.9147 12.6464 15.6253 12.6464 15.2683V8.73176C12.6464 8.37482 12.357 8.08545 12.0001 8.08545Z" fill="#212B36"/>
<path d="M15.2682 11.3538H8.73164C8.3747 11.3538 8.08533 11.6431 8.08533 12.0001C8.08533 12.357 8.3747 12.6464 8.73164 12.6464H15.2682C15.6252 12.6464 15.9145 12.357 15.9145 12.0001C15.9145 11.6431 15.6252 11.3538 15.2682 11.3538Z" fill="#212B36"/>
</svg>
