<svg width="24" height="24" viewBox="0 0 24 24" fill="none" xmlns="http://www.w3.org/2000/svg">
<rect width="24" height="24" fill="white"/>
<path d="M17.6568 6.34316C16.1458 4.83216 14.1369 4 12 4C9.86312 4 7.85416 4.83219 6.34316 6.34316C4.83216 7.85413 4 9.86312 4 12C4 14.1369 4.83216 16.1458 6.34316 17.6568C7.85413 19.1678 9.86312 20 12 20C14.1369 20 16.1458 19.1678 17.6568 17.6568C19.1678 16.1458 20 14.1369 20 12C20 9.86312 19.1678 7.85413 17.6568 6.34316ZM12 18.7074C8.30156 18.7074 5.29262 15.6984 5.29262 12C5.29262 8.30156 8.30156 5.29262 12 5.29262C15.6984 5.29262 18.7074 8.30156 18.7074 12C18.7074 15.6984 15.6984 18.7074 12 18.7074Z" fill="#212B36"/>
<path d="M19.3538 11.3537H12.6464V4.64631C12.6464 4.28937 12.357 4 12.0001 4C11.6431 4 11.3538 4.28937 11.3538 4.64631V12C11.3538 12.357 11.6431 12.6463 12.0001 12.6463H19.3538C19.7107 12.6463 20.0001 12.357 20.0001 12C20.0001 11.6431 19.7107 11.3537 19.3538 11.3537Z" fill="#212B36"/>
</svg>
