<svg width="24" height="24" viewBox="0 0 24 24" fill="none" xmlns="http://www.w3.org/2000/svg">
<rect width="24" height="24" fill="white"/>
<path d="M16.9025 13.8049H15.0975V10.1951H16.9025C18.6104 10.1951 20 8.8055 20 7.09753C20 5.38956 18.6104 4 16.9025 4C15.1945 4 13.8049 5.38956 13.8049 7.09753V8.90244H10.1951V7.09753C10.1951 5.38956 8.8055 4 7.09753 4C5.38956 4 4 5.38953 4 7.09753C4 8.80553 5.38956 10.1951 7.09753 10.1951H8.90244V13.8049H7.09753C5.38956 13.8049 4 15.1945 4 16.9025C4 18.6104 5.38959 20 7.09756 20C8.80553 20 10.1951 18.6104 10.1951 16.9025V15.0975H13.8049V16.9025C13.8049 18.6104 15.1944 20 16.9024 20C18.6104 20 20 18.6104 20 16.9025C20 15.1945 18.6104 13.8049 16.9025 13.8049ZM15.0975 7.09753C15.0975 6.10231 15.9072 5.29262 16.9025 5.29262C17.8977 5.29262 18.7074 6.10231 18.7074 7.09756C18.7074 8.09278 17.8977 8.90247 16.9025 8.90247H15.0975V7.09753ZM8.90244 16.9025C8.90244 17.8977 8.09275 18.7074 7.09753 18.7074C6.10231 18.7074 5.29262 17.8977 5.29262 16.9025C5.29262 15.9072 6.10231 15.0975 7.09753 15.0975H8.90244V16.9025ZM8.90244 8.90244H7.09753C6.10231 8.90244 5.29262 8.09275 5.29262 7.09753C5.29262 6.10231 6.10231 5.29262 7.09753 5.29262C8.09275 5.29262 8.90247 6.10231 8.90244 7.09753V8.90244ZM13.8049 13.8049H10.1951V10.1951H13.8049V13.8049H13.8049ZM16.9025 18.7074C15.9072 18.7074 15.0975 17.8977 15.0975 16.9025V15.0975H16.9025C17.8977 15.0975 18.7074 15.9072 18.7074 16.9025C18.7074 17.8977 17.8977 18.7074 16.9025 18.7074Z" fill="#212B36"/>
</svg>
