<svg width="24" height="24" viewBox="0 0 24 24" fill="none" xmlns="http://www.w3.org/2000/svg">
<rect width="24" height="24" fill="white"/>
<path d="M18.5723 4.88018C18.3133 4.76792 18.0153 4.82997 17.8171 5.03735C17.8112 5.04348 17.1096 5.64996 15.1536 5.64996C14.1044 5.64996 13.2072 5.27441 12.2573 4.87681C11.2274 4.44577 10.1625 4 8.84648 4C6.26869 4 5.30444 4.93122 5.20296 5.03735C5.07304 5.17334 5 5.35778 5 5.55008V15.4499C5 15.7514 5.1636 16.0376 5.43299 16.1444C5.69894 16.2497 5.98475 16.1901 6.17555 15.9711C6.25787 15.9029 6.98365 15.35 8.84645 15.35C9.89559 15.35 10.7928 15.7256 11.7426 16.1231C12.7725 16.5542 13.8375 17 15.1535 17C17.7313 17 18.6956 16.0688 18.797 15.9626C18.927 15.8267 19 15.6422 19 15.4499V5.55008C19 5.25681 18.8311 4.9924 18.5723 4.88018ZM17.6141 15.0658C17.2774 15.2511 16.5226 15.5498 15.1536 15.5498C14.1044 15.5498 13.2072 15.1743 12.2573 14.7767C11.2274 14.3456 10.1625 13.8998 8.84648 13.8998C7.75693 13.8998 6.95557 14.0662 6.38585 14.2663V5.93425C6.72256 5.74882 7.47748 5.45019 8.84648 5.45019C9.89563 5.45019 10.7928 5.82574 11.7426 6.22334C12.7726 6.65438 13.8375 7.10019 15.1536 7.10019C16.2431 7.10019 17.0444 6.93383 17.6141 6.73372V15.0658Z" fill="#212B36"/>
<path d="M5.69291 14.0955C5.31024 14.0955 5 14.4057 5 14.7884V20.307C5 20.6898 5.31024 21 5.69291 21C6.07558 21 6.38582 20.6898 6.38582 20.307V14.7884C6.38582 14.4057 6.07558 14.0955 5.69291 14.0955Z" fill="#212B36"/>
</svg>
