<svg width="24" height="24" viewBox="0 0 24 24" fill="none" xmlns="http://www.w3.org/2000/svg">
<rect width="24" height="24" fill="white"/>
<path d="M17.6568 6.34316C16.1458 4.83216 14.1369 4 12 4C9.86312 4 7.85416 4.83219 6.34316 6.34316C4.83216 7.85413 4 9.86312 4 12C4 14.1369 4.83216 16.1458 6.34316 17.6568C7.85413 19.1678 9.86312 20 12 20C14.1369 20 16.1458 19.1678 17.6568 17.6568C19.1678 16.1458 20 14.1369 20 12C20 9.86312 19.1678 7.85413 17.6568 6.34316ZM12 18.7074C8.30156 18.7074 5.29262 15.6984 5.29262 12C5.29262 8.30156 8.30156 5.29262 12 5.29262C15.6984 5.29262 18.7074 8.30156 18.7074 12C18.7074 15.6984 15.6984 18.7074 12 18.7074Z" fill="#212B36"/>
<path d="M12 11.3538C11.643 11.3538 11.3536 11.6431 11.3536 12.0001V14.9415C11.3536 15.2985 11.643 15.5879 12 15.5879C12.3569 15.5879 12.6463 15.2985 12.6463 14.9415V12.0001C12.6463 11.6431 12.3569 11.3538 12 11.3538Z" fill="#212B36"/>
<path d="M12.457 8.60142C12.3366 8.48105 12.17 8.41211 12 8.41211C11.8299 8.41211 11.6633 8.48105 11.5429 8.60142C11.4226 8.72177 11.3536 8.88839 11.3536 9.05845C11.3536 9.22852 11.4226 9.39511 11.5429 9.51548C11.6633 9.63583 11.8299 9.7048 12 9.7048C12.17 9.7048 12.3366 9.63586 12.457 9.51548C12.5774 9.39511 12.6463 9.22852 12.6463 9.05845C12.6463 8.88839 12.5773 8.7218 12.457 8.60142Z" fill="#212B36"/>
</svg>
