<svg width="24" height="24" viewBox="0 0 24 24" fill="none" xmlns="http://www.w3.org/2000/svg">
<rect width="24" height="24" fill="white"/>
<path d="M17.6685 10.4805H6.33151C5.04592 10.4805 4 11.5264 4 12.812V18.4804C4 19.766 5.04592 20.812 6.33151 20.812H17.6685C18.9541 20.812 20 19.7661 20 18.4804V12.812C20 11.5264 18.9541 10.4805 17.6685 10.4805ZM18.5762 18.4805C18.5762 18.981 18.169 19.3882 17.6685 19.3882H6.33151C5.831 19.3882 5.42383 18.981 5.42383 18.4805V12.812C5.42383 12.3115 5.83103 11.9043 6.33151 11.9043V11.9043H17.6685C18.169 11.9043 18.5762 12.3115 18.5762 12.812V18.4805H18.5762Z" fill="#212B36"/>
<path d="M12 3C9.61622 3 7.67688 4.93937 7.67688 7.32315V10.2646C7.67688 10.6215 7.96625 10.9109 8.32319 10.9109C8.68013 10.9109 8.9695 10.6215 8.9695 10.2646V7.32315C8.9695 5.65212 10.329 4.29262 12 4.29262C13.6711 4.29262 15.0306 5.65209 15.0306 7.32315V10.2646C15.0306 10.6215 15.3199 10.9109 15.6769 10.9109C16.0338 10.9109 16.3232 10.6215 16.3232 10.2646V7.32315C16.3232 4.93937 14.3838 3 12 3Z" fill="#212B36"/>
</svg>
