<svg width="24" height="24" viewBox="0 0 24 24" fill="none" xmlns="http://www.w3.org/2000/svg">
<rect width="24" height="24" fill="white"/>
<path d="M20.807 16.4878C20.8051 16.4844 20.8031 16.481 20.801 16.4776L14.0047 5.13167C14.004 5.13049 14.0033 5.12935 14.0026 5.12817C13.6782 4.59339 13.165 4.21691 12.5575 4.06816C11.9499 3.9193 11.3209 4.01611 10.786 4.3405C10.4653 4.53511 10.1929 4.80748 9.99837 5.12821C9.99769 5.12935 9.99698 5.13049 9.99631 5.13167L3.19995 16.4776C3.19791 16.481 3.19592 16.4844 3.19396 16.4878C2.88118 17.0294 2.79806 17.6605 2.95992 18.2646C3.12178 18.8688 3.50916 19.3738 4.05086 19.6866C4.39859 19.8873 4.7946 19.9958 5.19606 20.0002C5.19877 20.0003 5.20148 20.0003 5.20418 20.0003H18.7969C18.7996 20.0003 18.8023 20.0003 18.805 20.0003C20.096 19.9861 21.1349 18.9242 21.1207 17.633C21.1162 17.2315 21.0078 16.8355 20.807 16.4878ZM18.7922 18.5266H5.20885C5.06117 18.5244 4.91567 18.4843 4.78772 18.4104C4.58696 18.2945 4.44338 18.1073 4.38338 17.8833C4.32381 17.661 4.35373 17.4289 4.46764 17.2291L11.2593 5.89098C11.3313 5.77273 11.432 5.67229 11.5504 5.60046C11.7486 5.48025 11.9818 5.44438 12.207 5.49953C12.4316 5.55454 12.6214 5.69349 12.7417 5.89094L19.5333 17.229C19.6061 17.3568 19.6455 17.502 19.6471 17.6492C19.6524 18.1266 19.2691 18.5195 18.7922 18.5266Z" fill="#212B36"/>
<path d="M12.0005 8.89771C11.5936 8.89771 11.2637 9.22762 11.2637 9.63453V12.8441C11.2637 13.2511 11.5936 13.5809 12.0005 13.5809C12.4075 13.5809 12.7373 13.2511 12.7373 12.8441V9.63453C12.7374 9.22762 12.4075 8.89771 12.0005 8.89771Z" fill="#212B36"/>
<path d="M12.5214 15.5327C12.3845 15.3955 12.1946 15.3169 12.0004 15.3169C11.8065 15.3169 11.6166 15.3955 11.4794 15.5327C11.3425 15.6699 11.2635 15.8598 11.2635 16.0537C11.2635 16.248 11.3425 16.4376 11.4794 16.5748C11.6166 16.712 11.8065 16.7906 12.0004 16.7906C12.1946 16.7906 12.3842 16.712 12.5214 16.5748C12.6586 16.4376 12.7372 16.248 12.7372 16.0537C12.7372 15.8598 12.6586 15.6699 12.5214 15.5327Z" fill="#212B36"/>
</svg>
