<svg width="24" height="24" viewBox="0 0 24 24" fill="none" xmlns="http://www.w3.org/2000/svg">
<rect width="24" height="24" fill="white"/>
<path d="M19.8107 8.49856L15.5014 4.18931C15.3802 4.06809 15.2158 4 15.0444 4H8.95556C8.78416 4 8.61975 4.06809 8.49853 4.18931L4.18931 8.49856C4.06809 8.61978 4 8.78419 4 8.95556V15.0444C4 15.2159 4.06809 15.3802 4.18931 15.5015L8.49856 19.8107C8.61978 19.9319 8.78419 20 8.95559 20H15.0444C15.2159 20 15.3802 19.9319 15.5015 19.8107L19.8107 15.5014C19.9319 15.3802 20 15.2158 20 15.0444V8.95556C20 8.78416 19.9319 8.61975 19.8107 8.49856ZM18.7074 14.7767L14.7767 18.7074H9.22331L5.29262 14.7767V9.22331L9.22331 5.29262H14.7767L18.7074 9.22328V14.7767Z" fill="#212B36"/>
<path d="M12.0002 8.41235C11.6433 8.41235 11.3539 8.70173 11.3539 9.05866V12.0001C11.3539 12.3571 11.6433 12.6464 12.0002 12.6464C12.3572 12.6464 12.6465 12.3571 12.6465 12.0001V9.05866C12.6465 8.70173 12.3572 8.41235 12.0002 8.41235Z" fill="#212B36"/>
<path d="M12.457 14.4845C12.3366 14.3641 12.17 14.2952 12 14.2952C11.8299 14.2952 11.6633 14.3641 11.5429 14.4845C11.4226 14.6049 11.3536 14.7714 11.3536 14.9415C11.3536 15.1116 11.4226 15.2782 11.5429 15.3985C11.6633 15.5189 11.8296 15.5879 12 15.5879C12.1703 15.5879 12.3366 15.5189 12.457 15.3985C12.5774 15.2782 12.6463 15.1116 12.6463 14.9415C12.6463 14.7714 12.5773 14.6048 12.457 14.4845Z" fill="#212B36"/>
</svg>
