<svg width="24" height="24" viewBox="0 0 24 24" fill="none" xmlns="http://www.w3.org/2000/svg">
<rect width="24" height="24" fill="white"/>
<path d="M12 9.38745C10.6865 9.38745 9.61792 10.456 9.61792 11.7695C9.61792 13.083 10.6865 14.1515 12 14.1515C13.3134 14.1515 14.382 13.083 14.382 11.7695C14.382 10.456 13.3134 9.38745 12 9.38745ZM12 12.6973C11.4884 12.6973 11.0722 12.2811 11.0722 11.7695C11.0722 11.2579 11.4884 10.8417 12 10.8417C12.5116 10.8417 12.9278 11.2579 12.9278 11.7695C12.9278 12.2811 12.5116 12.6973 12 12.6973Z" fill="#212B36"/>
<path d="M16.0223 7.74664C15.7381 7.46282 15.2778 7.46306 14.994 7.7472C14.7102 8.03133 14.7105 8.4917 14.9946 8.77548C16.6478 10.4269 16.6493 13.1153 14.9982 14.7682L14.9943 14.7721C14.7104 15.056 14.7104 15.5164 14.9943 15.8004C15.1363 15.9424 15.3224 16.0134 15.5085 16.0134C15.6946 16.0134 15.8807 15.9424 16.0227 15.8004L16.0269 15.7962C18.2448 13.5757 18.2428 9.96468 16.0223 7.74664Z" fill="#212B36"/>
<path d="M9.00533 14.7637C8.2045 13.9638 7.76312 12.8999 7.76248 11.7679C7.76185 10.636 8.20204 9.57158 9.00199 8.77075C9.00291 8.7698 9.00463 8.76808 9.00558 8.76713C9.28953 8.48318 9.28953 8.0228 9.00558 7.73885C8.72165 7.45489 8.26125 7.45489 7.97732 7.73885L7.97314 7.74307C5.75509 9.96357 5.7571 13.5745 7.97761 15.7926C8.11957 15.9344 8.30547 16.0053 8.49145 16.0053C8.67764 16.0053 8.8639 15.9342 9.00589 15.7921C9.28975 15.5079 9.28946 15.0475 9.00533 14.7637Z" fill="#212B36"/>
<path d="M18.3644 5.40541C18.0805 5.12145 17.6201 5.12135 17.3361 5.40527C17.0521 5.68919 17.052 6.14956 17.3359 6.43355C20.2774 9.37589 20.2774 14.1634 17.3359 17.1058C17.052 17.3898 17.0521 17.8501 17.3361 18.134C17.4781 18.276 17.6641 18.3469 17.8502 18.3469C18.0363 18.3469 18.2224 18.2759 18.3644 18.1339C20.064 16.4338 21 14.1736 21 11.7697C21 9.36573 20.064 7.10553 18.3644 5.40541Z" fill="#212B36"/>
<path d="M6.66402 6.43358C6.94794 6.14955 6.94787 5.68918 6.66388 5.40529C6.37985 5.12134 5.91948 5.12144 5.6356 5.40543C3.936 7.10552 3 9.36572 3 11.7697C3 14.1736 3.936 16.4338 5.6356 18.1339C5.77756 18.276 5.96367 18.347 6.14979 18.347C6.33584 18.347 6.52192 18.2759 6.66388 18.134C6.94787 17.8502 6.94794 17.3898 6.66402 17.1058C3.7226 14.1634 3.7226 9.37591 6.66402 6.43358Z" fill="#212B36"/>
<rect width="24" height="24" fill="white"/>
<path fill-rule="evenodd" clip-rule="evenodd" d="M12 3.00024C12.1979 2.9947 12.3897 3.08579 12.5025 3.24837L17.9041 11.0332C17.9924 11.1606 18.0214 11.317 17.9841 11.4654C17.9468 11.6137 17.8465 11.7408 17.707 11.8165L12.3055 14.7473C12.211 14.7985 12.1051 14.8227 12 14.8197C11.8948 14.8227 11.789 14.7985 11.6945 14.7473L6.293 11.8165C6.15354 11.7408 6.05325 11.6137 6.01592 11.4654C5.9786 11.317 6.00756 11.1606 6.09594 11.0332L11.4975 3.24837C11.6103 3.08579 11.8021 2.9947 12 3.00024ZM11.4015 5.39354L8.06714 10.1992L11.4015 8.9742V5.39354ZM11.4015 10.1583L7.93086 11.4333L11.4015 13.3164V10.1583ZM12.5985 13.3164L16.0691 11.4333L12.5985 10.1583V13.3164ZM12.5985 8.9742L15.9329 10.1992L12.5985 5.39354V8.9742ZM6.1545 12.8643C6.34179 12.6719 6.64567 12.631 6.88185 12.7664L12 15.7016L16.3125 13.3164C16.5487 13.181 16.208 15.8259 17 14.5C16.293 15.6836 17.4419 14.5342 17.2812 14.7473L12.5706 20.6167C12.5143 20.783 12.3767 20.918 12.1949 20.9735C12.1307 20.9931 12.0649 21.0016 12.0001 20.9998C11.9353 21.0016 11.8694 20.9931 11.8051 20.9735C11.6233 20.918 11.4856 20.783 11.4294 20.6167L6.10872 13.5606C5.94808 13.3476 5.9672 13.0567 6.1545 12.8643ZM12.5985 18.6831L15.3018 15.0981L12.5985 16.6484V18.6831ZM11.4015 16.6484V18.6831L8.69824 15.0981L11.4015 16.6484Z" fill="#212B36"/>
<path d="M9.5918 15.2887C9.46942 15.4023 9.39992 15.5617 9.4 15.7287C9.40008 15.8957 9.46973 16.055 9.59222 16.1685L10.4357 16.95C10.6658 17.1632 11.0213 17.1632 11.2514 16.9498C12.1131 16.1509 13.2642 15.7053 14.5 15.7053C15.736 15.7053 16.8873 16.1503 17.7489 16.948C17.979 17.161 18.3343 17.1609 18.5643 16.9478L19.4078 16.1664C19.5304 16.0528 19.6 15.8932 19.6 15.7261C19.6 15.559 19.5303 15.3995 19.4076 15.286C18.09 14.066 16.3443 13.4 14.5 13.4C12.6541 13.4 10.9081 14.0667 9.5918 15.2887ZM11.4205 16.9807C11.2979 17.0943 11.2283 17.2538 11.2283 17.4208C11.2283 17.5879 11.2979 17.7474 11.4205 17.861L12.264 18.6424C12.4939 18.8555 12.8491 18.8556 13.0792 18.6428C13.4536 18.2964 13.9558 18.1 14.5 18.1C15.0466 18.1 15.5484 18.2962 15.9205 18.641C16.1506 18.8542 16.506 18.8542 16.7361 18.641L17.5795 17.8595C17.7021 17.746 17.7717 17.5865 17.7717 17.4194C17.7717 17.2523 17.7021 17.0928 17.5795 16.9793C16.751 16.2117 15.6545 15.7947 14.5 15.7947C13.3451 15.7947 12.2502 16.2119 11.4205 16.9807ZM12.707 19.8947C12.707 20.8786 13.554 21.6 14.5 21.6C15.4481 21.6 16.2929 20.8781 16.2929 19.8947C16.2929 18.9104 15.4478 18.1895 14.5 18.1895C13.5542 18.1895 12.707 18.9099 12.707 19.8947Z" fill="#212B36" stroke="white" stroke-width="1.2" stroke-linejoin="round"/>
</svg>
