<svg width="24" height="24" viewBox="0 0 24 24" fill="none" xmlns="http://www.w3.org/2000/svg">
<rect width="24" height="24" fill="white"/>
<path d="M17.6685 10.4805H6.33151C5.04592 10.4805 4 11.5264 4 12.812V18.4804C4 19.766 5.04592 20.812 6.33151 20.812H17.6685C18.9541 20.812 20 19.7661 20 18.4804V12.812C20 11.5264 18.9541 10.4805 17.6685 10.4805ZM18.5762 18.4805C18.5762 18.981 18.169 19.3882 17.6685 19.3882H6.33151C5.831 19.3882 5.42383 18.981 5.42383 18.4805V12.812C5.42383 12.3115 5.83103 11.9043 6.33151 11.9043V11.9043H17.6685C18.169 11.9043 18.5762 12.3115 18.5762 12.812V18.4805H18.5762Z" fill="#212B36"/>
<path d="M16.6656 6.81344C16.4475 5.73947 15.8599 4.76625 15.011 4.07315C14.1633 3.38101 13.0942 3 11.9999 3C11.9984 3 11.9967 3 11.9952 3C10.7235 3.00131 9.52848 3.49769 8.63016 4.39781C7.73188 5.29792 7.23783 6.49398 7.23914 7.76488V11.004C7.23914 11.3972 7.55788 11.7159 7.95104 11.7159C8.34423 11.7159 8.66293 11.3972 8.66293 11.004V7.76419C8.66204 6.87285 9.00831 6.03449 9.63794 5.40359C10.2676 4.77269 11.1052 4.42469 11.9966 4.42383C11.9978 4.42383 11.9987 4.42383 11.9999 4.42383C13.5805 4.42383 14.9556 5.54754 15.2702 7.0968C15.3484 7.48207 15.7241 7.73121 16.1096 7.65277C16.4949 7.57453 16.7438 7.19875 16.6656 6.81344Z" fill="#212B36"/>
</svg>
