<svg width="24" height="24" viewBox="0 0 24 24" fill="none" xmlns="http://www.w3.org/2000/svg">
<rect width="24" height="24" fill="white"/>
<path d="M12.7356 4.7356H11.2649C10.5031 4.7356 9.88324 5.35543 9.88324 6.11726V17.8829C9.88324 18.6448 10.5031 19.2646 11.2649 19.2646H12.7356C13.4975 19.2646 14.1173 18.6448 14.1173 17.883V6.11726C14.1173 5.35543 13.4975 4.7356 12.7356 4.7356ZM12.8247 17.8829C12.8247 17.9321 12.7847 17.972 12.7356 17.972H11.2649C11.2158 17.972 11.1758 17.932 11.1758 17.8829V6.11726C11.1758 6.06817 11.2158 6.0282 11.2649 6.0282H12.7356C12.7848 6.0282 12.8247 6.06817 12.8247 6.11726V17.8829Z" fill="#212B36"/>
<path d="M18.6184 8.41235H17.1476C16.3858 8.41235 15.7659 9.03219 15.7659 9.79402V17.8829C15.7659 18.6448 16.3858 19.2646 17.1476 19.2646H18.6184C19.3802 19.2646 20 18.6448 20 17.8829V9.79402C20 9.03216 19.3802 8.41235 18.6184 8.41235ZM18.7074 17.8829C18.7074 17.932 18.6674 17.972 18.6184 17.972H17.1476C17.0985 17.972 17.0586 17.932 17.0586 17.8829V9.79399C17.0586 9.74489 17.0985 9.70493 17.1476 9.70493H18.6184C18.6674 9.70493 18.7074 9.74489 18.7074 9.79399V17.8829Z" fill="#212B36"/>
<path d="M6.85257 12.0891H5.38185C4.62002 12.0891 4.00018 12.7089 4.00018 13.4708V17.883C4.00018 18.6448 4.62002 19.2646 5.38185 19.2646H6.85257C7.6144 19.2646 8.23424 18.6448 8.23424 17.883V13.4708C8.23424 12.7089 7.6144 12.0891 6.85257 12.0891ZM6.9416 17.8829C6.9416 17.932 6.90163 17.972 6.85254 17.972H5.38185C5.33275 17.972 5.29279 17.932 5.29279 17.8829V13.4708C5.29279 13.4217 5.33275 13.3817 5.38185 13.3817H6.85257C6.90167 13.3817 6.94163 13.4217 6.94163 13.4708V17.8829H6.9416Z" fill="#212B36"/>
</svg>
