<svg width="24" height="24" viewBox="0 0 24 24" fill="none" xmlns="http://www.w3.org/2000/svg">
<rect width="24" height="24" fill="white"/>
<path d="M17.6568 6.34316C16.1458 4.83216 14.1369 4 12 4C9.86312 4 7.85416 4.83219 6.34316 6.34316C4.83216 7.85413 4 9.86312 4 12C4 14.1369 4.83216 16.1458 6.34316 17.6568C7.85413 19.1678 9.86312 20 12 20C14.1369 20 16.1458 19.1678 17.6568 17.6568C19.1678 16.1458 20 14.1369 20 12C20 9.86312 19.1678 7.85413 17.6568 6.34316ZM12 18.7074C8.30156 18.7074 5.29262 15.6984 5.29262 12C5.29262 8.30156 8.30156 5.29262 12 5.29262C15.6984 5.29262 18.7074 8.30156 18.7074 12C18.7074 15.6984 15.6984 18.7074 12 18.7074Z" fill="#212B36"/>
<path d="M17.6561 16.7419L7.258 6.34385C7.00559 6.09144 6.59634 6.09144 6.34397 6.34385C6.09156 6.59625 6.09156 7.00547 6.34397 7.25788L16.7421 17.656C16.8682 17.7822 17.0337 17.8453 17.1991 17.8453C17.3645 17.8453 17.5299 17.7822 17.6561 17.656C17.9085 17.4036 17.9085 16.9943 17.6561 16.7419Z" fill="#212B36"/>
</svg>
