<svg width="24" height="24" viewBox="0 0 24 24" fill="none" xmlns="http://www.w3.org/2000/svg">
<path d="M15.6441 14.6141C14.262 13.8443 12.4336 13.4204 10.4958 13.4204C8.55804 13.4204 6.72971 13.8444 5.34758 14.6141C3.83373 15.4572 3 16.627 3 17.9079V18.66C3 19.0616 3.32555 19.3871 3.7271 19.3871C4.12865 19.3871 4.4542 19.0616 4.4542 18.66V17.9079C4.4542 17.1886 5.03768 16.4511 6.05507 15.8846C7.22446 15.2333 8.8015 14.8746 10.4958 14.8746C12.1901 14.8746 13.7671 15.2333 14.9365 15.8846C15.9539 16.4511 16.5374 17.1887 16.5374 17.9079V18.66C16.5374 19.0616 16.8629 19.3871 17.2645 19.3871C17.6661 19.3871 17.9916 19.0616 17.9916 18.66V17.9079C17.9917 16.627 17.1579 15.4572 15.6441 14.6141Z" fill="#212B36"/>
<path d="M14.2232 7.55044C14.1048 6.75183 13.7404 6.02793 13.1695 5.45707C12.5986 4.88613 11.8748 4.52181 11.0761 4.40337C10.7126 4.34947 10.3439 4.34947 9.9803 4.40337C7.94287 4.70553 6.53107 6.60888 6.8332 8.64632C6.97956 9.63329 7.50152 10.5042 8.3029 11.0986C8.95347 11.5812 9.72493 11.8346 10.5203 11.8346C10.7047 11.8346 10.8904 11.8209 11.0761 11.7934C13.1136 11.4912 14.5253 9.58784 14.2232 7.55044ZM10.8628 10.3549C10.2601 10.4443 9.65859 10.2936 9.16918 9.93061C8.67978 9.56759 8.36105 9.03575 8.27168 8.433C8.08715 7.18875 8.94935 6.02635 10.1936 5.84185C10.3046 5.8254 10.4164 5.81717 10.5282 5.81717C10.64 5.81717 10.7518 5.8254 10.8628 5.84185C11.8639 5.99031 12.6362 6.76266 12.7847 7.76376C12.9692 9.00801 12.107 10.1704 10.8628 10.3549Z" fill="#212B36"/>
<path d="M18.0166 8.15579C17.6151 8.15579 17.2896 8.48134 17.2896 8.88289V13.3954C17.2896 13.7969 17.6151 14.1225 18.0166 14.1225C18.4182 14.1225 18.7437 13.7969 18.7437 13.3954V8.88293C18.7438 8.48137 18.4182 8.15579 18.0166 8.15579Z" fill="#212B36"/>
<path d="M20.2729 10.4122H15.7604C15.3588 10.4122 15.0333 10.7377 15.0333 11.1393C15.0333 11.5408 15.3588 11.8664 15.7604 11.8664H20.2729C20.6745 11.8664 21 11.5408 21 11.1393C21 10.7377 20.6745 10.4122 20.2729 10.4122Z" fill="#212B36"/>
</svg>
