<svg width="24" height="24" viewBox="0 0 24 24" fill="none" xmlns="http://www.w3.org/2000/svg">
<path fill-rule="evenodd" clip-rule="evenodd" d="M18.2212 15.1311C18.4949 15.4651 18.7106 15.7626 18.8685 16.0235C19.0263 16.2844 19.0421 16.5453 18.9158 16.8063C18.7895 17.0672 18.5843 17.2185 18.3002 17.2603C18.016 17.302 17.795 17.3229 17.6372 17.3229H14.6852C14.6852 18.0639 14.4221 18.6954 13.8959 19.2172C13.3697 19.7391 12.733 20 11.9858 20C11.2386 20 10.6019 19.7391 10.0757 19.2172C9.54955 18.6954 9.28646 18.0639 9.28646 17.3229H6.39765C6.1556 17.3229 5.90566 17.2942 5.64783 17.2368C5.38999 17.1794 5.20319 17.0359 5.08743 16.8063C4.96114 16.5453 4.97167 16.2766 5.119 16C5.26634 15.7234 5.46629 15.4181 5.71886 15.0841C6.00301 14.7189 6.31346 14.304 6.65023 13.8395C6.98699 13.3751 7.15537 12.8924 7.15537 12.3914V9.11937C7.15537 8.40965 7.27903 7.7443 7.52634 7.12329C7.77365 6.50228 8.11304 5.95956 8.54452 5.49511C8.97601 5.03066 9.48641 4.66536 10.0757 4.39922C10.6651 4.13307 11.2965 4 11.97 4C12.6541 4 13.2908 4.13307 13.8801 4.39922C14.4695 4.66536 14.9825 5.03066 15.4192 5.49511C15.856 5.95956 16.198 6.50228 16.4453 7.12329C16.6926 7.7443 16.8163 8.40965 16.8163 9.11937V12.3914C16.8163 12.9028 16.9768 13.3986 17.2978 13.8787C17.6187 14.3588 17.9266 14.7763 18.2212 15.1311ZM11.9842 18.9103C12.411 18.9103 12.7758 18.7601 13.0786 18.4599C13.3814 18.1596 13.5327 17.7978 13.5327 17.3745H10.4357C10.4357 17.7978 10.587 18.1596 10.8898 18.4599C11.1926 18.7601 11.5574 18.9103 11.9842 18.9103ZM17.5779 16.0895C17.5269 16.0185 17.4708 15.945 17.4095 15.8689C17.3483 15.7929 17.2871 15.7194 17.2259 15.6484C16.8892 15.2428 16.5398 14.7586 16.1776 14.1958C15.8154 13.633 15.6343 13.0119 15.6343 12.3325V9.15341C15.6343 8.60582 15.5399 8.09373 15.3511 7.61713C15.1624 7.14052 14.9048 6.72477 14.5783 6.36985C14.2518 6.01493 13.8666 5.73354 13.4228 5.52565C12.979 5.31777 12.4969 5.21383 11.9766 5.21383C11.4664 5.21383 10.9894 5.31777 10.5456 5.52565C10.1018 5.73354 9.71664 6.01493 9.39015 6.36985C9.06366 6.72477 8.8086 7.14052 8.62494 7.61713C8.44129 8.09373 8.34947 8.60582 8.34947 9.15341V12.3325C8.34947 12.9916 8.15817 13.5975 7.77556 14.1501C7.39296 14.7028 7.05372 15.1769 6.75783 15.5723C6.69662 15.6535 6.63285 15.7397 6.56653 15.8309C6.50021 15.9222 6.44155 16.0084 6.39053 16.0895H17.5779Z" fill="#212B36"/>
</svg>
