<svg width="24" height="24" viewBox="0 0 24 24" fill="none" xmlns="http://www.w3.org/2000/svg">
<path d="M18.0682 9.53407H5.69887C5.31291 9.53407 5 9.84698 5 10.2329C5 10.6189 5.31291 10.9318 5.69887 10.9318H18.0682C18.4541 10.9318 18.767 10.6189 18.767 10.2329C18.767 9.84698 18.4541 9.53407 18.0682 9.53407Z" fill="#212B36" stroke="#212B36" stroke-width="0.2"/>
<path d="M19.6022 6H3.69887C3.31291 6 3 6.31291 3 6.69887C3 7.08483 3.31291 7.39774 3.69887 7.39774H19.6022C19.9882 7.39774 20.3011 7.08483 20.3011 6.69887C20.3011 6.31291 19.9882 6 19.6022 6Z" fill="#212B36" stroke="#212B36" stroke-width="0.2"/>
<path d="M19.6022 13.0681H3.69887C3.31291 13.0681 3 13.381 3 13.767C3 14.153 3.31291 14.4659 3.69887 14.4659H19.6022C19.9882 14.4659 20.3011 14.153 20.3011 13.767C20.3011 13.381 19.9882 13.0681 19.6022 13.0681Z" fill="#212B36" stroke="#212B36" stroke-width="0.2"/>
<path d="M18.0682 16.6022H5.69887C5.31291 16.6022 5 16.9151 5 17.3011C5 17.6871 5.31291 18 5.69887 18H18.0682C18.4541 18 18.767 17.6871 18.767 17.3011C18.767 16.9151 18.4541 16.6022 18.0682 16.6022Z" fill="#212B36" stroke="#212B36" stroke-width="0.2"/>
</svg>
