<svg width="24" height="24" viewBox="0 0 24 24" fill="none" xmlns="http://www.w3.org/2000/svg">
<path d="M20.0682 9.53407H7.69887C7.31291 9.53407 7 9.84698 7 10.2329C7 10.6189 7.31291 10.9318 7.69887 10.9318H20.0682C20.4541 10.9318 20.767 10.6189 20.767 10.2329C20.767 9.84698 20.4541 9.53407 20.0682 9.53407Z" fill="#212B36" stroke="#212B36" stroke-width="0.2"/>
<path d="M19.9517 6H4.04833C3.66236 6 3.34946 6.31291 3.34946 6.69887C3.34946 7.08483 3.66236 7.39774 4.04833 7.39774H19.9517C20.3377 7.39774 20.6505 7.08483 20.6505 6.69887C20.6505 6.31291 20.3377 6 19.9517 6Z" fill="#212B36" stroke="#212B36" stroke-width="0.2"/>
<path d="M19.9517 13.0681H4.04833C3.66236 13.0681 3.34946 13.381 3.34946 13.767C3.34946 14.153 3.66236 14.4659 4.04833 14.4659H19.9517C20.3377 14.4659 20.6505 14.153 20.6505 13.767C20.6505 13.381 20.3377 13.0681 19.9517 13.0681Z" fill="#212B36" stroke="#212B36" stroke-width="0.2"/>
<path d="M20.0682 16.6022H7.69887C7.31291 16.6022 7 16.9151 7 17.3011C7 17.6871 7.31291 18 7.69887 18H20.0682C20.4541 18 20.767 17.6871 20.767 17.3011C20.767 16.9151 20.4541 16.6022 20.0682 16.6022Z" fill="#212B36" stroke="#212B36" stroke-width="0.2"/>
</svg>
