<svg width="24" height="24" viewBox="0 0 24 24" fill="none" xmlns="http://www.w3.org/2000/svg">
<path d="M20.2729 9.43446H3.7271C3.32555 9.43446 3 9.76001 3 10.1616C3 10.5631 3.32555 10.8887 3.7271 10.8887H20.2729C20.6745 10.8887 21 10.5631 21 10.1616C21 9.76001 20.6745 9.43446 20.2729 9.43446Z" fill="#212B36" stroke="#212B36" stroke-width="0.2"/>
<path d="M20.2729 5.75761H3.7271C3.32555 5.75761 3 6.08316 3 6.48472C3 6.88627 3.32555 7.21182 3.7271 7.21182H20.2729C20.6745 7.21182 21 6.88627 21 6.48472C21 6.08316 20.6745 5.75761 20.2729 5.75761Z" fill="#212B36" stroke="#212B36" stroke-width="0.2"/>
<path d="M20.2729 13.1113H3.7271C3.32555 13.1113 3 13.4368 3 13.8384C3 14.24 3.32555 14.5655 3.7271 14.5655H20.2729C20.6745 14.5655 21 14.24 21 13.8384C21 13.4368 20.6745 13.1113 20.2729 13.1113Z" fill="#212B36" stroke="#212B36" stroke-width="0.2"/>
<path d="M20.2729 16.7882H3.7271C3.32555 16.7882 3 17.1137 3 17.5153C3 17.9169 3.32555 18.2424 3.7271 18.2424H20.2729C20.6745 18.2424 21 17.9169 21 17.5153C21 17.1137 20.6745 16.7882 20.2729 16.7882Z" fill="#212B36" stroke="#212B36" stroke-width="0.2"/>
</svg>
