<svg width="24" height="24" viewBox="0 0 24 24" fill="none" xmlns="http://www.w3.org/2000/svg">
<path d="M16.4176 9.53407H4.04833C3.66236 9.53407 3.34946 9.84698 3.34946 10.2329C3.34946 10.6189 3.66236 10.9318 4.04833 10.9318H16.4176C16.8036 10.9318 17.1165 10.6189 17.1165 10.2329C17.1165 9.84698 16.8036 9.53407 16.4176 9.53407Z" fill="#212B36" stroke="#212B36" stroke-width="0.2"/>
<path d="M19.9517 6H4.04833C3.66236 6 3.34946 6.31291 3.34946 6.69887C3.34946 7.08483 3.66236 7.39774 4.04833 7.39774H19.9517C20.3377 7.39774 20.6505 7.08483 20.6505 6.69887C20.6505 6.31291 20.3377 6 19.9517 6Z" fill="#212B36" stroke="#212B36" stroke-width="0.2"/>
<path d="M19.9517 13.0681H4.04833C3.66236 13.0681 3.34946 13.381 3.34946 13.767C3.34946 14.153 3.66236 14.4659 4.04833 14.4659H19.9517C20.3377 14.4659 20.6505 14.153 20.6505 13.767C20.6505 13.381 20.3377 13.0681 19.9517 13.0681Z" fill="#212B36" stroke="#212B36" stroke-width="0.2"/>
<path d="M16.4176 16.6022H4.04833C3.66236 16.6022 3.34946 16.9151 3.34946 17.3011C3.34946 17.6871 3.66236 18 4.04833 18H16.4176C16.8036 18 17.1165 17.6871 17.1165 17.3011C17.1165 16.9151 16.8036 16.6022 16.4176 16.6022Z" fill="#212B36" stroke="#212B36" stroke-width="0.2"/>
</svg>
