<svg width="24" height="24" viewBox="0 0 24 24" fill="none" xmlns="http://www.w3.org/2000/svg">
<path fill-rule="evenodd" clip-rule="evenodd" d="M12.0006 4L12.2191 4.06814C12.8154 4.25411 17.2019 5.65974 20.6893 8.50112L21 8.75423L20.9234 9.13657C20.835 9.578 20.42 11.448 19.3294 13.5302L19.3292 13.5305C18.6006 14.9197 17.7124 16.1433 16.682 17.1565L16.6817 17.1567L16.6814 17.157C15.401 18.4133 13.9099 19.344 12.2388 19.9178L11.9996 20L11.7603 19.9178C10.0905 19.3445 8.5991 18.4195 7.31771 17.1623L7.31744 17.1621L7.31718 17.1618C6.28754 16.1494 5.39913 14.9314 4.67008 13.5414C3.57332 11.4528 3.16383 9.5819 3.07545 9.13501L3 8.75354L3.30982 8.50112C6.79712 5.65989 11.1776 4.25428 11.7819 4.06757L12.0006 4ZM4.54503 9.26754C4.71293 9.96953 5.11777 11.3922 5.93132 12.9415L5.93147 12.9418C6.60347 14.223 7.41161 15.3251 8.33027 16.2284C9.40531 17.283 10.6349 18.0641 11.9995 18.57C13.3633 18.0639 14.5933 17.2783 15.6694 16.2226M4.54503 9.26754C7.47636 6.99227 10.9901 5.74338 11.999 5.41359C13.0079 5.74451 16.5231 6.99305 19.4531 9.26679C19.2836 9.96734 18.876 11.3878 18.0677 12.9311C17.3953 14.2131 16.5872 15.32 15.6694 16.2226" fill="#212B36"/>
</svg>
