<svg width="24" height="24" viewBox="0 0 24 24" fill="none" xmlns="http://www.w3.org/2000/svg">
<path d="M12.5656 18.4345L12.5656 5.56553C12.5656 5.2532 12.3123 5 12 5C11.6877 5 11.4345 5.2532 11.4345 5.56553L11.4345 18.4345C11.4345 18.7469 11.6877 19.0001 12 19.0001C12.3123 19.0001 12.5656 18.7469 12.5656 18.4345Z" fill="#212B36" stroke="#212B36" stroke-width="0.2"/>
<path d="M12 6.36563L16.426 10.7916C16.6468 11.0124 17.0049 11.0124 17.2258 10.7916C17.4466 10.5707 17.4466 10.2127 17.2258 9.99181L12.3999 5.16595C12.179 4.94509 11.821 4.94509 11.6001 5.16595L6.77425 9.99181C6.66381 10.1022 6.60861 10.247 6.60861 10.3917C6.60861 10.5364 6.66381 10.6812 6.77425 10.7916C6.99511 11.0125 7.35318 11.0125 7.57404 10.7916L12 6.36563Z" fill="#212B36" stroke="#212B36" stroke-width="0.2"/>
</svg>
