<svg width="24" height="24" viewBox="0 0 24 24" fill="none" xmlns="http://www.w3.org/2000/svg">
<path d="M11.4344 5.56553L11.4344 18.4345C11.4344 18.7469 11.6877 19.0001 12 19.0001C12.3123 19.0001 12.5655 18.7469 12.5655 18.4345L12.5655 5.56553C12.5655 5.25318 12.3123 5 12 5C11.6877 5 11.4344 5.25318 11.4344 5.56553Z" fill="#212B36" stroke="#212B36" stroke-width="0.2"/>
<path d="M12 17.6344L7.57401 13.2085C7.35316 12.9876 6.99509 12.9876 6.77423 13.2085C6.5534 13.4293 6.5534 13.7874 6.77423 14.0082L11.6001 18.8341C11.821 19.055 12.179 19.055 12.3999 18.8341L17.2257 14.0082C17.3362 13.8978 17.3914 13.7531 17.3914 13.6083C17.3914 13.4636 17.3362 13.3189 17.2257 13.2084C17.0049 12.9876 16.6468 12.9876 16.426 13.2084L12 17.6344Z" fill="#212B36" stroke="#212B36" stroke-width="0.2"/>
</svg>
