<svg width="24" height="24" viewBox="0 0 24 24" fill="none" xmlns="http://www.w3.org/2000/svg">
<path d="M5.56553 12.5656L18.4345 12.5656C18.7468 12.5656 19 12.3123 19 12C19 11.6877 18.7468 11.4345 18.4345 11.4345L5.56553 11.4345C5.25318 11.4345 5 11.6877 5 12C5 12.3123 5.25318 12.5656 5.56553 12.5656Z" fill="#212B36" stroke="#212B36" stroke-width="0.2"/>
<path d="M17.6344 12L13.2084 16.426C12.9876 16.6468 12.9876 17.0049 13.2084 17.2258C13.4293 17.4466 13.7874 17.4466 14.0082 17.2258L18.8341 12.3999C19.0549 12.1791 19.0549 11.821 18.8341 11.6001L14.0082 6.7743C13.8978 6.66386 13.753 6.60865 13.6083 6.60865C13.4636 6.60865 13.3188 6.66386 13.2084 6.7743C12.9876 6.99516 12.9876 7.35322 13.2084 7.57408L17.6344 12Z" fill="#212B36" stroke="#212B36" stroke-width="0.2"/>
</svg>
