<svg width="24" height="24" viewBox="0 0 24 24" fill="none" xmlns="http://www.w3.org/2000/svg">
<path d="M18.4345 11.4345H5.56552C5.2532 11.4345 5 11.6877 5 12C5 12.3124 5.2532 12.5655 5.56552 12.5655H18.4345C18.7468 12.5655 19 12.3124 19 12C19 11.6877 18.7468 11.4345 18.4345 11.4345Z" fill="#212B36" stroke="#212B36" stroke-width="0.2"/>
<path d="M6.36566 12L10.7916 7.57407C11.0125 7.35322 11.0125 6.99515 10.7916 6.77429C10.5707 6.55347 10.2127 6.55347 9.99182 6.77429L5.16598 11.6001C4.94512 11.821 4.94512 12.1791 5.16598 12.3999L9.99182 17.2258C10.1022 17.3362 10.247 17.3914 10.3917 17.3914C10.5365 17.3914 10.6812 17.3362 10.7916 17.2258C11.0125 17.0049 11.0125 16.6468 10.7916 16.426L6.36566 12Z" fill="#212B36" stroke="#212B36" stroke-width="0.2"/>
</svg>
