<svg width="24" height="24" viewBox="0 0 24 24" fill="none" xmlns="http://www.w3.org/2000/svg">
<path d="M12 8.41165C10.0217 8.41165 8.41223 10.0211 8.41223 11.9994C8.41223 13.9777 10.0217 15.5872 12 15.5872C13.9783 15.5872 15.5878 13.9778 15.5878 11.9995C15.5878 10.0212 13.9783 8.41165 12 8.41165ZM12 14.2946C10.7345 14.2946 9.70486 13.265 9.70486 11.9994C9.70486 10.7339 10.7345 9.70428 12 9.70428C13.2656 9.70428 14.2952 10.7339 14.2952 11.9994C14.2952 13.265 13.2656 14.2946 12 14.2946Z" fill="#212B36"/>
<path d="M17.6565 6.34281C16.1455 4.83197 14.1367 4 12 4C11.9998 4 11.9996 4 11.9995 4C9.86259 4.00013 7.85369 4.83241 6.34281 6.3435C4.83188 7.85459 3.99984 9.86366 4 12.0005C4.00013 14.1374 4.83241 16.1463 6.3435 17.6572C7.8545 19.168 9.86328 20 12 20C12.0001 20 12.0004 20 12.0005 20C13.7488 19.9999 15.476 19.4144 16.864 18.3515C17.1474 18.1345 17.2013 17.7288 16.9842 17.4454C16.7672 17.162 16.3615 17.1081 16.0781 17.3252C14.9143 18.2164 13.4662 18.7072 12.0004 18.7073C12.0002 18.7073 12.0002 18.7073 12 18.7073C10.2086 18.7073 8.52422 18.0097 7.25744 16.7431C5.9905 15.4763 5.29272 13.792 5.29259 12.0004C5.29241 8.30197 8.30112 5.29287 11.9996 5.29262C11.9998 5.29262 11.9998 5.29262 12 5.29262C15.6981 5.29262 18.7071 8.30134 18.7074 11.9996V12.7349C18.7074 13.595 18.0077 14.2947 17.1476 14.2947C16.2875 14.2947 15.5878 13.595 15.5878 12.7349V11.9996C15.5878 11.6426 15.2985 11.3533 14.9415 11.3533C14.5845 11.3533 14.2952 11.6426 14.2952 11.9996V12.7349C14.2952 14.3078 15.5748 15.5874 17.1476 15.5874C18.7205 15.5874 20 14.3078 20 12.7349V11.9995C19.9998 9.86263 19.1676 7.85369 17.6565 6.34281Z" fill="#212B36"/>
</svg>
