<svg width="24" height="24" viewBox="0 0 24 24" fill="none" xmlns="http://www.w3.org/2000/svg">
<path d="M18.8066 6.58899L12.9597 3.66556C12.9592 3.66533 12.9587 3.66502 12.9582 3.66479C12.3582 3.3666 11.6417 3.36663 11.0403 3.66556L5.1949 6.58822C4.45821 6.95428 4.00032 7.69274 3.99985 8.51572V15.4713C3.99514 16.2947 4.44875 17.036 5.18607 17.4075L11.0327 20.3309C11.3344 20.4819 11.6654 20.5573 11.9963 20.5573C12.3272 20.5573 12.6581 20.4818 12.9596 20.331L18.805 17.4083C19.5417 17.0422 19.9996 16.3037 20 15.4808V8.51538C19.9996 7.69277 19.5417 6.95434 18.8066 6.58899ZM18.617 15.4805C18.6168 15.7747 18.453 16.0388 18.188 16.1705L12.341 19.0941C12.1252 19.2021 11.8674 19.2021 11.6514 19.094L5.80646 16.1715C5.54314 16.0388 5.38084 15.7732 5.38288 15.4783C5.38288 15.4767 5.38288 15.4751 5.38288 15.4735V8.51612C5.38304 8.22183 5.54685 7.95771 5.81188 7.82599L11.6572 4.90333C11.7645 4.85001 11.8823 4.82333 12 4.82333C12.1176 4.82333 12.2352 4.84994 12.3423 4.90316L18.1895 7.82673C18.4531 7.95767 18.6168 8.2218 18.617 8.51572V15.4805Z" fill="#212B36"/>
<path d="M19.6932 7.41772C19.5224 7.07614 19.107 6.9377 18.7654 7.1085L12 10.4912L5.23457 7.10846C4.89295 6.93767 4.47759 7.07614 4.30683 7.41769C4.136 7.75931 4.2745 8.17467 4.61605 8.34543L11.6907 11.8829C11.7881 11.9315 11.894 11.9558 12 11.9558C12.106 11.9558 12.2119 11.9315 12.3092 11.8828L19.3839 8.34546C19.7256 8.17467 19.864 7.75931 19.6932 7.41772Z" fill="#212B36"/>
<path d="M12.0001 10.5728C11.6182 10.5728 11.3086 10.8824 11.3086 11.2642V19.8591C11.3086 20.2411 11.6182 20.5506 12.0001 20.5506C12.382 20.5506 12.6916 20.241 12.6916 19.8591V11.2643C12.6916 10.8824 12.3819 10.5728 12.0001 10.5728Z" fill="#212B36"/>
</svg>
