<svg width="24" height="24" viewBox="0 0 24 24" fill="none" xmlns="http://www.w3.org/2000/svg">
<path d="M16.0853 4H7.91456C6.65709 4 5.63409 5.02303 5.63409 6.28047V19.3537C5.63409 19.5958 5.76941 19.8176 5.98469 19.9283C6.19997 20.0392 6.45913 20.0203 6.65609 19.8796L11.9999 16.0625L17.3438 19.8796C17.4556 19.9594 17.5872 19.9999 17.7195 19.9999C17.8206 19.9999 17.922 19.9763 18.0152 19.9283C18.2305 19.8175 18.3658 19.5957 18.3658 19.3536V6.28047C18.3658 5.02303 17.3428 4 16.0853 4ZM17.0731 18.0977L12.3756 14.7423C12.2632 14.6621 12.1316 14.622 11.9999 14.622C11.8683 14.622 11.7367 14.6621 11.6243 14.7424L6.92672 18.0978V6.28047C6.92672 5.73578 7.36988 5.29263 7.91456 5.29263H16.0853C16.63 5.29263 17.0731 5.73578 17.0731 6.28047V18.0977Z" fill="#212B36"/>
</svg>
