<svg width="24" height="24" viewBox="0 0 24 24" fill="none" xmlns="http://www.w3.org/2000/svg">
<path fill-rule="evenodd" clip-rule="evenodd" d="M4 6.19305C4 5.86319 4.26717 5.59578 4.59674 5.59578H19.4033C19.7328 5.59578 20 5.86319 20 6.19305V18.3544C20 18.6843 19.7328 18.9517 19.4033 18.9517H4.59674C4.26717 18.9517 4 18.6843 4 18.3544V6.19305ZM5.19348 6.79032V17.7572H18.8065V6.79032H5.19348Z" fill="#212B36"/>
<path fill-rule="evenodd" clip-rule="evenodd" d="M4 6.19305C4 5.86319 4.26717 5.59578 4.59674 5.59578H19.4033C19.7328 5.59578 20 5.86319 20 6.19305V9.91457C20 10.2444 19.7328 10.5118 19.4033 10.5118H4.59674C4.26717 10.5118 4 10.2444 4 9.91457V6.19305ZM5.19348 6.79032V9.3173H18.8065V6.79032H5.19348Z" fill="#212B36"/>
<path fill-rule="evenodd" clip-rule="evenodd" d="M7.78288 4C8.11245 4 8.37962 4.26741 8.37962 4.59727L8.37962 7.12425C8.37962 7.45411 8.11245 7.72152 7.78288 7.72152C7.45331 7.72152 7.18614 7.45411 7.18614 7.12425L7.18614 4.59727C7.18614 4.26741 7.45331 4 7.78288 4Z" fill="#212B36"/>
<path fill-rule="evenodd" clip-rule="evenodd" d="M16.2819 4C16.6115 4 16.8787 4.26741 16.8787 4.59727L16.8787 7.12425C16.8787 7.45411 16.6115 7.72152 16.2819 7.72152C15.9524 7.72152 15.6852 7.45411 15.6852 7.12425L15.6852 4.59727C15.6852 4.26741 15.9524 4 16.2819 4Z" fill="#212B36"/>
</svg>
