<svg width="24" height="24" viewBox="0 0 24 24" fill="none" xmlns="http://www.w3.org/2000/svg">
<g clip-path="url(#clip0)">
<path d="M17.0046 5H6.99541C5.89515 5 5 5.89515 5 6.99541V17.0046C5 18.1049 5.89515 19 6.99541 19H17.0046C18.1049 19 19 18.1049 19 17.0046V6.99541C19 5.89515 18.1049 5 17.0046 5ZM17.869 17.0046C17.869 17.4812 17.4812 17.869 17.0046 17.869H6.99541C6.51881 17.869 6.13105 17.4812 6.13105 17.0046V6.99541C6.13105 6.51881 6.51881 6.13105 6.99541 6.13105H17.0046C17.4812 6.13105 17.869 6.51881 17.869 6.99541V17.0046Z" fill="#212B36"/>
<path d="M18.4345 9.28967H5.56552C5.2532 9.28967 5 9.54288 5 9.8552C5 10.1675 5.2532 10.4207 5.56552 10.4207H18.4345C18.7468 10.4207 19 10.1675 19 9.8552C19 9.54288 18.7468 9.28967 18.4345 9.28967Z" fill="#212B36"/>
<path d="M9.85523 9.28967C9.54291 9.28967 9.2897 9.54288 9.2897 9.8552V18.4345C9.2897 18.7468 9.54291 19 9.85523 19C10.1675 19 10.4208 18.7468 10.4208 18.4345V9.8552C10.4208 9.54288 10.1675 9.28967 9.85523 9.28967Z" fill="#212B36"/>
</g>
<defs>
<clipPath id="clip0">
<rect width="14" height="14" fill="white" transform="translate(5 5)"/>
</clipPath>
</defs>
</svg>
