<svg width="24" height="24" viewBox="0 0 24 24" fill="none" xmlns="http://www.w3.org/2000/svg">
<path d="M19.999 11.1473C19.8961 9.28275 19.1123 7.52869 17.7918 6.20822C16.4714 4.88775 14.7173 4.10391 12.8527 4.00103C12.8408 4.00038 12.829 4.00006 12.8171 4.00006H12.4102C12.4038 4 12.3975 4 12.391 4C11.2229 4 10.0549 4.27816 9.01474 4.80353C7.75298 5.43412 6.69388 6.40156 5.95197 7.60125C5.21006 8.80094 4.81762 10.1806 4.81706 11.5897C4.81425 12.6729 5.05069 13.7563 5.50272 14.7406L4.03318 19.1493C3.95577 19.3815 4.01621 19.6376 4.18931 19.8107C4.31249 19.9339 4.47768 20 4.6464 20C4.71478 20 4.78375 19.9891 4.85069 19.9668L9.25936 18.4972C10.2379 18.9466 11.3142 19.1829 12.3896 19.1829C12.3959 19.1829 12.4024 19.1829 12.4087 19.1829C13.8193 19.1823 15.199 18.7899 16.3986 18.048C17.5984 17.3061 18.5658 16.247 19.1952 14.9877C19.7246 13.9396 20.0029 12.765 20 11.5909V11.1829C20 11.1711 19.9996 11.1592 19.999 11.1473ZM18.7074 11.5915C18.7074 11.592 18.7074 11.5926 18.7074 11.5932C18.7099 12.5651 18.4796 13.5374 18.0402 14.4074C16.9669 16.5548 14.8089 17.8894 12.4068 17.8903C12.4016 17.8903 12.3963 17.8903 12.391 17.8903C11.4244 17.8903 10.4579 17.6601 9.59505 17.2243C9.44127 17.1467 9.2628 17.1336 9.09927 17.1881L5.66825 18.3317L6.81191 14.9008C6.86641 14.7373 6.85335 14.5588 6.77566 14.4049C6.33744 13.5374 6.10716 12.5651 6.10969 11.5917C6.11063 9.19103 7.4452 7.03303 9.59502 5.95856C10.4579 5.52272 11.4242 5.29259 12.3926 5.29259C12.3978 5.29259 12.4032 5.29259 12.4085 5.29262H12.7988C15.9869 5.47728 18.5227 8.01309 18.7073 11.2012V11.5915H18.7074Z" fill="#212B36"/>
</svg>
