<svg width="24" height="24" viewBox="0 0 24 24" fill="none" xmlns="http://www.w3.org/2000/svg">
<path d="M16.0111 6.00552H7.98884C6.89525 6.00552 6.00549 6.89525 6.00549 7.98887V16.0111C6.00549 17.1047 6.89521 17.9945 7.98884 17.9945H16.0111C17.1047 17.9945 17.9944 17.1047 17.9944 16.0111V7.98887C17.9944 6.89528 17.1047 6.00552 16.0111 6.00552ZM16.7018 16.0111C16.7018 16.392 16.3919 16.7018 16.0111 16.7018H7.98884C7.608 16.7018 7.29815 16.3919 7.29815 16.0111V7.98884C7.29815 7.608 7.608 7.29815 7.98884 7.29815V7.29818H16.0111C16.392 7.29818 16.7018 7.60803 16.7018 7.98887V16.0111Z" fill="#212B36"/>
<path d="M14.0056 9.34811H9.99446C9.63752 9.34811 9.34814 9.63749 9.34814 9.99443V14.0055C9.34814 14.3625 9.63752 14.6519 9.99446 14.6519H14.0056C14.3625 14.6519 14.6519 14.3625 14.6519 14.0056V9.99446C14.6519 9.63752 14.3625 9.34811 14.0056 9.34811ZM13.3593 13.3592H10.6408V10.6407H13.3593V13.3592Z" fill="#212B36"/>
<path d="M9.99446 3.99997C9.63752 3.99997 9.34814 4.28935 9.34814 4.64628V6.65185C9.34814 7.00879 9.63752 7.29817 9.99446 7.29817C10.3514 7.29817 10.6408 7.00882 10.6408 6.65185V4.64628C10.6408 4.28935 10.3514 3.99997 9.99446 3.99997Z" fill="#212B36"/>
<path d="M14.0055 3.99997C13.6486 3.99997 13.3592 4.28935 13.3592 4.64628V6.65185C13.3592 7.00879 13.6486 7.29817 14.0055 7.29817C14.3625 7.29817 14.6519 7.00882 14.6519 6.65185V4.64628C14.6519 4.28935 14.3625 3.99997 14.0055 3.99997Z" fill="#212B36"/>
<path d="M9.99446 16.7018C9.63752 16.7018 9.34814 16.9912 9.34814 17.3482V19.3537C9.34814 19.7107 9.63752 20 9.99446 20C10.3514 20 10.6408 19.7107 10.6408 19.3537V17.3482C10.6408 16.9912 10.3514 16.7018 9.99446 16.7018Z" fill="#212B36"/>
<path d="M14.0055 16.7018C13.6486 16.7018 13.3592 16.9912 13.3592 17.3482V19.3537C13.3592 19.7107 13.6486 20 14.0055 20C14.3625 20 14.6519 19.7107 14.6519 19.3537V17.3482C14.6519 16.9912 14.3625 16.7018 14.0055 16.7018Z" fill="#212B36"/>
<path d="M19.3537 9.34811H17.3482C16.9912 9.34811 16.7018 9.63749 16.7018 9.99443C16.7018 10.3514 16.9912 10.6407 17.3482 10.6407H19.3537C19.7107 10.6407 20 10.3514 20 9.99443C20 9.63752 19.7107 9.34811 19.3537 9.34811Z" fill="#212B36"/>
<path d="M19.3537 12.6907H17.3482C16.9912 12.6907 16.7018 12.98 16.7018 13.337C16.7018 13.694 16.9912 13.9833 17.3482 13.9833H19.3537C19.7107 13.9833 20 13.694 20 13.337C20 12.9801 19.7107 12.6907 19.3537 12.6907Z" fill="#212B36"/>
<path d="M6.65185 9.34811H4.64628C4.28935 9.34811 3.99997 9.63752 3.99997 9.99446C3.99997 10.3514 4.28935 10.6408 4.64628 10.6408H6.65185C7.00882 10.6408 7.29817 10.3514 7.29817 9.99446C7.29817 9.63752 7.00879 9.34811 6.65185 9.34811Z" fill="#212B36"/>
<path d="M6.65185 12.6907H4.64628C4.28935 12.6907 3.99997 12.9801 3.99997 13.3371C3.99997 13.694 4.28935 13.9834 4.64628 13.9834H6.65185C7.00882 13.9834 7.29817 13.694 7.29817 13.3371C7.29817 12.9801 7.00879 12.6907 6.65185 12.6907Z" fill="#212B36"/>
</svg>
