<svg width="24" height="24" viewBox="0 0 24 24" fill="none" xmlns="http://www.w3.org/2000/svg">
<path d="M17.6568 6.34316C16.1458 4.83216 14.1369 4 12 4C9.86312 4 7.85416 4.83219 6.34316 6.34316C4.83216 7.85413 4 9.86312 4 12C4 14.1369 4.83216 16.1458 6.34316 17.6568C7.85413 19.1678 9.86312 20 12 20C14.1369 20 16.1458 19.1678 17.6568 17.6568C19.1678 16.1458 20 14.1369 20 12C20 9.86312 19.1678 7.85413 17.6568 6.34316ZM12 18.7074C8.30156 18.7074 5.29262 15.6984 5.29262 12C5.29262 8.30156 8.30156 5.29262 12 5.29262C15.6984 5.29262 18.7074 8.30156 18.7074 12C18.7074 15.6984 15.6984 18.7074 12 18.7074Z" fill="#212B36"/>
<path d="M12 8.41223C11.6431 8.41223 11.3537 8.70161 11.3537 9.05854V14.9415C11.3537 15.2985 11.6431 15.5878 12 15.5878C12.357 15.5878 12.6463 15.2985 12.6463 14.9415V9.05854C12.6463 8.70161 12.357 8.41223 12 8.41223Z" fill="#212B36"/>
<path d="M14.9415 11.3537H9.05854C8.70161 11.3537 8.41223 11.643 8.41223 12C8.41223 12.3569 8.70161 12.6463 9.05854 12.6463H14.9415C15.2985 12.6463 15.5878 12.3569 15.5878 12C15.5878 11.643 15.2985 11.3537 14.9415 11.3537Z" fill="#212B36"/>
</svg>
