<svg width="24" height="24" viewBox="0 0 24 24" fill="none" xmlns="http://www.w3.org/2000/svg">
<path d="M17.6568 6.34316C16.1458 4.83216 14.1369 4 12 4C9.86312 4 7.85416 4.83219 6.34316 6.34316C4.83216 7.85413 4 9.86312 4 12C4 14.1369 4.83216 16.1458 6.34316 17.6568C7.85413 19.1678 9.86312 20 12 20C14.1369 20 16.1458 19.1678 17.6568 17.6568C19.1678 16.1458 20 14.1369 20 12C20 9.86312 19.1678 7.85413 17.6568 6.34316ZM12 18.7074C8.30156 18.7074 5.29262 15.6984 5.29262 12C5.29262 8.30156 8.30156 5.29262 12 5.29262C15.6984 5.29262 18.7074 8.30156 18.7074 12C18.7074 15.6984 15.6984 18.7074 12 18.7074Z" fill="#212B36"/>
<path d="M14.6631 13.7492L12.6463 11.7324V7.58787C12.6463 7.23093 12.357 6.94156 12 6.94156C11.643 6.94156 11.3537 7.23093 11.3537 7.58787V12.0001C11.3537 12.1715 11.4218 12.3359 11.543 12.4571L13.7491 14.6632C13.8752 14.7894 14.0407 14.8525 14.2061 14.8525C14.3715 14.8525 14.5369 14.7894 14.6631 14.6632C14.9155 14.4108 14.9155 14.0016 14.6631 13.7492Z" fill="#212B36"/>
</svg>
