<svg width="24" height="24" viewBox="0 0 24 24" fill="none" xmlns="http://www.w3.org/2000/svg">
<path d="M15.2903 15.0335C15.0251 14.7684 14.5952 14.7684 14.33 15.0335L12.0028 17.3607L9.67561 15.0335C9.41044 14.7684 8.98049 14.7684 8.71535 15.0335C8.45019 15.2987 8.45019 15.7286 8.71535 15.9938L11.5227 18.8011C11.6553 18.9337 11.829 19 12.0028 19C12.1766 19 12.3504 18.9337 12.483 18.8011L15.2903 15.9938C15.5554 15.7286 15.5554 15.2987 15.2903 15.0335Z" fill="#212B36"/>
<path d="M12.0029 11.3254C11.6279 11.3254 11.3239 11.6294 11.3239 12.0044V18.321C11.3239 18.696 11.6279 19 12.0029 19C12.3779 19 12.6819 18.696 12.6819 18.321V12.0044C12.6819 11.6294 12.3779 11.3254 12.0029 11.3254Z" fill="#212B36"/>
<path d="M19.6425 10.999C18.8589 9.8848 17.5784 9.21992 16.217 9.21992C16.216 9.21992 16.2149 9.21992 16.2138 9.21992H15.8332C14.7696 6.16643 11.5143 4.38026 8.32666 5.19821C4.9652 6.06077 2.93221 9.49723 3.7947 12.8587C4.04149 13.8204 4.51969 14.7218 5.17768 15.4653C5.42621 15.7461 5.85534 15.7723 6.13616 15.5238C6.41695 15.2753 6.44315 14.8462 6.19466 14.5654C5.67864 13.9823 5.30364 13.2754 5.1101 12.5212C4.43369 9.88503 6.02803 7.19001 8.6642 6.5136C11.3004 5.83716 13.9953 7.43154 14.6718 10.0677C14.7488 10.3679 15.0195 10.5779 15.3295 10.5779H16.2143C16.2151 10.5779 16.2158 10.5779 16.2166 10.5779C17.1368 10.5779 18.0022 11.0272 18.5316 11.7801C19.4293 13.0567 19.121 14.8255 17.8445 15.7232C17.5377 15.9389 17.4639 16.3624 17.6796 16.6692C17.8119 16.8572 18.0221 16.9577 18.2357 16.9577C18.3706 16.9577 18.5069 16.9176 18.6257 16.8341C20.5147 15.5057 20.9708 12.8881 19.6425 10.999Z" fill="#212B36"/>
</svg>
