<svg width="24" height="24" viewBox="0 0 24 24" fill="none" xmlns="http://www.w3.org/2000/svg">
<path fill-rule="evenodd" clip-rule="evenodd" d="M16.0963 10.735C16.1702 10.3486 16.4848 10.1091 16.799 10.2C17.7442 10.4734 18.5189 10.9257 19.0706 11.4829C19.6114 12.029 19.9999 12.7461 19.9999 13.5403C19.9999 14.914 19.0336 15.9689 17.8996 16.6357C16.7136 17.3331 15.1124 17.7596 13.3672 17.7596C11.7538 17.7596 10.2667 17.3954 9.11663 16.7933C8.00378 16.2106 7.0609 15.3238 6.8017 14.1611C6.71637 13.7783 6.89952 13.383 7.21078 13.2781C7.52203 13.1731 7.84353 13.3983 7.92886 13.7811C8.04186 14.288 8.55293 14.9361 9.57447 15.4709C10.5588 15.9863 11.8866 16.3223 13.3672 16.3223C14.9718 16.3223 16.3948 15.9275 17.3955 15.339C18.4482 14.72 18.8312 14.0246 18.8312 13.5403C18.8312 13.3414 18.7238 12.9924 18.3289 12.5936C17.945 12.2059 17.3446 11.8343 16.5313 11.5991C16.2172 11.5082 16.0224 11.1213 16.0963 10.735Z" fill="#212B36"/>
<path fill-rule="evenodd" clip-rule="evenodd" d="M6.57605 6.29649C5.52438 6.85137 5.1688 7.48402 5.1688 7.94483C5.1688 8.42854 5.5502 9.12235 6.59818 9.73996C7.59456 10.3272 9.01158 10.7213 10.6096 10.7213C12.2076 10.7213 13.6246 10.3272 14.621 9.73996C15.6689 9.12235 16.0503 8.42854 16.0503 7.94483C16.0503 7.48402 15.6948 6.85137 14.6431 6.29648C13.6451 5.76992 12.2216 5.43725 10.6096 5.43725C8.99753 5.43725 7.57405 5.76992 6.57605 6.29649ZM6.11522 4.97567C7.29555 4.3529 8.88464 4 10.6096 4C12.3345 4 13.9236 4.3529 15.1039 4.97567C16.2306 5.57012 17.2191 6.55057 17.2191 7.94483C17.2191 9.31618 16.2564 10.3699 15.1261 11.0361C13.9441 11.7326 12.3486 12.1585 10.6096 12.1585C8.87059 12.1585 7.27503 11.7326 6.09308 11.0361C4.96274 10.3699 4.00006 9.31618 4.00006 7.94483C4.00006 6.55057 4.98856 5.57012 6.11522 4.97567Z" fill="#212B36"/>
<path fill-rule="evenodd" clip-rule="evenodd" d="M7.36532 12.9617C7.68806 12.9617 7.94969 13.2834 7.94969 13.6803C7.94969 14.1537 8.32748 14.8412 9.37743 15.4551C10.3742 16.0379 11.7918 16.429 13.3905 16.429C14.9891 16.429 16.4067 16.0379 17.4035 15.4551C18.4534 14.8412 18.8312 14.1537 18.8312 13.6803C18.8312 13.2834 19.0929 12.9617 19.4156 12.9617C19.7383 12.9617 20 13.2834 20 13.6803V15.9207C20 17.3086 19.0256 18.3262 17.8955 18.9558C16.714 19.614 15.1218 20 13.3905 20C11.6591 20 10.0669 19.614 8.88537 18.9558C7.75527 18.3262 6.78094 17.3086 6.78094 15.9207V13.6803C6.78094 13.2834 7.04258 12.9617 7.36532 12.9617ZM7.96478 16.0927C8.04356 16.551 8.43981 17.1297 9.36766 17.6466C10.3645 18.2019 11.7848 18.5627 13.3905 18.5627C14.9961 18.5627 16.4164 18.2019 17.4133 17.6466C18.3411 17.1297 18.7374 16.551 18.8161 16.0927C18.5384 16.3435 18.2285 16.5641 17.9053 16.7531C16.7238 17.4439 15.1288 17.8663 13.3905 17.8663C11.6521 17.8663 10.0571 17.4439 8.8756 16.7531C8.5524 16.5641 8.24249 16.3435 7.96478 16.0927Z" fill="#212B36"/>
<path fill-rule="evenodd" clip-rule="evenodd" d="M6.59649 9.85403C7.59327 10.4368 9.01089 10.828 10.6095 10.828C12.2082 10.828 13.6258 10.4368 14.6225 9.85404C15.6725 9.24017 16.0503 8.55259 16.0503 8.07924H17.219V10.3197C17.219 11.7076 16.2447 12.7251 15.1146 13.3547C13.9331 14.0129 12.3408 14.3989 10.6095 14.3989C8.87822 14.3989 7.28593 14.0129 6.10443 13.3547C4.97432 12.7251 4 11.7076 4 10.3197V8.07924H5.16874C5.16874 8.55258 5.54654 9.24017 6.59649 9.85403ZM5.18384 10.4916C5.26261 10.95 5.65887 11.5286 6.58672 12.0455C7.58354 12.6009 9.00383 12.9617 10.6095 12.9617C12.2152 12.9617 13.6355 12.6009 14.6323 12.0455C15.5601 11.5286 15.9564 10.95 16.0352 10.4916C15.7575 10.7424 15.4476 10.9631 15.1244 11.1521C13.9428 11.8429 12.3479 12.2652 10.6095 12.2652C8.87116 12.2652 7.2762 11.8429 6.09466 11.1521C5.77145 10.9631 5.46155 10.7424 5.18384 10.4916Z" fill="#212B36"/>
</svg>
