<svg width="24" height="24" viewBox="0 0 24 24" fill="none" xmlns="http://www.w3.org/2000/svg">
<path fill-rule="evenodd" clip-rule="evenodd" d="M21 17.3181C21 17.6989 20.6913 18.0075 20.3106 18.0075H18.3144C17.9337 18.0075 17.625 17.6989 17.625 17.3181C17.625 16.9373 17.9337 16.6286 18.3144 16.6286H20.3106C20.6913 16.6286 21 16.9373 21 17.3181Z" fill="#212B36"/>
<path fill-rule="evenodd" clip-rule="evenodd" d="M14.9531 17.318C14.9531 17.6988 14.6444 18.0075 14.2637 18.0075H3.68944C3.30866 18.0075 2.99999 17.6988 2.99999 17.318C2.99999 16.9373 3.30866 16.6286 3.68944 16.6286H14.2637C14.6444 16.6286 14.9531 16.9373 14.9531 17.318Z" fill="#212B36"/>
<path fill-rule="evenodd" clip-rule="evenodd" d="M6.09375 12.0727C6.09375 12.4535 5.78507 12.7621 5.4043 12.7621H3.68945C3.30867 12.7621 3 12.4535 3 12.0727C3 11.6919 3.30867 11.3832 3.68945 11.3832H5.4043C5.78507 11.3832 6.09375 11.6919 6.09375 12.0727Z" fill="#212B36"/>
<path fill-rule="evenodd" clip-rule="evenodd" d="M21 12.0727C21 12.4535 20.6913 12.7621 20.3106 12.7621L9.59569 12.7621C9.21491 12.7621 8.90624 12.4535 8.90624 12.0727C8.90624 11.6919 9.21491 11.3832 9.59569 11.3832L20.3106 11.3832C20.6913 11.3832 21 11.6919 21 12.0727Z" fill="#212B36"/>
<path fill-rule="evenodd" clip-rule="evenodd" d="M15.0941 6.82732C15.0941 7.20809 14.7855 7.51677 14.4047 7.51677L3.68983 7.51677C3.30906 7.51677 3.00038 7.20809 3.00038 6.82732C3.00038 6.44655 3.30906 6.13787 3.68983 6.13787L14.4047 6.13787C14.7855 6.13787 15.0941 6.44655 15.0941 6.82732Z" fill="#212B36"/>
<path fill-rule="evenodd" clip-rule="evenodd" d="M21 6.82732C21 7.20809 20.6913 7.51677 20.3106 7.51677H18.3144C17.9337 7.51677 17.625 7.20809 17.625 6.82732C17.625 6.44655 17.9337 6.13787 18.3144 6.13787H20.3106C20.6913 6.13787 21 6.44655 21 6.82732Z" fill="#212B36"/>
<path fill-rule="evenodd" clip-rule="evenodd" d="M13.9121 6.66527C13.9121 5.37193 14.9605 4.32347 16.2539 4.32347C17.5472 4.32347 18.5957 5.37193 18.5957 6.66527C18.5957 7.9586 17.5472 9.00706 16.2539 9.00706C14.9605 9.00706 13.9121 7.9586 13.9121 6.66527ZM16.2539 5.70237C15.7221 5.70237 15.291 6.13347 15.291 6.66527C15.291 7.19706 15.7221 7.62816 16.2539 7.62816C16.7857 7.62816 17.2168 7.19706 17.2168 6.66527C17.2168 6.13347 16.7857 5.70237 16.2539 5.70237Z" fill="#212B36"/>
<path fill-rule="evenodd" clip-rule="evenodd" d="M13.9121 17.156C13.9121 15.8626 14.9605 14.8142 16.2539 14.8142C17.5472 14.8142 18.5957 15.8626 18.5957 17.156C18.5957 18.4493 17.5472 19.4978 16.2539 19.4978C14.9605 19.4978 13.9121 18.4493 13.9121 17.156ZM16.2539 16.1931C15.7221 16.1931 15.291 16.6242 15.291 17.156C15.291 17.6878 15.7221 18.1189 16.2539 18.1189C16.7857 18.1189 17.2168 17.6878 17.2168 17.156C17.2168 16.6242 16.7857 16.1931 16.2539 16.1931Z" fill="#212B36"/>
<path fill-rule="evenodd" clip-rule="evenodd" d="M5.12341 11.9106C5.12341 10.6173 6.17187 9.56883 7.46521 9.56883C8.75854 9.56883 9.807 10.6173 9.807 11.9106C9.807 13.204 8.75854 14.2524 7.46521 14.2524C6.17187 14.2524 5.12341 13.204 5.12341 11.9106ZM7.46521 10.9477C6.93341 10.9477 6.50231 11.3788 6.50231 11.9106C6.50231 12.4424 6.93341 12.8735 7.46521 12.8735C7.997 12.8735 8.4281 12.4424 8.4281 11.9106C8.4281 11.3788 7.997 10.9477 7.46521 10.9477Z" fill="#212B36"/>
</svg>
