<svg width="24" height="24" viewBox="0 0 24 24" fill="none" xmlns="http://www.w3.org/2000/svg">
<path d="M19.2041 10.2555C19.0977 10.0284 18.8695 9.88333 18.6187 9.88333H12.7322L13.3767 4.72659C13.4123 4.44189 13.256 4.16778 12.9927 4.05352C12.7295 3.9392 12.4225 4.0122 12.2388 4.23262L4.88473 13.0576C4.72418 13.2502 4.68956 13.5184 4.79594 13.7455C4.90232 13.9726 5.13049 14.1177 5.38129 14.1177H11.2678L10.6232 19.2745C10.5877 19.5592 10.744 19.8333 11.0072 19.9476C11.0903 19.9837 11.1778 20.001 11.2644 20.001C11.452 20.001 11.6354 19.9193 11.7612 19.7685L19.1153 10.9435C19.2758 10.7508 19.3104 10.4827 19.2041 10.2555ZM12.1794 17.2472L12.6414 13.5515C12.6644 13.3675 12.6073 13.1826 12.4846 13.0436C12.3619 12.9046 12.1854 12.825 12 12.825H6.76128L11.8206 6.75385L11.3586 10.4495C11.3356 10.6335 11.3927 10.8185 11.5154 10.9575C11.6381 11.0964 11.8146 11.176 12 11.176H17.2387L12.1794 17.2472Z" fill="#212B36"/>
</svg>
