<svg width="24" height="24" viewBox="0 0 24 24" fill="none" xmlns="http://www.w3.org/2000/svg">
<path d="M12 9.38757C10.6866 9.38757 9.61798 10.4561 9.61798 11.7696C9.61798 13.0831 10.6866 14.1517 12 14.1517C13.3135 14.1517 14.3821 13.0831 14.3821 11.7696C14.3821 10.4561 13.3135 9.38757 12 9.38757ZM12 12.6974C11.4884 12.6974 11.0722 12.2812 11.0722 11.7696C11.0722 11.258 11.4884 10.8418 12 10.8418C12.5116 10.8418 12.9278 11.258 12.9278 11.7696C12.9278 12.2812 12.5116 12.6974 12 12.6974Z" fill="#212B36"/>
<path d="M16.0223 7.74676C15.7381 7.46294 15.2778 7.46319 14.994 7.74732C14.7102 8.03145 14.7105 8.49182 14.9946 8.77561C16.6478 10.427 16.6493 13.1154 14.9982 14.7683L14.9943 14.7722C14.7104 15.0562 14.7104 15.5165 14.9943 15.8005C15.1363 15.9425 15.3224 16.0135 15.5085 16.0135C15.6946 16.0135 15.8807 15.9425 16.0227 15.8005L16.0269 15.7963C18.2448 13.5758 18.2428 9.9648 16.0223 7.74676Z" fill="#212B36"/>
<path d="M9.00539 14.7639C8.20457 13.9639 7.76318 12.9 7.76254 11.7681C7.76191 10.6362 8.2021 9.57173 9.00205 8.77091C9.00297 8.76996 9.00469 8.76823 9.00564 8.76729C9.2896 8.48333 9.2896 8.02296 9.00564 7.739C8.72172 7.45504 8.26131 7.45504 7.97739 7.739L7.9732 7.74322C5.75515 9.96372 5.75716 13.5747 7.97767 15.7928C8.11963 15.9346 8.30553 16.0054 8.49151 16.0054C8.6777 16.0054 8.86396 15.9343 9.00595 15.7922C9.28981 15.508 9.28953 15.0477 9.00539 14.7639Z" fill="#212B36"/>
<path d="M18.3644 5.40544C18.0805 5.12148 17.6201 5.12138 17.3361 5.4053C17.0521 5.68922 17.052 6.14959 17.336 6.43358C20.2774 9.37592 20.2774 14.1634 17.336 17.1058C17.052 17.3898 17.0521 17.8502 17.3361 18.134C17.4781 18.276 17.6641 18.347 17.8502 18.347C18.0363 18.347 18.2224 18.2759 18.3644 18.1339C20.064 16.4339 21 14.1737 21 11.7697C21 9.36576 20.064 7.10556 18.3644 5.40544Z" fill="#212B36"/>
<path d="M6.66402 6.43361C6.94794 6.14958 6.94787 5.68921 6.66388 5.40532C6.37985 5.12137 5.91948 5.12147 5.6356 5.40546C3.936 7.10555 3 9.36575 3 11.7697C3 14.1737 3.936 16.4338 5.6356 18.1339C5.77756 18.276 5.96367 18.347 6.14979 18.347C6.33584 18.347 6.52192 18.276 6.66388 18.1341C6.94787 17.8502 6.94794 17.3898 6.66402 17.1058C3.7226 14.1635 3.7226 9.37594 6.66402 6.43361Z" fill="#212B36"/>
</svg>
