<svg width="24" height="24" viewBox="0 0 24 24" fill="none" xmlns="http://www.w3.org/2000/svg">
<path d="M6.43749 20.5045H15.2443C16.3407 20.5045 17.2318 19.6134 17.2318 18.517V18.1648C17.2318 17.8455 16.9727 17.5864 16.6534 17.5864C16.3341 17.5864 16.075 17.8455 16.075 18.1648V18.517C16.075 18.9748 15.7021 19.3477 15.2443 19.3477H6.43749C5.97965 19.3477 5.60676 18.9748 5.60676 18.517V9.00554C5.60676 8.54771 5.97964 8.17494 6.43749 8.17494H6.78968C7.10898 8.17494 7.36809 7.91583 7.36809 7.59653C7.36809 7.27723 7.10898 7.01812 6.78968 7.01812H6.43749C5.34106 7.01812 4.44994 7.9091 4.44994 9.00554V18.517C4.44994 19.6134 5.34106 20.5045 6.43749 20.5045Z" fill="#212B36" stroke="#212B36" stroke-width="0.1"/>
<path d="M10.6648 16.2773H18.0626C19.159 16.2773 20.05 15.3862 20.05 14.2897V5.48296C20.05 4.38653 19.159 3.49541 18.0626 3.49541H10.6648C9.56835 3.49541 8.67723 4.38653 8.67723 5.48296V14.2897C8.67723 15.3862 9.56835 16.2773 10.6648 16.2773ZM9.83406 5.48296C9.83406 5.02513 10.2069 4.65223 10.6648 4.65223H18.0626C18.5204 4.65223 18.8932 5.02512 18.8932 5.48296V14.2897C18.8932 14.7476 18.5204 15.1205 18.0626 15.1205H10.6648C10.2069 15.1205 9.83406 14.7476 9.83406 14.2897V5.48296Z" fill="#212B36" stroke="#212B36" stroke-width="0.1"/>
</svg>
