<svg width="24" height="24" viewBox="0 0 24 24" fill="none" xmlns="http://www.w3.org/2000/svg">
<path d="M17.8583 6.14216C17.6689 5.95286 17.362 5.95286 17.1727 6.14216L6.14198 17.1729C5.95267 17.3622 5.95267 17.6691 6.14198 17.8584C6.23662 17.9531 6.3607 18.0004 6.48476 18.0004C6.60882 18.0004 6.73288 17.9531 6.82754 17.8584L17.8583 6.82768C18.0475 6.63839 18.0475 6.33147 17.8583 6.14216Z" fill="#212B36" stroke="#212B36" stroke-width="0.5"/>
<path d="M17.8582 17.1727L12.3429 11.6573L6.82749 6.14198C6.63821 5.95267 6.33127 5.95267 6.14198 6.14198C5.95267 6.33127 5.95267 6.63819 6.14198 6.82749L17.1727 17.8582C17.2674 17.9529 17.3914 18.0002 17.5155 18.0002C17.6396 18.0002 17.7636 17.9529 17.8583 17.8582C18.0475 17.6689 18.0475 17.362 17.8582 17.1727Z" fill="#212B36" stroke="#212B36" stroke-width="0.5"/>
</svg>
