<svg width="24" height="24" viewBox="0 0 24 24" fill="none" xmlns="http://www.w3.org/2000/svg">
<path d="M9.14021 5H6.9954C5.89515 5 5 5.89515 5 6.9954V9.14021C5 9.45253 5.2532 9.70574 5.56552 9.70574C5.87784 9.70574 6.13104 9.45253 6.13104 9.14021V6.9954C6.13104 6.5188 6.5188 6.13104 6.9954 6.13104H9.14021C9.45253 6.13104 9.70574 5.87784 9.70574 5.56552C9.70574 5.2532 9.45253 5 9.14021 5Z" fill="#212B36" stroke="#212B36" stroke-width="0.2"/>
<path d="M17.0047 5H14.8599C14.5475 5 14.2943 5.2532 14.2943 5.56552C14.2943 5.87784 14.5475 6.13104 14.8599 6.13104H17.0047C17.4813 6.13104 17.8691 6.5188 17.8691 6.9954V9.14021C17.8691 9.45253 18.1222 9.70574 18.4346 9.70574C18.7469 9.70574 19.0001 9.45253 19.0001 9.14021V6.9954C19.0001 5.89515 18.105 5 17.0047 5Z" fill="#212B36" stroke="#212B36" stroke-width="0.2"/>
<path d="M18.4346 14.2941C18.1222 14.2941 17.8691 14.5473 17.8691 14.8597V17.0045C17.8691 17.4811 17.4813 17.8689 17.0047 17.8689H14.8599C14.5475 17.8689 14.2943 18.122 14.2943 18.4344C14.2943 18.7467 14.5475 18.9999 14.8599 18.9999H17.0047C18.105 18.9999 19.0001 18.1048 19.0001 17.0045V14.8597C19.0001 14.5473 18.7469 14.2941 18.4346 14.2941Z" fill="#212B36" stroke="#212B36" stroke-width="0.2"/>
<path d="M9.14025 17.8689H6.99544C6.51883 17.8689 6.13107 17.4811 6.13107 17.0045V14.8597C6.13107 14.5473 5.87787 14.2941 5.56555 14.2941C5.25323 14.2941 5.00003 14.5473 5.00003 14.8597V17.0045C5.00003 18.1048 5.89518 18.9999 6.99544 18.9999H9.14025C9.45257 18.9999 9.70577 18.7467 9.70577 18.4344C9.70577 18.122 9.45257 17.8689 9.14025 17.8689Z" fill="#212B36" stroke="#212B36" stroke-width="0.2"/>
</svg>
