<svg width="24" height="24" viewBox="0 0 24 24" fill="none" xmlns="http://www.w3.org/2000/svg">
<path d="M18.6184 15.0305C18.2614 15.0305 17.9721 15.3199 17.9721 15.6768V17.8829C17.9721 18.3375 17.6022 18.7073 17.1477 18.7073H6.8525C6.39791 18.7073 6.0281 18.3375 6.0281 17.8829V15.6768C6.0281 15.3199 5.73872 15.0305 5.38179 15.0305C5.02485 15.0305 4.73547 15.3199 4.73547 15.6768V17.8829C4.73547 19.0503 5.68519 20 6.85254 20H17.1477C18.3151 20 19.2647 19.0503 19.2647 17.8829V15.6768C19.2647 15.3199 18.9753 15.0305 18.6184 15.0305Z" fill="#212B36"/>
<path d="M15.3985 11.543C15.1461 11.2906 14.7369 11.2906 14.4845 11.543L12 14.0274L9.51557 11.543C9.26316 11.2906 8.85391 11.2906 8.60154 11.543C8.34913 11.7954 8.34913 12.2046 8.60154 12.457L11.543 15.3985C11.6642 15.5197 11.8286 15.5878 12 15.5878C12.1715 15.5878 12.3358 15.5197 12.4571 15.3985L15.3985 12.457C15.6509 12.2046 15.6509 11.7954 15.3985 11.543Z" fill="#212B36"/>
<path d="M12 4C11.6431 4 11.3537 4.28937 11.3537 4.64631V14.9415C11.3537 15.2984 11.6431 15.5878 12 15.5878C12.357 15.5878 12.6464 15.2984 12.6464 14.9415V4.64631C12.6464 4.28937 12.357 4 12 4Z" fill="#212B36"/>
</svg>
