<svg width="24" height="24" viewBox="0 0 24 24" fill="none" xmlns="http://www.w3.org/2000/svg">
<path d="M17.8831 13.3099C17.5262 13.3099 17.2368 13.5992 17.2368 13.9562V17.8832C17.2368 18.3378 16.867 18.7076 16.4124 18.7076H6.11693C5.66233 18.7076 5.29251 18.3377 5.29251 17.8832V7.58774C5.29251 7.13314 5.66236 6.76332 6.11693 6.76332H10.0439C10.4009 6.76332 10.6902 6.47393 10.6902 6.11699C10.6902 5.76004 10.4009 5.47066 10.0439 5.47066H6.11693C4.94956 5.47066 3.99982 6.4204 3.99982 7.58777V17.8832C3.99985 19.0505 4.94959 20.0002 6.11693 20.0002H16.4124C17.5797 20.0002 18.5295 19.0505 18.5295 17.8831V13.9562C18.5295 13.5992 18.2401 13.3099 17.8831 13.3099Z" fill="#212B36"/>
<path d="M19.8109 7.13085L16.8694 4.18931C16.617 3.9369 16.2077 3.9369 15.9553 4.18931L8.60149 11.5432C8.4803 11.6644 8.41217 11.8288 8.41217 12.0002V14.9418C8.41217 15.2987 8.70155 15.5881 9.0585 15.5881H12C12.1715 15.5881 12.3359 15.52 12.4571 15.3988L19.8109 8.04491C19.9321 7.92369 20.0002 7.75927 20.0002 7.58786C20.0002 7.41645 19.9321 7.25207 19.8109 7.13085ZM11.7323 14.2954H9.70486V12.2679L16.4124 5.56041L18.4399 7.5879L11.7323 14.2954Z" fill="#212B36"/>
</svg>
