<svg width="24" height="24" viewBox="0 0 24 24" fill="none" xmlns="http://www.w3.org/2000/svg">
<path fill-rule="evenodd" clip-rule="evenodd" d="M12 3.00024C12.1979 2.9947 12.3897 3.08579 12.5025 3.24837L17.9041 11.0332C17.9924 11.1606 18.0214 11.317 17.9841 11.4654C17.9468 11.6137 17.8465 11.7408 17.707 11.8165L12.3055 14.7473C12.211 14.7985 12.1051 14.8227 12 14.8197C11.8948 14.8227 11.789 14.7985 11.6945 14.7473L6.293 11.8165C6.15354 11.7408 6.05325 11.6137 6.01592 11.4654C5.9786 11.317 6.00756 11.1606 6.09594 11.0332L11.4975 3.24837C11.6103 3.08579 11.8021 2.9947 12 3.00024ZM11.4015 5.39354L8.06714 10.1992L11.4015 8.9742V5.39354ZM11.4015 10.1583L7.93086 11.4333L11.4015 13.3164V10.1583ZM12.5985 13.3164L16.0691 11.4333L12.5985 10.1583V13.3164ZM12.5985 8.9742L15.9329 10.1992L12.5985 5.39354V8.9742ZM6.1545 12.8643C6.34179 12.6719 6.64567 12.631 6.88185 12.7664L12 15.7016L17.1182 12.7664C17.3543 12.631 17.6582 12.6719 17.8455 12.8643C18.0328 13.0567 18.0519 13.3476 17.8913 13.5606L12.5706 20.6167C12.5143 20.783 12.3767 20.918 12.1949 20.9735C12.1307 20.9931 12.0649 21.0016 12.0001 20.9998C11.9353 21.0016 11.8694 20.9931 11.8051 20.9735C11.6233 20.918 11.4856 20.783 11.4294 20.6167L6.10872 13.5606C5.94808 13.3476 5.9672 13.0567 6.1545 12.8643ZM12.5985 18.6831L15.3018 15.0981L12.5985 16.6484V18.6831ZM11.4015 16.6484V18.6831L8.69824 15.0981L11.4015 16.6484Z" fill="#212B36"/>
</svg>
