<svg width="24" height="24" viewBox="0 0 24 24" fill="none" xmlns="http://www.w3.org/2000/svg">
<path d="M16.9025 12.1708C16.5455 12.1708 16.2562 12.4601 16.2562 12.8171V17.7196C16.2562 18.2643 15.813 18.7074 15.2683 18.7074H6.28047C5.73578 18.7074 5.29263 18.2643 5.29263 17.7196V8.73173C5.29263 8.18705 5.73578 7.74389 6.28047 7.74389H11.1829C11.5399 7.74389 11.8293 7.45451 11.8293 7.09758C11.8293 6.74064 11.5399 6.45126 11.1829 6.45126H6.28047C5.02303 6.45126 4 7.4743 4 8.73173V17.7196C4 18.9771 5.02303 20.0001 6.28047 20.0001H15.2683C16.5258 20.0001 17.5488 18.9771 17.5488 17.7196V12.8171C17.5488 12.4601 17.2595 12.1708 16.9025 12.1708Z" fill="#212B36"/>
<path d="M19.3537 4H14.4513C14.0943 4 13.8049 4.28938 13.8049 4.64631C13.8049 5.00325 14.0943 5.29263 14.4513 5.29263H18.7074V9.54879C18.7074 9.90573 18.9968 10.1951 19.3537 10.1951C19.7107 10.1951 20 9.90573 20 9.54879V4.64631C20 4.28938 19.7107 4 19.3537 4Z" fill="#212B36"/>
<path d="M19.8107 4.18992C19.5583 3.93755 19.149 3.93755 18.8966 4.18992L9.90879 13.1777C9.65638 13.4302 9.65638 13.8394 9.90879 14.0918C10.035 14.218 10.2004 14.2811 10.3658 14.2811C10.5313 14.2811 10.6967 14.218 10.8229 14.0918L19.8107 5.10395C20.0631 4.85155 20.0631 4.44233 19.8107 4.18992Z" fill="#212B36"/>
</svg>
