<svg width="24" height="24" viewBox="0 0 24 24" fill="none" xmlns="http://www.w3.org/2000/svg">
<path d="M19.94 5.36065C19.8341 5.14071 19.6053 5 19.3537 5H4.64632C4.39472 5 4.16594 5.14068 4.06004 5.36065C3.95413 5.58062 3.99035 5.83976 4.15282 6.02492L9.88295 12.554V16.9601C9.88295 17.1959 10.0213 17.4116 10.2402 17.5171L13.1817 18.9343C13.2729 18.9782 13.372 19 13.4707 19C13.5889 19 13.7067 18.9688 13.8106 18.907C14.0011 18.7935 14.1171 18.593 14.1171 18.3772V12.554L19.8472 6.02492C20.0097 5.83976 20.0458 5.58059 19.94 5.36065ZM12.9772 11.9238C12.8786 12.0363 12.8244 12.1787 12.8244 12.326V17.3696L11.1756 16.5752V12.326C11.1756 12.1787 11.1214 12.0363 11.0228 11.9238L6.03935 6.24554H17.9607L12.9772 11.9238Z" fill="#212B36"/>
</svg>
