<svg width="24" height="24" viewBox="0 0 24 24" fill="none" xmlns="http://www.w3.org/2000/svg">
<path d="M17.8829 6.94148H11.6105L10.3317 5.02316C10.2118 4.84338 10.01 4.73535 9.79388 4.73535H6.11706C4.94972 4.73538 4 5.6851 4 6.85245V17.1476C4 18.315 4.94972 19.2647 6.11706 19.2647H17.8829C19.0503 19.2647 20 18.315 20 17.1476V9.05854C20 7.8912 19.0503 6.94148 17.8829 6.94148ZM18.7074 17.1476C18.7074 17.6022 18.3375 17.972 17.883 17.972H6.11706C5.66247 17.972 5.29266 17.6021 5.29266 17.1476V6.85245C5.29266 6.39785 5.6625 6.02804 6.11706 6.02804H9.44803L10.7269 7.94635C10.8467 8.12613 11.0485 8.23416 11.2646 8.23416H17.8829C18.3375 8.23416 18.7073 8.60401 18.7073 9.05857L18.7074 17.1476Z" fill="#212B36"/>
</svg>
