<svg width="24" height="24" viewBox="0 0 24 24" fill="none" xmlns="http://www.w3.org/2000/svg">
<path d="M18.3773 5H16.9601C16.226 5 15.6288 5.59726 15.6288 6.33135V17.6686C15.6288 18.4027 16.226 19 16.9601 19H18.3773C19.1114 19 19.7087 18.4027 19.7087 17.6686V6.33135C19.7087 5.59726 19.1114 5 18.3773 5ZM18.4631 17.6686C18.4631 17.7159 18.4246 17.7544 18.3773 17.7544H16.9601C16.9128 17.7544 16.8743 17.7159 16.8743 17.6686V6.33135C16.8743 6.28405 16.9128 6.24554 16.9601 6.24554H18.3773C18.4246 6.24554 18.4631 6.28405 18.4631 6.33135V17.6686Z" fill="#212B36"/>
<path d="M12.7088 8.54291H11.2916C10.5575 8.54291 9.96027 9.14017 9.96027 9.87426V17.6686C9.96027 18.4027 10.5575 19 11.2916 19H12.7088C13.4429 19 14.0401 18.4027 14.0402 17.6686V9.87426C14.0402 9.14014 13.4429 8.54291 12.7088 8.54291ZM12.7946 17.6686C12.7946 17.716 12.7561 17.7544 12.7088 17.7544H11.2916C11.2443 17.7544 11.2058 17.7159 11.2058 17.6686V9.87423C11.2058 9.82693 11.2443 9.78841 11.2916 9.78841H12.7088C12.7561 9.78841 12.7946 9.82693 12.7946 9.87423V17.6686Z" fill="#212B36"/>
<path d="M7.03997 12.0858H5.6228C4.88871 12.0858 4.29144 12.683 4.29144 13.4172V17.6687C4.29144 18.4027 4.88871 19 5.6228 19H7.03997C7.77406 19 8.37132 18.4027 8.37132 17.6687V13.4172C8.37132 12.683 7.77406 12.0858 7.03997 12.0858ZM7.12576 17.6686C7.12576 17.716 7.08724 17.7544 7.03994 17.7544H5.6228C5.57549 17.7544 5.53698 17.7159 5.53698 17.6686V13.4172C5.53698 13.3698 5.57549 13.3313 5.6228 13.3313H7.03997C7.08727 13.3313 7.12579 13.3698 7.12579 13.4172V17.6686H7.12576Z" fill="#212B36"/>
</svg>
