<svg width="24" height="24" viewBox="0 0 24 24" fill="none" xmlns="http://www.w3.org/2000/svg">
<path d="M12.7356 4.73547H11.2649C10.5031 4.73547 9.88324 5.35531 9.88324 6.11714V17.8828C9.88324 18.6447 10.5031 19.2645 11.2649 19.2645H12.7356C13.4975 19.2645 14.1173 18.6447 14.1173 17.8828V6.11714C14.1173 5.35531 13.4975 4.73547 12.7356 4.73547ZM12.8247 17.8828C12.8247 17.9319 12.7847 17.9719 12.7356 17.9719H11.2649C11.2158 17.9719 11.1758 17.9319 11.1758 17.8828V6.11714C11.1758 6.06805 11.2158 6.02808 11.2649 6.02808H12.7356C12.7848 6.02808 12.8247 6.06805 12.8247 6.11714V17.8828Z" fill="#212B36"/>
<path d="M18.6184 8.41226H17.1476C16.3858 8.41226 15.7659 9.0321 15.7659 9.79393V17.8828C15.7659 18.6447 16.3858 19.2645 17.1476 19.2645H18.6184C19.3802 19.2645 20 18.6447 20 17.8829V9.79393C20 9.03206 19.3802 8.41226 18.6184 8.41226ZM18.7074 17.8828C18.7074 17.9319 18.6674 17.9719 18.6184 17.9719H17.1476C17.0985 17.9719 17.0586 17.9319 17.0586 17.8828V9.7939C17.0586 9.7448 17.0985 9.70483 17.1476 9.70483H18.6184C18.6674 9.70483 18.7074 9.7448 18.7074 9.7939V17.8828Z" fill="#212B36"/>
<path d="M6.85257 12.089H5.38185C4.62002 12.089 4.00018 12.7089 4.00018 13.4707V17.8829C4.00018 18.6447 4.62002 19.2645 5.38185 19.2645H6.85257C7.6144 19.2645 8.23424 18.6447 8.23424 17.8829V13.4707C8.23424 12.7088 7.6144 12.089 6.85257 12.089ZM6.9416 17.8828C6.9416 17.932 6.90163 17.9719 6.85254 17.9719H5.38185C5.33275 17.9719 5.29279 17.9319 5.29279 17.8828V13.4707C5.29279 13.4216 5.33275 13.3816 5.38185 13.3816H6.85257C6.90167 13.3816 6.94163 13.4216 6.94163 13.4707V17.8828H6.9416Z" fill="#212B36"/>
</svg>
