<svg width="24" height="24" viewBox="0 0 24 24" fill="none" xmlns="http://www.w3.org/2000/svg">
<path d="M9.54875 4H5.46338C4.6565 4 4 4.6565 4 5.46338V9.54879C4 10.3557 4.6565 11.0122 5.46338 11.0122H9.54879C10.3557 11.0122 11.0122 10.3557 11.0122 9.54875V5.46338C11.0122 4.6565 10.3557 4 9.54875 4ZM9.71954 9.54875C9.71954 9.64291 9.64291 9.71954 9.54875 9.71954H5.46338C5.36925 9.71954 5.29263 9.64291 5.29263 9.54875V5.46338C5.29263 5.36925 5.36925 5.29263 5.46338 5.29263H9.54875C9.64291 5.29263 9.71954 5.36922 9.71954 5.46338V9.54875Z" fill="#212B36"/>
<path d="M18.5368 4H14.4514C13.6444 4 12.988 4.6565 12.988 5.46338V9.54875C12.988 10.3557 13.6444 11.0122 14.4514 11.0122H18.5368C19.3437 11.0122 20.0001 10.3557 20.0001 9.54875V5.46338C20.0001 4.6565 19.3436 4 18.5368 4ZM18.7075 9.54875C18.7075 9.64291 18.6309 9.71954 18.5368 9.71954H14.4514C14.3572 9.71954 14.2806 9.64291 14.2806 9.54875V5.46338C14.2806 5.36925 14.3572 5.29263 14.4514 5.29263H18.5368C18.6309 5.29263 18.7075 5.36922 18.7075 5.46338V9.54875Z" fill="#212B36"/>
<path d="M18.5368 12.9879H14.4514C13.6444 12.9879 12.988 13.6444 12.988 14.4513V18.5367C12.988 19.3436 13.6444 20 14.4514 20H18.5368C19.3436 20 20.0001 19.3435 20.0001 18.5367V14.4513C20.0001 13.6444 19.3437 12.9879 18.5368 12.9879ZM18.7075 18.5367C18.7075 18.6308 18.6309 18.7074 18.5368 18.7074H14.4514C14.3572 18.7074 14.2806 18.6308 14.2806 18.5367V14.4513C14.2806 14.3571 14.3572 14.2805 14.4514 14.2805H18.5368C18.6309 14.2805 18.7075 14.3571 18.7075 14.4513V18.5367Z" fill="#212B36"/>
<path d="M9.54879 12.9879H5.46341C4.65653 12.9879 4.00003 13.6443 4.00003 14.4513V18.5367C4.00003 19.3435 4.65653 20 5.46341 20H9.54882C10.3557 20 11.0122 19.3435 11.0122 18.5367V14.4513C11.0122 13.6444 10.3557 12.9879 9.54879 12.9879ZM9.71957 18.5367C9.71957 18.6308 9.64294 18.7074 9.54879 18.7074H5.46341C5.36928 18.7074 5.29266 18.6308 5.29266 18.5367V14.4513C5.29266 14.3571 5.36925 14.2805 5.46341 14.2805H9.54879C9.64294 14.2805 9.71957 14.3571 9.71957 14.4513V18.5367Z" fill="#212B36"/>
</svg>
