<svg width="24" height="24" viewBox="0 0 24 24" fill="none" xmlns="http://www.w3.org/2000/svg">
<path fill-rule="evenodd" clip-rule="evenodd" d="M2.67969 18.35H14.4411C14.3161 17.202 13.8592 16.4855 13.32 16.037C12.6632 15.4908 11.8021 15.275 11.0341 15.275H6.06847C4.59239 15.275 3.76378 15.8914 3.28294 16.6227C2.92475 17.1675 2.74504 17.8022 2.67969 18.35ZM2.19669 15.9085C2.91438 14.817 4.14835 13.975 6.06847 13.975H11.0341C12.0157 13.975 13.2 14.2464 14.1513 15.0375C15.1249 15.8472 15.775 17.1358 15.775 19C15.775 19.359 15.484 19.65 15.125 19.65H2.00333C1.65474 19.65 1.36821 19.375 1.35388 19.0267C1.31979 18.1987 1.50463 16.9611 2.19669 15.9085Z" fill="#212B36"/>
<path fill-rule="evenodd" clip-rule="evenodd" d="M5.49065 9.66407C5.49065 7.94595 6.88346 6.55313 8.60158 6.55313C10.3197 6.55313 11.7125 7.94595 11.7125 9.66407C11.7125 11.3822 10.3197 12.775 8.60158 12.775C6.88346 12.775 5.49065 11.3822 5.49065 9.66407ZM8.60158 7.85313C7.60143 7.85313 6.79065 8.66392 6.79065 9.66407C6.79065 10.6642 7.60143 11.475 8.60158 11.475C9.60174 11.475 10.4125 10.6642 10.4125 9.66407C10.4125 8.66392 9.60174 7.85313 8.60158 7.85313Z" fill="#212B36"/>
<path fill-rule="evenodd" clip-rule="evenodd" d="M13.0166 11.4219C13.0166 11.0629 13.3077 10.7719 13.6666 10.7719H17.0758C18.0574 10.7719 19.2417 11.0433 20.1929 11.8344C21.1665 12.6441 21.8166 13.9327 21.8166 15.7969C21.8166 16.1559 21.5256 16.4469 21.1666 16.4469H16.6745C16.3155 16.4469 16.0245 16.1559 16.0245 15.7969C16.0245 15.4379 16.3155 15.1469 16.6745 15.1469H20.4828C20.3577 13.9989 19.9008 13.2823 19.3617 12.8339C18.7049 12.2877 17.8437 12.0719 17.0758 12.0719H13.6666C13.3077 12.0719 13.0166 11.7809 13.0166 11.4219Z" fill="#212B36"/>
<path fill-rule="evenodd" clip-rule="evenodd" d="M11.6625 6.46094C11.6625 4.74282 13.0553 3.35001 14.7735 3.35001C16.4916 3.35001 17.8844 4.74282 17.8844 6.46094C17.8844 8.17907 16.4916 9.57188 14.7735 9.57188C13.0553 9.57188 11.6625 8.17907 11.6625 6.46094ZM14.7735 4.65001C13.7733 4.65001 12.9625 5.46079 12.9625 6.46094C12.9625 7.4611 13.7733 8.27188 14.7735 8.27188C15.7736 8.27188 16.5844 7.4611 16.5844 6.46094C16.5844 5.46079 15.7736 4.65001 14.7735 4.65001Z" fill="#212B36"/>
</svg>
