<svg width="24" height="24" viewBox="0 0 24 24" fill="none" xmlns="http://www.w3.org/2000/svg">
<path d="M18.5367 8.9025H5.4634C5.10646 8.9025 4.81708 9.19188 4.81708 9.54882C4.81708 9.90576 5.10646 10.1951 5.4634 10.1951H18.5367C18.8936 10.1951 19.183 9.90576 19.183 9.54882C19.183 9.19188 18.8936 8.9025 18.5367 8.9025Z" fill="#212B36" stroke="#212B36" stroke-width="0.2"/>
<path d="M18.5367 13.8051H5.4634C5.10646 13.8051 4.81708 14.0944 4.81708 14.4514C4.81708 14.8083 5.10646 15.0977 5.4634 15.0977H18.5367C18.8936 15.0977 19.183 14.8083 19.183 14.4514C19.183 14.0944 18.8936 13.8051 18.5367 13.8051Z" fill="#212B36" stroke="#212B36" stroke-width="0.2"/>
<path d="M10.4372 4.00441C10.0825 3.96497 9.7629 4.22063 9.72349 4.57539L8.08934 19.2828C8.0499 19.6376 8.30556 19.9571 8.66032 19.9965C8.6846 19.9992 8.70866 20.0005 8.73251 20.0005C9.05748 20.0005 9.33736 19.7561 9.37405 19.4255L11.0082 4.71814C11.0476 4.36338 10.792 4.04382 10.4372 4.00441Z" fill="#212B36" stroke="#212B36" stroke-width="0.2"/>
<path d="M15.3397 4.00403C14.9851 3.9645 14.6654 4.22025 14.626 4.57501L12.9919 19.2824C12.9525 19.6372 13.2081 19.9567 13.5629 19.9962C13.5871 19.9988 13.6112 20.0002 13.6351 20.0002C13.96 20.0002 14.2399 19.7557 14.2766 19.4252L15.9108 4.71776C15.9502 4.363 15.6946 4.04344 15.3397 4.00403Z" fill="#212B36" stroke="#212B36" stroke-width="0.2"/>
</svg>
