<svg width="24" height="24" viewBox="0 0 24 24" fill="none" xmlns="http://www.w3.org/2000/svg">
<path d="M18.6811 6.31426C18.6803 6.31339 18.6794 6.31256 18.6787 6.31187C16.9181 4.56563 14.0526 4.56501 12.2911 6.31039C12.2909 6.31057 12.2907 6.31079 12.2905 6.31098C12.2903 6.31122 12.29 6.3115 12.2897 6.31175L12.0009 6.5981L11.7121 6.31175C10.8588 5.46584 9.7243 5 8.51761 5C7.31088 5 6.17644 5.46588 5.32316 6.31175C4.46991 7.15766 4 8.28232 4 9.47858C4 10.6749 4.46991 11.7995 5.32319 12.6454L11.5439 18.8123C11.6651 18.9325 11.8295 19 12.001 19C12.1724 19 12.3368 18.9325 12.458 18.8123L18.6785 12.6456C20.4395 10.9005 20.4406 8.06075 18.6811 6.31426ZM17.7645 11.7392L12.0009 17.4529L6.23732 11.7391C5.62825 11.1353 5.29282 10.3325 5.29282 9.47858C5.29282 8.62468 5.62825 7.82183 6.23732 7.21804C6.86601 6.59478 7.69182 6.28319 8.51761 6.28319C9.34342 6.28319 10.1692 6.59478 10.7979 7.21804L11.5438 7.9575C11.7963 8.20775 12.2055 8.20775 12.458 7.9575L13.2039 7.21804C13.204 7.21801 13.204 7.21794 13.2041 7.21788C13.2044 7.21754 13.2047 7.2172 13.2051 7.21686C14.462 5.97141 16.5063 5.97141 17.7631 7.21667C17.764 7.21757 17.7649 7.21847 17.7656 7.21918C19.0223 8.46563 19.0219 10.4932 17.7645 11.7392Z" fill="#212B36"/>
</svg>
