<svg width="24" height="24" viewBox="0 0 24 24" fill="none" xmlns="http://www.w3.org/2000/svg">
<path d="M17.046 16.0268C16.8025 15.7074 16.3463 15.6459 16.0269 15.8893C14.858 16.7803 13.4637 17.2645 11.9943 17.2898C10.0324 17.288 8.16568 16.3623 6.44554 14.5385C5.49542 13.531 4.85099 12.5088 4.55781 12.0019C5.42975 10.4846 6.57756 9.1769 7.97404 8.11048C8.29319 7.86673 8.35437 7.41042 8.11062 7.09127C7.86688 6.77211 7.41057 6.71094 7.09142 6.95468C5.42514 8.22709 4.07764 9.80892 3.08638 11.6563C2.97468 11.8645 2.97106 12.1139 3.07675 12.3252C3.10937 12.3905 3.8931 13.9422 5.35894 15.5058C6.22989 16.4347 7.16395 17.1775 8.13523 17.7134C9.37473 18.3973 10.6751 18.744 12.0002 18.744C12.0042 18.744 12.0081 18.744 12.0121 18.7439C13.7962 18.7148 15.4894 18.1276 16.9085 17.0459C17.2279 16.8024 17.2895 16.3462 17.046 16.0268Z" fill="#212B36"/>
<path d="M20.9235 11.6749C20.8909 11.6096 20.1071 10.0579 18.6413 8.49439C17.7704 7.56536 16.8363 6.82263 15.865 6.28676C14.6256 5.60288 13.3252 5.25613 12.0018 5.25613C11.4144 5.25465 10.8268 5.32194 10.2549 5.45579C9.86392 5.5473 9.62113 5.93849 9.71271 6.32951C9.80423 6.72053 10.1955 6.96333 10.5864 6.87174C11.0486 6.76356 11.5239 6.71019 12.0001 6.71037C13.9641 6.71037 15.833 7.63602 17.5548 9.46163C18.5053 10.4694 19.1499 11.492 19.4429 11.9988C19.0516 12.6811 18.5984 13.3297 18.0923 13.9311C17.8337 14.2383 17.8732 14.697 18.1805 14.9556C18.3169 15.0703 18.4831 15.1264 18.6483 15.1263C18.8555 15.1263 19.0613 15.0383 19.205 14.8674C19.8599 14.0892 20.435 13.2398 20.9145 12.3428C21.0256 12.1349 21.029 11.8859 20.9235 11.6749Z" fill="#212B36"/>
<path d="M14.0902 13.0625C13.7963 12.7888 13.3362 12.8051 13.0625 13.0988C12.7841 13.3976 12.4059 13.5702 11.9977 13.5846C11.5898 13.5993 11.2001 13.4535 10.9013 13.1751C10.2844 12.6003 10.2502 11.6308 10.825 11.0139C10.8494 10.9877 10.8751 10.962 10.9014 10.9375C11.1952 10.6637 11.2113 10.2036 10.9375 9.90983C10.6637 9.61606 10.2036 9.59995 9.90982 9.87372C9.8587 9.9214 9.80864 9.97146 9.7611 10.0225C8.63963 11.226 8.70639 13.1176 9.90992 14.2391C10.4666 14.7577 11.1842 15.0398 11.9412 15.0398C11.977 15.0398 12.013 15.0392 12.049 15.0379C12.8454 15.0098 13.5832 14.6733 14.1265 14.0902C14.4002 13.7964 14.384 13.3363 14.0902 13.0625Z" fill="#212B36"/>
<path d="M20.7875 19.7592L4.24125 3.21297C3.95732 2.92901 3.4969 2.92901 3.21297 3.21297C2.92901 3.4969 2.92901 3.95729 3.21297 4.24125L19.7592 20.7875C19.9012 20.9295 20.0873 21.0005 20.2734 21.0005C20.4595 21.0005 20.6456 20.9295 20.7875 20.7875C21.0714 20.5036 21.0714 20.0432 20.7875 19.7592Z" fill="#212B36"/>
</svg>
