<svg width="24" height="24" viewBox="0 0 24 24" fill="none" xmlns="http://www.w3.org/2000/svg">
<path d="M3.19147 10.3375L11.7237 4.09033C11.8883 3.96989 12.1118 3.96989 12.2763 4.09033L20.8086 10.3375C21.017 10.4901 21.0623 10.7827 20.9097 10.9912C20.7571 11.1996 20.4644 11.2448 20.256 11.0922L12 5.04732L3.74405 11.0922C3.6608 11.1532 3.56405 11.1825 3.46815 11.1825C3.32415 11.1825 3.18204 11.1163 3.09043 10.9911C2.93778 10.7827 2.98306 10.4901 3.19147 10.3375Z" fill="#212B36" stroke="#212B36" stroke-width="0.4"/>
<path d="M5.45231 11.1981C5.71057 11.1981 5.92 11.4074 5.92 11.6657V19.11H9.66139V15.0465C9.66139 13.7569 10.7105 12.7079 12 12.7079C13.2894 12.7079 14.3386 13.757 14.3386 15.0465V19.1101H18.08V11.6658C18.08 11.4075 18.2894 11.1981 18.5477 11.1981C18.806 11.1981 19.0154 11.4075 19.0154 11.6658V19.5778C19.0154 19.8361 18.806 20.0455 18.5477 20.0455H13.8709C13.6249 20.0455 13.4237 19.8555 13.405 19.6142C13.4039 19.6033 13.4032 19.5913 13.4032 19.5778V15.0465C13.4032 14.2728 12.7737 13.6433 12 13.6433C11.2262 13.6433 10.5968 14.2728 10.5968 15.0465V19.5778C10.5968 19.5913 10.5961 19.603 10.5949 19.6138C10.5765 19.8552 10.3752 20.0455 10.1291 20.0455H5.45228C5.19398 20.0455 4.98459 19.8361 4.98459 19.5778V11.6658C4.98463 11.4074 5.19402 11.1981 5.45231 11.1981Z" fill="#212B36" stroke="#212B36" stroke-width="0.4"/>
</svg>
