<svg width="24" height="24" viewBox="0 0 24 24" fill="none" xmlns="http://www.w3.org/2000/svg">
<path d="M17.0046 5H6.99541C5.89515 5 5 5.89515 5 6.99541V17.0046C5 18.1049 5.89515 19 6.99541 19H17.0046C18.1049 19 19 18.1049 19 17.0046V6.99541C19 5.89515 18.1049 5 17.0046 5ZM17.869 17.0046C17.869 17.4812 17.4812 17.869 17.0046 17.869H6.99541C6.51881 17.869 6.13105 17.4812 6.13105 17.0046V6.99541C6.13105 6.51881 6.51881 6.13105 6.99541 6.13105H17.0046C17.4812 6.13105 17.869 6.51881 17.869 6.99541V17.0046Z" fill="#212B36"/>
<path d="M18.8344 13.7449L15.2597 10.1702C15.0388 9.94936 14.6807 9.94936 14.4599 10.1702L6.59554 18.0346C6.37469 18.2554 6.37469 18.6135 6.59554 18.8344C6.70596 18.9448 6.85071 19 6.99545 19C7.14018 19 7.28491 18.9448 7.39532 18.8344L14.8598 11.3699L18.0346 14.5447C18.2555 14.7655 18.6135 14.7655 18.8344 14.5447C19.0552 14.3239 19.0552 13.9658 18.8344 13.7449Z" fill="#212B36"/>
<path d="M9.49771 7.85977C8.59452 7.85977 7.85977 8.59455 7.85977 9.49771C7.85977 10.4009 8.59455 11.1357 9.49771 11.1357C10.4009 11.1357 11.1357 10.4009 11.1357 9.49771C11.1357 8.59452 10.4009 7.85977 9.49771 7.85977ZM9.49771 10.0046C9.21821 10.0046 8.99082 9.77725 8.99082 9.49774C8.99082 9.21824 9.21821 8.99084 9.49771 8.99084C9.77722 8.99084 10.0046 9.21824 10.0046 9.49774C10.0046 9.77725 9.77722 10.0046 9.49771 10.0046Z" fill="#212B36"/>
</svg>
