<svg width="24" height="24" viewBox="0 0 24 24" fill="none" xmlns="http://www.w3.org/2000/svg">
<path d="M17.6568 6.34316C16.1458 4.83216 14.1369 4 12 4C9.86312 4 7.85416 4.83219 6.34316 6.34316C4.83216 7.85413 4 9.86312 4 12C4 14.1369 4.83216 16.1458 6.34316 17.6568C7.85413 19.1678 9.86312 20 12 20C14.1369 20 16.1458 19.1678 17.6568 17.6568C19.1678 16.1458 20 14.1369 20 12C20 9.86312 19.1678 7.85413 17.6568 6.34316ZM12 18.7074C8.30156 18.7074 5.29262 15.6984 5.29262 12C5.29262 8.30156 8.30156 5.29262 12 5.29262C15.6984 5.29262 18.7074 8.30156 18.7074 12C18.7074 15.6984 15.6984 18.7074 12 18.7074Z" fill="#212B36"/>
<path d="M12 11.3538C11.643 11.3538 11.3537 11.6431 11.3537 12.0001V14.9415C11.3537 15.2985 11.643 15.5879 12 15.5879C12.3569 15.5879 12.6463 15.2985 12.6463 14.9415V12.0001C12.6463 11.6431 12.3569 11.3538 12 11.3538Z" fill="#212B36"/>
<path d="M12.457 8.60154C12.3366 8.48117 12.17 8.41223 12 8.41223C11.8299 8.41223 11.6633 8.48117 11.5429 8.60154C11.4226 8.72189 11.3536 8.88851 11.3536 9.05858C11.3536 9.22864 11.4226 9.39523 11.5429 9.51561C11.6633 9.63595 11.8299 9.70492 12 9.70492C12.17 9.70492 12.3366 9.63598 12.457 9.51561C12.5774 9.39523 12.6463 9.22864 12.6463 9.05858C12.6463 8.88851 12.5773 8.72192 12.457 8.60154Z" fill="#212B36"/>
</svg>
