<svg width="24" height="24" viewBox="0 0 24 24" fill="none" xmlns="http://www.w3.org/2000/svg">
<path fill-rule="evenodd" clip-rule="evenodd" d="M20.8348 10.8246C21.3216 11.4888 21.322 12.5146 20.8344 13.1758L17.7544 17.3771C17.5308 17.6847 17.1973 17.9463 16.834 18.1307C16.4705 18.3151 16.0623 18.43 15.6813 18.43H4.44633C3.53891 18.43 2.79999 17.691 2.79999 16.7836V7.21632C2.79999 6.3089 3.53891 5.56998 4.44633 5.56998H15.6813C16.0606 5.56998 16.4679 5.68491 16.8312 5.86927C17.1946 6.05364 17.5286 6.31486 17.7539 6.62208L20.8348 10.8246ZM16.6317 7.44669L19.7102 11.646C19.7675 11.7265 19.8055 11.8566 19.8052 12.0013C19.8048 12.1464 19.7664 12.2758 19.7077 12.356L16.6269 16.5584L16.6263 16.5592C16.5447 16.6718 16.3885 16.794 16.1998 16.8891C16.0112 16.984 15.8186 17.0374 15.6777 17.0374H4.44633C4.30958 17.0374 4.1962 16.924 4.1962 16.7873V7.21632C4.1962 7.07957 4.30958 6.96618 4.44633 6.96618H15.6813C15.8216 6.96618 16.0131 7.02017 16.2016 7.11569C16.3896 7.21096 16.5474 7.33414 16.6317 7.44669Z" fill="#212B36"/>
</svg>
