<svg width="24" height="24" viewBox="0 0 24 24" fill="none" xmlns="http://www.w3.org/2000/svg">
<path d="M19.6426 7.74498L12.2889 4.06814C12.1069 3.97717 11.8927 3.97717 11.7108 4.06814L4.35705 7.74498C4.13807 7.85449 3.99976 8.07827 3.99976 8.32309C3.99976 8.56791 4.13807 8.79173 4.35705 8.9012L11.7108 12.5781C11.8018 12.6235 11.9008 12.6463 11.9999 12.6463C12.0989 12.6463 12.198 12.6235 12.2889 12.5781L19.6427 8.9012C19.8616 8.7917 20 8.56794 20 8.32309C19.9999 8.07827 19.8616 7.85445 19.6426 7.74498ZM11.9999 11.2774L6.09134 8.32309L11.9998 5.36883L17.9083 8.32309L11.9999 11.2774Z" fill="#212B36"/>
<path d="M19.9316 15.3878C19.772 15.0685 19.3837 14.9392 19.0644 15.0987L11.9998 18.631L4.93505 15.0987C4.61579 14.9391 4.22753 15.0685 4.0679 15.3878C3.90824 15.707 4.03768 16.0953 4.35694 16.2549L11.7107 19.9318C11.8017 19.9773 11.9007 20 11.9998 20C12.0988 20 12.1979 19.9773 12.2888 19.9318L19.6426 16.255C19.9618 16.0953 20.0913 15.707 19.9316 15.3878Z" fill="#212B36"/>
<path d="M19.9316 11.7109C19.772 11.3916 19.3837 11.2622 19.0644 11.4219L11.9998 14.9542L4.93505 11.4219C4.61579 11.2622 4.22753 11.3916 4.0679 11.7109C3.90824 12.0302 4.03768 12.4184 4.35694 12.5781L11.7107 16.255C11.8017 16.3004 11.9007 16.3232 11.9998 16.3232C12.0988 16.3232 12.1979 16.3004 12.2888 16.255L19.6426 12.5781C19.9618 12.4184 20.0913 12.0302 19.9316 11.7109Z" fill="#212B36"/>
</svg>
