<svg width="24" height="24" viewBox="0 0 24 24" fill="none" xmlns="http://www.w3.org/2000/svg">
<path d="M18.8817 5.16321C17.4803 3.74205 15.1998 3.74261 13.798 5.16321L11.2562 7.7408C11.0402 7.95981 11.0402 8.31481 11.2562 8.53382C11.4722 8.75283 11.8222 8.75283 12.0382 8.53382L14.5801 5.95623C15.0477 5.48232 15.6726 5.22097 16.3396 5.22097C17.0069 5.22097 17.6318 5.48232 18.0994 5.95651C18.567 6.43069 18.8248 7.06443 18.8248 7.74108C18.8248 8.41745 18.567 9.05119 18.0994 9.52538L14.7758 12.8966C13.8052 13.8803 12.2265 13.8803 11.2559 12.8966C11.0399 12.6775 10.6899 12.6775 10.4739 12.8966C10.2579 13.1156 10.2579 13.4708 10.4739 13.6896C11.1746 14.4001 12.0952 14.7554 13.0157 14.7554C13.9363 14.7554 14.8569 14.4001 15.5576 13.6896L18.8817 10.3187C19.5584 9.63278 19.9312 8.71721 19.9312 7.74108C19.9312 6.76467 19.5584 5.84939 18.8817 5.16321Z" fill="#212B36"/>
<path fill-rule="evenodd" clip-rule="evenodd" d="M13.73 5.09421C15.1693 3.63556 17.5107 3.63496 18.9497 5.09423C19.6446 5.79882 20.0273 6.73897 20.0273 7.74109C20.0273 8.74292 19.6446 9.68335 18.9497 10.3877C18.9497 10.3877 18.9497 10.3877 18.9497 10.3877L15.6256 13.7586C14.906 14.4882 13.9607 14.853 13.0157 14.853C12.0708 14.853 11.1254 14.4882 10.4059 13.7586C10.1523 13.5017 10.1524 13.0846 10.4059 12.8276C10.6594 12.5705 11.0704 12.5705 11.3239 12.8276C12.257 13.7732 13.7747 13.7732 14.7078 12.8276C14.7078 12.8276 14.7078 12.8276 14.7078 12.8276L18.0314 9.45641C18.4808 9.00068 18.7285 8.39182 18.7285 7.74109C18.7285 7.09008 18.4808 6.48122 18.0314 6.0255C17.582 5.56978 16.9816 5.31854 16.3396 5.31854C15.6979 5.31854 15.0975 5.56978 14.6481 6.02524L12.1062 8.60281C11.8527 8.85992 11.4417 8.85992 11.1882 8.60281C10.9346 8.34571 10.9346 7.92893 11.1882 7.67182L13.73 5.09421ZM14.58 5.95623C15.0477 5.48233 15.6726 5.22098 16.3396 5.22098C17.0069 5.22098 17.6318 5.48233 18.0994 5.95651C18.567 6.4307 18.8247 7.06444 18.8247 7.74109C18.8247 8.41746 18.567 9.0512 18.0994 9.52538L14.7758 12.8966C13.8052 13.8803 12.2265 13.8803 11.2559 12.8966C11.0399 12.6776 10.6898 12.6776 10.4739 12.8966C10.2579 13.1156 10.2579 13.4709 10.4739 13.6896C11.1746 14.4002 12.0952 14.7554 13.0157 14.7554C13.9363 14.7554 14.8568 14.4002 15.5576 13.6896L18.8817 10.3187C19.5584 9.63278 19.9311 8.71722 19.9311 7.74109C19.9311 6.76468 19.5584 5.8494 18.8817 5.16321C17.4803 3.74206 15.1997 3.74262 13.798 5.16321L11.2562 7.74081C11.0402 7.95982 11.0402 8.31482 11.2562 8.53383C11.4721 8.75284 11.8222 8.75284 12.0382 8.53383L14.58 5.95623Z" fill="#212B36"/>
<path d="M18.9497 10.3877C19.6446 9.68335 20.0273 8.74292 20.0273 7.74109C20.0273 6.73897 19.6446 5.79882 18.9497 5.09423C17.5107 3.63496 15.1693 3.63556 13.73 5.09421L11.1882 7.67182C10.9346 7.92893 10.9346 8.34571 11.1882 8.60281C11.4417 8.85992 11.8527 8.85992 12.1062 8.60281L14.6481 6.02524C15.0975 5.56978 15.6979 5.31854 16.3396 5.31854C16.9816 5.31854 17.582 5.56978 18.0314 6.0255C18.4808 6.48122 18.7285 7.09008 18.7285 7.74109C18.7285 8.39182 18.4808 9.00068 18.0314 9.45641L14.7078 12.8276C14.7078 12.8276 14.7078 12.8276 14.7078 12.8276C13.7747 13.7732 12.257 13.7732 11.3239 12.8276C11.0704 12.5705 10.6594 12.5705 10.4059 12.8276C10.1524 13.0846 10.1523 13.5017 10.4059 13.7586C11.1254 14.4882 12.0708 14.853 13.0157 14.853C13.9607 14.853 14.906 14.4882 15.6256 13.7586L18.9497 10.3877ZM18.9497 10.3877C18.9497 10.3877 18.9497 10.3877 18.9497 10.3877ZM14.58 5.95623C15.0477 5.48233 15.6726 5.22098 16.3396 5.22098C17.0069 5.22098 17.6318 5.48233 18.0994 5.95651C18.567 6.4307 18.8247 7.06444 18.8247 7.74109C18.8247 8.41746 18.567 9.0512 18.0994 9.52538L14.7758 12.8966C13.8052 13.8803 12.2265 13.8803 11.2559 12.8966C11.0399 12.6776 10.6898 12.6776 10.4739 12.8966C10.2579 13.1156 10.2579 13.4709 10.4739 13.6896C11.1746 14.4002 12.0952 14.7554 13.0157 14.7554C13.9363 14.7554 14.8568 14.4002 15.5576 13.6896L18.8817 10.3187C19.5584 9.63279 19.9311 8.71722 19.9311 7.74109C19.9311 6.76468 19.5584 5.8494 18.8817 5.16321C17.4803 3.74206 15.1997 3.74262 13.798 5.16321L11.2562 7.74081C11.0402 7.95982 11.0402 8.31482 11.2562 8.53383C11.4721 8.75284 11.8222 8.75284 12.0382 8.53383L14.58 5.95623Z" stroke="#212B36" stroke-width="0.2"/>
<path d="M11.6255 15.8641L9.47466 18.0452C9.00705 18.5194 8.3821 18.7808 7.71483 18.7808C7.04785 18.7808 6.42262 18.5194 5.95501 18.0452C4.98467 17.0612 4.98467 15.4601 5.95501 14.4761L9.08365 11.3034C9.55126 10.8295 10.1762 10.5682 10.8435 10.5682C11.5105 10.5682 12.1354 10.8295 12.603 11.3034C12.819 11.5224 13.1691 11.5224 13.385 11.3034C13.601 11.0844 13.601 10.7294 13.385 10.5104C11.9839 9.08954 9.70335 9.08926 8.30135 10.5104L5.17271 13.6833C4.49633 14.3692 4.12357 15.2848 4.12357 16.2609C4.12357 17.2368 4.49633 18.1523 5.17299 18.8382C5.84938 19.5244 6.75224 19.9024 7.71456 19.9024C8.67715 19.9024 9.58002 19.5244 10.2564 18.8382L12.4072 16.6572C12.6232 16.4382 12.6232 16.0831 12.4072 15.8641C12.1913 15.6451 11.8415 15.6451 11.6255 15.8641Z" fill="#212B36"/>
<path fill-rule="evenodd" clip-rule="evenodd" d="M8.2333 10.4414L8.23332 10.4414C9.67288 8.9822 12.0143 8.98247 13.4531 10.4414C13.7066 10.6985 13.7066 11.1153 13.4531 11.3724C13.1995 11.6295 12.7885 11.6295 12.535 11.3724C12.0856 10.917 11.4852 10.6658 10.8435 10.6658C10.2015 10.6658 9.60106 10.917 9.15166 11.3724C9.15165 11.3724 9.15165 11.3724 9.15164 11.3725L6.02302 14.5451C5.09026 15.491 5.09026 17.0304 6.02302 17.9763C6.47242 18.432 7.07311 18.6832 7.71482 18.6832C8.3568 18.6832 8.95721 18.432 9.40661 17.9763L11.5574 15.7952C11.811 15.5381 12.2217 15.5381 12.4752 15.7952C12.7288 16.0523 12.7288 16.4691 12.4752 16.7262L10.3244 18.9072C10.3244 18.9072 10.3244 18.9072 10.3244 18.9072C9.62986 19.6118 8.70248 20 7.71454 20C6.72687 20 5.79948 19.6118 5.10493 18.9072C4.41011 18.2029 4.02734 17.2625 4.02734 16.2609C4.02734 15.2591 4.41012 14.3187 5.10467 13.6144C5.10467 13.6144 5.10467 13.6144 5.10467 13.6144L8.2333 10.4414ZM5.1727 13.6833L8.30133 10.5104C9.70333 9.08927 11.9839 9.08955 13.385 10.5104C13.601 10.7294 13.601 11.0844 13.385 11.3034C13.1691 11.5225 12.819 11.5225 12.603 11.3034C12.1354 10.8295 11.5104 10.5682 10.8435 10.5682C10.1762 10.5682 9.55124 10.8295 9.08363 11.3034L5.95499 14.4761C4.98466 15.4601 4.98466 17.0613 5.95499 18.0452C6.4226 18.5194 7.04783 18.7808 7.71482 18.7808C8.38208 18.7808 9.00703 18.5194 9.47464 18.0452L11.6255 15.8642C11.8414 15.6451 12.1913 15.6451 12.4072 15.8642C12.6232 16.0832 12.6232 16.4382 12.4072 16.6572L10.2564 18.8383C9.58 19.5244 8.67714 19.9024 7.71454 19.9024C6.75222 19.9024 5.84936 19.5244 5.17297 18.8383C4.49631 18.1524 4.12355 17.2368 4.12355 16.2609C4.12355 15.2848 4.49631 14.3692 5.1727 13.6833Z" fill="#212B36" stroke="#212B36" stroke-width="0.2"/>
</svg>
