<svg width="24" height="24" viewBox="0 0 24 24" fill="none" xmlns="http://www.w3.org/2000/svg">
<path d="M16.7114 5.95153C15.4529 4.69306 13.7797 4 12 4C10.2202 4 8.54699 4.69306 7.28852 5.95153C6.03002 7.21 5.33699 8.88322 5.33699 10.663C5.33699 11.8397 5.67987 13.0649 6.35602 14.3046C6.8818 15.2685 7.61071 16.2453 8.52246 17.2077C10.059 18.8296 11.5776 19.8489 11.6415 19.8914C11.75 19.9638 11.875 20 12 20C12.125 20 12.2499 19.9638 12.3585 19.8914C12.4224 19.8488 13.9409 18.8296 15.4775 17.2077C16.3892 16.2453 17.1181 15.2686 17.6439 14.3046C18.3201 13.0649 18.663 11.8397 18.663 10.663C18.6629 8.88322 17.9699 7.21 16.7114 5.95153ZM12 18.5595C10.7445 17.6299 6.62965 14.3043 6.62965 10.663C6.62965 7.70175 9.03874 5.29262 12 5.29262C14.9612 5.29262 17.3703 7.70175 17.3703 10.663C17.3703 14.3046 13.2549 17.6303 12 18.5595Z" fill="#212B36"/>
<path d="M12 8.01106C10.5378 8.01106 9.34814 9.20069 9.34814 10.6629C9.34814 12.1251 10.5378 13.3148 12 13.3148C13.4623 13.3148 14.6519 12.1252 14.6519 10.6629C14.6519 9.20069 13.4622 8.01106 12 8.01106ZM12 12.0221C11.2506 12.0221 10.6408 11.4124 10.6408 10.6629C10.6408 9.91347 11.2506 9.30372 12 9.30372C12.7495 9.30372 13.3592 9.91347 13.3592 10.6629C13.3592 11.4124 12.7495 12.0221 12 12.0221Z" fill="#212B36"/>
</svg>
