<svg width="24" height="24" viewBox="0 0 24 24" fill="none" xmlns="http://www.w3.org/2000/svg">
<path d="M17.6685 10.4804H6.33151C5.04592 10.4804 4 11.5263 4 12.8119V18.4804C4 19.7659 5.04592 20.8119 6.33151 20.8119H17.6685C18.9541 20.8119 20 19.766 20 18.4804V12.8119C20 11.5263 18.9541 10.4804 17.6685 10.4804ZM18.5762 18.4804C18.5762 18.9809 18.169 19.3881 17.6685 19.3881H6.33151C5.831 19.3881 5.42383 18.9809 5.42383 18.4804V12.8119C5.42383 12.3114 5.83103 11.9042 6.33151 11.9042V11.9042H17.6685C18.169 11.9042 18.5762 12.3114 18.5762 12.8119V18.4804H18.5762Z" fill="#212B36"/>
<path d="M12 3C9.61622 3 7.67688 4.93937 7.67688 7.32315V10.2646C7.67688 10.6215 7.96625 10.9109 8.32319 10.9109C8.68013 10.9109 8.9695 10.6215 8.9695 10.2646V7.32315C8.9695 5.65212 10.329 4.29262 12 4.29262C13.6711 4.29262 15.0306 5.65209 15.0306 7.32315V10.2646C15.0306 10.6215 15.3199 10.9109 15.6769 10.9109C16.0338 10.9109 16.3232 10.6215 16.3232 10.2646V7.32315C16.3232 4.93937 14.3838 3 12 3Z" fill="#212B36"/>
</svg>
