<svg width="24" height="24" viewBox="0 0 24 24" fill="none" xmlns="http://www.w3.org/2000/svg">
<path d="M17.4062 6H6.59403C5.5213 6 4.64859 6.87274 4.64859 7.94544V16.0546C4.64859 17.1273 5.5213 18 6.59403 18H17.4062C18.4789 18 19.3516 17.1273 19.3516 16.0546V7.94544C19.3516 6.87271 18.4789 6 17.4062 6ZM18.1638 16.0546C18.1638 16.4723 17.8239 16.8121 17.4062 16.8121H6.59403C6.17631 16.8121 5.83645 16.4723 5.83645 16.0546V7.94544C5.83645 7.52772 6.17631 7.18786 6.59403 7.18786H17.4062C17.8239 7.18786 18.1638 7.52772 18.1638 7.94544V16.0546Z" fill="#212B36"/>
<path d="M19.2449 7.60486C19.0568 7.33615 18.6866 7.27079 18.4177 7.45889L12.0007 11.9507L5.58375 7.45886C5.31504 7.27073 4.9447 7.33612 4.75661 7.60483C4.56851 7.87353 4.63387 8.24387 4.90258 8.43197L11.6602 13.1623C11.7624 13.2339 11.8816 13.2697 12.0008 13.2697C12.1199 13.2697 12.2391 13.2339 12.3413 13.1623L19.0989 8.432C19.3676 8.2439 19.433 7.87356 19.2449 7.60486Z" fill="#212B36"/>
</svg>
