<svg width="24" height="24" viewBox="0 0 24 24" fill="none" xmlns="http://www.w3.org/2000/svg">
<path d="M18.4344 5H14.1447C13.8324 5 13.5792 5.2532 13.5792 5.56552C13.5792 5.87784 13.8324 6.13105 14.1447 6.13105H17.8689V9.85519C17.8689 10.1675 18.1221 10.4207 18.4344 10.4207C18.7467 10.4207 18.9999 10.1675 18.9999 9.85519V5.56552C18.9999 5.2532 18.7467 5 18.4344 5Z" fill="#212B36" stroke="#212B36" stroke-width="0.2"/>
<path d="M9.85516 17.869H6.13105V14.1448C6.13105 13.8325 5.87784 13.5793 5.56552 13.5793C5.25317 13.5793 4.99997 13.8325 4.99997 14.1448V18.4345C4.99997 18.7469 5.25317 19 5.56549 19H9.85516C10.1675 19 10.4207 18.7469 10.4207 18.4345C10.4207 18.1222 10.1675 17.869 9.85516 17.869Z" fill="#212B36" stroke="#212B36" stroke-width="0.2"/>
<path d="M18.8343 5.16579C18.6134 4.94494 18.2554 4.94494 18.0345 5.16579L13.0299 10.1704C12.8091 10.3912 12.8091 10.7493 13.0299 10.9702C13.1403 11.0806 13.2851 11.1358 13.4298 11.1358C13.5745 11.1358 13.7193 11.0806 13.8297 10.9702L18.8343 5.96557C19.0551 5.74472 19.0551 5.38665 18.8343 5.16579Z" fill="#212B36" stroke="#212B36" stroke-width="0.2"/>
<path d="M10.9701 13.0301C10.7493 12.8092 10.3912 12.8092 10.1704 13.0301L5.16576 18.0346C4.94491 18.2555 4.94491 18.6135 5.16576 18.8344C5.27618 18.9449 5.42094 19 5.56564 19C5.71037 19 5.8551 18.9448 5.96554 18.8344L10.9701 13.8298C11.191 13.609 11.191 13.2509 10.9701 13.0301Z" fill="#212B36" stroke="#212B36" stroke-width="0.2"/>
</svg>
