<svg width="24" height="24" viewBox="0 0 24 24" fill="none" xmlns="http://www.w3.org/2000/svg">
<path d="M19.3537 11.3011H4.64631C4.28938 11.3011 4 11.614 4 12C4 12.386 4.28938 12.6989 4.64631 12.6989H19.3537C19.7107 12.6989 20 12.386 20 12C20 11.614 19.7107 11.3011 19.3537 11.3011Z" fill="#212B36" stroke="#212B36" stroke-width="0.2"/>
<path d="M19.3537 6H4.64631C4.28938 6 4 6.31291 4 6.69887C4 7.08483 4.28938 7.39774 4.64631 7.39774H19.3537C19.7107 7.39774 20 7.08483 20 6.69887C20 6.31291 19.7107 6 19.3537 6Z" fill="#212B36" stroke="#212B36" stroke-width="0.2"/>
<path d="M19.3537 16.6022H4.64631C4.28938 16.6022 4 16.9151 4 17.3011C4 17.6871 4.28938 18 4.64631 18H19.3537C19.7107 18 20 17.6871 20 17.3011C20 16.9151 19.7107 16.6022 19.3537 16.6022Z" fill="#212B36" stroke="#212B36" stroke-width="0.2"/>
</svg>
