<svg width="24" height="24" viewBox="0 0 24 24" fill="none" xmlns="http://www.w3.org/2000/svg">
<path d="M10.5701 12.8645H6.28032C5.96799 12.8645 5.71478 13.1177 5.71478 13.43C5.71478 13.7424 5.96799 13.9956 6.28032 13.9956H10.0046V17.7198C10.0046 18.0322 10.2578 18.2853 10.5701 18.2853C10.8825 18.2853 11.1356 18.0321 11.1356 17.7198V13.43C11.1356 13.1177 10.8824 12.8645 10.5701 12.8645Z" fill="#212B36" stroke="#212B36" stroke-width="0.2"/>
<path d="M17.7196 10.0046H13.9954V6.28035C13.9954 5.96802 13.7422 5.71481 13.4299 5.71481C13.1175 5.71481 12.8643 5.96802 12.8643 6.28035V10.5701C12.8643 10.8825 13.1175 11.1357 13.4299 11.1357H17.7197C18.032 11.1357 18.2852 10.8825 18.2852 10.5701C18.2852 10.2578 18.032 10.0046 17.7196 10.0046Z" fill="#212B36" stroke="#212B36" stroke-width="0.2"/>
<path d="M18.8345 5.16565C18.6136 4.94478 18.2556 4.94478 18.0347 5.16565L13.03 10.1704C12.8091 10.3912 12.8091 10.7493 13.03 10.9702C13.1404 11.0806 13.2852 11.1358 13.4299 11.1358C13.5746 11.1358 13.7194 11.0806 13.8298 10.9702L18.8345 5.96545C19.0553 5.74458 19.0553 5.38651 18.8345 5.16565Z" fill="#212B36" stroke="#212B36" stroke-width="0.2"/>
<path d="M10.9701 13.0301C10.7493 12.8093 10.3912 12.8093 10.1703 13.0301L5.16562 18.0348C4.94475 18.2557 4.94475 18.6138 5.16562 18.8346C5.27603 18.9451 5.4208 19.0003 5.56553 19.0003C5.71026 19.0003 5.855 18.9451 5.96544 18.8346L10.9702 13.8299C11.191 13.6091 11.191 13.251 10.9701 13.0301Z" fill="#212B36" stroke="#212B36" stroke-width="0.2"/>
</svg>
