<svg width="24" height="24" viewBox="0 0 24 24" fill="none" xmlns="http://www.w3.org/2000/svg">
<path d="M7.30961 13.7491L5.56055 12L7.30961 10.2509C7.56202 9.99851 7.56202 9.58929 7.30961 9.33689C7.05724 9.08448 6.64799 9.08448 6.39561 9.33689L4.18949 11.5429C3.93708 11.7954 3.93708 12.2046 4.18949 12.457L6.39558 14.6631C6.52177 14.7893 6.68721 14.8524 6.85261 14.8524C7.01802 14.8524 7.18342 14.7893 7.30964 14.6631C7.56205 14.4107 7.56205 14.0015 7.30961 13.7491Z" fill="#212B36"/>
<path d="M14.6632 6.39546L12.4571 4.18937C12.2047 3.93696 11.7955 3.93696 11.5431 4.18937L9.33701 6.39546C9.0846 6.64783 9.0846 7.05705 9.33701 7.30946C9.58938 7.56187 9.99863 7.56187 10.251 7.30946L12.0001 5.5604L13.7492 7.30949C13.8754 7.43568 14.0408 7.4988 14.2062 7.4988C14.3716 7.4988 14.537 7.43571 14.6632 7.30949C14.9156 7.05708 14.9156 6.64787 14.6632 6.39546Z" fill="#212B36"/>
<path d="M14.6632 16.6906C14.4108 16.4381 14.0016 16.4381 13.7492 16.6906L12.0001 18.4397L10.251 16.6906C9.9986 16.4381 9.58935 16.4381 9.33698 16.6906C9.08457 16.943 9.08457 17.3522 9.33698 17.6046L11.543 19.8107C11.6693 19.9369 11.8347 20 12.0001 20C12.1655 20 12.3309 19.9369 12.4571 19.8107L14.6632 17.6046C14.9156 17.3522 14.9156 16.943 14.6632 16.6906Z" fill="#212B36"/>
<path d="M19.8107 11.543L17.6046 9.33689C17.3522 9.08448 16.943 9.08448 16.6906 9.33689C16.4382 9.58926 16.4382 9.99848 16.6906 10.2509L18.4397 12L16.6905 13.7491C16.4382 14.0015 16.4382 14.4107 16.6905 14.6631C16.8167 14.7893 16.9822 14.8524 17.1476 14.8524C17.313 14.8524 17.4784 14.7893 17.6046 14.6631L19.8107 12.457C20.0631 12.2046 20.0631 11.7954 19.8107 11.543Z" fill="#212B36"/>
<path d="M19.3537 11.3537H4.64631C4.28937 11.3537 4 11.6431 4 12C4 12.357 4.28937 12.6463 4.64631 12.6463H19.3537C19.7107 12.6463 20 12.357 20 12C20 11.6431 19.7107 11.3537 19.3537 11.3537Z" fill="#212B36"/>
<path d="M12.0001 4C11.6431 4 11.3538 4.28937 11.3538 4.64631V19.3537C11.3538 19.7107 11.6431 20 12.0001 20C12.357 20 12.6464 19.7107 12.6464 19.3537V4.64631C12.6464 4.28937 12.357 4 12.0001 4Z" fill="#212B36"/>
</svg>
