<svg width="24" height="24" viewBox="0 0 24 24" fill="none" xmlns="http://www.w3.org/2000/svg">
<path d="M19.8109 18.8967L5.10355 4.18937C4.85117 3.93696 4.44192 3.93696 4.18955 4.18937C3.93714 4.44174 3.93714 4.85096 4.18955 5.10336L18.8969 19.8107C19.0231 19.9369 19.1885 20 19.3539 20C19.5193 20 19.6848 19.9369 19.8109 19.8107C20.0632 19.5583 20.0632 19.1491 19.8109 18.8967Z" fill="#212B36"/>
<path d="M18.0166 17.3703H5.9834C5.60256 17.3703 5.29271 17.0604 5.29271 16.6796V9.32593C5.29271 8.94505 5.60259 8.63524 5.9834 8.63524H7.98892C8.34586 8.63524 8.63523 8.34587 8.63523 7.98893C8.63523 7.632 8.34586 7.34262 7.98892 7.34262H5.9834C4.88981 7.34259 4.00006 8.23231 4.00006 9.32593V16.6796C4.00006 17.7732 4.88981 18.6629 5.9834 18.6629H18.0166C18.3736 18.6629 18.663 18.3736 18.663 18.0166C18.663 17.6597 18.3736 17.3703 18.0166 17.3703Z" fill="#212B36"/>
<path d="M18.0166 7.34258H15.6885L14.5433 5.62483C14.4234 5.44502 14.2217 5.33699 14.0056 5.33699H9.99445C9.63752 5.33699 9.34814 5.62636 9.34814 5.9833C9.34814 6.34024 9.63752 6.62961 9.99445 6.62961H13.6596L14.8048 8.34736C14.9247 8.52717 15.1264 8.63517 15.3425 8.63517H18.0166C18.3975 8.63517 18.7073 8.94501 18.7073 9.32585V15.5698C18.7073 15.9267 18.9966 16.2161 19.3536 16.2161C19.7106 16.2161 19.9999 15.9267 20 15.5698V9.32592C20 8.23233 19.1103 7.34258 18.0166 7.34258Z" fill="#212B36"/>
<path d="M14.5577 13.6593C14.2631 13.4577 13.861 13.5331 13.6594 13.8277C13.028 14.7504 11.7635 14.9875 10.8408 14.3561C9.91799 13.7247 9.68099 12.4603 10.3124 11.5375C10.4548 11.3294 10.6326 11.1516 10.8408 11.0091C11.1354 10.8075 11.2107 10.4053 11.0091 10.1107C10.8075 9.81615 10.4053 9.74077 10.1108 9.94236C9.76987 10.1756 9.47877 10.4667 9.24555 10.8076C8.21165 12.3186 8.59978 14.389 10.1108 15.4229C10.6829 15.8144 11.335 16.0019 11.981 16.0019C13.0408 16.0019 14.0837 15.4965 14.7261 14.5577C14.9277 14.2631 14.8523 13.8609 14.5577 13.6593Z" fill="#212B36"/>
</svg>
