<svg width="24" height="24" viewBox="0 0 24 24" fill="none" xmlns="http://www.w3.org/2000/svg">
<path d="M18.0166 7.34258H15.6885L14.5433 5.62483C14.4234 5.44502 14.2217 5.33699 14.0056 5.33699H9.99444C9.77834 5.33699 9.57653 5.44499 9.45669 5.62483L8.31153 7.34258H5.98334C4.88975 7.34258 4 8.2323 4 9.32593V16.6796C4 17.7732 4.88975 18.663 5.98334 18.663H18.0166C19.1103 18.663 20 17.7732 20 16.6796V9.32593C20 8.23233 19.1103 7.34258 18.0166 7.34258ZM18.7074 16.6796C18.7074 17.0605 18.3975 17.3703 18.0167 17.3703H5.98334C5.6025 17.3703 5.29266 17.0605 5.29266 16.6796V9.32593C5.29266 8.94508 5.60253 8.63524 5.98334 8.63524H8.65741C8.8735 8.63524 9.07531 8.52724 9.19519 8.34743L10.3403 6.62968H13.6596L14.8048 8.34743C14.9247 8.52724 15.1264 8.63524 15.3426 8.63524H18.0166C18.3975 8.63524 18.7073 8.94508 18.7073 9.32593V16.6796H18.7074Z" fill="#212B36"/>
<path d="M11.9999 9.34816C10.169 9.34816 8.6795 10.8377 8.6795 12.6685C8.6795 14.4994 10.169 15.9889 11.9999 15.9889C13.8307 15.9889 15.3202 14.4994 15.3202 12.6685C15.3202 10.8377 13.8307 9.34816 11.9999 9.34816ZM11.9999 14.6963C10.8818 14.6963 9.97213 13.7866 9.97213 12.6685C9.97213 11.5504 10.8818 10.6408 11.9999 10.6408C13.118 10.6408 14.0276 11.5504 14.0276 12.6685C14.0276 13.7867 13.118 14.6963 11.9999 14.6963Z" fill="#212B36"/>
</svg>
