<svg width="24" height="24" viewBox="0 0 24 24" fill="none" xmlns="http://www.w3.org/2000/svg">
<path d="M17.6578 7.15505C17.3798 6.87703 16.9291 6.87692 16.6511 7.15488C16.3731 7.43284 16.373 7.88354 16.6509 8.16157C17.8928 9.40388 18.5766 11.0555 18.5763 12.812C18.576 14.5686 17.8917 16.22 16.6494 17.4619C15.3673 18.7436 13.6839 19.3843 12 19.3842C10.3157 19.3841 8.63109 18.7428 7.3491 17.4604C4.78628 14.8967 4.78628 10.7253 7.3491 8.16157C7.62706 7.88354 7.62695 7.43284 7.34893 7.15488C7.0709 6.87692 6.62016 6.87703 6.34224 7.15505C4.83178 8.66593 4 10.6746 4 12.811C4 14.9474 4.83184 16.956 6.34224 18.4669C7.85298 19.9781 9.86184 20.8106 11.9987 20.811C11.9992 20.811 11.9995 20.811 12.0001 20.811C14.1364 20.8109 16.1451 19.9791 17.6559 18.4687C19.1672 16.958 19.9997 14.9491 20 12.8123C20.0003 10.6754 19.1685 8.66631 17.6578 7.15505Z" fill="#212B36"/>
<path d="M12.0039 3.18903C11.6108 3.18903 11.2921 3.50774 11.2921 3.90086V11.9988C11.2921 12.3919 11.6108 12.7106 12.0039 12.7106C12.3971 12.7106 12.7158 12.3919 12.7158 11.9988V3.90086C12.7158 3.50774 12.3971 3.18903 12.0039 3.18903Z" fill="#212B36"/>
</svg>
