<svg width="24" height="24" viewBox="0 0 24 24" fill="none" xmlns="http://www.w3.org/2000/svg">
<path d="M16.4123 3.99998H7.58787C7.23093 3.99998 6.94156 4.28936 6.94156 4.6463V9.79386C6.94156 10.1508 7.23093 10.4402 7.58787 10.4402C7.94481 10.4402 8.23418 10.1508 8.23418 9.79386V5.29261H15.766V9.79386C15.766 10.1508 16.0553 10.4402 16.4123 10.4402C16.7692 10.4402 17.0586 10.1508 17.0586 9.79386V4.6463C17.0586 4.28936 16.7693 3.99998 16.4123 3.99998Z" fill="#212B36"/>
<path d="M17.8829 9.14755H6.11706C4.94972 9.14755 4 10.0973 4 11.2646V14.9415C4 16.1088 4.94972 17.0585 6.11706 17.0585H7.58781C7.94475 17.0585 8.23413 16.7692 8.23413 16.4122C8.23413 16.0552 7.94475 15.7659 7.58781 15.7659H6.11706C5.66247 15.7659 5.29266 15.3961 5.29266 14.9415V11.2646C5.29266 10.8101 5.6625 10.4402 6.11706 10.4402H17.8829C18.3375 10.4402 18.7073 10.8101 18.7073 11.2646V14.9415C18.7073 15.3961 18.3375 15.7659 17.8829 15.7659H16.4122C16.0552 15.7659 15.7659 16.0552 15.7659 16.4122C15.7659 16.7691 16.0552 17.0585 16.4122 17.0585H17.8829C19.0503 17.0585 20 16.1088 20 14.9414V11.2646C20 10.0973 19.0503 9.14755 17.8829 9.14755Z" fill="#212B36"/>
<path d="M16.4123 12.8244H7.58787C7.23093 12.8244 6.94156 13.1137 6.94156 13.4707V19.3536C6.94156 19.7106 7.23093 19.9999 7.58787 19.9999H16.4123C16.7692 19.9999 17.0586 19.7106 17.0586 19.3536V13.4707C17.0586 13.1138 16.7693 12.8244 16.4123 12.8244ZM15.766 18.7074H8.23422V14.117H15.766V18.7074H15.766Z" fill="#212B36"/>
</svg>
