<svg width="24" height="24" viewBox="0 0 24 24" fill="none" xmlns="http://www.w3.org/2000/svg">
<path d="M17.6568 6.34316C16.1458 4.83216 14.1369 4 12 4C9.86312 4 7.85416 4.83219 6.34316 6.34316C4.83216 7.85413 4 9.86312 4 12C4 14.1369 4.83216 16.1458 6.34316 17.6568C7.85413 19.1678 9.86312 20 12 20C14.1369 20 16.1458 19.1678 17.6568 17.6568C19.1678 16.1458 20 14.1369 20 12C20 9.86312 19.1678 7.85413 17.6568 6.34316ZM12 18.7074C8.30156 18.7074 5.29262 15.6984 5.29262 12C5.29262 8.30156 8.30156 5.29262 12 5.29262C15.6984 5.29262 18.7074 8.30156 18.7074 12C18.7074 15.6984 15.6984 18.7074 12 18.7074Z" fill="#212B36"/>
<path d="M17.6561 16.742L7.25797 6.34394C7.00556 6.09153 6.59631 6.09153 6.34394 6.34394C6.09153 6.59634 6.09153 7.00556 6.34394 7.25797L16.742 17.6561C16.8682 17.7823 17.0337 17.8454 17.1991 17.8454C17.3645 17.8454 17.5299 17.7823 17.6561 17.6561C17.9084 17.4037 17.9084 16.9944 17.6561 16.742Z" fill="#212B36"/>
</svg>
