<svg width="24" height="24" viewBox="0 0 24 24" fill="none" xmlns="http://www.w3.org/2000/svg">
<path d="M11.5 4C9.02543 4 7.00008 5.96639 7.00008 8.36893C6.99335 8.83056 7.42454 9.26092 7.90006 9.26092C8.37559 9.26092 8.80678 8.83056 8.80005 8.36893C8.80005 6.91085 9.99821 5.74757 11.5 5.74757C13.0018 5.74757 14.2 6.91085 14.2 8.36893C14.2107 9.56546 13.5759 10.1778 12.6906 10.9903C12.248 11.3965 11.7565 11.8192 11.3406 12.3738C10.9248 12.9284 10.6 13.6492 10.6 14.4854C10.5933 14.9471 11.0245 15.3774 11.5 15.3774C11.9755 15.3774 12.4067 14.9471 12.4 14.4854C12.4 14.0536 12.5303 13.7537 12.7937 13.4023C13.0572 13.051 13.4673 12.6783 13.9281 12.2555C14.848 11.4111 16.0088 10.5033 15.9999 8.36893C15.9999 5.98292 13.9714 4 11.5 4ZM11.5 16.6699C10.8373 16.6699 10.3 17.1915 10.3 17.835C10.3 18.4784 10.8373 19 11.5 19C12.1627 19 12.7 18.4784 12.7 17.835C12.7 17.1915 12.1627 16.6699 11.5 16.6699Z" fill="#212B36"/>
</svg>
