<svg width="24" height="24" viewBox="0 0 24 24" fill="none" xmlns="http://www.w3.org/2000/svg">
<path d="M8.99011 10.2156H5.96023V7.18574C5.96023 6.86433 5.69966 6.60376 5.37825 6.60376C5.05684 6.60376 4.79626 6.86433 4.79626 7.18574V10.7976C4.79626 11.119 5.05684 11.3796 5.37825 11.3796H8.99011C9.31155 11.3796 9.5721 11.119 9.5721 10.7976C9.5721 10.4762 9.31152 10.2156 8.99011 10.2156Z" fill="#212B36" stroke="#212B36" stroke-width="0.2"/>
<path d="M18.6218 12.6235H15.0099C14.6885 12.6235 14.4279 12.8841 14.4279 13.2055C14.4279 13.527 14.6885 13.7875 15.0099 13.7875H18.0399V16.8174C18.0399 17.1388 18.3004 17.3993 18.6218 17.3993C18.9433 17.3993 19.2038 17.1388 19.2038 16.8174V13.2055C19.2038 12.8841 18.9433 12.6235 18.6218 12.6235Z" fill="#212B36" stroke="#212B36" stroke-width="0.2"/>
<path d="M17.6596 10.0014C17.125 8.49062 16.034 7.27845 14.5877 6.58818C13.1413 5.89792 11.5128 5.81223 10.002 6.34683C9.16675 6.64241 8.39395 7.12917 7.76661 7.75485L4.97988 10.3734C4.74565 10.5936 4.73417 10.9618 4.95428 11.1961C5.0688 11.318 5.22346 11.3796 5.37851 11.3796C5.5214 11.3796 5.66458 11.3273 5.77694 11.2217L8.57014 8.59713C8.57458 8.59296 8.57894 8.58874 8.58325 8.58444C9.08988 8.07753 9.71474 7.68329 10.3903 7.44419C12.904 6.55464 15.6728 7.87605 16.5623 10.3898C16.6696 10.6928 17.0022 10.8515 17.3051 10.7443C17.6081 10.637 17.7668 10.3044 17.6596 10.0014Z" fill="#212B36" stroke="#212B36" stroke-width="0.2"/>
<path d="M19.0459 12.807C18.8258 12.5727 18.4574 12.5613 18.2232 12.7814L15.4301 15.406C15.4256 15.4102 15.4213 15.4144 15.417 15.4187C14.5038 16.3323 13.2896 16.8356 11.9979 16.8359C11.9974 16.8359 11.9971 16.8359 11.9966 16.8359C10.7055 16.8359 9.49133 16.3332 8.57806 15.4204C8.07118 14.9138 7.67692 14.2889 7.43781 13.6133C7.33057 13.3103 6.99799 13.1516 6.69501 13.2588C6.392 13.3661 6.23327 13.6986 6.34051 14.0016C6.63713 14.8399 7.12631 15.6151 7.75517 16.2437C8.8883 17.3763 10.3945 17.9999 11.9966 17.9999C11.9971 17.9999 11.9976 17.9999 11.9981 17.9999C13.5976 17.9995 15.1014 17.3774 16.2336 16.2482L19.0203 13.6296C19.2545 13.4096 19.266 13.0412 19.0459 12.807Z" fill="#212B36" stroke="#212B36" stroke-width="0.2"/>
</svg>
