<svg width="24" height="24" viewBox="0 0 24 24" fill="none" xmlns="http://www.w3.org/2000/svg">
<path d="M15.6442 14.6141C14.262 13.8443 12.4336 13.4204 10.4959 13.4204C8.5581 13.4204 6.72977 13.8444 5.34765 14.6141C3.83379 15.4572 3.00006 16.627 3.00006 17.9079V18.66C3.00006 19.0616 3.32561 19.3871 3.72716 19.3871C4.12871 19.3871 4.45426 19.0616 4.45426 18.66V17.9079C4.45426 17.1886 5.03774 16.4511 6.05513 15.8846C7.22452 15.2333 8.80156 14.8746 10.4958 14.8746C12.1901 14.8746 13.7672 15.2333 14.9366 15.8846C15.954 16.4511 16.5374 17.1887 16.5374 17.9079V18.66C16.5374 19.0616 16.863 19.3871 17.2645 19.3871C17.6661 19.3871 17.9916 19.0616 17.9917 18.66V17.9079C17.9917 16.627 17.158 15.4572 15.6442 14.6141Z" fill="#212B36"/>
<path d="M14.2232 7.55044C14.1048 6.75183 13.7405 6.02793 13.1696 5.45707C12.5987 4.88613 11.8748 4.52181 11.0761 4.40337C10.7126 4.34947 10.3439 4.34947 9.98033 4.40337C7.9429 4.70553 6.5311 6.60888 6.83323 8.64632C6.97959 9.63329 7.50155 10.5042 8.30293 11.0986C8.9535 11.5812 9.72496 11.8346 10.5203 11.8346C10.7047 11.8346 10.8904 11.8209 11.0761 11.7934C13.1136 11.4912 14.5254 9.58784 14.2232 7.55044ZM10.8628 10.3549C10.2601 10.4443 9.65862 10.2936 9.16921 9.93061C8.67981 9.56759 8.36108 9.03575 8.27171 8.433C8.08718 7.18875 8.94938 6.02635 10.1936 5.84185C10.3046 5.8254 10.4164 5.81717 10.5282 5.81717C10.64 5.81717 10.7518 5.8254 10.8628 5.84185C11.8639 5.99031 12.6363 6.76266 12.7847 7.76376C12.9692 9.00801 12.107 10.1704 10.8628 10.3549Z" fill="#212B36"/>
<path d="M20.2729 10.4122H15.7604C15.3588 10.4122 15.0333 10.7377 15.0333 11.1393C15.0333 11.5408 15.3588 11.8664 15.7604 11.8664H20.2729C20.6745 11.8664 21 11.5408 21 11.1393C21 10.7377 20.6745 10.4122 20.2729 10.4122Z" fill="#212B36"/>
</svg>
