<svg width="24" height="24" viewBox="0 0 24 24" fill="none" xmlns="http://www.w3.org/2000/svg">
<g clip-path="url(#clip0)">
<path d="M18.4345 6.28592C18.1222 6.28592 17.8691 6.5391 17.8691 6.85139V10.1464H14.574C14.2617 10.1464 14.0085 10.3996 14.0085 10.7119C14.0085 11.0242 14.2617 11.2774 14.574 11.2774H18.4345C18.7468 11.2774 19 11.0242 19 10.7119V6.85139C19 6.5391 18.7468 6.28592 18.4345 6.28592Z" fill="#212B36" stroke="#212B36" stroke-width="0.2"/>
<path d="M18.822 10.3002L15.8491 7.50068C15.1835 6.83653 14.3633 6.32003 13.4767 6.00681C11.8759 5.44123 10.1507 5.53292 8.61875 6.26496C7.08689 6.99698 5.93178 8.28179 5.36621 9.88262C4.80063 11.4835 4.89234 13.2087 5.62439 14.7406C6.35643 16.2725 7.64121 17.4276 9.24205 17.9932C9.93469 18.2379 10.6505 18.3595 11.364 18.3595C12.2995 18.3595 13.231 18.1503 14.1 17.735C15.6319 17.0029 16.787 15.7182 17.3526 14.1173C17.4566 13.8229 17.3023 13.4998 17.0078 13.3958C16.7134 13.2918 16.3903 13.4461 16.2863 13.7406C15.8213 15.0566 14.8717 16.1128 13.6124 16.7146C12.3531 17.3164 10.9348 17.3918 9.61879 16.9268C8.30279 16.4619 7.24661 15.5123 6.6448 14.253C6.04299 12.9937 5.9676 11.5754 6.43256 10.2594C6.89751 8.94337 7.8471 7.88719 9.10642 7.28538C10.3658 6.68354 11.7841 6.60821 13.1001 7.07314C13.8311 7.33143 14.5073 7.75788 15.0554 8.30631C15.0595 8.31039 15.0636 8.31435 15.0677 8.31829L18.0467 11.1236C18.274 11.3377 18.6319 11.3269 18.846 11.0996C19.0601 10.8722 19.0494 10.5143 18.822 10.3002Z" fill="#212B36" stroke="#212B36" stroke-width="0.2"/>
</g>
<defs>
<clipPath id="clip0">
<rect width="14" height="14" fill="white" transform="translate(5 5)"/>
</clipPath>
</defs>
</svg>
