<svg width="24" height="24" viewBox="0 0 24 24" fill="none" xmlns="http://www.w3.org/2000/svg">
<path d="M9.42544 10.1419H6.13091V6.84736C6.13091 6.53507 5.87773 6.28189 5.56544 6.28189C5.25315 6.28189 5 6.53507 5 6.84736V10.7074C5 11.0197 5.25318 11.2728 5.56547 11.2728H9.42547C9.73779 11.2728 9.99094 11.0197 9.99094 10.7074C9.99094 10.3951 9.73774 10.1419 9.42544 10.1419Z" fill="#212B36" stroke="#212B36" stroke-width="0.2"/>
<path d="M18.6355 9.88809C18.0714 8.28695 16.9176 7.00133 15.3865 6.26806C13.8554 5.53478 12.1304 5.44159 10.5293 6.00572C9.64313 6.31793 8.82312 6.83317 8.15722 7.49606L5.17823 10.2952C4.95068 10.5091 4.93952 10.867 5.15338 11.0946C5.36726 11.3221 5.72511 11.3333 5.95269 11.1194L8.93775 8.31446C8.9419 8.31055 8.946 8.30659 8.95002 8.30254C9.49832 7.75517 10.1744 7.32979 10.9051 7.07232C13.6223 6.11504 16.6116 7.54679 17.5688 10.2638C18.5261 12.981 17.0944 15.9703 14.3773 16.9276C11.6602 17.8849 8.67084 16.4531 7.71357 13.736C7.6098 13.4415 7.28692 13.2868 6.99235 13.3906C6.69778 13.4944 6.54312 13.8173 6.64689 14.1118C7.21102 15.713 8.36484 16.9986 9.8959 17.7319C10.7663 18.1488 11.6992 18.3587 12.6365 18.3587C13.348 18.3587 14.0621 18.2377 14.7531 17.9942C16.3542 17.4301 17.6399 16.2763 18.3732 14.7452C19.1064 13.2142 19.1996 11.4892 18.6355 9.88809Z" fill="#212B36" stroke="#212B36" stroke-width="0.2"/>
</svg>
