<svg width="24" height="24" viewBox="0 0 24 24" fill="none" xmlns="http://www.w3.org/2000/svg">
<path d="M15.5646 5.98418C14.2851 4.70465 12.5839 4 10.7744 4C8.96486 4 7.26368 4.70465 5.98418 5.98418C4.70465 7.26368 4 8.96486 4 10.7744C4 12.5839 4.70465 14.2851 5.98418 15.5646C7.26368 16.8441 8.96489 17.5487 10.7744 17.5487C12.5839 17.5487 14.2851 16.8441 15.5646 15.5646C16.8441 14.2851 17.5488 12.5839 17.5488 10.7744C17.5487 8.96486 16.8441 7.26368 15.5646 5.98418ZM10.7744 16.2561C7.75171 16.2561 5.29262 13.797 5.29262 10.7744C5.29262 7.75171 7.75174 5.29262 10.7744 5.29262C13.797 5.29262 16.2561 7.75171 16.2561 10.7744C16.2561 13.797 13.797 16.2561 10.7744 16.2561Z" fill="#212B36"/>
<path d="M19.8108 18.8965L15.562 14.6478C15.3096 14.3954 14.9004 14.3954 14.648 14.6478C14.3956 14.9002 14.3956 15.3094 14.648 15.5618L18.8967 19.8106C19.0229 19.9368 19.1883 19.9999 19.3538 19.9999C19.5192 19.9999 19.6846 19.9368 19.8108 19.8106C20.0632 19.5582 20.0632 19.1489 19.8108 18.8965Z" fill="#212B36"/>
</svg>
