<svg width="24" height="24" viewBox="0 0 24 24" fill="none" xmlns="http://www.w3.org/2000/svg">
<path fill-rule="evenodd" clip-rule="evenodd" d="M18.9643 10.504C19.2004 10.5441 19.4249 10.66 19.6357 10.8508C19.8465 11.0405 19.9519 11.2755 19.9519 11.5526V12.5412C19.9519 12.8089 19.8465 13.0249 19.6357 13.1893C19.4249 13.3538 19.2004 13.4676 18.9643 13.5287L17.6828 13.8375C17.6335 13.9861 17.5793 14.133 17.5205 14.278C17.4635 14.4177 17.3991 14.5542 17.3276 14.6869L18.0063 15.8294C18.1402 16.0349 18.2224 16.272 18.254 16.5397C18.2708 16.6668 18.2572 16.7961 18.2141 16.9169C18.171 17.0376 18.0998 17.1464 18.0063 17.2342L17.3118 17.9287C17.2205 18.0232 17.1095 18.0963 16.9868 18.143C16.864 18.1896 16.7324 18.2086 16.6014 18.1985C16.3442 18.1895 16.094 18.1124 15.8763 17.9751L14.7645 17.2648C14.6224 17.3357 14.4783 17.4025 14.3323 17.465C14.1808 17.5298 14.026 17.5867 13.8686 17.6357L13.5914 18.9173C13.5413 19.1694 13.4207 19.4022 13.2436 19.5886C13.0539 19.7994 12.8189 19.9048 12.5417 19.9048H11.5531C11.4277 19.9079 11.3033 19.8808 11.1905 19.8257C11.0777 19.7707 10.9798 19.6894 10.905 19.5886C10.7469 19.3905 10.6314 19.162 10.5656 18.9173L10.2558 17.6494C10.0886 17.5973 9.92372 17.5382 9.76148 17.4724C9.5982 17.4059 9.43849 17.331 9.283 17.2479L8.14055 17.974C7.92662 18.1136 7.67814 18.1909 7.42283 18.1975C7.29284 18.209 7.16194 18.1907 7.04012 18.1439C6.91829 18.0972 6.80875 18.0232 6.71986 17.9277L6.00951 17.2321C5.92031 17.142 5.85301 17.0326 5.81281 16.9124C5.77261 16.7921 5.76058 16.6643 5.77765 16.5386C5.80927 16.2709 5.8862 16.0338 6.00951 15.8283L6.73567 14.6237C6.6732 14.4991 6.61381 14.3729 6.55755 14.2453C6.49949 14.1125 6.45055 13.9759 6.41106 13.8364L5.13054 13.5276C4.88544 13.462 4.65653 13.3465 4.45814 13.1883C4.35735 13.1135 4.27602 13.0156 4.22099 12.9028C4.16597 12.79 4.13886 12.6656 4.14196 12.5401V11.5516C4.14196 11.2744 4.24735 11.0394 4.45814 10.8497C4.66892 10.6589 4.89341 10.5441 5.13054 10.5019L6.39525 10.2237C6.43771 10.0765 6.48946 9.93221 6.55018 9.79159C6.61236 9.64826 6.67349 9.50915 6.73567 9.3753L6.00951 8.1707C5.88209 7.95333 5.80301 7.71106 5.77765 7.46037C5.76041 7.33458 5.77236 7.20651 5.81256 7.08607C5.85277 6.96563 5.92016 6.85607 6.00951 6.76586L6.71986 6.07134C6.80875 5.97581 6.91829 5.90185 7.04012 5.85509C7.16194 5.80833 7.29284 5.79002 7.42283 5.80154C7.70528 5.8163 7.94452 5.89112 8.13949 6.02497L9.283 6.7511C9.5889 6.58799 9.90926 6.45357 10.24 6.34957L10.5646 5.08279C10.6203 4.83744 10.7309 4.60792 10.8881 4.41146C10.9655 4.30956 11.0662 4.22768 11.1817 4.17267C11.2972 4.11766 11.4242 4.09113 11.5521 4.09529H12.5407C12.8179 4.09529 13.0497 4.20068 13.2352 4.41146C13.4207 4.62224 13.5387 4.84145 13.5904 5.06803L13.8686 6.36432C14.1756 6.46678 14.4749 6.59074 14.7645 6.73529L15.8753 6.02497C16.093 5.88765 16.3432 5.81055 16.6004 5.80154C16.7313 5.79149 16.8629 5.81045 16.9857 5.85709C17.1085 5.90372 17.2195 5.97688 17.3107 6.07134L18.0063 6.76691C18.0995 6.85468 18.1704 6.96333 18.2133 7.0839C18.2561 7.20447 18.2697 7.33351 18.2529 7.46037C18.2268 7.71319 18.142 7.95642 18.0053 8.1707L17.3265 9.31312C17.3982 9.4575 17.4678 9.604 17.5352 9.75365C17.6016 9.90225 17.6554 10.0593 17.6965 10.2237L18.9622 10.5019L18.9643 10.504ZM18.9643 12.4643L18.9791 11.5832C18.9161 11.5316 18.8422 11.4949 18.763 11.4757L16.9261 11.0584L16.7564 10.5188C16.7246 10.3922 16.6834 10.2682 16.6331 10.1478C16.5776 10.0163 16.5157 9.88752 16.4476 9.76208L16.1999 9.2678L17.1727 7.64691C17.2016 7.60932 17.225 7.5678 17.2422 7.52361C17.2549 7.49416 17.2628 7.46283 17.2654 7.43086L16.6173 6.79853C16.546 6.79901 16.4764 6.82026 16.417 6.85965L14.8256 7.87877L14.3165 7.6153C14.1942 7.5542 14.0709 7.49517 13.9466 7.43824C13.8228 7.38171 13.6936 7.33793 13.5609 7.30756L13.0202 7.12207L12.6187 5.25457C12.6086 5.21398 12.593 5.17497 12.5723 5.13864L12.5407 5.08489H11.6301C11.6051 5.11212 11.5845 5.14305 11.569 5.17658C11.5459 5.22565 11.5303 5.27786 11.5226 5.33151L11.0747 7.12313L10.5498 7.29175C10.2723 7.38003 10.0035 7.49362 9.74673 7.6311L9.23768 7.89458L7.58618 6.84385L7.50819 6.80591C7.47824 6.79072 7.44725 6.77769 7.41545 6.76691L6.76728 7.41506C6.76728 7.44667 6.77572 7.48251 6.79047 7.52361C6.8098 7.57181 6.83307 7.61834 6.86003 7.66272L7.86336 9.32998L7.61675 9.80845C7.55995 9.93056 7.50584 10.0539 7.45444 10.1784C7.40889 10.2894 7.37017 10.403 7.33851 10.5188L7.16988 11.0584L5.30128 11.4757C5.26611 11.4878 5.23222 11.5033 5.2001 11.5221C5.17905 11.5368 5.15547 11.5475 5.13054 11.5537V12.4632C5.15162 12.4843 5.18324 12.5022 5.22329 12.518C5.27363 12.5355 5.3255 12.5482 5.37821 12.556L7.18464 13.0197L7.35327 13.5445C7.42302 13.7699 7.51665 13.9872 7.63256 14.1927L7.86442 14.6711L6.86003 16.3542C6.83111 16.3918 6.80769 16.4333 6.79047 16.4775C6.77636 16.512 6.76851 16.5488 6.76728 16.586L7.41545 17.2184C7.44707 17.2184 7.48079 17.211 7.51662 17.1952C7.55157 17.1804 7.58508 17.1624 7.61675 17.1415L9.23768 16.1065L9.74673 16.37C10.0035 16.5075 10.2723 16.6211 10.5498 16.7094L11.0747 16.878L11.5384 18.7012C11.5489 18.7518 11.5616 18.7961 11.5763 18.8319C11.5888 18.8631 11.607 18.8917 11.6301 18.9162H12.5259C12.5759 18.8579 12.6129 18.7896 12.6345 18.716L13.035 16.879L13.5756 16.6935C13.8299 16.6091 14.0775 16.5059 14.3165 16.3848L14.8266 16.1223L16.4476 17.1573L16.5245 17.1952C16.5545 17.2102 16.5855 17.2233 16.6173 17.2342L17.2654 16.586C17.2642 16.5488 17.2563 16.512 17.2422 16.4775C17.2232 16.4291 17.2 16.3826 17.1727 16.3384L16.1999 14.7333L16.4476 14.239C16.5087 14.1263 16.5635 14.0103 16.6099 13.8912C16.6562 13.7732 16.6995 13.652 16.7406 13.5287L16.9102 13.0197L18.7472 12.556C18.7923 12.5479 18.8365 12.5351 18.879 12.518C18.9103 12.5052 18.9389 12.4866 18.9633 12.4632L18.9643 12.4643ZM12.0474 9.03595C12.8706 9.03595 13.5735 9.32366 14.1553 9.90014C14.437 10.1714 14.6599 10.4978 14.8098 10.859C14.9598 11.2202 15.0337 11.6085 15.0269 11.9995C15.0337 12.3905 14.9598 12.7788 14.8098 13.14C14.6599 13.5012 14.437 13.8276 14.1553 14.0989C13.881 14.3785 13.5527 14.5993 13.1903 14.7478C12.8279 14.8964 12.4391 14.9696 12.0474 14.9631C11.6583 14.9685 11.2722 14.8947 10.9125 14.7462C10.5528 14.5976 10.2272 14.3774 9.9554 14.0989C9.67345 13.8277 9.45044 13.5013 9.3003 13.1401C9.15015 12.7789 9.0761 12.3906 9.08275 11.9995C9.0761 11.6084 9.15015 11.2201 9.3003 10.8589C9.45044 10.4977 9.67345 10.1713 9.9554 9.90014C10.2272 9.62164 10.5528 9.4014 10.9125 9.25282C11.2722 9.10425 11.6583 9.03046 12.0474 9.03595ZM12.0474 13.9756C12.5934 13.9756 13.0592 13.7827 13.4449 13.3959C13.8307 13.0102 14.0235 12.5454 14.0235 11.9995C14.0235 11.4536 13.8307 10.9878 13.4439 10.602C13.263 10.4153 13.0457 10.2677 12.8056 10.1682C12.5654 10.0687 12.3074 10.0194 12.0474 10.0234C11.5015 10.0234 11.0357 10.2163 10.6499 10.6031C10.4631 10.7839 10.3154 11.0011 10.2159 11.2413C10.1164 11.4815 10.0672 11.7395 10.0713 11.9995C10.0713 12.5454 10.2642 13.0112 10.651 13.397C11.0367 13.7827 11.5015 13.9756 12.0474 13.9756Z" fill="#212B36"/>
<path fill-rule="evenodd" clip-rule="evenodd" d="M15.8753 6.02497C16.093 5.88765 16.3432 5.81055 16.6004 5.80154C16.7314 5.79148 16.8629 5.81045 16.9857 5.85709C17.1085 5.90372 17.2195 5.97688 17.3107 6.07134L18.0063 6.76691C18.0995 6.85468 18.1704 6.96333 18.2133 7.0839C18.2562 7.20447 18.2698 7.33351 18.253 7.46037C18.2268 7.71319 18.142 7.95641 18.0053 8.1707L17.3266 9.31312C17.3982 9.4575 17.4678 9.60399 17.5352 9.75365C17.6016 9.90225 17.6554 10.0593 17.6965 10.2237L18.9622 10.5019L18.9643 10.504C19.2004 10.5441 19.4249 10.66 19.6357 10.8508C19.8465 11.0405 19.9519 11.2755 19.9519 11.5526V12.5412C19.9519 12.8089 19.8465 13.0249 19.6357 13.1893C19.4249 13.3538 19.2004 13.4676 18.9643 13.5287L17.6828 13.8375C17.6335 13.9861 17.5793 14.133 17.5205 14.278C17.4635 14.4177 17.3992 14.5542 17.3276 14.6869L18.0063 15.8294C18.1402 16.0349 18.2224 16.272 18.254 16.5397C18.2708 16.6668 18.2572 16.7961 18.2141 16.9169C18.171 17.0376 18.0998 17.1464 18.0063 17.2342L17.3118 17.9287C17.2205 18.0232 17.1096 18.0963 16.9868 18.143C16.864 18.1896 16.7324 18.2086 16.6015 18.1985C16.3442 18.1895 16.094 18.1124 15.8764 17.9751L14.7645 17.2648C14.6224 17.3357 14.4783 17.4025 14.3324 17.465C14.1808 17.5298 14.026 17.5867 13.8686 17.6357L13.5914 18.9173C13.5413 19.1694 13.4207 19.4022 13.2437 19.5886C13.0539 19.7994 12.8189 19.9048 12.5417 19.9048H11.5532C11.4277 19.9079 11.3033 19.8808 11.1905 19.8257C11.0777 19.7707 10.9798 19.6894 10.905 19.5886C10.7469 19.3905 10.6314 19.162 10.5656 18.9173L10.2558 17.6494C10.0886 17.5973 9.92373 17.5382 9.76149 17.4724C9.59821 17.4059 9.4385 17.331 9.28301 17.2479L8.14056 17.974C7.92664 18.1135 7.67816 18.1909 7.42284 18.1975C7.29285 18.209 7.16196 18.1907 7.04013 18.1439C6.9183 18.0971 6.80876 18.0232 6.71987 17.9277L6.00953 17.2321C5.92033 17.142 5.85303 17.0326 5.81282 16.9124C5.77262 16.7921 5.76059 16.6642 5.77766 16.5386C5.80928 16.2709 5.88622 16.0338 6.00953 15.8283L6.73568 14.6237C6.67322 14.4991 6.61383 14.3729 6.55757 14.2453C6.49951 14.1125 6.45056 13.9759 6.41107 13.8364L5.13055 13.5276C4.88545 13.462 4.65654 13.3465 4.45815 13.1883C4.35736 13.1135 4.27603 13.0156 4.22101 12.9028C4.16598 12.79 4.13888 12.6656 4.14197 12.5401V11.5516C4.14197 11.2744 4.24737 11.0394 4.45815 10.8497C4.66894 10.6589 4.89342 10.5441 5.13055 10.5019L6.39526 10.2237C6.43772 10.0765 6.48947 9.9322 6.55019 9.79159C6.61237 9.64826 6.6735 9.50914 6.73568 9.3753L6.00953 8.1707C5.88211 7.95333 5.80302 7.71105 5.77766 7.46037C5.76042 7.33458 5.77237 7.2065 5.81258 7.08607C5.85278 6.96563 5.92017 6.85606 6.00953 6.76585L6.71987 6.07134C6.80876 5.97581 6.9183 5.90184 7.04013 5.85509C7.16196 5.80833 7.29285 5.79001 7.42284 5.80154C7.70529 5.81629 7.94453 5.89112 8.1395 6.02497L9.28301 6.7511C9.58891 6.58799 9.90927 6.45357 10.24 6.34957L10.5646 5.08278C10.6203 4.83744 10.731 4.60791 10.8881 4.41145C10.9655 4.30955 11.0662 4.22767 11.1817 4.17267C11.2972 4.11766 11.4242 4.09112 11.5521 4.09528H12.5407C12.8179 4.09528 13.0497 4.20067 13.2352 4.41145C13.4207 4.62223 13.5388 4.84144 13.5904 5.06803L13.8686 6.36432C14.1756 6.46677 14.4749 6.59074 14.7645 6.73529L15.8753 6.02497ZM14.7585 6.62651L15.8244 5.94489L15.8247 5.94474C16.056 5.79881 16.3218 5.71672 16.5951 5.70681C16.7393 5.69603 16.8842 5.71705 17.0194 5.76841C17.155 5.8199 17.2775 5.90061 17.3784 6.00482C17.3786 6.00502 17.3788 6.00522 17.379 6.00543L18.0724 6.69886C18.176 6.79677 18.2549 6.91782 18.3026 7.05211C18.3504 7.18643 18.3657 7.33014 18.3472 7.47148C18.3194 7.73799 18.23 7.99439 18.0861 8.22043L17.4344 9.31728C17.4985 9.44767 17.561 9.57988 17.6217 9.71467L17.6218 9.71495C17.6828 9.85149 17.7334 9.99462 17.7736 10.1435L19.0097 10.4152L19.0105 10.416C19.2561 10.4641 19.4864 10.5877 19.6992 10.7803C19.9296 10.9876 20.0467 11.2481 20.0467 11.5526V12.5412C20.0467 12.8381 19.9279 13.0817 19.694 13.2641C19.4741 13.4357 19.238 13.5558 18.9881 13.6205L18.9873 13.6207L17.756 13.9174C17.7106 14.0509 17.6614 14.1831 17.6084 14.3137L17.6083 14.3138C17.5569 14.44 17.4995 14.5636 17.4364 14.6843L18.0869 15.7793C18.2288 15.9977 18.315 16.2483 18.3481 16.5279C18.3668 16.6697 18.3515 16.814 18.3034 16.9487C18.2555 17.0832 18.1763 17.2044 18.0724 17.3023L17.38 17.9946C17.3798 17.9948 17.3796 17.995 17.3795 17.9952C17.2786 18.0994 17.156 18.1801 17.0204 18.2316C16.8852 18.283 16.7404 18.304 16.5962 18.2932C16.3229 18.2833 16.0571 18.2012 15.8257 18.0553L15.8255 18.0552L15.8253 18.055L14.7586 17.3735C14.6305 17.4365 14.5009 17.496 14.3697 17.5522L14.3696 17.5522C14.2321 17.611 14.092 17.6635 13.9497 17.7095L13.6845 18.9358C13.6844 18.936 13.6844 18.9363 13.6843 18.9365C13.6307 19.2056 13.5021 19.454 13.3133 19.653C13.1061 19.8828 12.8459 19.9996 12.5417 19.9996H11.5543C11.414 20.0029 11.275 19.9725 11.1489 19.911C11.023 19.8495 10.9136 19.7589 10.8298 19.6465C10.6642 19.4385 10.543 19.1987 10.474 18.9419L10.4737 18.9408L10.1763 17.7238C10.0242 17.6749 9.8739 17.6204 9.72582 17.5603L9.72573 17.5602C9.57655 17.4995 9.43029 17.4318 9.28744 17.3575L8.19238 18.0535C8.19222 18.0536 8.19206 18.0537 8.1919 18.0538C7.96419 18.2022 7.69988 18.2847 7.42822 18.2922C7.28483 18.3045 7.14052 18.284 7.00614 18.2325C6.87153 18.1808 6.75043 18.0992 6.65198 17.9939L5.94263 17.2993L5.94212 17.2988C5.84269 17.1984 5.76767 17.0765 5.72286 16.9424C5.67813 16.8087 5.66469 16.6664 5.68355 16.5267C5.71659 16.2478 5.7972 15.9978 5.92818 15.7795L5.92828 15.7793L6.62756 14.6193C6.57289 14.5086 6.52062 14.3966 6.47077 14.2836L6.47065 14.2833C6.4183 14.1636 6.37316 14.0409 6.33544 13.9158L5.10716 13.6196L5.10602 13.6193C4.84882 13.5504 4.60858 13.4293 4.40028 13.2635C4.2879 13.1797 4.1972 13.0703 4.13575 12.9444C4.07423 12.8183 4.04384 12.6793 4.04711 12.539V11.5516C4.04711 11.247 4.16428 10.9866 4.3946 10.7793C4.61593 10.579 4.85556 10.4549 5.11202 10.4089L6.32025 10.1431C6.36059 10.0108 6.40828 9.88093 6.4631 9.75398L6.46316 9.75383C6.5184 9.62652 6.57305 9.50195 6.62847 9.3812L5.92798 8.21917L5.92769 8.21867C5.79366 7.99002 5.71036 7.73522 5.68345 7.47157C5.66457 7.33189 5.67796 7.18974 5.7226 7.05603C5.76742 6.92178 5.84253 6.79965 5.94213 6.6991L5.94267 6.69856L6.65199 6.00503C6.75045 5.89974 6.87154 5.81818 7.00614 5.76652C7.14091 5.7148 7.28568 5.69441 7.42948 5.7069C7.72466 5.72257 7.98052 5.8012 8.19176 5.94578L9.28744 6.64154C9.568 6.49542 9.86023 6.37288 10.1611 6.27518L10.4724 5.06049C10.5313 4.80203 10.6479 4.56022 10.8133 4.35311C10.8998 4.2396 11.0121 4.14837 11.1409 4.08702C11.2696 4.02572 11.4111 3.99604 11.5536 4.00042H12.5407C12.8455 4.00042 13.1032 4.1178 13.3064 4.34878C13.5003 4.56913 13.6271 4.80221 13.6829 5.04695L13.683 5.04754L13.9501 6.29172C14.2263 6.3863 14.4963 6.49812 14.7585 6.62651ZM18.7472 12.556L16.9103 13.0197L16.7406 13.5287C16.6995 13.652 16.6563 13.7732 16.6099 13.8912C16.5635 14.0103 16.5087 14.1263 16.4476 14.239L16.1999 14.7333L17.1727 16.3384C17.2 16.3826 17.2233 16.4291 17.2422 16.4775C17.2564 16.512 17.2642 16.5488 17.2654 16.586L16.6173 17.2342C16.5855 17.2233 16.5545 17.2102 16.5245 17.1952L16.4476 17.1573L14.8266 16.1223L14.3165 16.3848C14.0776 16.5059 13.8299 16.6091 13.5756 16.6935L13.035 16.879L12.6345 18.716C12.6129 18.7896 12.5759 18.8579 12.5259 18.9162H11.6301C11.607 18.8917 11.5888 18.8631 11.5763 18.8319C11.5616 18.7961 11.5489 18.7518 11.5384 18.7012L11.0747 16.878L10.5498 16.7094C10.2723 16.6211 10.0035 16.5075 9.74674 16.37L9.23769 16.1065L7.61676 17.1414C7.5851 17.1624 7.55158 17.1804 7.51664 17.1952C7.4808 17.211 7.44708 17.2184 7.41546 17.2184L6.7673 16.586C6.76852 16.5488 6.77637 16.512 6.79048 16.4775C6.8077 16.4333 6.83112 16.3918 6.86004 16.3542L7.86443 14.6711L7.63257 14.1927C7.51666 13.9872 7.42303 13.7699 7.35328 13.5445L7.18465 13.0197L5.37823 12.556C5.32551 12.5482 5.27364 12.5355 5.2233 12.518C5.18325 12.5022 5.15163 12.4843 5.13055 12.4632V11.5537C5.15548 11.5475 5.17906 11.5368 5.20011 11.5221C5.23223 11.5033 5.26612 11.4878 5.30129 11.4757L7.1699 11.0584L7.33852 10.5188C7.37019 10.403 7.4089 10.2894 7.45446 10.1784C7.50585 10.0539 7.55997 9.93056 7.61676 9.80845L7.86338 9.32998L6.86004 7.66272C6.83308 7.61833 6.80981 7.57181 6.79048 7.5236C6.77573 7.4825 6.7673 7.44667 6.7673 7.41505L7.41546 6.76691C7.44726 6.77769 7.47825 6.79072 7.5082 6.8059L7.5862 6.84384L9.23769 7.89458L9.74674 7.6311C10.0035 7.49362 10.2723 7.38002 10.5498 7.29175L11.0747 7.12312L11.5226 5.3315C11.5303 5.27785 11.5459 5.22564 11.569 5.17658C11.5845 5.14305 11.6051 5.11212 11.6301 5.08489H12.5407L12.5723 5.13864C12.593 5.17496 12.6086 5.21398 12.6187 5.25457L13.0202 7.12207L13.5609 7.30756C13.6936 7.33792 13.8228 7.38171 13.9466 7.43824C14.0709 7.49517 14.1942 7.55419 14.3165 7.61529L14.8256 7.87877L16.417 6.85965C16.4764 6.82025 16.546 6.79901 16.6173 6.79852L17.2654 7.43086C17.2628 7.46283 17.255 7.49416 17.2422 7.5236C17.225 7.5678 17.2016 7.60932 17.1727 7.64691L16.1999 9.2678L16.4476 9.76208C16.5157 9.88752 16.5776 10.0162 16.6331 10.1478C16.6834 10.2682 16.7246 10.3922 16.7564 10.5188L16.9261 11.0584L18.7631 11.4757C18.8422 11.4949 18.9161 11.5316 18.9791 11.5832L18.9643 12.4643L18.9633 12.4632C18.9629 12.4636 18.9626 12.4639 18.9622 12.4642C18.9381 12.4872 18.9098 12.5054 18.879 12.518C18.8365 12.5351 18.7923 12.5478 18.7472 12.556ZM18.8433 12.4301C18.8527 12.4263 18.8617 12.4216 18.8703 12.4162L18.8834 11.6303C18.8402 11.6015 18.7921 11.5804 18.7414 11.5681C18.7411 11.568 18.7409 11.568 18.7407 11.5679L16.8519 11.1388L16.6651 10.5446L16.6644 10.5419C16.6338 10.4199 16.5941 10.3004 16.5456 10.1844C16.4914 10.0558 16.4308 9.92999 16.3642 9.80736L16.3635 9.80598L16.0917 9.26369L17.0942 7.5934L17.0975 7.58906C17.1209 7.55861 17.1399 7.52498 17.1538 7.48917L17.1545 7.48757L17.1552 7.48599C17.1583 7.47872 17.161 7.47128 17.1632 7.46371L16.5814 6.89609C16.5416 6.90177 16.5033 6.91627 16.4695 6.9387L16.4688 6.93912L14.8306 7.98819L14.2742 7.70015C14.274 7.70006 14.2738 7.69996 14.2736 7.69986C14.1524 7.63934 14.0302 7.58088 13.9071 7.52448C13.7892 7.47065 13.6661 7.42895 13.5397 7.40003L13.5348 7.39891L12.9387 7.19441L12.5263 5.27602C12.5184 5.24458 12.5062 5.21436 12.4902 5.18617C12.4901 5.18599 12.49 5.18582 12.4899 5.18564L12.4864 5.17975H11.6757C11.6679 5.19139 11.661 5.20366 11.6551 5.21644L11.6549 5.21667L11.6548 5.21689C11.6358 5.25746 11.6229 5.30064 11.6165 5.345L11.6158 5.3498L11.1539 7.1973L10.5786 7.38215C10.3066 7.46866 10.0431 7.57999 9.79152 7.71473L9.79093 7.71504L9.23282 8.00391L7.53984 6.92678L7.46601 6.89086L7.46531 6.89051C7.45654 6.88607 7.44767 6.88183 7.4387 6.87782L6.86695 7.44955C6.86964 7.46089 6.8736 7.47423 6.87918 7.48993C6.89645 7.53272 6.91716 7.57403 6.94112 7.61347L6.94132 7.61381L7.97194 9.32641L7.70196 9.85019C7.64606 9.97044 7.59279 10.0919 7.54218 10.2145C7.49811 10.3219 7.46065 10.4318 7.43002 10.5438L7.42957 10.5454L7.24408 11.139L5.32737 11.5671C5.30085 11.5765 5.27523 11.5883 5.25081 11.6023C5.24259 11.6079 5.23411 11.6131 5.22541 11.6178V12.415C5.23371 12.4194 5.24389 12.4241 5.25629 12.429C5.30044 12.4442 5.3459 12.4553 5.39208 12.4621L5.397 12.4628L7.25895 12.9408L7.44375 13.516L7.4439 13.5165C7.51166 13.7354 7.6026 13.9464 7.71519 14.146L7.71664 14.1486L7.97211 14.6758L6.93864 16.4076L6.93523 16.412C6.9118 16.4425 6.89282 16.4761 6.87888 16.5119L6.87859 16.5127L6.87829 16.5134C6.87336 16.5255 6.86952 16.5379 6.86681 16.5506L7.44922 17.1188C7.45814 17.1164 7.46783 17.113 7.47835 17.1084L7.47897 17.1081L7.47959 17.1079C7.50921 17.0953 7.53761 17.0801 7.56444 17.0623L7.56507 17.0619L9.23273 15.9971L9.79093 16.2861L9.79152 16.2864C10.0431 16.4211 10.3066 16.5324 10.5786 16.619L11.1537 16.8037L11.6309 18.6798L11.6313 18.6819C11.6411 18.729 11.6523 18.7671 11.6641 18.7958L11.6643 18.7963L11.6645 18.7967C11.6679 18.8053 11.6719 18.8135 11.6766 18.8213H12.4797C12.5074 18.7821 12.5286 18.7385 12.5426 18.6923L12.9537 16.8066L13.5449 16.6038L13.5453 16.6037L13.5457 16.6035C13.7955 16.5206 14.0387 16.4192 14.2735 16.3002C14.2735 16.3002 14.2736 16.3002 14.2737 16.3001L14.8317 16.013L16.4942 17.0745L16.5665 17.1101L16.5667 17.1102L16.567 17.1104C16.5759 17.1149 16.585 17.1191 16.5941 17.1232L17.166 16.5513C17.1633 16.5383 17.1595 16.5257 17.1544 16.5134L17.1542 16.5128L17.1539 16.5122C17.137 16.4691 17.1163 16.4276 17.092 16.3882L17.0918 16.3879L16.0916 14.7377L16.3635 14.1952L16.3642 14.1938C16.4237 14.0841 16.4767 13.9718 16.5215 13.8568L16.5216 13.8566C16.5672 13.7404 16.6099 13.6208 16.6506 13.4987L16.8367 12.9404L18.7272 12.4632L18.7305 12.4626C18.7691 12.4556 18.8069 12.4448 18.8433 12.4301ZM12.0475 9.03594C12.8706 9.03594 13.5735 9.32366 14.1553 9.90014C14.4371 10.1714 14.6599 10.4978 14.8098 10.859C14.9598 11.2202 15.0337 11.6085 15.0269 11.9995C15.0337 12.3905 14.9598 12.7788 14.8098 13.14C14.6599 13.5012 14.4371 13.8276 14.1553 14.0989C13.881 14.3785 13.5527 14.5993 13.1903 14.7478C12.8279 14.8964 12.4391 14.9696 12.0475 14.963C11.6583 14.9685 11.2722 14.8947 10.9125 14.7462C10.5529 14.5976 10.2272 14.3774 9.95541 14.0989C9.67347 13.8277 9.45046 13.5013 9.30031 13.1401C9.15016 12.7789 9.07611 12.3906 9.08277 11.9995C9.07611 11.6084 9.15016 11.2201 9.30031 10.8589C9.45046 10.4977 9.67347 10.1713 9.95541 9.90014C10.2272 9.62164 10.5529 9.4014 10.9125 9.25282C11.2722 9.10425 11.6583 9.03046 12.0475 9.03594ZM9.88858 9.8328C9.59774 10.1128 9.36768 10.4497 9.21272 10.8225C9.05777 11.1952 8.98124 11.5959 8.98789 11.9995C8.98124 12.4031 9.05777 12.8038 9.21272 13.1765C9.36767 13.5493 9.59773 13.8862 9.88856 14.1662C10.1691 14.4534 10.5052 14.6805 10.8763 14.8338C11.2474 14.9871 11.6458 15.0634 12.0473 15.0579C12.4513 15.0645 12.8524 14.9889 13.2263 14.8356C13.6002 14.6823 13.939 14.4546 14.2221 14.1663C14.5127 13.8862 14.7427 13.5492 14.8974 13.1764C15.0522 12.8036 15.1286 12.403 15.1218 11.9995C15.1286 11.596 15.0522 11.1954 14.8974 10.8226C14.7426 10.4496 14.5125 10.1125 14.2216 9.83225C13.6221 9.23851 12.8955 8.94124 12.0481 8.94108C11.6464 8.93551 11.2477 9.01174 10.8763 9.16515C10.5052 9.31845 10.1692 9.5456 9.88858 9.8328ZM13.3778 13.3289L13.3779 13.3288C13.7458 12.9609 13.9287 12.5202 13.9287 11.9995C13.9287 11.4787 13.7458 11.0371 13.3769 10.6692L13.3763 10.6686L13.3758 10.668C13.2039 10.4907 12.9975 10.3504 12.7693 10.2558C12.5411 10.1613 12.2959 10.1145 12.0489 10.1183L12.0482 10.1183H12.0475C11.5267 10.1183 11.085 10.3012 10.7171 10.6701L10.7165 10.6707L10.7159 10.6712C10.5385 10.8431 10.3981 11.0494 10.3035 11.2776C10.209 11.5058 10.1622 11.751 10.1662 11.998L10.1662 11.9987V11.9995C10.1662 12.5203 10.3491 12.9619 10.718 13.3298L10.7181 13.3299C11.086 13.6978 11.5267 13.8807 12.0475 13.8807C12.5682 13.8807 13.0099 13.6978 13.3778 13.3289ZM10.6499 10.6031C11.0357 10.2163 11.5015 10.0234 12.0475 10.0234C12.3074 10.0194 12.5654 10.0687 12.8056 10.1682C13.0457 10.2677 13.263 10.4153 13.4439 10.602C13.8307 10.9878 14.0236 11.4536 14.0236 11.9995C14.0236 12.5454 13.8307 13.0102 13.445 13.3959C13.0592 13.7827 12.5934 13.9755 12.0475 13.9755C11.5015 13.9755 11.0367 13.7827 10.651 13.397C10.2642 13.0112 10.0713 12.5454 10.0713 11.9995C10.0672 11.7395 10.1164 11.4815 10.2159 11.2413C10.3154 11.0011 10.4632 10.7839 10.6499 10.6031Z" fill="#212B36"/>
</svg>
