<svg width="24" height="24" viewBox="0 0 24 24" fill="none" xmlns="http://www.w3.org/2000/svg">
<path fill-rule="evenodd" clip-rule="evenodd" d="M12.7746 5.05218C12.9858 4.95834 13.2338 4.99296 13.4094 5.14076L19.7951 10.5175C19.9248 10.6267 19.9995 10.7851 20 10.9519C20.0005 11.1187 19.9267 11.2775 19.7977 11.3875L13.412 16.8286C13.2369 16.9778 12.9882 17.0136 12.7762 16.9201C12.5641 16.8267 12.4279 16.6212 12.4279 16.3948V13.8472C10.2976 13.9304 6.63024 14.9655 5.22627 18.6248C5.13081 18.8736 4.87301 19.0269 4.60177 18.9961C4.33052 18.9653 4.11593 18.7584 4.08193 18.495C3.86154 16.7869 4.02933 14.2137 5.28902 12.0425C6.51144 9.93559 8.73223 8.26476 12.4279 8.10359V5.57684C12.4279 5.35105 12.5634 5.14602 12.7746 5.05218ZM13.6143 6.83933V8.66768C13.6143 8.98626 13.3487 9.24452 13.0211 9.24452C9.387 9.24452 7.39415 10.762 6.3223 12.6094C5.66525 13.7419 5.34258 15.0214 5.23195 16.1972C7.46528 13.2462 11.2101 12.6105 13.0493 12.6956C13.3656 12.7102 13.6143 12.9638 13.6143 13.2717V15.1224L18.5037 10.9562L13.6143 6.83933Z" fill="#212B36"/>
</svg>
