<svg width="24" height="24" viewBox="0 0 24 24" fill="none" xmlns="http://www.w3.org/2000/svg">
<path d="M17.0046 5H6.99541C5.89515 5 5 5.89515 5 6.99541V17.0046C5 18.1049 5.89515 19 6.99541 19H17.0046C18.1049 19 19 18.1049 19 17.0046V6.99541C19 5.89515 18.1049 5 17.0046 5ZM17.869 17.0046C17.869 17.4812 17.4812 17.869 17.0046 17.869H6.99541C6.51881 17.869 6.13105 17.4812 6.13105 17.0046V6.99541C6.13105 6.51881 6.51881 6.13105 6.99541 6.13105H17.0046C17.4812 6.13105 17.869 6.51881 17.869 6.99541V17.0046Z" fill="#212B36"/>
</svg>
