<svg width="24" height="24" viewBox="0 0 24 24" fill="none" xmlns="http://www.w3.org/2000/svg">
<path d="M19.9685 10.0663C19.8926 9.82133 19.6905 9.64266 19.4471 9.60538L14.7016 8.87904L12.5796 4.37724C12.4707 4.14624 12.246 4 12 4C11.754 4 11.5294 4.14624 11.4205 4.37724L9.29843 8.87904L4.55288 9.60538C4.3095 9.64266 4.10741 9.82133 4.03153 10.0663C3.95566 10.3113 4.01919 10.5802 4.19538 10.7599L7.62871 14.2617L6.81843 19.2088C6.77684 19.4628 6.87656 19.7194 7.07559 19.8708C7.27462 20.0222 7.53849 20.0421 7.75628 19.9222L12 17.5852L16.2437 19.9222C16.3383 19.9743 16.4415 20 16.5445 20C16.6784 20 16.8118 19.9564 16.9244 19.8708C17.1234 19.7193 17.2231 19.4627 17.1815 19.2088L16.3713 14.2616L19.8046 10.7599C19.9808 10.5802 20.0443 10.3114 19.9685 10.0663ZM15.2259 13.5404C15.0734 13.6959 15.0039 13.92 15.0398 14.1397L15.6861 18.0858L12.3008 16.2215C12.2066 16.1696 12.1033 16.1437 12 16.1437C11.8966 16.1437 11.7933 16.1696 11.6991 16.2215L8.31381 18.0858L8.96012 14.1396C8.99609 13.92 8.92652 13.6959 8.77405 13.5404L6.03481 10.7465L9.82115 10.167C10.0314 10.1348 10.2131 9.99643 10.3072 9.79688L12 6.20589L13.6927 9.79688C13.7867 9.99647 13.9685 10.1348 14.1788 10.167L17.9651 10.7466L15.2259 13.5404Z" fill="#212B36"/>
</svg>
