<svg width="24" height="24" viewBox="0 0 24 24" fill="none" xmlns="http://www.w3.org/2000/svg">
<path d="M19.9685 10.0663C19.8926 9.82133 19.6905 9.64266 19.4471 9.60538L14.7016 8.87904L12.5796 4.37724C12.4707 4.14624 12.246 4 12 4C11.754 4 11.5294 4.14624 11.4205 4.37724L9.29843 8.87904L4.55288 9.60538C4.3095 9.64266 4.10741 9.82133 4.03153 10.0663C3.95566 10.3113 4.01919 10.5802 4.19538 10.7599L7.62871 14.2617L6.81843 19.2088C6.77684 19.4628 6.87656 19.7194 7.07559 19.8708C7.27462 20.0222 7.53849 20.0421 7.75628 19.9222L12 17.5852L16.2437 19.9222C16.3383 19.9743 16.4415 20 16.5445 20C16.6784 20 16.8118 19.9564 16.9244 19.8708C17.1234 19.7193 17.2231 19.4627 17.1815 19.2088L16.3713 14.2616L19.8046 10.7599C19.9808 10.5802 20.0443 10.3114 19.9685 10.0663Z" fill="#212B36"/>
</svg>
