<svg width="24" height="24" viewBox="0 0 24 24" fill="none" xmlns="http://www.w3.org/2000/svg">
<path d="M17.6568 6.34316C16.1458 4.83216 14.1369 4 12 4C9.86312 4 7.85416 4.83219 6.34316 6.34316C4.83216 7.85413 4 9.86312 4 12C4 14.1369 4.83216 16.1458 6.34316 17.6568C7.85413 19.1678 9.86312 20 12 20C14.1369 20 16.1458 19.1678 17.6568 17.6568C19.1678 16.1458 20 14.1369 20 12C20 9.86312 19.1678 7.85413 17.6568 6.34316ZM12 18.7074C8.30156 18.7074 5.29262 15.6984 5.29262 12C5.29262 8.30156 8.30156 5.29262 12 5.29262C15.6984 5.29262 18.7074 8.30156 18.7074 12C18.7074 15.6984 15.6984 18.7074 12 18.7074Z" fill="#212B36"/>
<path d="M12 6.94157C9.21075 6.94157 6.9415 9.21082 6.9415 12.0001C6.9415 14.7894 9.21075 17.0586 12 17.0586C14.7893 17.0586 17.0586 14.7894 17.0586 12.0001C17.0586 9.21082 14.7893 6.94157 12 6.94157ZM12 15.766C9.9235 15.766 8.23415 14.0766 8.23415 12.0001C8.23415 9.92361 9.9235 8.23423 12 8.23423C14.0766 8.23423 15.7659 9.92357 15.7659 12.0001C15.7659 14.0766 14.0766 15.766 12 15.766Z" fill="#212B36"/>
<path d="M12 9.88298C10.8326 9.88298 9.8829 10.8327 9.8829 12C9.8829 13.1674 10.8326 14.1171 12 14.1171C13.1673 14.1171 14.117 13.1674 14.117 12C14.117 10.8327 13.1673 9.88298 12 9.88298ZM12 12.8244C11.5454 12.8244 11.1756 12.4546 11.1756 12C11.1756 11.5455 11.5454 11.1756 12 11.1756C12.4545 11.1756 12.8244 11.5455 12.8244 12C12.8244 12.4546 12.4546 12.8244 12 12.8244Z" fill="#212B36"/>
</svg>
