<svg width="24" height="24" viewBox="0 0 24 24" fill="none" xmlns="http://www.w3.org/2000/svg">
<path fill-rule="evenodd" clip-rule="evenodd" d="M8.55603 16.5075C8.55603 14.5786 10.098 13.0149 12 13.0149C13.9021 13.0149 15.444 14.5786 15.444 16.5075C15.444 18.4363 13.9021 20 12 20C10.098 20 8.55603 18.4363 8.55603 16.5075ZM12 14.3657C10.8336 14.3657 9.88804 15.3246 9.88804 16.5075C9.88804 17.6903 10.8336 18.6492 12 18.6492C13.1665 18.6492 14.112 17.6903 14.112 16.5075C14.112 15.3246 13.1665 14.3657 12 14.3657Z" fill="#212B36"/>
<path fill-rule="evenodd" clip-rule="evenodd" d="M3 9.18278C3 7.87625 4.04443 6.81709 5.3328 6.81709C6.62118 6.81709 7.66561 7.87625 7.66561 9.18278C7.66561 10.4893 6.62118 11.5485 5.3328 11.5485C4.04443 11.5485 3 10.4893 3 9.18278ZM5.3328 8.16788C4.78008 8.16788 4.33201 8.62226 4.33201 9.18278C4.33201 9.74329 4.78008 10.1977 5.3328 10.1977C5.88553 10.1977 6.3336 9.74329 6.3336 9.18278C6.3336 8.62226 5.88553 8.16788 5.3328 8.16788Z" fill="#212B36"/>
<path fill-rule="evenodd" clip-rule="evenodd" d="M16.3344 9.18278C16.3344 7.87625 17.3788 6.81709 18.6672 6.81709C19.9556 6.81709 21 7.87625 21 9.18278C21 10.4893 19.9556 11.5485 18.6672 11.5485C17.3788 11.5485 16.3344 10.4893 16.3344 9.18278ZM18.6672 8.16788C18.1145 8.16788 17.6664 8.62226 17.6664 9.18278C17.6664 9.74329 18.1145 10.1977 18.6672 10.1977C19.2199 10.1977 19.668 9.74329 19.668 9.18278C19.668 8.62226 19.2199 8.16788 18.6672 8.16788Z" fill="#212B36"/>
<path fill-rule="evenodd" clip-rule="evenodd" d="M9.66708 6.36569C9.66708 5.05915 10.7115 4 11.9999 4C13.2883 4 14.3327 5.05915 14.3327 6.36569C14.3327 7.67222 13.2883 8.73137 11.9999 8.73137C10.7115 8.73137 9.66708 7.67222 9.66708 6.36569ZM11.9999 5.35078C11.4472 5.35078 10.9991 5.80517 10.9991 6.36569C10.9991 6.9262 11.4472 7.38059 11.9999 7.38059C12.5526 7.38059 13.0007 6.9262 13.0007 6.36569C13.0007 5.80517 12.5526 5.35078 11.9999 5.35078Z" fill="#212B36"/>
<path fill-rule="evenodd" clip-rule="evenodd" d="M11.334 13.6807V7.77431H12.666V13.6807H11.334Z" fill="#212B36"/>
<path fill-rule="evenodd" clip-rule="evenodd" d="M13.0569 14.0759L16.9639 10.1138L17.9058 11.069L13.9988 15.031L13.0569 14.0759Z" fill="#212B36"/>
<path fill-rule="evenodd" clip-rule="evenodd" d="M10.8913 14.0759L6.98435 10.1138L6.04248 11.069L9.94945 15.031L10.8913 14.0759Z" fill="#212B36"/>
</svg>
