<svg width="24" height="24" viewBox="0 0 24 24" fill="none" xmlns="http://www.w3.org/2000/svg">
<path d="M17.6685 10.4804H6.33151C5.04592 10.4804 4 11.5263 4 12.8119V18.4804C4 19.7659 5.04592 20.8119 6.33151 20.8119H17.6685C18.9541 20.8119 20 19.766 20 18.4804V12.8119C20 11.5263 18.9541 10.4804 17.6685 10.4804ZM18.5762 18.4804C18.5762 18.9809 18.169 19.3881 17.6685 19.3881H6.33151C5.831 19.3881 5.42383 18.9809 5.42383 18.4804V12.8119C5.42383 12.3114 5.83103 11.9042 6.33151 11.9042V11.9042H17.6685C18.169 11.9042 18.5762 12.3114 18.5762 12.8119V18.4804H18.5762Z" fill="#212B36"/>
<path d="M16.6656 6.81344C16.4475 5.73947 15.8599 4.76625 15.011 4.07315C14.1633 3.38101 13.0942 3 11.9999 3C11.9984 3 11.9967 3 11.9952 3C10.7235 3.00131 9.52852 3.49769 8.63019 4.39781C7.73191 5.29792 7.23786 6.49398 7.23917 7.76488V11.004C7.23917 11.3972 7.55791 11.7159 7.95107 11.7159C8.34426 11.7159 8.66296 11.3972 8.66296 11.004V7.76419C8.66207 6.87285 9.00834 6.03449 9.63797 5.40359C10.2676 4.77269 11.1053 4.42469 11.9966 4.42383C11.9978 4.42383 11.9988 4.42383 11.9999 4.42383C13.5805 4.42383 14.9557 5.54754 15.2703 7.0968C15.3485 7.48207 15.7241 7.73121 16.1096 7.65277C16.4949 7.57453 16.7439 7.19875 16.6656 6.81344Z" fill="#212B36"/>
</svg>
