<svg width="24" height="24" viewBox="0 0 24 24" fill="none" xmlns="http://www.w3.org/2000/svg">
<path d="M18.6184 15.0305C18.2614 15.0305 17.9721 15.3199 17.9721 15.6768V17.8829C17.9721 18.3375 17.6022 18.7073 17.1477 18.7073H6.8525C6.39791 18.7073 6.0281 18.3375 6.0281 17.8829V15.6768C6.0281 15.3199 5.73872 15.0305 5.38179 15.0305C5.02485 15.0305 4.73547 15.3199 4.73547 15.6768V17.8829C4.73547 19.0503 5.68519 20 6.85254 20H17.1477C18.3151 20 19.2647 19.0503 19.2647 17.8829V15.6768C19.2647 15.3199 18.9753 15.0305 18.6184 15.0305Z" fill="#212B36"/>
<path d="M8.60153 8.0448C8.85393 8.2972 9.26315 8.2972 9.51556 8.0448L12 5.56033L14.4845 8.0448C14.7369 8.29717 15.1461 8.2972 15.3985 8.0448C15.6509 7.79239 15.6509 7.38317 15.3985 7.13077L12.457 4.18931C12.3358 4.06809 12.1714 3.99999 12 3.99999C11.8286 3.99999 11.6642 4.06809 11.543 4.18931L8.6015 7.13077C8.34915 7.38314 8.34915 7.79239 8.60153 8.0448Z" fill="#212B36"/>
<path d="M12 15.5878C12.357 15.5878 12.6463 15.2984 12.6463 14.9415L12.6463 4.6463C12.6463 4.28933 12.3569 3.99999 12 3.99999C11.643 3.99999 11.3537 4.28933 11.3537 4.6463L11.3537 14.9415C11.3537 15.2984 11.643 15.5878 12 15.5878Z" fill="#212B36"/>
</svg>
