<svg width="24" height="24" viewBox="0 0 24 24" fill="none" xmlns="http://www.w3.org/2000/svg">
<path d="M11.9998 14C7.19369 14 3.42889 16.227 3.42889 19.0701V19.9453C3.42889 20.3286 3.73961 20.6393 4.12286 20.6393C4.50612 20.6393 4.81684 20.3286 4.81684 19.9453V19.0701C4.81684 17.0741 8.10623 15.3879 11.9998 15.3879C15.8935 15.3879 19.1829 17.0741 19.1829 19.0701V19.9453C19.1829 20.3286 19.4935 20.6393 19.8768 20.6393C20.2601 20.6393 20.5708 20.3285 20.5708 19.9453V19.0701C20.5708 16.227 16.806 14 11.9998 14Z" fill="#212B36"/>
<path d="M16.1874 7.57954C16.0544 6.6827 15.6452 5.86978 15.0041 5.22866C14.3629 4.58754 13.55 4.17841 12.6532 4.0454C12.2449 3.98487 11.8309 3.98487 11.4226 4.0454C9.13452 4.3847 7.54911 6.52218 7.88838 8.81021C8.05273 9.91858 8.63889 10.8966 9.53885 11.5641C10.2695 12.106 11.1358 12.3906 12.029 12.3906C12.2361 12.3906 12.4446 12.3753 12.6532 12.3444C14.9412 12.0051 16.5266 9.86758 16.1874 7.57954ZM12.4496 10.9714C11.7081 11.0814 10.9679 10.896 10.3658 10.4493C9.76356 10.0027 9.37138 9.34826 9.26142 8.60664C9.03439 7.07562 10.0952 5.64537 11.6262 5.41834C11.7629 5.39811 11.9004 5.38797 12.038 5.38797C12.1755 5.38797 12.3131 5.39811 12.4497 5.41834C13.6815 5.60101 14.6319 6.55137 14.8145 7.78318C15.0414 9.31417 13.9806 10.7444 12.4496 10.9714Z" fill="#212B36"/>
</svg>
