<svg width="24" height="24" viewBox="0 0 24 24" fill="none" xmlns="http://www.w3.org/2000/svg">
<path d="M20.9231 11.6748C20.8904 11.6095 20.1067 10.0579 18.6409 8.49437C17.7701 7.5654 16.836 6.82269 15.8647 6.28681C14.6253 5.60298 13.3249 5.25627 11.9998 5.25627C10.6747 5.25627 9.37439 5.60298 8.13492 6.28684C7.16363 6.82273 6.22956 7.56544 5.3587 8.49441C3.8929 10.0579 3.10923 11.6095 3.07657 11.6748C2.97423 11.8795 2.97423 12.1205 3.07657 12.3252C3.1092 12.3905 3.8929 13.9421 5.3587 15.5056C6.22963 16.4346 7.16366 17.1773 8.13492 17.7132C9.37439 18.397 10.6747 18.7438 11.9998 18.7438C13.3249 18.7438 14.6252 18.397 15.8647 17.7132C16.836 17.1773 17.7701 16.4346 18.6409 15.5056C20.1067 13.9421 20.8904 12.3905 20.9231 12.3252C21.0254 12.1205 21.0254 11.8795 20.9231 11.6748ZM11.9998 17.2896C10.0359 17.2896 8.16709 16.3639 6.44531 14.5384C5.49423 13.5299 4.84943 12.5065 4.55654 12C5.24933 10.8022 7.91576 6.71051 11.9998 6.71047C13.9638 6.71047 15.8326 7.6361 17.5544 9.46166C18.5056 10.4703 19.1504 11.4938 19.4431 12C18.7504 13.1978 16.0839 17.2896 11.9998 17.2896Z" fill="#212B36"/>
<path d="M12.0001 9.01674C10.3551 9.01674 9.01672 10.3551 9.01672 12.0001C9.01672 13.6451 10.3551 14.9835 12.0001 14.9835C13.6451 14.9835 14.9835 13.6451 14.9835 12.0001C14.9835 10.3551 13.6451 9.01674 12.0001 9.01674ZM12.0001 13.5291C11.1569 13.5291 10.471 12.8432 10.471 12C10.471 11.1569 11.1569 10.4709 12.0001 10.4709C12.8433 10.4709 13.5292 11.1569 13.5292 12C13.5292 12.8432 12.8433 13.5291 12.0001 13.5291Z" fill="#212B36"/>
</svg>
