<svg width="24" height="24" viewBox="0 0 24 24" fill="none" xmlns="http://www.w3.org/2000/svg">
<path fill-rule="evenodd" clip-rule="evenodd" d="M8.02274 2.17791C8.27337 1.94069 8.67072 1.9407 8.92133 2.17792L9.63436 2.85284C9.63436 2.85285 9.63437 2.85285 9.63437 2.85286C9.93644 3.13877 10.1278 3.538 10.1278 3.98356C10.1278 4.10447 10.112 4.21648 10.0919 4.31154C10.0915 4.31348 10.0911 4.31542 10.0907 4.31735L9.66416 6.24464H13.5127C14.3418 6.24464 15.0563 6.88983 15.0563 7.72728V8.78845C15.0563 9.04678 14.9997 9.27886 14.9167 9.48441C14.9135 9.49232 14.9101 9.50017 14.9066 9.50795L12.8763 13.996C12.5695 14.6896 11.8541 15.1524 11.0462 15.1524H4.99206C3.91179 15.1524 3 14.3205 3 13.2453V7.72728C3 7.19114 3.2328 6.71166 3.59207 6.37161C3.59207 6.37161 3.59207 6.37161 3.59207 6.37161L8.02274 2.17791ZM4.49064 7.28325L4.04136 6.82743L4.49064 7.28325C4.36559 7.40162 4.29341 7.55884 4.29341 7.72728V13.2453C4.29341 13.5794 4.58344 13.885 4.99206 13.885H11.0462C11.3492 13.885 11.5925 13.7125 11.6901 13.4909C11.6909 13.489 11.6918 13.487 11.6927 13.4851L13.7182 9.00753C13.7489 8.92862 13.7628 8.85817 13.7628 8.78845V7.72728C13.7628 7.63094 13.6701 7.5121 13.5127 7.5121H8.86218C8.66661 7.5121 8.48153 7.42536 8.35877 7.27617C8.236 7.12698 8.18872 6.93136 8.23017 6.74406L8.82587 4.05215C8.83229 4.02109 8.83434 3.99806 8.83434 3.98356C8.83434 3.90282 8.80141 3.82661 8.73578 3.76449L8.73577 3.76448L8.47202 3.51482L4.49064 7.28325Z" fill="#212B36"/>
<path fill-rule="evenodd" clip-rule="evenodd" d="M15.9773 21.8221C15.7266 22.0593 15.3293 22.0593 15.0787 21.8221L14.3656 21.1472C14.3656 21.1472 14.3656 21.1471 14.3656 21.1471C14.0636 20.8612 13.8722 20.462 13.8722 20.0164C13.8722 19.8955 13.888 19.7835 13.9081 19.6885C13.9085 19.6865 13.9089 19.6846 13.9093 19.6827L14.3358 17.7554L10.4873 17.7554C9.65823 17.7554 8.94375 17.1102 8.94375 16.2727L8.94375 15.2116C8.94375 14.9532 9.00029 14.7211 9.08333 14.5156L10.2859 14.9822C10.2523 15.0653 10.2372 15.1388 10.2372 15.2116L10.2372 16.2727C10.2372 16.3691 10.3299 16.4879 10.4873 16.4879L15.1378 16.4879C15.3334 16.4879 15.5185 16.5746 15.6412 16.7238C15.764 16.873 15.8113 17.0686 15.7698 17.2559L15.1741 19.9478C15.1677 19.9789 15.1657 20.0019 15.1657 20.0164C15.1657 20.0972 15.1986 20.1734 15.2642 20.2355L15.2642 20.2355L15.528 20.4852L19.5094 16.7167L19.9586 17.1726L19.5094 16.7167C19.6344 16.5984 19.7066 16.4412 19.7066 16.2727L19.7066 10.7547C19.7066 10.4206 19.4166 10.115 19.0079 10.115L14.519 10.115L14.519 8.84759L19.0079 8.84759C20.0882 8.84759 21 9.67953 21 10.7547L21 16.2727C21 16.8089 20.7672 17.2883 20.4079 17.6284C20.4079 17.6284 20.4079 17.6284 20.4079 17.6284L15.9773 21.8221Z" fill="#212B36"/>
</svg>
