<svg width="24" height="24" viewBox="0 0 24 24" fill="none" xmlns="http://www.w3.org/2000/svg">
<path fill-rule="evenodd" clip-rule="evenodd" d="M4 8.57682C4 8.24812 4.26646 7.98166 4.59516 7.98166H19.4048C19.7335 7.98166 20 8.24812 20 8.57682V19.3922C20 19.7209 19.7335 19.9873 19.4048 19.9873H4.59516C4.26646 19.9873 4 19.7209 4 19.3922V8.57682ZM5.19032 9.17198V18.797H18.8097V9.17198H5.19032Z" fill="#212B36"/>
<path fill-rule="evenodd" clip-rule="evenodd" d="M13.0333 13.8616C13.0333 12.4469 14.1801 11.3 15.5949 11.3H19.159C19.4877 11.3 19.7542 11.5665 19.7542 11.8952V15.828C19.7542 16.1567 19.4877 16.4232 19.159 16.4232H15.5949C14.1801 16.4232 13.0333 15.2763 13.0333 13.8616ZM15.5949 12.4903C14.8375 12.4903 14.2236 13.1043 14.2236 13.8616C14.2236 14.6189 14.8375 15.2329 15.5949 15.2329H18.5638V12.4903H15.5949Z" fill="#212B36"/>
<path fill-rule="evenodd" clip-rule="evenodd" d="M15.8211 14.6508C16.251 14.6508 16.5995 14.3023 16.5995 13.8724C16.5995 13.4425 16.251 13.094 15.8211 13.094C15.3912 13.094 15.0427 13.4425 15.0427 13.8724C15.0427 14.3023 15.3912 14.6508 15.8211 14.6508Z" fill="#212B36"/>
<path fill-rule="evenodd" clip-rule="evenodd" d="M15.4617 6.38456C15.5404 6.36762 15.6288 6.3455 15.7114 6.3248C15.7284 6.32055 15.7451 6.31637 15.7615 6.3123C15.8686 6.28564 15.9755 6.25988 16.0838 6.23855C16.3079 6.19443 16.4966 6.17833 16.643 6.19944C16.7742 6.21834 16.8393 6.26082 16.8854 6.32208C16.9426 6.39799 17.0306 6.58496 17.0306 7.00801C17.0306 7.33671 17.2971 7.60317 17.6258 7.60317C17.9545 7.60317 18.221 7.33671 18.221 7.00801C18.221 6.44033 18.1056 5.96387 17.8365 5.60633C17.5564 5.23415 17.1727 5.07316 16.8129 5.0213C16.4684 4.97164 16.1241 5.01745 15.8539 5.07064C15.7151 5.09796 15.5846 5.12969 15.474 5.15722C15.4534 5.16234 15.4339 5.16721 15.4153 5.17186C15.328 5.19369 15.2612 5.21039 15.2033 5.22258C15.1949 5.22434 15.1866 5.22627 15.1784 5.22838L4.528 7.95289C4.20956 8.03436 4.01745 8.35854 4.09891 8.67699C4.18037 8.99543 4.50456 9.18754 4.823 9.10608L15.4617 6.38456Z" fill="#212B36"/>
</svg>
