<svg width="24" height="24" viewBox="0 0 24 24" fill="none" xmlns="http://www.w3.org/2000/svg">
<path d="M17.6568 6.34316C16.1458 4.83216 14.1369 4 12 4C9.86312 4 7.85416 4.83219 6.34316 6.34316C4.83216 7.85413 4 9.86312 4 12C4 14.1369 4.83216 16.1458 6.34316 17.6568C7.85413 19.1678 9.86312 20 12 20C14.1369 20 16.1458 19.1678 17.6568 17.6568C19.1678 16.1458 20 14.1369 20 12C20 9.86312 19.1678 7.85413 17.6568 6.34316ZM12 18.7074C8.30156 18.7074 5.29262 15.6984 5.29262 12C5.29262 8.30156 8.30156 5.29262 12 5.29262C15.6984 5.29262 18.7074 8.30156 18.7074 12C18.7074 15.6984 15.6984 18.7074 12 18.7074Z" fill="#212B36"/>
<path d="M19.3537 11.3537H4.64631C4.28937 11.3537 4 11.643 4 12C4 12.3569 4.28937 12.6463 4.64631 12.6463H19.3537C19.7107 12.6463 20 12.3569 20 12C20 11.643 19.7107 11.3537 19.3537 11.3537Z" fill="#212B36"/>
<path d="M12.4772 4.21044C12.3547 4.07638 12.1815 4 12 4C11.8184 4 11.6452 4.07637 11.5228 4.21041C9.57704 6.34056 8.47241 9.10216 8.41232 11.9865C8.41216 11.9955 8.41216 12.0045 8.41232 12.0135C8.47241 14.8978 9.57704 17.6595 11.5228 19.7896C11.6452 19.9237 11.8184 20 12 20C12.1815 20 12.3547 19.9237 12.4772 19.7896C14.4229 17.6595 15.5275 14.8979 15.5876 12.0135C15.5878 12.0045 15.5878 11.9955 15.5876 11.9866C15.5275 9.10216 14.4229 6.34056 12.4772 4.21044ZM12 18.3575C10.5657 16.5504 9.75626 14.32 9.70498 12C9.75632 9.67997 10.5657 7.44956 12 5.64247C13.4343 7.44959 14.2437 9.68 14.295 12C14.2437 14.32 13.4343 16.5505 12 18.3575Z" fill="#212B36"/>
</svg>
