<svg width="24" height="24" viewBox="0 0 24 24" fill="none" xmlns="http://www.w3.org/2000/svg">
<path d="M18.5176 5.47872C17.5615 4.52274 16.2905 3.99625 14.9385 3.99625C13.5866 3.99625 12.3155 4.52274 11.3595 5.47872L6.39549 10.4427C6.27424 10.564 6.20609 10.7285 6.20609 10.9V17.1509C6.20609 17.5081 6.4956 17.7975 6.8527 17.7975H13.1036C13.2755 17.7975 13.4402 17.7292 13.5616 17.6075L18.5175 12.6368C19.4735 11.6808 20 10.4097 20 9.05775C20 7.7058 19.4736 6.43474 18.5176 5.47872ZM17.6031 11.7223C17.6029 11.7225 17.6026 11.7228 17.6024 11.723L12.8353 16.5043H7.49935V11.1678L12.274 6.39322C12.9857 5.68148 13.932 5.28951 14.9385 5.28951C15.945 5.28951 16.8914 5.68148 17.6031 6.39319C18.3148 7.10489 18.7068 8.05121 18.7068 9.05775C18.7068 10.0643 18.3148 11.0106 17.6031 11.7223Z" fill="#212B36"/>
<path d="M15.3994 8.60422C15.1469 8.35169 14.7375 8.35169 14.485 8.60422L4.18927 18.8999C3.93675 19.1524 3.93675 19.5618 4.18927 19.8144C4.31555 19.9406 4.481 20.0038 4.64652 20.0038C4.812 20.0038 4.97752 19.9406 5.10376 19.8144L15.3994 9.51865C15.6519 9.26616 15.6519 8.85674 15.3994 8.60422Z" fill="#212B36"/>
<path d="M15.6776 13.5627H9.79435C9.43725 13.5627 9.14774 13.8522 9.14774 14.2094C9.14774 14.5665 9.43725 14.856 9.79435 14.856H15.6776C16.0348 14.856 16.3242 14.5665 16.3242 14.2094C16.3242 13.8522 16.0348 13.5627 15.6776 13.5627Z" fill="#212B36"/>
</svg>
