<svg width="24" height="24" viewBox="0 0 24 24" fill="none" xmlns="http://www.w3.org/2000/svg">
<g clip-path="url(#clip0)">
<path d="M15.7293 6.84086C14.5422 5.65376 12.9639 5 11.2851 5C9.60625 5 8.02796 5.65376 6.84086 6.84086C5.65376 8.02794 5 9.60625 5 11.2851C5 12.9639 5.65376 14.5422 6.84086 15.7293C8.02794 16.9163 9.60627 17.5701 11.2851 17.5701C12.9639 17.5701 14.5422 16.9164 15.7293 15.7293C16.9163 14.5422 17.5701 12.9639 17.5701 11.2851C17.5701 9.60625 16.9164 8.02794 15.7293 6.84086ZM11.2851 16.4391C8.44315 16.4391 6.13105 14.127 6.13105 11.2851C6.13105 8.44313 8.44313 6.13105 11.2851 6.13105C14.127 6.13105 16.4391 8.44313 16.4391 11.2851C16.4391 14.127 14.127 16.4391 11.2851 16.4391Z" fill="#212B36"/>
<path d="M18.8344 18.0346L15.7244 14.9246C15.5036 14.7038 15.1455 14.7038 14.9247 14.9246C14.7038 15.1455 14.7038 15.5035 14.9247 15.7244L18.0347 18.8344C18.1451 18.9448 18.2898 19 18.4346 19C18.5793 19 18.7241 18.9448 18.8345 18.8344C19.0553 18.6135 19.0553 18.2554 18.8344 18.0346Z" fill="#212B36"/>
<path d="M13.4299 10.7195H9.14026C8.82794 10.7195 8.57474 10.9727 8.57474 11.2851C8.57474 11.5974 8.82794 11.8506 9.14026 11.8506H13.4299C13.7423 11.8506 13.9954 11.5974 13.9954 11.2851C13.9954 10.9727 13.7423 10.7195 13.4299 10.7195Z" fill="#212B36"/>
</g>
<defs>
<clipPath id="clip0">
<rect width="14" height="14" fill="white" transform="translate(5 5)"/>
</clipPath>
</defs>
</svg>
