<svg width="169" height="146" viewBox="0 0 169 146" xmlns="http://www.w3.org/2000/svg"><defs><linearGradient x1="0%" y1="75.546%" x2="100%" y2="24.454%" id="a"><stop stop-color="#F19F73" offset="0%"/><stop stop-color="#A74EB5" offset="100%"/></linearGradient><linearGradient x1="122.249%" y1="38.801%" x2="-4.849%" y2="61.147%" id="b"><stop stop-color="#02F0E4" offset="0%"/><stop stop-color="#02D5EB" offset="100%"/></linearGradient><linearGradient x1="122.249%" y1="29.169%" x2="-4.849%" y2="70.736%" id="c"><stop stop-color="#02F0E4" offset="0%"/><stop stop-color="#009BAB" offset="100%"/></linearGradient><linearGradient x1="56.631%" y1="4.349%" x2="56.631%" y2="100%" id="d"><stop stop-color="#02EAE6" offset="0%"/><stop stop-color="#01BCC1" offset="100%"/></linearGradient><linearGradient x1="50%" y1="0%" x2="50%" y2="103.027%" id="e"><stop stop-color="#FFF" stop-opacity=".334" offset="0%"/><stop stop-color="#FFF" stop-opacity="0" offset="100%"/></linearGradient><filter x="-9.3%" y="-19.7%" width="118.6%" height="139.5%" filterUnits="objectBoundingBox" id="f"><feGaussianBlur stdDeviation="1.529" in="SourceGraphic"/></filter><filter x="-9.3%" y="-19.7%" width="118.6%" height="139.5%" filterUnits="objectBoundingBox" id="g"><feGaussianBlur stdDeviation="1.529" in="SourceGraphic"/></filter><filter x="-9.3%" y="-19.7%" width="118.6%" height="139.5%" filterUnits="objectBoundingBox" id="h"><feGaussianBlur stdDeviation="1.529" in="SourceGraphic"/></filter></defs><g fill="none" fill-rule="evenodd"><path d="M168.996 74.285c.097-5.023-3.17-10.068-9.797-13.9l-51.434-29.743c-13.008-7.522-34.028-7.522-46.952 0l-51.1 29.743C3.27 64.135.059 69.044.066 73.958v-.048L0 96.7c-.014 4.96 3.255 9.93 9.801 13.714l51.434 29.743c13.007 7.521 34.029 7.522 46.953 0l51.1-29.743c6.42-3.737 9.633-8.628 9.647-13.525L169 74.1c0 .062-.003.124-.004.186z" fill="url(#a)" transform="translate(0 .15)"/><path d="M159.353 87.624l-51.1 29.743c-12.924 7.523-33.946 7.522-46.953 0L9.866 87.626C3.32 83.839.05 78.87.065 73.91L0 96.7c-.014 4.96 3.255 9.93 9.801 13.714l51.434 29.743c13.007 7.521 34.029 7.522 46.953 0l51.1-29.743c6.42-3.737 9.633-8.628 9.647-13.525L169 74.1c-.014 4.898-3.227 9.788-9.647 13.525z" fill="url(#b)" transform="translate(0 .15)"/><path d="M159.2 60.384c13.006 7.522 13.076 19.717.153 27.24l-51.1 29.744c-12.924 7.522-33.946 7.521-46.953 0L9.866 87.625c-13.009-7.523-13.077-19.717-.153-27.24l51.1-29.743c12.924-7.523 33.944-7.523 46.952 0l51.434 29.742z" fill="url(#c)" transform="translate(0 .15)"/><path d="M55.1 26.917c-.213.108-.424.22-.634.338h.001c.21-.118.42-.23.633-.338z" fill="#E0E0E2"/><path d="M168.996 49.285c.097-5.023-3.17-10.068-9.797-13.9L107.765 5.641c-13.008-7.522-34.028-7.522-46.952 0l-51.1 29.743C3.27 39.135.059 44.044.066 48.958v-.048L0 71.7c-.014 4.96 3.255 9.93 9.801 13.714l51.434 29.743c13.007 7.521 34.029 7.522 46.953 0l51.1-29.743c6.42-3.737 9.633-8.628 9.647-13.525L169 49.1c0 .062-.003.124-.004.186z" fill="url(#d)" transform="translate(0 .15)"/><path d="M159.2 35.384c13.006 7.522 13.076 19.717.153 27.24l-51.1 29.744c-12.924 7.522-33.946 7.521-46.953 0L9.866 62.625c-13.009-7.523-13.077-19.717-.153-27.24l51.1-29.743c12.924-7.523 33.944-7.523 46.952 0l51.434 29.742z" fill="url(#e)" transform="translate(0 .15)"/><path d="M55.1 1.917c-.213.108-.424.22-.634.338h.001c.21-.118.42-.23.633-.338z" fill="#E0E0E2"/><path d="M71.496 50.68L56.249 59.5a4.586 4.586 0 01-4.581.006l-15.369-8.832a1.529 1.529 0 01-.004-2.649l15.247-8.819a4.586 4.586 0 014.581-.006l15.37 8.832a1.529 1.529 0 01.003 2.649z" stroke="#FFF" stroke-width="1.529"/><path d="M96.536 36.564l17.204 9.911a2.446 2.446 0 01.006 4.237l-2.683 1.556M89.43 64.81a7.35 7.35 0 01-7.355.01L65.46 55.25m-2.172-12.107l13.235-7.675" stroke="#FFF" stroke-width="1.3" opacity=".229" stroke-linecap="round"/><path d="M104.4 30.798l-15.246 8.82a4.586 4.586 0 01-4.582.006l-15.369-8.832a1.529 1.529 0 01-.003-2.649l15.246-8.819a4.586 4.586 0 014.582-.006l15.369 8.831a1.529 1.529 0 01.003 2.65zm15.305 29.059l-15.247 8.819a4.586 4.586 0 01-4.582.007L84.508 59.85a1.529 1.529 0 01-.004-2.65l15.246-8.818a4.586 4.586 0 014.582-.007l15.369 8.832a1.529 1.529 0 01.004 2.65z" stroke="#FFF" stroke-width="1.3"/><path d="M71.496 50.53l-15.247 8.82a4.586 4.586 0 01-4.581.006l-15.369-8.832a1.529 1.529 0 01-.004-2.649l15.247-8.819a4.586 4.586 0 014.581-.006l15.37 8.832a1.529 1.529 0 01.003 2.648z" stroke="#FFF" stroke-width="1.3" filter="url(#f)" transform="translate(0 .15)"/><path d="M104.4 30.648l-15.246 8.819a4.586 4.586 0 01-4.582.006l-15.369-8.831a1.529 1.529 0 01-.003-2.65l15.246-8.818a4.586 4.586 0 014.582-.007L104.397 28a1.529 1.529 0 01.003 2.65z" stroke="#FFF" stroke-width="1.3" filter="url(#g)" transform="translate(0 .15)"/><path d="M119.705 59.707l-15.247 8.819a4.586 4.586 0 01-4.581.006l-15.37-8.831a1.529 1.529 0 01-.003-2.65l15.247-8.818a4.586 4.586 0 014.581-.007l15.369 8.832a1.529 1.529 0 01.004 2.649z" stroke="#FFF" stroke-width="1.3" filter="url(#h)" transform="translate(0 .15)"/></g></svg>