<svg width="50" height="50" viewBox="0 0 50 50" xmlns="http://www.w3.org/2000/svg" xmlns:xlink="http://www.w3.org/1999/xlink"><defs><linearGradient x1="3.089%" y1="96.911%" x2="126.685%" y2="0%" id="a"><stop stop-color="#FEDB5A" offset="0%"/><stop stop-color="#FFA8A8" offset="100%"/></linearGradient><path d="M38 19.854A7.854 7.854 0 0 0 30.146 12c-1.971 0-3.768.73-5.146 1.93A7.816 7.816 0 0 0 19.854 12 7.854 7.854 0 0 0 12 19.854c0 1.971.73 3.768 1.93 5.146A7.813 7.813 0 0 0 12 30.146 7.854 7.854 0 0 0 19.854 38c1.971 0 3.766-.73 5.146-1.93A7.813 7.813 0 0 0 30.146 38 7.854 7.854 0 0 0 38 30.146c0-1.971-.73-3.768-1.93-5.146A7.813 7.813 0 0 0 38 19.854zM23.563 34.421c-.998.868-2.285 1.412-3.709 1.412a5.695 5.695 0 0 1-5.687-5.687 5.695 5.695 0 0 1 5.687-5.688c1.426 0 2.716.546 3.716 1.417a7.801 7.801 0 0 0-.007 8.546zm-3.709-12.13c-1.578 0-3.045.47-4.276 1.272-.867-.998-1.411-2.286-1.411-3.709a5.695 5.695 0 0 1 5.687-5.687 5.695 5.695 0 0 1 5.688 5.687c0 1.426-.546 2.716-1.416 3.716a7.786 7.786 0 0 0-4.272-1.278zm10.292 13.542a5.695 5.695 0 0 1-5.688-5.687c0-1.426.546-2.716 1.416-3.716a7.809 7.809 0 0 0 8.548.007c.867.998 1.411 2.286 1.411 3.709a5.695 5.695 0 0 1-5.687 5.687zm0-10.291c-1.426 0-2.716-.546-3.715-1.418a7.808 7.808 0 0 0 .007-8.545c.997-.869 2.285-1.412 3.708-1.412a5.695 5.695 0 0 1 5.687 5.687 5.695 5.695 0 0 1-5.687 5.688z" id="c"/><filter x="-24.2%" y="-24.2%" width="148.5%" height="148.5%" filterUnits="objectBoundingBox" id="b"><feMorphology radius=".3" operator="dilate" in="SourceAlpha" result="shadowSpreadOuter1"/><feOffset in="shadowSpreadOuter1" result="shadowOffsetOuter1"/><feMorphology radius="1" in="SourceAlpha" result="shadowInner"/><feOffset in="shadowInner" result="shadowInner"/><feComposite in="shadowOffsetOuter1" in2="shadowInner" operator="out" result="shadowOffsetOuter1"/><feGaussianBlur stdDeviation="2" in="shadowOffsetOuter1" result="shadowBlurOuter1"/><feColorMatrix values="0 0 0 0 1 0 0 0 0 1 0 0 0 0 1 0 0 0 0.5 0" in="shadowBlurOuter1"/></filter></defs><g fill="none" fill-rule="evenodd"><circle fill="url(#a)" cx="25" cy="25" r="25"/><g fill-rule="nonzero"><use fill="#000" filter="url(#b)" xlink:href="#c"/><use stroke="#FFF" stroke-width=".6" xlink:href="#c"/></g></g></svg>