<svg width="169" height="146" viewBox="0 0 169 146" xmlns="http://www.w3.org/2000/svg"><defs><linearGradient x1="0%" y1="75.546%" x2="100%" y2="24.454%" id="a"><stop stop-color="#F19F73" offset="0%"/><stop stop-color="#A74EB5" offset="100%"/></linearGradient><linearGradient x1="-136.031%" y1="63.447%" x2="102%" y2="59.228%" id="b"><stop stop-color="#3023AE" offset="0%"/><stop stop-color="#C86DD7" offset="100%"/></linearGradient><linearGradient x1="-18.566%" y1="62.396%" x2="127.125%" y2="38.457%" id="c"><stop stop-color="#3023AE" offset="0%"/><stop stop-color="#C86DD7" offset="100%"/></linearGradient><linearGradient x1="56.631%" y1="4.349%" x2="56.631%" y2="100%" id="d"><stop stop-color="#C26AD6" offset="0%"/><stop stop-color="#8B4FC7" offset="100%"/></linearGradient><linearGradient x1="50%" y1="0%" x2="50%" y2="104.766%" id="e"><stop stop-color="#F7F7F7" stop-opacity=".334" offset="0%"/><stop stop-color="#FFF" stop-opacity="0" offset="100%"/></linearGradient><filter x="-11%" y="-17.8%" width="121.8%" height="135.5%" filterUnits="objectBoundingBox" id="f"><feGaussianBlur stdDeviation="2" in="SourceGraphic"/></filter><filter x="-13.6%" y="-20.8%" width="127.1%" height="141.6%" filterUnits="objectBoundingBox" id="g"><feGaussianBlur stdDeviation="2" in="SourceGraphic"/></filter></defs><g transform="translate(0 .15)" fill="none" fill-rule="evenodd"><path d="M168.996 74.285c.097-5.023-3.17-10.068-9.797-13.9l-51.434-29.743c-13.008-7.522-34.028-7.522-46.952 0l-51.1 29.743C3.27 64.135.059 69.044.066 73.958v-.048L0 96.7c-.014 4.96 3.255 9.93 9.801 13.714l51.434 29.743c13.007 7.521 34.029 7.522 46.953 0l51.1-29.743c6.42-3.737 9.633-8.628 9.647-13.525L169 74.1c0 .062-.003.124-.004.186z" fill="url(#a)"/><path d="M159.353 87.624l-51.1 29.743c-12.924 7.523-33.946 7.522-46.953 0L9.866 87.626C3.32 83.839.05 78.87.065 73.91L0 96.7c-.014 4.96 3.255 9.93 9.801 13.714l51.434 29.743c13.007 7.521 34.029 7.522 46.953 0l51.1-29.743c6.42-3.737 9.633-8.628 9.647-13.525L169 74.1c-.014 4.898-3.227 9.788-9.647 13.525z" fill="url(#b)"/><path d="M159.2 60.384c13.006 7.522 13.076 19.717.153 27.24l-51.1 29.744c-12.924 7.522-33.946 7.521-46.953 0L9.866 87.625c-13.009-7.523-13.077-19.717-.153-27.24l51.1-29.743c12.924-7.523 33.944-7.523 46.952 0l51.434 29.742z" fill="url(#c)"/><path d="M61 29.298c-.336.098-.67.2-1 .306h.002c.33-.107.662-.208.998-.306z" fill="#E0E0E2"/><path d="M168.996 49.285c.097-5.023-3.17-10.068-9.797-13.9L107.765 5.641c-13.008-7.522-34.028-7.522-46.952 0l-51.1 29.743C3.27 39.135.059 44.044.066 48.958v-.048L0 71.7c-.014 4.96 3.255 9.93 9.801 13.714l51.434 29.743c13.007 7.521 34.029 7.522 46.953 0l51.1-29.743c6.42-3.737 9.633-8.628 9.647-13.525L169 49.1c0 .062-.003.124-.004.186z" fill="url(#d)"/><path d="M159.2 35.384c13.006 7.522 13.076 19.717.153 27.24l-51.1 29.744c-12.924 7.522-33.946 7.521-46.953 0L9.866 62.625c-13.009-7.523-13.077-19.717-.153-27.24l51.1-29.743c12.924-7.523 33.944-7.523 46.952 0l51.434 29.742z" fill="url(#e)"/><path stroke="#FFF" stroke-width="1.3" d="M100.29 66.201L133 47.04l-32.872-18.838L66 48.571z"/><path stroke="#FFF" stroke-width="1.3" filter="url(#f)" d="M100.29 66.201L133 47.04l-32.872-18.838L66 48.571z"/><ellipse stroke="#FFF" stroke-width="1.3" cx="64.5" cy="47.201" rx="24.5" ry="16"/><ellipse stroke="#FFF" stroke-width="1.3" filter="url(#g)" cx="64.5" cy="47.201" rx="24.5" ry="16"/><path d="M61 6.298c-.336.098-.67.2-1 .306h.002c.33-.107.662-.208.998-.306z" fill="#E0E0E2"/></g></svg>