<svg width="50" height="50" viewBox="0 0 50 50" xmlns="http://www.w3.org/2000/svg" xmlns:xlink="http://www.w3.org/1999/xlink"><defs><linearGradient x1="141.871%" y1="-9.695%" x2="0%" y2="100%" id="a"><stop stop-color="#FF6056" offset="0%"/><stop stop-color="#FFA65D" offset="100%"/></linearGradient><path id="c" d="M11.999 0L0 7v14l2.286 1.333V8.353l9.713-5.665 9.716 5.665v11.293l-9.716 5.666-5.142-3v-11.25l5.142-3 5.144 3v5.875l-5.144 3-.57-.332V13.77l2.874-1.677-2.304-1.343-2.856 1.667v8.541l2.856 1.667 7.43-4.334V9.708l-7.43-4.333-7.427 4.333v13.958L11.999 28 24 21V7z"/><filter x="-13.8%" y="-12%" width="127.6%" height="124%" filterUnits="objectBoundingBox" id="b"><feMorphology radius=".31" operator="dilate" in="SourceAlpha" result="shadowSpreadOuter1"/><feOffset in="shadowSpreadOuter1" result="shadowOffsetOuter1"/><feMorphology radius="1" in="SourceAlpha" result="shadowInner"/><feOffset in="shadowInner" result="shadowInner"/><feComposite in="shadowOffsetOuter1" in2="shadowInner" operator="out" result="shadowOffsetOuter1"/><feGaussianBlur stdDeviation="1" in="shadowOffsetOuter1" result="shadowBlurOuter1"/><feColorMatrix values="0 0 0 0 1 0 0 0 0 1 0 0 0 0 1 0 0 0 0.5 0" in="shadowBlurOuter1"/></filter></defs><g fill="none" fill-rule="evenodd"><circle fill="url(#a)" cx="25" cy="25" r="25"/><g fill-rule="nonzero"><path stroke="#FFF" stroke-width=".62" d="M24.999 11L13 18v14l2.286 1.333v-13.98l9.713-5.665 9.716 5.665v11.293l-9.716 5.666-5.142-3v-11.25l5.142-3 5.144 3v5.875l-5.144 3-.57-.332V24.77l2.874-1.677-2.304-1.343-2.856 1.667v8.541l2.856 1.667 7.43-4.334v-8.583l-7.43-4.333-7.427 4.333v13.958L24.999 39 37 32V18z"/><g transform="translate(13 11)"><use fill="#000" filter="url(#b)" xlink:href="#c"/><use stroke="#FFF" stroke-width=".62" xlink:href="#c"/></g></g></g></svg>