<svg width="169" height="146" viewBox="0 0 169 146" xmlns="http://www.w3.org/2000/svg"><defs><linearGradient x1="97.315%" y1="25.826%" x2="0%" y2="75.546%" id="a"><stop stop-color="#FF6056" offset="0%"/><stop stop-color="#FF5D5D" offset="100%"/></linearGradient><linearGradient x1="3.089%" y1="58.488%" x2="126.685%" y2="40.953%" id="b"><stop stop-color="#FEDB5A" offset="0%"/><stop stop-color="#FFA8A8" offset="100%"/></linearGradient><linearGradient x1="115.231%" y1="37.223%" x2="-5.158%" y2="65.789%" id="c"><stop stop-color="#CAA418" offset="0%"/><stop stop-color="#FFA8A8" offset="100%"/></linearGradient><linearGradient x1="56.631%" y1="4.349%" x2="56.631%" y2="97.13%" id="d"><stop stop-color="#FFB792" offset="0%"/><stop stop-color="#FED85E" offset="100%"/></linearGradient><linearGradient x1="50%" y1="0%" x2="50%" y2="104.766%" id="e"><stop stop-color="#FFF" stop-opacity=".334" offset="0%"/><stop stop-color="#FFF" stop-opacity="0" offset="100%"/></linearGradient><filter x="-5.3%" y="-8.5%" width="110.6%" height="117.1%" filterUnits="objectBoundingBox" id="f"><feGaussianBlur stdDeviation="1" in="SourceGraphic"/></filter></defs><g fill="none" fill-rule="evenodd"><path d="M168.996 74.285c.097-5.023-3.17-10.068-9.797-13.9l-51.434-29.743c-13.008-7.522-34.028-7.522-46.952 0l-51.1 29.743C3.27 64.135.059 69.044.066 73.958v-.048L0 96.7c-.014 4.96 3.255 9.93 9.801 13.714l51.434 29.743c13.007 7.521 34.029 7.522 46.953 0l51.1-29.743c6.42-3.737 9.633-8.628 9.647-13.525L169 74.1c0 .062-.003.124-.004.186z" fill="url(#a)" transform="translate(0 .15)"/><path d="M159.353 87.624l-51.1 29.743c-12.924 7.523-33.946 7.522-46.953 0L9.866 87.626C3.32 83.839.05 78.87.065 73.91L0 96.7c-.014 4.96 3.255 9.93 9.801 13.714l51.434 29.743c13.007 7.521 34.029 7.522 46.953 0l51.1-29.743c6.42-3.737 9.633-8.628 9.647-13.525L169 74.1c-.014 4.898-3.227 9.788-9.647 13.525z" fill="url(#b)" transform="translate(0 .15)"/><path d="M159.2 60.384c13.006 7.522 13.076 19.717.153 27.24l-51.1 29.744c-12.924 7.522-33.946 7.521-46.953 0L9.866 87.625c-13.009-7.523-13.077-19.717-.153-27.24l51.1-29.743c12.924-7.523 33.944-7.523 46.952 0l51.434 29.742z" fill="url(#c)" transform="translate(0 .15)"/><path d="M55.1 26.917c-.213.108-.424.22-.634.338h.001c.21-.118.42-.23.633-.338z" fill="#E0E0E2"/><path d="M168.996 49.285c.097-5.023-3.17-10.068-9.797-13.9L107.765 5.641c-13.008-7.522-34.028-7.522-46.952 0l-51.1 29.743C3.27 39.135.059 44.044.066 48.958v-.048L0 71.7c-.014 4.96 3.255 9.93 9.801 13.714l51.434 29.743c13.007 7.521 34.029 7.522 46.953 0l51.1-29.743c6.42-3.737 9.633-8.628 9.647-13.525L169 49.1c0 .062-.003.124-.004.186z" fill="url(#d)" transform="translate(0 .15)"/><path d="M159.2 35.384c13.006 7.522 13.076 19.717.153 27.24l-51.1 29.744c-12.924 7.522-33.946 7.521-46.953 0L9.866 62.625c-13.009-7.523-13.077-19.717-.153-27.24l51.1-29.743c12.924-7.523 33.944-7.523 46.952 0l51.434 29.742z" fill="url(#e)" transform="translate(0 .15)"/><path d="M55.1 1.917c-.213.108-.424.22-.634.338h.001c.21-.118.42-.23.633-.338z" fill="#E0E0E2"/><path d="M117 39.386C117 32.546 108.074 27 97.062 27 92.06 27 87.5 28.153 84 30.043 80.498 28.153 75.94 27 70.938 27 59.926 27 51 32.545 51 39.386c0 3.107 1.855 5.94 4.899 8.114C52.855 49.674 51 52.507 51 55.614 51 62.454 59.926 68 70.938 68c5.003 0 9.56-1.153 13.062-3.043C87.499 66.847 92.06 68 97.062 68 108.074 68 117 62.455 117 55.614c0-3.107-1.855-5.94-4.899-8.114 3.044-2.173 4.899-5.007 4.899-8.114zm-36.647 22.97c-2.535 1.37-5.801 2.227-9.415 2.227-7.96 0-14.438-4.024-14.438-8.969 0-4.944 6.478-8.968 14.438-8.968 3.62 0 6.893.86 9.431 2.234-2.038 1.94-3.244 4.245-3.244 6.734 0 2.49 1.192 4.802 3.228 6.742zm-9.415-19.127c-4.007 0-7.73.74-10.856 2.005-2.201-1.574-3.582-3.605-3.582-5.848 0-4.945 6.478-8.97 14.438-8.97 7.96 0 14.437 4.025 14.437 8.97 0 2.248-1.386 4.282-3.593 5.858-3.123-1.266-6.837-2.015-10.844-2.015zm26.124 21.354c-7.96 0-14.437-4.024-14.437-8.969 0-2.248 1.386-4.282 3.593-5.858 3.123 1.266 6.837 2.015 10.844 2.015s7.73-.74 10.856-2.005c2.201 1.574 3.582 3.605 3.582 5.848 0 4.945-6.478 8.97-14.438 8.97zm0-16.229c-3.62 0-6.893-.86-9.429-2.235 2.036-1.938 3.242-4.244 3.242-6.733 0-2.49-1.192-4.802-3.225-6.742 2.532-1.37 5.8-2.227 9.412-2.227 7.96 0 14.438 4.024 14.438 8.968 0 4.945-6.478 8.97-14.438 8.97z" stroke="#FFF" fill-rule="nonzero"/><path d="M117 39.235c0-6.84-8.926-12.385-19.938-12.385-5.003 0-9.563 1.152-13.062 3.043-3.502-1.89-8.06-3.043-13.062-3.043C59.926 26.85 51 32.395 51 39.235c0 3.108 1.855 5.941 4.899 8.115C52.855 49.523 51 52.356 51 55.464c0 6.84 8.926 12.386 19.938 12.386 5.003 0 9.56-1.153 13.062-3.043 3.499 1.89 8.06 3.043 13.062 3.043 11.012 0 19.938-5.545 19.938-12.386 0-3.108-1.855-5.94-4.899-8.114 3.044-2.173 4.899-5.008 4.899-8.115zm-36.647 22.97c-2.535 1.37-5.801 2.228-9.415 2.228-7.96 0-14.438-4.024-14.438-8.969 0-4.944 6.478-8.969 14.438-8.969 3.62 0 6.893.861 9.431 2.234-2.038 1.94-3.244 4.246-3.244 6.735 0 2.49 1.192 4.802 3.228 6.742zM70.938 43.08c-4.007 0-7.73.74-10.856 2.005-2.201-1.574-3.582-3.605-3.582-5.849 0-4.944 6.478-8.968 14.438-8.968 7.96 0 14.437 4.024 14.437 8.968 0 2.25-1.386 4.282-3.593 5.86-3.123-1.267-6.837-2.016-10.844-2.016zm26.124 21.354c-7.96 0-14.437-4.024-14.437-8.969 0-2.249 1.386-4.282 3.593-5.859 3.123 1.267 6.837 2.015 10.844 2.015s7.73-.74 10.856-2.004c2.202 1.574 3.582 3.605 3.582 5.848 0 4.945-6.478 8.969-14.438 8.969zm0-16.229c-3.62 0-6.893-.86-9.429-2.235 2.037-1.939 3.242-4.244 3.242-6.734 0-2.489-1.192-4.801-3.225-6.741 2.532-1.37 5.8-2.227 9.412-2.227 7.96 0 14.438 4.024 14.438 8.968 0 4.945-6.478 8.97-14.438 8.97z" stroke="#FFF" fill-rule="nonzero" filter="url(#f)" transform="translate(0 .15)"/></g></svg>