<svg width="169" height="146" viewBox="0 0 169 146" xmlns="http://www.w3.org/2000/svg"><defs><linearGradient x1="141.871%" y1="19.501%" x2="0%" y2="75.546%" id="a"><stop stop-color="#FF6056" offset="0%"/><stop stop-color="#FFA65D" offset="100%"/></linearGradient><linearGradient x1="141.871%" y1="39.199%" x2="0%" y2="59.047%" id="b"><stop stop-color="#FF6056" offset="0%"/><stop stop-color="#FFA65D" offset="100%"/></linearGradient><linearGradient x1="-3.763%" y1="66.829%" x2="146.107%" y2="20.741%" id="c"><stop stop-color="#E0362B" offset="0%"/><stop stop-color="#FFA65D" offset="100%"/></linearGradient><linearGradient x1="56.631%" y1="4.349%" x2="56.631%" y2="100%" id="d"><stop stop-color="#FF7758" offset="0%"/><stop stop-color="#FF7A59" offset="100%"/></linearGradient><linearGradient x1="50%" y1="0%" x2="50%" y2="104.766%" id="e"><stop stop-color="#FFF" stop-opacity=".334" offset="0%"/><stop stop-color="#FF5026" offset="100%"/></linearGradient><filter x="-11%" y="-14.2%" width="122%" height="128.4%" filterUnits="objectBoundingBox" id="f"><feGaussianBlur stdDeviation="2" in="SourceGraphic"/></filter></defs><g fill="none" fill-rule="evenodd"><path d="M168.996 74.285c.097-5.023-3.17-10.068-9.797-13.9l-51.434-29.743c-13.008-7.522-34.028-7.522-46.952 0l-51.1 29.743C3.27 64.135.059 69.044.066 73.958v-.048L0 96.7c-.014 4.96 3.255 9.93 9.801 13.714l51.434 29.743c13.007 7.521 34.029 7.522 46.953 0l51.1-29.743c6.42-3.737 9.633-8.628 9.647-13.525L169 74.1c0 .062-.003.124-.004.186z" fill="url(#a)" transform="translate(0 .15)"/><path d="M159.353 87.624l-51.1 29.743c-12.924 7.523-33.946 7.522-46.953 0L9.866 87.626C3.32 83.839.05 78.87.065 73.91L0 96.7c-.014 4.96 3.255 9.93 9.801 13.714l51.434 29.743c13.007 7.521 34.029 7.522 46.953 0l51.1-29.743c6.42-3.737 9.633-8.628 9.647-13.525L169 74.1c-.014 4.898-3.227 9.788-9.647 13.525z" fill="url(#b)" transform="translate(0 .15)"/><path d="M159.2 60.384c13.006 7.522 13.076 19.717.153 27.24l-51.1 29.744c-12.924 7.522-33.946 7.521-46.953 0L9.866 87.625c-13.009-7.523-13.077-19.717-.153-27.24l51.1-29.743c12.924-7.523 33.944-7.523 46.952 0l51.434 29.742z" fill="url(#c)" transform="translate(0 .15)"/><path d="M55.1 26.917c-.213.108-.424.22-.634.338h.001c.21-.118.42-.23.633-.338z" fill="#E0E0E2"/><path d="M168.996 49.285c.097-5.023-3.17-10.068-9.797-13.9L107.765 5.641c-13.008-7.522-34.028-7.522-46.952 0l-51.1 29.743C3.27 39.135.059 44.044.066 48.958v-.048L0 71.7c-.014 4.96 3.255 9.93 9.801 13.714l51.434 29.743c13.007 7.521 34.029 7.522 46.953 0l51.1-29.743c6.42-3.737 9.633-8.628 9.647-13.525L169 49.1c0 .062-.003.124-.004.186z" fill="url(#d)" transform="translate(0 .15)"/><path d="M159.2 35.384c13.006 7.522 13.076 19.717.153 27.24l-51.1 29.744c-12.924 7.522-33.946 7.521-46.953 0L9.866 62.625c-13.009-7.523-13.077-19.717-.153-27.24l51.1-29.743c12.924-7.523 33.944-7.523 46.952 0l51.434 29.742z" fill="url(#e)" transform="translate(0 .15)"/><path d="M55.1 1.917c-.213.108-.424.22-.634.338h.001c.21-.118.42-.23.633-.338z" fill="#E0E0E2"/><path stroke="#FFF" d="M85.899 26.003L56.205 36.987l-.401 22.996 5.58 2.288.4-22.963 24.038-8.89 23.718 9.724-.324 18.548-24.043 8.892-12.552-5.148.322-18.482 12.725-4.706 12.557 5.148-.168 9.651-12.73 4.707-1.392-.57.168-9.584 7.112-2.632-5.624-2.305-7.068 2.616-.245 14.03 6.972 2.86 18.386-6.8.247-14.098-18.138-7.436-18.38 6.798-.4 22.928 18.131 7.437 29.699-10.983.401-22.996z"/><path stroke="#FFF" filter="url(#f)" transform="rotate(1 76.893 48.925)" d="M85.498 25.85L56 37.35v23l5.62 2.19V39.573l23.878-9.308 23.884 9.308v18.552l-23.884 9.31-12.64-4.929V44.022l12.64-4.928 12.645 4.928v9.653l-12.645 4.929-1.402-.547v-9.585l7.065-2.755-5.663-2.207-7.021 2.738v14.033l7.02 2.738 18.265-7.12v-14.1L85.498 34.68l-18.26 7.118v22.93l18.26 7.12L115 60.35v-23z"/></g></svg>