<svg width="50" height="50" viewBox="0 0 50 50" xmlns="http://www.w3.org/2000/svg" xmlns:xlink="http://www.w3.org/1999/xlink"><defs><linearGradient x1="0%" y1="100%" x2="100%" y2="0%" id="a"><stop stop-color="#F19F73" offset="0%"/><stop stop-color="#A74EB5" offset="100%"/></linearGradient><path d="M16.499 0c-6.214 0-11.25 5.037-11.25 11.25h-4.5V27l7.795-7.795a11.215 11.215 0 0 0 7.955 3.295c6.213 0 11.25-5.037 11.25-11.25S22.712 0 16.499 0zm-13.5 21.568V13.5h8.068L3 21.568zm13.5-1.318a8.975 8.975 0 0 1-6.361-2.639l6.36-6.361h-9c0-4.962 4.038-9 9-9 4.963 0 9 4.037 9 9 0 4.962-4.037 9-9 9z" id="c"/><filter x="-17.8%" y="-17.8%" width="135.6%" height="137.1%" filterUnits="objectBoundingBox" id="b"><feMorphology radius=".3" operator="dilate" in="SourceAlpha" result="shadowSpreadOuter1"/><feOffset in="shadowSpreadOuter1" result="shadowOffsetOuter1"/><feMorphology radius="1" in="SourceAlpha" result="shadowInner"/><feOffset in="shadowInner" result="shadowInner"/><feComposite in="shadowOffsetOuter1" in2="shadowInner" operator="out" result="shadowOffsetOuter1"/><feGaussianBlur stdDeviation="1.5" in="shadowOffsetOuter1" result="shadowBlurOuter1"/><feColorMatrix values="0 0 0 0 1 0 0 0 0 1 0 0 0 0 1 0 0 0 0.5 0" in="shadowBlurOuter1"/></filter></defs><g fill="none" fill-rule="evenodd"><circle fill="url(#a)" cx="25" cy="25" r="25"/><g transform="rotate(45 5.39 33.081)" fill-rule="nonzero"><use fill="#000" filter="url(#b)" xlink:href="#c"/><use stroke="#FFF" stroke-width=".6" xlink:href="#c"/></g></g></svg>