<svg width="50" height="50" viewBox="0 0 50 50" xmlns="http://www.w3.org/2000/svg" xmlns:xlink="http://www.w3.org/1999/xlink"><defs><linearGradient x1="0%" y1="100%" y2="0%" id="a"><stop stop-color="#FFCF71" offset="0%"/><stop stop-color="#24CFDD" offset="100%"/></linearGradient><path d="M16.963 0H6.493v2.165h10.47a6.847 6.847 0 0 1 0 13.693H6.493v2.165h10.47a9.012 9.012 0 0 0 0-18.023z" id="c"/><filter x="-32.3%" y="-35%" width="164.7%" height="169.9%" filterUnits="objectBoundingBox" id="b"><feMorphology radius=".3" operator="dilate" in="SourceAlpha" result="shadowSpreadOuter1"/><feOffset in="shadowSpreadOuter1" result="shadowOffsetOuter1"/><feMorphology radius="1" in="SourceAlpha" result="shadowInner"/><feOffset in="shadowInner" result="shadowInner"/><feComposite in="shadowOffsetOuter1" in2="shadowInner" operator="out" result="shadowOffsetOuter1"/><feGaussianBlur stdDeviation="2" in="shadowOffsetOuter1" result="shadowBlurOuter1"/><feColorMatrix values="0 0 0 0 1 0 0 0 0 1 0 0 0 0 1 0 0 0 0.5 0" in="shadowBlurOuter1"/></filter><path d="M9.011 10.117h10.47V7.952H9.011a9.012 9.012 0 0 0 0 18.023h10.47V23.81H9.011a6.848 6.848 0 0 1 0-13.693z" id="e"/><filter x="-32.3%" y="-35%" width="164.7%" height="169.9%" filterUnits="objectBoundingBox" id="d"><feMorphology radius=".3" operator="dilate" in="SourceAlpha" result="shadowSpreadOuter1"/><feOffset in="shadowSpreadOuter1" result="shadowOffsetOuter1"/><feMorphology radius="1" in="SourceAlpha" result="shadowInner"/><feOffset in="shadowInner" result="shadowInner"/><feComposite in="shadowOffsetOuter1" in2="shadowInner" operator="out" result="shadowOffsetOuter1"/><feGaussianBlur stdDeviation="2" in="shadowOffsetOuter1" result="shadowBlurOuter1"/><feColorMatrix values="0 0 0 0 1 0 0 0 0 1 0 0 0 0 1 0 0 0 0.5 0" in="shadowBlurOuter1"/></filter></defs><g fill="none" fill-rule="evenodd"><circle fill="url(#a)" cx="25" cy="25" r="25"/><g fill-rule="nonzero"><g transform="translate(12 12)"><use fill="#000" filter="url(#b)" xlink:href="#c"/><use stroke="#FFF" stroke-width=".6" xlink:href="#c"/></g><g transform="translate(12 12)"><use fill="#000" filter="url(#d)" xlink:href="#e"/><use stroke="#FFF" stroke-width=".6" xlink:href="#e"/></g></g></g></svg>