<svg width="75" height="77" viewBox="0 0 75 77" xmlns="http://www.w3.org/2000/svg"><defs><linearGradient x1="97.315%" y1="2.685%" x2="-149.979%" y2="187.425%" id="a"><stop stop-color="#FF6056" offset="0%"/><stop stop-color="#FF5D5D" offset="100%"/></linearGradient><linearGradient x1="33.964%" y1="185.945%" x2="50%" y2="0%" id="b"><stop stop-color="#FFF" offset="0%"/><stop stop-color="#FFF" offset="100%"/></linearGradient><linearGradient x1="50%" y1="0%" x2="12.379%" y2="120.489%" id="c"><stop stop-color="#FFF" offset="0%"/><stop stop-color="#FFF" offset="100%"/></linearGradient><filter x="-10.9%" y="-16%" width="121.8%" height="131.1%" filterUnits="objectBoundingBox" id="d"><feGaussianBlur stdDeviation="1" in="SourceGraphic"/></filter><linearGradient x1="50%" y1="-9.698%" x2="50%" y2="100%" id="e"><stop stop-color="#FFF" stop-opacity="0" offset="0%"/><stop stop-color="#FFF" offset="100%"/></linearGradient><linearGradient x1="50%" y1="0%" x2="50%" y2="100%" id="f"><stop stop-color="#FFF" stop-opacity=".125" offset="0%"/><stop stop-color="#FFF" offset="100%"/></linearGradient><filter x="-202.8%" y="-54.2%" width="498.6%" height="203.9%" filterUnits="objectBoundingBox" id="g"><feGaussianBlur stdDeviation="1" in="SourceGraphic"/></filter><filter x="-21.8%" y="-22.1%" width="143.3%" height="144.2%" filterUnits="objectBoundingBox" id="h"><feGaussianBlur stdDeviation="1" in="SourceGraphic"/></filter><filter x="-13.5%" y="-14.7%" width="127%" height="129.4%" filterUnits="objectBoundingBox" id="i"><feOffset in="SourceAlpha" result="shadowOffsetOuter1"/><feGaussianBlur stdDeviation="1" in="shadowOffsetOuter1" result="shadowBlurOuter1"/><feColorMatrix values="0 0 0 0 1 0 0 0 0 1 0 0 0 0 1 0 0 0 0.698935688 0" in="shadowBlurOuter1" result="shadowMatrixOuter1"/><feMerge><feMergeNode in="shadowMatrixOuter1"/><feMergeNode in="SourceGraphic"/></feMerge></filter></defs><g fill="none" fill-rule="evenodd"><text font-family="HKGroteskRegular, HKGrotesk-Regular, HK Grotesk" font-size="15" fill="#FFF" transform="translate(-12)"><tspan x="11.758" y="73">aragonSDK</tspan></text><g transform="translate(14)"><circle fill="url(#a)" cx="25" cy="25" r="25"/><path d="M24.702 10.472a4.247 4.247 0 0 1-.08.038l.167-.016a8.547 8.547 0 0 1-.087-.022zm-2.21-1.008a5.08 5.08 0 0 1-.484-.404l-.153.43c.215-.016.427-.025.637-.026zm2.92.498a7.83 7.83 0 0 1 1.435.713l.194-.454a16.88 16.88 0 0 0-1.434-.304l-.134-.022-.06.067z" stroke="url(#b)" stroke-width=".5" transform="translate(7 9)"/><path d="M26.675 24.057c-1.618-.73-2.39-1.863-2.273-3.388.246-3.193 3.537-4.184 4.489-2.37.178.385.229.805.156 1.254 1.656-.906 2.469-2.137 2.469-3.708-.02-2.142-1.252-3.84-3.733-5.11l-.136-.07v-.94c-4.476-2.572-8.727-3.733-12.753-3.49.492.496.839.84 1.039 1.03l.43.409-.593.022c-3.973.152-6.994 1.683-9.085 4.601-2.062 2.877-2.643 6.138-1.744 9.804l21.734 1.956z" stroke="url(#c)" stroke-width=".5" transform="translate(7 9)"/><path d="M26.675 24.057c-1.618-.73-2.39-1.863-2.273-3.388.246-3.193 3.537-4.184 4.489-2.37.178.385.229.805.156 1.254 1.656-.906 2.469-2.137 2.469-3.708-.02-2.142-1.252-3.84-3.733-5.11l-.136-.07v-.94c-4.476-2.572-8.727-3.733-12.753-3.49.492.496.839.84 1.039 1.03l.43.409-.593.022c-3.973.152-6.994 1.683-9.085 4.601-2.062 2.877-2.643 6.138-1.744 9.804l21.734 1.956z" stroke="url(#c)" stroke-width=".5" filter="url(#d)" transform="translate(7 9)"/><path d="M28.554 11.238c.072.15-.058-.124 0 .025.797 2.033.39 4.038-1.038 6.103-.047.068-.103.064-.168-.01 1.541-2.192 1.874-4.241.971-6.286l.235.168zm.007.044c.784 2.02.382 4.014-1.025 6.066-.076.11.081-.064 0 .047l-.188-.028c1.541-2.197 1.874-4.249.971-6.297a.355.355 0 0 1 .242.212z" stroke="#FFF" stroke-width=".3" fill="url(#e)" fill-rule="nonzero" transform="translate(7 9)"/><path d="M24.037 20.7l.093.135c-1.78 1.09-3.91 1.496-6.388 1.221-5.487-.609-8.09-3.731-8.09-7.82 0-2.727 1.866-4.837 5.598-6.329l.06.152c-3.675 1.47-5.494 3.527-5.494 6.176 0 4.232 2.789 7.086 7.944 7.658 2.44.271 4.53-.127 6.277-1.193zm.093.135c-1.78 1.09-3.91 1.496-6.388 1.221-5.487-.609-8.09-3.731-8.09-7.82 0-2.727 1.866-4.837 5.598-6.329l.06.152c-3.675 1.47-5.494 3.527-5.494 6.176 0 4.232 2.789 7.086 7.944 7.658 2.44.271 4.53-.127 6.277-1.193l.093.135z" stroke="#FFF" stroke-width=".3" fill="url(#f)" fill-rule="nonzero" transform="translate(7 9)"/><path d="M28.554 11.238c.072.15-.058-.124 0 .025.797 2.033.39 4.038-1.038 6.103-.047.068-.103.064-.168-.01 1.541-2.192 1.874-4.241.971-6.286l.235.168zm.007.044c.784 2.02.382 4.014-1.025 6.066-.076.11.081-.064 0 .047l-.188-.028c1.541-2.197 1.874-4.249.971-6.297a.355.355 0 0 1 .242.212z" stroke="#FFF" stroke-width=".3" fill="url(#e)" fill-rule="nonzero" filter="url(#g)" transform="translate(7 9)"/><path d="M24.037 20.7l.093.135c-1.78 1.09-3.91 1.496-6.388 1.221-5.487-.609-8.09-3.731-8.09-7.82 0-2.727 1.866-4.837 5.598-6.329l.06.152c-3.675 1.47-5.494 3.527-5.494 6.176 0 4.232 2.789 7.086 7.944 7.658 2.44.271 4.53-.127 6.277-1.193zm.093.135c-1.78 1.09-3.91 1.496-6.388 1.221-5.487-.609-8.09-3.731-8.09-7.82 0-2.727 1.866-4.837 5.598-6.329l.06.152c-3.675 1.47-5.494 3.527-5.494 6.176 0 4.232 2.789 7.086 7.944 7.658 2.44.271 4.53-.127 6.277-1.193l.093.135z" stroke="#FFF" stroke-width=".3" fill="url(#f)" fill-rule="nonzero" filter="url(#h)" transform="translate(7 9)"/><g fill="#FFF" fill-rule="nonzero" stroke="#FFF" stroke-width=".5"><path d="M25.626 42.702l-.154.261c-.106-.053-.03-.022-.079-.038-9.076-2.773-15.198-10.764-18.369-23.954l.047-.139c5.236-4.371 11.393-7.64 18.47-9.806l.086.268c-7.012 2.146-13.113 5.378-18.304 9.696 3.172 13.123 9.274 21.02 18.303 23.712z"/><path d="M25.383 42.702l.083.268c9.158-2.73 15.33-10.737 18.518-23.999l-.046-.139c-5.236-4.371-11.32-7.64-18.398-9.806l-.158.268c7.011 2.146 13.112 5.378 18.304 9.696-3.173 13.123-9.274 21.02-18.303 23.712z"/></g><g filter="url(#i)" fill="#FFF" fill-rule="nonzero" stroke="#FFF" stroke-width=".5" transform="translate(7 9)"><path d="M18.626 33.702l-.154.261c-.106-.053-.03-.022-.079-.038C9.317 31.152 3.195 23.161.024 9.971l.047-.139C5.307 5.461 11.464 2.192 18.54.026l.086.268C11.615 2.44 5.514 5.672.323 9.99c3.172 13.123 9.274 21.02 18.303 23.712z"/><path d="M18.383 33.702l.083.268c9.158-2.73 15.33-10.737 18.518-23.999l-.046-.139C31.702 5.461 25.618 2.192 18.54.026l-.158.268C25.393 2.44 31.494 5.672 36.686 9.99c-3.173 13.123-9.274 21.02-18.303 23.712z"/></g><path d="M34.566 33.257s1.14.39 3.111.493" stroke="#FFF" stroke-width=".5"/></g></g></svg>