<svg width="169" height="146" viewBox="0 0 169 146" xmlns="http://www.w3.org/2000/svg"><defs><linearGradient x1="0%" y1="75.546%" x2="100%" y2="24.454%" id="a"><stop stop-color="#F19F73" offset="0%"/><stop stop-color="#A74EB5" offset="100%"/></linearGradient><linearGradient x1="0%" y1="59.047%" x2="100%" y2="40.953%" id="b"><stop stop-color="#F19F73" offset="0%"/><stop stop-color="#A74EB5" offset="100%"/></linearGradient><linearGradient x1="0%" y1="65.061%" x2="100%" y2="33.171%" id="c"><stop stop-color="#E87233" offset="0%"/><stop stop-color="#A74EB5" offset="100%"/></linearGradient><linearGradient x1="56.631%" y1="4.854%" x2="56.631%" y2="100%" id="d"><stop stop-color="#E7947B" offset="0%"/><stop stop-color="#B25AAB" offset="100%"/></linearGradient><linearGradient x1="50%" y1="0%" x2="50%" y2="104.766%" id="e"><stop stop-color="#FFF" stop-opacity=".552" offset="0%"/><stop stop-color="#B5B5B5" stop-opacity="0" offset="100%"/></linearGradient><filter x="-7.7%" y="-12.7%" width="115.4%" height="126.4%" filterUnits="objectBoundingBox" id="f"><feGaussianBlur stdDeviation="1.573" in="SourceGraphic"/></filter></defs><g fill="none" fill-rule="evenodd"><path d="M168.996 74.285c.097-5.023-3.17-10.068-9.797-13.9l-51.434-29.743c-13.008-7.522-34.028-7.522-46.952 0l-51.1 29.743C3.27 64.135.059 69.044.066 73.958v-.048L0 96.7c-.014 4.96 3.255 9.93 9.801 13.714l51.434 29.743c13.007 7.521 34.029 7.522 46.953 0l51.1-29.743c6.42-3.737 9.633-8.628 9.647-13.525L169 74.1c0 .062-.003.124-.004.186z" fill="url(#a)" transform="translate(0 .15)"/><path d="M159.353 87.624l-51.1 29.743c-12.924 7.523-33.946 7.522-46.953 0L9.866 87.626C3.32 83.839.05 78.87.065 73.91L0 96.7c-.014 4.96 3.255 9.93 9.801 13.714l51.434 29.743c13.007 7.521 34.029 7.522 46.953 0l51.1-29.743c6.42-3.737 9.633-8.628 9.647-13.525L169 74.1c-.014 4.898-3.227 9.788-9.647 13.525z" fill="url(#b)" transform="translate(0 .15)"/><path d="M159.2 60.384c13.006 7.522 13.076 19.717.153 27.24l-51.1 29.744c-12.924 7.522-33.946 7.521-46.953 0L9.866 87.625c-13.009-7.523-13.077-19.717-.153-27.24l51.1-29.743c12.924-7.523 33.944-7.523 46.952 0l51.434 29.742z" fill="url(#c)" transform="translate(0 .15)"/><path d="M55.1 26.917c-.213.108-.424.22-.634.338h.001c.21-.118.42-.23.633-.338z" fill="#E0E0E2"/><path d="M168.996 49.285c.097-5.023-3.17-10.068-9.797-13.9L107.765 5.641c-13.008-7.522-34.028-7.522-46.952 0l-51.1 29.743C3.27 39.135.059 44.044.066 48.958v-.048L0 71.7c-.014 4.96 3.255 9.93 9.801 13.714l51.434 29.743c13.007 7.521 34.029 7.522 46.953 0l51.1-29.743c6.42-3.737 9.633-8.628 9.647-13.525L169 49.1c0 .062-.003.124-.004.186z" fill="url(#d)" transform="translate(0 .15)"/><path d="M159.2 35.384c13.006 7.522 13.076 19.717.153 27.24l-51.1 29.744c-12.924 7.522-33.946 7.521-46.953 0L9.866 62.625c-13.009-7.523-13.077-19.717-.153-27.24l51.1-29.743c12.924-7.523 33.944-7.523 46.952 0l51.434 29.742z" fill="url(#e)" transform="translate(0 .15)"/><path d="M55.1 1.917c-.213.108-.424.22-.634.338h.001c.21-.118.42-.23.633-.338z" fill="#E0E0E2"/><path d="M95.667 27c-15.65 0-28.334 7.65-28.334 17.083H56V68l19.632-11.837c5.127 3.092 12.21 5.004 20.035 5.004 15.647 0 28.333-7.65 28.333-17.084S111.314 27 95.667 27zm-34 32.752V47.5h20.32l-20.32 12.252zm34-2.002c-6.248 0-11.915-1.533-16.02-4.007l16.02-9.66H73c0-7.535 10.169-13.667 22.667-13.667 12.497 0 22.666 6.131 22.666 13.667S108.164 57.75 95.667 57.75z" stroke="#FFF" fill-rule="nonzero"/><path d="M95.667 26.85c-15.65 0-28.334 7.649-28.334 17.083H56V67.85l19.632-11.837c5.127 3.091 12.21 5.004 20.035 5.004 15.647 0 28.333-7.65 28.333-17.084S111.314 26.85 95.667 26.85zm-34 32.752V47.35h20.32l-20.32 12.252zm34-2.002c-6.248 0-11.915-1.533-16.02-4.007l16.02-9.66H73c0-7.535 10.169-13.667 22.667-13.667 12.497 0 22.666 6.131 22.666 13.667S108.164 57.6 95.667 57.6z" stroke="#FFF" fill-rule="nonzero" filter="url(#f)" transform="translate(0 .15)"/></g></svg>