<svg width="169" height="146" viewBox="0 0 169 146" xmlns="http://www.w3.org/2000/svg"><defs><linearGradient x1="0%" y1="75.546%" x2="100%" y2="24.454%" id="a"><stop stop-color="#F19F73" offset="0%"/><stop stop-color="#A74EB5" offset="100%"/></linearGradient><linearGradient x1="0%" y1="59.047%" x2="100%" y2="40.953%" id="b"><stop stop-color="#FFCF71" offset="0%"/><stop stop-color="#24CFDD" offset="100%"/></linearGradient><linearGradient x1="137.565%" y1="16.053%" x2="12.411%" y2="80.272%" id="c"><stop stop-color="#FFCF71" offset="0%"/><stop stop-color="#10ABB7" offset="100%"/></linearGradient><linearGradient x1="56.631%" y1="4.349%" x2="56.631%" y2="100%" id="d"><stop stop-color="#3BCFD1" offset="0%"/><stop stop-color="#CFCF88" offset="100%"/></linearGradient><filter x="-14%" y="-22.3%" width="128%" height="144.7%" filterUnits="objectBoundingBox" id="e"><feGaussianBlur stdDeviation="2" in="SourceGraphic"/></filter><filter x="-14.4%" y="-23.2%" width="128.9%" height="146.4%" filterUnits="objectBoundingBox" id="f"><feGaussianBlur stdDeviation="2" in="SourceGraphic"/></filter></defs><g fill="none" fill-rule="evenodd"><path d="M168.996 74.285c.097-5.023-3.17-10.068-9.797-13.9l-51.434-29.743c-13.008-7.522-34.028-7.522-46.952 0l-51.1 29.743C3.27 64.135.059 69.044.066 73.958v-.048L0 96.7c-.014 4.96 3.255 9.93 9.801 13.714l51.434 29.743c13.007 7.521 34.029 7.522 46.953 0l51.1-29.743c6.42-3.737 9.633-8.628 9.647-13.525L169 74.1c0 .062-.003.124-.004.186z" fill="url(#a)" transform="translate(0 .15)"/><path d="M159.353 87.624l-51.1 29.743c-12.924 7.523-33.946 7.522-46.953 0L9.866 87.626C3.32 83.839.05 78.87.065 73.91L0 96.7c-.014 4.96 3.255 9.93 9.801 13.714l51.434 29.743c13.007 7.521 34.029 7.522 46.953 0l51.1-29.743c6.42-3.737 9.633-8.628 9.647-13.525L169 74.1c-.014 4.898-3.227 9.788-9.647 13.525z" fill="url(#b)" transform="translate(0 .15)"/><path d="M159.2 60.384c13.006 7.522 13.076 19.717.153 27.24l-51.1 29.744c-12.924 7.522-33.946 7.521-46.953 0L9.866 87.625c-13.009-7.523-13.077-19.717-.153-27.24l51.1-29.743c12.924-7.523 33.944-7.523 46.952 0l51.434 29.742z" fill="url(#c)" transform="translate(0 .15)"/><path d="M55.1 26.917c-.213.108-.424.22-.634.338h.001c.21-.118.42-.23.633-.338z" fill="#E0E0E2"/><path d="M168.996 49.285c.097-5.023-3.17-10.068-9.797-13.9L107.765 5.641c-13.008-7.522-34.028-7.522-46.952 0l-51.1 29.743C3.27 39.135.059 44.044.066 48.958v-.048L0 71.7c-.014 4.96 3.255 9.93 9.801 13.714l51.434 29.743c13.007 7.521 34.029 7.522 46.953 0l51.1-29.743c6.42-3.737 9.633-8.628 9.647-13.525L169 49.1c0 .062-.003.124-.004.186z" fill="url(#d)" transform="translate(0 .15)"/><path d="M159.2 35.535c13.006 7.521 13.076 19.717.152 27.24l-51.1 29.743c-12.923 7.522-33.945 7.521-46.952 0L9.866 62.775c-13.009-7.522-13.077-19.717-.153-27.24l51.1-29.743c12.923-7.522 33.944-7.522 46.952 0l51.434 29.743z" fill-opacity=".202" fill="#FFF"/><path d="M93.451 27H68.485v3.497H93.45c9.018 0 16.327 4.953 16.327 11.061s-7.309 11.059-16.327 11.059H68.485v3.496H93.45c11.869 0 21.489-6.516 21.489-14.555 0-8.04-9.62-14.558-21.489-14.558z" stroke="#FFF"/><path d="M74.488 43.343h24.967v-3.497H74.488C62.62 39.846 53 46.363 53 54.4c0 8.04 9.62 14.558 21.488 14.558h24.967v-3.497H74.488c-9.017 0-16.326-4.954-16.326-11.061 0-6.108 7.308-11.058 16.326-11.058z" stroke="#FFF"/><path d="M93.451 26.85H68.485v3.497H93.45c9.018 0 16.327 4.953 16.327 11.061S102.47 52.466 93.45 52.466H68.485v3.497H93.45c11.869 0 21.489-6.517 21.489-14.555 0-8.04-9.62-14.558-21.489-14.558z" stroke="#FFF" filter="url(#e)" transform="translate(0 .15)"/><path d="M74.815 44.059H99v-3.363H74.815C63.32 40.696 54 46.963 54 54.694c0 7.732 9.319 14.002 20.815 14.002H99v-3.364H74.815C66.08 65.332 59 60.568 59 54.694s7.08-10.635 15.815-10.635z" stroke="#FFF" filter="url(#f)" transform="translate(0 .15)"/><path d="M55.1 1.917c-.213.108-.424.22-.634.338h.001c.21-.118.42-.23.633-.338z" fill="#E0E0E2"/></g></svg>