<?xml version="1.0" encoding="UTF-8"?>
<svg width="75px" height="77px" viewBox="0 0 75 77" version="1.1" xmlns="http://www.w3.org/2000/svg" xmlns:xlink="http://www.w3.org/1999/xlink">
    <!-- Generator: sketchtool 52.6 (67491) - http://www.bohemiancoding.com/sketch -->
    <title>61CE431B-AB5D-402A-BD21-C39018753ECB</title>
    <desc>Created with sketchtool.</desc>
    <defs>
        <linearGradient x1="97.3152999%" y1="2.68470014%" x2="-149.979129%" y2="187.424814%" id="linearGradient-1">
            <stop stop-color="#FF6056" offset="0%"></stop>
            <stop stop-color="#FF5D5D" offset="100%"></stop>
        </linearGradient>
        <linearGradient x1="33.9636867%" y1="185.944956%" x2="50%" y2="0%" id="linearGradient-2">
            <stop stop-color="#FFFFFF" offset="0%"></stop>
            <stop stop-color="#FFFFFF" offset="100%"></stop>
        </linearGradient>
        <linearGradient x1="50%" y1="0%" x2="12.3792587%" y2="120.489101%" id="linearGradient-3">
            <stop stop-color="#FFFFFF" offset="0%"></stop>
            <stop stop-color="#FFFFFF" offset="100%"></stop>
        </linearGradient>
        <filter x="-10.9%" y="-16.0%" width="121.8%" height="131.1%" filterUnits="objectBoundingBox" id="filter-4">
            <feGaussianBlur stdDeviation="1" in="SourceGraphic"></feGaussianBlur>
        </filter>
        <linearGradient x1="50%" y1="-9.6984053%" x2="50%" y2="100%" id="linearGradient-5">
            <stop stop-color="#FFFFFF" stop-opacity="0" offset="0%"></stop>
            <stop stop-color="#FFFFFF" offset="100%"></stop>
        </linearGradient>
        <linearGradient x1="50%" y1="0%" x2="50%" y2="100%" id="linearGradient-6">
            <stop stop-color="#FFFFFF" stop-opacity="0.124773551" offset="0%"></stop>
            <stop stop-color="#FFFFFF" offset="100%"></stop>
        </linearGradient>
        <filter x="-202.8%" y="-54.2%" width="498.6%" height="203.9%" filterUnits="objectBoundingBox" id="filter-7">
            <feGaussianBlur stdDeviation="1" in="SourceGraphic"></feGaussianBlur>
        </filter>
        <filter x="-21.8%" y="-22.1%" width="143.3%" height="144.2%" filterUnits="objectBoundingBox" id="filter-8">
            <feGaussianBlur stdDeviation="1" in="SourceGraphic"></feGaussianBlur>
        </filter>
        <filter x="-13.5%" y="-14.7%" width="127.0%" height="129.4%" filterUnits="objectBoundingBox" id="filter-9">
            <feOffset dx="0" dy="0" in="SourceAlpha" result="shadowOffsetOuter1"></feOffset>
            <feGaussianBlur stdDeviation="1" in="shadowOffsetOuter1" result="shadowBlurOuter1"></feGaussianBlur>
            <feColorMatrix values="0 0 0 0 1   0 0 0 0 1   0 0 0 0 1  0 0 0 0.698935688 0" type="matrix" in="shadowBlurOuter1" result="shadowMatrixOuter1"></feColorMatrix>
            <feMerge>
                <feMergeNode in="shadowMatrixOuter1"></feMergeNode>
                <feMergeNode in="SourceGraphic"></feMergeNode>
            </feMerge>
        </filter>
    </defs>
    <g id="Page-1" stroke="none" stroke-width="1" fill="none" fill-rule="evenodd">
        <g id="Developers@2x" transform="translate(-306.000000, -74.000000)">
            <g id="Group-32" transform="translate(0.000000, 58.000000)">
                <g id="Group-15">
                    <g id="Group-18">
                        <g id="ARAGON-SDK" transform="translate(294.000000, 16.000000)">
                            <text id="aragonSDK" font-family="HKGroteskRegular, HKGrotesk-Regular, HK Grotesk" font-size="15" font-weight="normal" fill="#FFFFFF">
                                <tspan x="11.7583008" y="73">aragonSDK</tspan>
                            </text>
                            <g id="Group-47" transform="translate(26.000000, 0.000000)">
                                <circle id="Oval" fill="url(#linearGradient-1)" cx="25" cy="25" r="25"></circle>
                                <g id="Group-33-Copy" transform="translate(7.000000, 9.000000)">
                                    <g id="Group">
                                        <path d="M24.7017331,10.471745 C24.6757497,10.4846324 24.6492016,10.4974526 24.6220886,10.5102037 L24.7886573,10.4937839 C24.7595407,10.4865634 24.730566,10.4792171 24.7017331,10.471745 Z M22.4924409,9.46363059 C22.3210229,9.33779265 22.1594601,9.20312118 22.0077108,9.05962697 L21.8546745,9.49057277 C22.0698646,9.47440483 22.2824492,9.46542395 22.4924409,9.46363059 Z M25.4124123,9.96188798 C25.9086412,10.1476056 26.3866064,10.3852109 26.8465527,10.6747125 L27.0414351,10.2208707 C26.535358,10.0919614 26.0573615,9.99064394 25.6073498,9.91696507 L25.4729991,9.89496829 L25.4124123,9.96188798 Z" id="Path-2" stroke="url(#linearGradient-2)" stroke-width="0.5"></path>
                                        <path d="M26.6748783,24.0565425 C25.0569663,23.326262 24.2847883,22.1942889 24.4020884,20.669349 C24.6477383,17.4758216 27.938874,16.4849072 28.8910215,18.2991977 C29.0688872,18.6840262 29.1200449,19.1035886 29.0473818,19.5531365 C30.7034963,18.6468696 31.5159278,17.4163064 31.5159378,15.8454056 C31.495828,13.7030678 30.263907,12.0059109 27.782804,10.7352196 L27.6467646,10.6655474 L27.6467646,9.72479161 C23.1705795,7.15312216 18.9204989,5.99190703 14.89359,6.23510251 C15.3860091,6.73141258 15.7327406,7.07503219 15.9328452,7.26507223 L16.3629862,7.67357851 L15.770206,7.69616762 C11.7969688,7.84757603 8.77623025,9.37939603 6.68493315,12.2973514 C4.62321505,15.1740357 4.0418496,18.435234 4.94069458,22.1008746 L26.6748783,24.0565425 Z" id="Path-3" stroke="url(#linearGradient-3)" stroke-width="0.5"></path>
                                        <path d="M26.6748783,24.0565425 C25.0569663,23.326262 24.2847883,22.1942889 24.4020884,20.669349 C24.6477383,17.4758216 27.938874,16.4849072 28.8910215,18.2991977 C29.0688872,18.6840262 29.1200449,19.1035886 29.0473818,19.5531365 C30.7034963,18.6468696 31.5159278,17.4163064 31.5159378,15.8454056 C31.495828,13.7030678 30.263907,12.0059109 27.782804,10.7352196 L27.6467646,10.6655474 L27.6467646,9.72479161 C23.1705795,7.15312216 18.9204989,5.99190703 14.89359,6.23510251 C15.3860091,6.73141258 15.7327406,7.07503219 15.9328452,7.26507223 L16.3629862,7.67357851 L15.770206,7.69616762 C11.7969688,7.84757603 8.77623025,9.37939603 6.68493315,12.2973514 C4.62321505,15.1740357 4.0418496,18.435234 4.94069458,22.1008746 L26.6748783,24.0565425 Z" id="Path-3-Copy" stroke="url(#linearGradient-3)" stroke-width="0.5" filter="url(#filter-4)"></path>
                                        <path d="M28.554198,11.2378942 C28.6259176,11.3877431 28.4955868,11.113888 28.554198,11.2633967 C29.3511809,13.2963808 28.9431367,15.3011581 27.5158988,17.3662533 C27.4694096,17.4335193 27.4133854,17.4301515 27.3478261,17.35615 C28.8892388,15.163684 29.221824,13.114622 28.3192728,11.0697674 L28.554198,11.2378942 Z M28.5614955,11.2824503 C29.3449893,13.3029091 28.9425663,15.2958167 27.5357855,17.3478057 C27.4599093,17.4584819 27.6174767,17.2843153 27.5357855,17.3953488 L27.3478261,17.3666003 C28.8892388,15.1704896 29.221824,13.1180213 28.3192728,11.0697674 C28.4404286,11.1075639 28.5211695,11.1784582 28.5614955,11.2824503 Z" id="Path-4" stroke="#FFFFFF" stroke-width="0.3" fill="url(#linearGradient-5)" fill-rule="nonzero"></path>
                                        <path d="M24.0374716,20.6999823 L24.1304348,20.8353202 C22.3495161,21.9243994 20.2201771,22.3314052 17.7424179,22.0563376 C12.2553666,21.4471944 9.65217391,18.3247349 9.65217391,14.2352085 C9.65217391,11.5088575 11.5181123,9.39944694 15.2499892,7.90697674 L15.3106387,8.05935847 C11.6350311,9.52932518 9.81584244,11.585886 9.81584244,14.2352085 C9.81584244,18.4669703 12.604528,21.3208917 17.7604338,21.8932729 C20.2001514,22.1641173 22.2906548,21.76562 24.0374716,20.6999823 Z M24.1304348,20.8353202 C22.3495161,21.9243994 20.2201771,22.3314052 17.7424179,22.0563376 C12.2553666,21.4471944 9.65217391,18.3247349 9.65217391,14.2352085 C9.65217391,11.5088575 11.5181123,9.39944694 15.2499892,7.90697674 L15.3106387,8.05935847 C11.6350311,9.52932518 9.81584244,11.585886 9.81584244,14.2352085 C9.81584244,18.4669703 12.604528,21.3208917 17.7604338,21.8932729 C20.2001514,22.1641173 22.2906548,21.76562 24.0374715,20.6999823 L24.1304348,20.8353202 Z" id="Path-5" stroke="#FFFFFF" stroke-width="0.3" fill="url(#linearGradient-6)" fill-rule="nonzero"></path>
                                        <path d="M28.554198,11.2378942 C28.6259176,11.3877431 28.4955868,11.113888 28.554198,11.2633967 C29.3511809,13.2963808 28.9431367,15.3011581 27.5158988,17.3662533 C27.4694096,17.4335193 27.4133854,17.4301515 27.3478261,17.35615 C28.8892388,15.163684 29.221824,13.114622 28.3192728,11.0697674 L28.554198,11.2378942 Z M28.5614955,11.2824503 C29.3449893,13.3029091 28.9425663,15.2958167 27.5357855,17.3478057 C27.4599093,17.4584819 27.6174767,17.2843153 27.5357855,17.3953488 L27.3478261,17.3666003 C28.8892388,15.1704896 29.221824,13.1180213 28.3192728,11.0697674 C28.4404286,11.1075639 28.5211695,11.1784582 28.5614955,11.2824503 Z" id="Path-4-Copy" stroke="#FFFFFF" stroke-width="0.3" fill="url(#linearGradient-5)" fill-rule="nonzero" filter="url(#filter-7)"></path>
                                        <path d="M24.0374716,20.6999823 L24.1304348,20.8353202 C22.3495161,21.9243994 20.2201771,22.3314052 17.7424179,22.0563376 C12.2553666,21.4471944 9.65217391,18.3247349 9.65217391,14.2352085 C9.65217391,11.5088575 11.5181123,9.39944694 15.2499892,7.90697674 L15.3106387,8.05935847 C11.6350311,9.52932518 9.81584244,11.585886 9.81584244,14.2352085 C9.81584244,18.4669703 12.604528,21.3208917 17.7604338,21.8932729 C20.2001514,22.1641173 22.2906548,21.76562 24.0374716,20.6999823 Z M24.1304348,20.8353202 C22.3495161,21.9243994 20.2201771,22.3314052 17.7424179,22.0563376 C12.2553666,21.4471944 9.65217391,18.3247349 9.65217391,14.2352085 C9.65217391,11.5088575 11.5181123,9.39944694 15.2499892,7.90697674 L15.3106387,8.05935847 C11.6350311,9.52932518 9.81584244,11.585886 9.81584244,14.2352085 C9.81584244,18.4669703 12.604528,21.3208917 17.7604338,21.8932729 C20.2001514,22.1641173 22.2906548,21.76562 24.0374715,20.6999823 L24.1304348,20.8353202 Z" id="Path-5-Copy" stroke="#FFFFFF" stroke-width="0.3" fill="url(#linearGradient-6)" fill-rule="nonzero" filter="url(#filter-8)"></path>
                                        <g id="Group-34" fill="#FFFFFF" fill-rule="nonzero" stroke="#FFFFFF" stroke-width="0.5">
                                            <path d="M18.6257643,33.7019019 L18.4722224,33.9630282 C18.3657483,33.9098367 18.4429377,33.9405263 18.3931917,33.9253283 C9.31712151,31.1524685 3.19488053,23.1606876 0.0242412964,9.97124464 L0.0707576519,9.8321091 C5.30670954,5.4606126 11.4640789,2.19200244 18.5417003,0.0264030082 L18.6267599,0.294351709 C11.6152329,2.43972768 5.5142356,5.67168821 0.322617736,9.99035607 C3.49502045,23.1132661 9.59681927,31.0099569 18.6257643,33.7019019 Z" id="Path-6"></path>
                                            <path d="M36.9831669,33.7019019 L36.9000986,33.9704521 C27.7417249,31.2399184 21.5696615,23.2329791 18.3816439,9.97124464 L18.4281603,9.8321091 C23.6641122,5.4606126 29.7484728,2.19185261 36.8260943,0.0262531784 L36.9841626,0.294351709 C29.9726355,2.43972768 23.8716382,5.67168821 18.6800204,9.99035607 C21.8524231,23.1132661 27.9542219,31.0099569 36.9831669,33.7019019 Z" id="Path-6-Copy" transform="translate(27.682903, 16.998353) scale(-1, 1) translate(-27.682903, -16.998353) "></path>
                                        </g>
                                        <g id="Group-34" filter="url(#filter-9)" fill="#FFFFFF" fill-rule="nonzero" stroke="#FFFFFF" stroke-width="0.5">
                                            <path d="M18.6257643,33.7019019 L18.4722224,33.9630282 C18.3657483,33.9098367 18.4429377,33.9405263 18.3931917,33.9253283 C9.31712151,31.1524685 3.19488053,23.1606876 0.0242412964,9.97124464 L0.0707576519,9.8321091 C5.30670954,5.4606126 11.4640789,2.19200244 18.5417003,0.0264030082 L18.6267599,0.294351709 C11.6152329,2.43972768 5.5142356,5.67168821 0.322617736,9.99035607 C3.49502045,23.1132661 9.59681927,31.0099569 18.6257643,33.7019019 Z" id="Path-6"></path>
                                            <path d="M36.9831669,33.7019019 L36.9000986,33.9704521 C27.7417249,31.2399184 21.5696615,23.2329791 18.3816439,9.97124464 L18.4281603,9.8321091 C23.6641122,5.4606126 29.7484728,2.19185261 36.8260943,0.0262531784 L36.9841626,0.294351709 C29.9726355,2.43972768 23.8716382,5.67168821 18.6800204,9.99035607 C21.8524231,23.1132661 27.9542219,31.0099569 36.9831669,33.7019019 Z" id="Path-6-Copy" transform="translate(27.682903, 16.998353) scale(-1, 1) translate(-27.682903, -16.998353) "></path>
                                        </g>
                                        <path d="M27.5662252,24.2570755 C27.5662252,24.2570755 28.7060439,24.6462333 30.6772364,24.7501889" id="Path-7" stroke="#FFFFFF" stroke-width="0.5"></path>
                                    </g>
                                </g>
                            </g>
                        </g>
                    </g>
                </g>
            </g>
        </g>
    </g>
</svg>
