<?xml version="1.0" encoding="UTF-8"?>
<svg width="169px" height="146px" viewBox="0 0 169 146" version="1.1" xmlns="http://www.w3.org/2000/svg" xmlns:xlink="http://www.w3.org/1999/xlink">
    <!-- Generator: Sketch 55.2 (78181) - https://sketchapp.com -->
    <title>Group 51</title>
    <desc>Created with Sketch.</desc>
    <defs>
        <linearGradient x1="0%" y1="75.5456033%" x2="100%" y2="24.4543967%" id="linearGradient-1">
            <stop stop-color="#F19F73" offset="0%"></stop>
            <stop stop-color="#A74EB5" offset="100%"></stop>
        </linearGradient>
        <linearGradient x1="0%" y1="59.0471912%" x2="100%" y2="40.9528088%" id="linearGradient-2">
            <stop stop-color="#F19F73" offset="0%"></stop>
            <stop stop-color="#A74EB5" offset="100%"></stop>
        </linearGradient>
        <linearGradient x1="0%" y1="65.0613276%" x2="100%" y2="33.1709057%" id="linearGradient-3">
            <stop stop-color="#E87233" offset="0%"></stop>
            <stop stop-color="#A74EB5" offset="100%"></stop>
        </linearGradient>
        <linearGradient x1="56.6313912%" y1="4.85411415%" x2="56.6313912%" y2="100%" id="linearGradient-4">
            <stop stop-color="#E7947B" offset="0%"></stop>
            <stop stop-color="#B25AAB" offset="100%"></stop>
        </linearGradient>
        <linearGradient x1="50%" y1="0%" x2="50%" y2="104.766068%" id="linearGradient-5">
            <stop stop-color="#FFFFFF" stop-opacity="0.552092439" offset="0%"></stop>
            <stop stop-color="#B5B5B5" stop-opacity="0" offset="100%"></stop>
        </linearGradient>
        <filter x="-7.7%" y="-12.7%" width="115.4%" height="126.4%" filterUnits="objectBoundingBox" id="filter-6">
            <feGaussianBlur stdDeviation="1.57300014" in="SourceGraphic"></feGaussianBlur>
        </filter>
    </defs>
    <g id="Page-1" stroke="none" stroke-width="1" fill="none" fill-rule="evenodd">
        <g id="Artboard-Copy-3" transform="translate(-404.000000, -926.000000)">
            <g id="Group-11" transform="translate(404.000000, 275.000000)">
                <g id="Group-3-Copy">
                    <g id="Group-19" transform="translate(0.000000, 651.000000)">
                        <g id="Group-23">
                            <g id="Group-30" transform="translate(-0.000046, 0.150217)">
                                <g id="Group-31" transform="translate(-0.000000, 0.000000)">
                                    <g id="Group-32" transform="translate(-0.000000, 0.000000)">
                                        <g id="Group-51" transform="translate(-0.000000, 0.000000)">
                                            <path d="M168.995755,74.2848952 C169.093128,69.2620727 165.826345,64.2167695 159.199366,60.3844416 L107.765273,30.6419143 C94.7568937,23.1197476 73.7368585,23.1197476 60.8129796,30.6422449 L9.71292492,60.3854334 C3.27145031,64.1341192 0.0587999192,69.043876 0.0657315598,73.9576001 C0.0657315598,73.9417312 0.0647413254,73.9258624 0.0650714035,73.9099935 L-2.84217094e-14,96.6996492 C-0.0141473465,101.660649 3.25527648,106.629253 9.80105578,110.414305 L61.2354796,140.157163 C74.2422081,147.678338 95.2638937,147.67933 108.187773,140.156832 L159.287827,110.413644 C165.707847,106.67686 168.921157,101.786278 168.935351,96.8890837 L169.000046,74.0990973 C169.000046,74.1609197 168.997075,74.2230727 168.995755,74.2848952 Z" id="Path" fill="url(#linearGradient-1)"></path>
                                            <path d="M159.352523,87.623988 L108.252468,117.367177 C95.328589,124.889674 74.3069034,124.888682 61.3001749,117.367507 L9.86575109,87.6246492 C3.31997179,83.8392667 0.050547966,78.8709935 0.0647413254,73.9099935 L-2.84217094e-14,96.6996492 C-0.0141473465,101.660649 3.25527648,106.629253 9.80105578,110.414305 L61.2354796,140.157163 C74.2422081,147.678338 95.2638937,147.67933 108.187773,140.156832 L159.287827,110.413644 C165.707847,106.67686 168.921157,101.786278 168.935351,96.8890837 L169.000046,74.0990973 C168.986183,78.9969525 165.772542,83.8872039 159.352523,87.623988 Z" id="Path" fill="url(#linearGradient-2)"></path>
                                            <path d="M159.199366,60.3844416 C172.206095,67.9059471 172.276071,80.1014908 159.352523,87.623988 L108.252468,117.367507 C95.328589,124.890004 74.3069034,124.889013 61.3001749,117.367838 L9.86575109,87.6246492 C-3.14262782,80.1024826 -3.21095399,67.9076001 9.71259484,60.3851028 L60.8126495,30.6419143 C73.7365284,23.119417 94.7565636,23.119417 107.764942,30.6415837 L159.199366,60.3844416 Z" id="Path" fill="url(#linearGradient-3)"></path>
                                            <path d="M55.0999788,26.7672694 C54.8870827,26.8752658 54.6758327,26.9871192 54.4662288,27.1044825 C54.4667775,27.1044825 54.4667775,27.1039315 54.4673262,27.1039315 C54.6763814,26.9865682 54.8870827,26.8752658 55.0999788,26.7672694 L55.0999788,26.7672694 Z" id="Path" fill="#E0E0E2"></path>
                                            <path d="M168.995755,49.2848952 C169.093128,44.2620727 165.826345,39.2167695 159.199366,35.3844416 L107.765273,5.64191428 C94.7568937,-1.88025239 73.7368585,-1.88025239 60.8129796,5.64224488 L9.71292492,35.3854334 C3.27145031,39.1341192 0.0587999192,44.043876 0.0657315598,48.9576001 C0.0657315598,48.9417312 0.0647413254,48.9258624 0.0650714035,48.9099935 L-2.84217094e-14,71.6996492 C-0.0141473465,76.6606492 3.25527648,81.6292531 9.80105578,85.414305 L61.2354796,115.157163 C74.2422081,122.678338 95.2638937,122.67933 108.187773,115.156832 L159.287827,85.4136438 C165.707847,81.6768596 168.921157,76.7862777 168.935351,71.8890837 L169.000046,49.0990973 C169.000046,49.1609197 168.997075,49.2230727 168.995755,49.2848952 Z" id="Path" fill="url(#linearGradient-4)"></path>
                                            <path d="M159.199366,35.3844416 C172.206095,42.9059471 172.276071,55.1014908 159.352523,62.623988 L108.252468,92.3675072 C95.328589,99.8900044 74.3069034,99.8890126 61.3001749,92.3678378 L9.86575109,62.6246492 C-3.14262782,55.1024826 -3.21095399,42.9076001 9.71259484,35.3851028 L60.8126495,5.64191428 C73.7365284,-1.88058299 94.7565636,-1.88058299 107.764942,5.64158368 L159.199366,35.3844416 Z" id="Path" fill="url(#linearGradient-5)"></path>
                                            <path d="M55.0999788,1.76726944 C54.8870827,1.8752658 54.6758327,1.98711916 54.4662288,2.10448255 C54.4667775,2.10448255 54.4667775,2.10393154 54.4673262,2.10393154 C54.6763814,1.98656816 54.8870827,1.8752658 55.0999788,1.76726944 L55.0999788,1.76726944 Z" id="Path" fill="#E0E0E2"></path>
                                            <path d="M95.6669894,26.8497831 C80.0168624,26.8497831 67.3331027,34.4988456 67.3331027,43.9329496 L56.000046,43.9329496 L56.000046,67.8497831 L75.6317257,56.0130351 C80.7589523,59.1044511 87.8420089,61.0166166 95.6669894,61.0166166 C111.313796,61.0166166 124.000046,53.3670536 124.000046,43.9329496 C124.000046,34.4988456 111.313796,26.8497831 95.6669894,26.8497831 Z M61.6669894,59.6016362 L61.6669894,47.3497831 L81.9871359,47.3497831 L61.6669894,59.6016362 Z M95.6669894,57.5997831 C89.4186593,57.5997831 83.7517159,56.0668876 79.6461495,53.5925737 L95.6669894,43.9329496 L73.000046,43.9329496 C73.000046,36.3976982 83.1686691,30.2661161 95.6669894,30.2661161 C108.16448,30.2661161 118.333103,36.3971977 118.333103,43.9329496 C118.333103,51.4687016 108.16448,57.5997831 95.6669894,57.5997831 Z" id="Shape" stroke="#FFFFFF" fill-rule="nonzero"></path>
                                            <path d="M95.6669894,26.8497831 C80.0168624,26.8497831 67.3331027,34.4988456 67.3331027,43.9329496 L56.000046,43.9329496 L56.000046,67.8497831 L75.6317257,56.0130351 C80.7589523,59.1044511 87.8420089,61.0166166 95.6669894,61.0166166 C111.313796,61.0166166 124.000046,53.3670536 124.000046,43.9329496 C124.000046,34.4988456 111.313796,26.8497831 95.6669894,26.8497831 Z M61.6669894,59.6016362 L61.6669894,47.3497831 L81.9871359,47.3497831 L61.6669894,59.6016362 Z M95.6669894,57.5997831 C89.4186593,57.5997831 83.7517159,56.0668876 79.6461495,53.5925737 L95.6669894,43.9329496 L73.000046,43.9329496 C73.000046,36.3976982 83.1686691,30.2661161 95.6669894,30.2661161 C108.16448,30.2661161 118.333103,36.3971977 118.333103,43.9329496 C118.333103,51.4687016 108.16448,57.5997831 95.6669894,57.5997831 Z" id="Shape-Copy" stroke="#FFFFFF" fill-rule="nonzero" filter="url(#filter-6)"></path>
                                        </g>
                                    </g>
                                </g>
                            </g>
                        </g>
                    </g>
                </g>
            </g>
        </g>
    </g>
</svg>