<?xml version="1.0" encoding="UTF-8"?>
<svg width="169px" height="146px" viewBox="0 0 169 146" version="1.1" xmlns="http://www.w3.org/2000/svg" xmlns:xlink="http://www.w3.org/1999/xlink">
    <!-- Generator: Sketch 55.2 (78181) - https://sketchapp.com -->
    <title>Group 53</title>
    <desc>Created with Sketch.</desc>
    <defs>
        <linearGradient x1="97.3152999%" y1="25.8260424%" x2="0%" y2="75.5456033%" id="linearGradient-1">
            <stop stop-color="#FF6056" offset="0%"></stop>
            <stop stop-color="#FF5D5D" offset="100%"></stop>
        </linearGradient>
        <linearGradient x1="3.08887283%" y1="58.4882787%" x2="126.685049%" y2="40.9528088%" id="linearGradient-2">
            <stop stop-color="#FEDB5A" offset="0%"></stop>
            <stop stop-color="#FFA8A8" offset="100%"></stop>
        </linearGradient>
        <linearGradient x1="115.230986%" y1="37.2229094%" x2="-5.1575403%" y2="65.7894357%" id="linearGradient-3">
            <stop stop-color="#CAA418" offset="0%"></stop>
            <stop stop-color="#FFA8A8" offset="100%"></stop>
        </linearGradient>
        <linearGradient x1="56.6313912%" y1="4.34920072%" x2="56.6313912%" y2="97.1295672%" id="linearGradient-4">
            <stop stop-color="#FFB792" offset="0%"></stop>
            <stop stop-color="#FED85E" offset="100%"></stop>
        </linearGradient>
        <linearGradient x1="50%" y1="0%" x2="50%" y2="104.766068%" id="linearGradient-5">
            <stop stop-color="#FFFFFF" stop-opacity="0.334352355" offset="0%"></stop>
            <stop stop-color="#FFFFFF" stop-opacity="0" offset="100%"></stop>
        </linearGradient>
        <filter x="-5.3%" y="-8.5%" width="110.6%" height="117.1%" filterUnits="objectBoundingBox" id="filter-6">
            <feGaussianBlur stdDeviation="1" in="SourceGraphic"></feGaussianBlur>
        </filter>
    </defs>
    <g id="Page-1" stroke="none" stroke-width="1" fill="none" fill-rule="evenodd">
        <g id="Artboard-Copy-3" transform="translate(-404.000000, -492.000000)">
            <g id="Group-11" transform="translate(404.000000, 275.000000)">
                <g id="Group-3-Copy">
                    <g id="Group-2" transform="translate(0.000000, 217.000000)">
                        <g id="Group-21">
                            <g id="Group-52" transform="translate(-0.000046, 0.150217)">
                                <g id="Group-53" transform="translate(-0.000000, -0.000000)">
                                    <path d="M168.995755,74.2848952 C169.093128,69.2620727 165.826345,64.2167695 159.199366,60.3844416 L107.765273,30.6419143 C94.7568937,23.1197476 73.7368585,23.1197476 60.8129796,30.6422449 L9.71292492,60.3854334 C3.27145031,64.1341192 0.0587999192,69.043876 0.0657315598,73.9576001 C0.0657315598,73.9417312 0.0647413254,73.9258624 0.0650714035,73.9099935 L-2.84217094e-14,96.6996492 C-0.0141473465,101.660649 3.25527648,106.629253 9.80105578,110.414305 L61.2354796,140.157163 C74.2422081,147.678338 95.2638937,147.67933 108.187773,140.156832 L159.287827,110.413644 C165.707847,106.67686 168.921157,101.786278 168.935351,96.8890837 L169.000046,74.0990973 C169.000046,74.1609197 168.997075,74.2230727 168.995755,74.2848952 Z" id="Path" fill="url(#linearGradient-1)"></path>
                                    <path d="M159.352523,87.623988 L108.252468,117.367177 C95.328589,124.889674 74.3069034,124.888682 61.3001749,117.367507 L9.86575109,87.6246492 C3.31997179,83.8392667 0.050547966,78.8709935 0.0647413254,73.9099935 L-2.84217094e-14,96.6996492 C-0.0141473465,101.660649 3.25527648,106.629253 9.80105578,110.414305 L61.2354796,140.157163 C74.2422081,147.678338 95.2638937,147.67933 108.187773,140.156832 L159.287827,110.413644 C165.707847,106.67686 168.921157,101.786278 168.935351,96.8890837 L169.000046,74.0990973 C168.986183,78.9969525 165.772542,83.8872039 159.352523,87.623988 Z" id="Path" fill="url(#linearGradient-2)"></path>
                                    <path d="M159.199366,60.3844416 C172.206095,67.9059471 172.276071,80.1014908 159.352523,87.623988 L108.252468,117.367507 C95.328589,124.890004 74.3069034,124.889013 61.3001749,117.367838 L9.86575109,87.6246492 C-3.14262782,80.1024826 -3.21095399,67.9076001 9.71259484,60.3851028 L60.8126495,30.6419143 C73.7365284,23.119417 94.7565636,23.119417 107.764942,30.6415837 L159.199366,60.3844416 Z" id="Path" fill="url(#linearGradient-3)"></path>
                                    <path d="M55.0999788,26.7672694 C54.8870827,26.8752658 54.6758327,26.9871192 54.4662288,27.1044825 C54.4667775,27.1044825 54.4667775,27.1039315 54.4673262,27.1039315 C54.6763814,26.9865682 54.8870827,26.8752658 55.0999788,26.7672694 L55.0999788,26.7672694 Z" id="Path" fill="#E0E0E2"></path>
                                    <path d="M168.995755,49.2848952 C169.093128,44.2620727 165.826345,39.2167695 159.199366,35.3844416 L107.765273,5.64191428 C94.7568937,-1.88025239 73.7368585,-1.88025239 60.8129796,5.64224488 L9.71292492,35.3854334 C3.27145031,39.1341192 0.0587999192,44.043876 0.0657315598,48.9576001 C0.0657315598,48.9417312 0.0647413254,48.9258624 0.0650714035,48.9099935 L-2.84217094e-14,71.6996492 C-0.0141473465,76.6606492 3.25527648,81.6292531 9.80105578,85.414305 L61.2354796,115.157163 C74.2422081,122.678338 95.2638937,122.67933 108.187773,115.156832 L159.287827,85.4136438 C165.707847,81.6768596 168.921157,76.7862777 168.935351,71.8890837 L169.000046,49.0990973 C169.000046,49.1609197 168.997075,49.2230727 168.995755,49.2848952 Z" id="Path" fill="url(#linearGradient-4)"></path>
                                    <path d="M159.199366,35.3844416 C172.206095,42.9059471 172.276071,55.1014908 159.352523,62.623988 L108.252468,92.3675072 C95.328589,99.8900044 74.3069034,99.8890126 61.3001749,92.3678378 L9.86575109,62.6246492 C-3.14262782,55.1024826 -3.21095399,42.9076001 9.71259484,35.3851028 L60.8126495,5.64191428 C73.7365284,-1.88058299 94.7565636,-1.88058299 107.764942,5.64158368 L159.199366,35.3844416 Z" id="Path" fill="url(#linearGradient-5)"></path>
                                    <path d="M55.0999788,1.76726944 C54.8870827,1.8752658 54.6758327,1.98711916 54.4662288,2.10448255 C54.4667775,2.10448255 54.4667775,2.10393154 54.4673262,2.10393154 C54.6763814,1.98656816 54.8870827,1.8752658 55.0999788,1.76726944 L55.0999788,1.76726944 Z" id="Path" fill="#E0E0E2"></path>
                                    <path d="M117.000046,39.2353666 C117.000046,32.3949931 108.07361,26.8497831 97.0622775,26.8497831 C92.0594259,26.8497831 87.4988839,28.0024076 84.000046,29.8930522 C80.4979855,28.0024076 75.9406661,26.8497831 70.9378146,26.8497831 C59.9264816,26.8497831 51.000046,32.3949931 51.000046,39.2353666 C51.000046,42.3431987 52.8554903,45.1762626 55.8989669,47.3497831 C52.8554903,49.5233036 51.000046,52.3563676 51.000046,55.4641996 C51.000046,62.3045732 59.9264816,67.8497831 70.9378146,67.8497831 C75.9406661,67.8497831 80.4979855,66.6971586 84.000046,64.8065141 C87.4988839,66.6971586 92.0594259,67.8497831 97.0622775,67.8497831 C108.07361,67.8497831 117.000046,62.3045732 117.000046,55.4641996 C117.000046,52.3564677 115.144763,49.5234037 112.101447,47.3499833 C115.145407,45.176663 117.000046,42.342498 117.000046,39.2353666 Z M80.3526437,62.2055766 C77.8181857,63.5755131 74.5520236,64.4329496 70.9378146,64.4329496 C62.9781759,64.4329496 56.5003146,60.4088237 56.5003146,55.4641996 C56.5003146,50.5195756 62.9781759,46.4954496 70.9378146,46.4954496 C74.5579855,46.4954496 77.830754,47.3564897 80.3692403,48.7294291 C78.3307491,50.6692216 77.1253146,52.9749711 77.1253146,55.4641996 C77.1253146,57.9534281 78.3173751,60.2657841 80.3526437,62.2055766 Z M70.9378146,43.0791166 C66.9307638,43.0791166 63.2084347,43.8196391 60.0824581,45.0839726 C57.8805782,43.5095365 56.5003146,41.4790556 56.5003146,39.2353666 C56.5003146,34.2907426 62.9781759,30.2666166 70.9378146,30.2666166 C78.8974532,30.2666166 85.3753146,34.2907426 85.3753146,39.2353666 C85.3753146,41.4842607 83.9892501,43.5173442 81.7823751,45.0942826 C78.6589767,43.8278471 74.9448653,43.0791166 70.9378146,43.0791166 Z M97.0622775,64.4329496 C89.1026388,64.4329496 82.6247775,60.4088237 82.6247775,55.4641996 C82.6247775,53.2153056 84.0108419,51.1822221 86.2177169,49.6052836 C89.3411153,50.8716191 93.0552267,51.6204496 97.0622775,51.6204496 C101.069328,51.6204496 104.791657,50.8799272 107.917634,49.6155937 C110.119514,51.1900297 111.499777,53.2205107 111.499777,55.4641996 C111.499777,60.4088237 105.021916,64.4329496 97.0622775,64.4329496 Z M97.0622775,48.2041166 C93.4421066,48.2041166 90.169338,47.3430766 87.6334298,45.9686357 C89.669504,44.0303447 90.8749386,41.7245951 90.8749386,39.2353666 C90.8749386,36.7461381 89.682878,34.4337822 87.6500265,32.4938896 C90.1819064,31.1239531 93.4506466,30.2665165 97.0624386,30.2665165 C105.022077,30.2665165 111.499939,34.2906425 111.499939,39.2352665 C111.499939,44.1799906 105.021916,48.2041166 97.0622775,48.2041166 Z" id="Shape" stroke="#FFFFFF" fill-rule="nonzero"></path>
                                    <path d="M117.000046,39.2353666 C117.000046,32.3949931 108.07361,26.8497831 97.0622775,26.8497831 C92.0594259,26.8497831 87.4988839,28.0024076 84.000046,29.8930522 C80.4979855,28.0024076 75.9406661,26.8497831 70.9378146,26.8497831 C59.9264816,26.8497831 51.000046,32.3949931 51.000046,39.2353666 C51.000046,42.3431987 52.8554903,45.1762626 55.8989669,47.3497831 C52.8554903,49.5233036 51.000046,52.3563676 51.000046,55.4641996 C51.000046,62.3045732 59.9264816,67.8497831 70.9378146,67.8497831 C75.9406661,67.8497831 80.4979855,66.6971586 84.000046,64.8065141 C87.4988839,66.6971586 92.0594259,67.8497831 97.0622775,67.8497831 C108.07361,67.8497831 117.000046,62.3045732 117.000046,55.4641996 C117.000046,52.3564677 115.144763,49.5234037 112.101447,47.3499833 C115.145407,45.176663 117.000046,42.342498 117.000046,39.2353666 Z M80.3526437,62.2055766 C77.8181857,63.5755131 74.5520236,64.4329496 70.9378146,64.4329496 C62.9781759,64.4329496 56.5003146,60.4088237 56.5003146,55.4641996 C56.5003146,50.5195756 62.9781759,46.4954496 70.9378146,46.4954496 C74.5579855,46.4954496 77.830754,47.3564897 80.3692403,48.7294291 C78.3307491,50.6692216 77.1253146,52.9749711 77.1253146,55.4641996 C77.1253146,57.9534281 78.3173751,60.2657841 80.3526437,62.2055766 Z M70.9378146,43.0791166 C66.9307638,43.0791166 63.2084347,43.8196391 60.0824581,45.0839726 C57.8805782,43.5095365 56.5003146,41.4790556 56.5003146,39.2353666 C56.5003146,34.2907426 62.9781759,30.2666166 70.9378146,30.2666166 C78.8974532,30.2666166 85.3753146,34.2907426 85.3753146,39.2353666 C85.3753146,41.4842607 83.9892501,43.5173442 81.7823751,45.0942826 C78.6589767,43.8278471 74.9448653,43.0791166 70.9378146,43.0791166 Z M97.0622775,64.4329496 C89.1026388,64.4329496 82.6247775,60.4088237 82.6247775,55.4641996 C82.6247775,53.2153056 84.0108419,51.1822221 86.2177169,49.6052836 C89.3411153,50.8716191 93.0552267,51.6204496 97.0622775,51.6204496 C101.069328,51.6204496 104.791657,50.8799272 107.917634,49.6155937 C110.119514,51.1900297 111.499777,53.2205107 111.499777,55.4641996 C111.499777,60.4088237 105.021916,64.4329496 97.0622775,64.4329496 Z M97.0622775,48.2041166 C93.4421066,48.2041166 90.169338,47.3430766 87.6334298,45.9686357 C89.669504,44.0303447 90.8749386,41.7245951 90.8749386,39.2353666 C90.8749386,36.7461381 89.682878,34.4337822 87.6500265,32.4938896 C90.1819064,31.1239531 93.4506466,30.2665165 97.0624386,30.2665165 C105.022077,30.2665165 111.499939,34.2906425 111.499939,39.2352665 C111.499939,44.1799906 105.021916,48.2041166 97.0622775,48.2041166 Z" id="Shape-Copy-2" stroke="#FFFFFF" fill-rule="nonzero" filter="url(#filter-6)"></path>
                                </g>
                            </g>
                        </g>
                    </g>
                </g>
            </g>
        </g>
    </g>
</svg>