<?xml version="1.0" encoding="UTF-8"?>
<svg width="169px" height="146px" viewBox="0 0 169 146" version="1.1" xmlns="http://www.w3.org/2000/svg" xmlns:xlink="http://www.w3.org/1999/xlink">
    <!-- Generator: Sketch 55.2 (78181) - https://sketchapp.com -->
    <title>Group 49</title>
    <desc>Created with Sketch.</desc>
    <defs>
        <linearGradient x1="0%" y1="75.5456033%" x2="100%" y2="24.4543967%" id="linearGradient-1">
            <stop stop-color="#F19F73" offset="0%"></stop>
            <stop stop-color="#A74EB5" offset="100%"></stop>
        </linearGradient>
        <linearGradient x1="122.248641%" y1="38.8013165%" x2="-4.84884511%" y2="61.147279%" id="linearGradient-2">
            <stop stop-color="#02F0E4" offset="0%"></stop>
            <stop stop-color="#02D5EB" offset="100%"></stop>
        </linearGradient>
        <linearGradient x1="122.248641%" y1="29.1688164%" x2="-4.84884511%" y2="70.7355637%" id="linearGradient-3">
            <stop stop-color="#02F0E4" offset="0%"></stop>
            <stop stop-color="#009BAB" offset="100%"></stop>
        </linearGradient>
        <linearGradient x1="56.6313912%" y1="4.34920072%" x2="56.6313912%" y2="100%" id="linearGradient-4">
            <stop stop-color="#02EAE6" offset="0%"></stop>
            <stop stop-color="#01BCC1" offset="100%"></stop>
        </linearGradient>
        <linearGradient x1="50%" y1="0%" x2="50%" y2="103.026788%" id="linearGradient-5">
            <stop stop-color="#FFFFFF" stop-opacity="0.334352355" offset="0%"></stop>
            <stop stop-color="#FFFFFF" stop-opacity="0" offset="100%"></stop>
        </linearGradient>
        <filter x="-9.3%" y="-19.7%" width="118.6%" height="139.5%" filterUnits="objectBoundingBox" id="filter-6">
            <feGaussianBlur stdDeviation="1.5288001" in="SourceGraphic"></feGaussianBlur>
        </filter>
        <filter x="-9.3%" y="-19.7%" width="118.6%" height="139.5%" filterUnits="objectBoundingBox" id="filter-7">
            <feGaussianBlur stdDeviation="1.5288001" in="SourceGraphic"></feGaussianBlur>
        </filter>
        <filter x="-9.3%" y="-19.7%" width="118.6%" height="139.5%" filterUnits="objectBoundingBox" id="filter-8">
            <feGaussianBlur stdDeviation="1.5288001" in="SourceGraphic"></feGaussianBlur>
        </filter>
    </defs>
    <g id="Page-1" stroke="none" stroke-width="1" fill="none" fill-rule="evenodd">
        <g id="Artboard-Copy-3" transform="translate(-404.000000, -1363.000000)">
            <g id="Group-11" transform="translate(404.000000, 275.000000)">
                <g id="Group-3-Copy">
                    <g id="Group" transform="translate(0.000000, 1088.000000)">
                        <g id="Group-25">
                            <g id="Group-33" transform="translate(-0.000046, 0.150217)">
                                <g id="Group-49" transform="translate(-0.000000, -0.000000)">
                                    <path d="M168.995755,74.2848952 C169.093128,69.2620727 165.826345,64.2167695 159.199366,60.3844416 L107.765273,30.6419143 C94.7568937,23.1197476 73.7368585,23.1197476 60.8129796,30.6422449 L9.71292492,60.3854334 C3.27145031,64.1341192 0.0587999192,69.043876 0.0657315598,73.9576001 C0.0657315598,73.9417312 0.0647413254,73.9258624 0.0650714035,73.9099935 L-2.84217094e-14,96.6996492 C-0.0141473465,101.660649 3.25527648,106.629253 9.80105578,110.414305 L61.2354796,140.157163 C74.2422081,147.678338 95.2638937,147.67933 108.187773,140.156832 L159.287827,110.413644 C165.707847,106.67686 168.921157,101.786278 168.935351,96.8890837 L169.000046,74.0990973 C169.000046,74.1609197 168.997075,74.2230727 168.995755,74.2848952 Z" id="Path" fill="url(#linearGradient-1)"></path>
                                    <path d="M159.352523,87.623988 L108.252468,117.367177 C95.328589,124.889674 74.3069034,124.888682 61.3001749,117.367507 L9.86575109,87.6246492 C3.31997179,83.8392667 0.050547966,78.8709935 0.0647413254,73.9099935 L-2.84217094e-14,96.6996492 C-0.0141473465,101.660649 3.25527648,106.629253 9.80105578,110.414305 L61.2354796,140.157163 C74.2422081,147.678338 95.2638937,147.67933 108.187773,140.156832 L159.287827,110.413644 C165.707847,106.67686 168.921157,101.786278 168.935351,96.8890837 L169.000046,74.0990973 C168.986183,78.9969525 165.772542,83.8872039 159.352523,87.623988 Z" id="Path" fill="url(#linearGradient-2)"></path>
                                    <path d="M159.199366,60.3844416 C172.206095,67.9059471 172.276071,80.1014908 159.352523,87.623988 L108.252468,117.367507 C95.328589,124.890004 74.3069034,124.889013 61.3001749,117.367838 L9.86575109,87.6246492 C-3.14262782,80.1024826 -3.21095399,67.9076001 9.71259484,60.3851028 L60.8126495,30.6419143 C73.7365284,23.119417 94.7565636,23.119417 107.764942,30.6415837 L159.199366,60.3844416 Z" id="Path" fill="url(#linearGradient-3)"></path>
                                    <path d="M55.0999788,26.7672694 C54.8870827,26.8752658 54.6758327,26.9871192 54.4662288,27.1044825 C54.4667775,27.1044825 54.4667775,27.1039315 54.4673262,27.1039315 C54.6763814,26.9865682 54.8870827,26.8752658 55.0999788,26.7672694 L55.0999788,26.7672694 Z" id="Path" fill="#E0E0E2"></path>
                                    <path d="M168.995755,49.2848952 C169.093128,44.2620727 165.826345,39.2167695 159.199366,35.3844416 L107.765273,5.64191428 C94.7568937,-1.88025239 73.7368585,-1.88025239 60.8129796,5.64224488 L9.71292492,35.3854334 C3.27145031,39.1341192 0.0587999192,44.043876 0.0657315598,48.9576001 C0.0657315598,48.9417312 0.0647413254,48.9258624 0.0650714035,48.9099935 L-2.84217094e-14,71.6996492 C-0.0141473465,76.6606492 3.25527648,81.6292531 9.80105578,85.414305 L61.2354796,115.157163 C74.2422081,122.678338 95.2638937,122.67933 108.187773,115.156832 L159.287827,85.4136438 C165.707847,81.6768596 168.921157,76.7862777 168.935351,71.8890837 L169.000046,49.0990973 C169.000046,49.1609197 168.997075,49.2230727 168.995755,49.2848952 Z" id="Path" fill="url(#linearGradient-4)"></path>
                                    <path d="M159.199366,35.3844416 C172.206095,42.9059471 172.276071,55.1014908 159.352523,62.623988 L108.252468,92.3675072 C95.328589,99.8900044 74.3069034,99.8890126 61.3001749,92.3678378 L9.86575109,62.6246492 C-3.14262782,55.1024826 -3.21095399,42.9076001 9.71259484,35.3851028 L60.8126495,5.64191428 C73.7365284,-1.88058299 94.7565636,-1.88058299 107.764942,5.64158368 L159.199366,35.3844416 Z" id="Path" fill="url(#linearGradient-5)"></path>
                                    <path d="M55.0999788,1.76726944 C54.8870827,1.8752658 54.6758327,1.98711916 54.4662288,2.10448255 C54.4667775,2.10448255 54.4667775,2.10393154 54.4673262,2.10393154 C54.6763814,1.98656816 54.8870827,1.8752658 55.0999788,1.76726944 L55.0999788,1.76726944 Z" id="Path" fill="#E0E0E2"></path>
                                    <path d="M71.495991,50.530408 L56.2493927,59.349358 C54.832742,60.1687783 53.0867976,60.1712435 51.6678387,59.3558269 L36.2991269,50.5240691 C35.5670613,50.1033815 35.3146395,49.1688903 35.7353271,48.4368246 C35.8693497,48.2036033 36.0625336,48.0098712 36.2953743,47.8751884 L51.5418249,39.0561307 C52.9584849,38.2366871 54.7044527,38.2342158 56.1234266,39.0496458 L71.4922543,47.8815219 C72.2243189,48.3022114 72.4767383,49.2367032 72.0560489,49.9687678 C71.9220239,50.2019919 71.7288361,50.3957255 71.495991,50.530408 Z" id="Path-Copy-3" stroke="#FFFFFF" stroke-width="1.5288001"></path>
                                    <path d="M96.5358083,36.4142404 L113.740371,46.3248665 C114.912029,46.9997964 115.314342,48.4961173 114.638961,49.666993 C114.424899,50.0381004 114.11711,50.3465548 113.74636,50.5615206 L111.062608,52.1175995 M89.4302494,64.6603571 C87.1568909,65.9784836 84.35206,65.9824473 82.0749802,64.6707513 L65.4598625,55.0997287 M63.2880043,42.992357 C66.2291686,41.2869896 70.6409151,38.7289385 76.5232438,35.3182036" id="Shape" stroke="#FFFFFF" stroke-width="1.3" opacity="0.229027158" stroke-linecap="round"></path>
                                    <path d="M104.400339,30.648055 L89.1537405,39.4670051 C87.7370898,40.2864254 85.9911455,40.2888905 84.5721865,39.473474 L69.2034747,30.6417161 C68.4714091,30.2210285 68.2189873,29.2865374 68.6396749,28.5544717 C68.7736975,28.3212504 68.9668815,28.1275183 69.1997221,27.9928354 L84.4461728,19.1737777 C85.8628327,18.3543342 87.6088005,18.3518629 89.0277745,19.1672929 L104.396602,27.999169 C105.128667,28.4198584 105.381086,29.3543502 104.960397,30.0864148 C104.826372,30.319639 104.633184,30.5133726 104.400339,30.648055 Z" id="Path-Copy-5" stroke="#FFFFFF" stroke-width="1.3"></path>
                                    <path d="M119.704687,59.7068786 L104.458088,68.5258286 C103.041438,69.3452489 101.295493,69.3477141 99.8765343,68.5322975 L84.5078226,59.7005397 C83.7757569,59.279852 83.5233351,58.3453609 83.9440227,57.6132952 C84.0780453,57.3800739 84.2712293,57.1863418 84.50407,57.051659 L99.7505206,48.2326013 C101.167181,47.4131577 102.913148,47.4106864 104.332122,48.2261164 L119.70095,57.0579925 C120.433015,57.478682 120.685434,58.4131738 120.264745,59.1452384 C120.13072,59.3784625 119.937532,59.5721961 119.704687,59.7068786 Z" id="Path-Copy-6" stroke="#FFFFFF" stroke-width="1.3"></path>
                                    <path d="M71.495991,50.530408 L56.2493927,59.349358 C54.832742,60.1687783 53.0867976,60.1712435 51.6678387,59.3558269 L36.2991269,50.5240691 C35.5670613,50.1033815 35.3146395,49.1688903 35.7353271,48.4368246 C35.8693497,48.2036033 36.0625336,48.0098712 36.2953743,47.8751884 L51.5418249,39.0561307 C52.9584849,38.2366871 54.7044527,38.2342158 56.1234266,39.0496458 L71.4922543,47.8815219 C72.2243189,48.3022114 72.4767383,49.2367032 72.0560489,49.9687678 C71.9220239,50.2019919 71.7288361,50.3957255 71.495991,50.530408 Z" id="Path-Copy-4" stroke="#FFFFFF" stroke-width="1.3" filter="url(#filter-6)"></path>
                                    <path d="M104.400339,30.648055 L89.1537405,39.4670051 C87.7370898,40.2864254 85.9911455,40.2888905 84.5721865,39.473474 L69.2034747,30.6417161 C68.4714091,30.2210285 68.2189873,29.2865374 68.6396749,28.5544717 C68.7736975,28.3212504 68.9668815,28.1275183 69.1997221,27.9928354 L84.4461728,19.1737777 C85.8628327,18.3543342 87.6088005,18.3518629 89.0277745,19.1672929 L104.396602,27.999169 C105.128667,28.4198584 105.381086,29.3543502 104.960397,30.0864148 C104.826372,30.319639 104.633184,30.5133726 104.400339,30.648055 Z" id="Path-Copy-8" stroke="#FFFFFF" stroke-width="1.3" filter="url(#filter-7)"></path>
                                    <path d="M119.704687,59.7068786 L104.458088,68.5258286 C103.041438,69.3452489 101.295493,69.3477141 99.8765343,68.5322975 L84.5078226,59.7005397 C83.7757569,59.279852 83.5233351,58.3453609 83.9440227,57.6132952 C84.0780453,57.3800739 84.2712293,57.1863418 84.50407,57.051659 L99.7505206,48.2326013 C101.167181,47.4131577 102.913148,47.4106864 104.332122,48.2261164 L119.70095,57.0579925 C120.433015,57.478682 120.685434,58.4131738 120.264745,59.1452384 C120.13072,59.3784625 119.937532,59.5721961 119.704687,59.7068786 Z" id="Path-Copy-7" stroke="#FFFFFF" stroke-width="1.3" filter="url(#filter-8)"></path>
                                </g>
                            </g>
                        </g>
                    </g>
                </g>
            </g>
        </g>
    </g>
</svg>