<?xml version="1.0" encoding="UTF-8"?>
<svg width="50px" height="50px" viewBox="0 0 50 50" version="1.1" xmlns="http://www.w3.org/2000/svg" xmlns:xlink="http://www.w3.org/1999/xlink">
    <!-- Generator: Sketch 52.6 (67491) - http://www.bohemiancoding.com/sketch -->
    <title>Group 73</title>
    <desc>Created with Sketch.</desc>
    <defs>
        <linearGradient x1="3.08887283%" y1="96.9111272%" x2="126.685049%" y2="0%" id="linearGradient-1">
            <stop stop-color="#FEDB5A" offset="0%"></stop>
            <stop stop-color="#FFA8A8" offset="100%"></stop>
        </linearGradient>
        <path d="M38,19.8542725 C38,15.5164746 34.4835254,12 30.1457275,12 C28.1749072,12 26.3783301,12.7309326 25,13.9298779 C23.6204004,12.7309326 21.8250928,12 19.8542725,12 C15.5164746,12 12,15.5164746 12,19.8542725 C12,21.8250928 12.7309326,23.6216699 13.9298779,25 C12.7309326,26.3783301 12,28.1749072 12,30.1457275 C12,34.4835254 15.5164746,38 19.8542725,38 C21.8250928,38 23.6204004,37.2690674 25,36.0701221 C26.3783301,37.2690674 28.1749072,38 30.1457275,38 C34.4835254,38 38,34.4835254 38,30.1457275 C38,28.1749707 37.2691309,26.3783936 36.070249,25.000127 C37.2693848,23.6219238 38,21.8246484 38,19.8542725 Z M23.5631445,34.4207471 C22.5647217,35.2894873 21.2780518,35.8332275 19.8542725,35.8332275 C16.7186572,35.8332275 14.1667725,33.2813428 14.1667725,30.1457275 C14.1667725,27.0101123 16.7186572,24.4582275 19.8542725,24.4582275 C21.2804004,24.4582275 22.5696729,25.0042529 23.5696826,25.8748975 C22.7666406,27.1050098 22.2917725,28.5671924 22.2917725,30.1457275 C22.2917725,31.7242627 22.7613721,33.1906348 23.5631445,34.4207471 Z M19.8542725,22.2917725 C18.2757373,22.2917725 16.8093652,22.7613721 15.5779199,23.5631445 C14.7105127,22.5647217 14.1667725,21.2770996 14.1667725,19.8542725 C14.1667725,16.7186572 16.7186572,14.1667725 19.8542725,14.1667725 C22.9898877,14.1667725 25.5417725,16.7186572 25.5417725,19.8542725 C25.5417725,21.2804004 24.9957471,22.5696729 24.1263721,23.5696826 C22.8959424,22.7665771 21.4328076,22.2917725 19.8542725,22.2917725 Z M30.1457275,35.8332275 C27.0101123,35.8332275 24.4582275,33.2813428 24.4582275,30.1457275 C24.4582275,28.7195996 25.0042529,27.4303271 25.8736279,26.4303174 C27.1040576,27.2333594 28.5671924,27.7082275 30.1457275,27.7082275 C31.7242627,27.7082275 33.1906348,27.2386279 34.4220801,26.4368555 C35.2894873,27.4352783 35.8332275,28.7229004 35.8332275,30.1457275 C35.8332275,33.2813428 33.2813428,35.8332275 30.1457275,35.8332275 Z M30.1457275,25.5417725 C28.7195996,25.5417725 27.4303271,24.9957471 26.431333,24.1241504 C27.2334229,22.8949902 27.708291,21.4328076 27.708291,19.8542725 C27.708291,18.2757373 27.2386914,16.8093652 26.4378711,15.5791895 C27.4352783,14.7104492 28.7229639,14.166709 30.145791,14.166709 C33.2814063,14.166709 35.833291,16.7185938 35.833291,19.854209 C35.8332275,22.9898877 33.2813428,25.5417725 30.1457275,25.5417725 Z" id="path-2"></path>
        <filter x="-24.2%" y="-24.2%" width="148.5%" height="148.5%" filterUnits="objectBoundingBox" id="filter-3">
            <feMorphology radius="0.3" operator="dilate" in="SourceAlpha" result="shadowSpreadOuter1"></feMorphology>
            <feOffset dx="0" dy="0" in="shadowSpreadOuter1" result="shadowOffsetOuter1"></feOffset>
            <feMorphology radius="1" operator="erode" in="SourceAlpha" result="shadowInner"></feMorphology>
            <feOffset dx="0" dy="0" in="shadowInner" result="shadowInner"></feOffset>
            <feComposite in="shadowOffsetOuter1" in2="shadowInner" operator="out" result="shadowOffsetOuter1"></feComposite>
            <feGaussianBlur stdDeviation="2" in="shadowOffsetOuter1" result="shadowBlurOuter1"></feGaussianBlur>
            <feColorMatrix values="0 0 0 0 1   0 0 0 0 1   0 0 0 0 1  0 0 0 0.5 0" type="matrix" in="shadowBlurOuter1"></feColorMatrix>
        </filter>
    </defs>
    <g id="Page-1" stroke="none" stroke-width="1" fill="none" fill-rule="evenodd">
        <g id="Developers@2x" transform="translate(-1069.000000, -74.000000)">
            <g id="Group-32" transform="translate(0.000000, 58.000000)">
                <g id="Group-15">
                    <g id="Group-18">
                        <g id="aragonCLI" transform="translate(1051.000000, 16.000000)">
                            <g id="Group-73" transform="translate(18.000000, 0.000000)">
                                <circle id="Oval-Copy-7" fill="url(#linearGradient-1)" cx="25" cy="25" r="25"></circle>
                                <g id="Shape" fill-rule="nonzero">
                                    <use fill="black" fill-opacity="1" filter="url(#filter-3)" xlink:href="#path-2"></use>
                                    <use stroke="#FFFFFF" stroke-width="0.6" xlink:href="#path-2"></use>
                                </g>
                            </g>
                        </g>
                    </g>
                </g>
            </g>
        </g>
    </g>
</svg>