<?xml version="1.0" encoding="UTF-8"?>
<svg width="67px" height="77px" viewBox="0 0 67 77" version="1.1" xmlns="http://www.w3.org/2000/svg" xmlns:xlink="http://www.w3.org/1999/xlink">
    <!-- Generator: sketchtool 52.6 (67491) - http://www.bohemiancoding.com/sketch -->
    <title>302EE3F9-C613-4400-A194-4BE92E447C41</title>
    <desc>Created with sketchtool.</desc>
    <defs>
        <linearGradient x1="3.08887283%" y1="96.9111272%" x2="126.685049%" y2="0%" id="linearGradient-1">
            <stop stop-color="#FEDB5A" offset="0%"></stop>
            <stop stop-color="#FFA8A8" offset="100%"></stop>
        </linearGradient>
        <filter x="-8.1%" y="-8.1%" width="116.2%" height="116.2%" filterUnits="objectBoundingBox" id="filter-2">
            <feGaussianBlur stdDeviation="0.6" in="SourceGraphic"></feGaussianBlur>
        </filter>
    </defs>
    <g id="Page-1" stroke="none" stroke-width="1" fill="none" fill-rule="evenodd">
        <g id="Developers@2x" transform="translate(-1061.000000, -74.000000)">
            <g id="Group-32" transform="translate(0.000000, 58.000000)">
                <g id="Group-15">
                    <g id="Group-18">
                        <g id="aragonCLI" transform="translate(1051.000000, 16.000000)">
                            <text font-family="HKGrotesk-Regular, HK Grotesk" font-size="15" font-weight="normal" fill="#FFFFFF">
                                <tspan x="10.1675365" y="73">aragonCLI</tspan>
                            </text>
                            <circle id="Oval-Copy-7" fill="url(#linearGradient-1)" cx="43" cy="25" r="25"></circle>
                            <g id="011-abstract-1" transform="translate(30.000000, 12.000000)" fill-rule="nonzero" stroke="#FFFFFF" stroke-width="0.6">
                                <path d="M26,7.85427246 C26,3.51647461 22.4835254,0 18.1457275,0 C16.1749072,0 14.3783301,0.730932617 13,1.92987793 C11.6204004,0.730932617 9.82509277,0 7.85427246,0 C3.51647461,0 0,3.51647461 0,7.85427246 C0,9.82509277 0.730932617,11.6216699 1.92987793,13 C0.730932617,14.3783301 0,16.1749072 0,18.1457275 C0,22.4835254 3.51647461,26 7.85427246,26 C9.82509277,26 11.6204004,25.2690674 13,24.0701221 C14.3783301,25.2690674 16.1749072,26 18.1457275,26 C22.4835254,26 26,22.4835254 26,18.1457275 C26,16.1749707 25.2691309,14.3783936 24.070249,13.000127 C25.2693848,11.6219238 26,9.82464844 26,7.85427246 Z M11.5631445,22.4207471 C10.5647217,23.2894873 9.27805176,23.8332275 7.85427246,23.8332275 C4.71865723,23.8332275 2.16677246,21.2813428 2.16677246,18.1457275 C2.16677246,15.0101123 4.71865723,12.4582275 7.85427246,12.4582275 C9.28040039,12.4582275 10.5696729,13.0042529 11.5696826,13.8748975 C10.7666406,15.1050098 10.2917725,16.5671924 10.2917725,18.1457275 C10.2917725,19.7242627 10.7613721,21.1906348 11.5631445,22.4207471 Z M7.85427246,10.2917725 C6.2757373,10.2917725 4.80936523,10.7613721 3.57791992,11.5631445 C2.7105127,10.5647217 2.16677246,9.27709961 2.16677246,7.85427246 C2.16677246,4.71865723 4.71865723,2.16677246 7.85427246,2.16677246 C10.9898877,2.16677246 13.5417725,4.71865723 13.5417725,7.85427246 C13.5417725,9.28040039 12.9957471,10.5696729 12.1263721,11.5696826 C10.8959424,10.7665771 9.43280762,10.2917725 7.85427246,10.2917725 Z M18.1457275,23.8332275 C15.0101123,23.8332275 12.4582275,21.2813428 12.4582275,18.1457275 C12.4582275,16.7195996 13.0042529,15.4303271 13.8736279,14.4303174 C15.1040576,15.2333594 16.5671924,15.7082275 18.1457275,15.7082275 C19.7242627,15.7082275 21.1906348,15.2386279 22.4220801,14.4368555 C23.2894873,15.4352783 23.8332275,16.7229004 23.8332275,18.1457275 C23.8332275,21.2813428 21.2813428,23.8332275 18.1457275,23.8332275 Z M18.1457275,13.5417725 C16.7195996,13.5417725 15.4303271,12.9957471 14.431333,12.1241504 C15.2334229,10.8949902 15.708291,9.43280762 15.708291,7.85427246 C15.708291,6.2757373 15.2386914,4.80936523 14.4378711,3.57918945 C15.4352783,2.71044922 16.7229639,2.16670898 18.145791,2.16670898 C21.2814062,2.16670898 23.833291,4.71859375 23.833291,7.85420898 C23.8332275,10.9898877 21.2813428,13.5417725 18.1457275,13.5417725 Z" id="Shape"></path>
                                <path d="M26,7.85427246 C26,3.51647461 22.4835254,0 18.1457275,0 C16.1749072,0 14.3783301,0.730932617 13,1.92987793 C11.6204004,0.730932617 9.82509277,0 7.85427246,0 C3.51647461,0 0,3.51647461 0,7.85427246 C0,9.82509277 0.730932617,11.6216699 1.92987793,13 C0.730932617,14.3783301 0,16.1749072 0,18.1457275 C0,22.4835254 3.51647461,26 7.85427246,26 C9.82509277,26 11.6204004,25.2690674 13,24.0701221 C14.3783301,25.2690674 16.1749072,26 18.1457275,26 C22.4835254,26 26,22.4835254 26,18.1457275 C26,16.1749707 25.2691309,14.3783936 24.070249,13.000127 C25.2693848,11.6219238 26,9.82464844 26,7.85427246 Z M11.5631445,22.4207471 C10.5647217,23.2894873 9.27805176,23.8332275 7.85427246,23.8332275 C4.71865723,23.8332275 2.16677246,21.2813428 2.16677246,18.1457275 C2.16677246,15.0101123 4.71865723,12.4582275 7.85427246,12.4582275 C9.28040039,12.4582275 10.5696729,13.0042529 11.5696826,13.8748975 C10.7666406,15.1050098 10.2917725,16.5671924 10.2917725,18.1457275 C10.2917725,19.7242627 10.7613721,21.1906348 11.5631445,22.4207471 Z M7.85427246,10.2917725 C6.2757373,10.2917725 4.80936523,10.7613721 3.57791992,11.5631445 C2.7105127,10.5647217 2.16677246,9.27709961 2.16677246,7.85427246 C2.16677246,4.71865723 4.71865723,2.16677246 7.85427246,2.16677246 C10.9898877,2.16677246 13.5417725,4.71865723 13.5417725,7.85427246 C13.5417725,9.28040039 12.9957471,10.5696729 12.1263721,11.5696826 C10.8959424,10.7665771 9.43280762,10.2917725 7.85427246,10.2917725 Z M18.1457275,23.8332275 C15.0101123,23.8332275 12.4582275,21.2813428 12.4582275,18.1457275 C12.4582275,16.7195996 13.0042529,15.4303271 13.8736279,14.4303174 C15.1040576,15.2333594 16.5671924,15.7082275 18.1457275,15.7082275 C19.7242627,15.7082275 21.1906348,15.2386279 22.4220801,14.4368555 C23.2894873,15.4352783 23.8332275,16.7229004 23.8332275,18.1457275 C23.8332275,21.2813428 21.2813428,23.8332275 18.1457275,23.8332275 Z M18.1457275,13.5417725 C16.7195996,13.5417725 15.4303271,12.9957471 14.431333,12.1241504 C15.2334229,10.8949902 15.708291,9.43280762 15.708291,7.85427246 C15.708291,6.2757373 15.2386914,4.80936523 14.4378711,3.57918945 C15.4352783,2.71044922 16.7229639,2.16670898 18.145791,2.16670898 C21.2814062,2.16670898 23.833291,4.71859375 23.833291,7.85420898 C23.8332275,10.9898877 21.2813428,13.5417725 18.1457275,13.5417725 Z" id="Shape-Copy-3" filter="url(#filter-2)"></path>
                            </g>
                        </g>
                    </g>
                </g>
            </g>
        </g>
    </g>
</svg>