<?xml version="1.0" encoding="UTF-8"?>
<svg width="169px" height="146px" viewBox="0 0 169 146" version="1.1" xmlns="http://www.w3.org/2000/svg" xmlns:xlink="http://www.w3.org/1999/xlink">
    <!-- Generator: Sketch 55.2 (78181) - https://sketchapp.com -->
    <title>Group 54</title>
    <desc>Created with Sketch.</desc>
    <defs>
        <linearGradient x1="0%" y1="75.5456033%" x2="100%" y2="24.4543967%" id="linearGradient-1">
            <stop stop-color="#F19F73" offset="0%"></stop>
            <stop stop-color="#A74EB5" offset="100%"></stop>
        </linearGradient>
        <linearGradient x1="-136.03125%" y1="63.4473751%" x2="101.999998%" y2="59.2281348%" id="linearGradient-2">
            <stop stop-color="#3023AE" offset="0%"></stop>
            <stop stop-color="#C86DD7" offset="100%"></stop>
        </linearGradient>
        <linearGradient x1="-18.5664151%" y1="62.3958045%" x2="127.125322%" y2="38.4570721%" id="linearGradient-3">
            <stop stop-color="#3023AE" offset="0%"></stop>
            <stop stop-color="#C86DD7" offset="100%"></stop>
        </linearGradient>
        <linearGradient x1="56.6313912%" y1="4.34920072%" x2="56.6313912%" y2="100%" id="linearGradient-4">
            <stop stop-color="#C26AD6" offset="0%"></stop>
            <stop stop-color="#8B4FC7" offset="100%"></stop>
        </linearGradient>
        <linearGradient x1="50%" y1="0%" x2="50%" y2="104.766068%" id="linearGradient-5">
            <stop stop-color="#F7F7F7" stop-opacity="0.334352355" offset="0%"></stop>
            <stop stop-color="#FFFFFF" stop-opacity="0" offset="100%"></stop>
        </linearGradient>
        <filter x="-11.0%" y="-17.8%" width="121.8%" height="135.5%" filterUnits="objectBoundingBox" id="filter-6">
            <feGaussianBlur stdDeviation="2" in="SourceGraphic"></feGaussianBlur>
        </filter>
        <filter x="-13.6%" y="-20.8%" width="127.1%" height="141.6%" filterUnits="objectBoundingBox" id="filter-7">
            <feGaussianBlur stdDeviation="2" in="SourceGraphic"></feGaussianBlur>
        </filter>
    </defs>
    <g id="Page-1" stroke="none" stroke-width="1" fill="none" fill-rule="evenodd">
        <g id="Artboard-Copy-3" transform="translate(-404.000000, -1580.000000)">
            <g id="Group-11" transform="translate(404.000000, 275.000000)">
                <g id="Group-3-Copy">
                    <g id="Group-17-Copy" transform="translate(0.000000, 1305.000000)">
                        <g id="Group-26">
                            <g id="Group-45" transform="translate(-0.000000, -0.000000)">
                                <g id="Group-54" transform="translate(-0.000046, 0.150217)">
                                    <path d="M168.995755,74.2848952 C169.093128,69.2620727 165.826345,64.2167695 159.199366,60.3844416 L107.765273,30.6419143 C94.7568937,23.1197476 73.7368585,23.1197476 60.8129796,30.6422449 L9.71292492,60.3854334 C3.27145031,64.1341192 0.0587999192,69.043876 0.0657315598,73.9576001 C0.0657315598,73.9417312 0.0647413254,73.9258624 0.0650714035,73.9099935 L-2.84217094e-14,96.6996492 C-0.0141473465,101.660649 3.25527648,106.629253 9.80105578,110.414305 L61.2354796,140.157163 C74.2422081,147.678338 95.2638937,147.67933 108.187773,140.156832 L159.287827,110.413644 C165.707847,106.67686 168.921157,101.786278 168.935351,96.8890837 L169.000046,74.0990973 C169.000046,74.1609197 168.997075,74.2230727 168.995755,74.2848952 Z" id="Path" fill="url(#linearGradient-1)"></path>
                                    <path d="M159.352523,87.623988 L108.252468,117.367177 C95.328589,124.889674 74.3069034,124.888682 61.3001749,117.367507 L9.86575109,87.6246492 C3.31997179,83.8392667 0.050547966,78.8709935 0.0647413254,73.9099935 L-2.84217094e-14,96.6996492 C-0.0141473465,101.660649 3.25527648,106.629253 9.80105578,110.414305 L61.2354796,140.157163 C74.2422081,147.678338 95.2638937,147.67933 108.187773,140.156832 L159.287827,110.413644 C165.707847,106.67686 168.921157,101.786278 168.935351,96.8890837 L169.000046,74.0990973 C168.986183,78.9969525 165.772542,83.8872039 159.352523,87.623988 Z" id="Path" fill="url(#linearGradient-2)"></path>
                                    <path d="M159.199366,60.3844416 C172.206095,67.9059471 172.276071,80.1014908 159.352523,87.623988 L108.252468,117.367507 C95.328589,124.890004 74.3069034,124.889013 61.3001749,117.367838 L9.86575109,87.6246492 C-3.14262782,80.1024826 -3.21095399,67.9076001 9.71259484,60.3851028 L60.8126495,30.6419143 C73.7365284,23.119417 94.7565636,23.119417 107.764942,30.6415837 L159.199366,60.3844416 Z" id="Path" fill="url(#linearGradient-3)"></path>
                                    <path d="M61.000046,29.2983615 C60.6641153,29.3963615 60.3307819,29.4978615 60.000046,29.6043615 C60.0009118,29.6043615 60.0009118,29.6038615 60.0017776,29.6038615 C60.3316477,29.4973615 60.6641153,29.3963615 61.000046,29.2983615 L61.000046,29.2983615 Z" id="Path" fill="#E0E0E2"></path>
                                    <path d="M168.995755,49.2848952 C169.093128,44.2620727 165.826345,39.2167695 159.199366,35.3844416 L107.765273,5.64191428 C94.7568937,-1.88025239 73.7368585,-1.88025239 60.8129796,5.64224488 L9.71292492,35.3854334 C3.27145031,39.1341192 0.0587999192,44.043876 0.0657315598,48.9576001 C0.0657315598,48.9417312 0.0647413254,48.9258624 0.0650714035,48.9099935 L-2.84217094e-14,71.6996492 C-0.0141473465,76.6606492 3.25527648,81.6292531 9.80105578,85.414305 L61.2354796,115.157163 C74.2422081,122.678338 95.2638937,122.67933 108.187773,115.156832 L159.287827,85.4136438 C165.707847,81.6768596 168.921157,76.7862777 168.935351,71.8890837 L169.000046,49.0990973 C169.000046,49.1609197 168.997075,49.2230727 168.995755,49.2848952 Z" id="Path" fill="url(#linearGradient-4)"></path>
                                    <path d="M159.199366,35.3844416 C172.206095,42.9059471 172.276071,55.1014908 159.352523,62.623988 L108.252468,92.3675072 C95.328589,99.8900044 74.3069034,99.8890126 61.3001749,92.3678378 L9.86575109,62.6246492 C-3.14262782,55.1024826 -3.21095399,42.9076001 9.71259484,35.3851028 L60.8126495,5.64191428 C73.7365284,-1.88058299 94.7565636,-1.88058299 107.764942,5.64158368 L159.199366,35.3844416 Z" id="Path" fill="url(#linearGradient-5)"></path>
                                    <polygon id="Path-8" stroke="#FFFFFF" stroke-width="1.3" points="100.290907 66.2013615 133.000046 47.0392167 100.128471 28.2013615 66.000046 48.5718182"></polygon>
                                    <polygon id="Path-8-Copy" stroke="#FFFFFF" stroke-width="1.3" filter="url(#filter-6)" points="100.290907 66.2013615 133.000046 47.0392167 100.128471 28.2013615 66.000046 48.5718182"></polygon>
                                    <ellipse id="Oval" stroke="#FFFFFF" stroke-width="1.3" cx="64.500046" cy="47.2013615" rx="24.5" ry="16"></ellipse>
                                    <ellipse id="Oval-Copy" stroke="#FFFFFF" stroke-width="1.3" filter="url(#filter-7)" cx="64.500046" cy="47.2013615" rx="24.5" ry="16"></ellipse>
                                    <path d="M61.000046,6.29836148 C60.6641153,6.39636148 60.3307819,6.49786148 60.000046,6.60436148 C60.0009118,6.60436148 60.0009118,6.60386148 60.0017776,6.60386148 C60.3316477,6.49736148 60.6641153,6.39636148 61.000046,6.29836148 L61.000046,6.29836148 Z" id="Path" fill="#E0E0E2"></path>
                                </g>
                            </g>
                        </g>
                    </g>
                </g>
            </g>
        </g>
    </g>
</svg>