<svg width="760" height="181" viewBox="0 0 760 181" fill="none" xmlns="http://www.w3.org/2000/svg">
<rect width="760" height="181" rx="8" fill="url(#paint0_linear)"/>
<rect opacity="0.3" x="372.5" y="55.5" width="71" height="71" rx="35.5" fill="white" fill-opacity="0.2" stroke="white"/>
<rect opacity="0.3" x="336.5" y="55.5" width="71" height="71" rx="35.5" fill="white" fill-opacity="0.1" stroke="white"/>
<rect opacity="0.3" x="301.5" y="55.5" width="71" height="71" rx="35.5" fill="white" fill-opacity="0.05" stroke="white"/>
<rect opacity="0.6" x="408.5" y="55.5" width="71" height="71" rx="35.5" fill="white" fill-opacity="0.2" stroke="white"/>
<rect x="443.5" y="55.5" width="71" height="71" rx="35.5" fill="white" fill-opacity="0.2" stroke="white"/>
<rect x="479.5" y="55.5" width="71" height="71" rx="35.5" fill="white" fill-opacity="0.2" stroke="white"/>
<rect x="515.5" y="55.5" width="71" height="71" rx="35.5" fill="white" fill-opacity="0.2" stroke="white"/>
<rect x="551.5" y="55.5" width="71" height="71" rx="35.5" fill="white" fill-opacity="0.2" stroke="white"/>
<rect x="587.5" y="55.5" width="71" height="71" rx="35.5" fill="white" fill-opacity="0.2" stroke="white"/>
<rect x="623.5" y="55.5" width="71" height="71" rx="35.5" fill="white" fill-opacity="0.2" stroke="white"/>
<path d="M64.9219 95.9219V118H61.6875V100.562L55.625 116.125H52.3594L46.2969 100.562V118H43.0625V95.9219H47.6094L54 112.359L60.375 95.9219H64.9219ZM76.7656 118.297C75.2344 118.297 73.8698 117.932 72.6719 117.203C71.4844 116.474 70.5625 115.49 69.9062 114.25C69.25 113 68.9219 111.635 68.9219 110.156C68.9219 108.688 69.25 107.339 69.9062 106.109C70.5625 104.87 71.4844 103.891 72.6719 103.172C73.8698 102.453 75.2344 102.094 76.7656 102.094C78.2969 102.094 79.6562 102.453 80.8438 103.172C82.0417 103.891 82.9688 104.87 83.625 106.109C84.2917 107.339 84.625 108.688 84.625 110.156C84.625 111.635 84.2917 113 83.625 114.25C82.9688 115.49 82.0417 116.474 80.8438 117.203C79.6562 117.932 78.2969 118.297 76.7656 118.297ZM76.7656 115.5C77.7448 115.5 78.5729 115.26 79.25 114.781C79.9271 114.302 80.4323 113.656 80.7656 112.844C81.099 112.031 81.2656 111.135 81.2656 110.156C81.2656 109.177 81.099 108.292 80.7656 107.5C80.4323 106.698 79.9271 106.062 79.25 105.594C78.5729 105.125 77.7448 104.891 76.7656 104.891C75.7865 104.891 74.9583 105.125 74.2812 105.594C73.6146 106.062 73.1146 106.698 72.7812 107.5C72.4479 108.292 72.2812 109.177 72.2812 110.156C72.2812 111.146 72.4479 112.047 72.7812 112.859C73.1146 113.661 73.6146 114.302 74.2812 114.781C74.9583 115.26 75.7865 115.5 76.7656 115.5ZM93.2656 118.297C91.7969 118.297 90.651 117.885 89.8281 117.062C89.0156 116.24 88.6094 115.104 88.6094 113.656V105.109H86.0469V102.391H88.6562V98.2969L91.8281 95.9844V102.391H95.8906V105.109H91.8281V113.109C91.8281 113.943 92 114.542 92.3438 114.906C92.6875 115.26 93.1823 115.438 93.8281 115.438C94.4531 115.438 95.1354 115.271 95.875 114.938L95.8906 117.859C95.5781 117.974 95.1823 118.073 94.7031 118.156C94.224 118.25 93.7448 118.297 93.2656 118.297ZM99.5625 95.9219H102.938V99.3281H99.5625V95.9219ZM99.6406 102.391H102.859V118H99.6406V102.391ZM114.172 118.297C112.641 118.297 111.276 117.932 110.078 117.203C108.891 116.474 107.969 115.49 107.312 114.25C106.656 113 106.328 111.635 106.328 110.156C106.328 108.688 106.656 107.339 107.312 106.109C107.969 104.87 108.891 103.891 110.078 103.172C111.276 102.453 112.641 102.094 114.172 102.094C115.703 102.094 117.062 102.453 118.25 103.172C119.448 103.891 120.375 104.87 121.031 106.109C121.698 107.339 122.031 108.688 122.031 110.156C122.031 111.635 121.698 113 121.031 114.25C120.375 115.49 119.448 116.474 118.25 117.203C117.062 117.932 115.703 118.297 114.172 118.297ZM114.172 115.5C115.151 115.5 115.979 115.26 116.656 114.781C117.333 114.302 117.839 113.656 118.172 112.844C118.505 112.031 118.672 111.135 118.672 110.156C118.672 109.177 118.505 108.292 118.172 107.5C117.839 106.698 117.333 106.062 116.656 105.594C115.979 105.125 115.151 104.891 114.172 104.891C113.193 104.891 112.365 105.125 111.688 105.594C111.021 106.062 110.521 106.698 110.188 107.5C109.854 108.292 109.688 109.177 109.688 110.156C109.688 111.146 109.854 112.047 110.188 112.859C110.521 113.661 111.021 114.302 111.688 114.781C112.365 115.26 113.193 115.5 114.172 115.5ZM125.516 102.391H128.734V104.484C129.286 103.693 129.979 103.099 130.812 102.703C131.646 102.297 132.516 102.094 133.422 102.094C134.672 102.094 135.714 102.385 136.547 102.969C137.391 103.552 138.01 104.323 138.406 105.281C138.802 106.24 139.005 107.297 139.016 108.453V118H135.797V108.938C135.797 107.76 135.51 106.823 134.938 106.125C134.375 105.427 133.568 105.078 132.516 105.078C131.328 105.078 130.401 105.427 129.734 106.125C129.068 106.823 128.734 107.859 128.734 109.234V118H125.516V102.391Z" fill="white"/>
<path d="M45.5 73.1113C44.6523 73.1113 43.9336 72.9238 43.3438 72.5488C42.7539 72.1699 42.3125 71.6602 42.0195 71.0195C41.7266 70.375 41.5801 69.6543 41.5801 68.8574C41.5801 68.0566 41.7246 67.3359 42.0137 66.6953C42.3066 66.0508 42.748 65.541 43.3379 65.166C43.9277 64.7871 44.6523 64.5977 45.5117 64.5977C46.3281 64.5977 47.0391 64.7969 47.6445 65.1953C48.25 65.5938 48.7148 66.1719 49.0391 66.9297L47.9199 67.3984C47.7207 66.8281 47.4141 66.4023 47 66.1211C46.5859 65.8398 46.0859 65.6992 45.5 65.6992C44.9102 65.6992 44.4141 65.8359 44.0117 66.1094C43.6133 66.3828 43.3164 66.7539 43.1211 67.2227C42.9258 67.6875 42.8281 68.2148 42.8281 68.8047C42.8281 69.4141 42.9219 69.957 43.1094 70.4336C43.3008 70.9102 43.5957 71.2871 43.9941 71.5645C44.3965 71.8418 44.8984 71.9805 45.5 71.9805C45.957 71.9805 46.3594 71.8984 46.707 71.7344C47.0586 71.5703 47.3379 71.3281 47.5449 71.0078C47.752 70.6836 47.8711 70.291 47.9023 69.8301L47.9316 69.6133H46.0156V68.5938H49.1738V73H48.1719L48.0605 71.7285C47.8184 72.1621 47.4746 72.502 47.0293 72.748C46.5879 72.9902 46.0781 73.1113 45.5 73.1113ZM54.5605 73.1113C53.5176 73.1113 52.7402 72.8223 52.2285 72.2441C51.7207 71.666 51.4668 70.8555 51.4668 69.8125V64.7207H52.7266V69.6719C52.7266 70.1641 52.7832 70.5723 52.8965 70.8965C53.0137 71.2207 53.207 71.4688 53.4766 71.6406C53.7461 71.8086 54.1074 71.8926 54.5605 71.8926C55.0176 71.8926 55.3809 71.8086 55.6504 71.6406C55.9199 71.4688 56.1133 71.2207 56.2305 70.8965C56.3477 70.5684 56.4062 70.1562 56.4062 69.6602V64.7207H57.666V69.7539C57.666 70.8203 57.4082 71.6465 56.8926 72.2324C56.3809 72.8184 55.6035 73.1113 54.5605 73.1113ZM60.2812 64.7207H61.541V73H60.2812V64.7207ZM64.3438 64.7207H66.6875C67.6133 64.7207 68.3945 64.8848 69.0312 65.2129C69.6719 65.5371 70.1543 66.0137 70.4785 66.6426C70.8066 67.2676 70.9707 68.0273 70.9707 68.9219C70.9707 69.7812 70.8047 70.5156 70.4727 71.125C70.1406 71.7344 69.6523 72.1992 69.0078 72.5195C68.3672 72.8398 67.5898 73 66.6758 73H64.3438V64.7207ZM66.5586 71.8398C67.5781 71.8398 68.3574 71.6035 68.8965 71.1309C69.4395 70.6582 69.7109 69.9043 69.7109 68.8691C69.7109 68.1699 69.6055 67.6016 69.3945 67.1641C69.1836 66.7266 68.8555 66.4043 68.4102 66.1973C67.9648 65.9863 67.3848 65.8809 66.6699 65.8809H65.6035V71.8398H66.5586ZM73.1992 64.7207H78.6777V65.8809H74.459V68.2715H78.3379V69.4316H74.459V71.8105H78.6777V73H73.1992V64.7207ZM81.0586 64.7207H82.3184V71.8105H85.9395V73H81.0586V64.7207ZM87.8047 64.7207H89.0645V73H87.8047V64.7207ZM98.0371 64.7207V73H96.7656L93.0801 66.7891V73H91.8672V64.7207H93.1328L96.8301 70.9082V64.7207H98.0371ZM100.84 64.7207H106.318V65.8809H102.1V68.2715H105.979V69.4316H102.1V71.8105H106.318V73H100.84V64.7207ZM110.984 73.0879C110.488 73.0879 110.021 72.998 109.584 72.8184C109.15 72.6348 108.783 72.3652 108.482 72.0098C108.186 71.6504 107.996 71.2168 107.914 70.709L109.162 70.3926C109.225 70.9082 109.422 71.3008 109.754 71.5703C110.09 71.8359 110.508 71.9688 111.008 71.9688C111.32 71.9688 111.592 71.916 111.822 71.8105C112.057 71.7012 112.234 71.5547 112.355 71.3711C112.477 71.1836 112.537 70.9746 112.537 70.7441C112.537 70.4785 112.459 70.2539 112.303 70.0703C112.146 69.8828 111.951 69.7285 111.717 69.6074C111.482 69.4863 111.164 69.3477 110.762 69.1914C110.262 68.9961 109.859 68.8145 109.555 68.6465C109.25 68.4785 108.988 68.248 108.77 67.9551C108.555 67.6582 108.447 67.2852 108.447 66.8359C108.447 66.3828 108.559 65.9883 108.781 65.6523C109.004 65.3125 109.305 65.0547 109.684 64.8789C110.066 64.6992 110.486 64.6094 110.943 64.6094C111.471 64.6094 111.945 64.7266 112.367 64.9609C112.789 65.1914 113.135 65.5449 113.404 66.0215L112.361 66.666C112.201 66.3613 111.996 66.1289 111.746 65.9688C111.496 65.8086 111.215 65.7285 110.902 65.7285C110.68 65.7285 110.477 65.7734 110.293 65.8633C110.109 65.9531 109.965 66.0781 109.859 66.2383C109.758 66.3945 109.707 66.5723 109.707 66.7715C109.707 67.0059 109.779 67.2051 109.924 67.3691C110.072 67.5332 110.256 67.6699 110.475 67.7793C110.697 67.8887 111.002 68.0176 111.389 68.166C111.904 68.3691 112.32 68.5566 112.637 68.7285C112.957 68.9004 113.23 69.1426 113.457 69.4551C113.684 69.7637 113.797 70.1562 113.797 70.6328C113.797 71.125 113.672 71.5566 113.422 71.9277C113.176 72.2988 112.838 72.5859 112.408 72.7891C111.979 72.9883 111.504 73.0879 110.984 73.0879Z" fill="white" fill-opacity="0.8"/>
<defs>
<linearGradient id="paint0_linear" x1="11" y1="205" x2="549.727" y2="693.327" gradientUnits="userSpaceOnUse">
<stop stop-color="#D45721"/>
<stop offset="1" stop-color="#FFDE69"/>
</linearGradient>
</defs>
</svg>
