<svg width="760" height="181" viewBox="0 0 760 181" fill="none" xmlns="http://www.w3.org/2000/svg">
<rect width="760" height="181" rx="8" fill="url(#paint0_linear)"/>
<path d="M52.0156 118.297C49.724 118.297 47.7917 117.786 46.2188 116.766C44.6458 115.734 43.4688 114.359 42.6875 112.641C41.9167 110.922 41.5312 109.026 41.5312 106.953C41.5312 104.88 41.9167 102.99 42.6875 101.281C43.4688 99.5625 44.6458 98.1927 46.2188 97.1719C47.7917 96.1406 49.724 95.625 52.0156 95.625C54.3073 95.625 56.2396 96.1406 57.8125 97.1719C59.3854 98.1927 60.5573 99.5625 61.3281 101.281C62.1094 102.99 62.5 104.88 62.5 106.953C62.5 109.026 62.1094 110.922 61.3281 112.641C60.5573 114.359 59.3854 115.734 57.8125 116.766C56.2396 117.786 54.3073 118.297 52.0156 118.297ZM52.0156 115.312C53.6094 115.312 54.9219 114.938 55.9531 114.188C56.9948 113.438 57.7552 112.438 58.2344 111.188C58.7135 109.927 58.9531 108.516 58.9531 106.953C58.9531 105.391 58.7135 103.984 58.2344 102.734C57.7552 101.474 56.9948 100.474 55.9531 99.7344C54.9219 98.9844 53.6094 98.6094 52.0156 98.6094C50.4219 98.6094 49.1042 98.9844 48.0625 99.7344C47.0312 100.474 46.276 101.474 45.7969 102.734C45.3177 103.984 45.0781 105.391 45.0781 106.953C45.0781 108.516 45.3177 109.927 45.7969 111.188C46.276 112.438 47.0312 113.438 48.0625 114.188C49.1042 114.938 50.4219 115.312 52.0156 115.312ZM64.125 102.391H67.6562L71.8438 113.844L76.0469 102.391H79.5625L73.1875 118H70.5L64.125 102.391ZM87.9688 118.297C86.3125 118.297 84.9062 117.938 83.75 117.219C82.5938 116.49 81.724 115.516 81.1406 114.297C80.5573 113.078 80.2656 111.734 80.2656 110.266C80.2656 108.818 80.5417 107.474 81.0938 106.234C81.6562 104.984 82.4948 103.984 83.6094 103.234C84.7344 102.474 86.099 102.094 87.7031 102.094C89.3802 102.094 90.7448 102.479 91.7969 103.25C92.8594 104.01 93.6198 104.974 94.0781 106.141C94.5469 107.307 94.7812 108.51 94.7812 109.75C94.7812 110.042 94.7656 110.328 94.7344 110.609C94.7135 110.891 94.6875 111.089 94.6562 111.203H83.6719C83.8177 112.516 84.2448 113.536 84.9531 114.266C85.6719 114.995 86.6823 115.359 87.9844 115.359C88.7865 115.359 89.5104 115.224 90.1562 114.953C90.8125 114.682 91.4323 114.229 92.0156 113.594L94.2344 115.547C93.3698 116.484 92.4271 117.177 91.4062 117.625C90.3958 118.073 89.25 118.297 87.9688 118.297ZM91.5938 108.859C91.6146 108.516 91.5833 108.188 91.5 107.875C91.3333 106.958 90.9167 106.219 90.25 105.656C89.5833 105.094 88.724 104.812 87.6719 104.812C86.5052 104.812 85.5885 105.177 84.9219 105.906C84.2656 106.635 83.849 107.62 83.6719 108.859H91.5938ZM98.3594 102.391H101.5V105.234C101.729 104.568 102.073 104 102.531 103.531C102.99 103.052 103.51 102.693 104.094 102.453C104.688 102.214 105.292 102.094 105.906 102.094C106.417 102.094 106.906 102.177 107.375 102.344C107.854 102.51 108.266 102.76 108.609 103.094L107.141 105.75C106.599 105.406 106.026 105.234 105.422 105.234C104.755 105.234 104.12 105.438 103.516 105.844C102.911 106.25 102.417 106.885 102.031 107.75C101.656 108.604 101.469 109.672 101.469 110.953V118H98.3594V102.391ZM109.219 102.391H112.75L116.938 113.844L121.141 102.391H124.656L118.281 118H115.594L109.219 102.391ZM127.125 95.9219H130.5V99.3281H127.125V95.9219ZM127.203 102.391H130.422V118H127.203V102.391ZM141.688 118.297C140.031 118.297 138.625 117.938 137.469 117.219C136.312 116.49 135.443 115.516 134.859 114.297C134.276 113.078 133.984 111.734 133.984 110.266C133.984 108.818 134.26 107.474 134.812 106.234C135.375 104.984 136.214 103.984 137.328 103.234C138.453 102.474 139.818 102.094 141.422 102.094C143.099 102.094 144.464 102.479 145.516 103.25C146.578 104.01 147.339 104.974 147.797 106.141C148.266 107.307 148.5 108.51 148.5 109.75C148.5 110.042 148.484 110.328 148.453 110.609C148.432 110.891 148.406 111.089 148.375 111.203H137.391C137.536 112.516 137.964 113.536 138.672 114.266C139.391 114.995 140.401 115.359 141.703 115.359C142.505 115.359 143.229 115.224 143.875 114.953C144.531 114.682 145.151 114.229 145.734 113.594L147.953 115.547C147.089 116.484 146.146 117.177 145.125 117.625C144.115 118.073 142.969 118.297 141.688 118.297ZM145.312 108.859C145.333 108.516 145.302 108.188 145.219 107.875C145.052 106.958 144.635 106.219 143.969 105.656C143.302 105.094 142.443 104.812 141.391 104.812C140.224 104.812 139.307 105.177 138.641 105.906C137.984 106.635 137.568 107.62 137.391 108.859H145.312ZM149.766 102.391H153.203L156.125 113.078L159.484 102.391H162.281L165.641 113.062L168.578 102.391H172.031L167.281 118H164.344L160.891 106.922L157.406 118H154.484L149.766 102.391Z" fill="white"/>
<path d="M45.5 73.1113C44.6523 73.1113 43.9336 72.9238 43.3438 72.5488C42.7539 72.1699 42.3125 71.6602 42.0195 71.0195C41.7266 70.375 41.5801 69.6543 41.5801 68.8574C41.5801 68.0566 41.7266 67.3359 42.0195 66.6953C42.3125 66.0508 42.7539 65.541 43.3438 65.166C43.9336 64.7871 44.6562 64.5977 45.5117 64.5977C46.3359 64.5977 47.0508 64.7969 47.6562 65.1953C48.2617 65.5938 48.7266 66.1719 49.0508 66.9297L47.8672 67.3984C47.543 66.332 46.7539 65.7988 45.5 65.7988C44.9062 65.7988 44.4102 65.9277 44.0117 66.1855C43.6133 66.4434 43.3164 66.7988 43.1211 67.252C42.9258 67.7012 42.8281 68.2188 42.8281 68.8047C42.8281 69.4102 42.9219 69.9453 43.1094 70.4102C43.3008 70.875 43.5957 71.2422 43.9941 71.5117C44.3926 71.7773 44.8945 71.9102 45.5 71.9102C46.0859 71.9102 46.5723 71.7812 46.959 71.5234C47.3496 71.2656 47.6602 70.8535 47.8906 70.2871L49.0625 70.7676C48.7344 71.5254 48.2637 72.1055 47.6504 72.5078C47.0371 72.9102 46.3203 73.1113 45.5 73.1113ZM54.3496 73.1113C53.4902 73.1113 52.7656 72.9199 52.1758 72.5371C51.5859 72.1504 51.1445 71.6348 50.8516 70.9902C50.5625 70.3457 50.418 69.6348 50.418 68.8574C50.418 68.0801 50.5625 67.3711 50.8516 66.7305C51.1445 66.0859 51.5859 65.5723 52.1758 65.1895C52.7656 64.8027 53.4902 64.6094 54.3496 64.6094C55.209 64.6094 55.9336 64.8027 56.5234 65.1895C57.1133 65.5723 57.5527 66.0859 57.8418 66.7305C58.1348 67.3711 58.2812 68.0801 58.2812 68.8574C58.2812 69.6348 58.1348 70.3457 57.8418 70.9902C57.5527 71.6348 57.1133 72.1504 56.5234 72.5371C55.9336 72.9199 55.209 73.1113 54.3496 73.1113ZM54.3496 71.9922C54.9473 71.9922 55.4395 71.8516 55.8262 71.5703C56.2168 71.2891 56.502 70.9141 56.6816 70.4453C56.8613 69.9727 56.9512 69.4434 56.9512 68.8574C56.9512 68.2715 56.8613 67.7441 56.6816 67.2754C56.502 66.8027 56.2168 66.4277 55.8262 66.1504C55.4395 65.8691 54.9473 65.7285 54.3496 65.7285C53.752 65.7285 53.2578 65.8691 52.8672 66.1504C52.4805 66.4277 52.1973 66.8027 52.0176 67.2754C51.8379 67.7441 51.748 68.2715 51.748 68.8574C51.748 69.4434 51.8379 69.9727 52.0176 70.4453C52.1973 70.9141 52.4805 71.2891 52.8672 71.5703C53.2578 71.8516 53.752 71.9922 54.3496 71.9922ZM68.7012 64.7207V73H67.4883V66.4609L65.2148 72.2969H63.9902L61.7168 66.4609V73H60.5039V64.7207H62.209L64.6055 70.8848L66.9961 64.7207H68.7012ZM71.5039 64.7207H73.9941C74.5566 64.7207 75.0547 64.8164 75.4883 65.0078C75.9219 65.1992 76.2598 65.4766 76.502 65.8398C76.748 66.2031 76.8711 66.6348 76.8711 67.1348C76.8711 67.6309 76.75 68.0566 76.5078 68.4121C76.2656 68.7676 75.9277 69.0391 75.4941 69.2266C75.0605 69.4102 74.5605 69.502 73.9941 69.502H72.7578V73H71.5039V64.7207ZM73.9941 68.3242C75.0801 68.3242 75.623 67.9277 75.623 67.1348C75.623 66.7363 75.4863 66.4316 75.2129 66.2207C74.9434 66.0059 74.5371 65.8984 73.9941 65.8984H72.7578V68.3242H73.9941ZM82.2285 73.1113C81.3691 73.1113 80.6445 72.9199 80.0547 72.5371C79.4648 72.1504 79.0234 71.6348 78.7305 70.9902C78.4414 70.3457 78.2969 69.6348 78.2969 68.8574C78.2969 68.0801 78.4414 67.3711 78.7305 66.7305C79.0234 66.0859 79.4648 65.5723 80.0547 65.1895C80.6445 64.8027 81.3691 64.6094 82.2285 64.6094C83.0879 64.6094 83.8125 64.8027 84.4023 65.1895C84.9922 65.5723 85.4316 66.0859 85.7207 66.7305C86.0137 67.3711 86.1602 68.0801 86.1602 68.8574C86.1602 69.6348 86.0137 70.3457 85.7207 70.9902C85.4316 71.6348 84.9922 72.1504 84.4023 72.5371C83.8125 72.9199 83.0879 73.1113 82.2285 73.1113ZM82.2285 71.9922C82.8262 71.9922 83.3184 71.8516 83.7051 71.5703C84.0957 71.2891 84.3809 70.9141 84.5605 70.4453C84.7402 69.9727 84.8301 69.4434 84.8301 68.8574C84.8301 68.2715 84.7402 67.7441 84.5605 67.2754C84.3809 66.8027 84.0957 66.4277 83.7051 66.1504C83.3184 65.8691 82.8262 65.7285 82.2285 65.7285C81.6309 65.7285 81.1367 65.8691 80.7461 66.1504C80.3594 66.4277 80.0762 66.8027 79.8965 67.2754C79.7168 67.7441 79.627 68.2715 79.627 68.8574C79.627 69.4434 79.7168 69.9727 79.8965 70.4453C80.0762 70.9141 80.3594 71.2891 80.7461 71.5703C81.1367 71.8516 81.6309 71.9922 82.2285 71.9922ZM94.5527 64.7207V73H93.2812L89.5957 66.7891V73H88.3828V64.7207H89.6484L93.3457 70.9082V64.7207H94.5527ZM97.3555 64.7207H102.834V65.8809H98.6152V68.2715H102.494V69.4316H98.6152V71.8105H102.834V73H97.3555V64.7207ZM111.385 64.7207V73H110.113L106.428 66.7891V73H105.215V64.7207H106.48L110.178 70.9082V64.7207H111.385ZM115.939 65.8516H113.244V64.7207H119.889V65.8516H117.199V73H115.939V65.8516ZM124.027 73.0879C123.531 73.0879 123.064 72.998 122.627 72.8184C122.193 72.6348 121.826 72.3652 121.525 72.0098C121.229 71.6504 121.039 71.2168 120.957 70.709L122.205 70.3926C122.268 70.9082 122.465 71.3008 122.797 71.5703C123.133 71.8359 123.551 71.9688 124.051 71.9688C124.363 71.9688 124.635 71.916 124.865 71.8105C125.1 71.7012 125.277 71.5547 125.398 71.3711C125.52 71.1836 125.58 70.9746 125.58 70.7441C125.58 70.4785 125.502 70.2539 125.346 70.0703C125.189 69.8828 124.994 69.7285 124.76 69.6074C124.525 69.4863 124.207 69.3477 123.805 69.1914C123.305 68.9961 122.902 68.8145 122.598 68.6465C122.293 68.4785 122.031 68.248 121.812 67.9551C121.598 67.6582 121.49 67.2852 121.49 66.8359C121.49 66.3828 121.602 65.9883 121.824 65.6523C122.047 65.3125 122.348 65.0547 122.727 64.8789C123.109 64.6992 123.529 64.6094 123.986 64.6094C124.514 64.6094 124.988 64.7266 125.41 64.9609C125.832 65.1914 126.178 65.5449 126.447 66.0215L125.404 66.666C125.244 66.3613 125.039 66.1289 124.789 65.9688C124.539 65.8086 124.258 65.7285 123.945 65.7285C123.723 65.7285 123.52 65.7734 123.336 65.8633C123.152 65.9531 123.008 66.0781 122.902 66.2383C122.801 66.3945 122.75 66.5723 122.75 66.7715C122.75 67.0059 122.822 67.2051 122.967 67.3691C123.115 67.5332 123.299 67.6699 123.518 67.7793C123.74 67.8887 124.045 68.0176 124.432 68.166C124.947 68.3691 125.363 68.5566 125.68 68.7285C126 68.9004 126.273 69.1426 126.5 69.4551C126.727 69.7637 126.84 70.1562 126.84 70.6328C126.84 71.125 126.715 71.5566 126.465 71.9277C126.219 72.2988 125.881 72.5859 125.451 72.7891C125.021 72.9883 124.547 73.0879 124.027 73.0879Z" fill="white" fill-opacity="0.8"/>
<rect x="528.5" y="55.5" width="71" height="71" rx="35.5" fill="white" fill-opacity="0.2" stroke="white"/>
<rect opacity="0.6" x="436.5" y="56.5" width="70" height="70" fill="white" fill-opacity="0.2" stroke="white"/>
<rect opacity="0.4" x="341.707" y="91.5" width="51.3266" height="51.3266" transform="rotate(-45 341.707 91.5)" fill="white" fill-opacity="0.2" stroke="white"/>
<path d="M608.096 126.25L647.5 58L686.904 126.25H608.096Z" fill="white" fill-opacity="0.2" stroke="white"/>
<defs>
<linearGradient id="paint0_linear" x1="11" y1="205" x2="549.727" y2="693.327" gradientUnits="userSpaceOnUse">
<stop stop-color="#08BEE5"/>
<stop offset="1" stop-color="#36D9C6"/>
</linearGradient>
</defs>
</svg>
