<svg width="310" height="336" viewBox="0 0 282 336" fill="none" xmlns="http://www.w3.org/2000/svg">
<path d="M1.64062 262H4.4165C7.81494 262 9.71191 260.14 9.71191 256.902C9.71191 253.533 7.85889 251.651 4.43115 251.651H1.64062V262ZM2.64404 261.07V252.581H4.4165C7.31689 252.581 8.7085 253.98 8.7085 256.866C8.7085 259.737 7.08252 261.07 4.32861 261.07H2.64404ZM14.8901 262.11C16.9775 262.11 18.4497 260.425 18.4497 258.323C18.4497 256.236 16.9775 254.566 14.8901 254.566C12.8101 254.566 11.3599 256.236 11.3599 258.323C11.3599 260.433 12.8101 262.11 14.8901 262.11ZM14.8901 261.268C13.3081 261.268 12.3633 259.949 12.3633 258.323C12.3633 256.705 13.3081 255.416 14.8901 255.416C16.4868 255.416 17.4463 256.712 17.4463 258.323C17.4463 259.942 16.4868 261.268 14.8901 261.268ZM20.4419 262H21.4087V257.671C21.4087 256.25 22.207 255.467 23.4448 255.467C24.646 255.467 25.2759 256.258 25.2759 257.591V262H26.2427V257.364C26.2134 255.782 25.4077 254.566 23.7012 254.566C22.7344 254.566 21.8701 255.035 21.4087 255.928V254.683H20.4419V262ZM27.561 255.877H28.2349L30.1978 251.651H29.0918L27.561 255.877ZM34.4604 262.11C34.8706 262.11 35.2661 262.037 35.4932 261.963L35.4785 261.077C35.2734 261.158 34.9438 261.253 34.6216 261.253C33.8452 261.253 33.4351 260.828 33.4351 259.795V255.503H35.4858V254.683H33.4351V251.856L32.4829 252.566V254.683H31.2524V255.503H32.4683V259.949C32.4683 261.348 33.1641 262.11 34.4604 262.11Z" fill="#FB7372"/>
<path d="M1.75 294H4.71094C8.33594 294 10.3594 292.016 10.3594 288.562C10.3594 284.969 8.38281 282.961 4.72656 282.961H1.75V294ZM2.82031 293.008V283.953H4.71094C7.80469 283.953 9.28906 285.445 9.28906 288.523C9.28906 291.586 7.55469 293.008 4.61719 293.008H2.82031ZM16.1228 294.117C18.3494 294.117 19.9197 292.32 19.9197 290.078C19.9197 287.852 18.3494 286.07 16.1228 286.07C13.9041 286.07 12.3572 287.852 12.3572 290.078C12.3572 292.328 13.9041 294.117 16.1228 294.117ZM16.1228 293.219C14.4353 293.219 13.4275 291.812 13.4275 290.078C13.4275 288.352 14.4353 286.977 16.1228 286.977C17.8259 286.977 18.8494 288.359 18.8494 290.078C18.8494 291.805 17.8259 293.219 16.1228 293.219ZM22.2847 294H23.3159V289.383C23.3159 287.867 24.1675 287.031 25.4878 287.031C26.7691 287.031 27.4409 287.875 27.4409 289.297V294H28.4722V289.055C28.4409 287.367 27.5816 286.07 25.7612 286.07C24.73 286.07 23.8081 286.57 23.3159 287.523V286.195H22.2847V294ZM30.1184 287.469H30.8372L32.9309 282.961H31.7512L30.1184 287.469ZM37.7178 294.117C38.1553 294.117 38.5772 294.039 38.8194 293.961L38.8037 293.016C38.585 293.102 38.2334 293.203 37.8897 293.203C37.0616 293.203 36.6241 292.75 36.6241 291.648V287.07H38.8116V286.195H36.6241V283.18L35.6084 283.938V286.195H34.2959V287.07H35.5928V291.812C35.5928 293.305 36.335 294.117 37.7178 294.117ZM48.4087 294.117C49.6666 294.117 50.5494 293.734 51.4244 292.82L50.7056 292.188C50.0025 292.922 49.3541 293.18 48.4166 293.18C46.8462 293.18 45.94 292.117 45.8619 290.375H51.6119C51.6431 290.258 51.6666 289.945 51.6666 289.68C51.6666 288.133 50.8306 286.07 48.2837 286.07C46.0103 286.07 44.7681 287.93 44.7681 290.133C44.7681 292.375 46.0572 294.117 48.4087 294.117ZM45.8619 289.609C45.9947 288.047 46.8541 286.953 48.2759 286.953C49.8228 286.953 50.5259 288.062 50.6197 289.117C50.6431 289.273 50.6431 289.445 50.6353 289.609H45.8619ZM52.8988 294H54.1644L56.4456 290.797L58.7347 294H60.0003L57.1253 290.078L59.9925 286.195H58.7269L56.4456 289.367L54.1566 286.195H52.8988L55.7659 290.078L52.8988 294ZM62.0372 297.234H63.0997V292.281C63.5919 293.422 64.6466 294.117 65.8887 294.117C67.9981 294.117 69.2091 292.32 69.2091 290.102C69.2091 287.891 67.9981 286.07 65.9044 286.07C64.67 286.07 63.5919 286.766 63.0997 287.922V286.195H62.0372V297.234ZM65.6622 293.18C64.0372 293.18 63.0137 291.852 63.0137 290.102C63.0137 288.352 64.0372 287.031 65.6622 287.031C67.295 287.031 68.17 288.367 68.17 290.102C68.17 291.828 67.295 293.18 65.6622 293.18ZM74.7147 294.117C76.9412 294.117 78.5116 292.32 78.5116 290.078C78.5116 287.852 76.9412 286.07 74.7147 286.07C72.4959 286.07 70.9491 287.852 70.9491 290.078C70.9491 292.328 72.4959 294.117 74.7147 294.117ZM74.7147 293.219C73.0272 293.219 72.0194 291.812 72.0194 290.078C72.0194 288.352 73.0272 286.977 74.7147 286.977C76.4178 286.977 77.4412 288.359 77.4412 290.078C77.4412 291.805 76.4178 293.219 74.7147 293.219ZM80.8766 294H81.8766V290.016C81.8766 287.898 83.1109 287.078 84.15 287.078C84.4625 287.078 84.7672 287.156 85.0406 287.305L85.5094 286.445C85.1734 286.195 84.7281 286.07 84.2906 286.07C83.3609 286.07 82.275 286.625 81.8844 287.828V286.195H80.8766V294ZM90.0853 294.117C90.5228 294.117 90.9447 294.039 91.1869 293.961L91.1712 293.016C90.9525 293.102 90.6009 293.203 90.2572 293.203C89.4291 293.203 88.9916 292.75 88.9916 291.648V287.07H91.1791V286.195H88.9916V283.18L87.9759 283.938V286.195H86.6634V287.07H87.9603V291.812C87.9603 293.305 88.7025 294.117 90.0853 294.117ZM99.0653 294H100.042L102.175 287.617L104.307 294H105.284L107.565 286.195H106.456L104.737 292.438L102.651 286.195H101.706L99.6122 292.445L97.9012 286.195H96.7919L99.0653 294ZM109.594 284.562H110.673V282.961H109.594V284.562ZM109.618 294H110.641V286.195H109.618V294ZM116.061 294.117C116.498 294.117 116.92 294.039 117.162 293.961L117.147 293.016C116.928 293.102 116.577 293.203 116.233 293.203C115.405 293.203 114.967 292.75 114.967 291.648V287.07H117.155V286.195H114.967V283.18L113.952 283.938V286.195H112.639V287.07H113.936V291.812C113.936 293.305 114.678 294.117 116.061 294.117ZM119.238 294H120.285V289.547C120.285 288.055 121.09 287.016 122.481 287.016C123.848 287.016 124.395 287.906 124.395 289.297V294H125.442V289.055C125.41 287.367 124.535 286.07 122.715 286.07C121.684 286.07 120.777 286.57 120.285 287.523V282.961H119.238V294ZM132.609 294H133.609V290.016C133.609 287.898 134.843 287.078 135.882 287.078C136.195 287.078 136.5 287.156 136.773 287.305L137.242 286.445C136.906 286.195 136.461 286.07 136.023 286.07C135.093 286.07 134.007 286.625 133.617 287.828V286.195H132.609V294ZM141.583 294.117C143.81 294.117 145.38 292.32 145.38 290.078C145.38 287.852 143.81 286.07 141.583 286.07C139.365 286.07 137.818 287.852 137.818 290.078C137.818 292.328 139.365 294.117 141.583 294.117ZM141.583 293.219C139.896 293.219 138.888 291.812 138.888 290.078C138.888 288.352 139.896 286.977 141.583 286.977C143.287 286.977 144.31 288.359 144.31 290.078C144.31 291.805 143.287 293.219 141.583 293.219ZM150.191 294.117C151.222 294.117 152.152 293.625 152.636 292.672V294H153.659V286.195H152.636V290.805C152.636 292.328 151.777 293.156 150.464 293.156C149.183 293.156 148.511 292.32 148.511 290.898V286.195H147.487V291.133C147.519 292.82 148.362 294.117 150.191 294.117ZM156.704 294H157.735V289.383C157.735 287.867 158.587 287.031 159.907 287.031C161.188 287.031 161.86 287.875 161.86 289.297V294H162.892V289.055C162.86 287.367 162.001 286.07 160.181 286.07C159.149 286.07 158.227 286.57 157.735 287.523V286.195H156.704V294ZM168.569 294.117C169.819 294.117 170.905 293.406 171.389 292.227L171.428 294H172.397V282.961H171.35V287.914C170.866 286.766 169.78 286.07 168.553 286.07C166.452 286.07 165.085 287.883 165.085 290.086C165.085 292.312 166.452 294.117 168.569 294.117ZM168.796 293.18C167.171 293.18 166.132 291.828 166.132 290.086C166.132 288.359 167.171 287.016 168.796 287.016C170.421 287.016 171.428 288.344 171.428 290.086C171.428 291.852 170.421 293.18 168.796 293.18ZM178.457 294.117C179.715 294.117 180.598 293.734 181.473 292.82L180.754 292.188C180.051 292.922 179.403 293.18 178.465 293.18C176.895 293.18 175.989 292.117 175.911 290.375H181.661C181.692 290.258 181.715 289.945 181.715 289.68C181.715 288.133 180.879 286.07 178.332 286.07C176.059 286.07 174.817 287.93 174.817 290.133C174.817 292.375 176.106 294.117 178.457 294.117ZM175.911 289.609C176.043 288.047 176.903 286.953 178.325 286.953C179.872 286.953 180.575 288.062 180.668 289.117C180.692 289.273 180.692 289.445 180.684 289.609H175.911ZM186.924 294.117C188.174 294.117 189.26 293.406 189.744 292.227L189.783 294H190.752V282.961H189.705V287.914C189.221 286.766 188.135 286.07 186.908 286.07C184.807 286.07 183.44 287.883 183.44 290.086C183.44 292.312 184.807 294.117 186.924 294.117ZM187.151 293.18C185.526 293.18 184.487 291.828 184.487 290.086C184.487 288.359 185.526 287.016 187.151 287.016C188.776 287.016 189.783 288.344 189.783 290.086C189.783 291.852 188.776 293.18 187.151 293.18ZM201.146 294.117C202.404 294.117 203.287 293.734 204.162 292.82L203.443 292.188C202.74 292.922 202.092 293.18 201.154 293.18C199.584 293.18 198.677 292.117 198.599 290.375H204.349C204.381 290.258 204.404 289.945 204.404 289.68C204.404 288.133 203.568 286.07 201.021 286.07C198.748 286.07 197.506 287.93 197.506 290.133C197.506 292.375 198.795 294.117 201.146 294.117ZM198.599 289.609C198.732 288.047 199.592 286.953 201.013 286.953C202.56 286.953 203.263 288.062 203.357 289.117C203.381 289.273 203.381 289.445 203.373 289.609H198.599ZM209.613 294.117C210.863 294.117 211.949 293.406 212.433 292.227L212.472 294H213.441V282.961H212.394V287.914C211.91 286.766 210.824 286.07 209.597 286.07C207.496 286.07 206.128 287.883 206.128 290.086C206.128 292.312 207.496 294.117 209.613 294.117ZM209.839 293.18C208.214 293.18 207.175 291.828 207.175 290.086C207.175 288.359 208.214 287.016 209.839 287.016C211.464 287.016 212.472 288.344 212.472 290.086C212.472 291.852 211.464 293.18 209.839 293.18ZM219.392 293.062C218.001 292.859 216.923 292.734 216.923 291.875C216.923 291.508 217.118 291.242 217.54 291.055C218.001 291.312 218.564 291.461 219.181 291.461C220.829 291.461 222.111 290.414 222.111 288.812C222.111 288.25 221.954 287.75 221.689 287.336L222.736 286.453L222.189 285.781L221.126 286.719C220.611 286.305 219.923 286.07 219.158 286.07C217.493 286.07 216.197 287.18 216.197 288.758C216.197 289.461 216.447 290.07 216.876 290.531C216.322 290.914 216.033 291.383 216.033 292.039C216.033 292.828 216.462 293.266 217.056 293.531L215.876 294.609C215.861 294.711 215.853 294.812 215.853 294.953C215.853 296.492 217.15 297.586 219.368 297.586C221.267 297.586 222.626 296.742 222.626 295.219C222.626 293.547 220.97 293.305 219.392 293.062ZM219.189 286.891C220.353 286.891 221.087 287.664 221.087 288.773C221.087 289.859 220.361 290.609 219.181 290.609C218.001 290.609 217.267 289.852 217.267 288.766C217.267 287.672 218.033 286.891 219.189 286.891ZM219.361 296.766C217.947 296.766 216.915 296.172 216.806 295.078C216.798 295 216.79 294.922 216.79 294.828L217.697 293.742C218.134 293.844 218.603 293.906 219.04 293.969C220.525 294.18 221.642 294.328 221.642 295.32C221.642 296.234 220.743 296.766 219.361 296.766ZM227.866 294.117C229.124 294.117 230.007 293.734 230.882 292.82L230.163 292.188C229.46 292.922 228.812 293.18 227.874 293.18C226.304 293.18 225.397 292.117 225.319 290.375H231.069C231.101 290.258 231.124 289.945 231.124 289.68C231.124 288.133 230.288 286.07 227.741 286.07C225.468 286.07 224.226 287.93 224.226 290.133C224.226 292.375 225.515 294.117 227.866 294.117ZM225.319 289.609C225.452 288.047 226.312 286.953 227.733 286.953C229.28 286.953 229.983 288.062 230.077 289.117C230.101 289.273 230.101 289.445 230.093 289.609H225.319ZM235.809 294.117C237.333 294.117 238.583 293.328 238.583 291.766C238.583 288.773 234.028 290.023 234.028 288.086C234.028 287.391 234.669 286.906 235.677 286.906C236.63 286.906 237.278 287.43 237.653 288.133L238.45 287.703C237.903 286.672 236.942 286.07 235.708 286.07C234.216 286.07 233.036 286.828 233.036 288.219C233.036 291.039 237.567 289.695 237.567 291.812C237.567 292.633 236.942 293.25 235.762 293.25C234.552 293.25 233.778 292.531 233.481 291.695L232.645 292.062C233.044 293.25 234.27 294.117 235.809 294.117ZM244.446 289.539H248.664V288.734H244.446V289.539ZM255.144 284.562H256.222V282.961H255.144V284.562ZM255.168 294H256.191V286.195H255.168V294ZM261.611 294.117C262.048 294.117 262.47 294.039 262.712 293.961L262.697 293.016C262.478 293.102 262.127 293.203 261.783 293.203C260.955 293.203 260.517 292.75 260.517 291.648V287.07H262.705V286.195H260.517V283.18L259.502 283.938V286.195H258.189V287.07H259.486V291.812C259.486 293.305 260.228 294.117 261.611 294.117ZM1.40625 322H2.4375V317.375C2.4375 316.016 3.25781 315.039 4.5625 315.039C5.84375 315.039 6.39844 315.898 6.39844 317.281V322H7.42969V317.375C7.42969 316.016 8.25 315.039 9.54688 315.039C10.875 315.039 11.3906 315.945 11.3906 317.562V322H12.4219V317.438C12.4219 315.438 11.6094 314.07 9.73438 314.07C8.57812 314.07 7.61719 314.656 7.15625 315.797C6.80469 314.602 5.89844 314.07 4.75 314.07C3.70312 314.07 2.82812 314.555 2.39844 315.555V314.195H1.39844L1.40625 322ZM15.24 312.562H16.3181V310.961H15.24V312.562ZM15.2634 322H16.2869V314.195H15.2634V322ZM22.23 321.062C20.8394 320.859 19.7612 320.734 19.7612 319.875C19.7612 319.508 19.9566 319.242 20.3784 319.055C20.8394 319.312 21.4019 319.461 22.0191 319.461C23.6675 319.461 24.9487 318.414 24.9487 316.812C24.9487 316.25 24.7925 315.75 24.5269 315.336L25.5737 314.453L25.0269 313.781L23.9644 314.719C23.4487 314.305 22.7612 314.07 21.9956 314.07C20.3316 314.07 19.0347 315.18 19.0347 316.758C19.0347 317.461 19.2847 318.07 19.7144 318.531C19.1597 318.914 18.8706 319.383 18.8706 320.039C18.8706 320.828 19.3003 321.266 19.8941 321.531L18.7144 322.609C18.6987 322.711 18.6909 322.812 18.6909 322.953C18.6909 324.492 19.9878 325.586 22.2066 325.586C24.105 325.586 25.4644 324.742 25.4644 323.219C25.4644 321.547 23.8081 321.305 22.23 321.062ZM22.0269 314.891C23.1909 314.891 23.9253 315.664 23.9253 316.773C23.9253 317.859 23.1987 318.609 22.0191 318.609C20.8394 318.609 20.105 317.852 20.105 316.766C20.105 315.672 20.8706 314.891 22.0269 314.891ZM22.1987 324.766C20.7847 324.766 19.7534 324.172 19.6441 323.078C19.6362 323 19.6284 322.922 19.6284 322.828L20.5347 321.742C20.9722 321.844 21.4409 321.906 21.8784 321.969C23.3628 322.18 24.48 322.328 24.48 323.32C24.48 324.234 23.5816 324.766 22.1987 324.766ZM27.7122 322H28.7591V317.547C28.7591 316.055 29.5637 315.016 30.9544 315.016C32.3216 315.016 32.8684 315.906 32.8684 317.297V322H33.9153V317.055C33.8841 315.367 33.0091 314.07 31.1887 314.07C30.1575 314.07 29.2512 314.57 28.7591 315.523V310.961H27.7122V322ZM39.1241 322.117C39.5616 322.117 39.9834 322.039 40.2256 321.961L40.21 321.016C39.9912 321.102 39.6397 321.203 39.2959 321.203C38.4678 321.203 38.0303 320.75 38.0303 319.648V315.07H40.2178V314.195H38.0303V311.18L37.0147 311.938V314.195H35.7022V315.07H36.9991V319.812C36.9991 321.305 37.7412 322.117 39.1241 322.117ZM46.8072 322H47.8384V317.383C47.8384 315.867 48.69 315.031 50.0103 315.031C51.2916 315.031 51.9634 315.875 51.9634 317.297V322H52.9947V317.055C52.9634 315.367 52.1041 314.07 50.2837 314.07C49.2525 314.07 48.3306 314.57 47.8384 315.523V314.195H46.8072V322ZM58.9066 322.117C61.1331 322.117 62.7034 320.32 62.7034 318.078C62.7034 315.852 61.1331 314.07 58.9066 314.07C56.6878 314.07 55.1409 315.852 55.1409 318.078C55.1409 320.328 56.6878 322.117 58.9066 322.117ZM58.9066 321.219C57.2191 321.219 56.2113 319.812 56.2113 318.078C56.2113 316.352 57.2191 314.977 58.9066 314.977C60.6097 314.977 61.6331 316.359 61.6331 318.078C61.6331 319.805 60.6097 321.219 58.9066 321.219ZM67.3809 322.117C67.8184 322.117 68.2403 322.039 68.4825 321.961L68.4669 321.016C68.2481 321.102 67.8966 321.203 67.5528 321.203C66.7247 321.203 66.2872 320.75 66.2872 319.648V315.07H68.4747V314.195H66.2872V311.18L65.2716 311.938V314.195H63.9591V315.07H65.2559V319.812C65.2559 321.305 65.9981 322.117 67.3809 322.117ZM75.0719 322H76.1031V317.375C76.1031 316.016 76.9234 315.039 78.2281 315.039C79.5094 315.039 80.0641 315.898 80.0641 317.281V322H81.0953V317.375C81.0953 316.016 81.9156 315.039 83.2125 315.039C84.5406 315.039 85.0562 315.945 85.0562 317.562V322H86.0875V317.438C86.0875 315.438 85.275 314.07 83.4 314.07C82.2437 314.07 81.2828 314.656 80.8219 315.797C80.4703 314.602 79.5641 314.07 78.4156 314.07C77.3687 314.07 76.4937 314.555 76.0641 315.555V314.195H75.0641L75.0719 322ZM91.5619 314.07C90.1791 314.07 89.2728 314.633 88.515 315.68L89.3041 316.258C89.8431 315.453 90.5306 314.984 91.5697 314.984C93.1322 314.984 93.7337 315.766 93.7337 317.414V317.508H91.4837C89.4681 317.508 88.2103 318.148 88.2103 319.734C88.2103 321.234 89.3197 322.117 90.9056 322.117C92.0697 322.117 93.1556 321.547 93.7416 320.414L93.8119 322H94.6712V317.234C94.6712 315.273 93.5619 314.07 91.5619 314.07ZM91.1009 321.234C89.9291 321.234 89.265 320.656 89.265 319.766C89.265 318.828 89.9994 318.273 91.5384 318.273H93.7337V319.07C93.3744 320.352 92.4603 321.234 91.1009 321.234ZM99.8409 322.117C100.278 322.117 100.7 322.039 100.942 321.961L100.927 321.016C100.708 321.102 100.357 321.203 100.013 321.203C99.1847 321.203 98.7472 320.75 98.7472 319.648V315.07H100.935V314.195H98.7472V311.18L97.7316 311.938V314.195H96.4191V315.07H97.7159V319.812C97.7159 321.305 98.4581 322.117 99.8409 322.117ZM106.003 322.117C107.44 322.117 108.573 321.328 109.05 319.969L108.104 319.609C107.792 320.578 107.011 321.18 105.995 321.18C104.307 321.18 103.534 319.719 103.534 318.109C103.534 316.523 104.307 315.016 105.987 315.016C106.987 315.016 107.776 315.625 108.143 316.602L109.128 316.219C108.55 314.812 107.409 314.07 105.987 314.07C103.643 314.07 102.487 316.062 102.487 318.109C102.487 320.32 103.761 322.117 106.003 322.117ZM111.321 322H112.368V317.547C112.368 316.055 113.173 315.016 114.563 315.016C115.93 315.016 116.477 315.906 116.477 317.297V322H117.524V317.055C117.493 315.367 116.618 314.07 114.798 314.07C113.766 314.07 112.86 314.57 112.368 315.523V310.961H111.321V322ZM127.067 322.117C127.504 322.117 127.926 322.039 128.168 321.961L128.152 321.016C127.934 321.102 127.582 321.203 127.238 321.203C126.41 321.203 125.973 320.75 125.973 319.648V315.07H128.16V314.195H125.973V311.18L124.957 311.938V314.195H123.645V315.07H124.942V319.812C124.942 321.305 125.684 322.117 127.067 322.117ZM130.244 322H131.291V317.547C131.291 316.055 132.096 315.016 133.486 315.016C134.853 315.016 135.4 315.906 135.4 317.297V322H136.447V317.055C136.416 315.367 135.541 314.07 133.721 314.07C132.689 314.07 131.783 314.57 131.291 315.523V310.961H130.244V322ZM142.289 322.117C143.547 322.117 144.429 321.734 145.304 320.82L144.586 320.188C143.882 320.922 143.234 321.18 142.297 321.18C140.726 321.18 139.82 320.117 139.742 318.375H145.492C145.523 318.258 145.547 317.945 145.547 317.68C145.547 316.133 144.711 314.07 142.164 314.07C139.89 314.07 138.648 315.93 138.648 318.133C138.648 320.375 139.937 322.117 142.289 322.117ZM139.742 317.609C139.875 316.047 140.734 314.953 142.156 314.953C143.703 314.953 144.406 316.062 144.5 317.117C144.523 317.273 144.523 317.445 144.515 317.609H139.742ZM154.878 314.07C153.495 314.07 152.589 314.633 151.831 315.68L152.62 316.258C153.159 315.453 153.847 314.984 154.886 314.984C156.448 314.984 157.05 315.766 157.05 317.414V317.508H154.8C152.784 317.508 151.527 318.148 151.527 319.734C151.527 321.234 152.636 322.117 154.222 322.117C155.386 322.117 156.472 321.547 157.058 320.414L157.128 322H157.987V317.234C157.987 315.273 156.878 314.07 154.878 314.07ZM154.417 321.234C153.245 321.234 152.581 320.656 152.581 319.766C152.581 318.828 153.316 318.273 154.855 318.273H157.05V319.07C156.691 320.352 155.777 321.234 154.417 321.234ZM160.829 325.234H161.892V320.281C162.384 321.422 163.438 322.117 164.681 322.117C166.79 322.117 168.001 320.32 168.001 318.102C168.001 315.891 166.79 314.07 164.696 314.07C163.462 314.07 162.384 314.766 161.892 315.922V314.195H160.829V325.234ZM164.454 321.18C162.829 321.18 161.806 319.852 161.806 318.102C161.806 316.352 162.829 315.031 164.454 315.031C166.087 315.031 166.962 316.367 166.962 318.102C166.962 319.828 166.087 321.18 164.454 321.18ZM170.444 325.234H171.507V320.281C171.999 321.422 173.053 322.117 174.296 322.117C176.405 322.117 177.616 320.32 177.616 318.102C177.616 315.891 176.405 314.07 174.311 314.07C173.077 314.07 171.999 314.766 171.507 315.922V314.195H170.444V325.234ZM174.069 321.18C172.444 321.18 171.421 319.852 171.421 318.102C171.421 316.352 172.444 315.031 174.069 315.031C175.702 315.031 176.577 316.367 176.577 318.102C176.577 319.828 175.702 321.18 174.069 321.18ZM181.442 322.117C181.778 322.117 182.2 322.062 182.543 321.992L182.528 321.109C182.293 321.156 182.059 321.188 181.895 321.188C181.114 321.188 181.036 320.688 181.036 320.086V310.961H180.004V320.352C180.004 321.453 180.332 322.117 181.442 322.117ZM184.557 312.562H185.635V310.961H184.557V312.562ZM184.58 322H185.604V314.195H184.58V322ZM191.656 322.117C192.914 322.117 193.797 321.734 194.672 320.82L193.953 320.188C193.25 320.922 192.602 321.18 191.664 321.18C190.094 321.18 189.188 320.117 189.109 318.375H194.859C194.891 318.258 194.914 317.945 194.914 317.68C194.914 316.133 194.078 314.07 191.531 314.07C189.258 314.07 188.016 315.93 188.016 318.133C188.016 320.375 189.305 322.117 191.656 322.117ZM189.109 317.609C189.242 316.047 190.102 314.953 191.523 314.953C193.07 314.953 193.773 316.062 193.867 317.117C193.891 317.273 193.891 317.445 193.883 317.609H189.109ZM200.123 322.117C201.373 322.117 202.459 321.406 202.943 320.227L202.982 322H203.951V310.961H202.904V315.914C202.42 314.766 201.334 314.07 200.107 314.07C198.006 314.07 196.638 315.883 196.638 318.086C196.638 320.312 198.006 322.117 200.123 322.117ZM200.349 321.18C198.724 321.18 197.685 319.828 197.685 318.086C197.685 316.359 198.724 315.016 200.349 315.016C201.974 315.016 202.982 316.344 202.982 318.086C202.982 319.852 201.974 321.18 200.349 321.18ZM211.345 322H212.376V317.375C212.376 316.016 213.197 315.039 214.501 315.039C215.783 315.039 216.337 315.898 216.337 317.281V322H217.368V317.375C217.368 316.016 218.189 315.039 219.486 315.039C220.814 315.039 221.329 315.945 221.329 317.562V322H222.361V317.438C222.361 315.438 221.548 314.07 219.673 314.07C218.517 314.07 217.556 314.656 217.095 315.797C216.743 314.602 215.837 314.07 214.689 314.07C213.642 314.07 212.767 314.555 212.337 315.555V314.195H211.337L211.345 322ZM227.835 314.07C226.452 314.07 225.546 314.633 224.788 315.68L225.577 316.258C226.116 315.453 226.804 314.984 227.843 314.984C229.405 314.984 230.007 315.766 230.007 317.414V317.508H227.757C225.741 317.508 224.483 318.148 224.483 319.734C224.483 321.234 225.593 322.117 227.179 322.117C228.343 322.117 229.429 321.547 230.015 320.414L230.085 322H230.944V317.234C230.944 315.273 229.835 314.07 227.835 314.07ZM227.374 321.234C226.202 321.234 225.538 320.656 225.538 319.766C225.538 318.828 226.272 318.273 227.812 318.273H230.007V319.07C229.647 320.352 228.733 321.234 227.374 321.234ZM236.091 322.117C237.614 322.117 238.864 321.328 238.864 319.766C238.864 316.773 234.309 318.023 234.309 316.086C234.309 315.391 234.95 314.906 235.958 314.906C236.911 314.906 237.559 315.43 237.934 316.133L238.731 315.703C238.184 314.672 237.223 314.07 235.989 314.07C234.497 314.07 233.317 314.828 233.317 316.219C233.317 319.039 237.848 317.695 237.848 319.812C237.848 320.633 237.223 321.25 236.044 321.25C234.833 321.25 234.059 320.531 233.762 319.695L232.927 320.062C233.325 321.25 234.552 322.117 236.091 322.117ZM241.276 322H242.307V319.688L244.143 317.758L246.909 322H248.135L244.846 317.109L247.674 314.195H246.323L242.307 318.438V310.961H241.276V322Z" fill="#363641"/>
<path fill-rule="evenodd" clip-rule="evenodd" d="M0 3C0 1.34315 1.34315 0 3 0H279C280.657 0 282 1.34315 282 3V234C282 235.657 280.657 237 279 237H3C1.34315 237 0 235.657 0 234V3Z" fill="white"/>
<path d="M0.5 3C0.5 1.61929 1.61929 0.5 3 0.5H279C280.381 0.5 281.5 1.61929 281.5 3V234C281.5 235.381 280.381 236.5 279 236.5H3C1.61929 236.5 0.5 235.381 0.5 234V3Z" stroke="#D1D1D1" stroke-opacity="0.5"/>
<mask id="mask0" mask-type="alpha" maskUnits="userSpaceOnUse" x="0" y="0" width="282" height="237">
<path fill-rule="evenodd" clip-rule="evenodd" d="M0 3C0 1.34315 1.34315 0 3 0H279C280.657 0 282 1.34315 282 3V234C282 235.657 280.657 237 279 237H3C1.34315 237 0 235.657 0 234V3Z" fill="white"/>
<path d="M0.5 3C0.5 1.61929 1.61929 0.5 3 0.5H279C280.381 0.5 281.5 1.61929 281.5 3V234C281.5 235.381 280.381 236.5 279 236.5H3C1.61929 236.5 0.5 235.381 0.5 234V3Z" stroke="white"/>
</mask>
<g mask="url(#mask0)">
<path fill-rule="evenodd" clip-rule="evenodd" d="M0 237H282V227H0V237Z" fill="#FB7372"/>
</g>
<rect x="101" y="78" width="80" height="80" rx="30" fill="url(#paint0_linear)"/>
<rect x="101" y="78" width="80" height="80" rx="23" stroke="#979797" stroke-dasharray="4 4"/>
<g filter="url(#filter0_d)">
<path fill-rule="evenodd" clip-rule="evenodd" d="M161.382 131.253L161.382 131.253C161.364 131.253 161.349 131.256 161.337 131.261C161.331 131.264 161.325 131.268 161.319 131.273C160.665 132.321 159.405 133.281 158.095 134.277C157.148 134.999 156.173 135.741 155.423 136.529C154.452 137.552 154.413 137.854 154.251 139.107L154.232 139.258C154.165 139.773 153.915 140.223 153.554 140.544C153.192 140.867 152.718 141.061 152.206 141.061C152.198 141.061 152.168 141.06 152.116 141.058C151.568 141.034 151.079 140.792 150.726 140.419C150.375 140.046 150.16 139.543 150.16 138.992C150.16 138.983 150.161 138.953 150.164 138.899C150.305 135.675 150.695 135.158 152.696 132.609L144.973 132.628V132.63C144.952 132.63 144.931 132.629 144.91 132.626C144.253 132.594 143.798 132.362 143.488 132.049C143.029 131.587 142.913 130.968 142.913 130.556C142.913 130.539 142.913 130.523 142.915 130.506C142.923 130.128 143.001 129.679 143.28 129.277C143.346 129.183 143.421 129.093 143.508 129.007C141.553 128.678 141.552 127.204 141.552 126.856C141.552 126.211 141.797 125.672 142.2 125.279C142.52 124.968 142.936 124.755 143.406 124.659C143.353 124.607 143.303 124.553 143.255 124.496C142.941 124.122 142.747 123.642 142.747 123.149C142.747 122.591 142.969 122.062 143.328 121.659C143.687 121.257 144.186 120.979 144.738 120.923L144.843 120.912C144.736 120.79 144.645 120.656 144.572 120.514C144.417 120.215 144.335 119.875 144.343 119.524C144.352 119.071 144.498 118.645 144.747 118.295C144.997 117.944 145.351 117.668 145.773 117.515L145.977 117.442L145.976 117.44C146.045 117.415 146.117 117.407 146.186 117.413C148.169 117.41 149.653 117.367 150.838 117.332C155.023 117.21 155.558 117.194 161.511 119.362C161.564 119.381 161.616 119.395 161.667 119.404C161.719 119.414 161.772 119.419 161.825 119.419L164.2 119.434C164.464 119.435 164.701 119.544 164.872 119.718C165.043 119.893 165.148 120.132 165.148 120.393V130.291C165.148 130.554 165.042 130.794 164.871 130.967C164.697 131.144 164.458 131.253 164.195 131.253H161.382Z" fill="#FFFFFE"/>
</g>
<g filter="url(#filter1_d)">
<path fill-rule="evenodd" clip-rule="evenodd" d="M120.481 107.225L120.481 107.225C120.499 107.225 120.514 107.222 120.526 107.217C120.532 107.214 120.538 107.21 120.544 107.205C121.197 106.157 122.458 105.198 123.767 104.201C124.715 103.479 125.69 102.737 126.439 101.949C127.411 100.926 127.45 100.625 127.612 99.3706L127.631 99.2202C127.698 98.7052 127.947 98.2551 128.308 97.9337C128.671 97.6106 129.145 97.417 129.657 97.417C129.665 97.417 129.695 97.4181 129.747 97.4204C130.294 97.4445 130.784 97.6856 131.137 98.0595C131.488 98.4317 131.703 98.9353 131.703 99.4863C131.703 99.4952 131.701 99.5255 131.699 99.5789C131.558 102.803 131.168 103.32 129.167 105.869L136.89 105.85V105.848C136.911 105.848 136.932 105.849 136.953 105.852C137.61 105.884 138.064 106.116 138.375 106.429C138.833 106.891 138.95 107.51 138.95 107.922C138.95 107.939 138.949 107.956 138.948 107.972C138.94 108.35 138.861 108.799 138.582 109.201C138.517 109.295 138.442 109.385 138.355 109.471C140.31 109.8 140.31 111.274 140.31 111.622C140.31 112.268 140.066 112.806 139.662 113.199C139.343 113.51 138.926 113.723 138.456 113.819C138.51 113.871 138.56 113.926 138.608 113.982C138.921 114.356 139.116 114.836 139.116 115.33C139.116 115.887 138.893 116.416 138.535 116.819C138.176 117.221 137.677 117.499 137.125 117.555L137.02 117.566C137.126 117.688 137.217 117.822 137.291 117.965C137.446 118.263 137.527 118.603 137.52 118.954C137.511 119.407 137.364 119.833 137.116 120.183C136.866 120.534 136.512 120.811 136.089 120.963L135.886 121.036L135.887 121.038C135.817 121.063 135.746 121.072 135.677 121.065C133.694 121.068 132.21 121.111 131.025 121.146C126.84 121.268 126.305 121.284 120.351 119.116C120.299 119.097 120.247 119.083 120.196 119.074C120.143 119.064 120.09 119.059 120.037 119.059L117.663 119.044C117.399 119.043 117.161 118.934 116.991 118.76C116.82 118.585 116.714 118.347 116.714 118.085V108.187C116.714 107.924 116.82 107.685 116.992 107.511C117.165 107.334 117.404 107.225 117.667 107.225H120.481Z" fill="#FFFFFE"/>
</g>
<defs>
<filter id="filter0_d" x="135.552" y="111.288" width="35.5961" height="35.773" filterUnits="userSpaceOnUse" color-interpolation-filters="sRGB">
<feFlood flood-opacity="0" result="BackgroundImageFix"/>
<feColorMatrix in="SourceAlpha" type="matrix" values="0 0 0 0 0 0 0 0 0 0 0 0 0 0 0 0 0 0 127 0"/>
<feOffset/>
<feGaussianBlur stdDeviation="3"/>
<feColorMatrix type="matrix" values="0 0 0 0 1 0 0 0 0 1 0 0 0 0 1 0 0 0 0.5 0"/>
<feBlend mode="normal" in2="BackgroundImageFix" result="effect1_dropShadow"/>
<feBlend mode="normal" in="SourceGraphic" in2="effect1_dropShadow" result="shape"/>
</filter>
<filter id="filter1_d" x="110.714" y="91.417" width="35.5961" height="35.773" filterUnits="userSpaceOnUse" color-interpolation-filters="sRGB">
<feFlood flood-opacity="0" result="BackgroundImageFix"/>
<feColorMatrix in="SourceAlpha" type="matrix" values="0 0 0 0 0 0 0 0 0 0 0 0 0 0 0 0 0 0 127 0"/>
<feOffset/>
<feGaussianBlur stdDeviation="3"/>
<feColorMatrix type="matrix" values="0 0 0 0 1 0 0 0 0 1 0 0 0 0 1 0 0 0 0.5 0"/>
<feBlend mode="normal" in2="BackgroundImageFix" result="effect1_dropShadow"/>
<feBlend mode="normal" in="SourceGraphic" in2="effect1_dropShadow" result="shape"/>
</filter>
<linearGradient id="paint0_linear" x1="101" y1="64.6597" x2="74.3194" y2="144.66" gradientUnits="userSpaceOnUse">
<stop stop-color="#A8ED2F"/>
<stop offset="1" stop-color="#68DFB1"/>
</linearGradient>
</defs>
</svg>
