<svg width="310" height="461" viewBox="0 0 282 461" fill="none" xmlns="http://www.w3.org/2000/svg">
<path d="M1.64062 387H4.4165C7.81494 387 9.71191 385.14 9.71191 381.902C9.71191 378.533 7.85889 376.651 4.43115 376.651H1.64062V387ZM2.64404 386.07V377.581H4.4165C7.31689 377.581 8.7085 378.98 8.7085 381.866C8.7085 384.737 7.08252 386.07 4.32861 386.07H2.64404ZM14.8901 387.11C16.9775 387.11 18.4497 385.425 18.4497 383.323C18.4497 381.236 16.9775 379.566 14.8901 379.566C12.8101 379.566 11.3599 381.236 11.3599 383.323C11.3599 385.433 12.8101 387.11 14.8901 387.11ZM14.8901 386.268C13.3081 386.268 12.3633 384.949 12.3633 383.323C12.3633 381.705 13.3081 380.416 14.8901 380.416C16.4868 380.416 17.4463 381.712 17.4463 383.323C17.4463 384.942 16.4868 386.268 14.8901 386.268ZM20.4419 387H21.4087V382.671C21.4087 381.25 22.207 380.467 23.4448 380.467C24.646 380.467 25.2759 381.258 25.2759 382.591V387H26.2427V382.364C26.2134 380.782 25.4077 379.566 23.7012 379.566C22.7344 379.566 21.8701 380.035 21.4087 380.928V379.683H20.4419V387ZM27.561 380.877H28.2349L30.1978 376.651H29.0918L27.561 380.877ZM34.4604 387.11C34.8706 387.11 35.2661 387.037 35.4932 386.963L35.4785 386.077C35.2734 386.158 34.9438 386.253 34.6216 386.253C33.8452 386.253 33.4351 385.828 33.4351 384.795V380.503H35.4858V379.683H33.4351V376.856L32.4829 377.566V379.683H31.2524V380.503H32.4683V384.949C32.4683 386.348 33.1641 387.11 34.4604 387.11Z" fill="#FB7372"/>
<path d="M1.75 419H4.71094C8.33594 419 10.3594 417.016 10.3594 413.562C10.3594 409.969 8.38281 407.961 4.72656 407.961H1.75V419ZM2.82031 418.008V408.953H4.71094C7.80469 408.953 9.28906 410.445 9.28906 413.523C9.28906 416.586 7.55469 418.008 4.61719 418.008H2.82031ZM16.1228 419.117C18.3494 419.117 19.9197 417.32 19.9197 415.078C19.9197 412.852 18.3494 411.07 16.1228 411.07C13.9041 411.07 12.3572 412.852 12.3572 415.078C12.3572 417.328 13.9041 419.117 16.1228 419.117ZM16.1228 418.219C14.4353 418.219 13.4275 416.812 13.4275 415.078C13.4275 413.352 14.4353 411.977 16.1228 411.977C17.8259 411.977 18.8494 413.359 18.8494 415.078C18.8494 416.805 17.8259 418.219 16.1228 418.219ZM22.2847 419H23.3159V414.383C23.3159 412.867 24.1675 412.031 25.4878 412.031C26.7691 412.031 27.4409 412.875 27.4409 414.297V419H28.4722V414.055C28.4409 412.367 27.5816 411.07 25.7612 411.07C24.73 411.07 23.8081 411.57 23.3159 412.523V411.195H22.2847V419ZM30.1184 412.469H30.8372L32.9309 407.961H31.7512L30.1184 412.469ZM37.7178 419.117C38.1553 419.117 38.5772 419.039 38.8194 418.961L38.8037 418.016C38.585 418.102 38.2334 418.203 37.8897 418.203C37.0616 418.203 36.6241 417.75 36.6241 416.648V412.07H38.8116V411.195H36.6241V408.18L35.6084 408.938V411.195H34.2959V412.07H35.5928V416.812C35.5928 418.305 36.335 419.117 37.7178 419.117ZM47.9087 419.117C48.94 419.117 49.8697 418.625 50.3541 417.672V419H51.3775V411.195H50.3541V415.805C50.3541 417.328 49.4947 418.156 48.1822 418.156C46.9009 418.156 46.2291 417.32 46.2291 415.898V411.195H45.2056V416.133C45.2369 417.82 46.0806 419.117 47.9087 419.117ZM56.7425 419.117C58.2659 419.117 59.5159 418.328 59.5159 416.766C59.5159 413.773 54.9613 415.023 54.9613 413.086C54.9613 412.391 55.6019 411.906 56.6097 411.906C57.5628 411.906 58.2113 412.43 58.5863 413.133L59.3831 412.703C58.8363 411.672 57.8753 411.07 56.6409 411.07C55.1488 411.07 53.9691 411.828 53.9691 413.219C53.9691 416.039 58.5003 414.695 58.5003 416.812C58.5003 417.633 57.8753 418.25 56.6956 418.25C55.4847 418.25 54.7113 417.531 54.4144 416.695L53.5784 417.062C53.9769 418.25 55.2034 419.117 56.7425 419.117ZM64.8575 419.117C66.1153 419.117 66.9981 418.734 67.8731 417.82L67.1544 417.188C66.4512 417.922 65.8028 418.18 64.8653 418.18C63.295 418.18 62.3887 417.117 62.3106 415.375H68.0606C68.0919 415.258 68.1153 414.945 68.1153 414.68C68.1153 413.133 67.2794 411.07 64.7325 411.07C62.4591 411.07 61.2169 412.93 61.2169 415.133C61.2169 417.375 62.5059 419.117 64.8575 419.117ZM62.3106 414.609C62.4434 413.047 63.3028 411.953 64.7247 411.953C66.2716 411.953 66.9747 413.062 67.0684 414.117C67.0919 414.273 67.0919 414.445 67.0841 414.609H62.3106ZM77.1891 419.117C77.6266 419.117 78.0484 419.039 78.2906 418.961L78.275 418.016C78.0562 418.102 77.7047 418.203 77.3609 418.203C76.5328 418.203 76.0953 417.75 76.0953 416.648V412.07H78.2828V411.195H76.0953V408.18L75.0797 408.938V411.195H73.7672V412.07H75.0641V416.812C75.0641 418.305 75.8062 419.117 77.1891 419.117ZM83.5541 419.117C85.7806 419.117 87.3509 417.32 87.3509 415.078C87.3509 412.852 85.7806 411.07 83.5541 411.07C81.3353 411.07 79.7884 412.852 79.7884 415.078C79.7884 417.328 81.3353 419.117 83.5541 419.117ZM83.5541 418.219C81.8666 418.219 80.8587 416.812 80.8587 415.078C80.8587 413.352 81.8666 411.977 83.5541 411.977C85.2572 411.977 86.2806 413.359 86.2806 415.078C86.2806 416.805 85.2572 418.219 83.5541 418.219ZM92.7941 419.117C95.0206 419.117 96.5909 417.32 96.5909 415.078C96.5909 412.852 95.0206 411.07 92.7941 411.07C90.5753 411.07 89.0284 412.852 89.0284 415.078C89.0284 417.328 90.5753 419.117 92.7941 419.117ZM92.7941 418.219C91.1066 418.219 90.0987 416.812 90.0987 415.078C90.0987 413.352 91.1066 411.977 92.7941 411.977C94.4972 411.977 95.5206 413.359 95.5206 415.078C95.5206 416.805 94.4972 418.219 92.7941 418.219ZM105.665 419.117C106.102 419.117 106.524 419.039 106.766 418.961L106.751 418.016C106.532 418.102 106.18 418.203 105.837 418.203C105.008 418.203 104.571 417.75 104.571 416.648V412.07H106.758V411.195H104.571V408.18L103.555 408.938V411.195H102.243V412.07H103.54V416.812C103.54 418.305 104.282 419.117 105.665 419.117ZM111.959 419.117C113.217 419.117 114.1 418.734 114.975 417.82L114.256 417.188C113.553 417.922 112.905 418.18 111.967 418.18C110.397 418.18 109.491 417.117 109.412 415.375H115.162C115.194 415.258 115.217 414.945 115.217 414.68C115.217 413.133 114.381 411.07 111.834 411.07C109.561 411.07 108.319 412.93 108.319 415.133C108.319 417.375 109.608 419.117 111.959 419.117ZM109.412 414.609C109.545 413.047 110.405 411.953 111.827 411.953C113.373 411.953 114.077 413.062 114.17 414.117C114.194 414.273 114.194 414.445 114.186 414.609H109.412ZM120.457 419.117C121.895 419.117 123.027 418.328 123.504 416.969L122.559 416.609C122.246 417.578 121.465 418.18 120.449 418.18C118.762 418.18 117.988 416.719 117.988 415.109C117.988 413.523 118.762 412.016 120.442 412.016C121.442 412.016 122.231 412.625 122.598 413.602L123.582 413.219C123.004 411.812 121.863 411.07 120.442 411.07C118.098 411.07 116.942 413.062 116.942 415.109C116.942 417.32 118.215 419.117 120.457 419.117ZM125.775 419H126.822V414.547C126.822 413.055 127.627 412.016 129.017 412.016C130.385 412.016 130.932 412.906 130.932 414.297V419H131.978V414.055C131.947 412.367 131.072 411.07 129.252 411.07C128.221 411.07 127.314 411.57 126.822 412.523V407.961H125.775V419ZM134.812 419H135.843V414.383C135.843 412.867 136.695 412.031 138.015 412.031C139.297 412.031 139.968 412.875 139.968 414.297V419H141V414.055C140.968 412.367 140.109 411.07 138.289 411.07C137.257 411.07 136.336 411.57 135.843 412.523V411.195H134.812V419ZM143.81 409.562H144.888V407.961H143.81V409.562ZM143.833 419H144.857V411.195H143.833V419ZM150.777 419.117C152.214 419.117 153.347 418.328 153.823 416.969L152.878 416.609C152.566 417.578 151.784 418.18 150.769 418.18C149.081 418.18 148.308 416.719 148.308 415.109C148.308 413.523 149.081 412.016 150.761 412.016C151.761 412.016 152.55 412.625 152.917 413.602L153.902 413.219C153.323 411.812 152.183 411.07 150.761 411.07C148.417 411.07 147.261 413.062 147.261 415.109C147.261 417.32 148.534 419.117 150.777 419.117ZM158.649 411.07C157.267 411.07 156.36 411.633 155.602 412.68L156.392 413.258C156.931 412.453 157.618 411.984 158.657 411.984C160.22 411.984 160.821 412.766 160.821 414.414V414.508H158.571C156.556 414.508 155.298 415.148 155.298 416.734C155.298 418.234 156.407 419.117 157.993 419.117C159.157 419.117 160.243 418.547 160.829 417.414L160.899 419H161.759V414.234C161.759 412.273 160.649 411.07 158.649 411.07ZM158.188 418.234C157.017 418.234 156.352 417.656 156.352 416.766C156.352 415.828 157.087 415.273 158.626 415.273H160.821V416.07C160.462 417.352 159.548 418.234 158.188 418.234ZM165.983 419.117C166.319 419.117 166.741 419.062 167.085 418.992L167.069 418.109C166.835 418.156 166.6 418.188 166.436 418.188C165.655 418.188 165.577 417.688 165.577 417.086V407.961H164.546V417.352C164.546 418.453 164.874 419.117 165.983 419.117ZM175.83 419.117C176.268 419.117 176.69 419.039 176.932 418.961L176.916 418.016C176.697 418.102 176.346 418.203 176.002 418.203C175.174 418.203 174.737 417.75 174.737 416.648V412.07H176.924V411.195H174.737V408.18L173.721 408.938V411.195H172.408V412.07H173.705V416.812C173.705 418.305 174.447 419.117 175.83 419.117ZM182.125 419.117C183.383 419.117 184.266 418.734 185.141 417.82L184.422 417.188C183.719 417.922 183.07 418.18 182.133 418.18C180.562 418.18 179.656 417.117 179.578 415.375H185.328C185.359 415.258 185.383 414.945 185.383 414.68C185.383 413.133 184.547 411.07 182 411.07C179.727 411.07 178.484 412.93 178.484 415.133C178.484 417.375 179.773 419.117 182.125 419.117ZM179.578 414.609C179.711 413.047 180.57 411.953 181.992 411.953C183.539 411.953 184.242 413.062 184.336 414.117C184.359 414.273 184.359 414.445 184.352 414.609H179.578ZM187.748 419H188.748V415.016C188.748 412.898 189.982 412.078 191.021 412.078C191.334 412.078 191.638 412.156 191.912 412.305L192.381 411.445C192.045 411.195 191.599 411.07 191.162 411.07C190.232 411.07 189.146 411.625 188.756 412.828V411.195H187.748V419ZM194.23 419H195.261V414.375C195.261 413.016 196.082 412.039 197.386 412.039C198.667 412.039 199.222 412.898 199.222 414.281V419H200.253V414.375C200.253 413.016 201.074 412.039 202.371 412.039C203.699 412.039 204.214 412.945 204.214 414.562V419H205.246V414.438C205.246 412.438 204.433 411.07 202.558 411.07C201.402 411.07 200.441 411.656 199.98 412.797C199.628 411.602 198.722 411.07 197.574 411.07C196.527 411.07 195.652 411.555 195.222 412.555V411.195H194.222L194.23 419ZM208.064 409.562H209.142V407.961H208.064V409.562ZM208.087 419H209.111V411.195H208.087V419ZM212.155 419H213.187V414.383C213.187 412.867 214.038 412.031 215.358 412.031C216.64 412.031 217.312 412.875 217.312 414.297V419H218.343V414.055C218.312 412.367 217.452 411.07 215.632 411.07C214.601 411.07 213.679 411.57 213.187 412.523V411.195H212.155V419ZM224.255 419.117C226.481 419.117 228.052 417.32 228.052 415.078C228.052 412.852 226.481 411.07 224.255 411.07C222.036 411.07 220.489 412.852 220.489 415.078C220.489 417.328 222.036 419.117 224.255 419.117ZM224.255 418.219C222.567 418.219 221.559 416.812 221.559 415.078C221.559 413.352 222.567 411.977 224.255 411.977C225.958 411.977 226.981 413.359 226.981 415.078C226.981 416.805 225.958 418.219 224.255 418.219ZM231.815 419.117C232.151 419.117 232.573 419.062 232.917 418.992L232.901 418.109C232.667 418.156 232.432 418.188 232.268 418.188C231.487 418.188 231.409 417.688 231.409 417.086V407.961H230.377V417.352C230.377 418.453 230.706 419.117 231.815 419.117ZM238.032 419.117C240.258 419.117 241.828 417.32 241.828 415.078C241.828 412.852 240.258 411.07 238.032 411.07C235.813 411.07 234.266 412.852 234.266 415.078C234.266 417.328 235.813 419.117 238.032 419.117ZM238.032 418.219C236.344 418.219 235.336 416.812 235.336 415.078C235.336 413.352 236.344 411.977 238.032 411.977C239.735 411.977 240.758 413.359 240.758 415.078C240.758 416.805 239.735 418.219 238.032 418.219ZM247.092 418.062C245.701 417.859 244.623 417.734 244.623 416.875C244.623 416.508 244.818 416.242 245.24 416.055C245.701 416.312 246.264 416.461 246.881 416.461C248.529 416.461 249.811 415.414 249.811 413.812C249.811 413.25 249.654 412.75 249.389 412.336L250.436 411.453L249.889 410.781L248.826 411.719C248.311 411.305 247.623 411.07 246.857 411.07C245.193 411.07 243.897 412.18 243.897 413.758C243.897 414.461 244.147 415.07 244.576 415.531C244.022 415.914 243.732 416.383 243.732 417.039C243.732 417.828 244.162 418.266 244.756 418.531L243.576 419.609C243.561 419.711 243.553 419.812 243.553 419.953C243.553 421.492 244.85 422.586 247.068 422.586C248.967 422.586 250.326 421.742 250.326 420.219C250.326 418.547 248.67 418.305 247.092 418.062ZM246.889 411.891C248.053 411.891 248.787 412.664 248.787 413.773C248.787 414.859 248.061 415.609 246.881 415.609C245.701 415.609 244.967 414.852 244.967 413.766C244.967 412.672 245.732 411.891 246.889 411.891ZM247.061 421.766C245.647 421.766 244.615 421.172 244.506 420.078C244.498 420 244.49 419.922 244.49 419.828L245.397 418.742C245.834 418.844 246.303 418.906 246.74 418.969C248.225 419.18 249.342 419.328 249.342 420.32C249.342 421.234 248.443 421.766 247.061 421.766ZM253.347 422.344H254.472L258.754 411.195H257.629L255.222 417.695L252.488 411.195H251.355L254.676 418.906L253.347 422.344ZM268.101 419.117C270.327 419.117 271.898 417.32 271.898 415.078C271.898 412.852 270.327 411.07 268.101 411.07C265.882 411.07 264.335 412.852 264.335 415.078C264.335 417.328 265.882 419.117 268.101 419.117ZM268.101 418.219C266.413 418.219 265.406 416.812 265.406 415.078C265.406 413.352 266.413 411.977 268.101 411.977C269.804 411.977 270.827 413.359 270.827 415.078C270.827 416.805 269.804 418.219 268.101 418.219ZM274.263 419H275.263V415.016C275.263 412.898 276.497 412.078 277.536 412.078C277.849 412.078 278.153 412.156 278.427 412.305L278.896 411.445C278.56 411.195 278.114 411.07 277.677 411.07C276.747 411.07 275.661 411.625 275.271 412.828V411.195H274.263V419ZM1.40625 447H2.4375V442.375C2.4375 441.016 3.25781 440.039 4.5625 440.039C5.84375 440.039 6.39844 440.898 6.39844 442.281V447H7.42969V442.375C7.42969 441.016 8.25 440.039 9.54688 440.039C10.875 440.039 11.3906 440.945 11.3906 442.562V447H12.4219V442.438C12.4219 440.438 11.6094 439.07 9.73438 439.07C8.57812 439.07 7.61719 439.656 7.15625 440.797C6.80469 439.602 5.89844 439.07 4.75 439.07C3.70312 439.07 2.82812 439.555 2.39844 440.555V439.195H1.39844L1.40625 447ZM17.8962 439.07C16.5134 439.07 15.6072 439.633 14.8494 440.68L15.6384 441.258C16.1775 440.453 16.865 439.984 17.9041 439.984C19.4666 439.984 20.0681 440.766 20.0681 442.414V442.508H17.8181C15.8025 442.508 14.5447 443.148 14.5447 444.734C14.5447 446.234 15.6541 447.117 17.24 447.117C18.4041 447.117 19.49 446.547 20.0759 445.414L20.1462 447H21.0056V442.234C21.0056 440.273 19.8962 439.07 17.8962 439.07ZM17.4353 446.234C16.2634 446.234 15.5994 445.656 15.5994 444.766C15.5994 443.828 16.3337 443.273 17.8728 443.273H20.0681V444.07C19.7087 445.352 18.7947 446.234 17.4353 446.234ZM23.8472 447H24.8784V444.688L26.7144 442.758L29.48 447H30.7066L27.4175 442.109L30.2456 439.195H28.8941L24.8784 443.438V435.961H23.8472V447ZM35.22 447.117C36.4778 447.117 37.3606 446.734 38.2356 445.82L37.5169 445.188C36.8137 445.922 36.1653 446.18 35.2278 446.18C33.6575 446.18 32.7512 445.117 32.6731 443.375H38.4231C38.4544 443.258 38.4778 442.945 38.4778 442.68C38.4778 441.133 37.6419 439.07 35.095 439.07C32.8216 439.07 31.5794 440.93 31.5794 443.133C31.5794 445.375 32.8684 447.117 35.22 447.117ZM32.6731 442.609C32.8059 441.047 33.6653 439.953 35.0872 439.953C36.6341 439.953 37.3372 441.062 37.4309 442.117C37.4544 442.273 37.4544 442.445 37.4466 442.609H32.6731ZM47.5516 447.117C47.9891 447.117 48.4109 447.039 48.6531 446.961L48.6375 446.016C48.4187 446.102 48.0672 446.203 47.7234 446.203C46.8953 446.203 46.4578 445.75 46.4578 444.648V440.07H48.6453V439.195H46.4578V436.18L45.4422 436.938V439.195H44.1297V440.07H45.4266V444.812C45.4266 446.305 46.1687 447.117 47.5516 447.117ZM50.7291 447H51.7759V442.547C51.7759 441.055 52.5806 440.016 53.9712 440.016C55.3384 440.016 55.8853 440.906 55.8853 442.297V447H56.9322V442.055C56.9009 440.367 56.0259 439.07 54.2056 439.07C53.1744 439.07 52.2681 439.57 51.7759 440.523V435.961H50.7291V447ZM62.7738 447.117C64.0316 447.117 64.9144 446.734 65.7894 445.82L65.0706 445.188C64.3675 445.922 63.7191 446.18 62.7816 446.18C61.2113 446.18 60.305 445.117 60.2269 443.375H65.9769C66.0081 443.258 66.0316 442.945 66.0316 442.68C66.0316 441.133 65.1956 439.07 62.6488 439.07C60.3753 439.07 59.1331 440.93 59.1331 443.133C59.1331 445.375 60.4222 447.117 62.7738 447.117ZM60.2269 442.609C60.3597 441.047 61.2191 439.953 62.6409 439.953C64.1878 439.953 64.8909 441.062 64.9847 442.117C65.0081 442.273 65.0081 442.445 65.0003 442.609H60.2269ZM75.1053 447.117C75.5428 447.117 75.9647 447.039 76.2069 446.961L76.1912 446.016C75.9725 446.102 75.6209 446.203 75.2772 446.203C74.4491 446.203 74.0116 445.75 74.0116 444.648V440.07H76.1991V439.195H74.0116V436.18L72.9959 436.938V439.195H71.6834V440.07H72.9803V444.812C72.9803 446.305 73.7225 447.117 75.1053 447.117ZM81.4 447.117C82.6578 447.117 83.5406 446.734 84.4156 445.82L83.6969 445.188C82.9937 445.922 82.3453 446.18 81.4078 446.18C79.8375 446.18 78.9312 445.117 78.8531 443.375H84.6031C84.6344 443.258 84.6578 442.945 84.6578 442.68C84.6578 441.133 83.8219 439.07 81.275 439.07C79.0016 439.07 77.7594 440.93 77.7594 443.133C77.7594 445.375 79.0484 447.117 81.4 447.117ZM78.8531 442.609C78.9859 441.047 79.8453 439.953 81.2672 439.953C82.8141 439.953 83.5172 441.062 83.6109 442.117C83.6344 442.273 83.6344 442.445 83.6266 442.609H78.8531ZM85.89 447H87.1556L89.4369 443.797L91.7259 447H92.9916L90.1166 443.078L92.9837 439.195H91.7181L89.4369 442.367L87.1478 439.195H85.89L88.7572 443.078L85.89 447ZM97.4972 447.117C97.9347 447.117 98.3566 447.039 98.5987 446.961L98.5831 446.016C98.3644 446.102 98.0128 446.203 97.6691 446.203C96.8409 446.203 96.4034 445.75 96.4034 444.648V440.07H98.5909V439.195H96.4034V436.18L95.3878 436.938V439.195H94.0753V440.07H95.3722V444.812C95.3722 446.305 96.1144 447.117 97.4972 447.117ZM107.555 447.117C107.993 447.117 108.415 447.039 108.657 446.961L108.641 446.016C108.423 446.102 108.071 446.203 107.727 446.203C106.899 446.203 106.462 445.75 106.462 444.648V440.07H108.649V439.195H106.462V436.18L105.446 436.938V439.195H104.133V440.07H105.43V444.812C105.43 446.305 106.173 447.117 107.555 447.117ZM113.92 447.117C116.147 447.117 117.717 445.32 117.717 443.078C117.717 440.852 116.147 439.07 113.92 439.07C111.702 439.07 110.155 440.852 110.155 443.078C110.155 445.328 111.702 447.117 113.92 447.117ZM113.92 446.219C112.233 446.219 111.225 444.812 111.225 443.078C111.225 441.352 112.233 439.977 113.92 439.977C115.623 439.977 116.647 441.359 116.647 443.078C116.647 444.805 115.623 446.219 113.92 446.219ZM123.16 447.117C125.387 447.117 126.957 445.32 126.957 443.078C126.957 440.852 125.387 439.07 123.16 439.07C120.942 439.07 119.395 440.852 119.395 443.078C119.395 445.328 120.942 447.117 123.16 447.117ZM123.16 446.219C121.473 446.219 120.465 444.812 120.465 443.078C120.465 441.352 121.473 439.977 123.16 439.977C124.863 439.977 125.887 441.359 125.887 443.078C125.887 444.805 124.863 446.219 123.16 446.219ZM135.054 447.117C135.39 447.117 135.812 447.062 136.156 446.992L136.14 446.109C135.906 446.156 135.672 446.188 135.507 446.188C134.726 446.188 134.648 445.688 134.648 445.086V435.961H133.617V445.352C133.617 446.453 133.945 447.117 135.054 447.117ZM141.271 447.117C143.497 447.117 145.068 445.32 145.068 443.078C145.068 440.852 143.497 439.07 141.271 439.07C139.052 439.07 137.505 440.852 137.505 443.078C137.505 445.328 139.052 447.117 141.271 447.117ZM141.271 446.219C139.583 446.219 138.576 444.812 138.576 443.078C138.576 441.352 139.583 439.977 141.271 439.977C142.974 439.977 143.997 441.359 143.997 443.078C143.997 444.805 142.974 446.219 141.271 446.219ZM147.433 447H148.464V442.383C148.464 440.867 149.316 440.031 150.636 440.031C151.917 440.031 152.589 440.875 152.589 442.297V447H153.62V442.055C153.589 440.367 152.73 439.07 150.909 439.07C149.878 439.07 148.956 439.57 148.464 440.523V439.195H147.433V447ZM159.352 446.062C157.962 445.859 156.884 445.734 156.884 444.875C156.884 444.508 157.079 444.242 157.501 444.055C157.962 444.312 158.524 444.461 159.142 444.461C160.79 444.461 162.071 443.414 162.071 441.812C162.071 441.25 161.915 440.75 161.649 440.336L162.696 439.453L162.149 438.781L161.087 439.719C160.571 439.305 159.884 439.07 159.118 439.07C157.454 439.07 156.157 440.18 156.157 441.758C156.157 442.461 156.407 443.07 156.837 443.531C156.282 443.914 155.993 444.383 155.993 445.039C155.993 445.828 156.423 446.266 157.017 446.531L155.837 447.609C155.821 447.711 155.813 447.812 155.813 447.953C155.813 449.492 157.11 450.586 159.329 450.586C161.227 450.586 162.587 449.742 162.587 448.219C162.587 446.547 160.931 446.305 159.352 446.062ZM159.149 439.891C160.313 439.891 161.048 440.664 161.048 441.773C161.048 442.859 160.321 443.609 159.142 443.609C157.962 443.609 157.227 442.852 157.227 441.766C157.227 440.672 157.993 439.891 159.149 439.891ZM159.321 449.766C157.907 449.766 156.876 449.172 156.767 448.078C156.759 448 156.751 447.922 156.751 447.828L157.657 446.742C158.095 446.844 158.563 446.906 159.001 446.969C160.485 447.18 161.602 447.328 161.602 448.32C161.602 449.234 160.704 449.766 159.321 449.766Z" fill="#363641"/>
<path fill-rule="evenodd" clip-rule="evenodd" d="M30 3C30 1.34315 31.3431 0 33 0H257C258.657 0 260 1.34315 260 3V310C260 311.657 258.657 313 257 313H33C31.3431 313 30 311.657 30 310V3Z" fill="white"/>
<path d="M30.5 3C30.5 1.61929 31.6193 0.5 33 0.5H257C258.381 0.5 259.5 1.61929 259.5 3V310C259.5 311.381 258.381 312.5 257 312.5H33C31.6193 312.5 30.5 311.381 30.5 310V3Z" stroke="#D1D1D1" stroke-opacity="0.5"/>
<rect x="117" y="26" width="56" height="56" rx="16" fill="url(#paint0_linear)"/>
<g filter="url(#filter0_d)">
<path fill-rule="evenodd" clip-rule="evenodd" d="M159.267 63.2764L159.267 63.2764C159.255 63.2764 159.244 63.2784 159.236 63.282C159.232 63.284 159.228 63.2867 159.223 63.2903C158.766 64.0241 157.884 64.6957 156.967 65.3935C156.303 65.8985 155.621 66.418 155.097 66.97C154.416 67.6859 154.389 67.8968 154.276 68.7745L154.262 68.8799C154.216 69.2403 154.041 69.5554 153.788 69.7804C153.534 70.0065 153.203 70.1421 152.844 70.1421C152.839 70.1421 152.817 70.1413 152.781 70.1397C152.398 70.1229 152.055 69.9541 151.808 69.6923C151.563 69.4318 151.412 69.0793 151.412 68.6935C151.412 68.6874 151.413 68.6661 151.415 68.6288C151.514 66.3718 151.787 66.0098 153.187 64.2254L147.781 64.239V64.2403C147.766 64.2403 147.752 64.2394 147.737 64.2376C147.277 64.2154 146.959 64.0529 146.742 63.8339C146.421 63.5102 146.339 63.0773 146.339 62.7888C146.339 62.7769 146.34 62.7651 146.341 62.7535C146.346 62.489 146.401 62.175 146.596 61.8934C146.642 61.8277 146.695 61.7643 146.756 61.7045C145.387 61.4739 145.387 60.442 145.387 60.1986C145.387 59.7467 145.558 59.3695 145.84 59.0944C146.064 58.8768 146.356 58.7276 146.685 58.6605C146.647 58.6242 146.612 58.5861 146.579 58.5463C146.359 58.2844 146.223 57.9491 146.223 57.6033C146.223 57.2128 146.379 56.8427 146.63 56.5609C146.881 56.279 147.23 56.0844 147.617 56.0452L147.69 56.0378C147.616 55.9523 147.552 55.8586 147.5 55.7588C147.392 55.5498 147.335 55.312 147.34 55.0659C147.347 54.749 147.449 54.4509 147.623 54.2059C147.798 53.96 148.046 53.7666 148.342 53.6599L148.484 53.6087L148.483 53.6073C148.532 53.5898 148.582 53.5839 148.63 53.5883C150.018 53.5864 151.057 53.556 151.887 53.5318C154.816 53.4462 155.19 53.4352 159.358 54.9526C159.395 54.9661 159.431 54.976 159.467 54.9824C159.504 54.989 159.541 54.9925 159.578 54.9927L161.24 55.0029C161.425 55.004 161.591 55.0801 161.711 55.2022C161.83 55.3243 161.904 55.4914 161.904 55.6747V62.6034C161.904 62.7875 161.83 62.9548 161.71 63.0766C161.588 63.2 161.421 63.2764 161.237 63.2764H159.267Z" fill="#FFFFFE"/>
</g>
<g filter="url(#filter1_d)">
<path fill-rule="evenodd" clip-rule="evenodd" d="M130.637 46.4575L130.637 46.4575C130.649 46.4575 130.66 46.4555 130.668 46.4519C130.672 46.4499 130.676 46.4472 130.681 46.4436C131.138 45.7097 132.02 45.0382 132.937 44.3404C133.601 43.8354 134.283 43.3159 134.807 42.7639C135.488 42.048 135.515 41.8371 135.628 40.9594L135.642 40.854C135.688 40.4935 135.863 40.1785 136.116 39.9535C136.37 39.7273 136.701 39.5918 137.06 39.5918C137.065 39.5918 137.087 39.5926 137.123 39.5942C137.506 39.611 137.849 39.7798 138.096 40.0416C138.341 40.3021 138.492 40.6546 138.492 41.0403C138.492 41.0465 138.491 41.0678 138.489 41.1051C138.391 43.3621 138.117 43.7241 136.717 45.5084L142.123 45.4949V45.4936C142.138 45.4936 142.152 45.4945 142.167 45.4963C142.627 45.5185 142.945 45.6809 143.162 45.9C143.483 46.2237 143.565 46.6566 143.565 46.9451C143.565 46.957 143.564 46.9688 143.563 46.9803C143.558 47.2449 143.503 47.5589 143.308 47.8404C143.262 47.9062 143.209 47.9696 143.148 48.0294C144.517 48.26 144.517 49.2919 144.517 49.5353C144.517 49.9872 144.346 50.3644 144.064 50.6395C143.84 50.8571 143.548 51.0063 143.219 51.0733C143.257 51.1096 143.292 51.1478 143.325 51.1876C143.545 51.4494 143.681 51.7848 143.681 52.1306C143.681 52.521 143.525 52.8912 143.274 53.173C143.023 53.4548 142.674 53.6494 142.287 53.6887L142.214 53.6961C142.288 53.7816 142.352 53.8753 142.404 53.9751C142.512 54.1841 142.569 54.4219 142.564 54.668C142.557 54.9849 142.455 55.283 142.281 55.5279C142.106 55.7739 141.858 55.9673 141.562 56.0739L141.42 56.1252L141.421 56.1266C141.372 56.1441 141.322 56.15 141.274 56.1456C139.886 56.1475 138.847 56.1779 138.017 56.2021C135.088 56.2877 134.714 56.2987 130.546 54.7813C130.509 54.7678 130.473 54.7579 130.437 54.7515C130.4 54.7449 130.363 54.7414 130.326 54.7412L128.664 54.731C128.479 54.7299 128.313 54.6538 128.193 54.5317C128.074 54.4096 128 54.2425 128 54.0592V47.1305C128 46.9464 128.074 46.7791 128.194 46.6573C128.316 46.5339 128.483 46.4575 128.667 46.4575H130.637Z" fill="#FFFFFE"/>
</g>
<path opacity="0.75" d="M126.499 117.129H128.163L131.987 105.929H130.211L127.699 113.737C127.603 114.041 127.459 114.505 127.347 115.017C127.235 114.505 127.091 114.041 126.995 113.737L124.451 105.929H122.659L126.499 117.129ZM135.953 117.321C138.241 117.321 139.697 115.737 139.697 113.049C139.697 110.361 138.241 108.761 135.953 108.761C133.665 108.761 132.225 110.361 132.225 113.049C132.225 115.737 133.665 117.321 135.953 117.321ZM135.953 115.753C134.689 115.753 133.889 114.729 133.889 113.049C133.889 111.369 134.689 110.329 135.953 110.329C137.233 110.329 138.033 111.369 138.033 113.049C138.033 114.729 137.233 115.753 135.953 115.753ZM144.071 117.321C144.727 117.321 145.271 117.177 145.719 116.953L145.927 115.401C145.511 115.657 145.111 115.785 144.711 115.785C144.071 115.785 143.911 115.401 143.911 114.857V110.393H145.847V108.953H143.911V105.577L142.247 106.377V108.953H140.983V110.393H142.247V115.289C142.247 116.521 142.775 117.321 144.071 117.321ZM148.614 107.673C149.174 107.673 149.622 107.225 149.622 106.665C149.622 106.105 149.174 105.657 148.614 105.657C148.054 105.657 147.606 106.105 147.606 106.665C147.606 107.225 148.054 107.673 148.614 107.673ZM147.782 117.129H149.446V108.953H147.782V117.129ZM156.916 117.129H158.58V112.249C158.58 109.689 157.348 108.761 155.636 108.761C154.74 108.761 154.052 109.065 153.524 109.737V108.953H151.86V117.129H153.524V112.217C153.524 110.809 154.292 110.329 155.284 110.329C156.212 110.329 156.916 110.873 156.916 112.249V117.129ZM163.643 120.329C166.171 120.153 167.499 119.193 167.499 116.601V108.953H165.835V109.529C165.483 109.161 164.859 108.761 163.899 108.761C161.899 108.761 160.507 110.345 160.507 113.033C160.507 115.881 161.995 117.321 163.867 117.321C164.715 117.321 165.371 117.049 165.835 116.473V117.193C165.835 118.201 165.211 118.905 162.811 119.049L163.643 120.329ZM164.171 115.753C162.939 115.753 162.171 114.697 162.171 113.033C162.171 111.289 162.875 110.329 164.171 110.329C164.843 110.329 165.499 110.713 165.835 111.257V114.793C165.467 115.401 164.843 115.753 164.171 115.753Z" fill="black"/>
<path opacity="0.75" d="M75.5064 158.518H76.6614L80.2464 148.018H78.8514L76.4214 155.608C76.3314 155.908 76.2114 156.283 76.1214 156.673C76.0164 156.283 75.8964 155.908 75.8064 155.608L73.3014 148.018H71.9064L75.5064 158.518ZM84.0286 158.698C86.0836 158.698 87.4186 157.198 87.4186 154.678C87.4186 152.143 86.0836 150.673 84.0286 150.673C81.9736 150.673 80.6386 152.173 80.6386 154.693C80.6386 157.228 81.9736 158.698 84.0286 158.698ZM84.0286 157.483C82.7236 157.483 81.9586 156.433 81.9586 154.693C81.9586 152.908 82.7236 151.873 84.0286 151.873C85.3336 151.873 86.0986 152.938 86.0986 154.678C86.0986 156.433 85.3186 157.483 84.0286 157.483ZM91.5229 158.698C92.1229 158.698 92.5879 158.563 92.9929 158.353L93.1429 157.078C92.8129 157.288 92.4379 157.483 92.0029 157.483C91.3279 157.483 91.2079 157.018 91.2079 156.433V151.993H93.0979V150.853H91.2079V147.688L89.9029 148.318V150.853H88.6579V151.993H89.9029V156.868C89.9029 157.948 90.3679 158.698 91.5229 158.698ZM95.7232 149.458C96.1882 149.458 96.5482 149.098 96.5482 148.648C96.5482 148.183 96.1882 147.808 95.7232 147.808C95.2732 147.808 94.9132 148.183 94.9132 148.648C94.9132 149.098 95.2732 149.458 95.7232 149.458ZM95.0782 158.518H96.3832V150.853H95.0782V158.518ZM103.597 158.518H104.902V154.108C104.902 151.633 103.897 150.673 102.157 150.673C101.332 150.673 100.657 150.973 100.177 151.633V150.853H98.8718V158.518H100.177V153.853C100.177 152.368 100.942 151.873 101.947 151.873C102.892 151.873 103.597 152.428 103.597 153.883V158.518ZM109.679 161.623C111.809 161.503 113.294 160.693 113.294 158.203V150.853H111.989V151.483C111.689 151.153 111.089 150.673 110.054 150.673C108.179 150.673 106.874 152.158 106.874 154.678C106.874 157.348 108.314 158.698 110.009 158.698C110.939 158.698 111.554 158.368 111.989 157.768V158.698C111.989 159.703 111.419 160.468 109.049 160.603L109.679 161.623ZM110.279 157.483C109.049 157.483 108.194 156.433 108.194 154.678C108.194 152.878 108.914 151.873 110.279 151.873C110.864 151.873 111.614 152.263 111.989 152.893V156.403C111.599 157.078 110.909 157.483 110.279 157.483ZM123.701 158.518H124.931V153.433C124.931 151.078 123.401 150.673 122.201 150.673C121.046 150.673 120.041 151.078 119.426 151.483L119.801 152.578C120.371 152.173 121.181 151.813 122.036 151.813C123.026 151.813 123.701 152.188 123.701 153.538V154.078C123.071 153.718 122.396 153.583 121.721 153.583C120.236 153.583 118.856 154.348 118.856 156.118C118.856 157.828 119.966 158.698 121.526 158.698C122.441 158.698 123.191 158.293 123.701 157.813V158.518ZM121.721 157.543C120.671 157.543 120.086 156.973 120.086 156.118C120.086 155.143 120.911 154.708 121.901 154.708C122.531 154.708 123.236 154.933 123.701 155.218V156.538C123.266 157.048 122.576 157.543 121.721 157.543ZM130.472 158.698C132.332 158.698 133.637 157.228 133.637 154.678C133.637 152.218 132.422 150.673 130.472 150.673C129.512 150.673 128.957 151.048 128.507 151.498V150.853H127.202V161.548L128.507 160.933V157.798C128.912 158.278 129.482 158.698 130.472 158.698ZM130.307 157.483C129.527 157.483 128.942 157.018 128.507 156.448V152.908C128.882 152.248 129.527 151.873 130.307 151.873C131.567 151.873 132.302 153.013 132.302 154.678C132.302 156.493 131.582 157.483 130.307 157.483ZM138.939 158.698C140.799 158.698 142.104 157.228 142.104 154.678C142.104 152.218 140.889 150.673 138.939 150.673C137.979 150.673 137.424 151.048 136.974 151.498V150.853H135.669V161.548L136.974 160.933V157.798C137.379 158.278 137.949 158.698 138.939 158.698ZM138.774 157.483C137.994 157.483 137.409 157.018 136.974 156.448V152.908C137.349 152.248 137.994 151.873 138.774 151.873C140.034 151.873 140.769 153.013 140.769 154.678C140.769 156.493 140.049 157.483 138.774 157.483ZM148.326 149.458C148.791 149.458 149.151 149.098 149.151 148.648C149.151 148.183 148.791 147.808 148.326 147.808C147.876 147.808 147.516 148.183 147.516 148.648C147.516 149.098 147.876 149.458 148.326 149.458ZM147.681 158.518H148.986V150.853H147.681V158.518ZM153.739 158.698C155.404 158.698 156.469 157.903 156.469 156.523C156.469 155.068 155.374 154.468 153.979 153.973C153.124 153.628 152.359 153.343 152.359 152.698C152.359 152.158 152.854 151.843 153.634 151.843C154.459 151.843 154.999 152.233 155.329 152.578L156.229 151.828C155.674 151.168 154.819 150.673 153.649 150.673C152.179 150.673 151.069 151.438 151.069 152.698C151.069 153.958 152.029 154.573 153.439 155.098C154.339 155.443 155.194 155.788 155.194 156.553C155.194 157.228 154.579 157.528 153.769 157.528C152.944 157.528 152.284 157.033 151.894 156.613L150.964 157.408C151.564 158.173 152.614 158.698 153.739 158.698ZM166.686 158.518H167.991V150.853H166.686V155.503C166.686 157.003 165.921 157.483 164.916 157.483C163.971 157.483 163.266 156.928 163.266 155.473V150.853H161.961V155.278C161.961 157.738 162.951 158.698 164.751 158.698C165.561 158.698 166.176 158.443 166.686 157.783V158.518ZM172.753 158.698C174.418 158.698 175.483 157.903 175.483 156.523C175.483 155.068 174.388 154.468 172.993 153.973C172.138 153.628 171.373 153.343 171.373 152.698C171.373 152.158 171.868 151.843 172.648 151.843C173.473 151.843 174.013 152.233 174.343 152.578L175.243 151.828C174.688 151.168 173.833 150.673 172.663 150.673C171.193 150.673 170.083 151.438 170.083 152.698C170.083 153.958 171.043 154.573 172.453 155.098C173.353 155.443 174.208 155.788 174.208 156.553C174.208 157.228 173.593 157.528 172.783 157.528C171.958 157.528 171.298 157.033 170.908 156.613L169.978 157.408C170.578 158.173 171.628 158.698 172.753 158.698ZM180.474 158.698C181.509 158.698 182.379 158.278 182.949 157.708L182.154 156.823C181.674 157.303 181.089 157.513 180.504 157.513C179.349 157.513 178.509 156.598 178.404 155.188H183.594C183.624 154.888 183.639 154.558 183.639 154.318C183.639 151.798 182.199 150.673 180.474 150.673C178.434 150.673 177.069 152.143 177.069 154.678C177.069 157.018 178.374 158.698 180.474 158.698ZM178.389 154.078C178.464 152.503 179.364 151.828 180.474 151.828C181.284 151.828 182.304 152.338 182.319 154.078H178.389ZM188.306 158.698C189.221 158.698 189.806 158.368 190.241 157.918V158.518H191.546V147.688L190.241 148.303V151.393C189.806 151.003 189.206 150.673 188.306 150.673C186.401 150.673 185.141 152.158 185.141 154.678C185.141 157.153 186.356 158.698 188.306 158.698ZM188.486 157.483C187.226 157.483 186.461 156.268 186.461 154.678C186.461 152.878 187.196 151.873 188.486 151.873C189.371 151.873 189.956 152.398 190.241 152.848V156.448C189.851 157.108 189.206 157.483 188.486 157.483ZM199.284 151.993H201.069V150.853H199.284V149.803C199.284 149.398 199.344 149.008 199.974 149.008C200.349 149.008 200.679 149.113 201.069 149.293V148.198C200.679 147.988 200.229 147.838 199.644 147.838C198.819 147.838 197.979 148.243 197.979 149.578V150.853H196.794V151.993H197.979V158.518H199.284V151.993ZM205.288 158.698C207.343 158.698 208.678 157.198 208.678 154.678C208.678 152.143 207.343 150.673 205.288 150.673C203.233 150.673 201.898 152.173 201.898 154.693C201.898 157.228 203.233 158.698 205.288 158.698ZM205.288 157.483C203.983 157.483 203.218 156.433 203.218 154.693C203.218 152.908 203.983 151.873 205.288 151.873C206.593 151.873 207.358 152.938 207.358 154.678C207.358 156.433 206.578 157.483 205.288 157.483ZM210.713 158.518H212.018V154.198C212.018 152.458 212.993 151.963 213.728 151.963C214.253 151.963 214.583 152.128 214.823 152.293L215.018 151.063C214.748 150.838 214.328 150.673 213.833 150.673C212.978 150.673 212.363 151.093 212.018 151.858V150.853H210.713V158.518ZM59.0982 180.518H60.1932L62.9982 172.853H61.6932L59.9082 177.968C59.8182 178.238 59.7432 178.448 59.6682 178.718C59.5932 178.448 59.5182 178.238 59.4282 177.968L57.6132 172.853H56.2932L59.0982 180.518ZM67.659 180.698C69.714 180.698 71.049 179.198 71.049 176.678C71.049 174.143 69.714 172.673 67.659 172.673C65.604 172.673 64.269 174.173 64.269 176.693C64.269 179.228 65.604 180.698 67.659 180.698ZM67.659 179.483C66.354 179.483 65.589 178.433 65.589 176.693C65.589 174.908 66.354 173.873 67.659 173.873C68.964 173.873 69.729 174.938 69.729 176.678C69.729 178.433 68.949 179.483 67.659 179.483ZM75.1532 180.698C75.7532 180.698 76.2182 180.563 76.6232 180.353L76.7732 179.078C76.4432 179.288 76.0682 179.483 75.6332 179.483C74.9582 179.483 74.8382 179.018 74.8382 178.433V173.993H76.7282V172.853H74.8382V169.688L73.5332 170.318V172.853H72.2882V173.993H73.5332V178.868C73.5332 179.948 73.9982 180.698 75.1532 180.698ZM79.3536 171.458C79.8186 171.458 80.1786 171.098 80.1786 170.648C80.1786 170.183 79.8186 169.808 79.3536 169.808C78.9036 169.808 78.5436 170.183 78.5436 170.648C78.5436 171.098 78.9036 171.458 79.3536 171.458ZM78.7086 180.518H80.0136V172.853H78.7086V180.518ZM87.2272 180.518H88.5322V176.108C88.5322 173.633 87.5272 172.673 85.7872 172.673C84.9622 172.673 84.2872 172.973 83.8072 173.633V172.853H82.5022V180.518H83.8072V175.853C83.8072 174.368 84.5722 173.873 85.5772 173.873C86.5222 173.873 87.2272 174.428 87.2272 175.883V180.518ZM93.3093 183.623C95.4393 183.503 96.9243 182.693 96.9243 180.203V172.853H95.6193V173.483C95.3193 173.153 94.7193 172.673 93.6843 172.673C91.8093 172.673 90.5043 174.158 90.5043 176.678C90.5043 179.348 91.9443 180.698 93.6393 180.698C94.5693 180.698 95.1843 180.368 95.6193 179.768V180.698C95.6193 181.703 95.0493 182.468 92.6793 182.603L93.3093 183.623ZM93.9093 179.483C92.6793 179.483 91.8243 178.433 91.8243 176.678C91.8243 174.878 92.5443 173.873 93.9093 173.873C94.4943 173.873 95.2443 174.263 95.6193 174.893V178.403C95.2293 179.078 94.5393 179.483 93.9093 179.483ZM106.207 180.698C108.157 180.698 109.342 179.273 109.342 176.678C109.342 174.158 108.067 172.673 106.162 172.673C105.367 172.673 104.677 173.033 104.242 173.513V169.688L102.937 170.303V180.518H104.242V179.858C104.692 180.293 105.232 180.698 106.207 180.698ZM106.027 179.483C105.307 179.483 104.617 179.093 104.242 178.448V174.893C104.497 174.458 105.157 173.873 106.027 173.873C107.332 173.873 108.007 174.878 108.007 176.678C108.007 178.403 107.347 179.483 106.027 179.483ZM112.275 183.428H113.595L117.57 172.853H116.235L114.3 178.073C114.195 178.343 114.135 178.553 114.06 178.808C113.985 178.553 113.925 178.343 113.82 178.073L111.915 172.853H110.61L113.445 180.323L112.275 183.428ZM124.914 180.698C125.514 180.698 125.979 180.563 126.384 180.353L126.534 179.078C126.204 179.288 125.829 179.483 125.394 179.483C124.719 179.483 124.599 179.018 124.599 178.433V173.993H126.489V172.853H124.599V169.688L123.294 170.318V172.853H122.049V173.993H123.294V178.868C123.294 179.948 123.759 180.698 124.914 180.698ZM131.248 180.698C133.303 180.698 134.638 179.198 134.638 176.678C134.638 174.143 133.303 172.673 131.248 172.673C129.193 172.673 127.858 174.173 127.858 176.693C127.858 179.228 129.193 180.698 131.248 180.698ZM131.248 179.483C129.943 179.483 129.178 178.433 129.178 176.693C129.178 174.908 129.943 173.873 131.248 173.873C132.553 173.873 133.318 174.938 133.318 176.678C133.318 178.433 132.538 179.483 131.248 179.483ZM142.897 180.518L140.017 174.938L142.027 172.853H140.467L137.977 175.493V169.688L136.672 170.303V180.518H137.977V177.053L139.102 175.883L141.472 180.518H142.897ZM147.376 180.698C148.411 180.698 149.281 180.278 149.851 179.708L149.056 178.823C148.576 179.303 147.991 179.513 147.406 179.513C146.251 179.513 145.411 178.598 145.306 177.188H150.496C150.526 176.888 150.541 176.558 150.541 176.318C150.541 173.798 149.101 172.673 147.376 172.673C145.336 172.673 143.971 174.143 143.971 176.678C143.971 179.018 145.276 180.698 147.376 180.698ZM145.291 176.078C145.366 174.503 146.266 173.828 147.376 173.828C148.186 173.828 149.206 174.338 149.221 176.078H145.291ZM157.217 180.518H158.522V176.108C158.522 173.633 157.517 172.673 155.777 172.673C154.952 172.673 154.277 172.973 153.797 173.633V172.853H152.492V180.518H153.797V175.853C153.797 174.368 154.562 173.873 155.567 173.873C156.512 173.873 157.217 174.428 157.217 175.883V180.518ZM164.475 180.518H165.78V175.853C165.78 174.368 166.545 173.873 167.55 173.873C168.495 173.873 169.2 174.428 169.2 175.883V180.518H170.505V176.108C170.505 173.633 169.5 172.673 167.76 172.673C166.935 172.673 166.26 172.988 165.78 173.648V169.688L164.475 170.288V180.518ZM175.867 180.698C177.922 180.698 179.257 179.198 179.257 176.678C179.257 174.143 177.922 172.673 175.867 172.673C173.812 172.673 172.477 174.173 172.477 176.693C172.477 179.228 173.812 180.698 175.867 180.698ZM175.867 179.483C174.562 179.483 173.797 178.433 173.797 176.693C173.797 174.908 174.562 173.873 175.867 173.873C177.172 173.873 177.937 174.938 177.937 176.678C177.937 178.433 177.157 179.483 175.867 179.483ZM181.366 180.518H182.671V169.688L181.366 170.303V180.518ZM187.932 180.698C188.847 180.698 189.432 180.368 189.867 179.918V180.518H191.172V169.688L189.867 170.303V173.393C189.432 173.003 188.832 172.673 187.932 172.673C186.027 172.673 184.767 174.158 184.767 176.678C184.767 179.153 185.982 180.698 187.932 180.698ZM188.112 179.483C186.852 179.483 186.087 178.268 186.087 176.678C186.087 174.878 186.822 173.873 188.112 173.873C188.997 173.873 189.582 174.398 189.867 174.848V178.448C189.477 179.108 188.832 179.483 188.112 179.483ZM196.595 180.698C197.63 180.698 198.5 180.278 199.07 179.708L198.275 178.823C197.795 179.303 197.21 179.513 196.625 179.513C195.47 179.513 194.63 178.598 194.525 177.188H199.715C199.745 176.888 199.76 176.558 199.76 176.318C199.76 173.798 198.32 172.673 196.595 172.673C194.555 172.673 193.19 174.143 193.19 176.678C193.19 179.018 194.495 180.698 196.595 180.698ZM194.51 176.078C194.585 174.503 195.485 173.828 196.595 173.828C197.405 173.828 198.425 174.338 198.44 176.078H194.51ZM201.711 180.518H203.016V176.198C203.016 174.458 203.991 173.963 204.726 173.963C205.251 173.963 205.581 174.128 205.821 174.293L206.016 173.063C205.746 172.838 205.326 172.673 204.831 172.673C203.976 172.673 203.361 173.093 203.016 173.858V172.853H201.711V180.518ZM209.806 180.698C211.471 180.698 212.536 179.903 212.536 178.523C212.536 177.068 211.441 176.468 210.046 175.973C209.191 175.628 208.426 175.343 208.426 174.698C208.426 174.158 208.921 173.843 209.701 173.843C210.526 173.843 211.066 174.233 211.396 174.578L212.296 173.828C211.741 173.168 210.886 172.673 209.716 172.673C208.246 172.673 207.136 173.438 207.136 174.698C207.136 175.958 208.096 176.573 209.506 177.098C210.406 177.443 211.261 177.788 211.261 178.553C211.261 179.228 210.646 179.528 209.836 179.528C209.011 179.528 208.351 179.033 207.961 178.613L207.031 179.408C207.631 180.173 208.681 180.698 209.806 180.698ZM220.173 180.698C220.773 180.698 221.238 180.563 221.643 180.353L221.793 179.078C221.463 179.288 221.088 179.483 220.653 179.483C219.978 179.483 219.858 179.018 219.858 178.433V173.993H221.748V172.853H219.858V169.688L218.553 170.318V172.853H217.308V173.993H218.553V178.868C218.553 179.948 219.018 180.698 220.173 180.698ZM226.507 180.698C228.562 180.698 229.897 179.198 229.897 176.678C229.897 174.143 228.562 172.673 226.507 172.673C224.452 172.673 223.117 174.173 223.117 176.693C223.117 179.228 224.452 180.698 226.507 180.698ZM226.507 179.483C225.202 179.483 224.437 178.433 224.437 176.693C224.437 174.908 225.202 173.873 226.507 173.873C227.812 173.873 228.577 174.938 228.577 176.678C228.577 178.433 227.797 179.483 226.507 179.483ZM100.8 202.698C102.465 202.698 103.53 201.903 103.53 200.523C103.53 199.068 102.435 198.468 101.04 197.973C100.185 197.628 99.4199 197.343 99.4199 196.698C99.4199 196.158 99.9149 195.843 100.695 195.843C101.52 195.843 102.06 196.233 102.39 196.578L103.29 195.828C102.735 195.168 101.88 194.673 100.71 194.673C99.2399 194.673 98.1299 195.438 98.1299 196.698C98.1299 197.958 99.0899 198.573 100.5 199.098C101.4 199.443 102.255 199.788 102.255 200.553C102.255 201.228 101.64 201.528 100.83 201.528C100.005 201.528 99.3449 201.033 98.9549 200.613L98.0249 201.408C98.6249 202.173 99.6749 202.698 100.8 202.698ZM110.216 202.518H111.521V194.853H110.216V199.503C110.216 201.003 109.451 201.483 108.446 201.483C107.501 201.483 106.796 200.928 106.796 199.473V194.853H105.491V199.278C105.491 201.738 106.481 202.698 108.281 202.698C109.091 202.698 109.706 202.443 110.216 201.783V202.518ZM117.288 202.698C119.238 202.698 120.423 201.273 120.423 198.678C120.423 196.158 119.148 194.673 117.243 194.673C116.448 194.673 115.758 195.033 115.323 195.513V191.688L114.018 192.303V202.518H115.323V201.858C115.773 202.293 116.313 202.698 117.288 202.698ZM117.108 201.483C116.388 201.483 115.698 201.093 115.323 200.448V196.893C115.578 196.458 116.238 195.873 117.108 195.873C118.413 195.873 119.088 196.878 119.088 198.678C119.088 200.403 118.428 201.483 117.108 201.483ZM131.426 202.518H132.731V197.493C132.731 195.633 131.561 194.673 130.031 194.673C129.041 194.673 128.261 195.108 127.811 195.798C127.376 195.048 126.581 194.673 125.756 194.673C124.946 194.673 124.211 194.958 123.746 195.573V194.853H122.441V202.518H123.746V197.853C123.746 196.638 124.376 195.873 125.396 195.873C126.581 195.873 126.926 196.818 126.926 197.868V202.518H128.231V197.913C128.231 196.698 128.891 195.873 129.881 195.873C131.066 195.873 131.426 196.818 131.426 197.868V202.518ZM135.787 193.458C136.252 193.458 136.612 193.098 136.612 192.648C136.612 192.183 136.252 191.808 135.787 191.808C135.337 191.808 134.977 192.183 134.977 192.648C134.977 193.098 135.337 193.458 135.787 193.458ZM135.142 202.518H136.447V194.853H135.142V202.518ZM141.005 202.698C141.605 202.698 142.07 202.563 142.475 202.353L142.625 201.078C142.295 201.288 141.92 201.483 141.485 201.483C140.81 201.483 140.69 201.018 140.69 200.433V195.993H142.58V194.853H140.69V191.688L139.385 192.318V194.853H138.14V195.993H139.385V200.868C139.385 201.948 139.85 202.698 141.005 202.698ZM150.131 202.518H151.226L154.031 194.853H152.726L150.941 199.968C150.851 200.238 150.776 200.448 150.701 200.718C150.626 200.448 150.551 200.238 150.461 199.968L148.646 194.853H147.326L150.131 202.518ZM158.692 202.698C160.747 202.698 162.082 201.198 162.082 198.678C162.082 196.143 160.747 194.673 158.692 194.673C156.637 194.673 155.302 196.173 155.302 198.693C155.302 201.228 156.637 202.698 158.692 202.698ZM158.692 201.483C157.387 201.483 156.622 200.433 156.622 198.693C156.622 196.908 157.387 195.873 158.692 195.873C159.997 195.873 160.762 196.938 160.762 198.678C160.762 200.433 159.982 201.483 158.692 201.483ZM166.186 202.698C166.786 202.698 167.251 202.563 167.656 202.353L167.806 201.078C167.476 201.288 167.101 201.483 166.666 201.483C165.991 201.483 165.871 201.018 165.871 200.433V195.993H167.761V194.853H165.871V191.688L164.566 192.318V194.853H163.321V195.993H164.566V200.868C164.566 201.948 165.031 202.698 166.186 202.698ZM170.386 193.458C170.851 193.458 171.211 193.098 171.211 192.648C171.211 192.183 170.851 191.808 170.386 191.808C169.936 191.808 169.576 192.183 169.576 192.648C169.576 193.098 169.936 193.458 170.386 193.458ZM169.741 202.518H171.046V194.853H169.741V202.518ZM178.26 202.518H179.565V198.108C179.565 195.633 178.56 194.673 176.82 194.673C175.995 194.673 175.32 194.973 174.84 195.633V194.853H173.535V202.518H174.84V197.853C174.84 196.368 175.605 195.873 176.61 195.873C177.555 195.873 178.26 196.428 178.26 197.883V202.518ZM184.342 205.623C186.472 205.503 187.957 204.693 187.957 202.203V194.853H186.652V195.483C186.352 195.153 185.752 194.673 184.717 194.673C182.842 194.673 181.537 196.158 181.537 198.678C181.537 201.348 182.977 202.698 184.672 202.698C185.602 202.698 186.217 202.368 186.652 201.768V202.698C186.652 203.703 186.082 204.468 183.712 204.603L184.342 205.623ZM184.942 201.483C183.712 201.483 182.857 200.433 182.857 198.678C182.857 196.878 183.577 195.873 184.942 195.873C185.527 195.873 186.277 196.263 186.652 196.893V200.403C186.262 201.078 185.572 201.483 184.942 201.483ZM105.036 224.698C105.636 224.698 106.101 224.563 106.506 224.353L106.656 223.078C106.326 223.288 105.951 223.483 105.516 223.483C104.841 223.483 104.721 223.018 104.721 222.433V217.993H106.611V216.853H104.721V213.688L103.416 214.318V216.853H102.171V217.993H103.416V222.868C103.416 223.948 103.881 224.698 105.036 224.698ZM108.576 224.518H109.881V220.198C109.881 218.458 110.856 217.963 111.591 217.963C112.116 217.963 112.446 218.128 112.686 218.293L112.881 217.063C112.611 216.838 112.191 216.673 111.696 216.673C110.841 216.673 110.226 217.093 109.881 217.858V216.853H108.576V224.518ZM118.509 224.518H119.739V219.433C119.739 217.078 118.209 216.673 117.009 216.673C115.854 216.673 114.849 217.078 114.234 217.483L114.609 218.578C115.179 218.173 115.989 217.813 116.844 217.813C117.834 217.813 118.509 218.188 118.509 219.538V220.078C117.879 219.718 117.204 219.583 116.529 219.583C115.044 219.583 113.664 220.348 113.664 222.118C113.664 223.828 114.774 224.698 116.334 224.698C117.249 224.698 117.999 224.293 118.509 223.813V224.518ZM116.529 223.543C115.479 223.543 114.894 222.973 114.894 222.118C114.894 221.143 115.719 220.708 116.709 220.708C117.339 220.708 118.044 220.933 118.509 221.218V222.538C118.074 223.048 117.384 223.543 116.529 223.543ZM126.734 224.518H128.039V220.108C128.039 217.633 127.034 216.673 125.294 216.673C124.469 216.673 123.794 216.973 123.314 217.633V216.853H122.009V224.518H123.314V219.853C123.314 218.368 124.079 217.873 125.084 217.873C126.029 217.873 126.734 218.428 126.734 219.883V224.518ZM132.726 224.698C134.391 224.698 135.456 223.903 135.456 222.523C135.456 221.068 134.361 220.468 132.966 219.973C132.111 219.628 131.346 219.343 131.346 218.698C131.346 218.158 131.841 217.843 132.621 217.843C133.446 217.843 133.986 218.233 134.316 218.578L135.216 217.828C134.661 217.168 133.806 216.673 132.636 216.673C131.166 216.673 130.056 217.438 130.056 218.698C130.056 219.958 131.016 220.573 132.426 221.098C133.326 221.443 134.181 221.788 134.181 222.553C134.181 223.228 133.566 223.528 132.756 223.528C131.931 223.528 131.271 223.033 130.881 222.613L129.951 223.408C130.551 224.173 131.601 224.698 132.726 224.698ZM141.887 224.518H143.117V219.433C143.117 217.078 141.587 216.673 140.387 216.673C139.232 216.673 138.227 217.078 137.612 217.483L137.987 218.578C138.557 218.173 139.367 217.813 140.222 217.813C141.212 217.813 141.887 218.188 141.887 219.538V220.078C141.257 219.718 140.582 219.583 139.907 219.583C138.422 219.583 137.042 220.348 137.042 222.118C137.042 223.828 138.152 224.698 139.712 224.698C140.627 224.698 141.377 224.293 141.887 223.813V224.518ZM139.907 223.543C138.857 223.543 138.272 222.973 138.272 222.118C138.272 221.143 139.097 220.708 140.087 220.708C140.717 220.708 141.422 220.933 141.887 221.218V222.538C141.452 223.048 140.762 223.543 139.907 223.543ZM148.118 224.698C149.528 224.698 150.548 223.993 150.923 222.733L149.708 222.328C149.483 223.048 148.913 223.468 148.148 223.468C146.918 223.468 146.273 222.433 146.273 220.693C146.273 218.968 146.888 217.888 148.193 217.888C148.943 217.888 149.408 218.323 149.633 218.908L150.863 218.458C150.428 217.258 149.453 216.673 148.178 216.673C146.168 216.673 144.938 218.173 144.938 220.693C144.938 223.228 146.168 224.698 148.118 224.698ZM154.811 224.698C155.411 224.698 155.876 224.563 156.281 224.353L156.431 223.078C156.101 223.288 155.726 223.483 155.291 223.483C154.616 223.483 154.496 223.018 154.496 222.433V217.993H156.386V216.853H154.496V213.688L153.191 214.318V216.853H151.946V217.993H153.191V222.868C153.191 223.948 153.656 224.698 154.811 224.698ZM159.012 215.458C159.477 215.458 159.837 215.098 159.837 214.648C159.837 214.183 159.477 213.808 159.012 213.808C158.562 213.808 158.202 214.183 158.202 214.648C158.202 215.098 158.562 215.458 159.012 215.458ZM158.367 224.518H159.672V216.853H158.367V224.518ZM165.1 224.698C167.155 224.698 168.49 223.198 168.49 220.678C168.49 218.143 167.155 216.673 165.1 216.673C163.045 216.673 161.71 218.173 161.71 220.693C161.71 223.228 163.045 224.698 165.1 224.698ZM165.1 223.483C163.795 223.483 163.03 222.433 163.03 220.693C163.03 218.908 163.795 217.873 165.1 217.873C166.405 217.873 167.17 218.938 167.17 220.678C167.17 222.433 166.39 223.483 165.1 223.483ZM175.25 224.518H176.555V220.108C176.555 217.633 175.55 216.673 173.81 216.673C172.985 216.673 172.31 216.973 171.83 217.633V216.853H170.525V224.518H171.83V219.853C171.83 218.368 172.595 217.873 173.6 217.873C174.545 217.873 175.25 218.428 175.25 219.883V224.518ZM181.242 224.698C182.907 224.698 183.972 223.903 183.972 222.523C183.972 221.068 182.877 220.468 181.482 219.973C180.627 219.628 179.862 219.343 179.862 218.698C179.862 218.158 180.357 217.843 181.137 217.843C181.962 217.843 182.502 218.233 182.832 218.578L183.732 217.828C183.177 217.168 182.322 216.673 181.152 216.673C179.682 216.673 178.572 217.438 178.572 218.698C178.572 219.958 179.532 220.573 180.942 221.098C181.842 221.443 182.697 221.788 182.697 222.553C182.697 223.228 182.082 223.528 181.272 223.528C180.447 223.528 179.787 223.033 179.397 222.613L178.467 223.408C179.067 224.173 180.117 224.698 181.242 224.698Z" fill="black"/>
<path d="M62.5649 250C62.5649 248.619 63.6842 247.5 65.0649 247.5H221.936C223.317 247.5 224.436 248.619 224.436 250V280.194C224.436 281.574 223.317 282.694 221.936 282.694H65.0649C63.6842 282.694 62.5649 281.574 62.5649 280.194V250Z" stroke="#E6E6E6"/>
<path d="M103.385 271H104.54L108.125 260.5H106.73L104.3 268.09C104.21 268.39 104.09 268.765 104 269.155C103.895 268.765 103.775 268.39 103.685 268.09L101.18 260.5H99.7849L103.385 271ZM110.755 261.94C111.22 261.94 111.58 261.58 111.58 261.13C111.58 260.665 111.22 260.29 110.755 260.29C110.305 260.29 109.945 260.665 109.945 261.13C109.945 261.58 110.305 261.94 110.755 261.94ZM110.11 271H111.415V263.335H110.11V271ZM116.859 271.18C117.894 271.18 118.764 270.76 119.334 270.19L118.539 269.305C118.059 269.785 117.474 269.995 116.889 269.995C115.734 269.995 114.894 269.08 114.789 267.67H119.979C120.009 267.37 120.024 267.04 120.024 266.8C120.024 264.28 118.584 263.155 116.859 263.155C114.819 263.155 113.454 264.625 113.454 267.16C113.454 269.5 114.759 271.18 116.859 271.18ZM114.774 266.56C114.849 264.985 115.749 264.31 116.859 264.31C117.669 264.31 118.689 264.82 118.704 266.56H114.774ZM123.118 271H124.288L125.668 266.455C125.758 266.155 125.863 265.75 125.938 265.45C126.013 265.75 126.133 266.155 126.223 266.455L127.618 271H128.788L130.753 263.335H129.463L128.308 268.48C128.248 268.795 128.188 269.065 128.143 269.32L127.933 268.48L126.493 263.335H125.413L123.973 268.48C123.898 268.765 123.823 269.035 123.778 269.29C123.733 269.035 123.673 268.78 123.613 268.48L122.443 263.335H121.153L123.118 271ZM138.796 271.18C139.711 271.18 140.296 270.85 140.731 270.4V271H142.036V260.17L140.731 260.785V263.875C140.296 263.485 139.696 263.155 138.796 263.155C136.891 263.155 135.631 264.64 135.631 267.16C135.631 269.635 136.846 271.18 138.796 271.18ZM138.976 269.965C137.716 269.965 136.951 268.75 136.951 267.16C136.951 265.36 137.686 264.355 138.976 264.355C139.861 264.355 140.446 264.88 140.731 265.33V268.93C140.341 269.59 139.696 269.965 138.976 269.965ZM147.459 271.18C148.494 271.18 149.364 270.76 149.934 270.19L149.139 269.305C148.659 269.785 148.074 269.995 147.489 269.995C146.334 269.995 145.494 269.08 145.389 267.67H150.579C150.609 267.37 150.624 267.04 150.624 266.8C150.624 264.28 149.184 263.155 147.459 263.155C145.419 263.155 144.054 264.625 144.054 267.16C144.054 269.5 145.359 271.18 147.459 271.18ZM145.374 266.56C145.449 264.985 146.349 264.31 147.459 264.31C148.269 264.31 149.289 264.82 149.304 266.56H145.374ZM154.499 271.18C155.099 271.18 155.564 271.045 155.969 270.835L156.119 269.56C155.789 269.77 155.414 269.965 154.979 269.965C154.304 269.965 154.184 269.5 154.184 268.915V264.475H156.074V263.335H154.184V260.17L152.879 260.8V263.335H151.634V264.475H152.879V269.35C152.879 270.43 153.344 271.18 154.499 271.18ZM162.288 271H163.518V265.915C163.518 263.56 161.988 263.155 160.788 263.155C159.633 263.155 158.628 263.56 158.013 263.965L158.388 265.06C158.958 264.655 159.768 264.295 160.623 264.295C161.613 264.295 162.288 264.67 162.288 266.02V266.56C161.658 266.2 160.983 266.065 160.308 266.065C158.823 266.065 157.443 266.83 157.443 268.6C157.443 270.31 158.553 271.18 160.113 271.18C161.028 271.18 161.778 270.775 162.288 270.295V271ZM160.308 270.025C159.258 270.025 158.673 269.455 158.673 268.6C158.673 267.625 159.498 267.19 160.488 267.19C161.118 267.19 161.823 267.415 162.288 267.7V269.02C161.853 269.53 161.163 270.025 160.308 270.025ZM166.448 261.94C166.913 261.94 167.273 261.58 167.273 261.13C167.273 260.665 166.913 260.29 166.448 260.29C165.998 260.29 165.638 260.665 165.638 261.13C165.638 261.58 165.998 261.94 166.448 261.94ZM165.803 271H167.108V263.335H165.803V271ZM169.672 271H170.977V260.17L169.672 260.785V271ZM175.788 271.18C177.453 271.18 178.518 270.385 178.518 269.005C178.518 267.55 177.423 266.95 176.028 266.455C175.173 266.11 174.408 265.825 174.408 265.18C174.408 264.64 174.903 264.325 175.683 264.325C176.508 264.325 177.048 264.715 177.378 265.06L178.278 264.31C177.723 263.65 176.868 263.155 175.698 263.155C174.228 263.155 173.118 263.92 173.118 265.18C173.118 266.44 174.078 267.055 175.488 267.58C176.388 267.925 177.243 268.27 177.243 269.035C177.243 269.71 176.628 270.01 175.818 270.01C174.993 270.01 174.333 269.515 173.943 269.095L173.013 269.89C173.613 270.655 174.663 271.18 175.788 271.18Z" fill="#707070"/>
<path fill-rule="evenodd" clip-rule="evenodd" d="M0 362H282V352H0V362Z" fill="#FB7372"/>
<defs>
<filter id="filter0_d" x="141.387" y="49.501" width="24.5173" height="24.6411" filterUnits="userSpaceOnUse" color-interpolation-filters="sRGB">
<feFlood flood-opacity="0" result="BackgroundImageFix"/>
<feColorMatrix in="SourceAlpha" type="matrix" values="0 0 0 0 0 0 0 0 0 0 0 0 0 0 0 0 0 0 127 0"/>
<feOffset/>
<feGaussianBlur stdDeviation="2"/>
<feColorMatrix type="matrix" values="0 0 0 0 1 0 0 0 0 1 0 0 0 0 1 0 0 0 0.5 0"/>
<feBlend mode="normal" in2="BackgroundImageFix" result="effect1_dropShadow"/>
<feBlend mode="normal" in="SourceGraphic" in2="effect1_dropShadow" result="shape"/>
</filter>
<filter id="filter1_d" x="124" y="35.5918" width="24.5173" height="24.6411" filterUnits="userSpaceOnUse" color-interpolation-filters="sRGB">
<feFlood flood-opacity="0" result="BackgroundImageFix"/>
<feColorMatrix in="SourceAlpha" type="matrix" values="0 0 0 0 0 0 0 0 0 0 0 0 0 0 0 0 0 0 127 0"/>
<feOffset/>
<feGaussianBlur stdDeviation="2"/>
<feColorMatrix type="matrix" values="0 0 0 0 1 0 0 0 0 1 0 0 0 0 1 0 0 0 0.5 0"/>
<feBlend mode="normal" in2="BackgroundImageFix" result="effect1_dropShadow"/>
<feBlend mode="normal" in="SourceGraphic" in2="effect1_dropShadow" result="shape"/>
</filter>
<linearGradient id="paint0_linear" x1="117" y1="16.6618" x2="98.3236" y2="72.6618" gradientUnits="userSpaceOnUse">
<stop stop-color="#A8ED2F"/>
<stop offset="1" stop-color="#68DFB1"/>
</linearGradient>
</defs>
</svg>
