<svg width="310" height="460" viewBox="0 0 286 460" fill="none" xmlns="http://www.w3.org/2000/svg">
<path d="M2.64062 387H5.4165C8.81494 387 10.7119 385.14 10.7119 381.902C10.7119 378.533 8.85889 376.651 5.43115 376.651H2.64062V387ZM3.64404 386.07V377.581H5.4165C8.31689 377.581 9.7085 378.98 9.7085 381.866C9.7085 384.737 8.08252 386.07 5.32861 386.07H3.64404ZM15.8901 387.11C17.9775 387.11 19.4497 385.425 19.4497 383.323C19.4497 381.236 17.9775 379.566 15.8901 379.566C13.8101 379.566 12.3599 381.236 12.3599 383.323C12.3599 385.433 13.8101 387.11 15.8901 387.11ZM15.8901 386.268C14.3081 386.268 13.3633 384.949 13.3633 383.323C13.3633 381.705 14.3081 380.416 15.8901 380.416C17.4868 380.416 18.4463 381.712 18.4463 383.323C18.4463 384.942 17.4868 386.268 15.8901 386.268Z" fill="#4EDDA4"/>
<path d="M1.75 418H2.82031V414.914L5.60938 412.031L9.46875 418H10.7969L6.35156 411.312L10.5781 406.961H9.13281L2.82031 413.594V406.961H1.75V418ZM15.3806 418.117C16.6384 418.117 17.5212 417.734 18.3962 416.82L17.6775 416.188C16.9744 416.922 16.3259 417.18 15.3884 417.18C13.8181 417.18 12.9119 416.117 12.8337 414.375H18.5837C18.615 414.258 18.6384 413.945 18.6384 413.68C18.6384 412.133 17.8025 410.07 15.2556 410.07C12.9822 410.07 11.74 411.93 11.74 414.133C11.74 416.375 13.0291 418.117 15.3806 418.117ZM12.8337 413.609C12.9666 412.047 13.8259 410.953 15.2478 410.953C16.7947 410.953 17.4978 412.062 17.5916 413.117C17.615 413.273 17.615 413.445 17.6072 413.609H12.8337ZM24.0112 418.117C25.2691 418.117 26.1519 417.734 27.0269 416.82L26.3081 416.188C25.605 416.922 24.9566 417.18 24.0191 417.18C22.4487 417.18 21.5425 416.117 21.4644 414.375H27.2144C27.2456 414.258 27.2691 413.945 27.2691 413.68C27.2691 412.133 26.4331 410.07 23.8862 410.07C21.6128 410.07 20.3706 411.93 20.3706 414.133C20.3706 416.375 21.6597 418.117 24.0112 418.117ZM21.4644 413.609C21.5972 412.047 22.4566 410.953 23.8784 410.953C25.4253 410.953 26.1284 412.062 26.2222 413.117C26.2456 413.273 26.2456 413.445 26.2378 413.609H21.4644ZM29.6497 421.234H30.7122V416.281C31.2044 417.422 32.2591 418.117 33.5012 418.117C35.6106 418.117 36.8216 416.32 36.8216 414.102C36.8216 411.891 35.6106 410.07 33.5169 410.07C32.2825 410.07 31.2044 410.766 30.7122 411.922V410.195H29.6497V421.234ZM33.2747 417.18C31.6497 417.18 30.6262 415.852 30.6262 414.102C30.6262 412.352 31.6497 411.031 33.2747 411.031C34.9075 411.031 35.7825 412.367 35.7825 414.102C35.7825 415.828 34.9075 417.18 33.2747 417.18ZM45.9578 418.117C46.3953 418.117 46.8172 418.039 47.0594 417.961L47.0437 417.016C46.825 417.102 46.4734 417.203 46.1297 417.203C45.3016 417.203 44.8641 416.75 44.8641 415.648V411.07H47.0516V410.195H44.8641V407.18L43.8484 407.938V410.195H42.5359V411.07H43.8328V415.812C43.8328 417.305 44.575 418.117 45.9578 418.117ZM49.1353 418H50.1822V413.547C50.1822 412.055 50.9869 411.016 52.3775 411.016C53.7447 411.016 54.2916 411.906 54.2916 413.297V418H55.3384V413.055C55.3072 411.367 54.4322 410.07 52.6119 410.07C51.5806 410.07 50.6744 410.57 50.1822 411.523V406.961H49.1353V418ZM61.18 418.117C62.4378 418.117 63.3206 417.734 64.1956 416.82L63.4769 416.188C62.7738 416.922 62.1253 417.18 61.1878 417.18C59.6175 417.18 58.7113 416.117 58.6331 414.375H64.3831C64.4144 414.258 64.4378 413.945 64.4378 413.68C64.4378 412.133 63.6019 410.07 61.055 410.07C58.7816 410.07 57.5394 411.93 57.5394 414.133C57.5394 416.375 58.8284 418.117 61.18 418.117ZM58.6331 413.609C58.7659 412.047 59.6253 410.953 61.0472 410.953C62.5941 410.953 63.2972 412.062 63.3909 413.117C63.4144 413.273 63.4144 413.445 63.4066 413.609H58.6331ZM74.0116 418.117C75.4491 418.117 76.5819 417.328 77.0584 415.969L76.1131 415.609C75.8006 416.578 75.0194 417.18 74.0037 417.18C72.3162 417.18 71.5428 415.719 71.5428 414.109C71.5428 412.523 72.3162 411.016 73.9959 411.016C74.9959 411.016 75.785 411.625 76.1522 412.602L77.1366 412.219C76.5584 410.812 75.4178 410.07 73.9959 410.07C71.6522 410.07 70.4959 412.062 70.4959 414.109C70.4959 416.32 71.7694 418.117 74.0116 418.117ZM82.3141 418.117C84.5406 418.117 86.1109 416.32 86.1109 414.078C86.1109 411.852 84.5406 410.07 82.3141 410.07C80.0953 410.07 78.5484 411.852 78.5484 414.078C78.5484 416.328 80.0953 418.117 82.3141 418.117ZM82.3141 417.219C80.6266 417.219 79.6187 415.812 79.6187 414.078C79.6187 412.352 80.6266 410.977 82.3141 410.977C84.0172 410.977 85.0406 412.359 85.0406 414.078C85.0406 415.805 84.0172 417.219 82.3141 417.219ZM88.4916 421.234H89.5541V416.281C90.0462 417.422 91.1009 418.117 92.3431 418.117C94.4525 418.117 95.6634 416.32 95.6634 414.102C95.6634 411.891 94.4525 410.07 92.3587 410.07C91.1244 410.07 90.0462 410.766 89.5541 411.922V410.195H88.4916V421.234ZM92.1166 417.18C90.4916 417.18 89.4681 415.852 89.4681 414.102C89.4681 412.352 90.4916 411.031 92.1166 411.031C93.7494 411.031 94.6244 412.367 94.6244 414.102C94.6244 415.828 93.7494 417.18 92.1166 417.18ZM98.5987 421.344H99.7237L104.005 410.195H102.88L100.474 416.695L97.7394 410.195H96.6066L99.9269 417.906L98.5987 421.344ZM112.594 418.117C114.118 418.117 115.368 417.328 115.368 415.766C115.368 412.773 110.813 414.023 110.813 412.086C110.813 411.391 111.454 410.906 112.462 410.906C113.415 410.906 114.063 411.43 114.438 412.133L115.235 411.703C114.688 410.672 113.727 410.07 112.493 410.07C111.001 410.07 109.821 410.828 109.821 412.219C109.821 415.039 114.352 413.695 114.352 415.812C114.352 416.633 113.727 417.25 112.548 417.25C111.337 417.25 110.563 416.531 110.266 415.695L109.43 416.062C109.829 417.25 111.055 418.117 112.594 418.117ZM117.78 418H118.827V413.547C118.827 412.055 119.631 411.016 121.022 411.016C122.389 411.016 122.936 411.906 122.936 413.297V418H123.983V413.055C123.952 411.367 123.077 410.07 121.256 410.07C120.225 410.07 119.319 410.57 118.827 411.523V406.961H117.78V418ZM129.895 418.117C132.121 418.117 133.692 416.32 133.692 414.078C133.692 411.852 132.121 410.07 129.895 410.07C127.676 410.07 126.129 411.852 126.129 414.078C126.129 416.328 127.676 418.117 129.895 418.117ZM129.895 417.219C128.207 417.219 127.199 415.812 127.199 414.078C127.199 412.352 128.207 410.977 129.895 410.977C131.598 410.977 132.621 412.359 132.621 414.078C132.621 415.805 131.598 417.219 129.895 417.219ZM136.057 418H137.057V414.016C137.057 411.898 138.291 411.078 139.33 411.078C139.643 411.078 139.947 411.156 140.221 411.305L140.689 410.445C140.353 410.195 139.908 410.07 139.471 410.07C138.541 410.07 137.455 410.625 137.064 411.828V410.195H136.057V418ZM145.265 418.117C145.703 418.117 146.125 418.039 146.367 417.961L146.351 417.016C146.132 417.102 145.781 417.203 145.437 417.203C144.609 417.203 144.172 416.75 144.172 415.648V411.07H146.359V410.195H144.172V407.18L143.156 407.938V410.195H141.843V411.07H143.14V415.812C143.14 417.305 143.882 418.117 145.265 418.117ZM148.458 420.461H149.177L151.271 415.953H150.091L148.458 420.461ZM160.915 410.07C159.532 410.07 158.626 410.633 157.868 411.68L158.657 412.258C159.196 411.453 159.884 410.984 160.923 410.984C162.485 410.984 163.087 411.766 163.087 413.414V413.508H160.837C158.821 413.508 157.563 414.148 157.563 415.734C157.563 417.234 158.673 418.117 160.259 418.117C161.423 418.117 162.509 417.547 163.095 416.414L163.165 418H164.024V413.234C164.024 411.273 162.915 410.07 160.915 410.07ZM160.454 417.234C159.282 417.234 158.618 416.656 158.618 415.766C158.618 414.828 159.352 414.273 160.892 414.273H163.087V415.07C162.727 416.352 161.813 417.234 160.454 417.234ZM166.85 418H167.882V413.383C167.882 411.867 168.733 411.031 170.053 411.031C171.335 411.031 172.007 411.875 172.007 413.297V418H173.038V413.055C173.007 411.367 172.147 410.07 170.327 410.07C169.296 410.07 168.374 410.57 167.882 411.523V410.195H166.85V418ZM178.715 418.117C179.965 418.117 181.051 417.406 181.536 416.227L181.575 418H182.543V406.961H181.497V411.914C181.012 410.766 179.926 410.07 178.7 410.07C176.598 410.07 175.231 411.883 175.231 414.086C175.231 416.312 176.598 418.117 178.715 418.117ZM178.942 417.18C177.317 417.18 176.278 415.828 176.278 414.086C176.278 412.359 177.317 411.016 178.942 411.016C180.567 411.016 181.575 412.344 181.575 414.086C181.575 415.852 180.567 417.18 178.942 417.18ZM192.25 418.117C193.773 418.117 195.023 417.328 195.023 415.766C195.023 412.773 190.469 414.023 190.469 412.086C190.469 411.391 191.109 410.906 192.117 410.906C193.07 410.906 193.719 411.43 194.094 412.133L194.891 411.703C194.344 410.672 193.383 410.07 192.148 410.07C190.656 410.07 189.477 410.828 189.477 412.219C189.477 415.039 194.008 413.695 194.008 415.812C194.008 416.633 193.383 417.25 192.203 417.25C190.992 417.25 190.219 416.531 189.922 415.695L189.086 416.062C189.484 417.25 190.711 418.117 192.25 418.117ZM199.849 418.117C200.881 418.117 201.81 417.625 202.295 416.672V418H203.318V410.195H202.295V414.805C202.295 416.328 201.435 417.156 200.123 417.156C198.842 417.156 198.17 416.32 198.17 414.898V410.195H197.146V415.133C197.177 416.82 198.021 418.117 199.849 418.117ZM206.378 421.234H207.441V416.281C207.933 417.422 208.988 418.117 210.23 418.117C212.339 418.117 213.55 416.32 213.55 414.102C213.55 411.891 212.339 410.07 210.246 410.07C209.011 410.07 207.933 410.766 207.441 411.922V410.195H206.378V421.234ZM210.003 417.18C208.378 417.18 207.355 415.852 207.355 414.102C207.355 412.352 208.378 411.031 210.003 411.031C211.636 411.031 212.511 412.367 212.511 414.102C212.511 415.828 211.636 417.18 210.003 417.18ZM218.986 418.117C220.243 418.117 221.126 417.734 222.001 416.82L221.283 416.188C220.579 416.922 219.931 417.18 218.993 417.18C217.423 417.18 216.517 416.117 216.439 414.375H222.189C222.22 414.258 222.243 413.945 222.243 413.68C222.243 412.133 221.408 410.07 218.861 410.07C216.587 410.07 215.345 411.93 215.345 414.133C215.345 416.375 216.634 418.117 218.986 418.117ZM216.439 413.609C216.572 412.047 217.431 410.953 218.853 410.953C220.4 410.953 221.103 412.062 221.197 413.117C221.22 413.273 221.22 413.445 221.212 413.609H216.439ZM224.608 418H225.608V414.016C225.608 411.898 226.843 411.078 227.882 411.078C228.194 411.078 228.499 411.156 228.772 411.305L229.241 410.445C228.905 410.195 228.46 410.07 228.022 410.07C227.093 410.07 226.007 410.625 225.616 411.828V410.195H224.608V418ZM238.393 418.117C239.651 418.117 240.534 417.734 241.409 416.82L240.69 416.188C239.987 416.922 239.338 417.18 238.401 417.18C236.831 417.18 235.924 416.117 235.846 414.375H241.596C241.627 414.258 241.651 413.945 241.651 413.68C241.651 412.133 240.815 410.07 238.268 410.07C235.995 410.07 234.752 411.93 234.752 414.133C234.752 416.375 236.042 418.117 238.393 418.117ZM235.846 413.609C235.979 412.047 236.838 410.953 238.26 410.953C239.807 410.953 240.51 412.062 240.604 413.117C240.627 413.273 240.627 413.445 240.62 413.609H235.846ZM246.649 410.07C245.266 410.07 244.36 410.633 243.602 411.68L244.391 412.258C244.93 411.453 245.617 410.984 246.657 410.984C248.219 410.984 248.821 411.766 248.821 413.414V413.508H246.571C244.555 413.508 243.297 414.148 243.297 415.734C243.297 417.234 244.407 418.117 245.992 418.117C247.157 418.117 248.242 417.547 248.828 416.414L248.899 418H249.758V413.234C249.758 411.273 248.649 410.07 246.649 410.07ZM246.188 417.234C245.016 417.234 244.352 416.656 244.352 415.766C244.352 414.828 245.086 414.273 246.625 414.273H248.821V415.07C248.461 416.352 247.547 417.234 246.188 417.234ZM254.904 418.117C256.428 418.117 257.678 417.328 257.678 415.766C257.678 412.773 253.123 414.023 253.123 412.086C253.123 411.391 253.764 410.906 254.772 410.906C255.725 410.906 256.373 411.43 256.748 412.133L257.545 411.703C256.998 410.672 256.037 410.07 254.803 410.07C253.311 410.07 252.131 410.828 252.131 412.219C252.131 415.039 256.662 413.695 256.662 415.812C256.662 416.633 256.037 417.25 254.857 417.25C253.647 417.25 252.873 416.531 252.576 415.695L251.74 416.062C252.139 417.25 253.365 418.117 254.904 418.117ZM260.832 421.344H261.957L266.238 410.195H265.113L262.707 416.695L259.973 410.195H258.84L262.16 417.906L260.832 421.344ZM3.77344 446.117C4.21094 446.117 4.63281 446.039 4.875 445.961L4.85938 445.016C4.64062 445.102 4.28906 445.203 3.94531 445.203C3.11719 445.203 2.67969 444.75 2.67969 443.648V439.07H4.86719V438.195H2.67969V435.18L1.66406 435.938V438.195H0.351562V439.07H1.64844V443.812C1.64844 445.305 2.39062 446.117 3.77344 446.117ZM10.1384 446.117C12.365 446.117 13.9353 444.32 13.9353 442.078C13.9353 439.852 12.365 438.07 10.1384 438.07C7.91969 438.07 6.37281 439.852 6.37281 442.078C6.37281 444.328 7.91969 446.117 10.1384 446.117ZM10.1384 445.219C8.45094 445.219 7.44312 443.812 7.44312 442.078C7.44312 440.352 8.45094 438.977 10.1384 438.977C11.8416 438.977 12.865 440.359 12.865 442.078C12.865 443.805 11.8416 445.219 10.1384 445.219ZM23.1419 446.117C24.1731 446.117 25.1028 445.625 25.5872 444.672V446H26.6106V438.195H25.5872V442.805C25.5872 444.328 24.7278 445.156 23.4153 445.156C22.1341 445.156 21.4622 444.32 21.4622 442.898V438.195H20.4387V443.133C20.47 444.82 21.3137 446.117 23.1419 446.117ZM29.6553 446H30.6866V441.383C30.6866 439.867 31.5381 439.031 32.8584 439.031C34.1397 439.031 34.8116 439.875 34.8116 441.297V446H35.8428V441.055C35.8116 439.367 34.9522 438.07 33.1319 438.07C32.1006 438.07 31.1787 438.57 30.6866 439.523V438.195H29.6553V446ZM41.5203 446.117C42.7703 446.117 43.8562 445.406 44.3406 444.227L44.3797 446H45.3484V434.961H44.3016V439.914C43.8172 438.766 42.7312 438.07 41.5047 438.07C39.4031 438.07 38.0359 439.883 38.0359 442.086C38.0359 444.312 39.4031 446.117 41.5203 446.117ZM41.7469 445.18C40.1219 445.18 39.0828 443.828 39.0828 442.086C39.0828 440.359 40.1219 439.016 41.7469 439.016C43.3719 439.016 44.3797 440.344 44.3797 442.086C44.3797 443.852 43.3719 445.18 41.7469 445.18ZM51.4087 446.117C52.6666 446.117 53.5494 445.734 54.4244 444.82L53.7056 444.188C53.0025 444.922 52.3541 445.18 51.4166 445.18C49.8462 445.18 48.94 444.117 48.8619 442.375H54.6119C54.6431 442.258 54.6666 441.945 54.6666 441.68C54.6666 440.133 53.8306 438.07 51.2837 438.07C49.0103 438.07 47.7681 439.93 47.7681 442.133C47.7681 444.375 49.0572 446.117 51.4087 446.117ZM48.8619 441.609C48.9947 440.047 49.8541 438.953 51.2759 438.953C52.8228 438.953 53.5259 440.062 53.6197 441.117C53.6431 441.273 53.6431 441.445 53.6353 441.609H48.8619ZM57.0316 446H58.0316V442.016C58.0316 439.898 59.2659 439.078 60.305 439.078C60.6175 439.078 60.9222 439.156 61.1956 439.305L61.6644 438.445C61.3284 438.195 60.8831 438.07 60.4456 438.07C59.5159 438.07 58.43 438.625 58.0394 439.828V438.195H57.0316V446ZM65.4356 446.117C66.9591 446.117 68.2091 445.328 68.2091 443.766C68.2091 440.773 63.6544 442.023 63.6544 440.086C63.6544 439.391 64.295 438.906 65.3028 438.906C66.2559 438.906 66.9044 439.43 67.2794 440.133L68.0762 439.703C67.5294 438.672 66.5684 438.07 65.3341 438.07C63.8419 438.07 62.6622 438.828 62.6622 440.219C62.6622 443.039 67.1934 441.695 67.1934 443.812C67.1934 444.633 66.5684 445.25 65.3887 445.25C64.1778 445.25 63.4044 444.531 63.1075 443.695L62.2716 444.062C62.67 445.25 63.8966 446.117 65.4356 446.117ZM72.9803 446.117C73.4178 446.117 73.8397 446.039 74.0819 445.961L74.0662 445.016C73.8475 445.102 73.4959 445.203 73.1522 445.203C72.3241 445.203 71.8866 444.75 71.8866 443.648V439.07H74.0741V438.195H71.8866V435.18L70.8709 435.938V438.195H69.5584V439.07H70.8553V443.812C70.8553 445.305 71.5975 446.117 72.9803 446.117ZM79.0094 438.07C77.6266 438.07 76.7203 438.633 75.9625 439.68L76.7516 440.258C77.2906 439.453 77.9781 438.984 79.0172 438.984C80.5797 438.984 81.1812 439.766 81.1812 441.414V441.508H78.9312C76.9156 441.508 75.6578 442.148 75.6578 443.734C75.6578 445.234 76.7672 446.117 78.3531 446.117C79.5172 446.117 80.6031 445.547 81.1891 444.414L81.2594 446H82.1187V441.234C82.1187 439.273 81.0094 438.07 79.0094 438.07ZM78.5484 445.234C77.3766 445.234 76.7125 444.656 76.7125 443.766C76.7125 442.828 77.4469 442.273 78.9859 442.273H81.1812V443.07C80.8219 444.352 79.9078 445.234 78.5484 445.234ZM84.9447 446H85.9759V441.383C85.9759 439.867 86.8275 439.031 88.1478 439.031C89.4291 439.031 90.1009 439.875 90.1009 441.297V446H91.1322V441.055C91.1009 439.367 90.2416 438.07 88.4212 438.07C87.39 438.07 86.4681 438.57 85.9759 439.523V438.195H84.9447V446ZM96.8097 446.117C98.0597 446.117 99.1456 445.406 99.63 444.227L99.6691 446H100.638V434.961H99.5909V439.914C99.1066 438.766 98.0206 438.07 96.7941 438.07C94.6925 438.07 93.3253 439.883 93.3253 442.086C93.3253 444.312 94.6925 446.117 96.8097 446.117ZM97.0362 445.18C95.4112 445.18 94.3722 443.828 94.3722 442.086C94.3722 440.359 95.4112 439.016 97.0362 439.016C98.6612 439.016 99.6691 440.344 99.6691 442.086C99.6691 443.852 98.6612 445.18 97.0362 445.18Z" fill="#363641"/>
<path fill-rule="evenodd" clip-rule="evenodd" d="M1 362H283V352H1V362Z" fill="#4EDDA4"/>
<path fill-rule="evenodd" clip-rule="evenodd" d="M27 3C27 1.34315 28.3431 0 30 0H254C255.657 0 257 1.34315 257 3V310C257 311.657 255.657 313 254 313H30C28.3431 313 27 311.657 27 310V3Z" fill="white"/>
<path d="M27.5 3C27.5 1.61929 28.6193 0.5 30 0.5H254C255.381 0.5 256.5 1.61929 256.5 3V310C256.5 311.381 255.381 312.5 254 312.5H30C28.6193 312.5 27.5 311.381 27.5 310V3Z" stroke="#D1D1D1" stroke-opacity="0.5"/>
<rect x="114" y="26" width="56" height="56" rx="16" fill="url(#paint0_linear)"/>
<g filter="url(#filter0_d)">
<path fill-rule="evenodd" clip-rule="evenodd" d="M156.267 63.2764L156.267 63.2764C156.255 63.2764 156.244 63.2784 156.236 63.282C156.232 63.284 156.228 63.2867 156.223 63.2903C155.766 64.0241 154.884 64.6957 153.967 65.3935C153.303 65.8985 152.621 66.418 152.097 66.97C151.416 67.6859 151.389 67.8968 151.276 68.7745L151.262 68.8799C151.216 69.2403 151.041 69.5554 150.788 69.7804C150.534 70.0065 150.203 70.1421 149.844 70.1421C149.839 70.1421 149.817 70.1413 149.781 70.1397C149.398 70.1229 149.055 69.9541 148.808 69.6923C148.563 69.4318 148.412 69.0793 148.412 68.6935C148.412 68.6874 148.413 68.6661 148.415 68.6288C148.514 66.3718 148.787 66.0098 150.187 64.2254L144.781 64.239V64.2403C144.766 64.2403 144.752 64.2394 144.737 64.2376C144.277 64.2154 143.959 64.0529 143.742 63.8339C143.421 63.5102 143.339 63.0773 143.339 62.7888C143.339 62.7769 143.34 62.7651 143.341 62.7535C143.346 62.489 143.401 62.175 143.596 61.8934C143.642 61.8277 143.695 61.7643 143.756 61.7045C142.387 61.4739 142.387 60.442 142.387 60.1986C142.387 59.7467 142.558 59.3695 142.84 59.0944C143.064 58.8768 143.356 58.7276 143.685 58.6605C143.647 58.6242 143.612 58.5861 143.579 58.5463C143.359 58.2844 143.223 57.9491 143.223 57.6033C143.223 57.2128 143.379 56.8427 143.63 56.5609C143.881 56.279 144.23 56.0844 144.617 56.0452L144.69 56.0378C144.616 55.9523 144.552 55.8586 144.5 55.7588C144.392 55.5498 144.335 55.312 144.34 55.0659C144.347 54.749 144.449 54.4509 144.623 54.2059C144.798 53.96 145.046 53.7666 145.342 53.6599L145.484 53.6087L145.483 53.6073C145.532 53.5898 145.582 53.5839 145.63 53.5883C147.018 53.5864 148.057 53.556 148.887 53.5318C151.816 53.4462 152.19 53.4352 156.358 54.9526C156.395 54.9661 156.431 54.976 156.467 54.9824C156.504 54.989 156.541 54.9925 156.578 54.9927L158.24 55.0029C158.425 55.004 158.591 55.0801 158.711 55.2022C158.83 55.3243 158.904 55.4914 158.904 55.6747V62.6034C158.904 62.7875 158.83 62.9548 158.71 63.0766C158.588 63.2 158.421 63.2764 158.237 63.2764H156.267Z" fill="#FFFFFE"/>
</g>
<g filter="url(#filter1_d)">
<path fill-rule="evenodd" clip-rule="evenodd" d="M127.637 46.4575L127.637 46.4575C127.649 46.4575 127.66 46.4555 127.668 46.4519C127.672 46.4499 127.676 46.4472 127.681 46.4436C128.138 45.7097 129.02 45.0382 129.937 44.3404C130.601 43.8354 131.283 43.3159 131.807 42.7639C132.488 42.048 132.515 41.8371 132.628 40.9594L132.642 40.854C132.688 40.4935 132.863 40.1785 133.116 39.9535C133.37 39.7273 133.701 39.5918 134.06 39.5918C134.065 39.5918 134.087 39.5926 134.123 39.5942C134.506 39.611 134.849 39.7798 135.096 40.0416C135.341 40.3021 135.492 40.6546 135.492 41.0403C135.492 41.0465 135.491 41.0678 135.489 41.1051C135.391 43.3621 135.117 43.7241 133.717 45.5084L139.123 45.4949V45.4936C139.138 45.4936 139.152 45.4945 139.167 45.4963C139.627 45.5185 139.945 45.6809 140.162 45.9C140.483 46.2237 140.565 46.6566 140.565 46.9451C140.565 46.957 140.564 46.9688 140.563 46.9803C140.558 47.2449 140.503 47.5589 140.308 47.8404C140.262 47.9062 140.209 47.9696 140.148 48.0294C141.517 48.26 141.517 49.2919 141.517 49.5353C141.517 49.9872 141.346 50.3644 141.064 50.6395C140.84 50.8571 140.548 51.0063 140.219 51.0733C140.257 51.1096 140.292 51.1478 140.325 51.1876C140.545 51.4494 140.681 51.7848 140.681 52.1306C140.681 52.521 140.525 52.8912 140.274 53.173C140.023 53.4548 139.674 53.6494 139.287 53.6887L139.214 53.6961C139.288 53.7816 139.352 53.8753 139.404 53.9751C139.512 54.1841 139.569 54.4219 139.564 54.668C139.557 54.9849 139.455 55.283 139.281 55.5279C139.106 55.7739 138.858 55.9673 138.562 56.0739L138.42 56.1252L138.421 56.1266C138.372 56.1441 138.322 56.15 138.274 56.1456C136.886 56.1475 135.847 56.1779 135.017 56.2021C132.088 56.2877 131.714 56.2987 127.546 54.7813C127.509 54.7678 127.473 54.7579 127.437 54.7515C127.4 54.7449 127.363 54.7414 127.326 54.7412L125.664 54.731C125.479 54.7299 125.313 54.6538 125.193 54.5317C125.074 54.4096 125 54.2425 125 54.0592V47.1305C125 46.9464 125.074 46.7791 125.194 46.6573C125.316 46.5339 125.483 46.4575 125.667 46.4575H127.637Z" fill="#FFFFFE"/>
</g>
<path opacity="0.75" d="M123.499 117.129H125.163L128.987 105.929H127.211L124.699 113.737C124.603 114.041 124.459 114.505 124.347 115.017C124.235 114.505 124.091 114.041 123.995 113.737L121.451 105.929H119.659L123.499 117.129ZM132.953 117.321C135.241 117.321 136.697 115.737 136.697 113.049C136.697 110.361 135.241 108.761 132.953 108.761C130.665 108.761 129.225 110.361 129.225 113.049C129.225 115.737 130.665 117.321 132.953 117.321ZM132.953 115.753C131.689 115.753 130.889 114.729 130.889 113.049C130.889 111.369 131.689 110.329 132.953 110.329C134.233 110.329 135.033 111.369 135.033 113.049C135.033 114.729 134.233 115.753 132.953 115.753ZM141.071 117.321C141.727 117.321 142.271 117.177 142.719 116.953L142.927 115.401C142.511 115.657 142.111 115.785 141.711 115.785C141.071 115.785 140.911 115.401 140.911 114.857V110.393H142.847V108.953H140.911V105.577L139.247 106.377V108.953H137.983V110.393H139.247V115.289C139.247 116.521 139.775 117.321 141.071 117.321ZM145.614 107.673C146.174 107.673 146.622 107.225 146.622 106.665C146.622 106.105 146.174 105.657 145.614 105.657C145.054 105.657 144.606 106.105 144.606 106.665C144.606 107.225 145.054 107.673 145.614 107.673ZM144.782 117.129H146.446V108.953H144.782V117.129ZM153.916 117.129H155.58V112.249C155.58 109.689 154.348 108.761 152.636 108.761C151.74 108.761 151.052 109.065 150.524 109.737V108.953H148.86V117.129H150.524V112.217C150.524 110.809 151.292 110.329 152.284 110.329C153.212 110.329 153.916 110.873 153.916 112.249V117.129ZM160.643 120.329C163.171 120.153 164.499 119.193 164.499 116.601V108.953H162.835V109.529C162.483 109.161 161.859 108.761 160.899 108.761C158.899 108.761 157.507 110.345 157.507 113.033C157.507 115.881 158.995 117.321 160.867 117.321C161.715 117.321 162.371 117.049 162.835 116.473V117.193C162.835 118.201 162.211 118.905 159.811 119.049L160.643 120.329ZM161.171 115.753C159.939 115.753 159.171 114.697 159.171 113.033C159.171 111.289 159.875 110.329 161.171 110.329C161.843 110.329 162.499 110.713 162.835 111.257V114.793C162.467 115.401 161.843 115.753 161.171 115.753Z" fill="black"/>
<path opacity="0.75" d="M83.9468 158.518H85.1018L88.6868 148.018H87.2918L84.8618 155.608C84.7718 155.908 84.6518 156.283 84.5618 156.673C84.4568 156.283 84.3368 155.908 84.2468 155.608L81.7418 148.018H80.3468L83.9468 158.518ZM92.469 158.698C94.524 158.698 95.859 157.198 95.859 154.678C95.859 152.143 94.524 150.673 92.469 150.673C90.414 150.673 89.079 152.173 89.079 154.693C89.079 157.228 90.414 158.698 92.469 158.698ZM92.469 157.483C91.164 157.483 90.399 156.433 90.399 154.693C90.399 152.908 91.164 151.873 92.469 151.873C93.774 151.873 94.539 152.938 94.539 154.678C94.539 156.433 93.759 157.483 92.469 157.483ZM99.9633 158.698C100.563 158.698 101.028 158.563 101.433 158.353L101.583 157.078C101.253 157.288 100.878 157.483 100.443 157.483C99.7683 157.483 99.6483 157.018 99.6483 156.433V151.993H101.538V150.853H99.6483V147.688L98.3433 148.318V150.853H97.0983V151.993H98.3433V156.868C98.3433 157.948 98.8083 158.698 99.9633 158.698ZM106.312 158.698C107.347 158.698 108.217 158.278 108.787 157.708L107.992 156.823C107.512 157.303 106.927 157.513 106.342 157.513C105.187 157.513 104.347 156.598 104.242 155.188H109.432C109.462 154.888 109.477 154.558 109.477 154.318C109.477 151.798 108.037 150.673 106.312 150.673C104.272 150.673 102.907 152.143 102.907 154.678C102.907 157.018 104.212 158.698 106.312 158.698ZM104.227 154.078C104.302 152.503 105.202 151.828 106.312 151.828C107.122 151.828 108.142 152.338 108.157 154.078H104.227ZM117.899 158.698C119.954 158.698 121.289 157.198 121.289 154.678C121.289 152.143 119.954 150.673 117.899 150.673C115.844 150.673 114.509 152.173 114.509 154.693C114.509 157.228 115.844 158.698 117.899 158.698ZM117.899 157.483C116.594 157.483 115.829 156.433 115.829 154.693C115.829 152.908 116.594 151.873 117.899 151.873C119.204 151.873 119.969 152.938 119.969 154.678C119.969 156.433 119.189 157.483 117.899 157.483ZM128.048 158.518H129.353V154.108C129.353 151.633 128.348 150.673 126.608 150.673C125.783 150.673 125.108 150.973 124.628 151.633V150.853H123.323V158.518H124.628V153.853C124.628 152.368 125.393 151.873 126.398 151.873C127.343 151.873 128.048 152.428 128.048 153.883V158.518ZM135.965 149.458C136.43 149.458 136.79 149.098 136.79 148.648C136.79 148.183 136.43 147.808 135.965 147.808C135.515 147.808 135.155 148.183 135.155 148.648C135.155 149.098 135.515 149.458 135.965 149.458ZM135.32 158.518H136.625V150.853H135.32V158.518ZM148.099 158.518H149.404V153.493C149.404 151.633 148.234 150.673 146.704 150.673C145.714 150.673 144.934 151.108 144.484 151.798C144.049 151.048 143.254 150.673 142.429 150.673C141.619 150.673 140.884 150.958 140.419 151.573V150.853H139.114V158.518H140.419V153.853C140.419 152.638 141.049 151.873 142.069 151.873C143.254 151.873 143.599 152.818 143.599 153.868V158.518H144.904V153.913C144.904 152.698 145.564 151.873 146.554 151.873C147.739 151.873 148.099 152.818 148.099 153.868V158.518ZM155.07 158.698C156.93 158.698 158.235 157.228 158.235 154.678C158.235 152.218 157.02 150.673 155.07 150.673C154.11 150.673 153.555 151.048 153.105 151.498V150.853H151.8V161.548L153.105 160.933V157.798C153.51 158.278 154.08 158.698 155.07 158.698ZM154.905 157.483C154.125 157.483 153.54 157.018 153.105 156.448V152.908C153.48 152.248 154.125 151.873 154.905 151.873C156.165 151.873 156.9 153.013 156.9 154.678C156.9 156.493 156.18 157.483 154.905 157.483ZM163.206 158.698C165.261 158.698 166.596 157.198 166.596 154.678C166.596 152.143 165.261 150.673 163.206 150.673C161.151 150.673 159.816 152.173 159.816 154.693C159.816 157.228 161.151 158.698 163.206 158.698ZM163.206 157.483C161.901 157.483 161.136 156.433 161.136 154.693C161.136 152.908 161.901 151.873 163.206 151.873C164.511 151.873 165.276 152.938 165.276 154.678C165.276 156.433 164.496 157.483 163.206 157.483ZM168.631 158.518H169.936V154.198C169.936 152.458 170.911 151.963 171.646 151.963C172.171 151.963 172.501 152.128 172.741 152.293L172.936 151.063C172.666 150.838 172.246 150.673 171.751 150.673C170.896 150.673 170.281 151.093 169.936 151.858V150.853H168.631V158.518ZM176.75 158.698C177.35 158.698 177.815 158.563 178.22 158.353L178.37 157.078C178.04 157.288 177.665 157.483 177.23 157.483C176.555 157.483 176.435 157.018 176.435 156.433V151.993H178.325V150.853H176.435V147.688L175.13 148.318V150.853H173.885V151.993H175.13V156.868C175.13 157.948 175.595 158.698 176.75 158.698ZM184.539 158.518H185.769V153.433C185.769 151.078 184.239 150.673 183.039 150.673C181.884 150.673 180.879 151.078 180.264 151.483L180.639 152.578C181.209 152.173 182.019 151.813 182.874 151.813C183.864 151.813 184.539 152.188 184.539 153.538V154.078C183.909 153.718 183.234 153.583 182.559 153.583C181.074 153.583 179.694 154.348 179.694 156.118C179.694 157.828 180.804 158.698 182.364 158.698C183.279 158.698 184.029 158.293 184.539 157.813V158.518ZM182.559 157.543C181.509 157.543 180.924 156.973 180.924 156.118C180.924 155.143 181.749 154.708 182.739 154.708C183.369 154.708 184.074 154.933 184.539 155.218V156.538C184.104 157.048 183.414 157.543 182.559 157.543ZM192.765 158.518H194.07V154.108C194.07 151.633 193.065 150.673 191.325 150.673C190.5 150.673 189.825 150.973 189.345 151.633V150.853H188.04V158.518H189.345V153.853C189.345 152.368 190.11 151.873 191.115 151.873C192.06 151.873 192.765 152.428 192.765 153.883V158.518ZM198.562 158.698C199.162 158.698 199.627 158.563 200.032 158.353L200.182 157.078C199.852 157.288 199.477 157.483 199.042 157.483C198.367 157.483 198.247 157.018 198.247 156.433V151.993H200.137V150.853H198.247V147.688L196.942 148.318V150.853H195.697V151.993H196.942V156.868C196.942 157.948 197.407 158.698 198.562 158.698ZM76.9955 180.518H78.3005V175.493C78.3005 173.633 77.1305 172.673 75.6005 172.673C74.6105 172.673 73.8305 173.108 73.3805 173.798C72.9455 173.048 72.1505 172.673 71.3255 172.673C70.5155 172.673 69.7805 172.958 69.3155 173.573V172.853H68.0105V180.518H69.3155V175.853C69.3155 174.638 69.9455 173.873 70.9655 173.873C72.1505 173.873 72.4955 174.818 72.4955 175.868V180.518H73.8005V175.913C73.8005 174.698 74.4605 173.873 75.4505 173.873C76.6355 173.873 76.9955 174.818 76.9955 175.868V180.518ZM85.091 180.518H86.321V175.433C86.321 173.078 84.791 172.673 83.591 172.673C82.436 172.673 81.431 173.078 80.816 173.483L81.191 174.578C81.761 174.173 82.571 173.813 83.426 173.813C84.416 173.813 85.091 174.188 85.091 175.538V176.078C84.461 175.718 83.786 175.583 83.111 175.583C81.626 175.583 80.246 176.348 80.246 178.118C80.246 179.828 81.356 180.698 82.916 180.698C83.831 180.698 84.581 180.293 85.091 179.813V180.518ZM83.111 179.543C82.061 179.543 81.476 178.973 81.476 178.118C81.476 177.143 82.301 176.708 83.291 176.708C83.921 176.708 84.626 176.933 85.091 177.218V178.538C84.656 179.048 83.966 179.543 83.111 179.543ZM90.6615 180.698C91.2615 180.698 91.7265 180.563 92.1315 180.353L92.2815 179.078C91.9515 179.288 91.5765 179.483 91.1415 179.483C90.4665 179.483 90.3465 179.018 90.3465 178.433V173.993H92.2365V172.853H90.3465V169.688L89.0415 170.318V172.853H87.7965V173.993H89.0415V178.868C89.0415 179.948 89.5065 180.698 90.6615 180.698ZM96.0522 180.698C96.6522 180.698 97.1172 180.563 97.5222 180.353L97.6722 179.078C97.3422 179.288 96.9672 179.483 96.5322 179.483C95.8572 179.483 95.7372 179.018 95.7372 178.433V173.993H97.6272V172.853H95.7372V169.688L94.4322 170.318V172.853H93.1872V173.993H94.4322V178.868C94.4322 179.948 94.8972 180.698 96.0522 180.698ZM102.401 180.698C103.436 180.698 104.306 180.278 104.876 179.708L104.081 178.823C103.601 179.303 103.016 179.513 102.431 179.513C101.276 179.513 100.436 178.598 100.331 177.188H105.521C105.551 176.888 105.566 176.558 105.566 176.318C105.566 173.798 104.126 172.673 102.401 172.673C100.361 172.673 98.996 174.143 98.996 176.678C98.996 179.018 100.301 180.698 102.401 180.698ZM100.316 176.078C100.391 174.503 101.291 173.828 102.401 173.828C103.211 173.828 104.231 174.338 104.246 176.078H100.316ZM107.517 180.518H108.822V176.198C108.822 174.458 109.797 173.963 110.532 173.963C111.057 173.963 111.387 174.128 111.627 174.293L111.822 173.063C111.552 172.838 111.132 172.673 110.637 172.673C109.782 172.673 109.167 173.093 108.822 173.858V172.853H107.517V180.518ZM115.612 180.698C117.277 180.698 118.342 179.903 118.342 178.523C118.342 177.068 117.247 176.468 115.852 175.973C114.997 175.628 114.232 175.343 114.232 174.698C114.232 174.158 114.727 173.843 115.507 173.843C116.332 173.843 116.872 174.233 117.202 174.578L118.102 173.828C117.547 173.168 116.692 172.673 115.522 172.673C114.052 172.673 112.942 173.438 112.942 174.698C112.942 175.958 113.902 176.573 115.312 177.098C116.212 177.443 117.067 177.788 117.067 178.553C117.067 179.228 116.452 179.528 115.642 179.528C114.817 179.528 114.157 179.033 113.767 178.613L112.837 179.408C113.437 180.173 114.487 180.698 115.612 180.698ZM119.989 182.408L120.424 182.633C121.264 182.123 121.924 181.163 121.924 180.008C121.924 179.108 121.369 178.688 120.784 178.688C120.244 178.688 119.779 179.108 119.779 179.753C119.779 180.323 120.244 180.728 120.829 180.758C120.784 181.523 120.259 182.168 119.989 182.408ZM131.673 180.518H132.903V175.433C132.903 173.078 131.373 172.673 130.173 172.673C129.018 172.673 128.013 173.078 127.398 173.483L127.773 174.578C128.343 174.173 129.153 173.813 130.008 173.813C130.998 173.813 131.673 174.188 131.673 175.538V176.078C131.043 175.718 130.368 175.583 129.693 175.583C128.208 175.583 126.828 176.348 126.828 178.118C126.828 179.828 127.938 180.698 129.498 180.698C130.413 180.698 131.163 180.293 131.673 179.813V180.518ZM129.693 179.543C128.643 179.543 128.058 178.973 128.058 178.118C128.058 177.143 128.883 176.708 129.873 176.708C130.503 176.708 131.208 176.933 131.673 177.218V178.538C131.238 179.048 130.548 179.543 129.693 179.543ZM139.899 180.518H141.204V176.108C141.204 173.633 140.199 172.673 138.459 172.673C137.634 172.673 136.959 172.973 136.479 173.633V172.853H135.174V180.518H136.479V175.853C136.479 174.368 137.244 173.873 138.249 173.873C139.194 173.873 139.899 174.428 139.899 175.883V180.518ZM146.341 180.698C147.256 180.698 147.841 180.368 148.276 179.918V180.518H149.581V169.688L148.276 170.303V173.393C147.841 173.003 147.241 172.673 146.341 172.673C144.436 172.673 143.176 174.158 143.176 176.678C143.176 179.153 144.391 180.698 146.341 180.698ZM146.521 179.483C145.261 179.483 144.496 178.268 144.496 176.678C144.496 174.878 145.231 173.873 146.521 173.873C147.406 173.873 147.991 174.398 148.276 174.848V178.448C147.886 179.108 147.241 179.483 146.521 179.483ZM157.844 180.698C159.509 180.698 160.574 179.903 160.574 178.523C160.574 177.068 159.479 176.468 158.084 175.973C157.229 175.628 156.464 175.343 156.464 174.698C156.464 174.158 156.959 173.843 157.739 173.843C158.564 173.843 159.104 174.233 159.434 174.578L160.334 173.828C159.779 173.168 158.924 172.673 157.754 172.673C156.284 172.673 155.174 173.438 155.174 174.698C155.174 175.958 156.134 176.573 157.544 177.098C158.444 177.443 159.299 177.788 159.299 178.553C159.299 179.228 158.684 179.528 157.874 179.528C157.049 179.528 156.389 179.033 155.999 178.613L155.069 179.408C155.669 180.173 156.719 180.698 157.844 180.698ZM165.565 180.698C166.6 180.698 167.47 180.278 168.04 179.708L167.245 178.823C166.765 179.303 166.18 179.513 165.595 179.513C164.44 179.513 163.6 178.598 163.495 177.188H168.685C168.715 176.888 168.73 176.558 168.73 176.318C168.73 173.798 167.29 172.673 165.565 172.673C163.525 172.673 162.16 174.143 162.16 176.678C162.16 179.018 163.465 180.698 165.565 180.698ZM163.48 176.078C163.555 174.503 164.455 173.828 165.565 173.828C166.375 173.828 167.395 174.338 167.41 176.078H163.48ZM173.636 180.698C174.671 180.698 175.541 180.278 176.111 179.708L175.316 178.823C174.836 179.303 174.251 179.513 173.666 179.513C172.511 179.513 171.671 178.598 171.566 177.188H176.756C176.786 176.888 176.801 176.558 176.801 176.318C176.801 173.798 175.361 172.673 173.636 172.673C171.596 172.673 170.231 174.143 170.231 176.678C170.231 179.018 171.536 180.698 173.636 180.698ZM171.551 176.078C171.626 174.503 172.526 173.828 173.636 173.828C174.446 173.828 175.466 174.338 175.481 176.078H171.551ZM183.573 180.518H184.743L186.123 175.973C186.213 175.673 186.318 175.268 186.393 174.968C186.468 175.268 186.588 175.673 186.678 175.973L188.073 180.518H189.243L191.208 172.853H189.918L188.763 177.998C188.703 178.313 188.643 178.583 188.598 178.838L188.388 177.998L186.948 172.853H185.868L184.428 177.998C184.353 178.283 184.278 178.553 184.233 178.808C184.188 178.553 184.128 178.298 184.068 177.998L182.898 172.853H181.608L183.573 180.518ZM193.006 180.518H194.311V175.853C194.311 174.368 195.076 173.873 196.081 173.873C197.026 173.873 197.731 174.428 197.731 175.883V180.518H199.036V176.108C199.036 173.633 198.031 172.673 196.291 172.673C195.466 172.673 194.791 172.988 194.311 173.648V169.688L193.006 170.288V180.518ZM205.853 180.518H207.083V175.433C207.083 173.078 205.553 172.673 204.353 172.673C203.198 172.673 202.193 173.078 201.578 173.483L201.953 174.578C202.523 174.173 203.333 173.813 204.188 173.813C205.178 173.813 205.853 174.188 205.853 175.538V176.078C205.223 175.718 204.548 175.583 203.873 175.583C202.388 175.583 201.008 176.348 201.008 178.118C201.008 179.828 202.118 180.698 203.678 180.698C204.593 180.698 205.343 180.293 205.853 179.813V180.518ZM203.873 179.543C202.823 179.543 202.238 178.973 202.238 178.118C202.238 177.143 203.063 176.708 204.053 176.708C204.683 176.708 205.388 176.933 205.853 177.218V178.538C205.418 179.048 204.728 179.543 203.873 179.543ZM211.423 180.698C212.023 180.698 212.488 180.563 212.893 180.353L213.043 179.078C212.713 179.288 212.338 179.483 211.903 179.483C211.228 179.483 211.108 179.018 211.108 178.433V173.993H212.998V172.853H211.108V169.688L209.803 170.318V172.853H208.558V173.993H209.803V178.868C209.803 179.948 210.268 180.698 211.423 180.698ZM74.1072 202.698C76.1622 202.698 77.4972 201.198 77.4972 198.678C77.4972 196.143 76.1622 194.673 74.1072 194.673C72.0522 194.673 70.7172 196.173 70.7172 198.693C70.7172 201.228 72.0522 202.698 74.1072 202.698ZM74.1072 201.483C72.8022 201.483 72.0372 200.433 72.0372 198.693C72.0372 196.908 72.8022 195.873 74.1072 195.873C75.4122 195.873 76.1772 196.938 76.1772 198.678C76.1772 200.433 75.3972 201.483 74.1072 201.483ZM81.6015 202.698C82.2015 202.698 82.6665 202.563 83.0715 202.353L83.2215 201.078C82.8915 201.288 82.5165 201.483 82.0815 201.483C81.4065 201.483 81.2865 201.018 81.2865 200.433V195.993H83.1765V194.853H81.2865V191.688L79.9815 192.318V194.853H78.7365V195.993H79.9815V200.868C79.9815 201.948 80.4465 202.698 81.6015 202.698ZM85.1418 202.518H86.4468V197.853C86.4468 196.368 87.2118 195.873 88.2168 195.873C89.1618 195.873 89.8668 196.428 89.8668 197.883V202.518H91.1718V198.108C91.1718 195.633 90.1668 194.673 88.4268 194.673C87.6018 194.673 86.9268 194.988 86.4468 195.648V191.688L85.1418 192.288V202.518ZM96.549 202.698C97.584 202.698 98.454 202.278 99.024 201.708L98.229 200.823C97.749 201.303 97.164 201.513 96.579 201.513C95.424 201.513 94.584 200.598 94.479 199.188H99.669C99.699 198.888 99.714 198.558 99.714 198.318C99.714 195.798 98.274 194.673 96.549 194.673C94.509 194.673 93.144 196.143 93.144 198.678C93.144 201.018 94.449 202.698 96.549 202.698ZM94.464 198.078C94.539 196.503 95.439 195.828 96.549 195.828C97.359 195.828 98.379 196.338 98.394 198.078H94.464ZM101.665 202.518H102.97V198.198C102.97 196.458 103.945 195.963 104.68 195.963C105.205 195.963 105.535 196.128 105.775 196.293L105.97 195.063C105.7 194.838 105.28 194.673 104.785 194.673C103.93 194.673 103.315 195.093 102.97 195.858V194.853H101.665V202.518ZM109.76 202.698C111.425 202.698 112.49 201.903 112.49 200.523C112.49 199.068 111.395 198.468 110 197.973C109.145 197.628 108.38 197.343 108.38 196.698C108.38 196.158 108.875 195.843 109.655 195.843C110.48 195.843 111.02 196.233 111.35 196.578L112.25 195.828C111.695 195.168 110.84 194.673 109.67 194.673C108.2 194.673 107.09 195.438 107.09 196.698C107.09 197.958 108.05 198.573 109.46 199.098C110.36 199.443 111.215 199.788 111.215 200.553C111.215 201.228 110.6 201.528 109.79 201.528C108.965 201.528 108.305 201.033 107.915 200.613L106.985 201.408C107.585 202.173 108.635 202.698 109.76 202.698ZM118.057 202.518H119.362V197.853C119.362 196.368 120.127 195.873 121.132 195.873C122.077 195.873 122.782 196.428 122.782 197.883V202.518H124.087V198.108C124.087 195.633 123.082 194.673 121.342 194.673C120.517 194.673 119.842 194.988 119.362 195.648V191.688L118.057 192.288V202.518ZM130.904 202.518H132.134V197.433C132.134 195.078 130.604 194.673 129.404 194.673C128.249 194.673 127.244 195.078 126.629 195.483L127.004 196.578C127.574 196.173 128.384 195.813 129.239 195.813C130.229 195.813 130.904 196.188 130.904 197.538V198.078C130.274 197.718 129.599 197.583 128.924 197.583C127.439 197.583 126.059 198.348 126.059 200.118C126.059 201.828 127.169 202.698 128.729 202.698C129.644 202.698 130.394 202.293 130.904 201.813V202.518ZM128.924 201.543C127.874 201.543 127.289 200.973 127.289 200.118C127.289 199.143 128.114 198.708 129.104 198.708C129.734 198.708 130.439 198.933 130.904 199.218V200.538C130.469 201.048 129.779 201.543 128.924 201.543ZM136.24 202.518H137.335L140.14 194.853H138.835L137.05 199.968C136.96 200.238 136.885 200.448 136.81 200.718C136.735 200.448 136.66 200.238 136.57 199.968L134.755 194.853H133.435L136.24 202.518ZM144.816 202.698C145.851 202.698 146.721 202.278 147.291 201.708L146.496 200.823C146.016 201.303 145.431 201.513 144.846 201.513C143.691 201.513 142.851 200.598 142.746 199.188H147.936C147.966 198.888 147.981 198.558 147.981 198.318C147.981 195.798 146.541 194.673 144.816 194.673C142.776 194.673 141.411 196.143 141.411 198.678C141.411 201.018 142.716 202.698 144.816 202.698ZM142.731 198.078C142.806 196.503 143.706 195.828 144.816 195.828C145.626 195.828 146.646 196.338 146.661 198.078H142.731ZM155.517 202.518H156.612L159.417 194.853H158.112L156.327 199.968C156.237 200.238 156.162 200.448 156.087 200.718C156.012 200.448 155.937 200.238 155.847 199.968L154.032 194.853H152.712L155.517 202.518ZM164.078 202.698C166.133 202.698 167.468 201.198 167.468 198.678C167.468 196.143 166.133 194.673 164.078 194.673C162.023 194.673 160.688 196.173 160.688 198.693C160.688 201.228 162.023 202.698 164.078 202.698ZM164.078 201.483C162.773 201.483 162.008 200.433 162.008 198.693C162.008 196.908 162.773 195.873 164.078 195.873C165.383 195.873 166.148 196.938 166.148 198.678C166.148 200.433 165.368 201.483 164.078 201.483ZM171.572 202.698C172.172 202.698 172.637 202.563 173.042 202.353L173.192 201.078C172.862 201.288 172.487 201.483 172.052 201.483C171.377 201.483 171.257 201.018 171.257 200.433V195.993H173.147V194.853H171.257V191.688L169.952 192.318V194.853H168.707V195.993H169.952V200.868C169.952 201.948 170.417 202.698 171.572 202.698ZM177.921 202.698C178.956 202.698 179.826 202.278 180.396 201.708L179.601 200.823C179.121 201.303 178.536 201.513 177.951 201.513C176.796 201.513 175.956 200.598 175.851 199.188H181.041C181.071 198.888 181.086 198.558 181.086 198.318C181.086 195.798 179.646 194.673 177.921 194.673C175.881 194.673 174.516 196.143 174.516 198.678C174.516 201.018 175.821 202.698 177.921 202.698ZM175.836 198.078C175.911 196.503 176.811 195.828 177.921 195.828C178.731 195.828 179.751 196.338 179.766 198.078H175.836ZM185.752 202.698C186.667 202.698 187.252 202.368 187.687 201.918V202.518H188.992V191.688L187.687 192.303V195.393C187.252 195.003 186.652 194.673 185.752 194.673C183.847 194.673 182.587 196.158 182.587 198.678C182.587 201.153 183.802 202.698 185.752 202.698ZM185.932 201.483C184.672 201.483 183.907 200.268 183.907 198.678C183.907 196.878 184.642 195.873 185.932 195.873C186.817 195.873 187.402 196.398 187.687 196.848V200.448C187.297 201.108 186.652 201.483 185.932 201.483ZM197.93 202.698C199.985 202.698 201.32 201.198 201.32 198.678C201.32 196.143 199.985 194.673 197.93 194.673C195.875 194.673 194.54 196.173 194.54 198.693C194.54 201.228 195.875 202.698 197.93 202.698ZM197.93 201.483C196.625 201.483 195.86 200.433 195.86 198.693C195.86 196.908 196.625 195.873 197.93 195.873C199.235 195.873 200 196.938 200 198.678C200 200.433 199.22 201.483 197.93 201.483ZM208.08 202.518H209.385V198.108C209.385 195.633 208.38 194.673 206.64 194.673C205.815 194.673 205.14 194.973 204.66 195.633V194.853H203.355V202.518H204.66V197.853C204.66 196.368 205.425 195.873 206.43 195.873C207.375 195.873 208.08 196.428 208.08 197.883V202.518Z" fill="black"/>
<path d="M59.5649 250C59.5649 248.619 60.6842 247.5 62.0649 247.5H218.936C220.317 247.5 221.436 248.619 221.436 250V280.194C221.436 281.574 220.317 282.694 218.936 282.694H62.0649C60.6842 282.694 59.5649 281.574 59.5649 280.194V250Z" stroke="#E6E6E6"/>
<path d="M100.385 271H101.54L105.125 260.5H103.73L101.3 268.09C101.21 268.39 101.09 268.765 101 269.155C100.895 268.765 100.775 268.39 100.685 268.09L98.1799 260.5H96.7849L100.385 271ZM107.755 261.94C108.22 261.94 108.58 261.58 108.58 261.13C108.58 260.665 108.22 260.29 107.755 260.29C107.305 260.29 106.945 260.665 106.945 261.13C106.945 261.58 107.305 261.94 107.755 261.94ZM107.11 271H108.415V263.335H107.11V271ZM113.859 271.18C114.894 271.18 115.764 270.76 116.334 270.19L115.539 269.305C115.059 269.785 114.474 269.995 113.889 269.995C112.734 269.995 111.894 269.08 111.789 267.67H116.979C117.009 267.37 117.024 267.04 117.024 266.8C117.024 264.28 115.584 263.155 113.859 263.155C111.819 263.155 110.454 264.625 110.454 267.16C110.454 269.5 111.759 271.18 113.859 271.18ZM111.774 266.56C111.849 264.985 112.749 264.31 113.859 264.31C114.669 264.31 115.689 264.82 115.704 266.56H111.774ZM120.118 271H121.288L122.668 266.455C122.758 266.155 122.863 265.75 122.938 265.45C123.013 265.75 123.133 266.155 123.223 266.455L124.618 271H125.788L127.753 263.335H126.463L125.308 268.48C125.248 268.795 125.188 269.065 125.143 269.32L124.933 268.48L123.493 263.335H122.413L120.973 268.48C120.898 268.765 120.823 269.035 120.778 269.29C120.733 269.035 120.673 268.78 120.613 268.48L119.443 263.335H118.153L120.118 271ZM135.796 271.18C136.711 271.18 137.296 270.85 137.731 270.4V271H139.036V260.17L137.731 260.785V263.875C137.296 263.485 136.696 263.155 135.796 263.155C133.891 263.155 132.631 264.64 132.631 267.16C132.631 269.635 133.846 271.18 135.796 271.18ZM135.976 269.965C134.716 269.965 133.951 268.75 133.951 267.16C133.951 265.36 134.686 264.355 135.976 264.355C136.861 264.355 137.446 264.88 137.731 265.33V268.93C137.341 269.59 136.696 269.965 135.976 269.965ZM144.459 271.18C145.494 271.18 146.364 270.76 146.934 270.19L146.139 269.305C145.659 269.785 145.074 269.995 144.489 269.995C143.334 269.995 142.494 269.08 142.389 267.67H147.579C147.609 267.37 147.624 267.04 147.624 266.8C147.624 264.28 146.184 263.155 144.459 263.155C142.419 263.155 141.054 264.625 141.054 267.16C141.054 269.5 142.359 271.18 144.459 271.18ZM142.374 266.56C142.449 264.985 143.349 264.31 144.459 264.31C145.269 264.31 146.289 264.82 146.304 266.56H142.374ZM151.499 271.18C152.099 271.18 152.564 271.045 152.969 270.835L153.119 269.56C152.789 269.77 152.414 269.965 151.979 269.965C151.304 269.965 151.184 269.5 151.184 268.915V264.475H153.074V263.335H151.184V260.17L149.879 260.8V263.335H148.634V264.475H149.879V269.35C149.879 270.43 150.344 271.18 151.499 271.18ZM159.288 271H160.518V265.915C160.518 263.56 158.988 263.155 157.788 263.155C156.633 263.155 155.628 263.56 155.013 263.965L155.388 265.06C155.958 264.655 156.768 264.295 157.623 264.295C158.613 264.295 159.288 264.67 159.288 266.02V266.56C158.658 266.2 157.983 266.065 157.308 266.065C155.823 266.065 154.443 266.83 154.443 268.6C154.443 270.31 155.553 271.18 157.113 271.18C158.028 271.18 158.778 270.775 159.288 270.295V271ZM157.308 270.025C156.258 270.025 155.673 269.455 155.673 268.6C155.673 267.625 156.498 267.19 157.488 267.19C158.118 267.19 158.823 267.415 159.288 267.7V269.02C158.853 269.53 158.163 270.025 157.308 270.025ZM163.448 261.94C163.913 261.94 164.273 261.58 164.273 261.13C164.273 260.665 163.913 260.29 163.448 260.29C162.998 260.29 162.638 260.665 162.638 261.13C162.638 261.58 162.998 261.94 163.448 261.94ZM162.803 271H164.108V263.335H162.803V271ZM166.672 271H167.977V260.17L166.672 260.785V271ZM172.788 271.18C174.453 271.18 175.518 270.385 175.518 269.005C175.518 267.55 174.423 266.95 173.028 266.455C172.173 266.11 171.408 265.825 171.408 265.18C171.408 264.64 171.903 264.325 172.683 264.325C173.508 264.325 174.048 264.715 174.378 265.06L175.278 264.31C174.723 263.65 173.868 263.155 172.698 263.155C171.228 263.155 170.118 263.92 170.118 265.18C170.118 266.44 171.078 267.055 172.488 267.58C173.388 267.925 174.243 268.27 174.243 269.035C174.243 269.71 173.628 270.01 172.818 270.01C171.993 270.01 171.333 269.515 170.943 269.095L170.013 269.89C170.613 270.655 171.663 271.18 172.788 271.18Z" fill="#707070"/>
<defs>
<filter id="filter0_d" x="138.387" y="49.501" width="24.5173" height="24.6411" filterUnits="userSpaceOnUse" color-interpolation-filters="sRGB">
<feFlood flood-opacity="0" result="BackgroundImageFix"/>
<feColorMatrix in="SourceAlpha" type="matrix" values="0 0 0 0 0 0 0 0 0 0 0 0 0 0 0 0 0 0 127 0"/>
<feOffset/>
<feGaussianBlur stdDeviation="2"/>
<feColorMatrix type="matrix" values="0 0 0 0 1 0 0 0 0 1 0 0 0 0 1 0 0 0 0.5 0"/>
<feBlend mode="normal" in2="BackgroundImageFix" result="effect1_dropShadow"/>
<feBlend mode="normal" in="SourceGraphic" in2="effect1_dropShadow" result="shape"/>
</filter>
<filter id="filter1_d" x="121" y="35.5918" width="24.5173" height="24.6411" filterUnits="userSpaceOnUse" color-interpolation-filters="sRGB">
<feFlood flood-opacity="0" result="BackgroundImageFix"/>
<feColorMatrix in="SourceAlpha" type="matrix" values="0 0 0 0 0 0 0 0 0 0 0 0 0 0 0 0 0 0 127 0"/>
<feOffset/>
<feGaussianBlur stdDeviation="2"/>
<feColorMatrix type="matrix" values="0 0 0 0 1 0 0 0 0 1 0 0 0 0 1 0 0 0 0.5 0"/>
<feBlend mode="normal" in2="BackgroundImageFix" result="effect1_dropShadow"/>
<feBlend mode="normal" in="SourceGraphic" in2="effect1_dropShadow" result="shape"/>
</filter>
<linearGradient id="paint0_linear" x1="114" y1="16.6618" x2="95.3236" y2="72.6618" gradientUnits="userSpaceOnUse">
<stop stop-color="#A8ED2F"/>
<stop offset="1" stop-color="#68DFB1"/>
</linearGradient>
</defs>
</svg>
