<svg width="136" height="116" viewBox="0 0 136 116" xmlns="http://www.w3.org/2000/svg"><defs><linearGradient x1="0%" y1="100%" y2="0%" id="a"><stop stop-color="#F19F73" offset="0%"/><stop stop-color="#A74EB5" offset="100%"/></linearGradient><linearGradient x1="0%" y1="100%" y2="0%" id="b"><stop stop-color="#FFCF71" offset="0%"/><stop stop-color="#24CFDD" offset="100%"/></linearGradient><linearGradient x1="137.565%" y1="-50.858%" x2="12.411%" y2="139.941%" id="c"><stop stop-color="#FFCF71" offset="0%"/><stop stop-color="#10ABB7" offset="100%"/></linearGradient><linearGradient x1="50%" y1="0%" x2="50%" y2="107.159%" id="d"><stop stop-color="#E7EAF0" offset="0%"/><stop stop-color="#FFF" stop-opacity="0" offset="100%"/></linearGradient><filter x="-14.2%" y="-22.9%" width="128.4%" height="145.8%" filterUnits="objectBoundingBox" id="e"><feGaussianBlur stdDeviation="1.6" in="SourceGraphic"/></filter><filter x="-17.1%" y="-27.7%" width="134.3%" height="155.3%" filterUnits="objectBoundingBox" id="f"><feGaussianBlur stdDeviation="1.6" in="SourceGraphic"/></filter></defs><g fill="none" fill-rule="evenodd"><path d="M135.997 59.14c.078-3.99-2.551-8-7.884-11.044l-41.39-23.631c-10.469-5.977-27.384-5.977-37.785 0L7.816 48.097C2.633 51.075.047 54.977.053 58.88v-.038L0 76.95c-.011 3.942 2.62 7.89 7.887 10.897l41.391 23.631c10.467 5.976 27.384 5.977 37.784 0l41.122-23.632c5.167-2.969 7.753-6.854 7.764-10.745L136 58.993l-.003.147z" fill="url(#a)"/><path d="M128.236 69.738L87.114 93.37c-10.4 5.977-27.317 5.976-37.784 0L7.94 69.74C2.671 66.73.04 62.784.051 58.842L0 76.95c-.011 3.942 2.62 7.89 7.887 10.897l41.391 23.631c10.467 5.976 27.384 5.977 37.784 0l41.122-23.632c5.167-2.969 7.753-6.854 7.764-10.745L136 58.993c-.011 3.891-2.597 7.776-7.764 10.745z" fill="url(#b)"/><path d="M128.113 48.096c10.467 5.976 10.523 15.666.123 21.642L87.114 93.37c-10.4 5.977-27.317 5.976-37.784 0L7.94 69.74c-10.47-5.978-10.525-15.667-.125-21.643l41.122-23.632c10.4-5.977 27.316-5.977 37.784 0l41.391 23.631z" fill="url(#c)"/><path d="M44.34 21.386c-.17.086-.34.175-.51.268h.002c.168-.093.337-.182.509-.268z" fill="#E0E0E2"/><path d="M135.997 39.277c.078-3.99-2.551-8-7.884-11.044L86.723 4.602c-10.469-5.977-27.384-5.977-37.785 0L7.816 28.234C2.633 31.212.047 35.114.053 39.017v-.038L0 57.086c-.011 3.942 2.62 7.89 7.887 10.897l41.391 23.631c10.467 5.976 27.384 5.977 37.784 0l41.122-23.632c5.167-2.969 7.753-6.854 7.764-10.745L136 39.13l-.003.147z" fill-opacity=".05" fill="#FFF"/><path d="M128.113 28.233c10.467 5.976 10.523 15.666.123 21.642L87.114 73.507c-10.4 5.977-27.317 5.976-37.784 0L7.94 49.876C-2.53 43.899-2.585 34.21 7.815 28.234L48.938 4.602c10.4-5.977 27.316-5.977 37.784 0l41.391 23.631z" fill="url(#d)"/><path d="M44.34 1.523c-.17.086-.34.175-.51.268h.002c.168-.093.337-.182.509-.268z" fill="#E0E0E2"/><path d="M75.203 21.452h-20.09v2.778h20.09c7.257 0 13.139 3.936 13.139 8.789 0 4.852-5.881 8.786-13.139 8.786h-20.09v2.778h20.09c9.551 0 17.293-5.178 17.293-11.564 0-6.388-7.742-11.567-17.293-11.567z" stroke="#FFF"/><path d="M59.943 34.437h20.091v-2.779h-20.09c-9.552 0-17.293 5.178-17.293 11.565s7.741 11.566 17.292 11.566h20.091v-2.778h-20.09c-7.258 0-13.14-3.936-13.14-8.788 0-4.853 5.882-8.786 13.14-8.786z" stroke="#FFF"/><path d="M75.203 21.452h-20.09v2.778h20.09c7.257 0 13.139 3.936 13.139 8.789 0 4.852-5.881 8.786-13.139 8.786h-20.09v2.778h20.09c9.551 0 17.293-5.178 17.293-11.564 0-6.388-7.742-11.567-17.293-11.567z" stroke="#FFF" filter="url(#e)"/><path d="M60.184 37.932h16.632v-2.301H60.184c-7.906 0-14.314 4.288-14.314 9.578 0 5.29 6.408 9.58 14.314 9.58h16.632v-2.3H60.184c-6.007 0-10.876-3.261-10.876-7.28 0-4.02 4.869-7.277 10.876-7.277z" stroke="#FFF" filter="url(#f)"/></g></svg>