<svg width="202" height="217" viewBox="0 0 202 217" fill="none" xmlns="http://www.w3.org/2000/svg"><path fill-rule="evenodd" clip-rule="evenodd" d="M99.793 58.682l43.201 24.96-43.2 24.959-43.202-24.96 43.201-24.96z" fill="url(#paint0_linear)"/><path fill-rule="evenodd" clip-rule="evenodd" d="M100.019 108.339l-.005 49.913-43.205-24.953.004-49.912 43.206 24.952z" fill="url(#paint1_linear)"/><path fill-rule="evenodd" clip-rule="evenodd" d="M99.793 0l43.201 24.96-43.2 24.96-43.202-24.96L99.793 0z" fill="url(#paint2_linear)"/><path fill-rule="evenodd" clip-rule="evenodd" d="M99.793 166.876l43.201 24.96-43.2 24.96-43.202-24.96 43.201-24.96z" fill="url(#paint3_linear)"/><path fill-rule="evenodd" clip-rule="evenodd" d="M158.228 108.339l43.206-24.952.004 49.912-43.206 24.953-.004-49.913z" fill="url(#paint4_linear)"/><path fill-rule="evenodd" clip-rule="evenodd" d="M43.81 108.339l-.004 49.913L.601 133.299l.004-49.912 43.206 24.952z" fill="url(#paint5_linear)"/><path fill-rule="evenodd" clip-rule="evenodd" d="M99.576 108.339l43.206-24.952.004 49.912-43.206 24.953-.004-49.913z" fill="url(#paint6_linear)"/><defs><linearGradient id="paint0_linear" x1="142.994" y1="108.601" x2="142.994" y2="58.682" gradientUnits="userSpaceOnUse"><stop stop-color="#E6E9F0"/><stop offset="1" stop-color="#EEF1F5"/></linearGradient><linearGradient id="paint1_linear" x1="41.098" y1="274.422" x2="158.503" y2="226.415" gradientUnits="userSpaceOnUse"><stop stop-color="#FFCF71"/><stop offset="1" stop-color="#24CFDD"/></linearGradient><linearGradient id="paint2_linear" x1="142.994" y1="49.92" x2="142.994" y2="0" gradientUnits="userSpaceOnUse"><stop stop-color="#E6E9F0"/><stop offset="1" stop-color="#EEF1F5"/></linearGradient><linearGradient id="paint3_linear" x1="142.994" y1="216.796" x2="142.994" y2="166.876" gradientUnits="userSpaceOnUse"><stop stop-color="#E6E9F0"/><stop offset="1" stop-color="#EEF1F5"/></linearGradient><linearGradient id="paint4_linear" x1="179.833" y1="195.684" x2="244.658" y2="158.269" gradientUnits="userSpaceOnUse"><stop stop-color="#FFCF71"/><stop offset="1" stop-color="#24CFDD"/></linearGradient><linearGradient id="paint5_linear" x1="22.206" y1="195.684" x2="87.03" y2="158.269" gradientUnits="userSpaceOnUse"><stop stop-color="#FFCF71"/><stop offset="1" stop-color="#24CFDD"/></linearGradient><linearGradient id="paint6_linear" x1="121.181" y1="195.684" x2="186.006" y2="158.269" gradientUnits="userSpaceOnUse"><stop stop-color="#FFCF71"/><stop offset="1" stop-color="#24CFDD"/></linearGradient></defs></svg>