<svg width="981" height="439" viewBox="0 0 981 439" xmlns="http://www.w3.org/2000/svg"><defs><linearGradient x1="50%" y1="100%" x2="50%" y2="0%" id="a"><stop stop-color="#E6E9F0" offset="0%"/><stop stop-color="#EEF1F5" offset="100%"/></linearGradient><linearGradient x1="0%" y1="100%" y2="0%" id="b"><stop stop-color="#FFCF71" offset="0%"/><stop stop-color="#24CFDD" offset="100%"/></linearGradient><linearGradient x1="-111.157%" y1="149.595%" y2="0%" id="c"><stop stop-color="#FFCF71" offset="0%"/><stop stop-color="#24CFDD" offset="100%"/></linearGradient></defs><g fill="none" fill-rule="evenodd"><path fill="url(#a)" d="M895.71 69l70.711 40.833-70.71 40.833L825 109.833z" transform="translate(-35 -108)"/><path fill="url(#b)" d="M944.355 514.237l70.718-40.82.007 81.653-70.718 40.821z" transform="translate(-35 -108)"/><path fill="url(#b)" transform="rotate(-60 -40.313 57.965)" d="M70.718 40.82l70.71 40.834-70.71 40.833L.007 81.654z"/><path fill="url(#a)" d="M233.71 252l70.711 40.833-70.71 40.833L163 292.833z" transform="translate(-35 -108)"/><path fill="url(#c)" transform="rotate(60 274.748 269.343)" d="M198.718 312.82l70.71 40.834-70.71 40.833-70.711-40.833z"/><path fill="url(#b)" d="M233.355 333.237l70.718-40.82.007 81.653-70.718 40.821z" transform="translate(-35 -108)"/><path fill="url(#a)" d="M233.71 156l70.711 40.833-70.71 40.833L163 196.833zm0 273l70.711 40.833-70.71 40.833L163 469.833z" transform="translate(-35 -108)"/><path fill="url(#b)" d="M329.355 333.237l70.718-40.82.007 81.653-70.718 40.821z" transform="translate(-35 -108)"/><path fill="url(#b)" transform="rotate(60 182.748 269.343)" d="M106.718 312.82l70.71 40.834-70.71 40.833-70.711-40.833z"/></g></svg>