<svg width="207" height="193" viewBox="0 0 207 193" xmlns="http://www.w3.org/2000/svg" xmlns:xlink="http://www.w3.org/1999/xlink"><defs><ellipse id="a" cx="59.808" cy="59.924" rx="59.594" ry="59.463"/><linearGradient x1="84.352%" y1="0%" x2="50%" y2="105.026%" id="b"><stop stop-color="#5BCFE8" stop-opacity="0" offset="0%"/><stop stop-color="#2CB2E1" offset="100%"/></linearGradient><linearGradient x1="-6.454%" y1="89.92%" x2="100%" y2="0%" id="c"><stop stop-color="#5BCFE8" stop-opacity="0" offset="0%"/><stop stop-color="#2CB2E1" offset="100%"/></linearGradient><linearGradient x1="197.852%" y1="50%" x2="-49.186%" y2="50%" id="d"><stop stop-color="#5BCFE8" stop-opacity="0" offset="0%"/><stop stop-color="#2CB2E1" offset="100%"/></linearGradient></defs><g fill="none"><use fill="#494D5B" xlink:href="#a" transform="translate(50.575 15.637)"/><path d="M152.236 57.728c4.271 5.77 6.505 12.587 6.505 19.668 0 8.588-3.548 16.521-9.593 22.946l3.68 13.702h11.17l11.76-13.309 3.154-19.471.657-11.604-11.63-13.112-15.703 1.18z" fill="#373B47"/><path d="M22.8 115.618l2.036 8.063s24.048 49.236 78.188 67.527c0 0 49.256-20.979 71.135-56.578l-30.201-26.29s-14.455 11.473-35.94 11.473c-21.486 0-50.658-12.784-50.658-39.14 0-26.354 30.224-35.992 30.224-35.992l-12.878-3.147H41.788l-20.894 50.22 1.905 23.864z" fill="#373B47"/><path d="M204.734 60.27c-.92-.917-24.363-28.025-97.492-53.134-2.505-.974-3.758-1.67-3.758-2.09C35.559 22.33 2.234 58 2.234 60.272c0 2.27 9.724 36.4 16.032 50.298.525 1.18 8.935 15.997 15.177 24.061-3.679-8.064-7.687-15.079-7.687-27.142 0-34.026 26.413-61.692 59.462-62.872.789 0 1.643 0 2.431.065l-7.884-7.867s31.735-5.31 72.471 19.275c0 0 .592 1.245 0 4.917 0 0 19.186 8.26 20.829 24.323 1.642 16.062-8.542 25.24-16.755 26.552 0 0 4.27-6.622-2.3-10.162-1.38-.787-3.022-1.115-4.665-1.05-12.55 0-13.995 14.293-13.995 14.293-.131.721-.131 1.442-.131 2.163 0 0-2.103 20.914 35.217 20.52 0 0 18.923-21.372 23.917-40.581 1.84-7.08 3.153-12.39 4.008-16.325 2.102-5.572 4.139-13.781 6.11-19.747l.263-.721z" fill="#262831"/><path d="M136.007 62.448c.526-.262 2.234-1.114 4.206-3.147 3.942.525 7.818 1.77 7.818 1.77-7.161-4.327-16.951-6.883-27.793-6.818 0 0 4.14 5.9 15.638 8.326l.131-.13z" fill="#262831" opacity=".895"/><path d="M205.457 57.041C165.903 22.945 115.902 5.23 105.52 1.82l-.986-.334-1.314-.401-2.3.735C90.541 5.23 40.54 22.945.986 57.041l-.855.736.198 1.136c.065.268 4.336 26.14 18.922 55.356 8.608 17.181 19.054 32.09 31.013 44.458 14.652 15.11 31.735 26.274 50.723 33.227l1.117.4 1.117.402 1.183-.468 1.117-.401c18.988-6.953 36.006-18.118 50.723-33.227 11.958-12.301 22.405-27.277 31.013-44.458 14.586-29.149 18.922-55.088 18.922-55.356l.198-1.136-.92-.669zm-21.814 55.356c-8.41 16.78-18.594 31.421-30.29 43.455-14.52 14.909-31.34 25.873-50.132 32.625-18.791-6.752-35.611-17.65-50.132-32.558-11.695-12.034-21.88-26.608-30.29-43.389C10.12 87.26 5.388 64.596 4.402 59.381c40.54-34.564 91.789-51.812 98.82-54.085 6.964 2.273 58.279 19.521 98.818 54.085-.985 5.148-5.782 27.812-18.397 53.016z" fill="#262831"/><path d="M205.847 56.957C166.293 22.861 116.292 5.145 105.91 1.735l-.986-.334L103.611 1l-2.3.735C90.931 5.145 40.93 22.861 1.376 56.957l-.855.736.198 1.136c.065.268 4.336 26.14 18.922 55.356 8.608 17.182 19.054 32.09 31.013 44.458 14.652 15.11 31.735 26.274 50.723 33.227l1.117.401 1.117.401 1.183-.468 1.117-.4c18.988-6.954 36.006-18.119 50.723-33.228 11.958-12.3 22.405-27.276 31.013-44.458 14.586-29.149 18.922-55.088 18.922-55.356l.198-1.136-.92-.669zm-21.814 55.356c-8.41 16.78-18.594 31.422-30.29 43.455-14.52 14.909-31.34 25.873-50.132 32.626C84.82 181.64 68 170.744 53.48 155.835c-11.695-12.034-21.88-26.608-30.29-43.388C10.51 87.176 5.778 64.512 4.792 59.297c40.54-34.564 91.789-51.812 98.82-54.085 6.964 2.273 58.279 19.521 98.818 54.085-.985 5.148-5.782 27.812-18.397 53.016z" stroke="#44C0D3" stroke-width=".5" stroke-linecap="round" stroke-dasharray=".856"/><path d="M102.572 183.914c18.062 0 32.703-14.613 32.703-32.64 0-18.026-14.641-32.64-32.703-32.64-18.061 0-32.703 14.614-32.703 32.64 0 18.027 14.642 32.64 32.703 32.64z" stroke="url(#b)" stroke-width=".5" stroke-dasharray=".984" transform="translate(0 1)"/><path d="M102.661 36.313c8.608 0 15.586-6.964 15.586-15.555 0-8.59-6.978-15.555-15.586-15.555s-15.585 6.964-15.585 15.555c0 8.59 6.977 15.555 15.585 15.555z" stroke="url(#c)" stroke-width=".5" stroke-dasharray=".984" transform="translate(0 1)"/><path d="M21.647 80.7c8.483 0 15.36-6.89 15.36-15.389 0-8.5-6.877-15.39-15.36-15.39s-15.36 6.89-15.36 15.39 6.877 15.39 15.36 15.39z" stroke="url(#d)" stroke-width=".5" stroke-dasharray=".984" transform="rotate(90 21.147 65.811)"/><path d="M183.363 81.396c9.098 0 16.473-7.39 16.473-16.506 0-9.115-7.375-16.505-16.473-16.505-9.098 0-16.473 7.39-16.473 16.505 0 9.116 7.375 16.506 16.473 16.506z" stroke="url(#d)" stroke-width=".5" stroke-dasharray=".984" transform="rotate(90 182.863 65.39)"/></g></svg>