<svg width="241" height="277" viewBox="0 0 241 277" fill="none" xmlns="http://www.w3.org/2000/svg"><g clip-path="url(#clip0)" fill-rule="evenodd" clip-rule="evenodd"><path d="M195.09 182.07v51.813l44.72-25.91v-51.81l-44.72 25.907z" fill="url(#paint0_linear)"/><path d="M195.09 182.069l44.717-25.904-74.433-43.219-44.718 25.906 74.434 43.217z" fill="url(#paint1_linear)"/><path d="M120.736 52.554l44.72-25.906L120.736.74 76.023 26.65l44.713 25.904z" fill="url(#paint2_linear)"/><path d="M120.737 52.554L76.027 26.65l-.081 86.299 44.713 25.905.078-86.301z" fill="url(#paint3_linear)"/><path d="M120.737 52.554l44.719-25.906-.08 86.302-44.72 25.902.081-86.298z" fill="url(#paint4_linear)"/><path d="M75.78 113.038l.091-51.855-29.817-17.267L1.34 69.82l74.442 43.218z" fill="url(#paint5_linear)"/><path d="M195.09 182.07v51.813l-74.434-43.222.003-51.811 74.431 43.22zM1.342 69.82l-.003 51.812 29.808 17.267 44.634-25.861L1.342 69.82z" fill="url(#paint6_linear)"/><path d="M165.533 113.038l-.087-51.855 29.676-17.266 44.714 25.904-74.303 43.217z" fill="url(#paint7_linear)"/><path d="M165.533 113.038l44.635 25.861 29.668-17.264-.002-51.814-74.301 43.217z" fill="url(#paint8_linear)"/><path d="M120.74 277.041l44.634-25.855.005-34.619-44.723-25.906.084 86.38z" fill="url(#paint9_linear)"/><path d="M46.063 182.059v51.814l-44.72-25.908v-51.812l44.72 25.906z" fill="url(#paint10_linear)"/><path d="M46.063 182.059L1.347 156.156l74.599-43.209 44.713 25.908-74.596 43.204z" fill="url(#paint11_linear)"/><path d="M120.74 277.041l-44.803-25.849.012-34.628 44.71-25.903.081 86.38z" fill="url(#paint12_linear)"/><path d="M46.063 182.059v51.814l74.596-43.209-.003-51.812-74.593 43.207z" fill="url(#paint13_linear)"/></g><defs><linearGradient id="paint1_linear" x1="74.125" y1="79.513" x2="156.578" y2="233.725" gradientUnits="userSpaceOnUse"><stop stop-color="#65AAFF"/><stop offset="1" stop-color="#5D21D4"/></linearGradient><linearGradient id="paint7_linear" x1="136.395" y1="10.486" x2="234.359" y2="124.884" gradientUnits="userSpaceOnUse"><stop stop-color="#65AAFF"/><stop offset="1" stop-color="#5D21D4"/></linearGradient><linearGradient id="paint2_linear" x1="41.097" y1="-24.32" x2="102.856" y2="91.343" gradientUnits="userSpaceOnUse"><stop stop-color="#65AAFF"/><stop offset="1" stop-color="#5D21D4"/></linearGradient><linearGradient id="paint3_linear" x1="58.454" y1="-27.618" x2="175.849" y2="23.231" gradientUnits="userSpaceOnUse"><stop stop-color="#65AAFF"/><stop offset="1" stop-color="#5D21D4"/></linearGradient><linearGradient id="paint4_linear" x1="103.161" y1="-27.621" x2="220.572" y2="23.244" gradientUnits="userSpaceOnUse"><stop stop-color="#8CBFFF"/><stop offset="1" stop-color="#8D53FF"/></linearGradient><linearGradient id="paint5_linear" x1="-27.767" y1="10.484" x2="70.171" y2="125.066" gradientUnits="userSpaceOnUse"><stop stop-color="#65AAFF"/><stop offset="1" stop-color="#440EB0"/></linearGradient><linearGradient id="paint6_linear" x1="-74.325" y1="-9.531" x2="153.948" y2="282.974" gradientUnits="userSpaceOnUse"><stop stop-color="#65AAFF"/><stop offset="1" stop-color="#5D21D4"/></linearGradient><linearGradient id="paint0_linear" x1="177.626" y1="118.573" x2="277.784" y2="181.104" gradientUnits="userSpaceOnUse"><stop stop-color="#8CBFFF"/><stop offset="1" stop-color="#8D53FF"/></linearGradient><linearGradient id="paint8_linear" x1="136.516" y1="36.412" x2="234.426" y2="150.684" gradientUnits="userSpaceOnUse"><stop stop-color="#8CBFFF"/><stop offset="1" stop-color="#8D53FF"/></linearGradient><linearGradient id="paint9_linear" x1="103.191" y1="148.882" x2="209.004" y2="208.325" gradientUnits="userSpaceOnUse"><stop stop-color="#8CBFFF"/><stop offset="1" stop-color="#8D53FF"/></linearGradient><linearGradient id="paint10_linear" x1="-16.122" y1="118.563" x2="84.037" y2="181.097" gradientUnits="userSpaceOnUse"><stop stop-color="#65AAFF"/><stop offset="1" stop-color="#5D21D4"/></linearGradient><linearGradient id="paint11_linear" x1="-45.248" y1="79.52" x2="37.121" y2="233.811" gradientUnits="userSpaceOnUse"><stop stop-color="#65AAFF"/><stop offset="1" stop-color="#5D21D4"/></linearGradient><linearGradient id="paint12_linear" x1="58.441" y1="148.882" x2="164.353" y2="208.487" gradientUnits="userSpaceOnUse"><stop stop-color="#65AAFF"/><stop offset="1" stop-color="#5D21D4"/></linearGradient><linearGradient id="paint13_linear" x1="16.931" y1="92.894" x2="151.492" y2="207.513" gradientUnits="userSpaceOnUse"><stop stop-color="#8CBFFF"/><stop offset="1" stop-color="#8D53FF"/></linearGradient><clipPath id="clip0"><path fill="#fff" d="M0 0h241v277H0z"/></clipPath></defs></svg>