<svg width="244" height="281" viewBox="0 0 244 281" fill="none" xmlns="http://www.w3.org/2000/svg"><path fill-rule="evenodd" clip-rule="evenodd" d="M167.118 27.062l37.876 65.536 37.944-21.887-75.82-43.649z" fill="url(#paint0_linear)"/><path fill-rule="evenodd" clip-rule="evenodd" d="M197.305 184.427L121.567 53.044l45.554-26.282 75.733 131.388-45.549 26.277z" fill="url(#paint1_linear)"/><path fill-rule="evenodd" clip-rule="evenodd" d="M45.835 184.43l75.738-131.385-45.552-26.28L.287 158.15l45.548 26.279z" fill="url(#paint2_linear)"/><path fill-rule="evenodd" clip-rule="evenodd" d="M121.57 280.77l.003-43.781 75.732-.009-75.735 43.79z" fill="url(#paint3_linear)"/><path fill-rule="evenodd" clip-rule="evenodd" d="M45.834 236.98l75.733.009.003 43.781-75.736-43.79z" fill="url(#paint4_linear)"/><path fill-rule="evenodd" clip-rule="evenodd" d="M.284 157.851L38.14 92.305.2 70.412l.084 87.439z" fill="url(#paint5_linear)"/><path fill-rule="evenodd" clip-rule="evenodd" d="M242.938 70.71l-37.941 21.894 37.857 65.546.084-87.44z" fill="url(#paint6_linear)"/><path fill-rule="evenodd" clip-rule="evenodd" d="M197.305 184.427v52.562l45.554-26.284-.003-52.559-45.551 26.281z" fill="url(#paint7_linear)"/><path fill-rule="evenodd" clip-rule="evenodd" d="M121.567 53.044l45.553-26.282L121.567.48 76.021 26.765l45.546 26.279z" fill="url(#paint8_linear)"/><path fill-rule="evenodd" clip-rule="evenodd" d="M45.838 184.433v52.561L.284 210.711l.003-52.56 45.55 26.282z" fill="#F1AB63"/><path fill-rule="evenodd" clip-rule="evenodd" d="M197.305 184.427l-75.735-43.802-.003-87.581 75.738 131.383z" fill="url(#paint9_linear)"/><path fill-rule="evenodd" clip-rule="evenodd" d="M45.829 184.427l75.735-43.802.003-87.581-75.738 131.383z" fill="url(#paint10_linear)"/><path fill-rule="evenodd" clip-rule="evenodd" d="M197.305 184.427l-75.735-43.802-75.993 43.949 151.728-.147z" fill="url(#paint11_linear)"/><path fill-rule="evenodd" clip-rule="evenodd" d="M76.02 26.765L38.144 92.3.2 70.412l75.82-43.647z" fill="url(#paint12_linear)"/><path fill-rule="evenodd" clip-rule="evenodd" d="M45.503 236.978h151.802v-52.551H45.503v52.551z" fill="url(#paint13_linear)"/><defs><linearGradient id="paint1_linear" x1="234" y1="220" x2="127.546" y2="70" gradientUnits="userSpaceOnUse"><stop stop-color="#FF9372"/><stop offset="1" stop-color="#FFD770"/></linearGradient><linearGradient id="paint7_linear" x1="9" y1="40" x2="272.246" y2="96.405" gradientUnits="userSpaceOnUse"><stop stop-color="#FF9372"/><stop offset="1" stop-color="#FFE193"/></linearGradient><linearGradient id="paint2_linear" x1="6.785" y1="45.065" x2="146.189" y2="167.469" gradientUnits="userSpaceOnUse"><stop stop-color="#DD7251"/><stop offset="1" stop-color="#FFD770"/></linearGradient><linearGradient id="paint3_linear" x1="125.627" y1="242.062" x2="157.108" y2="304.208" gradientUnits="userSpaceOnUse"><stop stop-color="#FF9372"/><stop offset="1" stop-color="#FFD770"/></linearGradient><linearGradient id="paint4_linear" x1="49.892" y1="242.062" x2="81.372" y2="304.208" gradientUnits="userSpaceOnUse"><stop stop-color="#DD7251"/><stop offset="1" stop-color="#FFD770"/></linearGradient><linearGradient id="paint5_linear" x1="2.233" y1="80.561" x2="64.249" y2="111.274" gradientUnits="userSpaceOnUse"><stop stop-color="#DD7251"/><stop offset="1" stop-color="#FFD770"/></linearGradient><linearGradient id="paint6_linear" x1="207.03" y1="80.86" x2="269.046" y2="111.575" gradientUnits="userSpaceOnUse"><stop stop-color="#FF9372"/><stop offset="1" stop-color="#FFD770"/></linearGradient><linearGradient id="paint0_linear" x1="249" y1="87" x2="633.559" y2="372.768" gradientUnits="userSpaceOnUse"><stop stop-color="#FF9372"/><stop offset="1" stop-color="#FFD770"/></linearGradient><linearGradient id="paint8_linear" x1="-300.559" y1="-78.287" x2="89.096" y2="172.152" gradientUnits="userSpaceOnUse"><stop stop-color="#FF9372"/><stop offset="1" stop-color="#FFE193"/></linearGradient><linearGradient id="paint9_linear" x1="125.624" y1="68.293" x2="233.212" y2="139.085" gradientUnits="userSpaceOnUse"><stop stop-color="#DD7251"/><stop offset="1" stop-color="#FFD770"/></linearGradient><linearGradient id="paint10_linear" x1="49.886" y1="68.293" x2="157.474" y2="139.085" gradientUnits="userSpaceOnUse"><stop stop-color="#FF9372"/><stop offset="1" stop-color="#FFD770"/></linearGradient><linearGradient id="paint11_linear" x1="53.705" y1="145.726" x2="72.392" y2="219.36" gradientUnits="userSpaceOnUse"><stop stop-color="#FF9372"/><stop offset="1" stop-color="#FFD770"/></linearGradient><linearGradient id="paint12_linear" x1="4.262" y1="34.372" x2="60.51" y2="108.649" gradientUnits="userSpaceOnUse"><stop stop-color="#FF9372"/><stop offset="1" stop-color="#FFD770"/></linearGradient><linearGradient id="paint13_linear" x1="53.635" y1="190.526" x2="79.665" y2="276.349" gradientUnits="userSpaceOnUse"><stop stop-color="#FF9372"/><stop offset="1" stop-color="#FFD770"/></linearGradient></defs></svg>