<svg width="197" height="215" viewBox="0 0 197 215" fill="none" xmlns="http://www.w3.org/2000/svg"><path fill-rule="evenodd" clip-rule="evenodd" d="M115.423 146.083c-.058 4.978-8.802 9.005-19.58 9.005-10.778 0-19.522-4.027-19.58-9.005v59.061c0 5.001 8.766 9.055 19.58 9.055 10.814 0 19.581-4.054 19.581-9.055l-.001-.09h.001v-58.971h-.001z" fill="url(#paint0_linear)"/><path fill-rule="evenodd" clip-rule="evenodd" d="M95.843 155.789c10.814 0 19.581-4.055 19.581-9.055 0-5.001-8.767-9.056-19.58-9.056-10.815 0-19.581 4.055-19.581 9.056 0 5 8.766 9.055 19.58 9.055z" fill="#EE4D75"/><path fill-rule="evenodd" clip-rule="evenodd" d="M127.844 68.571c-1.522.927-2.329 1.418-3.661 3.411-1.461 2.187-1.683 3.631-1.811 8.439-.127 4.807 2.994 11.426 2.994 11.426s1.991 4.755 7.477 8.592c5.486 3.838 12.33 1.59 12.33 1.59l36.001-20.371s-.073.021-.214.05c6.58-2.122 9.387-10.738 6.264-19.973-3.305-9.773-11.999-16.539-19.418-15.112a9.597 9.597 0 0 0-4.319 2.012c.212-.219.341-.322.341-.322S130.14 67.16 128.307 68.288l-.463.283z" fill="url(#paint1_linear)"/><path fill-rule="evenodd" clip-rule="evenodd" d="M149.827 82.72c3.299 9.777-.039 18.864-7.454 20.294-7.415 1.43-16.099-5.337-19.398-15.115-3.298-9.778.039-18.864 7.454-20.295 7.415-1.43 16.1 5.337 19.398 15.115z" fill="url(#paint2_linear)"/><path fill-rule="evenodd" clip-rule="evenodd" d="M15.93 81.747a8.03 8.03 0 0 1-.353-.095l35.984 20.4c4.56 1.502 8.667.974 12.32-1.585 3.654-2.559 6.144-5.424 7.47-8.595 2.077-4.415 3.072-8.226 2.986-11.434-.13-4.81-.352-6.256-1.813-8.445-1.461-2.188-2.29-2.569-4.123-3.698-1.221-.754-13.056-7.422-35.503-20.005.214.174.421.36.62.562a9.6 9.6 0 0 0-4.596-2.255c-7.415-1.43-16.1 5.337-19.399 15.115-3.138 9.305-.268 17.984 6.407 20.035z" fill="url(#paint3_linear)"/><path fill-rule="evenodd" clip-rule="evenodd" d="M46.903 82.72c-3.298 9.777.039 18.864 7.454 20.294 7.415 1.43 16.1-5.337 19.398-15.115 3.298-9.778-.039-18.864-7.454-20.295-7.415-1.43-16.1 5.337-19.398 15.115z" fill="url(#paint4_linear)"/><path fill-rule="evenodd" clip-rule="evenodd" d="M97.278 65.195l37.42 21.626-37.42 21.625-37.42-21.626 37.42-21.625z" fill="url(#paint5_linear)"/><path fill-rule="evenodd" clip-rule="evenodd" d="M97.088 108.219l37.425-21.617.005 43.242-37.425 21.616-.005-43.241z" fill="url(#paint6_linear)"/><path fill-rule="evenodd" clip-rule="evenodd" d="M97.474 108.219l-.005 43.241-37.425-21.616.005-43.242 37.425 21.617z" fill="url(#paint7_linear)"/><path fill-rule="evenodd" clip-rule="evenodd" d="M12.907 161.593c6.811 7.748 16.341 9.398 21.286 3.686 4.945-5.713 3.433-16.625-3.378-24.373-6.81-7.748-16.341-9.399-21.286-3.686-4.945 5.712-3.433 16.624 3.378 24.373z" fill="url(#paint8_linear)"/><path fill-rule="evenodd" clip-rule="evenodd" d="M51.308 112.984l-15.87 9.044-22.456 12.592s3.755-1.455 9.845 1.033c6.089 2.487 10.015 8.059 10.015 8.059s3.616 5.375 3.616 12.425c0 7.051-3.272 10.178-3.272 10.178l36.729-21.48s3.173-4.25 3.173-10.068-3.173-11.689-3.173-11.689-4.172-6.012-8.4-8.306c-4.227-2.293-8.04-2.471-10.207-1.788z" fill="url(#paint9_linear)"/><path fill-rule="evenodd" clip-rule="evenodd" d="M181.954 160.534c-6.81 7.748-16.341 9.398-21.286 3.686-4.945-5.713-3.432-16.625 3.379-24.373 6.811-7.749 16.341-9.399 21.286-3.686 4.945 5.712 3.432 16.624-3.379 24.373z" fill="url(#paint10_linear)"/><path fill-rule="evenodd" clip-rule="evenodd" d="M143.554 111.925l15.87 9.043 22.456 12.593s-3.756-1.455-9.845 1.032c-6.089 2.488-10.016 8.06-10.016 8.06s-3.615 5.375-3.615 12.425c0 7.05 3.272 10.178 3.272 10.178l-36.729-21.48s-3.173-4.25-3.173-10.068c0-5.819 3.173-11.689 3.173-11.689s4.171-6.013 8.399-8.306c4.227-2.293 8.04-2.471 10.208-1.788z" fill="url(#paint11_linear)"/><path fill-rule="evenodd" clip-rule="evenodd" d="M115.423 8.405c-.058 4.978-8.802 9.005-19.58 9.005-10.778 0-19.522-4.027-19.58-9.005v59.06c0 5.002 8.766 9.056 19.58 9.056 10.814 0 19.581-4.054 19.581-9.055l-.001-.09h.001V8.405h-.001z" fill="url(#paint12_linear)"/><path fill-rule="evenodd" clip-rule="evenodd" d="M95.843 18.81c10.814 0 19.581-4.054 19.581-9.055 0-5-8.767-9.055-19.58-9.055-10.815 0-19.581 4.054-19.581 9.055 0 5.001 8.766 9.055 19.58 9.055z" fill="#EE4D75"/><defs><linearGradient id="paint0_linear" x1="76.263" y1="215.085" x2="115.424" y2="215.085" gradientUnits="userSpaceOnUse"><stop stop-color="#F5576C"/><stop offset="1" stop-color="#F093FB"/></linearGradient><linearGradient id="paint1_linear" x1="163.616" y1="118.272" x2="197.143" y2="60.202" gradientUnits="userSpaceOnUse"><stop stop-color="#F5576C"/><stop offset="1" stop-color="#F093FB"/></linearGradient><linearGradient id="paint2_linear" x1="114.079" y1="90.035" x2="144.253" y2="107.456" gradientUnits="userSpaceOnUse"><stop stop-color="#F5576C"/><stop offset="1" stop-color="#BD5AC8"/></linearGradient><linearGradient id="paint3_linear" x1="33.148" y1="118.277" x2="-.401" y2="60.17" gradientUnits="userSpaceOnUse"><stop stop-color="#F5576C"/><stop offset="1" stop-color="#F093FB"/></linearGradient><linearGradient id="paint4_linear" x1="30.382" y1="93.792" x2="-8.303" y2="53.99" gradientUnits="userSpaceOnUse"><stop stop-color="#E45165"/><stop offset="1" stop-color="#F093FB"/></linearGradient><linearGradient id="paint5_linear" x1="134.698" y1="108.446" x2="134.698" y2="65.195" gradientUnits="userSpaceOnUse"><stop stop-color="#F183D5"/><stop offset="1" stop-color="#EEF1F5"/></linearGradient><linearGradient id="paint6_linear" x1="79.366" y1="141.225" x2="115.775" y2="162.246" gradientUnits="userSpaceOnUse"><stop stop-color="#F5576C"/><stop offset="1" stop-color="#CE75D8"/></linearGradient><linearGradient id="paint7_linear" x1="78.271" y1="76.082" x2="40.835" y2="97.696" gradientUnits="userSpaceOnUse"><stop stop-color="#F5576C"/><stop offset="1" stop-color="#BD5AC8"/></linearGradient><linearGradient id="paint8_linear" x1="37.102" y1="134.271" x2="37.102" y2="169.134" gradientUnits="userSpaceOnUse"><stop stop-color="#F5576C"/><stop offset="1" stop-color="#BD5AC8"/></linearGradient><linearGradient id="paint9_linear" x1="73.088" y1="167.013" x2="12.982" y2="167.013" gradientUnits="userSpaceOnUse"><stop stop-color="#F5576C"/><stop offset="1" stop-color="#F093FB"/></linearGradient><linearGradient id="paint10_linear" x1="163.819" y1="179.866" x2="215.57" y2="169.135" gradientUnits="userSpaceOnUse"><stop stop-color="#F5576C"/><stop offset="1" stop-color="#F093FB"/></linearGradient><linearGradient id="paint11_linear" x1="121.774" y1="165.953" x2="181.88" y2="165.953" gradientUnits="userSpaceOnUse"><stop stop-color="#F5576C"/><stop offset="1" stop-color="#F093FB"/></linearGradient><linearGradient id="paint12_linear" x1="76.263" y1="77.406" x2="115.424" y2="77.406" gradientUnits="userSpaceOnUse"><stop stop-color="#F5576C"/><stop offset="1" stop-color="#F093FB"/></linearGradient></defs></svg>