<svg width="90" height="213" viewBox="0 0 90 213" fill="none" xmlns="http://www.w3.org/2000/svg"><path fill-rule="evenodd" clip-rule="evenodd" d="M.438 120.273v66.04s.095 1.662 2.057 2.928c1.961 1.265 4.357 2.577 4.357 2.577l33.316 19.457s2.477 1.624 4.87 1.633c2.395.01 4.785-1.595 4.785-1.595l33.24-19.494s3.252-1.995 4.713-2.764c1.462-.769 1.864-2.137 1.864-2.137v-65.635s-.163.725-1.79 1.674L49.356 145.42a8.894 8.894 0 0 1-9.024-.017 169984.01 169984.01 0 0 1-38.41-22.604c-1.532-.906-1.483-2.526-1.483-2.526z" fill="url(#paint0_linear)"/><path fill-rule="evenodd" clip-rule="evenodd" d="M40.096 96.462a8.905 8.905 0 0 1 8.901-.046l38.886 22.181c2.179 1.242 2.179 4.383 0 5.625l-38.886 22.18a8.903 8.903 0 0 1-8.901-.045L2.16 124.206c-2.14-1.25-2.14-4.343 0-5.593l37.935-22.151z" fill="url(#paint1_linear)"/><path fill-rule="evenodd" clip-rule="evenodd" d="M.438 57.903v37.322s.095 1.66 2.057 2.925c1.961 1.264 4.357 2.575 4.357 2.575l33.316 19.435s2.477 1.623 4.87 1.632c2.395.01 4.785-1.593 4.785-1.593l33.24-19.473s3.252-1.993 4.713-2.761c1.462-.768 1.864-2.135 1.864-2.135V58.911s-.163.725-1.79 1.673l-38.5 22.44a8.893 8.893 0 0 1-9.015-.016A166619.79 166619.79 0 0 1 1.92 60.426C.39 59.522.438 57.903.438 57.903z" fill="url(#paint2_linear)"/><path fill-rule="evenodd" clip-rule="evenodd" d="M40.1 34.115a8.904 8.904 0 0 1 8.894-.045l38.883 22.155c2.18 1.242 2.18 4.384 0 5.626L48.994 84.006a8.904 8.904 0 0 1-8.895-.045L2.167 61.835c-2.142-1.25-2.142-4.345 0-5.594l37.932-22.126z" fill="url(#paint3_linear)"/><path fill-rule="evenodd" clip-rule="evenodd" d="M.438 25.88v8.658s.095 1.657 2.057 2.919c1.961 1.261 4.357 2.569 4.357 2.569L40.168 59.42s2.477 1.62 4.87 1.629c2.395.01 4.785-1.59 4.785-1.59l33.24-19.432s3.252-1.99 4.713-2.756c1.462-.766 1.864-2.13 1.864-2.13v-8.255s-.163.723-1.79 1.669L49.345 50.952a8.893 8.893 0 0 1-9.002-.016A121074.68 121074.68 0 0 1 1.92 28.397C.39 27.495.438 25.88.438 25.88z" fill="url(#paint4_linear)"/><path fill-rule="evenodd" clip-rule="evenodd" d="M40.106 2.138a8.904 8.904 0 0 1 8.88-.045l38.878 22.104c2.183 1.242 2.183 4.389 0 5.63L48.987 51.932a8.905 8.905 0 0 1-8.881-.045L2.179 29.81c-2.145-1.25-2.145-4.349 0-5.597L40.106 2.138z" fill="url(#paint5_linear)"/><defs><linearGradient id="paint0_linear" x1="46.176" y1="259.226" x2="138.833" y2="167.725" gradientUnits="userSpaceOnUse"><stop stop-color="#00DBE2"/><stop offset="1" stop-color="#01BFE3"/></linearGradient><linearGradient id="paint1_linear" x1="-13.655" y1="222.753" x2="85.16" y2="90.496" gradientUnits="userSpaceOnUse"><stop stop-color="#3BF9FF"/><stop offset="1" stop-color="#05A1BF"/></linearGradient><linearGradient id="paint2_linear" x1="46.176" y1="153.737" x2="106.178" y2="67.824" gradientUnits="userSpaceOnUse"><stop stop-color="#00DBE2"/><stop offset="1" stop-color="#01BFE3"/></linearGradient><linearGradient id="paint3_linear" x1="-61.948" y1="224.516" x2="83.2" y2="26.774" gradientUnits="userSpaceOnUse"><stop stop-color="#3BF9FF"/><stop offset="1" stop-color="#05A1BF"/></linearGradient><linearGradient id="paint4_linear" x1="46.176" y1="78.633" x2="69.743" y2="17.333" gradientUnits="userSpaceOnUse"><stop stop-color="#00DBE2"/><stop offset="1" stop-color="#01BFE3"/></linearGradient><linearGradient id="paint5_linear" x1="46.176" y1="79.302" x2="91.247" y2=".452" gradientUnits="userSpaceOnUse"><stop stop-color="#3BF9FF"/><stop offset="1" stop-color="#05A1BF"/></linearGradient></defs></svg>