<svg width="246" height="283" viewBox="0 0 246 283" fill="none" xmlns="http://www.w3.org/2000/svg"><g clip-path="url(#clip0)" fill-rule="evenodd" clip-rule="evenodd"><path d="M.318 71.072l122.013 70.356-.04 140.668L.217 211.678.318 71.072zm91.465 87.91l-61.019-35.075.048 70.351L91.887 229.4l-.104-70.418z" fill="url(#paint0_linear)"/><path d="M61.35 176.65l-30.538 17.608L91.887 229.4v-35.16L61.35 176.65z" fill="url(#paint1_linear)"/><path d="M61.284 141.351l-30.535-17.61.114 70.491L61.35 176.65l-.066-35.299z" fill="url(#paint2_linear)"/><path d="M244.446 211.678L122.37 282.096l-.038-140.668 122.011-70.356.103 140.606zM152.774 229.4l61.076-35.142.047-70.351-61.018 35.075-.105 70.418z" fill="url(#paint3_linear)"/><path d="M183.313 176.65l30.537 17.608-61.076 35.142v-35.16l30.539-17.59z" fill="url(#paint4_linear)"/><path d="M183.377 141.351l30.535-17.61-.112 70.491-30.488-17.582.065-35.299z" fill="url(#paint5_linear)"/><path d="M122.192.68l122.094 70.381-121.955 70.367L.318 71.075 122.192.68zm61.2 70.433l-61.011-35.257-61.023 35.133 60.923 35.239 61.111-35.115z" fill="url(#paint6_linear)"/><path d="M122.381 71.075v-35.22l61.011 35.258-30.489 17.58-30.522-17.618z" fill="url(#paint7_linear)"/><path d="M91.744 88.664L61.209 71.055l61.176-35.146-.004 35.166-30.637 17.59z" fill="url(#paint8_linear)"/></g><defs><linearGradient id="paint0_linear" x1="217.908" y1="564.151" x2="-132.877" y2="245.599" gradientUnits="userSpaceOnUse"><stop stop-color="#FFF886"/><stop offset="1" stop-color="#E3305B"/></linearGradient><linearGradient id="paint1_linear" x1="139.69" y1="299.907" x2="65.264" y2="164.679" gradientUnits="userSpaceOnUse"><stop stop-color="#FFF886"/><stop offset="1" stop-color="#FF6D90"/></linearGradient><linearGradient id="paint2_linear" x1="85.301" y1="288.451" x2="-24.252" y2="213.818" gradientUnits="userSpaceOnUse"><stop stop-color="#FFF886"/><stop offset="1" stop-color="#FF4E78"/></linearGradient><linearGradient id="paint3_linear" x1="340.023" y1="564.151" x2="-10.763" y2="245.599" gradientUnits="userSpaceOnUse"><stop stop-color="#FFF886"/><stop offset="1" stop-color="#E3305B"/></linearGradient><linearGradient id="paint4_linear" x1="261.652" y1="299.907" x2="187.226" y2="164.679" gradientUnits="userSpaceOnUse"><stop stop-color="#FFF886"/><stop offset="1" stop-color="#FF4E78"/></linearGradient><linearGradient id="paint5_linear" x1="237.862" y1="288.451" x2="128.311" y2="213.823" gradientUnits="userSpaceOnUse"><stop stop-color="#FFF886"/><stop offset="1" stop-color="#E3305B"/></linearGradient><linearGradient id="paint6_linear" x1="435.235" y1="329.552" x2="282.988" y2="-84.584" gradientUnits="userSpaceOnUse"><stop stop-color="#FFF886"/><stop offset="1" stop-color="#FF6D90"/></linearGradient><linearGradient id="paint7_linear" x1="217" y1="118" x2="150.571" y2="25.182" gradientUnits="userSpaceOnUse"><stop offset=".259" stop-color="#FFF886"/><stop offset="1" stop-color="#E3305B"/></linearGradient><linearGradient id="paint8_linear" x1="170.267" y1="159.177" x2="95.898" y2="23.839" gradientUnits="userSpaceOnUse"><stop stop-color="#FFF886"/><stop offset="1" stop-color="#FF4E78"/></linearGradient><clipPath id="clip0"><path fill="#fff" d="M0 0h245v282H0z"/></clipPath></defs></svg>