<svg width="260" height="305" viewBox="0 0 260 305" xmlns="http://www.w3.org/2000/svg"><defs><linearGradient x1="0%" y1="51.3%" y2="51.3%" id="a"><stop stop-color="#F5576C" offset="0%"/><stop stop-color="#F093FB" offset="100%"/></linearGradient><linearGradient x1="50%" y1="1.3%" x2="50%" y2="101.3%" id="b"><stop stop-color="#F5576C" offset="0%"/><stop stop-color="#BD5AC8" offset="100%"/></linearGradient><linearGradient x1="100%" y1="50%" x2="273.222%" y2="100%" id="c"><stop stop-color="#E45165" offset="0%"/><stop stop-color="#F093FB" offset="100%"/></linearGradient><linearGradient x1="50%" y1="100%" x2="50%" y2="0%" id="d"><stop stop-color="#F183D5" offset="0%"/><stop stop-color="#EEF1F5" offset="100%"/></linearGradient><linearGradient x1="48.627%" y1="2.673%" x2="48.627%" y2="99.927%" id="e"><stop stop-color="#F5576C" offset="0%"/><stop stop-color="#CE75D8" offset="100%"/></linearGradient><linearGradient x1="0%" y1="51.3%" x2="167.645%" y2="11.541%" id="f"><stop stop-color="#F5576C" offset="0%"/><stop stop-color="#F093FB" offset="100%"/></linearGradient><linearGradient x1="50%" y1="0%" x2="50%" y2="107.159%" id="g"><stop stop-color="#FFF" stop-opacity=".334" offset="0%"/><stop stop-color="#FFF" stop-opacity="0" offset="100%"/></linearGradient></defs><g fill="none" fill-rule="evenodd"><path d="M164.971 208.001v84.334c0 7.14-12.53 12.93-27.985 12.93-15.456 0-27.986-5.79-27.986-12.93l.001-.128L109 208c.084 7.108 12.581 12.859 27.986 12.859 15.404 0 27.901-5.75 27.985-12.859z" fill="url(#a)" transform="translate(-9.452 -.408)"/><path d="M127.534 221.452c15.456 0 27.985-5.79 27.985-12.93 0-7.141-12.53-12.93-27.985-12.93-15.456 0-27.986 5.789-27.986 12.93 0 7.14 12.53 12.93 27.986 12.93z" fill="#EE4D75"/><path d="M171.998 183.664c.048-2.412-1.575-4.835-4.87-6.675l-25.564-14.28c-6.466-3.612-16.914-3.612-23.337 0l-25.4 14.28c-3.201 1.8-4.798 4.158-4.794 6.517v-.023L88 194.426c-.007 2.382 1.618 4.767 4.872 6.585l25.565 14.28c6.464 3.612 16.913 3.612 23.337 0l25.399-14.28c3.19-1.795 4.788-4.143 4.795-6.494l.032-10.943-.002.09z" fill-opacity=".05" fill="#FFF"/><path d="M231.458 142.758c.12.126.244.25.37.37l-50.944-29.976c-5.115-4.572-7.397-10.032-6.844-16.382.553-6.35 2.317-11.476 5.292-15.381 3.975-5.723 7.976-9.676 12.004-11.86 6.042-3.274 7.988-4.031 11.739-3.785 3.75.246 4.813 1 7.52 2.462 1.804.974 18.507 10.862 50.11 29.664a10.624 10.624 0 0 0-1.139-.367 13.724 13.724 0 0 1 6.073 4.08c7.068 8.156 4.906 23.738-4.828 34.802-9.264 10.528-22.047 13.172-29.353 6.373z" fill="url(#a)" transform="rotate(-60 216.799 114.085)"/><path d="M207.751 135.99c-9.734 11.065-23.355 13.421-30.423 5.264-7.068-8.157-4.906-23.738 4.828-34.802 9.735-11.064 23.356-13.42 30.424-5.264 7.068 8.157 4.906 23.739-4.829 34.803z" fill="url(#b)" transform="rotate(-60 189.875 129.203)"/><path d="M68.882 142.758c.12.126.244.25.37.37l-50.943-29.976c-5.116-4.572-7.398-10.032-6.845-16.382.553-6.35 2.317-11.476 5.292-15.381 3.975-5.723 7.976-9.676 12.004-11.86 6.042-3.274 7.988-4.031 11.74-3.785 3.75.246 4.812 1 7.519 2.462 1.804.974 18.507 10.862 50.11 29.664a10.624 10.624 0 0 0-1.138-.367 13.724 13.724 0 0 1 6.072 4.08c7.068 8.156 4.906 23.738-4.828 34.802-9.264 10.528-22.047 13.172-29.353 6.373z" fill="url(#a)" transform="scale(-1 1) rotate(-60 4.373 200.428)"/><path d="M99.024 135.99c-9.735 11.065-23.356 13.421-30.424 5.264-7.068-8.157-4.906-23.738 4.829-34.802 9.734-11.064 23.355-13.42 30.423-5.263 7.068 8.156 4.906 23.738-4.828 34.802z" fill="url(#c)" transform="scale(-1 1) rotate(-60 4.373 262.18)"/><path fill="url(#d)" d="M139.036 92.501l53.483 30.879-53.483 30.878-53.483-30.878z" transform="translate(-9.452 -.408)"/><path fill="url(#e)" transform="rotate(-60 160.435 177.355)" d="M165.51 138.489l53.477 30.89-53.47 30.88-53.476-30.892z"/><path fill="url(#b)" transform="rotate(60 108.196 160.984)" d="M112.572 138.489l53.469 30.878-53.476 30.891-53.47-30.878z"/><path d="M44.043 230.147c-9.735 11.064-23.356 13.42-30.424 5.264-7.067-8.157-4.906-23.739 4.829-34.802 9.734-11.064 23.355-13.42 30.423-5.264 7.068 8.157 4.906 23.738-4.828 34.802z" fill="url(#b)" transform="matrix(-1 0 0 1 53.039 -.408)"/><path d="M49.684 160.739l22.683 12.913 32.095 17.98c-3.579-1.384-8.269-.893-14.071 1.475-5.802 2.369-10.574 6.204-14.316 11.508-3.444 5.117-5.167 11.03-5.167 17.742 0 6.712 1.56 11.556 4.677 14.533L23.09 206.22c-3.024-4.046-4.536-8.839-4.536-14.377 0-5.539 1.512-11.103 4.536-16.691 3.974-5.724 7.976-9.677 12.004-11.86 6.042-3.274 11.49-3.529 14.59-2.553z" fill="url(#a)" transform="matrix(-1 0 0 1 113.564 -.408)"/><path d="M260.062 228.635c-9.735 11.064-23.356 13.42-30.424 5.263-7.068-8.156-4.906-23.738 4.829-34.802 9.734-11.064 23.355-13.42 30.423-5.263 7.068 8.157 4.906 23.738-4.828 34.802z" fill="url(#f)" transform="translate(-9.452 -.408)"/><path d="M205.177 159.226l22.683 12.914 32.095 17.98c-3.578-1.385-8.269-.893-14.07 1.475-5.803 2.368-10.575 6.204-14.316 11.508-3.445 5.116-5.167 11.03-5.167 17.742 0 6.711 1.559 11.556 4.676 14.533l-52.495-30.671c-3.024-4.046-4.535-8.838-4.535-14.377 0-5.538 1.511-11.102 4.535-16.69 3.975-5.724 7.976-9.677 12.004-11.86 6.042-3.275 11.491-3.53 14.59-2.554z" fill="url(#a)" transform="translate(-9.452 -.408)"/><path d="M171.998 109.664c.048-2.412-1.575-4.835-4.87-6.675l-25.564-14.28c-6.466-3.612-16.914-3.612-23.337 0l-25.4 14.28c-3.201 1.8-4.798 4.158-4.794 6.517v-.023L88 120.426c-.007 2.382 1.618 4.767 4.872 6.585l25.565 14.28c6.464 3.612 16.913 3.612 23.337 0l25.399-14.28c3.19-1.795 4.788-4.143 4.795-6.494l.032-10.943-.002.09z" fill-opacity=".05" fill="#FFF"/><path d="M176.579 103.376c6.467 3.607 6.502 9.456.076 13.063l-25.409 14.264c-6.426 3.607-16.878 3.606-23.346 0l-25.574-14.264c-6.469-3.607-6.503-9.455-.077-13.062l25.409-14.263c6.426-3.608 16.878-3.608 23.346 0l25.575 14.262z" fill="url(#g)" transform="translate(-9.452 -.408)"/><path d="M164.971 11.41v84.333c0 7.14-12.53 12.93-27.985 12.93-15.456 0-27.986-5.79-27.986-12.93l.001-.128L109 11.409c.084 7.108 12.581 12.858 27.986 12.858 15.404 0 27.901-5.75 27.985-12.858z" fill="url(#a)" transform="translate(-9.452 -.408)"/><path d="M127.534 25.86c15.456 0 27.985-5.79 27.985-12.93C155.52 5.789 142.99 0 127.534 0S99.548 5.789 99.548 12.93c0 7.14 12.53 12.93 27.986 12.93z" fill="#EE4D75"/></g></svg>