<svg width="666" height="439" viewBox="0 0 666 439" xmlns="http://www.w3.org/2000/svg"><defs><linearGradient x1="0%" y1="100%" y2="-2.551%" id="a"><stop stop-color="#00DBE2" offset="0%"/><stop stop-color="#01BFE3" offset="100%"/></linearGradient><linearGradient x1="0%" y1="100%" y2="-2.551%" id="b"><stop stop-color="#3BF9FF" offset="0%"/><stop stop-color="#05A1BF" offset="100%"/></linearGradient><linearGradient x1="50%" y1="0%" x2="50%" y2="107.159%" id="c"><stop stop-color="#FFF" stop-opacity=".334" offset="0%"/><stop stop-color="#FFF" stop-opacity="0" offset="100%"/></linearGradient><linearGradient x1="-90.936%" y1="147.729%" y2="-2.551%" id="d"><stop stop-color="#3BF9FF" offset="0%"/><stop stop-color="#05A1BF" offset="100%"/></linearGradient><linearGradient x1="-183.288%" y1="224.155%" y2="-2.551%" id="e"><stop stop-color="#3BF9FF" offset="0%"/><stop stop-color="#05A1BF" offset="100%"/></linearGradient></defs><g fill="none" fill-rule="evenodd"><path d="M.55 31.886v10.832c.08 1.383.94 2.6 2.582 3.652a88.735 88.735 0 0 0 5.471 3.215l41.83 24.265c2.074 1.35 4.112 2.03 6.116 2.037 2.003.008 4.006-.655 6.007-1.989l41.734-24.312c2.722-1.659 4.695-2.808 5.918-3.447 1.224-.64 2.004-1.528 2.34-2.666V33.145c-.136.603-.885 1.299-2.246 2.088-1.286.745-17.407 10.09-48.366 28.032a11.2 11.2 0 0 1-11.267-.02A142544.522 142544.522 0 0 1 2.41 35.035C1.129 34.284.509 33.234.55 31.887z" fill="url(#a)" transform="translate(0 -32)"/><path d="M61.466 2.102l48.852 27.68a4.047 4.047 0 0 1 0 7.042l-48.852 27.68a11.13 11.13 0 0 1-11.071-.057L2.736 36.804a4.047 4.047 0 0 1 0-7.002L50.395 2.159a11.13 11.13 0 0 1 11.071-.057z" fill="url(#b)" transform="translate(0 -32)"/><path d="M564.55 248.886v10.832c.08 1.383.94 2.6 2.582 3.652a88.735 88.735 0 0 0 5.471 3.215l41.83 24.265c2.074 1.35 4.112 2.03 6.116 2.037 2.003.008 4.006-.655 6.007-1.989l41.734-24.312c2.722-1.659 4.695-2.808 5.918-3.447 1.224-.64 2.004-1.528 2.34-2.666v-10.328c-.136.603-.885 1.299-2.246 2.088-1.286.745-17.407 10.09-48.366 28.032a11.2 11.2 0 0 1-11.267-.02 142550.64 142550.64 0 0 1-48.258-28.21c-1.282-.752-1.902-1.802-1.861-3.149z" fill="url(#a)" transform="translate(0 -32)"/><path d="M625.466 219.102l48.852 27.68a4.047 4.047 0 0 1 0 7.042l-48.852 27.68a11.13 11.13 0 0 1-11.071-.057l-47.659-27.643a4.047 4.047 0 0 1 0-7.002l47.659-27.643a11.13 11.13 0 0 1 11.071-.057z" fill="url(#b)" transform="translate(0 -32)"/><path d="M665.546 196.703c.053-2.66-1.726-5.334-5.333-7.364l-28-15.758c-7.081-3.985-18.524-3.985-25.56 0l-27.818 15.758c-3.506 1.987-5.255 4.588-5.251 7.191v-.025l-.036 12.074c-.008 2.628 1.772 5.26 5.335 7.266l28 15.758c7.08 3.985 18.525 3.986 25.56 0l27.818-15.758c3.495-1.98 5.244-4.571 5.252-7.166l.035-12.074-.002.098z" fill-opacity=".05" fill="#FFF"/><path d="M660.21 221.366c7.084 3.99 7.122 10.46.084 14.452l-27.828 15.78c-7.039 3.992-18.487 3.991-25.57.001l-28.01-15.78c-7.085-3.992-7.122-10.462-.084-14.453l27.829-15.78c7.038-3.992 18.485-3.992 25.57 0l28.01 15.78z" fill="url(#c)" transform="translate(0 -32)"/><path d="M276.466 450.102l48.852 27.68a4.047 4.047 0 0 1 0 7.042l-48.852 27.68a11.13 11.13 0 0 1-11.071-.057l-47.659-27.643a4.047 4.047 0 0 1 0-7.002l47.659-27.644a11.13 11.13 0 0 1 11.071-.056zM408.49 286.118l51.017 29.405a4.055 4.055 0 0 1 0 7.026l-51.017 29.406a11.15 11.15 0 0 1-11.234-.057l-49.773-29.37a4.055 4.055 0 0 1 0-6.984l49.773-29.369a11.15 11.15 0 0 1 11.234-.057z" fill="url(#b)" transform="translate(0 -32)"/><path d="M345.55 318.505v86.72c.082 1.455.973 2.737 2.673 3.845a91.496 91.496 0 0 0 5.662 3.384l43.294 25.55c2.146 1.421 4.256 2.136 6.33 2.145 2.073.008 4.146-.69 6.217-2.095l43.194-25.598c2.818-1.747 4.86-2.957 6.126-3.63s2.073-1.609 2.421-2.806v-86.19c-.14.635-.916 1.368-2.325 2.199l-6.223 3.667-43.193 25.453c-2.148 1.233-4.308 1.836-6.478 1.809-2.171-.028-4.256-.684-6.256-1.969l-43.155-25.323a1171.78 1171.78 0 0 0-6.361-3.845c-1.327-.792-1.969-1.898-1.926-3.316z" fill="url(#a)" transform="translate(0 -32)"/><path d="M347.55 211.986v82.624c.08 1.387.94 2.608 2.582 3.664a88.671 88.671 0 0 0 5.471 3.225l41.83 24.342c2.074 1.355 4.112 2.036 6.116 2.044 2.003.008 4.006-.657 6.007-1.995l41.734-24.39c2.722-1.664 4.695-2.817 5.918-3.458 1.224-.642 2.004-1.533 2.34-2.674v-82.12c-.136.605-.885 1.304-2.246 2.095l-48.352 28.115a11.2 11.2 0 0 1-11.295-.02 142372.513 142372.513 0 0 1-48.244-28.292c-1.282-.756-1.902-1.809-1.861-3.16z" fill="url(#a)" transform="translate(0 -32)"/><path d="M408.48 182.115l48.863 27.773a4.047 4.047 0 0 1 0 7.038L408.479 244.7a11.13 11.13 0 0 1-11.098-.057l-47.669-27.737a4.047 4.047 0 0 1 0-6.997l47.67-27.738a11.13 11.13 0 0 1 11.097-.056z" fill="url(#d)" transform="translate(0 -32)"/><path d="M448.998 165.111c.053-2.66-1.726-5.334-5.333-7.364l-28-15.758c-7.081-3.985-18.524-3.985-25.56 0l-27.817 15.758c-3.507 1.986-5.256 4.588-5.252 7.191v-.025L357 176.987c-.008 2.628 1.772 5.26 5.335 7.266l28 15.758c7.08 3.985 18.525 3.986 25.56 0l27.818-15.758c3.495-1.98 5.244-4.571 5.252-7.166l.035-12.074-.002.098z" fill-opacity=".05" fill="#FFF"/><path d="M443.663 189.774c7.083 3.99 7.121 10.46.083 14.452l-27.828 15.78c-7.038 3.992-18.487 3.991-25.57.001l-28.01-15.78c-7.085-3.992-7.122-10.462-.084-14.453l27.829-15.78c7.038-3.992 18.485-3.992 25.57 0l28.01 15.78z" fill="url(#c)" transform="translate(0 -32)"/><path d="M347.55 133.952v46.695c.08 1.385.94 2.605 2.582 3.66a88.693 88.693 0 0 0 5.471 3.221l41.83 24.316c2.074 1.354 4.112 2.034 6.116 2.042 2.003.008 4.006-.657 6.007-1.993l41.734-24.364c2.722-1.662 4.695-2.814 5.918-3.454 1.224-.64 2.004-1.531 2.34-2.671v-46.19c-.136.603-.885 1.3-2.246 2.092l-48.357 28.086a11.2 11.2 0 0 1-11.285-.02 133829.86 133829.86 0 0 1-48.25-28.264c-1.281-.754-1.901-1.806-1.86-3.156z" fill="url(#a)" transform="translate(0 -32)"/><path d="M408.475 104.11l48.86 27.742a4.047 4.047 0 0 1 0 7.04l-48.86 27.74a11.13 11.13 0 0 1-11.09-.055L349.72 138.87a4.047 4.047 0 0 1 0-6.999l47.666-27.705a11.13 11.13 0 0 1 11.089-.056z" fill="url(#e)" transform="translate(0 -32)"/><path d="M448.998 87.111c.053-2.66-1.726-5.334-5.333-7.364l-28-15.758c-7.081-3.985-18.524-3.985-25.56 0l-27.817 15.758c-3.507 1.986-5.256 4.588-5.252 7.191v-.025L357 98.987c-.008 2.628 1.772 5.26 5.335 7.266l28 15.758c7.08 3.985 18.525 3.986 25.56 0l27.818-15.758c3.495-1.98 5.244-4.571 5.252-7.166L449 87.013l-.002.098z" fill-opacity=".05" fill="#FFF"/><path d="M443.663 111.774c7.083 3.99 7.121 10.46.083 14.452l-27.828 15.78c-7.038 3.992-18.487 3.991-25.57.001l-28.01-15.78c-7.085-3.992-7.122-10.462-.084-14.453l27.829-15.78c7.038-3.992 18.485-3.992 25.57 0l28.01 15.78z" fill="url(#c)" transform="translate(0 -32)"/><path d="M347.55 93.886v10.832c.08 1.383.94 2.6 2.582 3.652a88.735 88.735 0 0 0 5.471 3.215l41.83 24.265c2.074 1.35 4.112 2.03 6.116 2.037 2.003.008 4.006-.655 6.007-1.989l41.734-24.312c2.722-1.659 4.695-2.808 5.918-3.447 1.224-.64 2.004-1.528 2.34-2.666V95.145c-.136.603-.885 1.299-2.246 2.088-1.286.745-17.407 10.09-48.366 28.032a11.2 11.2 0 0 1-11.267-.02 142538.112 142538.112 0 0 1-48.258-28.21c-1.282-.752-1.902-1.802-1.861-3.149z" fill="url(#a)" transform="translate(0 -32)"/><path d="M408.466 64.102l48.852 27.68a4.047 4.047 0 0 1 0 7.042l-48.852 27.68a11.13 11.13 0 0 1-11.071-.057l-47.659-27.643a4.047 4.047 0 0 1 0-7.002l47.659-27.644a11.13 11.13 0 0 1 11.071-.056z" fill="url(#b)" transform="translate(0 -32)"/><path d="M448.998 48.111c.053-2.66-1.726-5.334-5.333-7.364l-28-15.758c-7.081-3.985-18.524-3.985-25.56 0l-27.817 15.758c-3.507 1.986-5.256 4.588-5.252 7.191v-.025L357 59.987c-.008 2.628 1.772 5.26 5.335 7.266l28 15.758c7.08 3.985 18.525 3.986 25.56 0l27.818-15.758c3.495-1.98 5.244-4.571 5.252-7.166L449 48.013l-.002.098z" fill-opacity=".05" fill="#FFF"/><path d="M443.663 72.774c7.083 3.99 7.121 10.46.083 14.452l-27.828 15.78c-7.038 3.992-18.487 3.991-25.57.001l-28.01-15.78c-7.085-3.992-7.122-10.462-.084-14.453l27.829-15.78c7.038-3.992 18.485-3.992 25.57 0l28.01 15.78z" fill="url(#c)" transform="translate(0 -32)"/></g></svg>