<svg width="397" height="371" viewBox="0 0 397 371" xmlns="http://www.w3.org/2000/svg" xmlns:xlink="http://www.w3.org/1999/xlink"><defs><ellipse id="a" cx="114.705" cy="115.166" rx="114.293" ry="114.281"/><linearGradient x1="84.352%" y1="0%" x2="50%" y2="105.026%" id="b"><stop stop-color="#5BCFE8" stop-opacity="0" offset="0%"/><stop stop-color="#2CB2E1" offset="100%"/></linearGradient><linearGradient x1="-6.454%" y1="89.92%" x2="100%" y2="0%" id="c"><stop stop-color="#5BCFE8" stop-opacity="0" offset="0%"/><stop stop-color="#2CB2E1" offset="100%"/></linearGradient><linearGradient x1="197.852%" y1="50%" x2="-49.186%" y2="50%" id="d"><stop stop-color="#5BCFE8" stop-opacity="0" offset="0%"/><stop stop-color="#2CB2E1" offset="100%"/></linearGradient></defs><g fill="none"><use fill="#40444F" xlink:href="#a" transform="translate(96.996 29.13)"/><path d="M291.97 110.024c8.191 11.088 12.475 24.192 12.475 37.8 0 16.505-6.804 31.751-18.397 44.099l7.056 26.334h21.422l22.557-25.578 6.048-37.422 1.26-22.301-22.304-25.2-30.117 2.268z" fill="#2B2E37"/><path d="M43.726 221.28l3.907 15.498s46.12 94.625 149.954 129.779c0 0 94.466-40.32 136.428-108.737l-57.922-50.525s-27.723 22.05-68.929 22.05-97.155-24.57-97.155-75.222c0-50.651 57.965-69.173 57.965-69.173l-24.698-6.048H80.144l-40.072 96.515 3.654 45.864z" fill="#2B2E37"/><path d="M392.654 114.911c-1.764-1.764-46.725-53.861-186.976-102.119-4.806-1.872-7.209-3.21-7.209-4.014C68.197 41.993 4.284 110.547 4.284 114.91c0 4.364 18.65 69.956 30.747 96.668 1.008 2.268 17.138 30.743 29.11 46.241-7.057-15.498-14.744-28.98-14.744-52.163 0-65.394 50.657-118.565 114.04-120.833 1.513 0 3.151 0 4.663.126L152.98 69.83s60.864-10.206 138.991 37.044c0 0 1.134 2.394 0 9.45 0 0 36.796 15.876 39.946 46.745 3.15 30.87-16.381 48.51-32.133 51.03 0 0 8.19-12.726-4.41-19.53-2.647-1.512-5.797-2.142-8.947-2.016-24.069 0-26.84 27.468-26.84 27.468-.253 1.386-.253 2.771-.253 4.157 0 0-4.032 40.194 67.543 39.438 0 0 36.291-41.076 45.868-77.993 3.528-13.608 6.049-23.814 7.687-31.374 4.032-10.71 7.939-26.486 11.719-37.952l.504-1.386z" fill="#17181D"/><path d="M260.845 119.096c1.008-.504 4.285-2.142 8.065-6.048 7.56 1.008 14.995 3.402 14.995 3.402-13.735-8.316-32.51-13.23-53.303-13.104 0 0 7.94 11.34 29.991 16.002l.252-.252z" fill="#17181D" opacity=".895"/><path d="M394.04 108.704C318.18 43.176 222.285 9.127 202.376 2.574l-1.89-.642-2.52-.77-4.411 1.412C173.645 9.127 77.75 43.176 1.89 108.704l-1.638 1.413.378 2.185c.126.514 8.317 50.238 36.292 106.386 16.507 33.021 36.543 61.674 59.477 85.444 28.101 29.038 60.864 50.495 97.282 63.857l2.142.771 2.142.771 2.268-.9 2.143-.77c36.417-13.363 69.054-34.82 97.281-63.858 22.934-23.641 42.97-52.422 59.478-85.443 27.974-56.02 36.291-105.873 36.291-106.387l.378-2.184-1.764-1.285zm-41.836 106.387c-16.13 32.25-35.661 60.388-58.092 83.516-27.848 28.652-60.107 49.724-96.147 62.701-36.04-12.977-68.298-33.92-96.147-62.573-22.43-23.127-41.962-51.137-58.092-83.387C19.406 166.78 10.333 123.223 8.443 113.2 86.193 46.774 184.482 13.624 197.965 9.256c13.357 4.368 111.773 37.518 189.522 103.945-1.89 9.894-11.089 53.45-35.283 101.89z" fill="#0E0F12"/><path d="M394.04 108.704C318.18 43.176 222.285 9.127 202.376 2.574l-1.89-.642-2.52-.77-4.411 1.412C173.645 9.127 77.75 43.176 1.89 108.704l-1.638 1.413.378 2.185c.126.514 8.317 50.238 36.292 106.386 16.507 33.021 36.543 61.674 59.477 85.444 28.101 29.038 60.864 50.495 97.282 63.857l2.142.771 2.142.771 2.268-.9 2.143-.77c36.417-13.363 69.054-34.82 97.281-63.858 22.934-23.641 42.97-52.422 59.478-85.443 27.974-56.02 36.291-105.873 36.291-106.387l.378-2.184-1.764-1.285zm-41.836 106.387c-16.13 32.25-35.661 60.388-58.092 83.516-27.848 28.652-60.107 49.724-96.147 62.701-36.04-12.977-68.298-33.92-96.147-62.573-22.43-23.127-41.962-51.137-58.092-83.387C19.406 166.78 10.333 123.223 8.443 113.2 86.193 46.774 184.482 13.624 197.965 9.256c13.357 4.368 111.773 37.518 189.522 103.945-1.89 9.894-11.089 53.45-35.283 101.89z" stroke="#44C0D3" stroke-width="1.07" stroke-linecap="round" stroke-dasharray="2.14"/><path d="M196.72 353.46c34.64 0 62.721-28.085 62.721-62.73 0-34.645-28.08-62.73-62.72-62.73S134 256.085 134 290.73c0 34.645 28.08 62.73 62.72 62.73z" stroke="url(#b)" stroke-width="1.07" stroke-dasharray="2.461" transform="translate(0 1)"/><path d="M196.891 69.789c16.509 0 29.891-13.384 29.891-29.895 0-16.51-13.382-29.894-29.89-29.894C180.381 10 167 23.384 167 39.894c0 16.51 13.383 29.895 29.891 29.895z" stroke="url(#c)" stroke-width="1.07" stroke-dasharray="2.461" transform="translate(0 1)"/><path d="M41.516 155.036c16.303 0 29.52-13.215 29.52-29.516s-13.217-29.516-29.52-29.516c-16.304 0-29.52 13.215-29.52 29.516s13.216 29.516 29.52 29.516z" stroke="url(#d)" stroke-width="1.07" stroke-dasharray="2.461" transform="rotate(90 41.016 126.02)"/><path d="M351.667 156.367c17.485 0 31.659-14.173 31.659-31.656 0-17.483-14.174-31.656-31.66-31.656-17.484 0-31.658 14.173-31.658 31.656 0 17.483 14.174 31.656 31.659 31.656z" stroke="url(#d)" stroke-width="1.07" stroke-dasharray="2.461" transform="rotate(90 351.167 125.211)"/></g></svg>