<svg width="68" height="58" viewBox="0 0 68 58" xmlns="http://www.w3.org/2000/svg"><defs><linearGradient x1="97.315%" y1="2.685%" x2="0%" y2="100%" id="a"><stop stop-color="#FF6056" offset="0%"/><stop stop-color="#FF5D5D" offset="100%"/></linearGradient><linearGradient x1="3.089%" y1="96.911%" x2="126.685%" y2="0%" id="b"><stop stop-color="#FEDB5A" offset="0%"/><stop stop-color="#FFA8A8" offset="100%"/></linearGradient><linearGradient x1="115.231%" y1="12.039%" x2="-5.158%" y2="96.911%" id="c"><stop stop-color="#CAA418" offset="0%"/><stop stop-color="#FFA8A8" offset="100%"/></linearGradient><linearGradient x1="50%" y1="0%" x2="50%" y2="107.159%" id="d"><stop stop-color="#FFF" stop-opacity=".334" offset="0%"/><stop stop-color="#FFF" stop-opacity="0" offset="100%"/></linearGradient><filter x="-5.5%" y="-8.9%" width="110.9%" height="117.8%" filterUnits="objectBoundingBox" id="e"><feGaussianBlur stdDeviation=".4" in="SourceGraphic"/></filter></defs><g fill="none" fill-rule="evenodd"><path d="M67.998 29.57c.04-1.995-1.275-4-3.941-5.522L43.36 12.232c-5.234-2.988-13.692-2.988-18.892 0L3.91 24.049C1.315 25.538.023 27.488.025 29.44v-.019L0 38.475c-.006 1.97 1.31 3.944 3.944 5.448l20.695 11.816c5.234 2.987 13.692 2.988 18.892 0l20.561-11.816c2.583-1.485 3.876-3.428 3.882-5.373L68 29.496l-.002.074z" fill="url(#a)"/><path d="M64.118 34.87l-20.56 11.815c-5.201 2.988-13.66 2.988-18.893 0L3.97 34.87C1.336 33.366.02 31.392.026 29.421L0 38.475c-.006 1.97 1.31 3.944 3.944 5.448l20.695 11.816c5.234 2.987 13.692 2.988 18.892 0l20.561-11.816c2.583-1.485 3.876-3.428 3.882-5.373L68 29.496c-.006 1.946-1.299 3.889-3.882 5.373z" fill="url(#b)"/><path d="M64.057 24.048c5.233 2.988 5.261 7.833.061 10.821l-20.56 11.816c-5.201 2.989-13.66 2.988-18.893 0L3.97 34.87c-5.235-2.988-5.262-7.832-.062-10.82l20.561-11.817c5.2-2.988 13.658-2.988 18.892 0l20.696 11.816z" fill="url(#c)"/><path d="M67.998 19.639c.04-1.996-1.275-4-3.941-5.522L43.36 2.3c-5.234-2.988-13.692-2.988-18.892 0L3.91 14.117c-2.593 1.49-3.885 3.44-3.883 5.392v-.02L0 28.544c-.006 1.97 1.31 3.945 3.944 5.448l20.695 11.816c5.234 2.988 13.692 2.988 18.892 0L64.092 33.99c2.583-1.484 3.876-3.427 3.882-5.373L68 19.565l-.002.074z" fill-opacity=".05" fill="#FFF"/><path d="M64.057 14.117c5.233 2.988 5.261 7.832.061 10.82l-20.56 11.817c-5.201 2.988-13.66 2.988-18.893 0L3.97 24.938c-5.235-2.988-5.262-7.833-.062-10.821L24.469 2.3c5.2-2.988 13.658-2.988 18.892 0l20.696 11.816z" fill="url(#d)"/><path d="M47.077 15.646c0-2.717-3.592-4.92-8.022-4.92-2.013 0-3.848.458-5.256 1.209-1.41-.751-3.243-1.209-5.256-1.209-4.43 0-8.022 2.203-8.022 4.92 0 1.235.746 2.36 1.97 3.224-1.224.863-1.97 1.989-1.97 3.223 0 2.718 3.591 4.92 8.022 4.92 2.013 0 3.847-.457 5.256-1.208 1.408.75 3.243 1.209 5.256 1.209 4.43 0 8.022-2.203 8.022-4.92 0-1.235-.747-2.36-1.971-3.224 1.225-.863 1.97-1.99 1.97-3.224zM32.33 24.771c-1.02.545-2.334.885-3.788.885-3.203 0-5.81-1.598-5.81-3.563 0-1.964 2.607-3.563 5.81-3.563 1.457 0 2.773.343 3.795.888-.82.77-1.305 1.687-1.305 2.675 0 .99.48 1.908 1.298 2.678zm-3.788-7.598c-1.612 0-3.11.294-4.368.797-.886-.626-1.441-1.432-1.441-2.324 0-1.964 2.606-3.563 5.809-3.563 3.203 0 5.81 1.599 5.81 3.563 0 .894-.559 1.701-1.447 2.328-1.256-.503-2.75-.8-4.363-.8zm10.512 8.483c-3.203 0-5.81-1.598-5.81-3.563 0-.893.558-1.7 1.446-2.327 1.257.503 2.751.8 4.364.8 1.612 0 3.11-.294 4.367-.796.886.625 1.442 1.432 1.442 2.323 0 1.965-2.607 3.563-5.81 3.563zm0-6.447c-1.457 0-2.774-.342-3.794-.888.819-.77 1.304-1.686 1.304-2.675 0-.989-.48-1.907-1.298-2.678 1.02-.544 2.334-.885 3.788-.885 3.202 0 5.809 1.599 5.809 3.563 0 1.965-2.607 3.563-5.81 3.563z" stroke="#FFF" stroke-width=".5" fill-rule="nonzero"/><path d="M47.077 15.646c0-2.717-3.592-4.92-8.022-4.92-2.013 0-3.848.458-5.256 1.209-1.41-.751-3.243-1.209-5.256-1.209-4.43 0-8.022 2.203-8.022 4.92 0 1.235.746 2.36 1.97 3.224-1.224.863-1.97 1.989-1.97 3.223 0 2.718 3.591 4.92 8.022 4.92 2.013 0 3.847-.457 5.256-1.208 1.408.75 3.243 1.209 5.256 1.209 4.43 0 8.022-2.203 8.022-4.92 0-1.235-.747-2.36-1.971-3.224 1.225-.863 1.97-1.99 1.97-3.224zM32.33 24.771c-1.02.545-2.334.885-3.788.885-3.203 0-5.81-1.598-5.81-3.563 0-1.964 2.607-3.563 5.81-3.563 1.457 0 2.773.343 3.795.888-.82.77-1.305 1.687-1.305 2.675 0 .99.48 1.908 1.298 2.678zm-3.788-7.598c-1.612 0-3.11.294-4.368.797-.886-.626-1.441-1.432-1.441-2.324 0-1.964 2.606-3.563 5.809-3.563 3.203 0 5.81 1.599 5.81 3.563 0 .894-.559 1.701-1.447 2.328-1.256-.503-2.75-.8-4.363-.8zm10.512 8.483c-3.203 0-5.81-1.598-5.81-3.563 0-.893.558-1.7 1.446-2.327 1.257.503 2.751.8 4.364.8 1.612 0 3.11-.294 4.367-.796.886.625 1.442 1.432 1.442 2.323 0 1.965-2.607 3.563-5.81 3.563zm0-6.447c-1.457 0-2.774-.342-3.794-.888.819-.77 1.304-1.686 1.304-2.675 0-.989-.48-1.907-1.298-2.678 1.02-.544 2.334-.885 3.788-.885 3.202 0 5.809 1.599 5.809 3.563 0 1.965-2.607 3.563-5.81 3.563z" stroke="#FFF" stroke-width=".5" fill-rule="nonzero" filter="url(#e)"/></g></svg>