<svg width="68" height="58" viewBox="0 0 68 58" xmlns="http://www.w3.org/2000/svg"><defs><linearGradient x1="0%" y1="100%" x2="100%" y2="0%" id="a"><stop stop-color="#F19F73" offset="0%"/><stop stop-color="#A74EB5" offset="100%"/></linearGradient><linearGradient x1="0%" y1="94.748%" x2="100%" y2="0%" id="b"><stop stop-color="#E87233" offset="0%"/><stop stop-color="#A74EB5" offset="100%"/></linearGradient><linearGradient x1="50%" y1="0%" x2="50%" y2="107.159%" id="c"><stop stop-color="#FFF" stop-opacity=".334" offset="0%"/><stop stop-color="#FFF" stop-opacity="0" offset="100%"/></linearGradient><filter x="-7.8%" y="-13.1%" width="115.6%" height="127.4%" filterUnits="objectBoundingBox" id="d"><feGaussianBlur stdDeviation=".629" in="SourceGraphic"/></filter></defs><g fill="none" fill-rule="evenodd"><path d="M67.998 29.57c.04-1.995-1.275-4-3.941-5.522L43.36 12.232c-5.234-2.988-13.692-2.988-18.892 0L3.91 24.049C1.315 25.538.023 27.488.025 29.44v-.019L0 38.475c-.006 1.97 1.31 3.944 3.944 5.448l20.695 11.816c5.234 2.987 13.692 2.988 18.892 0l20.561-11.816c2.583-1.485 3.876-3.428 3.882-5.373L68 29.496l-.002.074z" fill="url(#a)"/><path d="M64.118 34.87l-20.56 11.815c-5.201 2.988-13.66 2.988-18.893 0L3.97 34.87C1.336 33.366.02 31.392.026 29.421L0 38.475c-.006 1.97 1.31 3.944 3.944 5.448l20.695 11.816c5.234 2.987 13.692 2.988 18.892 0l20.561-11.816c2.583-1.485 3.876-3.428 3.882-5.373L68 29.496c-.006 1.946-1.299 3.889-3.882 5.373z" fill="url(#a)"/><path d="M64.057 24.048c5.233 2.988 5.261 7.833.061 10.821l-20.56 11.816c-5.201 2.989-13.66 2.988-18.893 0L3.97 34.87c-5.235-2.988-5.262-7.832-.062-10.82l20.561-11.817c5.2-2.988 13.658-2.988 18.892 0l20.696 11.816z" fill="url(#b)"/><path d="M67.998 19.639c.04-1.996-1.275-4-3.941-5.522L43.36 2.3c-5.234-2.988-13.692-2.988-18.892 0L3.91 14.117c-2.593 1.49-3.885 3.44-3.883 5.392v-.02L0 28.544c-.006 1.97 1.31 3.945 3.944 5.448l20.695 11.816c5.234 2.988 13.692 2.988 18.892 0L64.092 33.99c2.583-1.484 3.876-3.427 3.882-5.373L68 19.565l-.002.074z" fill-opacity=".05" fill="#FFF"/><path d="M64.057 14.117c5.233 2.988 5.261 7.832.061 10.82l-20.56 11.817c-5.201 2.988-13.66 2.988-18.893 0L3.97 24.938c-5.235-2.988-5.262-7.833-.062-10.821L24.469 2.3c5.2-2.988 13.658-2.988 18.892 0l20.696 11.816z" fill="url(#c)"/><path d="M38.493 10.726c-6.297 0-11.4 3.039-11.4 6.786h-4.56v9.502l7.899-4.703c2.063 1.229 4.913 1.988 8.061 1.988 6.296 0 11.4-3.039 11.4-6.787 0-3.747-5.104-6.786-11.4-6.786zm-13.68 13.011V18.87h8.176l-8.176 4.867zm13.68-.795c-2.514 0-4.794-.61-6.446-1.592l6.446-3.838h-9.12c0-2.993 4.091-5.429 9.12-5.429 5.029 0 9.12 2.436 9.12 5.43 0 2.993-4.091 5.429-9.12 5.429z" stroke="#FFF" stroke-width=".5" fill-rule="nonzero"/><path d="M38.493 10.726c-6.297 0-11.4 3.039-11.4 6.786h-4.56v9.502l7.899-4.703c2.063 1.229 4.913 1.988 8.061 1.988 6.296 0 11.4-3.039 11.4-6.787 0-3.747-5.104-6.786-11.4-6.786zm-13.68 13.011V18.87h8.176l-8.176 4.867zm13.68-.795c-2.514 0-4.794-.61-6.446-1.592l6.446-3.838h-9.12c0-2.993 4.091-5.429 9.12-5.429 5.029 0 9.12 2.436 9.12 5.43 0 2.993-4.091 5.429-9.12 5.429z" stroke="#FFF" stroke-width=".5" fill-rule="nonzero" filter="url(#d)"/></g></svg>