<svg width="68" height="58" viewBox="0 0 68 58" xmlns="http://www.w3.org/2000/svg"><defs><linearGradient x1="0%" y1="100%" y2="0%" id="a"><stop stop-color="#F19F73" offset="0%"/><stop stop-color="#A74EB5" offset="100%"/></linearGradient><linearGradient x1="0%" y1="100%" y2="0%" id="b"><stop stop-color="#FFCF71" offset="0%"/><stop stop-color="#24CFDD" offset="100%"/></linearGradient><linearGradient x1="137.565%" y1="-50.858%" x2="12.411%" y2="139.941%" id="c"><stop stop-color="#FFCF71" offset="0%"/><stop stop-color="#10ABB7" offset="100%"/></linearGradient><linearGradient x1="50%" y1="0%" x2="50%" y2="107.159%" id="d"><stop stop-color="#FFF" stop-opacity=".334" offset="0%"/><stop stop-color="#FFF" stop-opacity="0" offset="100%"/></linearGradient><filter x="-14.2%" y="-22.9%" width="128.4%" height="145.8%" filterUnits="objectBoundingBox" id="e"><feGaussianBlur stdDeviation=".8" in="SourceGraphic"/></filter><filter x="-17.1%" y="-27.7%" width="134.3%" height="155.3%" filterUnits="objectBoundingBox" id="f"><feGaussianBlur stdDeviation=".8" in="SourceGraphic"/></filter></defs><g fill="none" fill-rule="evenodd"><path d="M67.998 29.57c.04-1.995-1.275-4-3.941-5.522L43.36 12.232c-5.234-2.988-13.692-2.988-18.892 0L3.91 24.049C1.315 25.538.023 27.488.025 29.44v-.019L0 38.475c-.006 1.97 1.31 3.944 3.944 5.448l20.695 11.816c5.234 2.987 13.692 2.988 18.892 0l20.561-11.816c2.583-1.485 3.876-3.428 3.882-5.373L68 29.496l-.002.074z" fill="url(#a)"/><path d="M64.118 34.87l-20.56 11.815c-5.201 2.988-13.66 2.988-18.893 0L3.97 34.87C1.336 33.366.02 31.392.026 29.421L0 38.475c-.006 1.97 1.31 3.944 3.944 5.448l20.695 11.816c5.234 2.987 13.692 2.988 18.892 0l20.561-11.816c2.583-1.485 3.876-3.428 3.882-5.373L68 29.496c-.006 1.946-1.299 3.889-3.882 5.373z" fill="url(#b)"/><path d="M64.057 24.048c5.233 2.988 5.261 7.833.061 10.821l-20.56 11.816c-5.201 2.989-13.66 2.988-18.893 0L3.97 34.87c-5.235-2.988-5.262-7.832-.062-10.82l20.561-11.817c5.2-2.988 13.658-2.988 18.892 0l20.696 11.816z" fill="url(#c)"/><path d="M67.998 19.639c.04-1.996-1.275-4-3.941-5.522L43.36 2.3c-5.234-2.988-13.692-2.988-18.892 0L3.91 14.117c-2.593 1.49-3.885 3.44-3.883 5.392v-.02L0 28.544c-.006 1.97 1.31 3.945 3.944 5.448l20.695 11.816c5.234 2.988 13.692 2.988 18.892 0L64.092 33.99c2.583-1.484 3.876-3.427 3.882-5.373L68 19.565l-.002.074z" fill-opacity=".05" fill="#FFF"/><path d="M64.057 14.117c5.233 2.988 5.261 7.832.061 10.82l-20.56 11.817c-5.201 2.988-13.66 2.988-18.893 0L3.97 24.938c-5.235-2.988-5.262-7.833-.062-10.821L24.469 2.3c5.2-2.988 13.658-2.988 18.892 0l20.696 11.816z" fill="url(#d)"/><path d="M37.602 10.726H27.556v1.39h10.046c3.628 0 6.569 1.967 6.569 4.393 0 2.427-2.94 4.393-6.57 4.393H27.557v1.39h10.046c4.775 0 8.646-2.59 8.646-5.783 0-3.193-3.87-5.783-8.646-5.783z" stroke="#FFF" stroke-width=".5"/><path d="M29.972 17.218h10.045V15.83H29.972c-4.776 0-8.647 2.589-8.647 5.782 0 3.194 3.871 5.784 8.647 5.784h10.045v-1.39H29.972c-3.629 0-6.57-1.968-6.57-4.394s2.941-4.393 6.57-4.393z" stroke="#FFF" stroke-width=".5"/><path d="M37.602 10.726H27.556v1.39h10.046c3.628 0 6.569 1.967 6.569 4.393 0 2.427-2.94 4.393-6.57 4.393H27.557v1.39h10.046c4.775 0 8.646-2.59 8.646-5.783 0-3.193-3.87-5.783-8.646-5.783z" stroke="#FFF" stroke-width=".5" filter="url(#e)"/><path d="M30.092 18.966h8.316v-1.15h-8.316c-3.953 0-7.157 2.144-7.157 4.789 0 2.645 3.204 4.79 7.157 4.79h8.316v-1.15h-8.316c-3.003 0-5.438-1.631-5.438-3.64 0-2.01 2.434-3.639 5.438-3.639z" stroke="#FFF" stroke-width=".5" filter="url(#f)"/></g></svg>