<svg width="68" height="58" viewBox="0 0 68 58" xmlns="http://www.w3.org/2000/svg"><defs><linearGradient x1="0%" y1="100%" y2="0%" id="a"><stop stop-color="#F19F73" offset="0%"/><stop stop-color="#A74EB5" offset="100%"/></linearGradient><linearGradient x1="122.249%" y1="-11.89%" x2="-4.849%" y2="111.606%" id="b"><stop stop-color="#02F0E4" offset="0%"/><stop stop-color="#02D5EB" offset="100%"/></linearGradient><linearGradient x1="122.249%" y1="-11.89%" x2="-4.849%" y2="111.606%" id="c"><stop stop-color="#02F0E4" offset="0%"/><stop stop-color="#009BAB" offset="100%"/></linearGradient><linearGradient x1="50%" y1="0%" x2="50%" y2="107.159%" id="d"><stop stop-color="#FFF" stop-opacity=".334" offset="0%"/><stop stop-color="#FFF" stop-opacity="0" offset="100%"/></linearGradient><filter x="-9.2%" y="-19.9%" width="118.4%" height="139.9%" filterUnits="objectBoundingBox" id="e"><feGaussianBlur stdDeviation=".612" in="SourceGraphic"/></filter><filter x="-9.2%" y="-19.9%" width="118.4%" height="139.9%" filterUnits="objectBoundingBox" id="f"><feGaussianBlur stdDeviation=".612" in="SourceGraphic"/></filter><filter x="-9.2%" y="-19.9%" width="118.4%" height="139.9%" filterUnits="objectBoundingBox" id="g"><feGaussianBlur stdDeviation=".612" in="SourceGraphic"/></filter></defs><g fill="none" fill-rule="evenodd"><path d="M67.998 29.57c.04-1.995-1.275-4-3.941-5.522L43.36 12.232c-5.234-2.988-13.692-2.988-18.892 0L3.91 24.049C1.315 25.538.023 27.488.025 29.44v-.019L0 38.475c-.006 1.97 1.31 3.944 3.944 5.448l20.695 11.816c5.234 2.987 13.692 2.988 18.892 0l20.561-11.816c2.583-1.485 3.876-3.428 3.882-5.373L68 29.496l-.002.074z" fill="url(#a)"/><path d="M64.118 34.87l-20.56 11.815c-5.201 2.988-13.66 2.988-18.893 0L3.97 34.87C1.336 33.366.02 31.392.026 29.421L0 38.475c-.006 1.97 1.31 3.944 3.944 5.448l20.695 11.816c5.234 2.987 13.692 2.988 18.892 0l20.561-11.816c2.583-1.485 3.876-3.428 3.882-5.373L68 29.496c-.006 1.946-1.299 3.889-3.882 5.373z" fill="url(#b)"/><path d="M64.057 24.048c5.233 2.988 5.261 7.833.061 10.821l-20.56 11.816c-5.201 2.989-13.66 2.988-18.893 0L3.97 34.87c-5.235-2.988-5.262-7.832-.062-10.82l20.561-11.817c5.2-2.988 13.658-2.988 18.892 0l20.696 11.816z" fill="url(#c)"/><path d="M67.998 19.639c.04-1.996-1.275-4-3.941-5.522L43.36 2.3c-5.234-2.988-13.692-2.988-18.892 0L3.91 14.117c-2.593 1.49-3.885 3.44-3.883 5.392v-.02L0 28.544c-.006 1.97 1.31 3.945 3.944 5.448l20.695 11.816c5.234 2.988 13.692 2.988 18.892 0L64.092 33.99c2.583-1.484 3.876-3.427 3.882-5.373L68 19.565l-.002.074z" fill-opacity=".05" fill="#FFF"/><path d="M64.057 14.117c5.233 2.988 5.261 7.832.061 10.82l-20.56 11.817c-5.201 2.988-13.66 2.988-18.893 0L3.97 24.938c-5.235-2.988-5.262-7.833-.062-10.821L24.469 2.3c5.2-2.988 13.658-2.988 18.892 0l20.696 11.816z" fill="url(#d)"/><path d="M28.758 20.139l-6.14 3.506a1.835 1.835 0 0 1-1.814.002l-6.19-3.51a.612.612 0 0 1 0-1.064l6.139-3.506a1.835 1.835 0 0 1 1.815-.003l6.189 3.512a.612.612 0 0 1 .001 1.063z" stroke="#FFF" stroke-width=".612"/><path d="M38.843 14.526l6.922 3.937a.965.965 0 0 1 .003 1.683l-1.08.618m-8.704 4.983a2.99 2.99 0 0 1-2.96.004l-6.685-3.802m-.874-4.81l5.325-3.049" stroke="#FFF" stroke-width=".52" opacity=".229" stroke-linecap="round"/><path d="M41.998 12.24l-6.14 3.506a1.835 1.835 0 0 1-1.815.003l-6.189-3.511a.612.612 0 0 1-.001-1.063l6.14-3.506a1.835 1.835 0 0 1 1.815-.003l6.188 3.511a.612.612 0 0 1 .002 1.063zm6.158 11.544l-6.14 3.506a1.835 1.835 0 0 1-1.815.003l-6.189-3.511a.612.612 0 0 1-.001-1.063l6.14-3.507a1.835 1.835 0 0 1 1.815-.002l6.188 3.511a.612.612 0 0 1 .002 1.063z" stroke="#FFF" stroke-width=".52"/><path d="M28.758 20.139l-6.14 3.506a1.835 1.835 0 0 1-1.814.002l-6.19-3.51a.612.612 0 0 1 0-1.064l6.139-3.506a1.835 1.835 0 0 1 1.815-.003l6.189 3.512a.612.612 0 0 1 .001 1.063z" stroke="#FFF" stroke-width=".52" filter="url(#e)"/><path d="M41.998 12.24l-6.14 3.506a1.835 1.835 0 0 1-1.815.003l-6.189-3.511a.612.612 0 0 1-.001-1.063l6.14-3.506a1.835 1.835 0 0 1 1.815-.003l6.188 3.511a.612.612 0 0 1 .002 1.063z" stroke="#FFF" stroke-width=".52" filter="url(#f)"/><path d="M48.156 23.784l-6.14 3.506a1.835 1.835 0 0 1-1.815.003l-6.189-3.511a.612.612 0 0 1-.001-1.063l6.14-3.507a1.835 1.835 0 0 1 1.815-.002l6.188 3.511a.612.612 0 0 1 .002 1.063z" stroke="#FFF" stroke-width=".52" filter="url(#g)"/></g></svg>