<svg width="52" height="49" viewBox="0 0 52 49" xmlns="http://www.w3.org/2000/svg"><defs><linearGradient x1="33.964%" y1="185.945%" x2="50%" y2="0%" id="a"><stop stop-color="#FFF" offset="0%"/><stop stop-color="#FFF" offset="100%"/></linearGradient><linearGradient x1="50%" y1="0%" x2="12.379%" y2="120.489%" id="b"><stop stop-color="#FFF" offset="0%"/><stop stop-color="#FFF" offset="100%"/></linearGradient><linearGradient x1="50%" y1="-9.698%" x2="50%" y2="100%" id="c"><stop stop-color="#FFF" stop-opacity="0" offset="0%"/><stop stop-color="#FFF" offset="100%"/></linearGradient><linearGradient x1="50%" y1="0%" x2="50%" y2="100%" id="d"><stop stop-color="#FFF" stop-opacity=".125" offset="0%"/><stop stop-color="#FFF" offset="100%"/></linearGradient><filter x="-10.9%" y="-11.6%" width="121.7%" height="123.3%" filterUnits="objectBoundingBox" id="e"><feOffset in="SourceAlpha" result="shadowOffsetOuter1"/><feGaussianBlur stdDeviation="1" in="shadowOffsetOuter1" result="shadowBlurOuter1"/><feColorMatrix values="0 0 0 0 1 0 0 0 0 1 0 0 0 0 1 0 0 0 0.698935688 0" in="shadowBlurOuter1" result="shadowMatrixOuter1"/><feMerge><feMergeNode in="shadowMatrixOuter1"/><feMergeNode in="SourceGraphic"/></feMerge></filter></defs><g fill="none" fill-rule="evenodd"><path d="M30.717 13.313a5.347 5.347 0 0 1-.081.04l.169-.017-.088-.023zm-2.94-1.407a6.369 6.369 0 0 1-.456-.399l-.155.43c.206-.016.409-.026.61-.031zm3.995.692c.564.227 1.11.508 1.636.845l.197-.452a20.62 20.62 0 0 0-1.778-.384l-.055-.009z" stroke="url(#a)" stroke-width=".5" transform="translate(3 3)"/><path d="M33.255 30.449c-2.067-.92-3.054-2.36-2.907-4.307.16-2.115 1.137-3.458 2.562-3.895 1.209-.37 2.547.027 3 .905.223.49.284 1.027.188 1.602 2.075-1.149 3.095-2.714 3.095-4.714-.025-2.718-1.56-4.87-4.65-6.478l-.16-.085v-1.189c-5.581-3.263-10.88-4.733-15.9-4.417a73.784 73.784 0 0 0 1.32 1.33l.505.489-.702.027c-4.942.192-8.7 2.13-11.302 5.824-2.569 3.645-3.292 7.78-2.17 12.426l27.12 2.482z" stroke="url(#b)" stroke-width=".6" transform="translate(3 3)"/><path d="M35.5 14.213c.089.19-.073-.157 0 .032.99 2.571.483 5.106-1.291 7.718-.058.085-.127.081-.209-.013 1.916-2.772 2.33-5.364 1.208-7.95l.292.213zm.009.056c.974 2.555.474 5.076-1.275 7.67-.095.14.101-.08 0 .061L34 21.964c1.916-2.778 2.33-5.374 1.208-7.964.15.048.25.137.3.269z" stroke="#FFF" stroke-width=".5" fill="url(#c)" fill-rule="nonzero" transform="translate(3 3)"/><path d="M30.587 25.234l.115.167c-2.21 1.346-4.852 1.85-7.927 1.51-6.808-.754-10.039-4.614-10.039-9.67 0-3.37 2.316-5.978 6.947-7.823l.075.188c-4.561 1.817-6.819 4.36-6.819 7.635 0 5.232 3.46 8.76 9.859 9.468 3.027.335 5.621-.158 7.789-1.475zm.115.167c-2.21 1.346-4.852 1.85-7.927 1.51-6.808-.754-10.039-4.614-10.039-9.67 0-3.37 2.316-5.978 6.947-7.823l.075.188c-4.561 1.817-6.819 4.36-6.819 7.635 0 5.232 3.46 8.76 9.859 9.468 3.027.335 5.621-.158 7.789-1.475l.115.167z" stroke="#FFF" stroke-width=".5" fill="url(#d)" fill-rule="nonzero" transform="translate(3 3)"/><g fill="#FFF" fill-rule="nonzero" stroke="#FFF" stroke-width=".5"><path d="M26.156 45.623l-.19.33c-.133-.067-.037-.028-.099-.047C14.583 42.399 6.972 32.29 3.03 15.61l.058-.176c6.51-5.529 14.165-9.663 22.964-12.402l.106.34C17.44 6.085 9.856 10.172 3.4 15.634 7.344 32.23 14.93 42.217 26.155 45.622z"/><path d="M25.854 45.623l.103.34c11.386-3.454 19.06-13.58 23.023-30.352l-.058-.176C42.412 9.906 34.85 5.772 26.05 3.033l-.196.34c8.717 2.713 16.302 6.8 22.756 12.262-3.944 16.596-11.53 26.583-22.755 29.988z"/></g><g filter="url(#e)" fill="#FFF" fill-rule="nonzero" stroke="#FFF" stroke-width=".5" transform="translate(3 3)"><path d="M23.156 42.623l-.19.33c-.133-.067-.037-.028-.099-.047C11.583 39.399 3.972 29.29.03 12.61l.058-.176C6.598 6.906 14.253 2.772 23.052.033l.106.34C14.44 3.085 6.856 7.172.4 12.634 4.344 29.23 11.93 39.217 23.155 42.622z"/><path d="M22.854 42.623l.103.34c11.386-3.454 19.06-13.58 23.023-30.352l-.058-.176C39.412 6.906 31.85 2.772 23.05.033l-.196.34c8.717 2.713 16.302 6.8 22.756 12.262-3.944 16.596-11.53 26.583-22.755 29.988z"/></g><path d="M37.272 33.678s1.417.492 3.867.624" stroke="#FFF" stroke-width=".5"/></g></svg>