<svg width="136" height="116" viewBox="0 0 136 116" xmlns="http://www.w3.org/2000/svg"><defs><linearGradient x1="0%" y1="100%" x2="100%" y2="0%" id="a"><stop stop-color="#F19F73" offset="0%"/><stop stop-color="#A74EB5" offset="100%"/></linearGradient><linearGradient x1="122.249%" y1="-11.89%" x2="-4.849%" y2="111.606%" id="b"><stop stop-color="#02F0E4" offset="0%"/><stop stop-color="#02D5EB" offset="100%"/></linearGradient><linearGradient x1="122.249%" y1="-11.89%" x2="-4.849%" y2="111.606%" id="c"><stop stop-color="#02F0E4" offset="0%"/><stop stop-color="#009BAB" offset="100%"/></linearGradient><linearGradient x1="50%" y1="12.185%" x2="50%" y2="107.159%" id="d"><stop stop-color="#0DD0D0" offset="0%"/><stop stop-color="#0EBEC4" offset="100%"/></linearGradient><linearGradient x1="50%" y1="-46.888%" x2="50%" y2="107.159%" id="e"><stop stop-color="#FFF" offset="0%"/><stop stop-color="#38CED1" offset="100%"/></linearGradient></defs><g fill="none" fill-rule="evenodd"><path d="M135.997 59.14c.078-3.99-2.551-8-7.884-11.044l-41.39-23.631c-10.469-5.977-27.384-5.977-37.785 0L7.816 48.097C2.633 51.075.047 54.977.053 58.88v-.038L0 76.95c-.011 3.942 2.62 7.89 7.887 10.897l41.391 23.631c10.467 5.976 27.384 5.977 37.784 0l41.122-23.632c5.167-2.969 7.753-6.854 7.764-10.745L136 58.993l-.003.147z" fill="url(#a)"/><path d="M128.236 69.738L87.114 93.37c-10.4 5.977-27.317 5.976-37.784 0L7.94 69.74C2.671 66.73.04 62.784.051 58.842L0 76.95c-.011 3.942 2.62 7.89 7.887 10.897l41.391 23.631c10.467 5.976 27.384 5.977 37.784 0l41.122-23.632c5.167-2.969 7.753-6.854 7.764-10.745L136 58.993c-.011 3.891-2.597 7.776-7.764 10.745z" fill="url(#b)"/><path d="M128.113 48.096c10.467 5.976 10.523 15.666.123 21.642L87.114 93.37c-10.4 5.977-27.317 5.976-37.784 0L7.94 69.74c-10.47-5.978-10.525-15.667-.125-21.643l41.122-23.632c10.4-5.977 27.316-5.977 37.784 0l41.391 23.631z" fill="url(#c)"/><path d="M44.34 21.386c-.17.086-.34.175-.51.268h.002c.168-.093.337-.182.509-.268z" fill="#E0E0E2"/><path d="M135.997 39.277c.078-3.99-2.551-8-7.884-11.044L86.723 4.602c-10.469-5.977-27.384-5.977-37.785 0L7.816 28.234C2.633 31.212.047 35.114.053 39.017v-.038L0 57.086c-.011 3.942 2.62 7.89 7.887 10.897l41.391 23.631c10.467 5.976 27.384 5.977 37.784 0l41.122-23.632c5.167-2.969 7.753-6.854 7.764-10.745L136 39.13l-.003.147z" fill="url(#d)"/><path d="M128.113 28.233c10.467 5.976 10.523 15.666.123 21.642L87.114 73.507c-10.4 5.977-27.317 5.976-37.784 0L7.94 49.876C-2.53 43.899-2.585 34.21 7.815 28.234L48.938 4.602c10.4-5.977 27.316-5.977 37.784 0l41.391 23.631z" fill="url(#e)"/><path d="M44.34 1.523c-.17.086-.34.175-.51.268h.002c.168-.093.337-.182.509-.268z" fill="#E0E0E2"/><path d="M57.517 40.277l-12.28 7.013a3.67 3.67 0 01-3.63.005L29.23 40.272a1.223 1.223 0 01-.003-2.125l12.279-7.013a3.67 3.67 0 013.63-.005l12.378 7.023a1.223 1.223 0 01.003 2.125z" stroke="#FFF" stroke-width="1.223"/><path d="M77.686 29.051l13.845 7.874a1.93 1.93 0 01.004 3.367l-2.16 1.236m-17.407 9.965a5.981 5.981 0 01-5.92.009l-13.37-7.605m-1.748-9.62l10.65-6.097" stroke="#FFF" stroke-width="1.04" opacity=".229" stroke-linecap="round"/><path d="M83.996 24.48l-12.28 7.013a3.67 3.67 0 01-3.63.005L55.71 24.475a1.223 1.223 0 01-.003-2.125l12.279-7.013a3.67 3.67 0 013.63-.005l12.378 7.023a1.223 1.223 0 01.003 2.126zm12.316 23.088l-12.28 7.013a3.67 3.67 0 01-3.63.005l-12.377-7.023a1.223 1.223 0 01-.003-2.126L80.3 38.425a3.67 3.67 0 013.63-.005l12.378 7.023a1.223 1.223 0 01.003 2.125z" stroke="#FFF" stroke-width="1.04"/></g></svg>