<svg width="136" height="116" viewBox="0 0 136 116" xmlns="http://www.w3.org/2000/svg"><defs><linearGradient x1="0%" y1="100%" x2="100%" y2="0%" id="a"><stop stop-color="#F19F73" offset="0%"/><stop stop-color="#A74EB5" offset="100%"/></linearGradient><linearGradient x1="0%" y1="94.748%" x2="100%" y2="0%" id="b"><stop stop-color="#BF5F2C" offset="0%"/><stop stop-color="#A74EB5" offset="100%"/></linearGradient><linearGradient x1="57.772%" y1="-3.639%" x2="90.805%" y2="244.906%" id="c"><stop stop-color="#D9715B" offset="0%"/><stop stop-color="#B760A4" offset="100%"/></linearGradient><linearGradient x1="50%" y1="-45.849%" x2="82.095%" y2="55.546%" id="d"><stop stop-color="#D798B1" offset="0%"/><stop stop-color="#CF7E93" offset="100%"/></linearGradient></defs><g fill="none" fill-rule="evenodd"><path d="M135.997 59.14c.078-3.99-2.551-8-7.884-11.044l-41.39-23.631c-10.469-5.977-27.384-5.977-37.785 0L7.816 48.097C2.633 51.075.047 54.977.053 58.88v-.038L0 76.95c-.011 3.942 2.62 7.89 7.887 10.897l41.391 23.631c10.467 5.976 27.384 5.977 37.784 0l41.122-23.632c5.167-2.969 7.753-6.854 7.764-10.745L136 58.993l-.003.147z" fill="url(#a)"/><path d="M128.236 69.738L87.114 93.37c-10.4 5.977-27.317 5.976-37.784 0L7.94 69.74C2.671 66.73.04 62.784.051 58.842L0 76.95c-.011 3.942 2.62 7.89 7.887 10.897l41.391 23.631c10.467 5.976 27.384 5.977 37.784 0l41.122-23.632c5.167-2.969 7.753-6.854 7.764-10.745L136 58.993c-.011 3.891-2.597 7.776-7.764 10.745z" fill="url(#a)"/><path d="M128.113 48.096c10.467 5.976 10.523 15.666.123 21.642L87.114 93.37c-10.4 5.977-27.317 5.976-37.784 0L7.94 69.74c-10.47-5.978-10.525-15.667-.125-21.643l41.122-23.632c10.4-5.977 27.316-5.977 37.784 0l41.391 23.631z" fill="url(#b)"/><path d="M44.34 21.386c-.17.086-.34.175-.51.268h.002c.168-.093.337-.182.509-.268z" fill="#E0E0E2"/><path d="M135.997 39.277c.078-3.99-2.551-8-7.884-11.044L86.723 4.602c-10.469-5.977-27.384-5.977-37.785 0L7.816 28.234C2.633 31.212.047 35.114.053 39.017v-.038L0 57.086c-.011 3.942 2.62 7.89 7.887 10.897l41.391 23.631c10.467 5.976 27.384 5.977 37.784 0l41.122-23.632c5.167-2.969 7.753-6.854 7.764-10.745L136 39.13l-.003.147z" fill="url(#c)"/><path d="M128.113 28.233c10.467 5.976 10.523 15.666.123 21.642L87.114 73.507c-10.4 5.977-27.317 5.976-37.784 0L7.94 49.876C-2.53 43.899-2.585 34.21 7.815 28.234L48.938 4.602c10.4-5.977 27.316-5.977 37.784 0l41.391 23.631z" fill="url(#d)"/><path d="M44.34 1.523c-.17.086-.34.175-.51.268h.002c.168-.093.337-.182.509-.268z" fill="#E0E0E2"/><path d="M76.986 21.452c-12.594 0-22.8 6.077-22.8 13.573h-9.12v19.002l15.797-9.404c4.126 2.456 9.826 3.975 16.123 3.975 12.592 0 22.801-6.077 22.801-13.573s-10.21-13.573-22.8-13.573zm-27.36 26.022V37.74h16.352l-16.353 9.734zm27.36-1.59c-5.028 0-9.588-1.218-12.892-3.184l12.892-7.675h-18.24c0-5.987 8.183-10.859 18.24-10.859 10.058 0 18.24 4.872 18.24 10.859s-8.182 10.859-18.24 10.859z" stroke="#FFF"/></g></svg>